<?xml version="1.0" encoding="utf-8" standalone="no"?>
<!DOCTYPE svg PUBLIC "-//W3C//DTD SVG 1.1//EN"
  "http://www.w3.org/Graphics/SVG/1.1/DTD/svg11.dtd">
<svg xmlns:xlink="http://www.w3.org/1999/xlink" width="1944pt" height="360pt" viewBox="0 0 1944 360" xmlns="http://www.w3.org/2000/svg" version="1.1">
 <metadata>
  <rdf:RDF xmlns:dc="http://purl.org/dc/elements/1.1/" xmlns:cc="http://creativecommons.org/ns#" xmlns:rdf="http://www.w3.org/1999/02/22-rdf-syntax-ns#">
   <cc:Work>
    <dc:type rdf:resource="http://purl.org/dc/dcmitype/StillImage"/>
    <dc:date>2025-07-14T10:36:21.456744</dc:date>
    <dc:format>image/svg+xml</dc:format>
    <dc:creator>
     <cc:Agent>
      <dc:title>Matplotlib v3.10.0, https://matplotlib.org/</dc:title>
     </cc:Agent>
    </dc:creator>
   </cc:Work>
  </rdf:RDF>
 </metadata>
 <defs>
  <style type="text/css">*{stroke-linejoin: round; stroke-linecap: butt}</style>
 </defs>
 <g id="figure_1">
  <g id="patch_1">
   <path d="M 0 360 
L 1944 360 
L 1944 0 
L 0 0 
z
" style="fill: #ffffff"/>
  </g>
  <g id="axes_1">
   <g id="patch_2">
    <path d="M 62.48 318.04 
L 1896.235 318.04 
L 1896.235 26.16 
L 62.48 26.16 
z
" style="fill: #ffffff"/>
   </g>
   <g id="matplotlib.axis_1">
    <g id="xtick_1">
     <g id="line2d_1">
      <defs>
       <path id="m72ca95661e" d="M 0 0 
L 0 3.5 
" style="stroke: #000000; stroke-width: 0.8"/>
      </defs>
      <g>
       <use xlink:href="#m72ca95661e" x="108.841897" y="318.04" style="stroke: #000000; stroke-width: 0.8"/>
      </g>
     </g>
     <g id="text_1">
      <!-- 02:00 -->
      <g transform="translate(94.432522 332.638438) scale(0.1 -0.1)">
       <defs>
        <path id="DejaVuSans-30" d="M 2034 4250 
Q 1547 4250 1301 3770 
Q 1056 3291 1056 2328 
Q 1056 1369 1301 889 
Q 1547 409 2034 409 
Q 2525 409 2770 889 
Q 3016 1369 3016 2328 
Q 3016 3291 2770 3770 
Q 2525 4250 2034 4250 
z
M 2034 4750 
Q 2819 4750 3233 4129 
Q 3647 3509 3647 2328 
Q 3647 1150 3233 529 
Q 2819 -91 2034 -91 
Q 1250 -91 836 529 
Q 422 1150 422 2328 
Q 422 3509 836 4129 
Q 1250 4750 2034 4750 
z
" transform="scale(0.015625)"/>
        <path id="DejaVuSans-32" d="M 1228 531 
L 3431 531 
L 3431 0 
L 469 0 
L 469 531 
Q 828 903 1448 1529 
Q 2069 2156 2228 2338 
Q 2531 2678 2651 2914 
Q 2772 3150 2772 3378 
Q 2772 3750 2511 3984 
Q 2250 4219 1831 4219 
Q 1534 4219 1204 4116 
Q 875 4013 500 3803 
L 500 4441 
Q 881 4594 1212 4672 
Q 1544 4750 1819 4750 
Q 2544 4750 2975 4387 
Q 3406 4025 3406 3419 
Q 3406 3131 3298 2873 
Q 3191 2616 2906 2266 
Q 2828 2175 2409 1742 
Q 1991 1309 1228 531 
z
" transform="scale(0.015625)"/>
        <path id="DejaVuSans-3a" d="M 750 794 
L 1409 794 
L 1409 0 
L 750 0 
L 750 794 
z
M 750 3309 
L 1409 3309 
L 1409 2516 
L 750 2516 
L 750 3309 
z
" transform="scale(0.015625)"/>
       </defs>
       <use xlink:href="#DejaVuSans-30"/>
       <use xlink:href="#DejaVuSans-32" transform="translate(63.623047 0)"/>
       <use xlink:href="#DejaVuSans-3a" transform="translate(127.246094 0)"/>
       <use xlink:href="#DejaVuSans-30" transform="translate(160.9375 0)"/>
       <use xlink:href="#DejaVuSans-30" transform="translate(224.560547 0)"/>
      </g>
     </g>
    </g>
    <g id="xtick_2">
     <g id="line2d_2">
      <g>
       <use xlink:href="#m72ca95661e" x="276.178126" y="318.04" style="stroke: #000000; stroke-width: 0.8"/>
      </g>
     </g>
     <g id="text_2">
      <!-- 04:00 -->
      <g transform="translate(261.768751 332.638438) scale(0.1 -0.1)">
       <defs>
        <path id="DejaVuSans-34" d="M 2419 4116 
L 825 1625 
L 2419 1625 
L 2419 4116 
z
M 2253 4666 
L 3047 4666 
L 3047 1625 
L 3713 1625 
L 3713 1100 
L 3047 1100 
L 3047 0 
L 2419 0 
L 2419 1100 
L 313 1100 
L 313 1709 
L 2253 4666 
z
" transform="scale(0.015625)"/>
       </defs>
       <use xlink:href="#DejaVuSans-30"/>
       <use xlink:href="#DejaVuSans-34" transform="translate(63.623047 0)"/>
       <use xlink:href="#DejaVuSans-3a" transform="translate(127.246094 0)"/>
       <use xlink:href="#DejaVuSans-30" transform="translate(160.9375 0)"/>
       <use xlink:href="#DejaVuSans-30" transform="translate(224.560547 0)"/>
      </g>
     </g>
    </g>
    <g id="xtick_3">
     <g id="line2d_3">
      <g>
       <use xlink:href="#m72ca95661e" x="443.514356" y="318.04" style="stroke: #000000; stroke-width: 0.8"/>
      </g>
     </g>
     <g id="text_3">
      <!-- 06:00 -->
      <g transform="translate(429.104981 332.638438) scale(0.1 -0.1)">
       <defs>
        <path id="DejaVuSans-36" d="M 2113 2584 
Q 1688 2584 1439 2293 
Q 1191 2003 1191 1497 
Q 1191 994 1439 701 
Q 1688 409 2113 409 
Q 2538 409 2786 701 
Q 3034 994 3034 1497 
Q 3034 2003 2786 2293 
Q 2538 2584 2113 2584 
z
M 3366 4563 
L 3366 3988 
Q 3128 4100 2886 4159 
Q 2644 4219 2406 4219 
Q 1781 4219 1451 3797 
Q 1122 3375 1075 2522 
Q 1259 2794 1537 2939 
Q 1816 3084 2150 3084 
Q 2853 3084 3261 2657 
Q 3669 2231 3669 1497 
Q 3669 778 3244 343 
Q 2819 -91 2113 -91 
Q 1303 -91 875 529 
Q 447 1150 447 2328 
Q 447 3434 972 4092 
Q 1497 4750 2381 4750 
Q 2619 4750 2861 4703 
Q 3103 4656 3366 4563 
z
" transform="scale(0.015625)"/>
       </defs>
       <use xlink:href="#DejaVuSans-30"/>
       <use xlink:href="#DejaVuSans-36" transform="translate(63.623047 0)"/>
       <use xlink:href="#DejaVuSans-3a" transform="translate(127.246094 0)"/>
       <use xlink:href="#DejaVuSans-30" transform="translate(160.9375 0)"/>
       <use xlink:href="#DejaVuSans-30" transform="translate(224.560547 0)"/>
      </g>
     </g>
    </g>
    <g id="xtick_4">
     <g id="line2d_4">
      <g>
       <use xlink:href="#m72ca95661e" x="610.850585" y="318.04" style="stroke: #000000; stroke-width: 0.8"/>
      </g>
     </g>
     <g id="text_4">
      <!-- 08:00 -->
      <g transform="translate(596.44121 332.638438) scale(0.1 -0.1)">
       <defs>
        <path id="DejaVuSans-38" d="M 2034 2216 
Q 1584 2216 1326 1975 
Q 1069 1734 1069 1313 
Q 1069 891 1326 650 
Q 1584 409 2034 409 
Q 2484 409 2743 651 
Q 3003 894 3003 1313 
Q 3003 1734 2745 1975 
Q 2488 2216 2034 2216 
z
M 1403 2484 
Q 997 2584 770 2862 
Q 544 3141 544 3541 
Q 544 4100 942 4425 
Q 1341 4750 2034 4750 
Q 2731 4750 3128 4425 
Q 3525 4100 3525 3541 
Q 3525 3141 3298 2862 
Q 3072 2584 2669 2484 
Q 3125 2378 3379 2068 
Q 3634 1759 3634 1313 
Q 3634 634 3220 271 
Q 2806 -91 2034 -91 
Q 1263 -91 848 271 
Q 434 634 434 1313 
Q 434 1759 690 2068 
Q 947 2378 1403 2484 
z
M 1172 3481 
Q 1172 3119 1398 2916 
Q 1625 2713 2034 2713 
Q 2441 2713 2670 2916 
Q 2900 3119 2900 3481 
Q 2900 3844 2670 4047 
Q 2441 4250 2034 4250 
Q 1625 4250 1398 4047 
Q 1172 3844 1172 3481 
z
" transform="scale(0.015625)"/>
       </defs>
       <use xlink:href="#DejaVuSans-30"/>
       <use xlink:href="#DejaVuSans-38" transform="translate(63.623047 0)"/>
       <use xlink:href="#DejaVuSans-3a" transform="translate(127.246094 0)"/>
       <use xlink:href="#DejaVuSans-30" transform="translate(160.9375 0)"/>
       <use xlink:href="#DejaVuSans-30" transform="translate(224.560547 0)"/>
      </g>
     </g>
    </g>
    <g id="xtick_5">
     <g id="line2d_5">
      <g>
       <use xlink:href="#m72ca95661e" x="778.186815" y="318.04" style="stroke: #000000; stroke-width: 0.8"/>
      </g>
     </g>
     <g id="text_5">
      <!-- 10:00 -->
      <g transform="translate(763.77744 332.638438) scale(0.1 -0.1)">
       <defs>
        <path id="DejaVuSans-31" d="M 794 531 
L 1825 531 
L 1825 4091 
L 703 3866 
L 703 4441 
L 1819 4666 
L 2450 4666 
L 2450 531 
L 3481 531 
L 3481 0 
L 794 0 
L 794 531 
z
" transform="scale(0.015625)"/>
       </defs>
       <use xlink:href="#DejaVuSans-31"/>
       <use xlink:href="#DejaVuSans-30" transform="translate(63.623047 0)"/>
       <use xlink:href="#DejaVuSans-3a" transform="translate(127.246094 0)"/>
       <use xlink:href="#DejaVuSans-30" transform="translate(160.9375 0)"/>
       <use xlink:href="#DejaVuSans-30" transform="translate(224.560547 0)"/>
      </g>
     </g>
    </g>
    <g id="xtick_6">
     <g id="line2d_6">
      <g>
       <use xlink:href="#m72ca95661e" x="945.523044" y="318.04" style="stroke: #000000; stroke-width: 0.8"/>
      </g>
     </g>
     <g id="text_6">
      <!-- 12:00 -->
      <g transform="translate(931.113669 332.638438) scale(0.1 -0.1)">
       <use xlink:href="#DejaVuSans-31"/>
       <use xlink:href="#DejaVuSans-32" transform="translate(63.623047 0)"/>
       <use xlink:href="#DejaVuSans-3a" transform="translate(127.246094 0)"/>
       <use xlink:href="#DejaVuSans-30" transform="translate(160.9375 0)"/>
       <use xlink:href="#DejaVuSans-30" transform="translate(224.560547 0)"/>
      </g>
     </g>
    </g>
    <g id="xtick_7">
     <g id="line2d_7">
      <g>
       <use xlink:href="#m72ca95661e" x="1112.859273" y="318.04" style="stroke: #000000; stroke-width: 0.8"/>
      </g>
     </g>
     <g id="text_7">
      <!-- 14:00 -->
      <g transform="translate(1098.449898 332.638438) scale(0.1 -0.1)">
       <use xlink:href="#DejaVuSans-31"/>
       <use xlink:href="#DejaVuSans-34" transform="translate(63.623047 0)"/>
       <use xlink:href="#DejaVuSans-3a" transform="translate(127.246094 0)"/>
       <use xlink:href="#DejaVuSans-30" transform="translate(160.9375 0)"/>
       <use xlink:href="#DejaVuSans-30" transform="translate(224.560547 0)"/>
      </g>
     </g>
    </g>
    <g id="xtick_8">
     <g id="line2d_8">
      <g>
       <use xlink:href="#m72ca95661e" x="1280.195503" y="318.04" style="stroke: #000000; stroke-width: 0.8"/>
      </g>
     </g>
     <g id="text_8">
      <!-- 16:00 -->
      <g transform="translate(1265.786128 332.638438) scale(0.1 -0.1)">
       <use xlink:href="#DejaVuSans-31"/>
       <use xlink:href="#DejaVuSans-36" transform="translate(63.623047 0)"/>
       <use xlink:href="#DejaVuSans-3a" transform="translate(127.246094 0)"/>
       <use xlink:href="#DejaVuSans-30" transform="translate(160.9375 0)"/>
       <use xlink:href="#DejaVuSans-30" transform="translate(224.560547 0)"/>
      </g>
     </g>
    </g>
    <g id="xtick_9">
     <g id="line2d_9">
      <g>
       <use xlink:href="#m72ca95661e" x="1447.531732" y="318.04" style="stroke: #000000; stroke-width: 0.8"/>
      </g>
     </g>
     <g id="text_9">
      <!-- 18:00 -->
      <g transform="translate(1433.122357 332.638438) scale(0.1 -0.1)">
       <use xlink:href="#DejaVuSans-31"/>
       <use xlink:href="#DejaVuSans-38" transform="translate(63.623047 0)"/>
       <use xlink:href="#DejaVuSans-3a" transform="translate(127.246094 0)"/>
       <use xlink:href="#DejaVuSans-30" transform="translate(160.9375 0)"/>
       <use xlink:href="#DejaVuSans-30" transform="translate(224.560547 0)"/>
      </g>
     </g>
    </g>
    <g id="xtick_10">
     <g id="line2d_10">
      <g>
       <use xlink:href="#m72ca95661e" x="1614.867962" y="318.04" style="stroke: #000000; stroke-width: 0.8"/>
      </g>
     </g>
     <g id="text_10">
      <!-- 20:00 -->
      <g transform="translate(1600.458587 332.638438) scale(0.1 -0.1)">
       <use xlink:href="#DejaVuSans-32"/>
       <use xlink:href="#DejaVuSans-30" transform="translate(63.623047 0)"/>
       <use xlink:href="#DejaVuSans-3a" transform="translate(127.246094 0)"/>
       <use xlink:href="#DejaVuSans-30" transform="translate(160.9375 0)"/>
       <use xlink:href="#DejaVuSans-30" transform="translate(224.560547 0)"/>
      </g>
     </g>
    </g>
    <g id="xtick_11">
     <g id="line2d_11">
      <g>
       <use xlink:href="#m72ca95661e" x="1782.204191" y="318.04" style="stroke: #000000; stroke-width: 0.8"/>
      </g>
     </g>
     <g id="text_11">
      <!-- 22:00 -->
      <g transform="translate(1767.794816 332.638438) scale(0.1 -0.1)">
       <use xlink:href="#DejaVuSans-32"/>
       <use xlink:href="#DejaVuSans-32" transform="translate(63.623047 0)"/>
       <use xlink:href="#DejaVuSans-3a" transform="translate(127.246094 0)"/>
       <use xlink:href="#DejaVuSans-30" transform="translate(160.9375 0)"/>
       <use xlink:href="#DejaVuSans-30" transform="translate(224.560547 0)"/>
      </g>
     </g>
    </g>
    <g id="text_12">
     <!-- Time of Day -->
     <g transform="translate(949.252813 346.316563) scale(0.1 -0.1)">
      <defs>
       <path id="DejaVuSans-54" d="M -19 4666 
L 3928 4666 
L 3928 4134 
L 2272 4134 
L 2272 0 
L 1638 0 
L 1638 4134 
L -19 4134 
L -19 4666 
z
" transform="scale(0.015625)"/>
       <path id="DejaVuSans-69" d="M 603 3500 
L 1178 3500 
L 1178 0 
L 603 0 
L 603 3500 
z
M 603 4863 
L 1178 4863 
L 1178 4134 
L 603 4134 
L 603 4863 
z
" transform="scale(0.015625)"/>
       <path id="DejaVuSans-6d" d="M 3328 2828 
Q 3544 3216 3844 3400 
Q 4144 3584 4550 3584 
Q 5097 3584 5394 3201 
Q 5691 2819 5691 2113 
L 5691 0 
L 5113 0 
L 5113 2094 
Q 5113 2597 4934 2840 
Q 4756 3084 4391 3084 
Q 3944 3084 3684 2787 
Q 3425 2491 3425 1978 
L 3425 0 
L 2847 0 
L 2847 2094 
Q 2847 2600 2669 2842 
Q 2491 3084 2119 3084 
Q 1678 3084 1418 2786 
Q 1159 2488 1159 1978 
L 1159 0 
L 581 0 
L 581 3500 
L 1159 3500 
L 1159 2956 
Q 1356 3278 1631 3431 
Q 1906 3584 2284 3584 
Q 2666 3584 2933 3390 
Q 3200 3197 3328 2828 
z
" transform="scale(0.015625)"/>
       <path id="DejaVuSans-65" d="M 3597 1894 
L 3597 1613 
L 953 1613 
Q 991 1019 1311 708 
Q 1631 397 2203 397 
Q 2534 397 2845 478 
Q 3156 559 3463 722 
L 3463 178 
Q 3153 47 2828 -22 
Q 2503 -91 2169 -91 
Q 1331 -91 842 396 
Q 353 884 353 1716 
Q 353 2575 817 3079 
Q 1281 3584 2069 3584 
Q 2775 3584 3186 3129 
Q 3597 2675 3597 1894 
z
M 3022 2063 
Q 3016 2534 2758 2815 
Q 2500 3097 2075 3097 
Q 1594 3097 1305 2825 
Q 1016 2553 972 2059 
L 3022 2063 
z
" transform="scale(0.015625)"/>
       <path id="DejaVuSans-20" transform="scale(0.015625)"/>
       <path id="DejaVuSans-6f" d="M 1959 3097 
Q 1497 3097 1228 2736 
Q 959 2375 959 1747 
Q 959 1119 1226 758 
Q 1494 397 1959 397 
Q 2419 397 2687 759 
Q 2956 1122 2956 1747 
Q 2956 2369 2687 2733 
Q 2419 3097 1959 3097 
z
M 1959 3584 
Q 2709 3584 3137 3096 
Q 3566 2609 3566 1747 
Q 3566 888 3137 398 
Q 2709 -91 1959 -91 
Q 1206 -91 779 398 
Q 353 888 353 1747 
Q 353 2609 779 3096 
Q 1206 3584 1959 3584 
z
" transform="scale(0.015625)"/>
       <path id="DejaVuSans-66" d="M 2375 4863 
L 2375 4384 
L 1825 4384 
Q 1516 4384 1395 4259 
Q 1275 4134 1275 3809 
L 1275 3500 
L 2222 3500 
L 2222 3053 
L 1275 3053 
L 1275 0 
L 697 0 
L 697 3053 
L 147 3053 
L 147 3500 
L 697 3500 
L 697 3744 
Q 697 4328 969 4595 
Q 1241 4863 1831 4863 
L 2375 4863 
z
" transform="scale(0.015625)"/>
       <path id="DejaVuSans-44" d="M 1259 4147 
L 1259 519 
L 2022 519 
Q 2988 519 3436 956 
Q 3884 1394 3884 2338 
Q 3884 3275 3436 3711 
Q 2988 4147 2022 4147 
L 1259 4147 
z
M 628 4666 
L 1925 4666 
Q 3281 4666 3915 4102 
Q 4550 3538 4550 2338 
Q 4550 1131 3912 565 
Q 3275 0 1925 0 
L 628 0 
L 628 4666 
z
" transform="scale(0.015625)"/>
       <path id="DejaVuSans-61" d="M 2194 1759 
Q 1497 1759 1228 1600 
Q 959 1441 959 1056 
Q 959 750 1161 570 
Q 1363 391 1709 391 
Q 2188 391 2477 730 
Q 2766 1069 2766 1631 
L 2766 1759 
L 2194 1759 
z
M 3341 1997 
L 3341 0 
L 2766 0 
L 2766 531 
Q 2569 213 2275 61 
Q 1981 -91 1556 -91 
Q 1019 -91 701 211 
Q 384 513 384 1019 
Q 384 1609 779 1909 
Q 1175 2209 1959 2209 
L 2766 2209 
L 2766 2266 
Q 2766 2663 2505 2880 
Q 2244 3097 1772 3097 
Q 1472 3097 1187 3025 
Q 903 2953 641 2809 
L 641 3341 
Q 956 3463 1253 3523 
Q 1550 3584 1831 3584 
Q 2591 3584 2966 3190 
Q 3341 2797 3341 1997 
z
" transform="scale(0.015625)"/>
       <path id="DejaVuSans-79" d="M 2059 -325 
Q 1816 -950 1584 -1140 
Q 1353 -1331 966 -1331 
L 506 -1331 
L 506 -850 
L 844 -850 
Q 1081 -850 1212 -737 
Q 1344 -625 1503 -206 
L 1606 56 
L 191 3500 
L 800 3500 
L 1894 763 
L 2988 3500 
L 3597 3500 
L 2059 -325 
z
" transform="scale(0.015625)"/>
      </defs>
      <use xlink:href="#DejaVuSans-54"/>
      <use xlink:href="#DejaVuSans-69" transform="translate(57.958984 0)"/>
      <use xlink:href="#DejaVuSans-6d" transform="translate(85.742188 0)"/>
      <use xlink:href="#DejaVuSans-65" transform="translate(183.154297 0)"/>
      <use xlink:href="#DejaVuSans-20" transform="translate(244.677734 0)"/>
      <use xlink:href="#DejaVuSans-6f" transform="translate(276.464844 0)"/>
      <use xlink:href="#DejaVuSans-66" transform="translate(337.646484 0)"/>
      <use xlink:href="#DejaVuSans-20" transform="translate(372.851562 0)"/>
      <use xlink:href="#DejaVuSans-44" transform="translate(404.638672 0)"/>
      <use xlink:href="#DejaVuSans-61" transform="translate(481.640625 0)"/>
      <use xlink:href="#DejaVuSans-79" transform="translate(542.919922 0)"/>
     </g>
    </g>
   </g>
   <g id="matplotlib.axis_2">
    <g id="ytick_1">
     <g id="line2d_12">
      <path d="M 62.48 318.04 
L 1896.235 318.04 
" clip-path="url(#p111b35a346)" style="fill: none; stroke: #b0b0b0; stroke-width: 0.8; stroke-linecap: square"/>
     </g>
     <g id="line2d_13">
      <defs>
       <path id="ma31f347144" d="M 0 0 
L -3.5 0 
" style="stroke: #000000; stroke-width: 0.8"/>
      </defs>
      <g>
       <use xlink:href="#ma31f347144" x="62.48" y="318.04" style="stroke: #000000; stroke-width: 0.8"/>
      </g>
     </g>
     <g id="text_13">
      <!-- −0.05 -->
      <g transform="translate(24.834688 321.839219) scale(0.1 -0.1)">
       <defs>
        <path id="DejaVuSans-2212" d="M 678 2272 
L 4684 2272 
L 4684 1741 
L 678 1741 
L 678 2272 
z
" transform="scale(0.015625)"/>
        <path id="DejaVuSans-2e" d="M 684 794 
L 1344 794 
L 1344 0 
L 684 0 
L 684 794 
z
" transform="scale(0.015625)"/>
        <path id="DejaVuSans-35" d="M 691 4666 
L 3169 4666 
L 3169 4134 
L 1269 4134 
L 1269 2991 
Q 1406 3038 1543 3061 
Q 1681 3084 1819 3084 
Q 2600 3084 3056 2656 
Q 3513 2228 3513 1497 
Q 3513 744 3044 326 
Q 2575 -91 1722 -91 
Q 1428 -91 1123 -41 
Q 819 9 494 109 
L 494 744 
Q 775 591 1075 516 
Q 1375 441 1709 441 
Q 2250 441 2565 725 
Q 2881 1009 2881 1497 
Q 2881 1984 2565 2268 
Q 2250 2553 1709 2553 
Q 1456 2553 1204 2497 
Q 953 2441 691 2322 
L 691 4666 
z
" transform="scale(0.015625)"/>
       </defs>
       <use xlink:href="#DejaVuSans-2212"/>
       <use xlink:href="#DejaVuSans-30" transform="translate(83.789062 0)"/>
       <use xlink:href="#DejaVuSans-2e" transform="translate(147.412109 0)"/>
       <use xlink:href="#DejaVuSans-30" transform="translate(179.199219 0)"/>
       <use xlink:href="#DejaVuSans-35" transform="translate(242.822266 0)"/>
      </g>
     </g>
    </g>
    <g id="ytick_2">
     <g id="line2d_14">
      <path d="M 62.48 285.608889 
L 1896.235 285.608889 
" clip-path="url(#p111b35a346)" style="fill: none; stroke: #b0b0b0; stroke-width: 0.8; stroke-linecap: square"/>
     </g>
     <g id="line2d_15">
      <g>
       <use xlink:href="#ma31f347144" x="62.48" y="285.608889" style="stroke: #000000; stroke-width: 0.8"/>
      </g>
     </g>
     <g id="text_14">
      <!-- 0.00 -->
      <g transform="translate(33.214375 289.408108) scale(0.1 -0.1)">
       <use xlink:href="#DejaVuSans-30"/>
       <use xlink:href="#DejaVuSans-2e" transform="translate(63.623047 0)"/>
       <use xlink:href="#DejaVuSans-30" transform="translate(95.410156 0)"/>
       <use xlink:href="#DejaVuSans-30" transform="translate(159.033203 0)"/>
      </g>
     </g>
    </g>
    <g id="ytick_3">
     <g id="line2d_16">
      <path d="M 62.48 253.177778 
L 1896.235 253.177778 
" clip-path="url(#p111b35a346)" style="fill: none; stroke: #b0b0b0; stroke-width: 0.8; stroke-linecap: square"/>
     </g>
     <g id="line2d_17">
      <g>
       <use xlink:href="#ma31f347144" x="62.48" y="253.177778" style="stroke: #000000; stroke-width: 0.8"/>
      </g>
     </g>
     <g id="text_15">
      <!-- 0.05 -->
      <g transform="translate(33.214375 256.976997) scale(0.1 -0.1)">
       <use xlink:href="#DejaVuSans-30"/>
       <use xlink:href="#DejaVuSans-2e" transform="translate(63.623047 0)"/>
       <use xlink:href="#DejaVuSans-30" transform="translate(95.410156 0)"/>
       <use xlink:href="#DejaVuSans-35" transform="translate(159.033203 0)"/>
      </g>
     </g>
    </g>
    <g id="ytick_4">
     <g id="line2d_18">
      <path d="M 62.48 220.746667 
L 1896.235 220.746667 
" clip-path="url(#p111b35a346)" style="fill: none; stroke: #b0b0b0; stroke-width: 0.8; stroke-linecap: square"/>
     </g>
     <g id="line2d_19">
      <g>
       <use xlink:href="#ma31f347144" x="62.48" y="220.746667" style="stroke: #000000; stroke-width: 0.8"/>
      </g>
     </g>
     <g id="text_16">
      <!-- 0.10 -->
      <g transform="translate(33.214375 224.545885) scale(0.1 -0.1)">
       <use xlink:href="#DejaVuSans-30"/>
       <use xlink:href="#DejaVuSans-2e" transform="translate(63.623047 0)"/>
       <use xlink:href="#DejaVuSans-31" transform="translate(95.410156 0)"/>
       <use xlink:href="#DejaVuSans-30" transform="translate(159.033203 0)"/>
      </g>
     </g>
    </g>
    <g id="ytick_5">
     <g id="line2d_20">
      <path d="M 62.48 188.315556 
L 1896.235 188.315556 
" clip-path="url(#p111b35a346)" style="fill: none; stroke: #b0b0b0; stroke-width: 0.8; stroke-linecap: square"/>
     </g>
     <g id="line2d_21">
      <g>
       <use xlink:href="#ma31f347144" x="62.48" y="188.315556" style="stroke: #000000; stroke-width: 0.8"/>
      </g>
     </g>
     <g id="text_17">
      <!-- 0.15 -->
      <g transform="translate(33.214375 192.114774) scale(0.1 -0.1)">
       <use xlink:href="#DejaVuSans-30"/>
       <use xlink:href="#DejaVuSans-2e" transform="translate(63.623047 0)"/>
       <use xlink:href="#DejaVuSans-31" transform="translate(95.410156 0)"/>
       <use xlink:href="#DejaVuSans-35" transform="translate(159.033203 0)"/>
      </g>
     </g>
    </g>
    <g id="ytick_6">
     <g id="line2d_22">
      <path d="M 62.48 155.884444 
L 1896.235 155.884444 
" clip-path="url(#p111b35a346)" style="fill: none; stroke: #b0b0b0; stroke-width: 0.8; stroke-linecap: square"/>
     </g>
     <g id="line2d_23">
      <g>
       <use xlink:href="#ma31f347144" x="62.48" y="155.884444" style="stroke: #000000; stroke-width: 0.8"/>
      </g>
     </g>
     <g id="text_18">
      <!-- 0.20 -->
      <g transform="translate(33.214375 159.683663) scale(0.1 -0.1)">
       <use xlink:href="#DejaVuSans-30"/>
       <use xlink:href="#DejaVuSans-2e" transform="translate(63.623047 0)"/>
       <use xlink:href="#DejaVuSans-32" transform="translate(95.410156 0)"/>
       <use xlink:href="#DejaVuSans-30" transform="translate(159.033203 0)"/>
      </g>
     </g>
    </g>
    <g id="ytick_7">
     <g id="line2d_24">
      <path d="M 62.48 123.453333 
L 1896.235 123.453333 
" clip-path="url(#p111b35a346)" style="fill: none; stroke: #b0b0b0; stroke-width: 0.8; stroke-linecap: square"/>
     </g>
     <g id="line2d_25">
      <g>
       <use xlink:href="#ma31f347144" x="62.48" y="123.453333" style="stroke: #000000; stroke-width: 0.8"/>
      </g>
     </g>
     <g id="text_19">
      <!-- 0.25 -->
      <g transform="translate(33.214375 127.252552) scale(0.1 -0.1)">
       <use xlink:href="#DejaVuSans-30"/>
       <use xlink:href="#DejaVuSans-2e" transform="translate(63.623047 0)"/>
       <use xlink:href="#DejaVuSans-32" transform="translate(95.410156 0)"/>
       <use xlink:href="#DejaVuSans-35" transform="translate(159.033203 0)"/>
      </g>
     </g>
    </g>
    <g id="ytick_8">
     <g id="line2d_26">
      <path d="M 62.48 91.022222 
L 1896.235 91.022222 
" clip-path="url(#p111b35a346)" style="fill: none; stroke: #b0b0b0; stroke-width: 0.8; stroke-linecap: square"/>
     </g>
     <g id="line2d_27">
      <g>
       <use xlink:href="#ma31f347144" x="62.48" y="91.022222" style="stroke: #000000; stroke-width: 0.8"/>
      </g>
     </g>
     <g id="text_20">
      <!-- 0.30 -->
      <g transform="translate(33.214375 94.821441) scale(0.1 -0.1)">
       <defs>
        <path id="DejaVuSans-33" d="M 2597 2516 
Q 3050 2419 3304 2112 
Q 3559 1806 3559 1356 
Q 3559 666 3084 287 
Q 2609 -91 1734 -91 
Q 1441 -91 1130 -33 
Q 819 25 488 141 
L 488 750 
Q 750 597 1062 519 
Q 1375 441 1716 441 
Q 2309 441 2620 675 
Q 2931 909 2931 1356 
Q 2931 1769 2642 2001 
Q 2353 2234 1838 2234 
L 1294 2234 
L 1294 2753 
L 1863 2753 
Q 2328 2753 2575 2939 
Q 2822 3125 2822 3475 
Q 2822 3834 2567 4026 
Q 2313 4219 1838 4219 
Q 1578 4219 1281 4162 
Q 984 4106 628 3988 
L 628 4550 
Q 988 4650 1302 4700 
Q 1616 4750 1894 4750 
Q 2613 4750 3031 4423 
Q 3450 4097 3450 3541 
Q 3450 3153 3228 2886 
Q 3006 2619 2597 2516 
z
" transform="scale(0.015625)"/>
       </defs>
       <use xlink:href="#DejaVuSans-30"/>
       <use xlink:href="#DejaVuSans-2e" transform="translate(63.623047 0)"/>
       <use xlink:href="#DejaVuSans-33" transform="translate(95.410156 0)"/>
       <use xlink:href="#DejaVuSans-30" transform="translate(159.033203 0)"/>
      </g>
     </g>
    </g>
    <g id="ytick_9">
     <g id="line2d_28">
      <path d="M 62.48 58.591111 
L 1896.235 58.591111 
" clip-path="url(#p111b35a346)" style="fill: none; stroke: #b0b0b0; stroke-width: 0.8; stroke-linecap: square"/>
     </g>
     <g id="line2d_29">
      <g>
       <use xlink:href="#ma31f347144" x="62.48" y="58.591111" style="stroke: #000000; stroke-width: 0.8"/>
      </g>
     </g>
     <g id="text_21">
      <!-- 0.35 -->
      <g transform="translate(33.214375 62.39033) scale(0.1 -0.1)">
       <use xlink:href="#DejaVuSans-30"/>
       <use xlink:href="#DejaVuSans-2e" transform="translate(63.623047 0)"/>
       <use xlink:href="#DejaVuSans-33" transform="translate(95.410156 0)"/>
       <use xlink:href="#DejaVuSans-35" transform="translate(159.033203 0)"/>
      </g>
     </g>
    </g>
    <g id="ytick_10">
     <g id="line2d_30">
      <path d="M 62.48 26.16 
L 1896.235 26.16 
" clip-path="url(#p111b35a346)" style="fill: none; stroke: #b0b0b0; stroke-width: 0.8; stroke-linecap: square"/>
     </g>
     <g id="line2d_31">
      <g>
       <use xlink:href="#ma31f347144" x="62.48" y="26.16" style="stroke: #000000; stroke-width: 0.8"/>
      </g>
     </g>
     <g id="text_22">
      <!-- 0.40 -->
      <g transform="translate(33.214375 29.959219) scale(0.1 -0.1)">
       <use xlink:href="#DejaVuSans-30"/>
       <use xlink:href="#DejaVuSans-2e" transform="translate(63.623047 0)"/>
       <use xlink:href="#DejaVuSans-34" transform="translate(95.410156 0)"/>
       <use xlink:href="#DejaVuSans-30" transform="translate(159.033203 0)"/>
      </g>
     </g>
    </g>
    <g id="text_23">
     <!-- depth (m) -->
     <g style="fill: #00008b" transform="translate(18.755 197.014844) rotate(-90) scale(0.1 -0.1)">
      <defs>
       <path id="DejaVuSans-64" d="M 2906 2969 
L 2906 4863 
L 3481 4863 
L 3481 0 
L 2906 0 
L 2906 525 
Q 2725 213 2448 61 
Q 2172 -91 1784 -91 
Q 1150 -91 751 415 
Q 353 922 353 1747 
Q 353 2572 751 3078 
Q 1150 3584 1784 3584 
Q 2172 3584 2448 3432 
Q 2725 3281 2906 2969 
z
M 947 1747 
Q 947 1113 1208 752 
Q 1469 391 1925 391 
Q 2381 391 2643 752 
Q 2906 1113 2906 1747 
Q 2906 2381 2643 2742 
Q 2381 3103 1925 3103 
Q 1469 3103 1208 2742 
Q 947 2381 947 1747 
z
" transform="scale(0.015625)"/>
       <path id="DejaVuSans-70" d="M 1159 525 
L 1159 -1331 
L 581 -1331 
L 581 3500 
L 1159 3500 
L 1159 2969 
Q 1341 3281 1617 3432 
Q 1894 3584 2278 3584 
Q 2916 3584 3314 3078 
Q 3713 2572 3713 1747 
Q 3713 922 3314 415 
Q 2916 -91 2278 -91 
Q 1894 -91 1617 61 
Q 1341 213 1159 525 
z
M 3116 1747 
Q 3116 2381 2855 2742 
Q 2594 3103 2138 3103 
Q 1681 3103 1420 2742 
Q 1159 2381 1159 1747 
Q 1159 1113 1420 752 
Q 1681 391 2138 391 
Q 2594 391 2855 752 
Q 3116 1113 3116 1747 
z
" transform="scale(0.015625)"/>
       <path id="DejaVuSans-74" d="M 1172 4494 
L 1172 3500 
L 2356 3500 
L 2356 3053 
L 1172 3053 
L 1172 1153 
Q 1172 725 1289 603 
Q 1406 481 1766 481 
L 2356 481 
L 2356 0 
L 1766 0 
Q 1100 0 847 248 
Q 594 497 594 1153 
L 594 3053 
L 172 3053 
L 172 3500 
L 594 3500 
L 594 4494 
L 1172 4494 
z
" transform="scale(0.015625)"/>
       <path id="DejaVuSans-68" d="M 3513 2113 
L 3513 0 
L 2938 0 
L 2938 2094 
Q 2938 2591 2744 2837 
Q 2550 3084 2163 3084 
Q 1697 3084 1428 2787 
Q 1159 2491 1159 1978 
L 1159 0 
L 581 0 
L 581 4863 
L 1159 4863 
L 1159 2956 
Q 1366 3272 1645 3428 
Q 1925 3584 2291 3584 
Q 2894 3584 3203 3211 
Q 3513 2838 3513 2113 
z
" transform="scale(0.015625)"/>
       <path id="DejaVuSans-28" d="M 1984 4856 
Q 1566 4138 1362 3434 
Q 1159 2731 1159 2009 
Q 1159 1288 1364 580 
Q 1569 -128 1984 -844 
L 1484 -844 
Q 1016 -109 783 600 
Q 550 1309 550 2009 
Q 550 2706 781 3412 
Q 1013 4119 1484 4856 
L 1984 4856 
z
" transform="scale(0.015625)"/>
       <path id="DejaVuSans-29" d="M 513 4856 
L 1013 4856 
Q 1481 4119 1714 3412 
Q 1947 2706 1947 2009 
Q 1947 1309 1714 600 
Q 1481 -109 1013 -844 
L 513 -844 
Q 928 -128 1133 580 
Q 1338 1288 1338 2009 
Q 1338 2731 1133 3434 
Q 928 4138 513 4856 
z
" transform="scale(0.015625)"/>
      </defs>
      <use xlink:href="#DejaVuSans-64"/>
      <use xlink:href="#DejaVuSans-65" transform="translate(63.476562 0)"/>
      <use xlink:href="#DejaVuSans-70" transform="translate(125 0)"/>
      <use xlink:href="#DejaVuSans-74" transform="translate(188.476562 0)"/>
      <use xlink:href="#DejaVuSans-68" transform="translate(227.685547 0)"/>
      <use xlink:href="#DejaVuSans-20" transform="translate(291.064453 0)"/>
      <use xlink:href="#DejaVuSans-28" transform="translate(322.851562 0)"/>
      <use xlink:href="#DejaVuSans-6d" transform="translate(361.865234 0)"/>
      <use xlink:href="#DejaVuSans-29" transform="translate(459.277344 0)"/>
     </g>
    </g>
   </g>
   <g id="line2d_32">
    <path d="M 153.464891 285.608889 
L 202.271292 285.608889 
L 209.243635 285.025599 
L 216.215977 267.531109 
L 223.18832 239.789376 
L 230.160663 215.617622 
L 237.133006 206.634273 
L 244.105349 206.487908 
L 251.077692 209.515305 
L 258.050035 214.563321 
L 285.939406 237.294457 
L 292.911749 242.692273 
L 299.884092 247.662793 
L 306.856435 252.200935 
L 313.828778 256.288467 
L 320.801121 259.998915 
L 327.773464 263.337094 
L 334.745807 266.351283 
L 341.718149 269.173342 
L 348.690492 271.844636 
L 355.662835 274.358387 
L 362.635178 276.584584 
L 369.607521 278.537305 
L 376.579864 280.145334 
L 383.552207 281.416227 
L 390.52455 282.383341 
L 397.496893 283.145082 
L 411.441578 284.322591 
L 425.386264 285.277015 
L 432.358607 285.589228 
L 1269.039754 285.540596 
L 1276.012097 282.727878 
L 1282.98444 259.916875 
L 1296.929126 166.658284 
L 1303.901469 147.878617 
L 1310.873812 152.892985 
L 1324.818497 181.946819 
L 1331.79084 194.643145 
L 1338.763183 205.134929 
L 1345.735526 212.077331 
L 1359.680212 217.4009 
L 1366.652555 220.968793 
L 1373.624898 225.283146 
L 1401.514269 243.972541 
L 1408.486612 248.272334 
L 1415.458955 252.272767 
L 1422.431298 255.917733 
L 1429.403641 259.273812 
L 1436.375984 262.310052 
L 1443.348327 265.097897 
L 1450.32067 267.609213 
L 1464.265355 272.245633 
L 1471.237698 274.385945 
L 1478.210041 276.319699 
L 1485.182384 277.991884 
L 1492.154727 279.422322 
L 1499.12707 280.630638 
L 1506.099413 281.652867 
L 1513.071756 282.504025 
L 1527.016441 283.860131 
L 1547.93347 285.43403 
L 1554.905813 285.589332 
L 1722.242042 285.607739 
L 1729.214385 284.621542 
L 1736.186728 269.758314 
L 1743.159071 241.050579 
L 1750.131414 196.425188 
L 1757.103757 158.861014 
L 1764.0761 137.197546 
L 1771.048443 137.842491 
L 1778.020786 152.49454 
L 1784.993128 166.157047 
L 1791.965471 178.891811 
L 1798.937814 190.674108 
L 1805.910157 201.235896 
L 1812.8825 209.780978 
L 1812.8825 209.780978 
" clip-path="url(#p111b35a346)" style="fill: none; stroke: #08306b; stroke-width: 2; stroke-linecap: square"/>
   </g>
   <g id="patch_3">
    <path d="M 62.48 318.04 
L 62.48 26.16 
" style="fill: none; stroke: #000000; stroke-width: 0.8; stroke-linejoin: miter; stroke-linecap: square"/>
   </g>
   <g id="patch_4">
    <path d="M 1896.235 318.04 
L 1896.235 26.16 
" style="fill: none; stroke: #000000; stroke-width: 0.8; stroke-linejoin: miter; stroke-linecap: square"/>
   </g>
   <g id="patch_5">
    <path d="M 62.48 318.04 
L 1896.235 318.04 
" style="fill: none; stroke: #000000; stroke-width: 0.8; stroke-linejoin: miter; stroke-linecap: square"/>
   </g>
   <g id="patch_6">
    <path d="M 62.48 26.16 
L 1896.235 26.16 
" style="fill: none; stroke: #000000; stroke-width: 0.8; stroke-linejoin: miter; stroke-linecap: square"/>
   </g>
   <g id="text_24">
    <!-- June 27, 2023: Broadway East Flood Depths -->
    <g transform="translate(847.659375 20.16) scale(0.12 -0.12)">
     <defs>
      <path id="DejaVuSans-4a" d="M 628 4666 
L 1259 4666 
L 1259 325 
Q 1259 -519 939 -900 
Q 619 -1281 -91 -1281 
L -331 -1281 
L -331 -750 
L -134 -750 
Q 284 -750 456 -515 
Q 628 -281 628 325 
L 628 4666 
z
" transform="scale(0.015625)"/>
      <path id="DejaVuSans-75" d="M 544 1381 
L 544 3500 
L 1119 3500 
L 1119 1403 
Q 1119 906 1312 657 
Q 1506 409 1894 409 
Q 2359 409 2629 706 
Q 2900 1003 2900 1516 
L 2900 3500 
L 3475 3500 
L 3475 0 
L 2900 0 
L 2900 538 
Q 2691 219 2414 64 
Q 2138 -91 1772 -91 
Q 1169 -91 856 284 
Q 544 659 544 1381 
z
M 1991 3584 
L 1991 3584 
z
" transform="scale(0.015625)"/>
      <path id="DejaVuSans-6e" d="M 3513 2113 
L 3513 0 
L 2938 0 
L 2938 2094 
Q 2938 2591 2744 2837 
Q 2550 3084 2163 3084 
Q 1697 3084 1428 2787 
Q 1159 2491 1159 1978 
L 1159 0 
L 581 0 
L 581 3500 
L 1159 3500 
L 1159 2956 
Q 1366 3272 1645 3428 
Q 1925 3584 2291 3584 
Q 2894 3584 3203 3211 
Q 3513 2838 3513 2113 
z
" transform="scale(0.015625)"/>
      <path id="DejaVuSans-37" d="M 525 4666 
L 3525 4666 
L 3525 4397 
L 1831 0 
L 1172 0 
L 2766 4134 
L 525 4134 
L 525 4666 
z
" transform="scale(0.015625)"/>
      <path id="DejaVuSans-2c" d="M 750 794 
L 1409 794 
L 1409 256 
L 897 -744 
L 494 -744 
L 750 256 
L 750 794 
z
" transform="scale(0.015625)"/>
      <path id="DejaVuSans-42" d="M 1259 2228 
L 1259 519 
L 2272 519 
Q 2781 519 3026 730 
Q 3272 941 3272 1375 
Q 3272 1813 3026 2020 
Q 2781 2228 2272 2228 
L 1259 2228 
z
M 1259 4147 
L 1259 2741 
L 2194 2741 
Q 2656 2741 2882 2914 
Q 3109 3088 3109 3444 
Q 3109 3797 2882 3972 
Q 2656 4147 2194 4147 
L 1259 4147 
z
M 628 4666 
L 2241 4666 
Q 2963 4666 3353 4366 
Q 3744 4066 3744 3513 
Q 3744 3084 3544 2831 
Q 3344 2578 2956 2516 
Q 3422 2416 3680 2098 
Q 3938 1781 3938 1306 
Q 3938 681 3513 340 
Q 3088 0 2303 0 
L 628 0 
L 628 4666 
z
" transform="scale(0.015625)"/>
      <path id="DejaVuSans-72" d="M 2631 2963 
Q 2534 3019 2420 3045 
Q 2306 3072 2169 3072 
Q 1681 3072 1420 2755 
Q 1159 2438 1159 1844 
L 1159 0 
L 581 0 
L 581 3500 
L 1159 3500 
L 1159 2956 
Q 1341 3275 1631 3429 
Q 1922 3584 2338 3584 
Q 2397 3584 2469 3576 
Q 2541 3569 2628 3553 
L 2631 2963 
z
" transform="scale(0.015625)"/>
      <path id="DejaVuSans-77" d="M 269 3500 
L 844 3500 
L 1563 769 
L 2278 3500 
L 2956 3500 
L 3675 769 
L 4391 3500 
L 4966 3500 
L 4050 0 
L 3372 0 
L 2619 2869 
L 1863 0 
L 1184 0 
L 269 3500 
z
" transform="scale(0.015625)"/>
      <path id="DejaVuSans-45" d="M 628 4666 
L 3578 4666 
L 3578 4134 
L 1259 4134 
L 1259 2753 
L 3481 2753 
L 3481 2222 
L 1259 2222 
L 1259 531 
L 3634 531 
L 3634 0 
L 628 0 
L 628 4666 
z
" transform="scale(0.015625)"/>
      <path id="DejaVuSans-73" d="M 2834 3397 
L 2834 2853 
Q 2591 2978 2328 3040 
Q 2066 3103 1784 3103 
Q 1356 3103 1142 2972 
Q 928 2841 928 2578 
Q 928 2378 1081 2264 
Q 1234 2150 1697 2047 
L 1894 2003 
Q 2506 1872 2764 1633 
Q 3022 1394 3022 966 
Q 3022 478 2636 193 
Q 2250 -91 1575 -91 
Q 1294 -91 989 -36 
Q 684 19 347 128 
L 347 722 
Q 666 556 975 473 
Q 1284 391 1588 391 
Q 1994 391 2212 530 
Q 2431 669 2431 922 
Q 2431 1156 2273 1281 
Q 2116 1406 1581 1522 
L 1381 1569 
Q 847 1681 609 1914 
Q 372 2147 372 2553 
Q 372 3047 722 3315 
Q 1072 3584 1716 3584 
Q 2034 3584 2315 3537 
Q 2597 3491 2834 3397 
z
" transform="scale(0.015625)"/>
      <path id="DejaVuSans-46" d="M 628 4666 
L 3309 4666 
L 3309 4134 
L 1259 4134 
L 1259 2759 
L 3109 2759 
L 3109 2228 
L 1259 2228 
L 1259 0 
L 628 0 
L 628 4666 
z
" transform="scale(0.015625)"/>
      <path id="DejaVuSans-6c" d="M 603 4863 
L 1178 4863 
L 1178 0 
L 603 0 
L 603 4863 
z
" transform="scale(0.015625)"/>
     </defs>
     <use xlink:href="#DejaVuSans-4a"/>
     <use xlink:href="#DejaVuSans-75" transform="translate(29.492188 0)"/>
     <use xlink:href="#DejaVuSans-6e" transform="translate(92.871094 0)"/>
     <use xlink:href="#DejaVuSans-65" transform="translate(156.25 0)"/>
     <use xlink:href="#DejaVuSans-20" transform="translate(217.773438 0)"/>
     <use xlink:href="#DejaVuSans-32" transform="translate(249.560547 0)"/>
     <use xlink:href="#DejaVuSans-37" transform="translate(313.183594 0)"/>
     <use xlink:href="#DejaVuSans-2c" transform="translate(376.806641 0)"/>
     <use xlink:href="#DejaVuSans-20" transform="translate(408.59375 0)"/>
     <use xlink:href="#DejaVuSans-32" transform="translate(440.380859 0)"/>
     <use xlink:href="#DejaVuSans-30" transform="translate(504.003906 0)"/>
     <use xlink:href="#DejaVuSans-32" transform="translate(567.626953 0)"/>
     <use xlink:href="#DejaVuSans-33" transform="translate(631.25 0)"/>
     <use xlink:href="#DejaVuSans-3a" transform="translate(694.873047 0)"/>
     <use xlink:href="#DejaVuSans-20" transform="translate(728.564453 0)"/>
     <use xlink:href="#DejaVuSans-42" transform="translate(760.351562 0)"/>
     <use xlink:href="#DejaVuSans-72" transform="translate(828.955078 0)"/>
     <use xlink:href="#DejaVuSans-6f" transform="translate(867.818359 0)"/>
     <use xlink:href="#DejaVuSans-61" transform="translate(929 0)"/>
     <use xlink:href="#DejaVuSans-64" transform="translate(990.279297 0)"/>
     <use xlink:href="#DejaVuSans-77" transform="translate(1053.755859 0)"/>
     <use xlink:href="#DejaVuSans-61" transform="translate(1135.542969 0)"/>
     <use xlink:href="#DejaVuSans-79" transform="translate(1196.822266 0)"/>
     <use xlink:href="#DejaVuSans-20" transform="translate(1256.001953 0)"/>
     <use xlink:href="#DejaVuSans-45" transform="translate(1287.789062 0)"/>
     <use xlink:href="#DejaVuSans-61" transform="translate(1350.972656 0)"/>
     <use xlink:href="#DejaVuSans-73" transform="translate(1412.251953 0)"/>
     <use xlink:href="#DejaVuSans-74" transform="translate(1464.351562 0)"/>
     <use xlink:href="#DejaVuSans-20" transform="translate(1503.560547 0)"/>
     <use xlink:href="#DejaVuSans-46" transform="translate(1535.347656 0)"/>
     <use xlink:href="#DejaVuSans-6c" transform="translate(1592.867188 0)"/>
     <use xlink:href="#DejaVuSans-6f" transform="translate(1620.650391 0)"/>
     <use xlink:href="#DejaVuSans-6f" transform="translate(1681.832031 0)"/>
     <use xlink:href="#DejaVuSans-64" transform="translate(1743.013672 0)"/>
     <use xlink:href="#DejaVuSans-20" transform="translate(1806.490234 0)"/>
     <use xlink:href="#DejaVuSans-44" transform="translate(1838.277344 0)"/>
     <use xlink:href="#DejaVuSans-65" transform="translate(1915.279297 0)"/>
     <use xlink:href="#DejaVuSans-70" transform="translate(1976.802734 0)"/>
     <use xlink:href="#DejaVuSans-74" transform="translate(2040.279297 0)"/>
     <use xlink:href="#DejaVuSans-68" transform="translate(2079.488281 0)"/>
     <use xlink:href="#DejaVuSans-73" transform="translate(2142.867188 0)"/>
    </g>
   </g>
  </g>
  <g id="axes_2">
   <g id="patch_7">
    <path d="M 145.8325 29.763457 
L 149.84857 29.763457 
L 149.84857 37.085681 
L 145.8325 37.085681 
z
" clip-path="url(#p111b35a346)" style="fill: #6495ed"/>
   </g>
   <g id="patch_8">
    <path d="M 152.804843 29.763457 
L 156.820912 29.763457 
L 156.820912 29.763457 
L 152.804843 29.763457 
z
" clip-path="url(#p111b35a346)" style="fill: #6495ed"/>
   </g>
   <g id="patch_9">
    <path d="M 159.777186 29.763457 
L 163.793255 29.763457 
L 163.793255 29.763457 
L 159.777186 29.763457 
z
" clip-path="url(#p111b35a346)" style="fill: #6495ed"/>
   </g>
   <g id="patch_10">
    <path d="M 166.749529 29.763457 
L 170.765598 29.763457 
L 170.765598 29.763457 
L 166.749529 29.763457 
z
" clip-path="url(#p111b35a346)" style="fill: #6495ed"/>
   </g>
   <g id="patch_11">
    <path d="M 173.721872 29.763457 
L 177.737941 29.763457 
L 177.737941 29.763457 
L 173.721872 29.763457 
z
" clip-path="url(#p111b35a346)" style="fill: #6495ed"/>
   </g>
   <g id="patch_12">
    <path d="M 180.694214 29.763457 
L 184.710284 29.763457 
L 184.710284 29.763457 
L 180.694214 29.763457 
z
" clip-path="url(#p111b35a346)" style="fill: #6495ed"/>
   </g>
   <g id="patch_13">
    <path d="M 187.666557 29.763457 
L 191.682627 29.763457 
L 191.682627 29.763457 
L 187.666557 29.763457 
z
" clip-path="url(#p111b35a346)" style="fill: #6495ed"/>
   </g>
   <g id="patch_14">
    <path d="M 194.6389 29.763457 
L 198.65497 29.763457 
L 198.65497 29.763457 
L 194.6389 29.763457 
z
" clip-path="url(#p111b35a346)" style="fill: #6495ed"/>
   </g>
   <g id="patch_15">
    <path d="M 201.611243 29.763457 
L 205.627313 29.763457 
L 205.627313 44.407905 
L 201.611243 44.407905 
z
" clip-path="url(#p111b35a346)" style="fill: #6495ed"/>
   </g>
   <g id="patch_16">
    <path d="M 208.583586 29.763457 
L 212.599656 29.763457 
L 212.599656 102.985699 
L 208.583586 102.985699 
z
" clip-path="url(#p111b35a346)" style="fill: #6495ed"/>
   </g>
   <g id="patch_17">
    <path d="M 215.555929 29.763457 
L 219.571998 29.763457 
L 219.571998 44.407905 
L 215.555929 44.407905 
z
" clip-path="url(#p111b35a346)" style="fill: #6495ed"/>
   </g>
   <g id="patch_18">
    <path d="M 222.528272 29.763457 
L 226.544341 29.763457 
L 226.544341 29.763457 
L 222.528272 29.763457 
z
" clip-path="url(#p111b35a346)" style="fill: #6495ed"/>
   </g>
   <g id="patch_19">
    <path d="M 229.500615 29.763457 
L 233.516684 29.763457 
L 233.516684 29.763457 
L 229.500615 29.763457 
z
" clip-path="url(#p111b35a346)" style="fill: #6495ed"/>
   </g>
   <g id="patch_20">
    <path d="M 236.472958 29.763457 
L 240.489027 29.763457 
L 240.489027 37.085681 
L 236.472958 37.085681 
z
" clip-path="url(#p111b35a346)" style="fill: #6495ed"/>
   </g>
   <g id="patch_21">
    <path d="M 243.445301 29.763457 
L 247.46137 29.763457 
L 247.46137 29.763457 
L 243.445301 29.763457 
z
" clip-path="url(#p111b35a346)" style="fill: #6495ed"/>
   </g>
   <g id="patch_22">
    <path d="M 250.417643 29.763457 
L 254.433713 29.763457 
L 254.433713 29.763457 
L 250.417643 29.763457 
z
" clip-path="url(#p111b35a346)" style="fill: #6495ed"/>
   </g>
   <g id="patch_23">
    <path d="M 257.389986 29.763457 
L 261.406056 29.763457 
L 261.406056 29.763457 
L 257.389986 29.763457 
z
" clip-path="url(#p111b35a346)" style="fill: #6495ed"/>
   </g>
   <g id="patch_24">
    <path d="M 264.362329 29.763457 
L 268.378399 29.763457 
L 268.378399 29.763457 
L 264.362329 29.763457 
z
" clip-path="url(#p111b35a346)" style="fill: #6495ed"/>
   </g>
   <g id="patch_25">
    <path d="M 271.334672 29.763457 
L 275.350742 29.763457 
L 275.350742 29.763457 
L 271.334672 29.763457 
z
" clip-path="url(#p111b35a346)" style="fill: #6495ed"/>
   </g>
   <g id="patch_26">
    <path d="M 278.307015 29.763457 
L 282.323084 29.763457 
L 282.323084 29.763457 
L 278.307015 29.763457 
z
" clip-path="url(#p111b35a346)" style="fill: #6495ed"/>
   </g>
   <g id="patch_27">
    <path d="M 285.279358 29.763457 
L 289.295427 29.763457 
L 289.295427 29.763457 
L 285.279358 29.763457 
z
" clip-path="url(#p111b35a346)" style="fill: #6495ed"/>
   </g>
   <g id="patch_28">
    <path d="M 292.251701 29.763457 
L 296.26777 29.763457 
L 296.26777 29.763457 
L 292.251701 29.763457 
z
" clip-path="url(#p111b35a346)" style="fill: #6495ed"/>
   </g>
   <g id="patch_29">
    <path d="M 299.224044 29.763457 
L 303.240113 29.763457 
L 303.240113 29.763457 
L 299.224044 29.763457 
z
" clip-path="url(#p111b35a346)" style="fill: #6495ed"/>
   </g>
   <g id="patch_30">
    <path d="M 306.196387 29.763457 
L 310.212456 29.763457 
L 310.212456 29.763457 
L 306.196387 29.763457 
z
" clip-path="url(#p111b35a346)" style="fill: #6495ed"/>
   </g>
   <g id="patch_31">
    <path d="M 313.168729 29.763457 
L 317.184799 29.763457 
L 317.184799 29.763457 
L 313.168729 29.763457 
z
" clip-path="url(#p111b35a346)" style="fill: #6495ed"/>
   </g>
   <g id="patch_32">
    <path d="M 320.141072 29.763457 
L 324.157142 29.763457 
L 324.157142 29.763457 
L 320.141072 29.763457 
z
" clip-path="url(#p111b35a346)" style="fill: #6495ed"/>
   </g>
   <g id="patch_33">
    <path d="M 327.113415 29.763457 
L 331.129485 29.763457 
L 331.129485 29.763457 
L 327.113415 29.763457 
z
" clip-path="url(#p111b35a346)" style="fill: #6495ed"/>
   </g>
   <g id="patch_34">
    <path d="M 334.085758 29.763457 
L 338.101828 29.763457 
L 338.101828 29.763457 
L 334.085758 29.763457 
z
" clip-path="url(#p111b35a346)" style="fill: #6495ed"/>
   </g>
   <g id="patch_35">
    <path d="M 341.058101 29.763457 
L 345.074171 29.763457 
L 345.074171 29.763457 
L 341.058101 29.763457 
z
" clip-path="url(#p111b35a346)" style="fill: #6495ed"/>
   </g>
   <g id="patch_36">
    <path d="M 348.030444 29.763457 
L 352.046513 29.763457 
L 352.046513 29.763457 
L 348.030444 29.763457 
z
" clip-path="url(#p111b35a346)" style="fill: #6495ed"/>
   </g>
   <g id="patch_37">
    <path d="M 355.002787 29.763457 
L 359.018856 29.763457 
L 359.018856 29.763457 
L 355.002787 29.763457 
z
" clip-path="url(#p111b35a346)" style="fill: #6495ed"/>
   </g>
   <g id="patch_38">
    <path d="M 361.97513 29.763457 
L 365.991199 29.763457 
L 365.991199 29.763457 
L 361.97513 29.763457 
z
" clip-path="url(#p111b35a346)" style="fill: #6495ed"/>
   </g>
   <g id="patch_39">
    <path d="M 368.947473 29.763457 
L 372.963542 29.763457 
L 372.963542 29.763457 
L 368.947473 29.763457 
z
" clip-path="url(#p111b35a346)" style="fill: #6495ed"/>
   </g>
   <g id="patch_40">
    <path d="M 375.919815 29.763457 
L 379.935885 29.763457 
L 379.935885 29.763457 
L 375.919815 29.763457 
z
" clip-path="url(#p111b35a346)" style="fill: #6495ed"/>
   </g>
   <g id="patch_41">
    <path d="M 382.892158 29.763457 
L 386.908228 29.763457 
L 386.908228 29.763457 
L 382.892158 29.763457 
z
" clip-path="url(#p111b35a346)" style="fill: #6495ed"/>
   </g>
   <g id="patch_42">
    <path d="M 389.864501 29.763457 
L 393.880571 29.763457 
L 393.880571 29.763457 
L 389.864501 29.763457 
z
" clip-path="url(#p111b35a346)" style="fill: #6495ed"/>
   </g>
   <g id="patch_43">
    <path d="M 396.836844 29.763457 
L 400.852914 29.763457 
L 400.852914 29.763457 
L 396.836844 29.763457 
z
" clip-path="url(#p111b35a346)" style="fill: #6495ed"/>
   </g>
   <g id="patch_44">
    <path d="M 403.809187 29.763457 
L 407.825257 29.763457 
L 407.825257 29.763457 
L 403.809187 29.763457 
z
" clip-path="url(#p111b35a346)" style="fill: #6495ed"/>
   </g>
   <g id="patch_45">
    <path d="M 410.78153 29.763457 
L 414.797599 29.763457 
L 414.797599 29.763457 
L 410.78153 29.763457 
z
" clip-path="url(#p111b35a346)" style="fill: #6495ed"/>
   </g>
   <g id="patch_46">
    <path d="M 417.753873 29.763457 
L 421.769942 29.763457 
L 421.769942 29.763457 
L 417.753873 29.763457 
z
" clip-path="url(#p111b35a346)" style="fill: #6495ed"/>
   </g>
   <g id="patch_47">
    <path d="M 424.726216 29.763457 
L 428.742285 29.763457 
L 428.742285 29.763457 
L 424.726216 29.763457 
z
" clip-path="url(#p111b35a346)" style="fill: #6495ed"/>
   </g>
   <g id="patch_48">
    <path d="M 431.698559 29.763457 
L 435.714628 29.763457 
L 435.714628 29.763457 
L 431.698559 29.763457 
z
" clip-path="url(#p111b35a346)" style="fill: #6495ed"/>
   </g>
   <g id="patch_49">
    <path d="M 438.670902 29.763457 
L 442.686971 29.763457 
L 442.686971 29.763457 
L 438.670902 29.763457 
z
" clip-path="url(#p111b35a346)" style="fill: #6495ed"/>
   </g>
   <g id="patch_50">
    <path d="M 445.643244 29.763457 
L 449.659314 29.763457 
L 449.659314 29.763457 
L 445.643244 29.763457 
z
" clip-path="url(#p111b35a346)" style="fill: #6495ed"/>
   </g>
   <g id="patch_51">
    <path d="M 452.615587 29.763457 
L 456.631657 29.763457 
L 456.631657 29.763457 
L 452.615587 29.763457 
z
" clip-path="url(#p111b35a346)" style="fill: #6495ed"/>
   </g>
   <g id="patch_52">
    <path d="M 459.58793 29.763457 
L 463.604 29.763457 
L 463.604 29.763457 
L 459.58793 29.763457 
z
" clip-path="url(#p111b35a346)" style="fill: #6495ed"/>
   </g>
   <g id="patch_53">
    <path d="M 466.560273 29.763457 
L 470.576343 29.763457 
L 470.576343 29.763457 
L 466.560273 29.763457 
z
" clip-path="url(#p111b35a346)" style="fill: #6495ed"/>
   </g>
   <g id="patch_54">
    <path d="M 473.532616 29.763457 
L 477.548685 29.763457 
L 477.548685 29.763457 
L 473.532616 29.763457 
z
" clip-path="url(#p111b35a346)" style="fill: #6495ed"/>
   </g>
   <g id="patch_55">
    <path d="M 480.504959 29.763457 
L 484.521028 29.763457 
L 484.521028 29.763457 
L 480.504959 29.763457 
z
" clip-path="url(#p111b35a346)" style="fill: #6495ed"/>
   </g>
   <g id="patch_56">
    <path d="M 487.477302 29.763457 
L 491.493371 29.763457 
L 491.493371 29.763457 
L 487.477302 29.763457 
z
" clip-path="url(#p111b35a346)" style="fill: #6495ed"/>
   </g>
   <g id="patch_57">
    <path d="M 494.449645 29.763457 
L 498.465714 29.763457 
L 498.465714 29.763457 
L 494.449645 29.763457 
z
" clip-path="url(#p111b35a346)" style="fill: #6495ed"/>
   </g>
   <g id="patch_58">
    <path d="M 501.421988 29.763457 
L 505.438057 29.763457 
L 505.438057 29.763457 
L 501.421988 29.763457 
z
" clip-path="url(#p111b35a346)" style="fill: #6495ed"/>
   </g>
   <g id="patch_59">
    <path d="M 508.39433 29.763457 
L 512.4104 29.763457 
L 512.4104 29.763457 
L 508.39433 29.763457 
z
" clip-path="url(#p111b35a346)" style="fill: #6495ed"/>
   </g>
   <g id="patch_60">
    <path d="M 515.366673 29.763457 
L 519.382743 29.763457 
L 519.382743 29.763457 
L 515.366673 29.763457 
z
" clip-path="url(#p111b35a346)" style="fill: #6495ed"/>
   </g>
   <g id="patch_61">
    <path d="M 522.339016 29.763457 
L 526.355086 29.763457 
L 526.355086 29.763457 
L 522.339016 29.763457 
z
" clip-path="url(#p111b35a346)" style="fill: #6495ed"/>
   </g>
   <g id="patch_62">
    <path d="M 529.311359 29.763457 
L 533.327429 29.763457 
L 533.327429 29.763457 
L 529.311359 29.763457 
z
" clip-path="url(#p111b35a346)" style="fill: #6495ed"/>
   </g>
   <g id="patch_63">
    <path d="M 536.283702 29.763457 
L 540.299772 29.763457 
L 540.299772 29.763457 
L 536.283702 29.763457 
z
" clip-path="url(#p111b35a346)" style="fill: #6495ed"/>
   </g>
   <g id="patch_64">
    <path d="M 543.256045 29.763457 
L 547.272114 29.763457 
L 547.272114 29.763457 
L 543.256045 29.763457 
z
" clip-path="url(#p111b35a346)" style="fill: #6495ed"/>
   </g>
   <g id="patch_65">
    <path d="M 550.228388 29.763457 
L 554.244457 29.763457 
L 554.244457 29.763457 
L 550.228388 29.763457 
z
" clip-path="url(#p111b35a346)" style="fill: #6495ed"/>
   </g>
   <g id="patch_66">
    <path d="M 557.200731 29.763457 
L 561.2168 29.763457 
L 561.2168 29.763457 
L 557.200731 29.763457 
z
" clip-path="url(#p111b35a346)" style="fill: #6495ed"/>
   </g>
   <g id="patch_67">
    <path d="M 564.173074 29.763457 
L 568.189143 29.763457 
L 568.189143 29.763457 
L 564.173074 29.763457 
z
" clip-path="url(#p111b35a346)" style="fill: #6495ed"/>
   </g>
   <g id="patch_68">
    <path d="M 571.145417 29.763457 
L 575.161486 29.763457 
L 575.161486 29.763457 
L 571.145417 29.763457 
z
" clip-path="url(#p111b35a346)" style="fill: #6495ed"/>
   </g>
   <g id="patch_69">
    <path d="M 578.117759 29.763457 
L 582.133829 29.763457 
L 582.133829 29.763457 
L 578.117759 29.763457 
z
" clip-path="url(#p111b35a346)" style="fill: #6495ed"/>
   </g>
   <g id="patch_70">
    <path d="M 585.090102 29.763457 
L 589.106172 29.763457 
L 589.106172 29.763457 
L 585.090102 29.763457 
z
" clip-path="url(#p111b35a346)" style="fill: #6495ed"/>
   </g>
   <g id="patch_71">
    <path d="M 592.062445 29.763457 
L 596.078515 29.763457 
L 596.078515 29.763457 
L 592.062445 29.763457 
z
" clip-path="url(#p111b35a346)" style="fill: #6495ed"/>
   </g>
   <g id="patch_72">
    <path d="M 599.034788 29.763457 
L 603.050858 29.763457 
L 603.050858 29.763457 
L 599.034788 29.763457 
z
" clip-path="url(#p111b35a346)" style="fill: #6495ed"/>
   </g>
   <g id="patch_73">
    <path d="M 606.007131 29.763457 
L 610.0232 29.763457 
L 610.0232 29.763457 
L 606.007131 29.763457 
z
" clip-path="url(#p111b35a346)" style="fill: #6495ed"/>
   </g>
   <g id="patch_74">
    <path d="M 612.979474 29.763457 
L 616.995543 29.763457 
L 616.995543 29.763457 
L 612.979474 29.763457 
z
" clip-path="url(#p111b35a346)" style="fill: #6495ed"/>
   </g>
   <g id="patch_75">
    <path d="M 619.951817 29.763457 
L 623.967886 29.763457 
L 623.967886 29.763457 
L 619.951817 29.763457 
z
" clip-path="url(#p111b35a346)" style="fill: #6495ed"/>
   </g>
   <g id="patch_76">
    <path d="M 626.92416 29.763457 
L 630.940229 29.763457 
L 630.940229 29.763457 
L 626.92416 29.763457 
z
" clip-path="url(#p111b35a346)" style="fill: #6495ed"/>
   </g>
   <g id="patch_77">
    <path d="M 633.896503 29.763457 
L 637.912572 29.763457 
L 637.912572 29.763457 
L 633.896503 29.763457 
z
" clip-path="url(#p111b35a346)" style="fill: #6495ed"/>
   </g>
   <g id="patch_78">
    <path d="M 640.868845 29.763457 
L 644.884915 29.763457 
L 644.884915 29.763457 
L 640.868845 29.763457 
z
" clip-path="url(#p111b35a346)" style="fill: #6495ed"/>
   </g>
   <g id="patch_79">
    <path d="M 647.841188 29.763457 
L 651.857258 29.763457 
L 651.857258 29.763457 
L 647.841188 29.763457 
z
" clip-path="url(#p111b35a346)" style="fill: #6495ed"/>
   </g>
   <g id="patch_80">
    <path d="M 654.813531 29.763457 
L 658.829601 29.763457 
L 658.829601 29.763457 
L 654.813531 29.763457 
z
" clip-path="url(#p111b35a346)" style="fill: #6495ed"/>
   </g>
   <g id="patch_81">
    <path d="M 661.785874 29.763457 
L 665.801944 29.763457 
L 665.801944 29.763457 
L 661.785874 29.763457 
z
" clip-path="url(#p111b35a346)" style="fill: #6495ed"/>
   </g>
   <g id="patch_82">
    <path d="M 668.758217 29.763457 
L 672.774287 29.763457 
L 672.774287 29.763457 
L 668.758217 29.763457 
z
" clip-path="url(#p111b35a346)" style="fill: #6495ed"/>
   </g>
   <g id="patch_83">
    <path d="M 675.73056 29.763457 
L 679.746629 29.763457 
L 679.746629 29.763457 
L 675.73056 29.763457 
z
" clip-path="url(#p111b35a346)" style="fill: #6495ed"/>
   </g>
   <g id="patch_84">
    <path d="M 682.702903 29.763457 
L 686.718972 29.763457 
L 686.718972 29.763457 
L 682.702903 29.763457 
z
" clip-path="url(#p111b35a346)" style="fill: #6495ed"/>
   </g>
   <g id="patch_85">
    <path d="M 689.675246 29.763457 
L 693.691315 29.763457 
L 693.691315 29.763457 
L 689.675246 29.763457 
z
" clip-path="url(#p111b35a346)" style="fill: #6495ed"/>
   </g>
   <g id="patch_86">
    <path d="M 696.647589 29.763457 
L 700.663658 29.763457 
L 700.663658 29.763457 
L 696.647589 29.763457 
z
" clip-path="url(#p111b35a346)" style="fill: #6495ed"/>
   </g>
   <g id="patch_87">
    <path d="M 703.619931 29.763457 
L 707.636001 29.763457 
L 707.636001 29.763457 
L 703.619931 29.763457 
z
" clip-path="url(#p111b35a346)" style="fill: #6495ed"/>
   </g>
   <g id="patch_88">
    <path d="M 710.592274 29.763457 
L 714.608344 29.763457 
L 714.608344 29.763457 
L 710.592274 29.763457 
z
" clip-path="url(#p111b35a346)" style="fill: #6495ed"/>
   </g>
   <g id="patch_89">
    <path d="M 717.564617 29.763457 
L 721.580687 29.763457 
L 721.580687 29.763457 
L 717.564617 29.763457 
z
" clip-path="url(#p111b35a346)" style="fill: #6495ed"/>
   </g>
   <g id="patch_90">
    <path d="M 724.53696 29.763457 
L 728.55303 29.763457 
L 728.55303 29.763457 
L 724.53696 29.763457 
z
" clip-path="url(#p111b35a346)" style="fill: #6495ed"/>
   </g>
   <g id="patch_91">
    <path d="M 731.509303 29.763457 
L 735.525373 29.763457 
L 735.525373 29.763457 
L 731.509303 29.763457 
z
" clip-path="url(#p111b35a346)" style="fill: #6495ed"/>
   </g>
   <g id="patch_92">
    <path d="M 738.481646 29.763457 
L 742.497715 29.763457 
L 742.497715 29.763457 
L 738.481646 29.763457 
z
" clip-path="url(#p111b35a346)" style="fill: #6495ed"/>
   </g>
   <g id="patch_93">
    <path d="M 745.453989 29.763457 
L 749.470058 29.763457 
L 749.470058 29.763457 
L 745.453989 29.763457 
z
" clip-path="url(#p111b35a346)" style="fill: #6495ed"/>
   </g>
   <g id="patch_94">
    <path d="M 752.426332 29.763457 
L 756.442401 29.763457 
L 756.442401 29.763457 
L 752.426332 29.763457 
z
" clip-path="url(#p111b35a346)" style="fill: #6495ed"/>
   </g>
   <g id="patch_95">
    <path d="M 759.398675 29.763457 
L 763.414744 29.763457 
L 763.414744 29.763457 
L 759.398675 29.763457 
z
" clip-path="url(#p111b35a346)" style="fill: #6495ed"/>
   </g>
   <g id="patch_96">
    <path d="M 766.371018 29.763457 
L 770.387087 29.763457 
L 770.387087 29.763457 
L 766.371018 29.763457 
z
" clip-path="url(#p111b35a346)" style="fill: #6495ed"/>
   </g>
   <g id="patch_97">
    <path d="M 773.34336 29.763457 
L 777.35943 29.763457 
L 777.35943 29.763457 
L 773.34336 29.763457 
z
" clip-path="url(#p111b35a346)" style="fill: #6495ed"/>
   </g>
   <g id="patch_98">
    <path d="M 779.083923 29.763457 
L 783.099992 29.763457 
L 783.099992 29.763457 
L 779.083923 29.763457 
z
" clip-path="url(#p111b35a346)" style="fill: #6495ed"/>
   </g>
   <g id="patch_99">
    <path d="M 786.056266 29.763457 
L 790.072335 29.763457 
L 790.072335 29.763457 
L 786.056266 29.763457 
z
" clip-path="url(#p111b35a346)" style="fill: #6495ed"/>
   </g>
   <g id="patch_100">
    <path d="M 793.028609 29.763457 
L 797.044678 29.763457 
L 797.044678 29.763457 
L 793.028609 29.763457 
z
" clip-path="url(#p111b35a346)" style="fill: #6495ed"/>
   </g>
   <g id="patch_101">
    <path d="M 800.000951 29.763457 
L 804.017021 29.763457 
L 804.017021 29.763457 
L 800.000951 29.763457 
z
" clip-path="url(#p111b35a346)" style="fill: #6495ed"/>
   </g>
   <g id="patch_102">
    <path d="M 806.973294 29.763457 
L 810.989364 29.763457 
L 810.989364 29.763457 
L 806.973294 29.763457 
z
" clip-path="url(#p111b35a346)" style="fill: #6495ed"/>
   </g>
   <g id="patch_103">
    <path d="M 813.945637 29.763457 
L 817.961707 29.763457 
L 817.961707 29.763457 
L 813.945637 29.763457 
z
" clip-path="url(#p111b35a346)" style="fill: #6495ed"/>
   </g>
   <g id="patch_104">
    <path d="M 820.91798 29.763457 
L 824.93405 29.763457 
L 824.93405 29.763457 
L 820.91798 29.763457 
z
" clip-path="url(#p111b35a346)" style="fill: #6495ed"/>
   </g>
   <g id="patch_105">
    <path d="M 827.890323 29.763457 
L 831.906392 29.763457 
L 831.906392 29.763457 
L 827.890323 29.763457 
z
" clip-path="url(#p111b35a346)" style="fill: #6495ed"/>
   </g>
   <g id="patch_106">
    <path d="M 834.862666 29.763457 
L 838.878735 29.763457 
L 838.878735 29.763457 
L 834.862666 29.763457 
z
" clip-path="url(#p111b35a346)" style="fill: #6495ed"/>
   </g>
   <g id="patch_107">
    <path d="M 841.835009 29.763457 
L 845.851078 29.763457 
L 845.851078 29.763457 
L 841.835009 29.763457 
z
" clip-path="url(#p111b35a346)" style="fill: #6495ed"/>
   </g>
   <g id="patch_108">
    <path d="M 848.807352 29.763457 
L 852.823421 29.763457 
L 852.823421 29.763457 
L 848.807352 29.763457 
z
" clip-path="url(#p111b35a346)" style="fill: #6495ed"/>
   </g>
   <g id="patch_109">
    <path d="M 855.779695 29.763457 
L 859.795764 29.763457 
L 859.795764 29.763457 
L 855.779695 29.763457 
z
" clip-path="url(#p111b35a346)" style="fill: #6495ed"/>
   </g>
   <g id="patch_110">
    <path d="M 862.752037 29.763457 
L 866.768107 29.763457 
L 866.768107 29.763457 
L 862.752037 29.763457 
z
" clip-path="url(#p111b35a346)" style="fill: #6495ed"/>
   </g>
   <g id="patch_111">
    <path d="M 869.72438 29.763457 
L 873.74045 29.763457 
L 873.74045 29.763457 
L 869.72438 29.763457 
z
" clip-path="url(#p111b35a346)" style="fill: #6495ed"/>
   </g>
   <g id="patch_112">
    <path d="M 876.696723 29.763457 
L 880.712793 29.763457 
L 880.712793 29.763457 
L 876.696723 29.763457 
z
" clip-path="url(#p111b35a346)" style="fill: #6495ed"/>
   </g>
   <g id="patch_113">
    <path d="M 883.669066 29.763457 
L 887.685136 29.763457 
L 887.685136 29.763457 
L 883.669066 29.763457 
z
" clip-path="url(#p111b35a346)" style="fill: #6495ed"/>
   </g>
   <g id="patch_114">
    <path d="M 890.641409 29.763457 
L 894.657479 29.763457 
L 894.657479 29.763457 
L 890.641409 29.763457 
z
" clip-path="url(#p111b35a346)" style="fill: #6495ed"/>
   </g>
   <g id="patch_115">
    <path d="M 897.613752 29.763457 
L 901.629821 29.763457 
L 901.629821 29.763457 
L 897.613752 29.763457 
z
" clip-path="url(#p111b35a346)" style="fill: #6495ed"/>
   </g>
   <g id="patch_116">
    <path d="M 904.586095 29.763457 
L 908.602164 29.763457 
L 908.602164 29.763457 
L 904.586095 29.763457 
z
" clip-path="url(#p111b35a346)" style="fill: #6495ed"/>
   </g>
   <g id="patch_117">
    <path d="M 911.558438 29.763457 
L 915.574507 29.763457 
L 915.574507 29.763457 
L 911.558438 29.763457 
z
" clip-path="url(#p111b35a346)" style="fill: #6495ed"/>
   </g>
   <g id="patch_118">
    <path d="M 918.530781 29.763457 
L 922.54685 29.763457 
L 922.54685 29.763457 
L 918.530781 29.763457 
z
" clip-path="url(#p111b35a346)" style="fill: #6495ed"/>
   </g>
   <g id="patch_119">
    <path d="M 925.503123 29.763457 
L 929.519193 29.763457 
L 929.519193 29.763457 
L 925.503123 29.763457 
z
" clip-path="url(#p111b35a346)" style="fill: #6495ed"/>
   </g>
   <g id="patch_120">
    <path d="M 932.475466 29.763457 
L 936.491536 29.763457 
L 936.491536 29.763457 
L 932.475466 29.763457 
z
" clip-path="url(#p111b35a346)" style="fill: #6495ed"/>
   </g>
   <g id="patch_121">
    <path d="M 939.447809 29.763457 
L 943.463879 29.763457 
L 943.463879 29.763457 
L 939.447809 29.763457 
z
" clip-path="url(#p111b35a346)" style="fill: #6495ed"/>
   </g>
   <g id="patch_122">
    <path d="M 946.420152 29.763457 
L 950.436222 29.763457 
L 950.436222 29.763457 
L 946.420152 29.763457 
z
" clip-path="url(#p111b35a346)" style="fill: #6495ed"/>
   </g>
   <g id="patch_123">
    <path d="M 953.392495 29.763457 
L 957.408565 29.763457 
L 957.408565 29.763457 
L 953.392495 29.763457 
z
" clip-path="url(#p111b35a346)" style="fill: #6495ed"/>
   </g>
   <g id="patch_124">
    <path d="M 960.364838 29.763457 
L 964.380907 29.763457 
L 964.380907 29.763457 
L 960.364838 29.763457 
z
" clip-path="url(#p111b35a346)" style="fill: #6495ed"/>
   </g>
   <g id="patch_125">
    <path d="M 967.337181 29.763457 
L 971.35325 29.763457 
L 971.35325 29.763457 
L 967.337181 29.763457 
z
" clip-path="url(#p111b35a346)" style="fill: #6495ed"/>
   </g>
   <g id="patch_126">
    <path d="M 974.309524 29.763457 
L 978.325593 29.763457 
L 978.325593 29.763457 
L 974.309524 29.763457 
z
" clip-path="url(#p111b35a346)" style="fill: #6495ed"/>
   </g>
   <g id="patch_127">
    <path d="M 981.281867 29.763457 
L 985.297936 29.763457 
L 985.297936 29.763457 
L 981.281867 29.763457 
z
" clip-path="url(#p111b35a346)" style="fill: #6495ed"/>
   </g>
   <g id="patch_128">
    <path d="M 988.25421 29.763457 
L 992.270279 29.763457 
L 992.270279 29.763457 
L 988.25421 29.763457 
z
" clip-path="url(#p111b35a346)" style="fill: #6495ed"/>
   </g>
   <g id="patch_129">
    <path d="M 995.226552 29.763457 
L 999.242622 29.763457 
L 999.242622 29.763457 
L 995.226552 29.763457 
z
" clip-path="url(#p111b35a346)" style="fill: #6495ed"/>
   </g>
   <g id="patch_130">
    <path d="M 1002.198895 29.763457 
L 1006.214965 29.763457 
L 1006.214965 29.763457 
L 1002.198895 29.763457 
z
" clip-path="url(#p111b35a346)" style="fill: #6495ed"/>
   </g>
   <g id="patch_131">
    <path d="M 1009.171238 29.763457 
L 1013.187308 29.763457 
L 1013.187308 29.763457 
L 1009.171238 29.763457 
z
" clip-path="url(#p111b35a346)" style="fill: #6495ed"/>
   </g>
   <g id="patch_132">
    <path d="M 1016.143581 29.763457 
L 1020.159651 29.763457 
L 1020.159651 29.763457 
L 1016.143581 29.763457 
z
" clip-path="url(#p111b35a346)" style="fill: #6495ed"/>
   </g>
   <g id="patch_133">
    <path d="M 1023.115924 29.763457 
L 1027.131994 29.763457 
L 1027.131994 29.763457 
L 1023.115924 29.763457 
z
" clip-path="url(#p111b35a346)" style="fill: #6495ed"/>
   </g>
   <g id="patch_134">
    <path d="M 1031.320047 29.763457 
L 1035.336117 29.763457 
L 1035.336117 29.763457 
L 1031.320047 29.763457 
z
" clip-path="url(#p111b35a346)" style="fill: #6495ed"/>
   </g>
   <g id="patch_135">
    <path d="M 1038.29239 29.763457 
L 1042.30846 29.763457 
L 1042.30846 29.763457 
L 1038.29239 29.763457 
z
" clip-path="url(#p111b35a346)" style="fill: #6495ed"/>
   </g>
   <g id="patch_136">
    <path d="M 1045.264733 29.763457 
L 1049.280803 29.763457 
L 1049.280803 29.763457 
L 1045.264733 29.763457 
z
" clip-path="url(#p111b35a346)" style="fill: #6495ed"/>
   </g>
   <g id="patch_137">
    <path d="M 1052.237076 29.763457 
L 1056.253146 29.763457 
L 1056.253146 29.763457 
L 1052.237076 29.763457 
z
" clip-path="url(#p111b35a346)" style="fill: #6495ed"/>
   </g>
   <g id="patch_138">
    <path d="M 1059.209419 29.763457 
L 1063.225489 29.763457 
L 1063.225489 29.763457 
L 1059.209419 29.763457 
z
" clip-path="url(#p111b35a346)" style="fill: #6495ed"/>
   </g>
   <g id="patch_139">
    <path d="M 1066.181762 29.763457 
L 1070.197831 29.763457 
L 1070.197831 29.763457 
L 1066.181762 29.763457 
z
" clip-path="url(#p111b35a346)" style="fill: #6495ed"/>
   </g>
   <g id="patch_140">
    <path d="M 1073.154105 29.763457 
L 1077.170174 29.763457 
L 1077.170174 29.763457 
L 1073.154105 29.763457 
z
" clip-path="url(#p111b35a346)" style="fill: #6495ed"/>
   </g>
   <g id="patch_141">
    <path d="M 1080.126448 29.763457 
L 1084.142517 29.763457 
L 1084.142517 29.763457 
L 1080.126448 29.763457 
z
" clip-path="url(#p111b35a346)" style="fill: #6495ed"/>
   </g>
   <g id="patch_142">
    <path d="M 1087.098791 29.763457 
L 1091.11486 29.763457 
L 1091.11486 29.763457 
L 1087.098791 29.763457 
z
" clip-path="url(#p111b35a346)" style="fill: #6495ed"/>
   </g>
   <g id="patch_143">
    <path d="M 1094.071134 29.763457 
L 1098.087203 29.763457 
L 1098.087203 29.763457 
L 1094.071134 29.763457 
z
" clip-path="url(#p111b35a346)" style="fill: #6495ed"/>
   </g>
   <g id="patch_144">
    <path d="M 1101.043476 29.763457 
L 1105.059546 29.763457 
L 1105.059546 29.763457 
L 1101.043476 29.763457 
z
" clip-path="url(#p111b35a346)" style="fill: #6495ed"/>
   </g>
   <g id="patch_145">
    <path d="M 1108.015819 29.763457 
L 1112.031889 29.763457 
L 1112.031889 29.763457 
L 1108.015819 29.763457 
z
" clip-path="url(#p111b35a346)" style="fill: #6495ed"/>
   </g>
   <g id="patch_146">
    <path d="M 1114.988162 29.763457 
L 1119.004232 29.763457 
L 1119.004232 29.763457 
L 1114.988162 29.763457 
z
" clip-path="url(#p111b35a346)" style="fill: #6495ed"/>
   </g>
   <g id="patch_147">
    <path d="M 1121.960505 29.763457 
L 1125.976575 29.763457 
L 1125.976575 29.763457 
L 1121.960505 29.763457 
z
" clip-path="url(#p111b35a346)" style="fill: #6495ed"/>
   </g>
   <g id="patch_148">
    <path d="M 1128.932848 29.763457 
L 1132.948917 29.763457 
L 1132.948917 29.763457 
L 1128.932848 29.763457 
z
" clip-path="url(#p111b35a346)" style="fill: #6495ed"/>
   </g>
   <g id="patch_149">
    <path d="M 1135.905191 29.763457 
L 1139.92126 29.763457 
L 1139.92126 29.763457 
L 1135.905191 29.763457 
z
" clip-path="url(#p111b35a346)" style="fill: #6495ed"/>
   </g>
   <g id="patch_150">
    <path d="M 1142.877534 29.763457 
L 1146.893603 29.763457 
L 1146.893603 29.763457 
L 1142.877534 29.763457 
z
" clip-path="url(#p111b35a346)" style="fill: #6495ed"/>
   </g>
   <g id="patch_151">
    <path d="M 1149.849877 29.763457 
L 1153.865946 29.763457 
L 1153.865946 29.763457 
L 1149.849877 29.763457 
z
" clip-path="url(#p111b35a346)" style="fill: #6495ed"/>
   </g>
   <g id="patch_152">
    <path d="M 1156.82222 29.763457 
L 1160.838289 29.763457 
L 1160.838289 29.763457 
L 1156.82222 29.763457 
z
" clip-path="url(#p111b35a346)" style="fill: #6495ed"/>
   </g>
   <g id="patch_153">
    <path d="M 1163.794562 29.763457 
L 1167.810632 29.763457 
L 1167.810632 29.763457 
L 1163.794562 29.763457 
z
" clip-path="url(#p111b35a346)" style="fill: #6495ed"/>
   </g>
   <g id="patch_154">
    <path d="M 1170.766905 29.763457 
L 1174.782975 29.763457 
L 1174.782975 29.763457 
L 1170.766905 29.763457 
z
" clip-path="url(#p111b35a346)" style="fill: #6495ed"/>
   </g>
   <g id="patch_155">
    <path d="M 1177.739248 29.763457 
L 1181.755318 29.763457 
L 1181.755318 29.763457 
L 1177.739248 29.763457 
z
" clip-path="url(#p111b35a346)" style="fill: #6495ed"/>
   </g>
   <g id="patch_156">
    <path d="M 1184.711591 29.763457 
L 1188.727661 29.763457 
L 1188.727661 29.763457 
L 1184.711591 29.763457 
z
" clip-path="url(#p111b35a346)" style="fill: #6495ed"/>
   </g>
   <g id="patch_157">
    <path d="M 1191.683934 29.763457 
L 1195.700004 29.763457 
L 1195.700004 29.763457 
L 1191.683934 29.763457 
z
" clip-path="url(#p111b35a346)" style="fill: #6495ed"/>
   </g>
   <g id="patch_158">
    <path d="M 1198.656277 29.763457 
L 1202.672346 29.763457 
L 1202.672346 29.763457 
L 1198.656277 29.763457 
z
" clip-path="url(#p111b35a346)" style="fill: #6495ed"/>
   </g>
   <g id="patch_159">
    <path d="M 1205.62862 29.763457 
L 1209.644689 29.763457 
L 1209.644689 29.763457 
L 1205.62862 29.763457 
z
" clip-path="url(#p111b35a346)" style="fill: #6495ed"/>
   </g>
   <g id="patch_160">
    <path d="M 1212.600963 29.763457 
L 1216.617032 29.763457 
L 1216.617032 29.763457 
L 1212.600963 29.763457 
z
" clip-path="url(#p111b35a346)" style="fill: #6495ed"/>
   </g>
   <g id="patch_161">
    <path d="M 1219.573306 29.763457 
L 1223.589375 29.763457 
L 1223.589375 29.763457 
L 1219.573306 29.763457 
z
" clip-path="url(#p111b35a346)" style="fill: #6495ed"/>
   </g>
   <g id="patch_162">
    <path d="M 1226.545648 29.763457 
L 1230.561718 29.763457 
L 1230.561718 29.763457 
L 1226.545648 29.763457 
z
" clip-path="url(#p111b35a346)" style="fill: #6495ed"/>
   </g>
   <g id="patch_163">
    <path d="M 1233.517991 29.763457 
L 1237.534061 29.763457 
L 1237.534061 29.763457 
L 1233.517991 29.763457 
z
" clip-path="url(#p111b35a346)" style="fill: #6495ed"/>
   </g>
   <g id="patch_164">
    <path d="M 1240.490334 29.763457 
L 1244.506404 29.763457 
L 1244.506404 29.763457 
L 1240.490334 29.763457 
z
" clip-path="url(#p111b35a346)" style="fill: #6495ed"/>
   </g>
   <g id="patch_165">
    <path d="M 1247.462677 29.763457 
L 1251.478747 29.763457 
L 1251.478747 29.763457 
L 1247.462677 29.763457 
z
" clip-path="url(#p111b35a346)" style="fill: #6495ed"/>
   </g>
   <g id="patch_166">
    <path d="M 1254.43502 29.763457 
L 1258.45109 29.763457 
L 1258.45109 29.763457 
L 1254.43502 29.763457 
z
" clip-path="url(#p111b35a346)" style="fill: #6495ed"/>
   </g>
   <g id="patch_167">
    <path d="M 1261.407363 29.763457 
L 1265.423432 29.763457 
L 1265.423432 37.085681 
L 1261.407363 37.085681 
z
" clip-path="url(#p111b35a346)" style="fill: #6495ed"/>
   </g>
   <g id="patch_168">
    <path d="M 1268.379706 29.763457 
L 1272.395775 29.763457 
L 1272.395775 44.407905 
L 1268.379706 44.407905 
z
" clip-path="url(#p111b35a346)" style="fill: #6495ed"/>
   </g>
   <g id="patch_169">
    <path d="M 1275.352049 29.763457 
L 1279.368118 29.763457 
L 1279.368118 110.307923 
L 1275.352049 110.307923 
z
" clip-path="url(#p111b35a346)" style="fill: #6495ed"/>
   </g>
   <g id="patch_170">
    <path d="M 1282.324392 29.763457 
L 1286.340461 29.763457 
L 1286.340461 73.696802 
L 1282.324392 73.696802 
z
" clip-path="url(#p111b35a346)" style="fill: #6495ed"/>
   </g>
   <g id="patch_171">
    <path d="M 1289.296735 29.763457 
L 1293.312804 29.763457 
L 1293.312804 44.407905 
L 1289.296735 44.407905 
z
" clip-path="url(#p111b35a346)" style="fill: #6495ed"/>
   </g>
   <g id="patch_172">
    <path d="M 1296.269077 29.763457 
L 1300.285147 29.763457 
L 1300.285147 29.763457 
L 1296.269077 29.763457 
z
" clip-path="url(#p111b35a346)" style="fill: #6495ed"/>
   </g>
   <g id="patch_173">
    <path d="M 1303.24142 29.763457 
L 1307.25749 29.763457 
L 1307.25749 29.763457 
L 1303.24142 29.763457 
z
" clip-path="url(#p111b35a346)" style="fill: #6495ed"/>
   </g>
   <g id="patch_174">
    <path d="M 1310.213763 29.763457 
L 1314.229833 29.763457 
L 1314.229833 29.763457 
L 1310.213763 29.763457 
z
" clip-path="url(#p111b35a346)" style="fill: #6495ed"/>
   </g>
   <g id="patch_175">
    <path d="M 1317.186106 29.763457 
L 1321.202176 29.763457 
L 1321.202176 29.763457 
L 1317.186106 29.763457 
z
" clip-path="url(#p111b35a346)" style="fill: #6495ed"/>
   </g>
   <g id="patch_176">
    <path d="M 1324.158449 29.763457 
L 1328.174519 29.763457 
L 1328.174519 29.763457 
L 1324.158449 29.763457 
z
" clip-path="url(#p111b35a346)" style="fill: #6495ed"/>
   </g>
   <g id="patch_177">
    <path d="M 1331.130792 29.763457 
L 1335.146861 29.763457 
L 1335.146861 29.763457 
L 1331.130792 29.763457 
z
" clip-path="url(#p111b35a346)" style="fill: #6495ed"/>
   </g>
   <g id="patch_178">
    <path d="M 1338.103135 29.763457 
L 1342.119204 29.763457 
L 1342.119204 44.407905 
L 1338.103135 44.407905 
z
" clip-path="url(#p111b35a346)" style="fill: #6495ed"/>
   </g>
   <g id="patch_179">
    <path d="M 1345.075478 29.763457 
L 1349.091547 29.763457 
L 1349.091547 29.763457 
L 1345.075478 29.763457 
z
" clip-path="url(#p111b35a346)" style="fill: #6495ed"/>
   </g>
   <g id="patch_180">
    <path d="M 1352.047821 29.763457 
L 1356.06389 29.763457 
L 1356.06389 29.763457 
L 1352.047821 29.763457 
z
" clip-path="url(#p111b35a346)" style="fill: #6495ed"/>
   </g>
   <g id="patch_181">
    <path d="M 1359.020163 29.763457 
L 1363.036233 29.763457 
L 1363.036233 29.763457 
L 1359.020163 29.763457 
z
" clip-path="url(#p111b35a346)" style="fill: #6495ed"/>
   </g>
   <g id="patch_182">
    <path d="M 1365.992506 29.763457 
L 1370.008576 29.763457 
L 1370.008576 29.763457 
L 1365.992506 29.763457 
z
" clip-path="url(#p111b35a346)" style="fill: #6495ed"/>
   </g>
   <g id="patch_183">
    <path d="M 1372.964849 29.763457 
L 1376.980919 29.763457 
L 1376.980919 29.763457 
L 1372.964849 29.763457 
z
" clip-path="url(#p111b35a346)" style="fill: #6495ed"/>
   </g>
   <g id="patch_184">
    <path d="M 1379.937192 29.763457 
L 1383.953262 29.763457 
L 1383.953262 29.763457 
L 1379.937192 29.763457 
z
" clip-path="url(#p111b35a346)" style="fill: #6495ed"/>
   </g>
   <g id="patch_185">
    <path d="M 1386.909535 29.763457 
L 1390.925605 29.763457 
L 1390.925605 29.763457 
L 1386.909535 29.763457 
z
" clip-path="url(#p111b35a346)" style="fill: #6495ed"/>
   </g>
   <g id="patch_186">
    <path d="M 1393.881878 29.763457 
L 1397.897947 29.763457 
L 1397.897947 29.763457 
L 1393.881878 29.763457 
z
" clip-path="url(#p111b35a346)" style="fill: #6495ed"/>
   </g>
   <g id="patch_187">
    <path d="M 1400.854221 29.763457 
L 1404.87029 29.763457 
L 1404.87029 29.763457 
L 1400.854221 29.763457 
z
" clip-path="url(#p111b35a346)" style="fill: #6495ed"/>
   </g>
   <g id="patch_188">
    <path d="M 1407.826564 29.763457 
L 1411.842633 29.763457 
L 1411.842633 29.763457 
L 1407.826564 29.763457 
z
" clip-path="url(#p111b35a346)" style="fill: #6495ed"/>
   </g>
   <g id="patch_189">
    <path d="M 1414.798907 29.763457 
L 1418.814976 29.763457 
L 1418.814976 29.763457 
L 1414.798907 29.763457 
z
" clip-path="url(#p111b35a346)" style="fill: #6495ed"/>
   </g>
   <g id="patch_190">
    <path d="M 1421.77125 29.763457 
L 1425.787319 29.763457 
L 1425.787319 29.763457 
L 1421.77125 29.763457 
z
" clip-path="url(#p111b35a346)" style="fill: #6495ed"/>
   </g>
   <g id="patch_191">
    <path d="M 1428.743592 29.763457 
L 1432.759662 29.763457 
L 1432.759662 29.763457 
L 1428.743592 29.763457 
z
" clip-path="url(#p111b35a346)" style="fill: #6495ed"/>
   </g>
   <g id="patch_192">
    <path d="M 1435.715935 29.763457 
L 1439.732005 29.763457 
L 1439.732005 29.763457 
L 1435.715935 29.763457 
z
" clip-path="url(#p111b35a346)" style="fill: #6495ed"/>
   </g>
   <g id="patch_193">
    <path d="M 1442.688278 29.763457 
L 1446.704348 29.763457 
L 1446.704348 29.763457 
L 1442.688278 29.763457 
z
" clip-path="url(#p111b35a346)" style="fill: #6495ed"/>
   </g>
   <g id="patch_194">
    <path d="M 1449.660621 29.763457 
L 1453.676691 29.763457 
L 1453.676691 29.763457 
L 1449.660621 29.763457 
z
" clip-path="url(#p111b35a346)" style="fill: #6495ed"/>
   </g>
   <g id="patch_195">
    <path d="M 1456.632964 29.763457 
L 1460.649033 29.763457 
L 1460.649033 29.763457 
L 1456.632964 29.763457 
z
" clip-path="url(#p111b35a346)" style="fill: #6495ed"/>
   </g>
   <g id="patch_196">
    <path d="M 1463.605307 29.763457 
L 1467.621376 29.763457 
L 1467.621376 29.763457 
L 1463.605307 29.763457 
z
" clip-path="url(#p111b35a346)" style="fill: #6495ed"/>
   </g>
   <g id="patch_197">
    <path d="M 1470.57765 29.763457 
L 1474.593719 29.763457 
L 1474.593719 29.763457 
L 1470.57765 29.763457 
z
" clip-path="url(#p111b35a346)" style="fill: #6495ed"/>
   </g>
   <g id="patch_198">
    <path d="M 1477.549993 29.763457 
L 1481.566062 29.763457 
L 1481.566062 29.763457 
L 1477.549993 29.763457 
z
" clip-path="url(#p111b35a346)" style="fill: #6495ed"/>
   </g>
   <g id="patch_199">
    <path d="M 1484.522336 29.763457 
L 1488.538405 29.763457 
L 1488.538405 29.763457 
L 1484.522336 29.763457 
z
" clip-path="url(#p111b35a346)" style="fill: #6495ed"/>
   </g>
   <g id="patch_200">
    <path d="M 1491.494678 29.763457 
L 1495.510748 29.763457 
L 1495.510748 29.763457 
L 1491.494678 29.763457 
z
" clip-path="url(#p111b35a346)" style="fill: #6495ed"/>
   </g>
   <g id="patch_201">
    <path d="M 1498.467021 29.763457 
L 1502.483091 29.763457 
L 1502.483091 29.763457 
L 1498.467021 29.763457 
z
" clip-path="url(#p111b35a346)" style="fill: #6495ed"/>
   </g>
   <g id="patch_202">
    <path d="M 1505.439364 29.763457 
L 1509.455434 29.763457 
L 1509.455434 29.763457 
L 1505.439364 29.763457 
z
" clip-path="url(#p111b35a346)" style="fill: #6495ed"/>
   </g>
   <g id="patch_203">
    <path d="M 1512.411707 29.763457 
L 1516.427777 29.763457 
L 1516.427777 29.763457 
L 1512.411707 29.763457 
z
" clip-path="url(#p111b35a346)" style="fill: #6495ed"/>
   </g>
   <g id="patch_204">
    <path d="M 1519.38405 29.763457 
L 1523.40012 29.763457 
L 1523.40012 29.763457 
L 1519.38405 29.763457 
z
" clip-path="url(#p111b35a346)" style="fill: #6495ed"/>
   </g>
   <g id="patch_205">
    <path d="M 1526.356393 29.763457 
L 1530.372462 29.763457 
L 1530.372462 29.763457 
L 1526.356393 29.763457 
z
" clip-path="url(#p111b35a346)" style="fill: #6495ed"/>
   </g>
   <g id="patch_206">
    <path d="M 1533.328736 29.763457 
L 1537.344805 29.763457 
L 1537.344805 29.763457 
L 1533.328736 29.763457 
z
" clip-path="url(#p111b35a346)" style="fill: #6495ed"/>
   </g>
   <g id="patch_207">
    <path d="M 1540.301079 29.763457 
L 1544.317148 29.763457 
L 1544.317148 29.763457 
L 1540.301079 29.763457 
z
" clip-path="url(#p111b35a346)" style="fill: #6495ed"/>
   </g>
   <g id="patch_208">
    <path d="M 1547.273422 29.763457 
L 1551.289491 29.763457 
L 1551.289491 29.763457 
L 1547.273422 29.763457 
z
" clip-path="url(#p111b35a346)" style="fill: #6495ed"/>
   </g>
   <g id="patch_209">
    <path d="M 1554.245764 29.763457 
L 1558.261834 29.763457 
L 1558.261834 29.763457 
L 1554.245764 29.763457 
z
" clip-path="url(#p111b35a346)" style="fill: #6495ed"/>
   </g>
   <g id="patch_210">
    <path d="M 1561.218107 29.763457 
L 1565.234177 29.763457 
L 1565.234177 29.763457 
L 1561.218107 29.763457 
z
" clip-path="url(#p111b35a346)" style="fill: #6495ed"/>
   </g>
   <g id="patch_211">
    <path d="M 1568.19045 29.763457 
L 1572.20652 29.763457 
L 1572.20652 29.763457 
L 1568.19045 29.763457 
z
" clip-path="url(#p111b35a346)" style="fill: #6495ed"/>
   </g>
   <g id="patch_212">
    <path d="M 1575.162793 29.763457 
L 1579.178863 29.763457 
L 1579.178863 29.763457 
L 1575.162793 29.763457 
z
" clip-path="url(#p111b35a346)" style="fill: #6495ed"/>
   </g>
   <g id="patch_213">
    <path d="M 1582.135136 29.763457 
L 1586.151206 29.763457 
L 1586.151206 29.763457 
L 1582.135136 29.763457 
z
" clip-path="url(#p111b35a346)" style="fill: #6495ed"/>
   </g>
   <g id="patch_214">
    <path d="M 1589.107479 29.763457 
L 1593.123548 29.763457 
L 1593.123548 29.763457 
L 1589.107479 29.763457 
z
" clip-path="url(#p111b35a346)" style="fill: #6495ed"/>
   </g>
   <g id="patch_215">
    <path d="M 1596.079822 29.763457 
L 1600.095891 29.763457 
L 1600.095891 29.763457 
L 1596.079822 29.763457 
z
" clip-path="url(#p111b35a346)" style="fill: #6495ed"/>
   </g>
   <g id="patch_216">
    <path d="M 1603.052165 29.763457 
L 1607.068234 29.763457 
L 1607.068234 29.763457 
L 1603.052165 29.763457 
z
" clip-path="url(#p111b35a346)" style="fill: #6495ed"/>
   </g>
   <g id="patch_217">
    <path d="M 1610.024508 29.763457 
L 1614.040577 29.763457 
L 1614.040577 29.763457 
L 1610.024508 29.763457 
z
" clip-path="url(#p111b35a346)" style="fill: #6495ed"/>
   </g>
   <g id="patch_218">
    <path d="M 1616.996851 29.763457 
L 1621.01292 29.763457 
L 1621.01292 29.763457 
L 1616.996851 29.763457 
z
" clip-path="url(#p111b35a346)" style="fill: #6495ed"/>
   </g>
   <g id="patch_219">
    <path d="M 1623.969193 29.763457 
L 1627.985263 29.763457 
L 1627.985263 29.763457 
L 1623.969193 29.763457 
z
" clip-path="url(#p111b35a346)" style="fill: #6495ed"/>
   </g>
   <g id="patch_220">
    <path d="M 1630.941536 29.763457 
L 1634.957606 29.763457 
L 1634.957606 29.763457 
L 1630.941536 29.763457 
z
" clip-path="url(#p111b35a346)" style="fill: #6495ed"/>
   </g>
   <g id="patch_221">
    <path d="M 1637.913879 29.763457 
L 1641.929949 29.763457 
L 1641.929949 29.763457 
L 1637.913879 29.763457 
z
" clip-path="url(#p111b35a346)" style="fill: #6495ed"/>
   </g>
   <g id="patch_222">
    <path d="M 1644.886222 29.763457 
L 1648.902292 29.763457 
L 1648.902292 29.763457 
L 1644.886222 29.763457 
z
" clip-path="url(#p111b35a346)" style="fill: #6495ed"/>
   </g>
   <g id="patch_223">
    <path d="M 1651.858565 29.763457 
L 1655.874634 29.763457 
L 1655.874634 29.763457 
L 1651.858565 29.763457 
z
" clip-path="url(#p111b35a346)" style="fill: #6495ed"/>
   </g>
   <g id="patch_224">
    <path d="M 1658.830908 29.763457 
L 1662.846977 29.763457 
L 1662.846977 29.763457 
L 1658.830908 29.763457 
z
" clip-path="url(#p111b35a346)" style="fill: #6495ed"/>
   </g>
   <g id="patch_225">
    <path d="M 1665.803251 29.763457 
L 1669.81932 29.763457 
L 1669.81932 29.763457 
L 1665.803251 29.763457 
z
" clip-path="url(#p111b35a346)" style="fill: #6495ed"/>
   </g>
   <g id="patch_226">
    <path d="M 1672.775594 29.763457 
L 1676.791663 29.763457 
L 1676.791663 29.763457 
L 1672.775594 29.763457 
z
" clip-path="url(#p111b35a346)" style="fill: #6495ed"/>
   </g>
   <g id="patch_227">
    <path d="M 1679.747937 29.763457 
L 1683.764006 29.763457 
L 1683.764006 29.763457 
L 1679.747937 29.763457 
z
" clip-path="url(#p111b35a346)" style="fill: #6495ed"/>
   </g>
   <g id="patch_228">
    <path d="M 1686.720279 29.763457 
L 1690.736349 29.763457 
L 1690.736349 29.763457 
L 1686.720279 29.763457 
z
" clip-path="url(#p111b35a346)" style="fill: #6495ed"/>
   </g>
   <g id="patch_229">
    <path d="M 1693.692622 29.763457 
L 1697.708692 29.763457 
L 1697.708692 29.763457 
L 1693.692622 29.763457 
z
" clip-path="url(#p111b35a346)" style="fill: #6495ed"/>
   </g>
   <g id="patch_230">
    <path d="M 1700.664965 29.763457 
L 1704.681035 29.763457 
L 1704.681035 29.763457 
L 1700.664965 29.763457 
z
" clip-path="url(#p111b35a346)" style="fill: #6495ed"/>
   </g>
   <g id="patch_231">
    <path d="M 1707.637308 29.763457 
L 1711.653378 29.763457 
L 1711.653378 29.763457 
L 1707.637308 29.763457 
z
" clip-path="url(#p111b35a346)" style="fill: #6495ed"/>
   </g>
   <g id="patch_232">
    <path d="M 1714.609651 29.763457 
L 1718.625721 29.763457 
L 1718.625721 29.763457 
L 1714.609651 29.763457 
z
" clip-path="url(#p111b35a346)" style="fill: #6495ed"/>
   </g>
   <g id="patch_233">
    <path d="M 1721.581994 29.763457 
L 1725.598063 29.763457 
L 1725.598063 44.407905 
L 1721.581994 44.407905 
z
" clip-path="url(#p111b35a346)" style="fill: #6495ed"/>
   </g>
   <g id="patch_234">
    <path d="M 1728.554337 29.763457 
L 1732.570406 29.763457 
L 1732.570406 81.019026 
L 1728.554337 81.019026 
z
" clip-path="url(#p111b35a346)" style="fill: #6495ed"/>
   </g>
   <g id="patch_235">
    <path d="M 1735.52668 29.763457 
L 1739.542749 29.763457 
L 1739.542749 73.696802 
L 1735.52668 73.696802 
z
" clip-path="url(#p111b35a346)" style="fill: #6495ed"/>
   </g>
   <g id="patch_236">
    <path d="M 1742.499023 29.763457 
L 1746.515092 29.763457 
L 1746.515092 66.374578 
L 1742.499023 66.374578 
z
" clip-path="url(#p111b35a346)" style="fill: #6495ed"/>
   </g>
   <g id="patch_237">
    <path d="M 1749.471365 29.763457 
L 1753.487435 29.763457 
L 1753.487435 59.052354 
L 1749.471365 59.052354 
z
" clip-path="url(#p111b35a346)" style="fill: #6495ed"/>
   </g>
   <g id="patch_238">
    <path d="M 1756.443708 29.763457 
L 1760.459778 29.763457 
L 1760.459778 37.085681 
L 1756.443708 37.085681 
z
" clip-path="url(#p111b35a346)" style="fill: #6495ed"/>
   </g>
   <g id="patch_239">
    <path d="M 1763.416051 29.763457 
L 1767.432121 29.763457 
L 1767.432121 29.763457 
L 1763.416051 29.763457 
z
" clip-path="url(#p111b35a346)" style="fill: #6495ed"/>
   </g>
   <g id="patch_240">
    <path d="M 1770.388394 29.763457 
L 1774.404464 29.763457 
L 1774.404464 37.085681 
L 1770.388394 37.085681 
z
" clip-path="url(#p111b35a346)" style="fill: #6495ed"/>
   </g>
   <g id="matplotlib.axis_3">
    <g id="ytick_11">
     <g id="line2d_33">
      <defs>
       <path id="me8cdc86d73" d="M 0 0 
L 3.5 0 
" style="stroke: #000000; stroke-width: 0.8"/>
      </defs>
      <g>
       <use xlink:href="#me8cdc86d73" x="1896.235" y="29.763457" style="stroke: #000000; stroke-width: 0.8"/>
      </g>
     </g>
     <g id="text_25">
      <!-- 0.0 -->
      <g transform="translate(1903.235 33.562676) scale(0.1 -0.1)">
       <use xlink:href="#DejaVuSans-30"/>
       <use xlink:href="#DejaVuSans-2e" transform="translate(63.623047 0)"/>
       <use xlink:href="#DejaVuSans-30" transform="translate(95.410156 0)"/>
      </g>
     </g>
    </g>
    <g id="ytick_12">
     <g id="line2d_34">
      <g>
       <use xlink:href="#me8cdc86d73" x="1896.235" y="65.798025" style="stroke: #000000; stroke-width: 0.8"/>
      </g>
     </g>
     <g id="text_26">
      <!-- 0.5 -->
      <g transform="translate(1903.235 69.597243) scale(0.1 -0.1)">
       <use xlink:href="#DejaVuSans-30"/>
       <use xlink:href="#DejaVuSans-2e" transform="translate(63.623047 0)"/>
       <use xlink:href="#DejaVuSans-35" transform="translate(95.410156 0)"/>
      </g>
     </g>
    </g>
    <g id="ytick_13">
     <g id="line2d_35">
      <g>
       <use xlink:href="#me8cdc86d73" x="1896.235" y="101.832593" style="stroke: #000000; stroke-width: 0.8"/>
      </g>
     </g>
     <g id="text_27">
      <!-- 1.0 -->
      <g transform="translate(1903.235 105.631811) scale(0.1 -0.1)">
       <use xlink:href="#DejaVuSans-31"/>
       <use xlink:href="#DejaVuSans-2e" transform="translate(63.623047 0)"/>
       <use xlink:href="#DejaVuSans-30" transform="translate(95.410156 0)"/>
      </g>
     </g>
    </g>
    <g id="ytick_14">
     <g id="line2d_36">
      <g>
       <use xlink:href="#me8cdc86d73" x="1896.235" y="137.86716" style="stroke: #000000; stroke-width: 0.8"/>
      </g>
     </g>
     <g id="text_28">
      <!-- 1.5 -->
      <g transform="translate(1903.235 141.666379) scale(0.1 -0.1)">
       <use xlink:href="#DejaVuSans-31"/>
       <use xlink:href="#DejaVuSans-2e" transform="translate(63.623047 0)"/>
       <use xlink:href="#DejaVuSans-35" transform="translate(95.410156 0)"/>
      </g>
     </g>
    </g>
    <g id="ytick_15">
     <g id="line2d_37">
      <g>
       <use xlink:href="#me8cdc86d73" x="1896.235" y="173.901728" style="stroke: #000000; stroke-width: 0.8"/>
      </g>
     </g>
     <g id="text_29">
      <!-- 2.0 -->
      <g transform="translate(1903.235 177.700947) scale(0.1 -0.1)">
       <use xlink:href="#DejaVuSans-32"/>
       <use xlink:href="#DejaVuSans-2e" transform="translate(63.623047 0)"/>
       <use xlink:href="#DejaVuSans-30" transform="translate(95.410156 0)"/>
      </g>
     </g>
    </g>
    <g id="ytick_16">
     <g id="line2d_38">
      <g>
       <use xlink:href="#me8cdc86d73" x="1896.235" y="209.936296" style="stroke: #000000; stroke-width: 0.8"/>
      </g>
     </g>
     <g id="text_30">
      <!-- 2.5 -->
      <g transform="translate(1903.235 213.735515) scale(0.1 -0.1)">
       <use xlink:href="#DejaVuSans-32"/>
       <use xlink:href="#DejaVuSans-2e" transform="translate(63.623047 0)"/>
       <use xlink:href="#DejaVuSans-35" transform="translate(95.410156 0)"/>
      </g>
     </g>
    </g>
    <g id="ytick_17">
     <g id="line2d_39">
      <g>
       <use xlink:href="#me8cdc86d73" x="1896.235" y="245.970864" style="stroke: #000000; stroke-width: 0.8"/>
      </g>
     </g>
     <g id="text_31">
      <!-- 3.0 -->
      <g transform="translate(1903.235 249.770083) scale(0.1 -0.1)">
       <use xlink:href="#DejaVuSans-33"/>
       <use xlink:href="#DejaVuSans-2e" transform="translate(63.623047 0)"/>
       <use xlink:href="#DejaVuSans-30" transform="translate(95.410156 0)"/>
      </g>
     </g>
    </g>
    <g id="ytick_18">
     <g id="line2d_40">
      <g>
       <use xlink:href="#me8cdc86d73" x="1896.235" y="282.005432" style="stroke: #000000; stroke-width: 0.8"/>
      </g>
     </g>
     <g id="text_32">
      <!-- 3.5 -->
      <g transform="translate(1903.235 285.804651) scale(0.1 -0.1)">
       <use xlink:href="#DejaVuSans-33"/>
       <use xlink:href="#DejaVuSans-2e" transform="translate(63.623047 0)"/>
       <use xlink:href="#DejaVuSans-35" transform="translate(95.410156 0)"/>
      </g>
     </g>
    </g>
    <g id="ytick_19">
     <g id="line2d_41">
      <g>
       <use xlink:href="#me8cdc86d73" x="1896.235" y="318.04" style="stroke: #000000; stroke-width: 0.8"/>
      </g>
     </g>
     <g id="text_33">
      <!-- 4.0 -->
      <g transform="translate(1903.235 321.839219) scale(0.1 -0.1)">
       <use xlink:href="#DejaVuSans-34"/>
       <use xlink:href="#DejaVuSans-2e" transform="translate(63.623047 0)"/>
       <use xlink:href="#DejaVuSans-30" transform="translate(95.410156 0)"/>
      </g>
     </g>
    </g>
    <g id="text_34">
     <!-- Precipitation (cm) -->
     <g style="fill: #6495ed" transform="translate(1930.736563 216.460156) rotate(-90) scale(0.1 -0.1)">
      <defs>
       <path id="DejaVuSans-50" d="M 1259 4147 
L 1259 2394 
L 2053 2394 
Q 2494 2394 2734 2622 
Q 2975 2850 2975 3272 
Q 2975 3691 2734 3919 
Q 2494 4147 2053 4147 
L 1259 4147 
z
M 628 4666 
L 2053 4666 
Q 2838 4666 3239 4311 
Q 3641 3956 3641 3272 
Q 3641 2581 3239 2228 
Q 2838 1875 2053 1875 
L 1259 1875 
L 1259 0 
L 628 0 
L 628 4666 
z
" transform="scale(0.015625)"/>
       <path id="DejaVuSans-63" d="M 3122 3366 
L 3122 2828 
Q 2878 2963 2633 3030 
Q 2388 3097 2138 3097 
Q 1578 3097 1268 2742 
Q 959 2388 959 1747 
Q 959 1106 1268 751 
Q 1578 397 2138 397 
Q 2388 397 2633 464 
Q 2878 531 3122 666 
L 3122 134 
Q 2881 22 2623 -34 
Q 2366 -91 2075 -91 
Q 1284 -91 818 406 
Q 353 903 353 1747 
Q 353 2603 823 3093 
Q 1294 3584 2113 3584 
Q 2378 3584 2631 3529 
Q 2884 3475 3122 3366 
z
" transform="scale(0.015625)"/>
      </defs>
      <use xlink:href="#DejaVuSans-50"/>
      <use xlink:href="#DejaVuSans-72" transform="translate(58.552734 0)"/>
      <use xlink:href="#DejaVuSans-65" transform="translate(97.416016 0)"/>
      <use xlink:href="#DejaVuSans-63" transform="translate(158.939453 0)"/>
      <use xlink:href="#DejaVuSans-69" transform="translate(213.919922 0)"/>
      <use xlink:href="#DejaVuSans-70" transform="translate(241.703125 0)"/>
      <use xlink:href="#DejaVuSans-69" transform="translate(305.179688 0)"/>
      <use xlink:href="#DejaVuSans-74" transform="translate(332.962891 0)"/>
      <use xlink:href="#DejaVuSans-61" transform="translate(372.171875 0)"/>
      <use xlink:href="#DejaVuSans-74" transform="translate(433.451172 0)"/>
      <use xlink:href="#DejaVuSans-69" transform="translate(472.660156 0)"/>
      <use xlink:href="#DejaVuSans-6f" transform="translate(500.443359 0)"/>
      <use xlink:href="#DejaVuSans-6e" transform="translate(561.625 0)"/>
      <use xlink:href="#DejaVuSans-20" transform="translate(625.003906 0)"/>
      <use xlink:href="#DejaVuSans-28" transform="translate(656.791016 0)"/>
      <use xlink:href="#DejaVuSans-63" transform="translate(695.804688 0)"/>
      <use xlink:href="#DejaVuSans-6d" transform="translate(750.785156 0)"/>
      <use xlink:href="#DejaVuSans-29" transform="translate(848.197266 0)"/>
     </g>
    </g>
   </g>
   <g id="patch_241">
    <path d="M 62.48 318.04 
L 62.48 26.16 
" style="fill: none; stroke: #000000; stroke-width: 0.8; stroke-linejoin: miter; stroke-linecap: square"/>
   </g>
   <g id="patch_242">
    <path d="M 1896.235 318.04 
L 1896.235 26.16 
" style="fill: none; stroke: #000000; stroke-width: 0.8; stroke-linejoin: miter; stroke-linecap: square"/>
   </g>
   <g id="patch_243">
    <path d="M 62.48 318.04 
L 1896.235 318.04 
" style="fill: none; stroke: #000000; stroke-width: 0.8; stroke-linejoin: miter; stroke-linecap: square"/>
   </g>
   <g id="patch_244">
    <path d="M 62.48 26.16 
L 1896.235 26.16 
" style="fill: none; stroke: #000000; stroke-width: 0.8; stroke-linejoin: miter; stroke-linecap: square"/>
   </g>
  </g>
 </g>
 <defs>
  <clipPath id="p111b35a346">
   <rect x="62.48" y="26.16" width="1833.755" height="291.88"/>
  </clipPath>
 </defs>
</svg>
