<?xml version="1.0" encoding="utf-8" standalone="no"?>
<!DOCTYPE svg PUBLIC "-//W3C//DTD SVG 1.1//EN"
  "http://www.w3.org/Graphics/SVG/1.1/DTD/svg11.dtd">
<svg xmlns:xlink="http://www.w3.org/1999/xlink" width="720pt" height="360pt" viewBox="0 0 720 360" xmlns="http://www.w3.org/2000/svg" version="1.1">
 <metadata>
  <rdf:RDF xmlns:dc="http://purl.org/dc/elements/1.1/" xmlns:cc="http://creativecommons.org/ns#" xmlns:rdf="http://www.w3.org/1999/02/22-rdf-syntax-ns#">
   <cc:Work>
    <dc:type rdf:resource="http://purl.org/dc/dcmitype/StillImage"/>
    <dc:date>2025-07-02T10:39:56.876035</dc:date>
    <dc:format>image/svg+xml</dc:format>
    <dc:creator>
     <cc:Agent>
      <dc:title>Matplotlib v3.10.0, https://matplotlib.org/</dc:title>
     </cc:Agent>
    </dc:creator>
   </cc:Work>
  </rdf:RDF>
 </metadata>
 <defs>
  <style type="text/css">*{stroke-linejoin: round; stroke-linecap: butt}</style>
 </defs>
 <g id="figure_1">
  <g id="patch_1">
   <path d="M 0 360 
L 720 360 
L 720 0 
L 0 0 
z
" style="fill: #ffffff"/>
  </g>
  <g id="axes_1">
   <g id="patch_2">
    <path d="M 46.595 332.12 
L 704.2275 332.12 
L 704.2275 26.16 
L 46.595 26.16 
z
" style="fill: #ffffff"/>
   </g>
   <g id="matplotlib.axis_1">
    <g id="xtick_1">
     <g id="line2d_1">
      <path d="M 46.595 332.12 
L 46.595 26.16 
" clip-path="url(#p5072f3a6e6)" style="fill: none; stroke: #b0b0b0; stroke-width: 0.8; stroke-linecap: square"/>
     </g>
     <g id="line2d_2">
      <defs>
       <path id="mb3b021a5b3" d="M 0 0 
L 0 3.5 
" style="stroke: #000000; stroke-width: 0.8"/>
      </defs>
      <g>
       <use xlink:href="#mb3b021a5b3" x="46.595" y="332.12" style="stroke: #000000; stroke-width: 0.8"/>
      </g>
     </g>
     <g id="text_1">
      <!-- BGN -->
      <g transform="translate(35.637188 346.718437) scale(0.1 -0.1)">
       <defs>
        <path id="DejaVuSans-42" d="M 1259 2228 
L 1259 519 
L 2272 519 
Q 2781 519 3026 730 
Q 3272 941 3272 1375 
Q 3272 1813 3026 2020 
Q 2781 2228 2272 2228 
L 1259 2228 
z
M 1259 4147 
L 1259 2741 
L 2194 2741 
Q 2656 2741 2882 2914 
Q 3109 3088 3109 3444 
Q 3109 3797 2882 3972 
Q 2656 4147 2194 4147 
L 1259 4147 
z
M 628 4666 
L 2241 4666 
Q 2963 4666 3353 4366 
Q 3744 4066 3744 3513 
Q 3744 3084 3544 2831 
Q 3344 2578 2956 2516 
Q 3422 2416 3680 2098 
Q 3938 1781 3938 1306 
Q 3938 681 3513 340 
Q 3088 0 2303 0 
L 628 0 
L 628 4666 
z
" transform="scale(0.015625)"/>
        <path id="DejaVuSans-47" d="M 3809 666 
L 3809 1919 
L 2778 1919 
L 2778 2438 
L 4434 2438 
L 4434 434 
Q 4069 175 3628 42 
Q 3188 -91 2688 -91 
Q 1594 -91 976 548 
Q 359 1188 359 2328 
Q 359 3472 976 4111 
Q 1594 4750 2688 4750 
Q 3144 4750 3555 4637 
Q 3966 4525 4313 4306 
L 4313 3634 
Q 3963 3931 3569 4081 
Q 3175 4231 2741 4231 
Q 1884 4231 1454 3753 
Q 1025 3275 1025 2328 
Q 1025 1384 1454 906 
Q 1884 428 2741 428 
Q 3075 428 3337 486 
Q 3600 544 3809 666 
z
" transform="scale(0.015625)"/>
        <path id="DejaVuSans-4e" d="M 628 4666 
L 1478 4666 
L 3547 763 
L 3547 4666 
L 4159 4666 
L 4159 0 
L 3309 0 
L 1241 3903 
L 1241 0 
L 628 0 
L 628 4666 
z
" transform="scale(0.015625)"/>
       </defs>
       <use xlink:href="#DejaVuSans-42"/>
       <use xlink:href="#DejaVuSans-47" transform="translate(66.853516 0)"/>
       <use xlink:href="#DejaVuSans-4e" transform="translate(144.34375 0)"/>
      </g>
     </g>
    </g>
    <g id="xtick_2">
     <g id="line2d_3">
      <path d="M 178.1215 332.12 
L 178.1215 26.16 
" clip-path="url(#p5072f3a6e6)" style="fill: none; stroke: #b0b0b0; stroke-width: 0.8; stroke-linecap: square"/>
     </g>
     <g id="line2d_4">
      <g>
       <use xlink:href="#mb3b021a5b3" x="178.1215" y="332.12" style="stroke: #000000; stroke-width: 0.8"/>
      </g>
     </g>
     <g id="text_2">
      <!-- BGNx3 -->
      <g transform="translate(161.023063 346.718437) scale(0.1 -0.1)">
       <defs>
        <path id="DejaVuSans-78" d="M 3513 3500 
L 2247 1797 
L 3578 0 
L 2900 0 
L 1881 1375 
L 863 0 
L 184 0 
L 1544 1831 
L 300 3500 
L 978 3500 
L 1906 2253 
L 2834 3500 
L 3513 3500 
z
" transform="scale(0.015625)"/>
        <path id="DejaVuSans-33" d="M 2597 2516 
Q 3050 2419 3304 2112 
Q 3559 1806 3559 1356 
Q 3559 666 3084 287 
Q 2609 -91 1734 -91 
Q 1441 -91 1130 -33 
Q 819 25 488 141 
L 488 750 
Q 750 597 1062 519 
Q 1375 441 1716 441 
Q 2309 441 2620 675 
Q 2931 909 2931 1356 
Q 2931 1769 2642 2001 
Q 2353 2234 1838 2234 
L 1294 2234 
L 1294 2753 
L 1863 2753 
Q 2328 2753 2575 2939 
Q 2822 3125 2822 3475 
Q 2822 3834 2567 4026 
Q 2313 4219 1838 4219 
Q 1578 4219 1281 4162 
Q 984 4106 628 3988 
L 628 4550 
Q 988 4650 1302 4700 
Q 1616 4750 1894 4750 
Q 2613 4750 3031 4423 
Q 3450 4097 3450 3541 
Q 3450 3153 3228 2886 
Q 3006 2619 2597 2516 
z
" transform="scale(0.015625)"/>
       </defs>
       <use xlink:href="#DejaVuSans-42"/>
       <use xlink:href="#DejaVuSans-47" transform="translate(66.853516 0)"/>
       <use xlink:href="#DejaVuSans-4e" transform="translate(144.34375 0)"/>
       <use xlink:href="#DejaVuSans-78" transform="translate(219.148438 0)"/>
       <use xlink:href="#DejaVuSans-33" transform="translate(278.328125 0)"/>
      </g>
     </g>
    </g>
    <g id="xtick_3">
     <g id="line2d_5">
      <path d="M 309.648 332.12 
L 309.648 26.16 
" clip-path="url(#p5072f3a6e6)" style="fill: none; stroke: #b0b0b0; stroke-width: 0.8; stroke-linecap: square"/>
     </g>
     <g id="line2d_6">
      <g>
       <use xlink:href="#mb3b021a5b3" x="309.648" y="332.12" style="stroke: #000000; stroke-width: 0.8"/>
      </g>
     </g>
     <g id="text_3">
      <!-- Base -->
      <g transform="translate(297.472219 346.718437) scale(0.1 -0.1)">
       <defs>
        <path id="DejaVuSans-61" d="M 2194 1759 
Q 1497 1759 1228 1600 
Q 959 1441 959 1056 
Q 959 750 1161 570 
Q 1363 391 1709 391 
Q 2188 391 2477 730 
Q 2766 1069 2766 1631 
L 2766 1759 
L 2194 1759 
z
M 3341 1997 
L 3341 0 
L 2766 0 
L 2766 531 
Q 2569 213 2275 61 
Q 1981 -91 1556 -91 
Q 1019 -91 701 211 
Q 384 513 384 1019 
Q 384 1609 779 1909 
Q 1175 2209 1959 2209 
L 2766 2209 
L 2766 2266 
Q 2766 2663 2505 2880 
Q 2244 3097 1772 3097 
Q 1472 3097 1187 3025 
Q 903 2953 641 2809 
L 641 3341 
Q 956 3463 1253 3523 
Q 1550 3584 1831 3584 
Q 2591 3584 2966 3190 
Q 3341 2797 3341 1997 
z
" transform="scale(0.015625)"/>
        <path id="DejaVuSans-73" d="M 2834 3397 
L 2834 2853 
Q 2591 2978 2328 3040 
Q 2066 3103 1784 3103 
Q 1356 3103 1142 2972 
Q 928 2841 928 2578 
Q 928 2378 1081 2264 
Q 1234 2150 1697 2047 
L 1894 2003 
Q 2506 1872 2764 1633 
Q 3022 1394 3022 966 
Q 3022 478 2636 193 
Q 2250 -91 1575 -91 
Q 1294 -91 989 -36 
Q 684 19 347 128 
L 347 722 
Q 666 556 975 473 
Q 1284 391 1588 391 
Q 1994 391 2212 530 
Q 2431 669 2431 922 
Q 2431 1156 2273 1281 
Q 2116 1406 1581 1522 
L 1381 1569 
Q 847 1681 609 1914 
Q 372 2147 372 2553 
Q 372 3047 722 3315 
Q 1072 3584 1716 3584 
Q 2034 3584 2315 3537 
Q 2597 3491 2834 3397 
z
" transform="scale(0.015625)"/>
        <path id="DejaVuSans-65" d="M 3597 1894 
L 3597 1613 
L 953 1613 
Q 991 1019 1311 708 
Q 1631 397 2203 397 
Q 2534 397 2845 478 
Q 3156 559 3463 722 
L 3463 178 
Q 3153 47 2828 -22 
Q 2503 -91 2169 -91 
Q 1331 -91 842 396 
Q 353 884 353 1716 
Q 353 2575 817 3079 
Q 1281 3584 2069 3584 
Q 2775 3584 3186 3129 
Q 3597 2675 3597 1894 
z
M 3022 2063 
Q 3016 2534 2758 2815 
Q 2500 3097 2075 3097 
Q 1594 3097 1305 2825 
Q 1016 2553 972 2059 
L 3022 2063 
z
" transform="scale(0.015625)"/>
       </defs>
       <use xlink:href="#DejaVuSans-42"/>
       <use xlink:href="#DejaVuSans-61" transform="translate(68.603516 0)"/>
       <use xlink:href="#DejaVuSans-73" transform="translate(129.882812 0)"/>
       <use xlink:href="#DejaVuSans-65" transform="translate(181.982422 0)"/>
      </g>
     </g>
    </g>
    <g id="xtick_4">
     <g id="line2d_7">
      <path d="M 441.1745 332.12 
L 441.1745 26.16 
" clip-path="url(#p5072f3a6e6)" style="fill: none; stroke: #b0b0b0; stroke-width: 0.8; stroke-linecap: square"/>
     </g>
     <g id="line2d_8">
      <g>
       <use xlink:href="#mb3b021a5b3" x="441.1745" y="332.12" style="stroke: #000000; stroke-width: 0.8"/>
      </g>
     </g>
     <g id="text_4">
      <!-- GM -->
      <g transform="translate(432.986219 346.718437) scale(0.1 -0.1)">
       <defs>
        <path id="DejaVuSans-4d" d="M 628 4666 
L 1569 4666 
L 2759 1491 
L 3956 4666 
L 4897 4666 
L 4897 0 
L 4281 0 
L 4281 4097 
L 3078 897 
L 2444 897 
L 1241 4097 
L 1241 0 
L 628 0 
L 628 4666 
z
" transform="scale(0.015625)"/>
       </defs>
       <use xlink:href="#DejaVuSans-47"/>
       <use xlink:href="#DejaVuSans-4d" transform="translate(77.490234 0)"/>
      </g>
     </g>
    </g>
    <g id="xtick_5">
     <g id="line2d_9">
      <path d="M 572.701 332.12 
L 572.701 26.16 
" clip-path="url(#p5072f3a6e6)" style="fill: none; stroke: #b0b0b0; stroke-width: 0.8; stroke-linecap: square"/>
     </g>
     <g id="line2d_10">
      <g>
       <use xlink:href="#mb3b021a5b3" x="572.701" y="332.12" style="stroke: #000000; stroke-width: 0.8"/>
      </g>
     </g>
     <g id="text_5">
      <!-- GM+IC -->
      <g transform="translate(555.356469 346.718437) scale(0.1 -0.1)">
       <defs>
        <path id="DejaVuSans-2b" d="M 2944 4013 
L 2944 2272 
L 4684 2272 
L 4684 1741 
L 2944 1741 
L 2944 0 
L 2419 0 
L 2419 1741 
L 678 1741 
L 678 2272 
L 2419 2272 
L 2419 4013 
L 2944 4013 
z
" transform="scale(0.015625)"/>
        <path id="DejaVuSans-49" d="M 628 4666 
L 1259 4666 
L 1259 0 
L 628 0 
L 628 4666 
z
" transform="scale(0.015625)"/>
        <path id="DejaVuSans-43" d="M 4122 4306 
L 4122 3641 
Q 3803 3938 3442 4084 
Q 3081 4231 2675 4231 
Q 1875 4231 1450 3742 
Q 1025 3253 1025 2328 
Q 1025 1406 1450 917 
Q 1875 428 2675 428 
Q 3081 428 3442 575 
Q 3803 722 4122 1019 
L 4122 359 
Q 3791 134 3420 21 
Q 3050 -91 2638 -91 
Q 1578 -91 968 557 
Q 359 1206 359 2328 
Q 359 3453 968 4101 
Q 1578 4750 2638 4750 
Q 3056 4750 3426 4639 
Q 3797 4528 4122 4306 
z
" transform="scale(0.015625)"/>
       </defs>
       <use xlink:href="#DejaVuSans-47"/>
       <use xlink:href="#DejaVuSans-4d" transform="translate(77.490234 0)"/>
       <use xlink:href="#DejaVuSans-2b" transform="translate(163.769531 0)"/>
       <use xlink:href="#DejaVuSans-49" transform="translate(247.558594 0)"/>
       <use xlink:href="#DejaVuSans-43" transform="translate(277.050781 0)"/>
      </g>
     </g>
    </g>
    <g id="xtick_6">
     <g id="line2d_11">
      <path d="M 704.2275 332.12 
L 704.2275 26.16 
" clip-path="url(#p5072f3a6e6)" style="fill: none; stroke: #b0b0b0; stroke-width: 0.8; stroke-linecap: square"/>
     </g>
     <g id="line2d_12">
      <g>
       <use xlink:href="#mb3b021a5b3" x="704.2275" y="332.12" style="stroke: #000000; stroke-width: 0.8"/>
      </g>
     </g>
     <g id="text_6">
      <!-- IC -->
      <g transform="translate(699.261094 346.718437) scale(0.1 -0.1)">
       <use xlink:href="#DejaVuSans-49"/>
       <use xlink:href="#DejaVuSans-43" transform="translate(29.492188 0)"/>
      </g>
     </g>
    </g>
   </g>
   <g id="matplotlib.axis_2">
    <g id="ytick_1">
     <g id="line2d_13">
      <defs>
       <path id="m1ed34127d7" d="M 0 0 
L -3.5 0 
" style="stroke: #000000; stroke-width: 0.8"/>
      </defs>
      <g>
       <use xlink:href="#m1ed34127d7" x="46.595" y="294.540789" style="stroke: #000000; stroke-width: 0.8"/>
      </g>
     </g>
     <g id="text_7">
      <!-- −4 -->
      <g transform="translate(24.852813 298.340008) scale(0.1 -0.1)">
       <defs>
        <path id="DejaVuSans-2212" d="M 678 2272 
L 4684 2272 
L 4684 1741 
L 678 1741 
L 678 2272 
z
" transform="scale(0.015625)"/>
        <path id="DejaVuSans-34" d="M 2419 4116 
L 825 1625 
L 2419 1625 
L 2419 4116 
z
M 2253 4666 
L 3047 4666 
L 3047 1625 
L 3713 1625 
L 3713 1100 
L 3047 1100 
L 3047 0 
L 2419 0 
L 2419 1100 
L 313 1100 
L 313 1709 
L 2253 4666 
z
" transform="scale(0.015625)"/>
       </defs>
       <use xlink:href="#DejaVuSans-2212"/>
       <use xlink:href="#DejaVuSans-34" transform="translate(83.789062 0)"/>
      </g>
     </g>
    </g>
    <g id="ytick_2">
     <g id="line2d_14">
      <g>
       <use xlink:href="#m1ed34127d7" x="46.595" y="250.404194" style="stroke: #000000; stroke-width: 0.8"/>
      </g>
     </g>
     <g id="text_8">
      <!-- −3 -->
      <g transform="translate(24.852813 254.203413) scale(0.1 -0.1)">
       <use xlink:href="#DejaVuSans-2212"/>
       <use xlink:href="#DejaVuSans-33" transform="translate(83.789062 0)"/>
      </g>
     </g>
    </g>
    <g id="ytick_3">
     <g id="line2d_15">
      <g>
       <use xlink:href="#m1ed34127d7" x="46.595" y="206.2676" style="stroke: #000000; stroke-width: 0.8"/>
      </g>
     </g>
     <g id="text_9">
      <!-- −2 -->
      <g transform="translate(24.852813 210.066818) scale(0.1 -0.1)">
       <defs>
        <path id="DejaVuSans-32" d="M 1228 531 
L 3431 531 
L 3431 0 
L 469 0 
L 469 531 
Q 828 903 1448 1529 
Q 2069 2156 2228 2338 
Q 2531 2678 2651 2914 
Q 2772 3150 2772 3378 
Q 2772 3750 2511 3984 
Q 2250 4219 1831 4219 
Q 1534 4219 1204 4116 
Q 875 4013 500 3803 
L 500 4441 
Q 881 4594 1212 4672 
Q 1544 4750 1819 4750 
Q 2544 4750 2975 4387 
Q 3406 4025 3406 3419 
Q 3406 3131 3298 2873 
Q 3191 2616 2906 2266 
Q 2828 2175 2409 1742 
Q 1991 1309 1228 531 
z
" transform="scale(0.015625)"/>
       </defs>
       <use xlink:href="#DejaVuSans-2212"/>
       <use xlink:href="#DejaVuSans-32" transform="translate(83.789062 0)"/>
      </g>
     </g>
    </g>
    <g id="ytick_4">
     <g id="line2d_16">
      <g>
       <use xlink:href="#m1ed34127d7" x="46.595" y="162.131005" style="stroke: #000000; stroke-width: 0.8"/>
      </g>
     </g>
     <g id="text_10">
      <!-- −1 -->
      <g transform="translate(24.852813 165.930224) scale(0.1 -0.1)">
       <defs>
        <path id="DejaVuSans-31" d="M 794 531 
L 1825 531 
L 1825 4091 
L 703 3866 
L 703 4441 
L 1819 4666 
L 2450 4666 
L 2450 531 
L 3481 531 
L 3481 0 
L 794 0 
L 794 531 
z
" transform="scale(0.015625)"/>
       </defs>
       <use xlink:href="#DejaVuSans-2212"/>
       <use xlink:href="#DejaVuSans-31" transform="translate(83.789062 0)"/>
      </g>
     </g>
    </g>
    <g id="ytick_5">
     <g id="line2d_17">
      <g>
       <use xlink:href="#m1ed34127d7" x="46.595" y="117.99441" style="stroke: #000000; stroke-width: 0.8"/>
      </g>
     </g>
     <g id="text_11">
      <!-- 0 -->
      <g transform="translate(33.2325 121.793629) scale(0.1 -0.1)">
       <defs>
        <path id="DejaVuSans-30" d="M 2034 4250 
Q 1547 4250 1301 3770 
Q 1056 3291 1056 2328 
Q 1056 1369 1301 889 
Q 1547 409 2034 409 
Q 2525 409 2770 889 
Q 3016 1369 3016 2328 
Q 3016 3291 2770 3770 
Q 2525 4250 2034 4250 
z
M 2034 4750 
Q 2819 4750 3233 4129 
Q 3647 3509 3647 2328 
Q 3647 1150 3233 529 
Q 2819 -91 2034 -91 
Q 1250 -91 836 529 
Q 422 1150 422 2328 
Q 422 3509 836 4129 
Q 1250 4750 2034 4750 
z
" transform="scale(0.015625)"/>
       </defs>
       <use xlink:href="#DejaVuSans-30"/>
      </g>
     </g>
    </g>
    <g id="ytick_6">
     <g id="line2d_18">
      <g>
       <use xlink:href="#m1ed34127d7" x="46.595" y="73.857815" style="stroke: #000000; stroke-width: 0.8"/>
      </g>
     </g>
     <g id="text_12">
      <!-- 1 -->
      <g transform="translate(33.2325 77.657034) scale(0.1 -0.1)">
       <use xlink:href="#DejaVuSans-31"/>
      </g>
     </g>
    </g>
    <g id="ytick_7">
     <g id="line2d_19">
      <g>
       <use xlink:href="#m1ed34127d7" x="46.595" y="29.72122" style="stroke: #000000; stroke-width: 0.8"/>
      </g>
     </g>
     <g id="text_13">
      <!-- 2 -->
      <g transform="translate(33.2325 33.520439) scale(0.1 -0.1)">
       <use xlink:href="#DejaVuSans-32"/>
      </g>
     </g>
    </g>
    <g id="text_14">
     <!-- Flowrate (cfs) -->
     <g transform="translate(18.773125 213.314219) rotate(-90) scale(0.1 -0.1)">
      <defs>
       <path id="DejaVuSans-46" d="M 628 4666 
L 3309 4666 
L 3309 4134 
L 1259 4134 
L 1259 2759 
L 3109 2759 
L 3109 2228 
L 1259 2228 
L 1259 0 
L 628 0 
L 628 4666 
z
" transform="scale(0.015625)"/>
       <path id="DejaVuSans-6c" d="M 603 4863 
L 1178 4863 
L 1178 0 
L 603 0 
L 603 4863 
z
" transform="scale(0.015625)"/>
       <path id="DejaVuSans-6f" d="M 1959 3097 
Q 1497 3097 1228 2736 
Q 959 2375 959 1747 
Q 959 1119 1226 758 
Q 1494 397 1959 397 
Q 2419 397 2687 759 
Q 2956 1122 2956 1747 
Q 2956 2369 2687 2733 
Q 2419 3097 1959 3097 
z
M 1959 3584 
Q 2709 3584 3137 3096 
Q 3566 2609 3566 1747 
Q 3566 888 3137 398 
Q 2709 -91 1959 -91 
Q 1206 -91 779 398 
Q 353 888 353 1747 
Q 353 2609 779 3096 
Q 1206 3584 1959 3584 
z
" transform="scale(0.015625)"/>
       <path id="DejaVuSans-77" d="M 269 3500 
L 844 3500 
L 1563 769 
L 2278 3500 
L 2956 3500 
L 3675 769 
L 4391 3500 
L 4966 3500 
L 4050 0 
L 3372 0 
L 2619 2869 
L 1863 0 
L 1184 0 
L 269 3500 
z
" transform="scale(0.015625)"/>
       <path id="DejaVuSans-72" d="M 2631 2963 
Q 2534 3019 2420 3045 
Q 2306 3072 2169 3072 
Q 1681 3072 1420 2755 
Q 1159 2438 1159 1844 
L 1159 0 
L 581 0 
L 581 3500 
L 1159 3500 
L 1159 2956 
Q 1341 3275 1631 3429 
Q 1922 3584 2338 3584 
Q 2397 3584 2469 3576 
Q 2541 3569 2628 3553 
L 2631 2963 
z
" transform="scale(0.015625)"/>
       <path id="DejaVuSans-74" d="M 1172 4494 
L 1172 3500 
L 2356 3500 
L 2356 3053 
L 1172 3053 
L 1172 1153 
Q 1172 725 1289 603 
Q 1406 481 1766 481 
L 2356 481 
L 2356 0 
L 1766 0 
Q 1100 0 847 248 
Q 594 497 594 1153 
L 594 3053 
L 172 3053 
L 172 3500 
L 594 3500 
L 594 4494 
L 1172 4494 
z
" transform="scale(0.015625)"/>
       <path id="DejaVuSans-20" transform="scale(0.015625)"/>
       <path id="DejaVuSans-28" d="M 1984 4856 
Q 1566 4138 1362 3434 
Q 1159 2731 1159 2009 
Q 1159 1288 1364 580 
Q 1569 -128 1984 -844 
L 1484 -844 
Q 1016 -109 783 600 
Q 550 1309 550 2009 
Q 550 2706 781 3412 
Q 1013 4119 1484 4856 
L 1984 4856 
z
" transform="scale(0.015625)"/>
       <path id="DejaVuSans-63" d="M 3122 3366 
L 3122 2828 
Q 2878 2963 2633 3030 
Q 2388 3097 2138 3097 
Q 1578 3097 1268 2742 
Q 959 2388 959 1747 
Q 959 1106 1268 751 
Q 1578 397 2138 397 
Q 2388 397 2633 464 
Q 2878 531 3122 666 
L 3122 134 
Q 2881 22 2623 -34 
Q 2366 -91 2075 -91 
Q 1284 -91 818 406 
Q 353 903 353 1747 
Q 353 2603 823 3093 
Q 1294 3584 2113 3584 
Q 2378 3584 2631 3529 
Q 2884 3475 3122 3366 
z
" transform="scale(0.015625)"/>
       <path id="DejaVuSans-66" d="M 2375 4863 
L 2375 4384 
L 1825 4384 
Q 1516 4384 1395 4259 
Q 1275 4134 1275 3809 
L 1275 3500 
L 2222 3500 
L 2222 3053 
L 1275 3053 
L 1275 0 
L 697 0 
L 697 3053 
L 147 3053 
L 147 3500 
L 697 3500 
L 697 3744 
Q 697 4328 969 4595 
Q 1241 4863 1831 4863 
L 2375 4863 
z
" transform="scale(0.015625)"/>
       <path id="DejaVuSans-29" d="M 513 4856 
L 1013 4856 
Q 1481 4119 1714 3412 
Q 1947 2706 1947 2009 
Q 1947 1309 1714 600 
Q 1481 -109 1013 -844 
L 513 -844 
Q 928 -128 1133 580 
Q 1338 1288 1338 2009 
Q 1338 2731 1133 3434 
Q 928 4138 513 4856 
z
" transform="scale(0.015625)"/>
      </defs>
      <use xlink:href="#DejaVuSans-46"/>
      <use xlink:href="#DejaVuSans-6c" transform="translate(57.519531 0)"/>
      <use xlink:href="#DejaVuSans-6f" transform="translate(85.302734 0)"/>
      <use xlink:href="#DejaVuSans-77" transform="translate(146.484375 0)"/>
      <use xlink:href="#DejaVuSans-72" transform="translate(228.271484 0)"/>
      <use xlink:href="#DejaVuSans-61" transform="translate(269.384766 0)"/>
      <use xlink:href="#DejaVuSans-74" transform="translate(330.664062 0)"/>
      <use xlink:href="#DejaVuSans-65" transform="translate(369.873047 0)"/>
      <use xlink:href="#DejaVuSans-20" transform="translate(431.396484 0)"/>
      <use xlink:href="#DejaVuSans-28" transform="translate(463.183594 0)"/>
      <use xlink:href="#DejaVuSans-63" transform="translate(502.197266 0)"/>
      <use xlink:href="#DejaVuSans-66" transform="translate(557.177734 0)"/>
      <use xlink:href="#DejaVuSans-73" transform="translate(592.382812 0)"/>
      <use xlink:href="#DejaVuSans-29" transform="translate(644.482422 0)"/>
     </g>
    </g>
   </g>
   <g id="line2d_20">
    <path d="M 46.595 121.047928 
L 178.1215 146.610536 
L 309.648 117.99441 
L 441.1745 166.853176 
L 572.701 318.212727 
L 704.2275 286.614963 
" clip-path="url(#p5072f3a6e6)" style="fill: none; stroke: #f7fbff; stroke-width: 1.5; stroke-linecap: square"/>
   </g>
   <g id="line2d_21">
    <path d="M 46.595 118.025828 
L 178.1215 118.000343 
L 309.648 117.99441 
L 441.1745 119.245661 
L 572.701 119.242244 
L 704.2275 118.026703 
" clip-path="url(#p5072f3a6e6)" style="fill: none; stroke: #f5fafe; stroke-width: 1.5; stroke-linecap: square"/>
   </g>
   <g id="line2d_22">
    <path d="M 46.595 118.000135 
L 178.1215 117.999113 
L 309.648 117.99441 
L 441.1745 119.206476 
L 572.701 118.646587 
L 704.2275 117.416745 
" clip-path="url(#p5072f3a6e6)" style="fill: none; stroke: #f4f9fe; stroke-width: 1.5; stroke-linecap: square"/>
   </g>
   <g id="line2d_23">
    <path d="M 46.595 118.000296 
L 178.1215 118.000025 
L 309.648 117.99441 
L 441.1745 123.01549 
L 572.701 122.971427 
L 704.2275 117.940849 
" clip-path="url(#p5072f3a6e6)" style="fill: none; stroke: #f2f8fd; stroke-width: 1.5; stroke-linecap: square"/>
   </g>
   <g id="line2d_24">
    <path d="M 46.595 117.994593 
L 178.1215 117.994429 
L 309.648 117.99441 
L 441.1745 122.363736 
L 572.701 147.179131 
L 704.2275 143.091057 
" clip-path="url(#p5072f3a6e6)" style="fill: none; stroke: #f1f7fd; stroke-width: 1.5; stroke-linecap: square"/>
   </g>
   <g id="line2d_25">
    <path d="M 46.595 118.048578 
L 178.1215 118.207396 
L 309.648 117.99441 
L 441.1745 120.652228 
L 572.701 148.337738 
L 704.2275 146.353503 
" clip-path="url(#p5072f3a6e6)" style="fill: none; stroke: #eff6fc; stroke-width: 1.5; stroke-linecap: square"/>
   </g>
   <g id="line2d_26">
    <path d="M 46.595 117.994588 
L 178.1215 117.994544 
L 309.648 117.99441 
L 441.1745 121.452988 
L 572.701 151.721919 
L 704.2275 148.5243 
" clip-path="url(#p5072f3a6e6)" style="fill: none; stroke: #eef5fc; stroke-width: 1.5; stroke-linecap: square"/>
   </g>
   <g id="line2d_27">
    <path d="M 46.595 117.994599 
L 178.1215 117.994476 
L 309.648 117.99441 
L 441.1745 122.314753 
L 572.701 150.224536 
L 704.2275 146.284221 
" clip-path="url(#p5072f3a6e6)" style="fill: none; stroke: #ecf4fb; stroke-width: 1.5; stroke-linecap: square"/>
   </g>
   <g id="line2d_28">
    <path d="M 46.595 117.994121 
L 178.1215 117.994692 
L 309.648 117.99441 
L 441.1745 119.939502 
L 572.701 119.847667 
L 704.2275 117.989988 
" clip-path="url(#p5072f3a6e6)" style="fill: none; stroke: #eaf3fb; stroke-width: 1.5; stroke-linecap: square"/>
   </g>
   <g id="line2d_29">
    <path d="M 46.595 117.998086 
L 178.1215 117.995104 
L 309.648 117.99441 
L 441.1745 118.742775 
L 572.701 118.742419 
L 704.2275 117.998189 
" clip-path="url(#p5072f3a6e6)" style="fill: none; stroke: #e9f2fa; stroke-width: 1.5; stroke-linecap: square"/>
   </g>
   <g id="line2d_30">
    <path d="M 46.595 118.029034 
L 178.1215 118.000949 
L 309.648 117.99441 
L 441.1745 119.073568 
L 572.701 119.069763 
L 704.2275 118.029999 
" clip-path="url(#p5072f3a6e6)" style="fill: none; stroke: #e7f1fa; stroke-width: 1.5; stroke-linecap: square"/>
   </g>
   <g id="line2d_31">
    <path d="M 46.595 117.991843 
L 178.1215 117.996919 
L 309.648 117.99441 
L 441.1745 119.577487 
L 572.701 119.56849 
L 704.2275 117.976781 
" clip-path="url(#p5072f3a6e6)" style="fill: none; stroke: #e6f0f9; stroke-width: 1.5; stroke-linecap: square"/>
   </g>
   <g id="line2d_32">
    <path d="M 46.595 117.989433 
L 178.1215 117.999274 
L 309.648 117.99441 
L 441.1745 119.666512 
L 572.701 119.67604 
L 704.2275 117.989433 
" clip-path="url(#p5072f3a6e6)" style="fill: none; stroke: #e4eff9; stroke-width: 1.5; stroke-linecap: square"/>
   </g>
   <g id="line2d_33">
    <path d="M 46.595 117.994123 
L 178.1215 117.99469 
L 309.648 117.99441 
L 441.1745 118.727888 
L 572.701 118.733668 
L 704.2275 117.994123 
" clip-path="url(#p5072f3a6e6)" style="fill: none; stroke: #e3eef8; stroke-width: 1.5; stroke-linecap: square"/>
   </g>
   <g id="line2d_34">
    <path d="M 46.595 118.000084 
L 178.1215 117.995482 
L 309.648 117.99441 
L 441.1745 119.009648 
L 572.701 119.009091 
L 704.2275 118.000243 
" clip-path="url(#p5072f3a6e6)" style="fill: none; stroke: #e1edf8; stroke-width: 1.5; stroke-linecap: square"/>
   </g>
   <g id="line2d_35">
    <path d="M 46.595 118.030885 
L 178.1215 118.001299 
L 309.648 117.99441 
L 441.1745 119.12275 
L 572.701 119.118748 
L 704.2275 118.031902 
" clip-path="url(#p5072f3a6e6)" style="fill: none; stroke: #dfecf7; stroke-width: 1.5; stroke-linecap: square"/>
   </g>
   <g id="line2d_36">
    <path d="M 46.595 117.993701 
L 178.1215 117.995101 
L 309.648 117.99441 
L 441.1745 121.349523 
L 572.701 123.291711 
L 704.2275 119.957765 
" clip-path="url(#p5072f3a6e6)" style="fill: none; stroke: #deebf7; stroke-width: 1.5; stroke-linecap: square"/>
   </g>
   <g id="line2d_37">
    <path d="M 46.595 117.993113 
L 178.1215 117.995679 
L 309.648 117.99441 
L 441.1745 119.197018 
L 572.701 119.190993 
L 704.2275 117.983116 
" clip-path="url(#p5072f3a6e6)" style="fill: none; stroke: #dceaf6; stroke-width: 1.5; stroke-linecap: square"/>
   </g>
   <g id="line2d_38">
    <path d="M 46.595 117.986561 
L 178.1215 118.002082 
L 309.648 117.99441 
L 441.1745 118.828285 
L 572.701 118.844693 
L 704.2275 117.986561 
" clip-path="url(#p5072f3a6e6)" style="fill: none; stroke: #dbe9f6; stroke-width: 1.5; stroke-linecap: square"/>
   </g>
   <g id="line2d_39">
    <path d="M 46.595 117.99197 
L 178.1215 117.996795 
L 309.648 117.99441 
L 441.1745 119.589453 
L 572.701 119.589646 
L 704.2275 117.99197 
" clip-path="url(#p5072f3a6e6)" style="fill: none; stroke: #d9e8f5; stroke-width: 1.5; stroke-linecap: square"/>
   </g>
   <g id="line2d_40">
    <path d="M 46.595 117.983006 
L 178.1215 118.005556 
L 309.648 117.99441 
L 441.1745 121.27536 
L 572.701 121.297407 
L 704.2275 117.983006 
" clip-path="url(#p5072f3a6e6)" style="fill: none; stroke: #d8e7f5; stroke-width: 1.5; stroke-linecap: square"/>
   </g>
   <g id="line2d_41">
    <path d="M 46.595 117.99992 
L 178.1215 143.223655 
L 309.648 117.99441 
L 441.1745 147.198336 
L 572.701 170.674194 
L 704.2275 144.852239 
" clip-path="url(#p5072f3a6e6)" style="fill: none; stroke: #d6e6f4; stroke-width: 1.5; stroke-linecap: square"/>
   </g>
   <g id="line2d_42">
    <path d="M 46.595 117.992981 
L 178.1215 117.995809 
L 309.648 117.99441 
L 441.1745 120.387082 
L 572.701 120.388497 
L 704.2275 117.993352 
" clip-path="url(#p5072f3a6e6)" style="fill: none; stroke: #d5e5f4; stroke-width: 1.5; stroke-linecap: square"/>
   </g>
   <g id="line2d_43">
    <path d="M 46.595 117.99441 
L 178.1215 117.99441 
L 309.648 117.99441 
L 441.1745 117.99441 
L 572.701 117.989644 
L 704.2275 117.990582 
" clip-path="url(#p5072f3a6e6)" style="fill: none; stroke: #d3e4f3; stroke-width: 1.5; stroke-linecap: square"/>
   </g>
   <g id="line2d_44">
    <path d="M 46.595 117.99437 
L 178.1215 117.994405 
L 309.648 117.99441 
L 441.1745 117.994221 
L 572.701 117.991461 
L 704.2275 117.993679 
" clip-path="url(#p5072f3a6e6)" style="fill: none; stroke: #d2e3f3; stroke-width: 1.5; stroke-linecap: square"/>
   </g>
   <g id="line2d_45">
    <path d="M 46.595 117.987743 
L 178.1215 118.000926 
L 309.648 117.99441 
L 441.1745 120.217556 
L 572.701 120.230306 
L 704.2275 117.987743 
" clip-path="url(#p5072f3a6e6)" style="fill: none; stroke: #d0e2f2; stroke-width: 1.5; stroke-linecap: square"/>
   </g>
   <g id="line2d_46">
    <path d="M 46.595 117.995797 
L 178.1215 117.994672 
L 309.648 117.99441 
L 441.1745 118.789751 
L 572.701 118.789649 
L 704.2275 117.995835 
" clip-path="url(#p5072f3a6e6)" style="fill: none; stroke: #cfe1f2; stroke-width: 1.5; stroke-linecap: square"/>
   </g>
   <g id="line2d_47">
    <path d="M 46.595 118.014416 
L 178.1215 117.998294 
L 309.648 117.99441 
L 441.1745 119.349174 
L 572.701 119.344845 
L 704.2275 118.012096 
" clip-path="url(#p5072f3a6e6)" style="fill: none; stroke: #cde0f1; stroke-width: 1.5; stroke-linecap: square"/>
   </g>
   <g id="line2d_48">
    <path d="M 46.595 117.99279 
L 178.1215 117.995984 
L 309.648 117.99441 
L 441.1745 120.023813 
L 572.701 123.312911 
L 704.2275 121.353388 
" clip-path="url(#p5072f3a6e6)" style="fill: none; stroke: #ccdff1; stroke-width: 1.5; stroke-linecap: square"/>
   </g>
   <g id="line2d_49">
    <path d="M 46.595 130.248062 
L 178.1215 137.0863 
L 309.648 117.99441 
L 441.1745 157.791591 
L 572.701 235.990522 
L 704.2275 204.000981 
" clip-path="url(#p5072f3a6e6)" style="fill: none; stroke: #cadef0; stroke-width: 1.5; stroke-linecap: square"/>
   </g>
   <g id="line2d_50">
    <path d="M 46.595 119.757804 
L 178.1215 118.008069 
L 309.648 117.99441 
L 441.1745 123.455583 
L 572.701 129.491201 
L 704.2275 124.183815 
" clip-path="url(#p5072f3a6e6)" style="fill: none; stroke: #c9ddf0; stroke-width: 1.5; stroke-linecap: square"/>
   </g>
   <g id="line2d_51">
    <path d="M 46.595 119.762805 
L 178.1215 118.002093 
L 309.648 117.99441 
L 441.1745 121.880656 
L 572.701 128.575764 
L 704.2275 124.932689 
" clip-path="url(#p5072f3a6e6)" style="fill: none; stroke: #c7dcef; stroke-width: 1.5; stroke-linecap: square"/>
   </g>
   <g id="line2d_52">
    <path d="M 46.595 117.98362 
L 178.1215 118.004956 
L 309.648 117.99441 
L 441.1745 119.257122 
L 572.701 119.279514 
L 704.2275 117.98362 
" clip-path="url(#p5072f3a6e6)" style="fill: none; stroke: #c4daee; stroke-width: 1.5; stroke-linecap: square"/>
   </g>
   <g id="line2d_53">
    <path d="M 46.595 117.990444 
L 178.1215 117.998287 
L 309.648 117.99441 
L 441.1745 119.018379 
L 572.701 119.026269 
L 704.2275 117.990444 
" clip-path="url(#p5072f3a6e6)" style="fill: none; stroke: #c2d9ee; stroke-width: 1.5; stroke-linecap: square"/>
   </g>
   <g id="line2d_54">
    <path d="M 46.595 133.963184 
L 178.1215 117.993707 
L 309.648 117.99441 
L 441.1745 140.025298 
L 572.701 190.442383 
L 704.2275 169.892846 
" clip-path="url(#p5072f3a6e6)" style="fill: none; stroke: #bfd8ed; stroke-width: 1.5; stroke-linecap: square"/>
   </g>
   <g id="line2d_55">
    <path d="M 46.595 117.99084 
L 178.1215 117.998031 
L 309.648 117.99441 
L 441.1745 118.970859 
L 572.701 115.66846 
L 704.2275 114.535867 
" clip-path="url(#p5072f3a6e6)" style="fill: none; stroke: #bdd7ec; stroke-width: 1.5; stroke-linecap: square"/>
   </g>
   <g id="line2d_56">
    <path d="M 46.595 133.043651 
L 178.1215 118.030416 
L 309.648 117.99441 
L 441.1745 138.252067 
L 572.701 189.281997 
L 704.2275 170.155592 
" clip-path="url(#p5072f3a6e6)" style="fill: none; stroke: #bad6eb; stroke-width: 1.5; stroke-linecap: square"/>
   </g>
   <g id="line2d_57">
    <path d="M 46.595 117.981871 
L 178.1215 118.006665 
L 309.648 117.99441 
L 441.1745 120.333317 
L 572.701 120.358237 
L 704.2275 117.981871 
" clip-path="url(#p5072f3a6e6)" style="fill: none; stroke: #b8d5ea; stroke-width: 1.5; stroke-linecap: square"/>
   </g>
   <g id="line2d_58">
    <path d="M 46.595 133.438913 
L 178.1215 117.997395 
L 309.648 117.99441 
L 441.1745 141.667449 
L 572.701 200.048706 
L 704.2275 178.966588 
" clip-path="url(#p5072f3a6e6)" style="fill: none; stroke: #b5d4e9; stroke-width: 1.5; stroke-linecap: square"/>
   </g>
   <g id="line2d_59">
    <path d="M 46.595 129.5956 
L 178.1215 134.812474 
L 309.648 117.99441 
L 441.1745 153.303326 
L 572.701 216.805434 
L 704.2275 203.862087 
" clip-path="url(#p5072f3a6e6)" style="fill: none; stroke: #b3d3e8; stroke-width: 1.5; stroke-linecap: square"/>
   </g>
   <g id="line2d_60">
    <path d="M 46.595 117.987333 
L 178.1215 118.001333 
L 309.648 117.99441 
L 441.1745 121.725607 
L 572.701 121.706482 
L 704.2275 117.952232 
" clip-path="url(#p5072f3a6e6)" style="fill: none; stroke: #b0d2e7; stroke-width: 1.5; stroke-linecap: square"/>
   </g>
   <g id="line2d_61">
    <path d="M 46.595 117.991557 
L 178.1215 117.997199 
L 309.648 117.99441 
L 441.1745 120.427135 
L 572.701 120.431973 
L 704.2275 117.991557 
" clip-path="url(#p5072f3a6e6)" style="fill: none; stroke: #aed1e7; stroke-width: 1.5; stroke-linecap: square"/>
   </g>
   <g id="line2d_62">
    <path d="M 46.595 126.888108 
L 178.1215 134.098361 
L 309.648 117.99441 
L 441.1745 151.948163 
L 572.701 216.04413 
L 704.2275 199.501964 
" clip-path="url(#p5072f3a6e6)" style="fill: none; stroke: #abd0e6; stroke-width: 1.5; stroke-linecap: square"/>
   </g>
   <g id="line2d_63">
    <path d="M 46.595 128.953501 
L 178.1215 135.528113 
L 309.648 117.99441 
L 441.1745 154.181272 
L 572.701 231.23807 
L 704.2275 201.892614 
" clip-path="url(#p5072f3a6e6)" style="fill: none; stroke: #a9cfe5; stroke-width: 1.5; stroke-linecap: square"/>
   </g>
   <g id="line2d_64">
    <path d="M 46.595 125.10545 
L 178.1215 129.501432 
L 309.648 117.99441 
L 441.1745 142.611501 
L 572.701 82.309451 
L 704.2275 51.19304 
" clip-path="url(#p5072f3a6e6)" style="fill: none; stroke: #a6cee4; stroke-width: 1.5; stroke-linecap: square"/>
   </g>
   <g id="line2d_65">
    <path d="M 46.595 117.994435 
L 178.1215 117.994414 
L 309.648 117.99441 
L 441.1745 121.221238 
L 572.701 118.348278 
L 704.2275 115.104062 
" clip-path="url(#p5072f3a6e6)" style="fill: none; stroke: #a4cce3; stroke-width: 1.5; stroke-linecap: square"/>
   </g>
   <g id="line2d_66">
    <path d="M 46.595 121.834644 
L 178.1215 118.010451 
L 309.648 117.99441 
L 441.1745 124.449108 
L 572.701 124.480013 
L 704.2275 117.977998 
" clip-path="url(#p5072f3a6e6)" style="fill: none; stroke: #a1cbe2; stroke-width: 1.5; stroke-linecap: square"/>
   </g>
   <g id="line2d_67">
    <path d="M 46.595 128.257179 
L 178.1215 132.040204 
L 309.648 117.99441 
L 441.1745 150.432579 
L 572.701 112.400797 
L 704.2275 75.914072 
" clip-path="url(#p5072f3a6e6)" style="fill: none; stroke: #9fcae1; stroke-width: 1.5; stroke-linecap: square"/>
   </g>
   <g id="line2d_68">
    <path d="M 46.595 117.98761 
L 178.1215 118.001056 
L 309.648 117.99441 
L 441.1745 119.711462 
L 572.701 119.724531 
L 704.2275 117.98761 
" clip-path="url(#p5072f3a6e6)" style="fill: none; stroke: #9cc9e1; stroke-width: 1.5; stroke-linecap: square"/>
   </g>
   <g id="line2d_69">
    <path d="M 46.595 117.983453 
L 178.1215 118.005119 
L 309.648 117.99441 
L 441.1745 119.734814 
L 572.701 119.757043 
L 704.2275 117.983453 
" clip-path="url(#p5072f3a6e6)" style="fill: none; stroke: #99c7e0; stroke-width: 1.5; stroke-linecap: square"/>
   </g>
   <g id="line2d_70">
    <path d="M 46.595 124.122313 
L 178.1215 141.508727 
L 309.648 117.99441 
L 441.1745 155.332937 
L 572.701 198.221394 
L 704.2275 183.983365 
" clip-path="url(#p5072f3a6e6)" style="fill: none; stroke: #95c5df; stroke-width: 1.5; stroke-linecap: square"/>
   </g>
   <g id="line2d_71">
    <path d="M 46.595 126.010985 
L 178.1215 129.454993 
L 309.648 117.99441 
L 441.1745 146.271066 
L 572.701 197.272963 
L 704.2275 167.929644 
" clip-path="url(#p5072f3a6e6)" style="fill: none; stroke: #92c4de; stroke-width: 1.5; stroke-linecap: square"/>
   </g>
   <g id="line2d_72">
    <path d="M 46.595 117.994503 
L 178.1215 117.994362 
L 309.648 117.99441 
L 441.1745 119.665404 
L 572.701 119.677866 
L 704.2275 118.007409 
" clip-path="url(#p5072f3a6e6)" style="fill: none; stroke: #8fc2de; stroke-width: 1.5; stroke-linecap: square"/>
   </g>
   <g id="line2d_73">
    <path d="M 46.595 117.995992 
L 178.1215 117.994709 
L 309.648 117.99441 
L 441.1745 119.006051 
L 572.701 119.005921 
L 704.2275 117.996037 
" clip-path="url(#p5072f3a6e6)" style="fill: none; stroke: #8cc0dd; stroke-width: 1.5; stroke-linecap: square"/>
   </g>
   <g id="line2d_74">
    <path d="M 46.595 117.987108 
L 178.1215 118.001546 
L 309.648 117.99441 
L 441.1745 119.044275 
L 572.701 119.059093 
L 704.2275 117.987108 
" clip-path="url(#p5072f3a6e6)" style="fill: none; stroke: #89bedc; stroke-width: 1.5; stroke-linecap: square"/>
   </g>
   <g id="line2d_75">
    <path d="M 46.595 117.994562 
L 178.1215 117.994526 
L 309.648 117.99441 
L 441.1745 120.879558 
L 572.701 127.190626 
L 704.2275 124.423835 
" clip-path="url(#p5072f3a6e6)" style="fill: none; stroke: #85bcdc; stroke-width: 1.5; stroke-linecap: square"/>
   </g>
   <g id="line2d_76">
    <path d="M 46.595 117.994712 
L 178.1215 117.994627 
L 309.648 117.99441 
L 441.1745 123.159073 
L 572.701 129.20377 
L 704.2275 124.148011 
" clip-path="url(#p5072f3a6e6)" style="fill: none; stroke: #82bbdb; stroke-width: 1.5; stroke-linecap: square"/>
   </g>
   <g id="line2d_77">
    <path d="M 46.595 117.990498 
L 178.1215 117.998233 
L 309.648 117.99441 
L 441.1745 119.716234 
L 572.701 119.723502 
L 704.2275 117.990498 
" clip-path="url(#p5072f3a6e6)" style="fill: none; stroke: #7fb9da; stroke-width: 1.5; stroke-linecap: square"/>
   </g>
   <g id="line2d_78">
    <path d="M 46.595 117.973555 
L 178.1215 118.014793 
L 309.648 117.99441 
L 441.1745 120.097771 
L 572.701 120.140668 
L 704.2275 117.973555 
" clip-path="url(#p5072f3a6e6)" style="fill: none; stroke: #7cb7da; stroke-width: 1.5; stroke-linecap: square"/>
   </g>
   <g id="line2d_79">
    <path d="M 46.595 117.982409 
L 178.1215 118.006139 
L 309.648 117.99441 
L 441.1745 121.031279 
L 572.701 121.054535 
L 704.2275 117.982409 
" clip-path="url(#p5072f3a6e6)" style="fill: none; stroke: #79b5d9; stroke-width: 1.5; stroke-linecap: square"/>
   </g>
   <g id="line2d_80">
    <path d="M 46.595 117.993775 
L 178.1215 117.995225 
L 309.648 117.99441 
L 441.1745 127.310836 
L 572.701 172.814649 
L 704.2275 164.125269 
" clip-path="url(#p5072f3a6e6)" style="fill: none; stroke: #75b4d8; stroke-width: 1.5; stroke-linecap: square"/>
   </g>
   <g id="line2d_81">
    <path d="M 46.595 117.994457 
L 178.1215 117.995004 
L 309.648 117.99441 
L 441.1745 126.737761 
L 572.701 153.574624 
L 704.2275 145.175826 
" clip-path="url(#p5072f3a6e6)" style="fill: none; stroke: #72b2d8; stroke-width: 1.5; stroke-linecap: square"/>
   </g>
   <g id="line2d_82">
    <path d="M 46.595 118.020846 
L 178.1215 117.999403 
L 309.648 117.99441 
L 441.1745 118.862827 
L 572.701 118.859929 
L 704.2275 118.021582 
" clip-path="url(#p5072f3a6e6)" style="fill: none; stroke: #6fb0d7; stroke-width: 1.5; stroke-linecap: square"/>
   </g>
   <g id="line2d_83">
    <path d="M 46.595 118.013655 
L 178.1215 136.810998 
L 309.648 117.99441 
L 441.1745 138.501345 
L 572.701 138.501313 
L 704.2275 118.014192 
" clip-path="url(#p5072f3a6e6)" style="fill: none; stroke: #6aaed6; stroke-width: 1.5; stroke-linecap: square"/>
   </g>
   <g id="line2d_84">
    <path d="M 46.595 117.997801 
L 178.1215 117.995084 
L 309.648 117.99441 
L 441.1745 118.911017 
L 572.701 118.900283 
L 704.2275 117.987821 
" clip-path="url(#p5072f3a6e6)" style="fill: none; stroke: #68acd5; stroke-width: 1.5; stroke-linecap: square"/>
   </g>
   <g id="line2d_85">
    <path d="M 46.595 118.022191 
L 178.1215 117.999657 
L 309.648 117.99441 
L 441.1745 118.922972 
L 572.701 118.919935 
L 704.2275 118.022966 
" clip-path="url(#p5072f3a6e6)" style="fill: none; stroke: #65aad4; stroke-width: 1.5; stroke-linecap: square"/>
   </g>
   <g id="line2d_86">
    <path d="M 46.595 117.993489 
L 178.1215 117.983043 
L 309.648 117.99441 
L 441.1745 130.28323 
L 572.701 225.48514 
L 704.2275 214.486202 
" clip-path="url(#p5072f3a6e6)" style="fill: none; stroke: #63a8d3; stroke-width: 1.5; stroke-linecap: square"/>
   </g>
   <g id="line2d_87">
    <path d="M 46.595 118.014047 
L 178.1215 142.930866 
L 309.648 117.99441 
L 441.1745 145.331269 
L 572.701 147.750031 
L 704.2275 120.916861 
" clip-path="url(#p5072f3a6e6)" style="fill: none; stroke: #60a7d2; stroke-width: 1.5; stroke-linecap: square"/>
   </g>
   <g id="line2d_88">
    <path d="M 46.595 117.993049 
L 178.1215 118.237655 
L 309.648 117.99441 
L 441.1745 129.617803 
L 572.701 221.121919 
L 704.2275 211.45079 
" clip-path="url(#p5072f3a6e6)" style="fill: none; stroke: #5da5d1; stroke-width: 1.5; stroke-linecap: square"/>
   </g>
   <g id="line2d_89">
    <path d="M 46.595 118.002953 
L 178.1215 117.96964 
L 309.648 117.99441 
L 441.1745 120.570215 
L 572.701 120.403946 
L 704.2275 117.855133 
" clip-path="url(#p5072f3a6e6)" style="fill: none; stroke: #5ba3d0; stroke-width: 1.5; stroke-linecap: square"/>
   </g>
   <g id="line2d_90">
    <path d="M 46.595 118.00085 
L 178.1215 118.002423 
L 309.648 117.99441 
L 441.1745 119.900236 
L 572.701 130.935338 
L 704.2275 129.185047 
" clip-path="url(#p5072f3a6e6)" style="fill: none; stroke: #58a1cf; stroke-width: 1.5; stroke-linecap: square"/>
   </g>
   <g id="line2d_91">
    <path d="M 46.595 118.012281 
L 178.1215 117.997785 
L 309.648 117.99441 
L 441.1745 118.832955 
L 572.701 118.831026 
L 704.2275 118.012779 
" clip-path="url(#p5072f3a6e6)" style="fill: none; stroke: #56a0ce; stroke-width: 1.5; stroke-linecap: square"/>
   </g>
   <g id="line2d_92">
    <path d="M 46.595 117.976045 
L 178.1215 118.01236 
L 309.648 117.99441 
L 441.1745 120.747823 
L 572.701 120.784511 
L 704.2275 117.976045 
" clip-path="url(#p5072f3a6e6)" style="fill: none; stroke: #539ecd; stroke-width: 1.5; stroke-linecap: square"/>
   </g>
   <g id="line2d_93">
    <path d="M 46.595 117.998205 
L 178.1215 117.999004 
L 309.648 117.99441 
L 441.1745 119.311473 
L 572.701 119.083633 
L 704.2275 117.754121 
" clip-path="url(#p5072f3a6e6)" style="fill: none; stroke: #519ccc; stroke-width: 1.5; stroke-linecap: square"/>
   </g>
   <g id="line2d_94">
    <path d="M 46.595 118.005393 
L 178.1215 118.003726 
L 309.648 117.99441 
L 441.1745 119.790249 
L 572.701 119.808889 
L 704.2275 118.003668 
" clip-path="url(#p5072f3a6e6)" style="fill: none; stroke: #4e9acb; stroke-width: 1.5; stroke-linecap: square"/>
   </g>
   <g id="line2d_95">
    <path d="M 46.595 117.978833 
L 178.1215 118.009673 
L 309.648 117.99441 
L 441.1745 121.632864 
L 572.701 126.086472 
L 704.2275 122.411122 
" clip-path="url(#p5072f3a6e6)" style="fill: none; stroke: #4b98ca; stroke-width: 1.5; stroke-linecap: square"/>
   </g>
   <g id="line2d_96">
    <path d="M 46.595 117.980842 
L 178.1215 118.007671 
L 309.648 117.99441 
L 441.1745 120.087379 
L 572.701 120.11498 
L 704.2275 117.980842 
" clip-path="url(#p5072f3a6e6)" style="fill: none; stroke: #4997c9; stroke-width: 1.5; stroke-linecap: square"/>
   </g>
   <g id="line2d_97">
    <path d="M 46.595 125.198309 
L 178.1215 131.677574 
L 309.648 117.99441 
L 441.1745 146.40972 
L 572.701 210.41006 
L 704.2275 202.828575 
" clip-path="url(#p5072f3a6e6)" style="fill: none; stroke: #4695c8; stroke-width: 1.5; stroke-linecap: square"/>
   </g>
   <g id="line2d_98">
    <path d="M 46.595 123.597695 
L 178.1215 130.204153 
L 309.648 117.99441 
L 441.1745 139.466911 
L 572.701 177.186387 
L 704.2275 171.435181 
" clip-path="url(#p5072f3a6e6)" style="fill: none; stroke: #4493c7; stroke-width: 1.5; stroke-linecap: square"/>
   </g>
   <g id="line2d_99">
    <path d="M 46.595 117.994479 
L 178.1215 117.99445 
L 309.648 117.99441 
L 441.1745 118.891495 
L 572.701 126.719304 
L 704.2275 125.929984 
" clip-path="url(#p5072f3a6e6)" style="fill: none; stroke: #4191c6; stroke-width: 1.5; stroke-linecap: square"/>
   </g>
   <g id="line2d_100">
    <path d="M 46.595 117.98557 
L 178.1215 118.00305 
L 309.648 117.99441 
L 441.1745 119.442778 
L 572.701 119.460493 
L 704.2275 117.98557 
" clip-path="url(#p5072f3a6e6)" style="fill: none; stroke: #3f8fc5; stroke-width: 1.5; stroke-linecap: square"/>
   </g>
   <g id="line2d_101">
    <path d="M 46.595 117.996554 
L 178.1215 117.996433 
L 309.648 117.99441 
L 441.1745 119.321702 
L 572.701 117.593367 
L 704.2275 116.24614 
" clip-path="url(#p5072f3a6e6)" style="fill: none; stroke: #3d8dc4; stroke-width: 1.5; stroke-linecap: square"/>
   </g>
   <g id="line2d_102">
    <path d="M 46.595 117.994072 
L 178.1215 117.994741 
L 309.648 117.99441 
L 441.1745 119.157634 
L 572.701 119.136291 
L 704.2275 117.989933 
" clip-path="url(#p5072f3a6e6)" style="fill: none; stroke: #3b8bc2; stroke-width: 1.5; stroke-linecap: square"/>
   </g>
   <g id="line2d_103">
    <path d="M 46.595 117.994453 
L 178.1215 117.994374 
L 309.648 117.99441 
L 441.1745 120.477862 
L 572.701 120.486313 
L 704.2275 118.002508 
" clip-path="url(#p5072f3a6e6)" style="fill: none; stroke: #3989c1; stroke-width: 1.5; stroke-linecap: square"/>
   </g>
   <g id="line2d_104">
    <path d="M 46.595 117.990919 
L 178.1215 117.997822 
L 309.648 117.99441 
L 441.1745 119.666583 
L 572.701 119.673027 
L 704.2275 117.990919 
" clip-path="url(#p5072f3a6e6)" style="fill: none; stroke: #3787c0; stroke-width: 1.5; stroke-linecap: square"/>
   </g>
   <g id="line2d_105">
    <path d="M 46.595 117.98959 
L 178.1215 117.999121 
L 309.648 117.99441 
L 441.1745 120.632141 
L 572.701 120.640922 
L 704.2275 117.98959 
" clip-path="url(#p5072f3a6e6)" style="fill: none; stroke: #3585bf; stroke-width: 1.5; stroke-linecap: square"/>
   </g>
   <g id="line2d_106">
    <path d="M 46.595 124.731885 
L 178.1215 129.711977 
L 309.648 117.99441 
L 441.1745 142.540211 
L 572.701 70.708287 
L 704.2275 40.666087 
" clip-path="url(#p5072f3a6e6)" style="fill: none; stroke: #3383be; stroke-width: 1.5; stroke-linecap: square"/>
   </g>
   <g id="line2d_107">
    <path d="M 46.595 124.74627 
L 178.1215 130.320047 
L 309.648 117.99441 
L 441.1745 142.580948 
L 572.701 70.52629 
L 704.2275 40.067273 
" clip-path="url(#p5072f3a6e6)" style="fill: none; stroke: #3181bd; stroke-width: 1.5; stroke-linecap: square"/>
   </g>
   <g id="line2d_108">
    <path d="M 46.595 117.99429 
L 178.1215 117.996358 
L 309.648 117.99441 
L 441.1745 119.554647 
L 572.701 119.550489 
L 704.2275 117.985913 
" clip-path="url(#p5072f3a6e6)" style="fill: none; stroke: #2f7fbc; stroke-width: 1.5; stroke-linecap: square"/>
   </g>
   <g id="line2d_109">
    <path d="M 46.595 117.99175 
L 178.1215 117.99701 
L 309.648 117.99441 
L 441.1745 119.423858 
L 572.701 119.428704 
L 704.2275 117.99175 
" clip-path="url(#p5072f3a6e6)" style="fill: none; stroke: #2d7dbb; stroke-width: 1.5; stroke-linecap: square"/>
   </g>
   <g id="line2d_110">
    <path d="M 46.595 125.783061 
L 178.1215 134.051928 
L 309.648 117.99441 
L 441.1745 150.394836 
L 572.701 217.244796 
L 704.2275 203.288271 
" clip-path="url(#p5072f3a6e6)" style="fill: none; stroke: #2b7bba; stroke-width: 1.5; stroke-linecap: square"/>
   </g>
   <g id="line2d_111">
    <path d="M 46.595 124.198826 
L 178.1215 132.80265 
L 309.648 117.99441 
L 441.1745 146.156937 
L 572.701 219.695812 
L 704.2275 207.372216 
" clip-path="url(#p5072f3a6e6)" style="fill: none; stroke: #2979b9; stroke-width: 1.5; stroke-linecap: square"/>
   </g>
   <g id="line2d_112">
    <path d="M 46.595 117.973057 
L 178.1215 118.01528 
L 309.648 117.99441 
L 441.1745 120.422414 
L 572.701 120.465742 
L 704.2275 117.973057 
" clip-path="url(#p5072f3a6e6)" style="fill: none; stroke: #2676b8; stroke-width: 1.5; stroke-linecap: square"/>
   </g>
   <g id="line2d_113">
    <path d="M 46.595 118.141614 
L 178.1215 118.609077 
L 309.648 117.99441 
L 441.1745 122.062685 
L 572.701 120.922296 
L 704.2275 116.477014 
" clip-path="url(#p5072f3a6e6)" style="fill: none; stroke: #2474b7; stroke-width: 1.5; stroke-linecap: square"/>
   </g>
   <g id="line2d_114">
    <path d="M 46.595 117.986833 
L 178.1215 118.001816 
L 309.648 117.99441 
L 441.1745 119.598077 
L 572.701 119.613113 
L 704.2275 117.986833 
" clip-path="url(#p5072f3a6e6)" style="fill: none; stroke: #2272b6; stroke-width: 1.5; stroke-linecap: square"/>
   </g>
   <g id="line2d_115">
    <path d="M 46.595 118.021801 
L 178.1215 117.999583 
L 309.648 117.99441 
L 441.1745 118.823275 
L 572.701 118.820265 
L 704.2275 118.022564 
" clip-path="url(#p5072f3a6e6)" style="fill: none; stroke: #206fb4; stroke-width: 1.5; stroke-linecap: square"/>
   </g>
   <g id="line2d_116">
    <path d="M 46.595 117.99441 
L 178.1215 117.99441 
L 309.648 117.99441 
L 441.1745 117.99441 
L 572.701 117.993971 
L 704.2275 117.994057 
" clip-path="url(#p5072f3a6e6)" style="fill: none; stroke: #1e6db2; stroke-width: 1.5; stroke-linecap: square"/>
   </g>
   <g id="line2d_117">
    <path d="M 46.595 118.043027 
L 178.1215 118.220299 
L 309.648 117.99441 
L 441.1745 121.94331 
L 572.701 139.228381 
L 704.2275 135.474234 
" clip-path="url(#p5072f3a6e6)" style="fill: none; stroke: #1c6bb0; stroke-width: 1.5; stroke-linecap: square"/>
   </g>
   <g id="line2d_118">
    <path d="M 46.595 118.030448 
L 178.1215 132.887798 
L 309.648 117.99441 
L 441.1745 134.783975 
L 572.701 134.782303 
L 704.2275 118.031452 
" clip-path="url(#p5072f3a6e6)" style="fill: none; stroke: #1b69af; stroke-width: 1.5; stroke-linecap: square"/>
   </g>
   <g id="line2d_119">
    <path d="M 46.595 117.989328 
L 178.1215 117.999377 
L 309.648 117.99441 
L 441.1745 120.500652 
L 572.701 120.510026 
L 704.2275 117.989328 
" clip-path="url(#p5072f3a6e6)" style="fill: none; stroke: #1967ad; stroke-width: 1.5; stroke-linecap: square"/>
   </g>
   <g id="line2d_120">
    <path d="M 46.595 118.001589 
L 178.1215 117.988124 
L 309.648 117.99441 
L 441.1745 120.810322 
L 572.701 135.075596 
L 704.2275 132.431176 
" clip-path="url(#p5072f3a6e6)" style="fill: none; stroke: #1865ac; stroke-width: 1.5; stroke-linecap: square"/>
   </g>
   <g id="line2d_121">
    <path d="M 46.595 117.995365 
L 178.1215 117.99459 
L 309.648 117.99441 
L 441.1745 118.877856 
L 572.701 118.877807 
L 704.2275 117.995392 
" clip-path="url(#p5072f3a6e6)" style="fill: none; stroke: #1663aa; stroke-width: 1.5; stroke-linecap: square"/>
   </g>
   <g id="line2d_122">
    <path d="M 46.595 118.018733 
L 178.1215 117.999004 
L 309.648 117.99441 
L 441.1745 118.751344 
L 572.701 118.748663 
L 704.2275 118.019411 
" clip-path="url(#p5072f3a6e6)" style="fill: none; stroke: #1561a9; stroke-width: 1.5; stroke-linecap: square"/>
   </g>
   <g id="line2d_123">
    <path d="M 46.595 117.996416 
L 178.1215 117.998122 
L 309.648 117.99441 
L 441.1745 120.151105 
L 572.701 120.042741 
L 704.2275 117.874772 
" clip-path="url(#p5072f3a6e6)" style="fill: none; stroke: #135fa7; stroke-width: 1.5; stroke-linecap: square"/>
   </g>
   <g id="line2d_124">
    <path d="M 46.595 118.013328 
L 178.1215 117.997983 
L 309.648 117.99441 
L 441.1745 118.746513 
L 572.701 118.74443 
L 704.2275 118.013855 
" clip-path="url(#p5072f3a6e6)" style="fill: none; stroke: #125da6; stroke-width: 1.5; stroke-linecap: square"/>
   </g>
   <g id="line2d_125">
    <path d="M 46.595 118.328208 
L 178.1215 119.367269 
L 309.648 117.99441 
L 441.1745 122.897066 
L 572.701 161.913203 
L 704.2275 159.868081 
" clip-path="url(#p5072f3a6e6)" style="fill: none; stroke: #105ba4; stroke-width: 1.5; stroke-linecap: square"/>
   </g>
   <g id="line2d_126">
    <path d="M 46.595 118.002353 
L 178.1215 144.603791 
L 309.648 117.99441 
L 441.1745 148.743 
L 572.701 167.071444 
L 704.2275 144.019275 
" clip-path="url(#p5072f3a6e6)" style="fill: none; stroke: #0e59a2; stroke-width: 1.5; stroke-linecap: square"/>
   </g>
   <g id="line2d_127">
    <path d="M 46.595 117.992615 
L 178.1215 117.996164 
L 309.648 117.99441 
L 441.1745 119.439486 
L 572.701 119.441886 
L 704.2275 117.992615 
" clip-path="url(#p5072f3a6e6)" style="fill: none; stroke: #0d57a1; stroke-width: 1.5; stroke-linecap: square"/>
   </g>
   <g id="line2d_128">
    <path d="M 46.595 117.97298 
L 178.1215 118.015355 
L 309.648 117.99441 
L 441.1745 120.793045 
L 572.701 120.836126 
L 704.2275 117.97298 
" clip-path="url(#p5072f3a6e6)" style="fill: none; stroke: #0b559f; stroke-width: 1.5; stroke-linecap: square"/>
   </g>
   <g id="line2d_129">
    <path d="M 46.595 117.994872 
L 178.1215 117.995372 
L 309.648 117.99441 
L 441.1745 119.354665 
L 572.701 119.356132 
L 704.2275 117.994959 
" clip-path="url(#p5072f3a6e6)" style="fill: none; stroke: #0a539e; stroke-width: 1.5; stroke-linecap: square"/>
   </g>
   <g id="line2d_130">
    <path d="M 46.595 117.99384 
L 178.1215 117.994891 
L 309.648 117.99441 
L 441.1745 118.771411 
L 572.701 118.55861 
L 704.2275 117.779898 
" clip-path="url(#p5072f3a6e6)" style="fill: none; stroke: #08519c; stroke-width: 1.5; stroke-linecap: square"/>
   </g>
   <g id="line2d_131">
    <path d="M 46.595 117.997428 
L 178.1215 141.63472 
L 309.648 117.99441 
L 441.1745 145.267495 
L 572.701 168.627826 
L 704.2275 146.740345 
" clip-path="url(#p5072f3a6e6)" style="fill: none; stroke: #084f99; stroke-width: 1.5; stroke-linecap: square"/>
   </g>
   <g id="line2d_132">
    <path d="M 46.595 118.020816 
L 178.1215 117.999397 
L 309.648 117.99441 
L 441.1745 118.991079 
L 572.701 118.988199 
L 704.2275 118.021552 
" clip-path="url(#p5072f3a6e6)" style="fill: none; stroke: #084d96; stroke-width: 1.5; stroke-linecap: square"/>
   </g>
   <g id="line2d_133">
    <path d="M 46.595 117.996485 
L 178.1215 117.99612 
L 309.648 117.99441 
L 441.1745 119.120127 
L 572.701 121.007789 
L 704.2275 119.904699 
" clip-path="url(#p5072f3a6e6)" style="fill: none; stroke: #084b93; stroke-width: 1.5; stroke-linecap: square"/>
   </g>
   <g id="line2d_134">
    <path d="M 46.595 117.998461 
L 178.1215 117.998089 
L 309.648 117.99441 
L 441.1745 118.675307 
L 572.701 120.600472 
L 704.2275 119.953763 
" clip-path="url(#p5072f3a6e6)" style="fill: none; stroke: #084990; stroke-width: 1.5; stroke-linecap: square"/>
   </g>
   <g id="line2d_135">
    <path d="M 46.595 117.994495 
L 178.1215 117.994279 
L 309.648 117.99441 
L 441.1745 120.54652 
L 572.701 120.66772 
L 704.2275 118.088832 
" clip-path="url(#p5072f3a6e6)" style="fill: none; stroke: #08478d; stroke-width: 1.5; stroke-linecap: square"/>
   </g>
   <g id="line2d_136">
    <path d="M 46.595 118.12722 
L 178.1215 118.57442 
L 309.648 117.99441 
L 441.1745 119.786862 
L 572.701 119.153489 
L 704.2275 116.748467 
" clip-path="url(#p5072f3a6e6)" style="fill: none; stroke: #08458a; stroke-width: 1.5; stroke-linecap: square"/>
   </g>
   <g id="line2d_137">
    <path d="M 46.595 117.97518 
L 178.1215 118.013205 
L 309.648 117.99441 
L 441.1745 119.831204 
L 572.701 119.871222 
L 704.2275 117.97518 
" clip-path="url(#p5072f3a6e6)" style="fill: none; stroke: #084387; stroke-width: 1.5; stroke-linecap: square"/>
   </g>
   <g id="line2d_138">
    <path d="M 46.595 120.951959 
L 178.1215 125.821321 
L 309.648 117.99441 
L 441.1745 134.360646 
L 572.701 170.828518 
L 704.2275 169.073116 
" clip-path="url(#p5072f3a6e6)" style="fill: none; stroke: #084184; stroke-width: 1.5; stroke-linecap: square"/>
   </g>
   <g id="line2d_139">
    <path d="M 46.595 118.042959 
L 178.1215 118.003579 
L 309.648 117.99441 
L 441.1745 119.267507 
L 572.701 119.262141 
L 704.2275 118.044311 
" clip-path="url(#p5072f3a6e6)" style="fill: none; stroke: #083e81; stroke-width: 1.5; stroke-linecap: square"/>
   </g>
   <g id="line2d_140">
    <path d="M 46.595 117.9803 
L 178.1215 118.008201 
L 309.648 117.99441 
L 441.1745 120.365894 
L 572.701 120.393971 
L 704.2275 117.9803 
" clip-path="url(#p5072f3a6e6)" style="fill: none; stroke: #083c7d; stroke-width: 1.5; stroke-linecap: square"/>
   </g>
   <g id="line2d_141">
    <path d="M 46.595 117.994319 
L 178.1215 117.994313 
L 309.648 117.99441 
L 441.1745 119.041408 
L 572.701 124.915839 
L 704.2275 123.799194 
" clip-path="url(#p5072f3a6e6)" style="fill: none; stroke: #083a7a; stroke-width: 1.5; stroke-linecap: square"/>
   </g>
   <g id="line2d_142">
    <path d="M 46.595 118.007888 
L 178.1215 117.997029 
L 309.648 117.99441 
L 441.1745 118.932761 
L 572.701 118.919557 
L 704.2275 117.995716 
" clip-path="url(#p5072f3a6e6)" style="fill: none; stroke: #083877; stroke-width: 1.5; stroke-linecap: square"/>
   </g>
   <g id="line2d_143">
    <path d="M 46.595 119.10772 
L 178.1215 117.994349 
L 309.648 117.99441 
L 441.1745 122.10918 
L 572.701 146.630851 
L 704.2275 143.277205 
" clip-path="url(#p5072f3a6e6)" style="fill: none; stroke: #083674; stroke-width: 1.5; stroke-linecap: square"/>
   </g>
   <g id="line2d_144">
    <path d="M 46.595 118.00167 
L 178.1215 117.988049 
L 309.648 117.99441 
L 441.1745 120.872882 
L 572.701 135.326637 
L 704.2275 132.622131 
" clip-path="url(#p5072f3a6e6)" style="fill: none; stroke: #083471; stroke-width: 1.5; stroke-linecap: square"/>
   </g>
   <g id="line2d_145">
    <path d="M 46.595 117.993408 
L 178.1215 117.995389 
L 309.648 117.99441 
L 441.1745 120.616328 
L 572.701 120.616629 
L 704.2275 117.991774 
" clip-path="url(#p5072f3a6e6)" style="fill: none; stroke: #08326e; stroke-width: 1.5; stroke-linecap: square"/>
   </g>
   <g id="line2d_146">
    <path d="M 46.595 117.994954 
L 178.1215 117.994557 
L 309.648 117.99441 
L 441.1745 118.62868 
L 572.701 118.803998 
L 704.2275 118.173288 
" clip-path="url(#p5072f3a6e6)" style="fill: none; stroke: #08306b; stroke-width: 1.5; stroke-linecap: square"/>
   </g>
   <g id="line2d_147">
    <path d="M 46.595 332.12 
L 46.595 26.16 
" clip-path="url(#p5072f3a6e6)" style="fill: none; stroke: #000000; stroke-linecap: square"/>
   </g>
   <g id="line2d_148">
    <path d="M 178.1215 332.12 
L 178.1215 26.16 
" clip-path="url(#p5072f3a6e6)" style="fill: none; stroke: #000000; stroke-linecap: square"/>
   </g>
   <g id="line2d_149">
    <path d="M 309.648 332.12 
L 309.648 26.16 
" clip-path="url(#p5072f3a6e6)" style="fill: none; stroke: #000000; stroke-linecap: square"/>
   </g>
   <g id="line2d_150">
    <path d="M 441.1745 332.12 
L 441.1745 26.16 
" clip-path="url(#p5072f3a6e6)" style="fill: none; stroke: #000000; stroke-linecap: square"/>
   </g>
   <g id="line2d_151">
    <path d="M 572.701 332.12 
L 572.701 26.16 
" clip-path="url(#p5072f3a6e6)" style="fill: none; stroke: #000000; stroke-linecap: square"/>
   </g>
   <g id="line2d_152">
    <path d="M 704.2275 332.12 
L 704.2275 26.16 
" clip-path="url(#p5072f3a6e6)" style="fill: none; stroke: #000000; stroke-linecap: square"/>
   </g>
   <g id="patch_3">
    <path d="M 46.595 332.12 
L 46.595 26.16 
" style="fill: none; stroke: #000000; stroke-width: 0.8; stroke-linejoin: miter; stroke-linecap: square"/>
   </g>
   <g id="patch_4">
    <path d="M 704.2275 332.12 
L 704.2275 26.16 
" style="fill: none; stroke: #000000; stroke-width: 0.8; stroke-linejoin: miter; stroke-linecap: square"/>
   </g>
   <g id="patch_5">
    <path d="M 46.595 332.12 
L 704.2275 332.12 
" style="fill: none; stroke: #000000; stroke-width: 0.8; stroke-linejoin: miter; stroke-linecap: square"/>
   </g>
   <g id="patch_6">
    <path d="M 46.595 26.16 
L 704.2275 26.16 
" style="fill: none; stroke: #000000; stroke-width: 0.8; stroke-linejoin: miter; stroke-linecap: square"/>
   </g>
   <g id="text_15">
    <!-- June 27, 2023: Flowrate -->
    <g transform="translate(303.907187 20.16) scale(0.12 -0.12)">
     <defs>
      <path id="DejaVuSans-4a" d="M 628 4666 
L 1259 4666 
L 1259 325 
Q 1259 -519 939 -900 
Q 619 -1281 -91 -1281 
L -331 -1281 
L -331 -750 
L -134 -750 
Q 284 -750 456 -515 
Q 628 -281 628 325 
L 628 4666 
z
" transform="scale(0.015625)"/>
      <path id="DejaVuSans-75" d="M 544 1381 
L 544 3500 
L 1119 3500 
L 1119 1403 
Q 1119 906 1312 657 
Q 1506 409 1894 409 
Q 2359 409 2629 706 
Q 2900 1003 2900 1516 
L 2900 3500 
L 3475 3500 
L 3475 0 
L 2900 0 
L 2900 538 
Q 2691 219 2414 64 
Q 2138 -91 1772 -91 
Q 1169 -91 856 284 
Q 544 659 544 1381 
z
M 1991 3584 
L 1991 3584 
z
" transform="scale(0.015625)"/>
      <path id="DejaVuSans-6e" d="M 3513 2113 
L 3513 0 
L 2938 0 
L 2938 2094 
Q 2938 2591 2744 2837 
Q 2550 3084 2163 3084 
Q 1697 3084 1428 2787 
Q 1159 2491 1159 1978 
L 1159 0 
L 581 0 
L 581 3500 
L 1159 3500 
L 1159 2956 
Q 1366 3272 1645 3428 
Q 1925 3584 2291 3584 
Q 2894 3584 3203 3211 
Q 3513 2838 3513 2113 
z
" transform="scale(0.015625)"/>
      <path id="DejaVuSans-37" d="M 525 4666 
L 3525 4666 
L 3525 4397 
L 1831 0 
L 1172 0 
L 2766 4134 
L 525 4134 
L 525 4666 
z
" transform="scale(0.015625)"/>
      <path id="DejaVuSans-2c" d="M 750 794 
L 1409 794 
L 1409 256 
L 897 -744 
L 494 -744 
L 750 256 
L 750 794 
z
" transform="scale(0.015625)"/>
      <path id="DejaVuSans-3a" d="M 750 794 
L 1409 794 
L 1409 0 
L 750 0 
L 750 794 
z
M 750 3309 
L 1409 3309 
L 1409 2516 
L 750 2516 
L 750 3309 
z
" transform="scale(0.015625)"/>
     </defs>
     <use xlink:href="#DejaVuSans-4a"/>
     <use xlink:href="#DejaVuSans-75" transform="translate(29.492188 0)"/>
     <use xlink:href="#DejaVuSans-6e" transform="translate(92.871094 0)"/>
     <use xlink:href="#DejaVuSans-65" transform="translate(156.25 0)"/>
     <use xlink:href="#DejaVuSans-20" transform="translate(217.773438 0)"/>
     <use xlink:href="#DejaVuSans-32" transform="translate(249.560547 0)"/>
     <use xlink:href="#DejaVuSans-37" transform="translate(313.183594 0)"/>
     <use xlink:href="#DejaVuSans-2c" transform="translate(376.806641 0)"/>
     <use xlink:href="#DejaVuSans-20" transform="translate(408.59375 0)"/>
     <use xlink:href="#DejaVuSans-32" transform="translate(440.380859 0)"/>
     <use xlink:href="#DejaVuSans-30" transform="translate(504.003906 0)"/>
     <use xlink:href="#DejaVuSans-32" transform="translate(567.626953 0)"/>
     <use xlink:href="#DejaVuSans-33" transform="translate(631.25 0)"/>
     <use xlink:href="#DejaVuSans-3a" transform="translate(694.873047 0)"/>
     <use xlink:href="#DejaVuSans-20" transform="translate(728.564453 0)"/>
     <use xlink:href="#DejaVuSans-46" transform="translate(760.351562 0)"/>
     <use xlink:href="#DejaVuSans-6c" transform="translate(817.871094 0)"/>
     <use xlink:href="#DejaVuSans-6f" transform="translate(845.654297 0)"/>
     <use xlink:href="#DejaVuSans-77" transform="translate(906.835938 0)"/>
     <use xlink:href="#DejaVuSans-72" transform="translate(988.623047 0)"/>
     <use xlink:href="#DejaVuSans-61" transform="translate(1029.736328 0)"/>
     <use xlink:href="#DejaVuSans-74" transform="translate(1091.015625 0)"/>
     <use xlink:href="#DejaVuSans-65" transform="translate(1130.224609 0)"/>
    </g>
   </g>
  </g>
 </g>
 <defs>
  <clipPath id="p5072f3a6e6">
   <rect x="46.595" y="26.16" width="657.6325" height="305.96"/>
  </clipPath>
 </defs>
</svg>
