<?xml version="1.0" encoding="utf-8" standalone="no"?>
<!DOCTYPE svg PUBLIC "-//W3C//DTD SVG 1.1//EN"
  "http://www.w3.org/Graphics/SVG/1.1/DTD/svg11.dtd">
<svg xmlns:xlink="http://www.w3.org/1999/xlink" width="720pt" height="360pt" viewBox="0 0 720 360" xmlns="http://www.w3.org/2000/svg" version="1.1">
 <metadata>
  <rdf:RDF xmlns:dc="http://purl.org/dc/elements/1.1/" xmlns:cc="http://creativecommons.org/ns#" xmlns:rdf="http://www.w3.org/1999/02/22-rdf-syntax-ns#">
   <cc:Work>
    <dc:type rdf:resource="http://purl.org/dc/dcmitype/StillImage"/>
    <dc:date>2025-07-02T10:39:56.748654</dc:date>
    <dc:format>image/svg+xml</dc:format>
    <dc:creator>
     <cc:Agent>
      <dc:title>Matplotlib v3.10.0, https://matplotlib.org/</dc:title>
     </cc:Agent>
    </dc:creator>
   </cc:Work>
  </rdf:RDF>
 </metadata>
 <defs>
  <style type="text/css">*{stroke-linejoin: round; stroke-linecap: butt}</style>
 </defs>
 <g id="figure_1">
  <g id="patch_1">
   <path d="M 0 360 
L 720 360 
L 720 0 
L 0 0 
z
" style="fill: #ffffff"/>
  </g>
  <g id="axes_1">
   <g id="patch_2">
    <path d="M 62.48 332.12 
L 704.2275 332.12 
L 704.2275 26.16 
L 62.48 26.16 
z
" style="fill: #ffffff"/>
   </g>
   <g id="matplotlib.axis_1">
    <g id="xtick_1">
     <g id="line2d_1">
      <path d="M 62.48 332.12 
L 62.48 26.16 
" clip-path="url(#p84fd15dc19)" style="fill: none; stroke: #b0b0b0; stroke-width: 0.8; stroke-linecap: square"/>
     </g>
     <g id="line2d_2">
      <defs>
       <path id="ma3dc513d1d" d="M 0 0 
L 0 3.5 
" style="stroke: #000000; stroke-width: 0.8"/>
      </defs>
      <g>
       <use xlink:href="#ma3dc513d1d" x="62.48" y="332.12" style="stroke: #000000; stroke-width: 0.8"/>
      </g>
     </g>
     <g id="text_1">
      <!-- BGN -->
      <g transform="translate(51.522188 346.718437) scale(0.1 -0.1)">
       <defs>
        <path id="DejaVuSans-42" d="M 1259 2228 
L 1259 519 
L 2272 519 
Q 2781 519 3026 730 
Q 3272 941 3272 1375 
Q 3272 1813 3026 2020 
Q 2781 2228 2272 2228 
L 1259 2228 
z
M 1259 4147 
L 1259 2741 
L 2194 2741 
Q 2656 2741 2882 2914 
Q 3109 3088 3109 3444 
Q 3109 3797 2882 3972 
Q 2656 4147 2194 4147 
L 1259 4147 
z
M 628 4666 
L 2241 4666 
Q 2963 4666 3353 4366 
Q 3744 4066 3744 3513 
Q 3744 3084 3544 2831 
Q 3344 2578 2956 2516 
Q 3422 2416 3680 2098 
Q 3938 1781 3938 1306 
Q 3938 681 3513 340 
Q 3088 0 2303 0 
L 628 0 
L 628 4666 
z
" transform="scale(0.015625)"/>
        <path id="DejaVuSans-47" d="M 3809 666 
L 3809 1919 
L 2778 1919 
L 2778 2438 
L 4434 2438 
L 4434 434 
Q 4069 175 3628 42 
Q 3188 -91 2688 -91 
Q 1594 -91 976 548 
Q 359 1188 359 2328 
Q 359 3472 976 4111 
Q 1594 4750 2688 4750 
Q 3144 4750 3555 4637 
Q 3966 4525 4313 4306 
L 4313 3634 
Q 3963 3931 3569 4081 
Q 3175 4231 2741 4231 
Q 1884 4231 1454 3753 
Q 1025 3275 1025 2328 
Q 1025 1384 1454 906 
Q 1884 428 2741 428 
Q 3075 428 3337 486 
Q 3600 544 3809 666 
z
" transform="scale(0.015625)"/>
        <path id="DejaVuSans-4e" d="M 628 4666 
L 1478 4666 
L 3547 763 
L 3547 4666 
L 4159 4666 
L 4159 0 
L 3309 0 
L 1241 3903 
L 1241 0 
L 628 0 
L 628 4666 
z
" transform="scale(0.015625)"/>
       </defs>
       <use xlink:href="#DejaVuSans-42"/>
       <use xlink:href="#DejaVuSans-47" transform="translate(66.853516 0)"/>
       <use xlink:href="#DejaVuSans-4e" transform="translate(144.34375 0)"/>
      </g>
     </g>
    </g>
    <g id="xtick_2">
     <g id="line2d_3">
      <path d="M 190.8295 332.12 
L 190.8295 26.16 
" clip-path="url(#p84fd15dc19)" style="fill: none; stroke: #b0b0b0; stroke-width: 0.8; stroke-linecap: square"/>
     </g>
     <g id="line2d_4">
      <g>
       <use xlink:href="#ma3dc513d1d" x="190.8295" y="332.12" style="stroke: #000000; stroke-width: 0.8"/>
      </g>
     </g>
     <g id="text_2">
      <!-- BGNx3 -->
      <g transform="translate(173.731063 346.718437) scale(0.1 -0.1)">
       <defs>
        <path id="DejaVuSans-78" d="M 3513 3500 
L 2247 1797 
L 3578 0 
L 2900 0 
L 1881 1375 
L 863 0 
L 184 0 
L 1544 1831 
L 300 3500 
L 978 3500 
L 1906 2253 
L 2834 3500 
L 3513 3500 
z
" transform="scale(0.015625)"/>
        <path id="DejaVuSans-33" d="M 2597 2516 
Q 3050 2419 3304 2112 
Q 3559 1806 3559 1356 
Q 3559 666 3084 287 
Q 2609 -91 1734 -91 
Q 1441 -91 1130 -33 
Q 819 25 488 141 
L 488 750 
Q 750 597 1062 519 
Q 1375 441 1716 441 
Q 2309 441 2620 675 
Q 2931 909 2931 1356 
Q 2931 1769 2642 2001 
Q 2353 2234 1838 2234 
L 1294 2234 
L 1294 2753 
L 1863 2753 
Q 2328 2753 2575 2939 
Q 2822 3125 2822 3475 
Q 2822 3834 2567 4026 
Q 2313 4219 1838 4219 
Q 1578 4219 1281 4162 
Q 984 4106 628 3988 
L 628 4550 
Q 988 4650 1302 4700 
Q 1616 4750 1894 4750 
Q 2613 4750 3031 4423 
Q 3450 4097 3450 3541 
Q 3450 3153 3228 2886 
Q 3006 2619 2597 2516 
z
" transform="scale(0.015625)"/>
       </defs>
       <use xlink:href="#DejaVuSans-42"/>
       <use xlink:href="#DejaVuSans-47" transform="translate(66.853516 0)"/>
       <use xlink:href="#DejaVuSans-4e" transform="translate(144.34375 0)"/>
       <use xlink:href="#DejaVuSans-78" transform="translate(219.148438 0)"/>
       <use xlink:href="#DejaVuSans-33" transform="translate(278.328125 0)"/>
      </g>
     </g>
    </g>
    <g id="xtick_3">
     <g id="line2d_5">
      <path d="M 319.179 332.12 
L 319.179 26.16 
" clip-path="url(#p84fd15dc19)" style="fill: none; stroke: #b0b0b0; stroke-width: 0.8; stroke-linecap: square"/>
     </g>
     <g id="line2d_6">
      <g>
       <use xlink:href="#ma3dc513d1d" x="319.179" y="332.12" style="stroke: #000000; stroke-width: 0.8"/>
      </g>
     </g>
     <g id="text_3">
      <!-- Base -->
      <g transform="translate(307.003219 346.718437) scale(0.1 -0.1)">
       <defs>
        <path id="DejaVuSans-61" d="M 2194 1759 
Q 1497 1759 1228 1600 
Q 959 1441 959 1056 
Q 959 750 1161 570 
Q 1363 391 1709 391 
Q 2188 391 2477 730 
Q 2766 1069 2766 1631 
L 2766 1759 
L 2194 1759 
z
M 3341 1997 
L 3341 0 
L 2766 0 
L 2766 531 
Q 2569 213 2275 61 
Q 1981 -91 1556 -91 
Q 1019 -91 701 211 
Q 384 513 384 1019 
Q 384 1609 779 1909 
Q 1175 2209 1959 2209 
L 2766 2209 
L 2766 2266 
Q 2766 2663 2505 2880 
Q 2244 3097 1772 3097 
Q 1472 3097 1187 3025 
Q 903 2953 641 2809 
L 641 3341 
Q 956 3463 1253 3523 
Q 1550 3584 1831 3584 
Q 2591 3584 2966 3190 
Q 3341 2797 3341 1997 
z
" transform="scale(0.015625)"/>
        <path id="DejaVuSans-73" d="M 2834 3397 
L 2834 2853 
Q 2591 2978 2328 3040 
Q 2066 3103 1784 3103 
Q 1356 3103 1142 2972 
Q 928 2841 928 2578 
Q 928 2378 1081 2264 
Q 1234 2150 1697 2047 
L 1894 2003 
Q 2506 1872 2764 1633 
Q 3022 1394 3022 966 
Q 3022 478 2636 193 
Q 2250 -91 1575 -91 
Q 1294 -91 989 -36 
Q 684 19 347 128 
L 347 722 
Q 666 556 975 473 
Q 1284 391 1588 391 
Q 1994 391 2212 530 
Q 2431 669 2431 922 
Q 2431 1156 2273 1281 
Q 2116 1406 1581 1522 
L 1381 1569 
Q 847 1681 609 1914 
Q 372 2147 372 2553 
Q 372 3047 722 3315 
Q 1072 3584 1716 3584 
Q 2034 3584 2315 3537 
Q 2597 3491 2834 3397 
z
" transform="scale(0.015625)"/>
        <path id="DejaVuSans-65" d="M 3597 1894 
L 3597 1613 
L 953 1613 
Q 991 1019 1311 708 
Q 1631 397 2203 397 
Q 2534 397 2845 478 
Q 3156 559 3463 722 
L 3463 178 
Q 3153 47 2828 -22 
Q 2503 -91 2169 -91 
Q 1331 -91 842 396 
Q 353 884 353 1716 
Q 353 2575 817 3079 
Q 1281 3584 2069 3584 
Q 2775 3584 3186 3129 
Q 3597 2675 3597 1894 
z
M 3022 2063 
Q 3016 2534 2758 2815 
Q 2500 3097 2075 3097 
Q 1594 3097 1305 2825 
Q 1016 2553 972 2059 
L 3022 2063 
z
" transform="scale(0.015625)"/>
       </defs>
       <use xlink:href="#DejaVuSans-42"/>
       <use xlink:href="#DejaVuSans-61" transform="translate(68.603516 0)"/>
       <use xlink:href="#DejaVuSans-73" transform="translate(129.882812 0)"/>
       <use xlink:href="#DejaVuSans-65" transform="translate(181.982422 0)"/>
      </g>
     </g>
    </g>
    <g id="xtick_4">
     <g id="line2d_7">
      <path d="M 447.5285 332.12 
L 447.5285 26.16 
" clip-path="url(#p84fd15dc19)" style="fill: none; stroke: #b0b0b0; stroke-width: 0.8; stroke-linecap: square"/>
     </g>
     <g id="line2d_8">
      <g>
       <use xlink:href="#ma3dc513d1d" x="447.5285" y="332.12" style="stroke: #000000; stroke-width: 0.8"/>
      </g>
     </g>
     <g id="text_4">
      <!-- GM -->
      <g transform="translate(439.340219 346.718437) scale(0.1 -0.1)">
       <defs>
        <path id="DejaVuSans-4d" d="M 628 4666 
L 1569 4666 
L 2759 1491 
L 3956 4666 
L 4897 4666 
L 4897 0 
L 4281 0 
L 4281 4097 
L 3078 897 
L 2444 897 
L 1241 4097 
L 1241 0 
L 628 0 
L 628 4666 
z
" transform="scale(0.015625)"/>
       </defs>
       <use xlink:href="#DejaVuSans-47"/>
       <use xlink:href="#DejaVuSans-4d" transform="translate(77.490234 0)"/>
      </g>
     </g>
    </g>
    <g id="xtick_5">
     <g id="line2d_9">
      <path d="M 575.878 332.12 
L 575.878 26.16 
" clip-path="url(#p84fd15dc19)" style="fill: none; stroke: #b0b0b0; stroke-width: 0.8; stroke-linecap: square"/>
     </g>
     <g id="line2d_10">
      <g>
       <use xlink:href="#ma3dc513d1d" x="575.878" y="332.12" style="stroke: #000000; stroke-width: 0.8"/>
      </g>
     </g>
     <g id="text_5">
      <!-- GM+IC -->
      <g transform="translate(558.533469 346.718437) scale(0.1 -0.1)">
       <defs>
        <path id="DejaVuSans-2b" d="M 2944 4013 
L 2944 2272 
L 4684 2272 
L 4684 1741 
L 2944 1741 
L 2944 0 
L 2419 0 
L 2419 1741 
L 678 1741 
L 678 2272 
L 2419 2272 
L 2419 4013 
L 2944 4013 
z
" transform="scale(0.015625)"/>
        <path id="DejaVuSans-49" d="M 628 4666 
L 1259 4666 
L 1259 0 
L 628 0 
L 628 4666 
z
" transform="scale(0.015625)"/>
        <path id="DejaVuSans-43" d="M 4122 4306 
L 4122 3641 
Q 3803 3938 3442 4084 
Q 3081 4231 2675 4231 
Q 1875 4231 1450 3742 
Q 1025 3253 1025 2328 
Q 1025 1406 1450 917 
Q 1875 428 2675 428 
Q 3081 428 3442 575 
Q 3803 722 4122 1019 
L 4122 359 
Q 3791 134 3420 21 
Q 3050 -91 2638 -91 
Q 1578 -91 968 557 
Q 359 1206 359 2328 
Q 359 3453 968 4101 
Q 1578 4750 2638 4750 
Q 3056 4750 3426 4639 
Q 3797 4528 4122 4306 
z
" transform="scale(0.015625)"/>
       </defs>
       <use xlink:href="#DejaVuSans-47"/>
       <use xlink:href="#DejaVuSans-4d" transform="translate(77.490234 0)"/>
       <use xlink:href="#DejaVuSans-2b" transform="translate(163.769531 0)"/>
       <use xlink:href="#DejaVuSans-49" transform="translate(247.558594 0)"/>
       <use xlink:href="#DejaVuSans-43" transform="translate(277.050781 0)"/>
      </g>
     </g>
    </g>
    <g id="xtick_6">
     <g id="line2d_11">
      <path d="M 704.2275 332.12 
L 704.2275 26.16 
" clip-path="url(#p84fd15dc19)" style="fill: none; stroke: #b0b0b0; stroke-width: 0.8; stroke-linecap: square"/>
     </g>
     <g id="line2d_12">
      <g>
       <use xlink:href="#ma3dc513d1d" x="704.2275" y="332.12" style="stroke: #000000; stroke-width: 0.8"/>
      </g>
     </g>
     <g id="text_6">
      <!-- IC -->
      <g transform="translate(699.261094 346.718437) scale(0.1 -0.1)">
       <use xlink:href="#DejaVuSans-49"/>
       <use xlink:href="#DejaVuSans-43" transform="translate(29.492188 0)"/>
      </g>
     </g>
    </g>
   </g>
   <g id="matplotlib.axis_2">
    <g id="ytick_1">
     <g id="line2d_13">
      <defs>
       <path id="m7d0802aefc" d="M 0 0 
L -3.5 0 
" style="stroke: #000000; stroke-width: 0.8"/>
      </defs>
      <g>
       <use xlink:href="#m7d0802aefc" x="62.48" y="288.314112" style="stroke: #000000; stroke-width: 0.8"/>
      </g>
     </g>
     <g id="text_7">
      <!-- −0.15 -->
      <g transform="translate(24.834688 292.11333) scale(0.1 -0.1)">
       <defs>
        <path id="DejaVuSans-2212" d="M 678 2272 
L 4684 2272 
L 4684 1741 
L 678 1741 
L 678 2272 
z
" transform="scale(0.015625)"/>
        <path id="DejaVuSans-30" d="M 2034 4250 
Q 1547 4250 1301 3770 
Q 1056 3291 1056 2328 
Q 1056 1369 1301 889 
Q 1547 409 2034 409 
Q 2525 409 2770 889 
Q 3016 1369 3016 2328 
Q 3016 3291 2770 3770 
Q 2525 4250 2034 4250 
z
M 2034 4750 
Q 2819 4750 3233 4129 
Q 3647 3509 3647 2328 
Q 3647 1150 3233 529 
Q 2819 -91 2034 -91 
Q 1250 -91 836 529 
Q 422 1150 422 2328 
Q 422 3509 836 4129 
Q 1250 4750 2034 4750 
z
" transform="scale(0.015625)"/>
        <path id="DejaVuSans-2e" d="M 684 794 
L 1344 794 
L 1344 0 
L 684 0 
L 684 794 
z
" transform="scale(0.015625)"/>
        <path id="DejaVuSans-31" d="M 794 531 
L 1825 531 
L 1825 4091 
L 703 3866 
L 703 4441 
L 1819 4666 
L 2450 4666 
L 2450 531 
L 3481 531 
L 3481 0 
L 794 0 
L 794 531 
z
" transform="scale(0.015625)"/>
        <path id="DejaVuSans-35" d="M 691 4666 
L 3169 4666 
L 3169 4134 
L 1269 4134 
L 1269 2991 
Q 1406 3038 1543 3061 
Q 1681 3084 1819 3084 
Q 2600 3084 3056 2656 
Q 3513 2228 3513 1497 
Q 3513 744 3044 326 
Q 2575 -91 1722 -91 
Q 1428 -91 1123 -41 
Q 819 9 494 109 
L 494 744 
Q 775 591 1075 516 
Q 1375 441 1709 441 
Q 2250 441 2565 725 
Q 2881 1009 2881 1497 
Q 2881 1984 2565 2268 
Q 2250 2553 1709 2553 
Q 1456 2553 1204 2497 
Q 953 2441 691 2322 
L 691 4666 
z
" transform="scale(0.015625)"/>
       </defs>
       <use xlink:href="#DejaVuSans-2212"/>
       <use xlink:href="#DejaVuSans-30" transform="translate(83.789062 0)"/>
       <use xlink:href="#DejaVuSans-2e" transform="translate(147.412109 0)"/>
       <use xlink:href="#DejaVuSans-31" transform="translate(179.199219 0)"/>
       <use xlink:href="#DejaVuSans-35" transform="translate(242.822266 0)"/>
      </g>
     </g>
    </g>
    <g id="ytick_2">
     <g id="line2d_14">
      <g>
       <use xlink:href="#m7d0802aefc" x="62.48" y="222.124531" style="stroke: #000000; stroke-width: 0.8"/>
      </g>
     </g>
     <g id="text_8">
      <!-- −0.10 -->
      <g transform="translate(24.834688 225.92375) scale(0.1 -0.1)">
       <use xlink:href="#DejaVuSans-2212"/>
       <use xlink:href="#DejaVuSans-30" transform="translate(83.789062 0)"/>
       <use xlink:href="#DejaVuSans-2e" transform="translate(147.412109 0)"/>
       <use xlink:href="#DejaVuSans-31" transform="translate(179.199219 0)"/>
       <use xlink:href="#DejaVuSans-30" transform="translate(242.822266 0)"/>
      </g>
     </g>
    </g>
    <g id="ytick_3">
     <g id="line2d_15">
      <g>
       <use xlink:href="#m7d0802aefc" x="62.48" y="155.93495" style="stroke: #000000; stroke-width: 0.8"/>
      </g>
     </g>
     <g id="text_9">
      <!-- −0.05 -->
      <g transform="translate(24.834688 159.734169) scale(0.1 -0.1)">
       <use xlink:href="#DejaVuSans-2212"/>
       <use xlink:href="#DejaVuSans-30" transform="translate(83.789062 0)"/>
       <use xlink:href="#DejaVuSans-2e" transform="translate(147.412109 0)"/>
       <use xlink:href="#DejaVuSans-30" transform="translate(179.199219 0)"/>
       <use xlink:href="#DejaVuSans-35" transform="translate(242.822266 0)"/>
      </g>
     </g>
    </g>
    <g id="ytick_4">
     <g id="line2d_16">
      <g>
       <use xlink:href="#m7d0802aefc" x="62.48" y="89.74537" style="stroke: #000000; stroke-width: 0.8"/>
      </g>
     </g>
     <g id="text_10">
      <!-- 0.00 -->
      <g transform="translate(33.214375 93.544588) scale(0.1 -0.1)">
       <use xlink:href="#DejaVuSans-30"/>
       <use xlink:href="#DejaVuSans-2e" transform="translate(63.623047 0)"/>
       <use xlink:href="#DejaVuSans-30" transform="translate(95.410156 0)"/>
       <use xlink:href="#DejaVuSans-30" transform="translate(159.033203 0)"/>
      </g>
     </g>
    </g>
    <g id="text_11">
     <!-- Depth (m) -->
     <g transform="translate(18.755 204.730625) rotate(-90) scale(0.1 -0.1)">
      <defs>
       <path id="DejaVuSans-44" d="M 1259 4147 
L 1259 519 
L 2022 519 
Q 2988 519 3436 956 
Q 3884 1394 3884 2338 
Q 3884 3275 3436 3711 
Q 2988 4147 2022 4147 
L 1259 4147 
z
M 628 4666 
L 1925 4666 
Q 3281 4666 3915 4102 
Q 4550 3538 4550 2338 
Q 4550 1131 3912 565 
Q 3275 0 1925 0 
L 628 0 
L 628 4666 
z
" transform="scale(0.015625)"/>
       <path id="DejaVuSans-70" d="M 1159 525 
L 1159 -1331 
L 581 -1331 
L 581 3500 
L 1159 3500 
L 1159 2969 
Q 1341 3281 1617 3432 
Q 1894 3584 2278 3584 
Q 2916 3584 3314 3078 
Q 3713 2572 3713 1747 
Q 3713 922 3314 415 
Q 2916 -91 2278 -91 
Q 1894 -91 1617 61 
Q 1341 213 1159 525 
z
M 3116 1747 
Q 3116 2381 2855 2742 
Q 2594 3103 2138 3103 
Q 1681 3103 1420 2742 
Q 1159 2381 1159 1747 
Q 1159 1113 1420 752 
Q 1681 391 2138 391 
Q 2594 391 2855 752 
Q 3116 1113 3116 1747 
z
" transform="scale(0.015625)"/>
       <path id="DejaVuSans-74" d="M 1172 4494 
L 1172 3500 
L 2356 3500 
L 2356 3053 
L 1172 3053 
L 1172 1153 
Q 1172 725 1289 603 
Q 1406 481 1766 481 
L 2356 481 
L 2356 0 
L 1766 0 
Q 1100 0 847 248 
Q 594 497 594 1153 
L 594 3053 
L 172 3053 
L 172 3500 
L 594 3500 
L 594 4494 
L 1172 4494 
z
" transform="scale(0.015625)"/>
       <path id="DejaVuSans-68" d="M 3513 2113 
L 3513 0 
L 2938 0 
L 2938 2094 
Q 2938 2591 2744 2837 
Q 2550 3084 2163 3084 
Q 1697 3084 1428 2787 
Q 1159 2491 1159 1978 
L 1159 0 
L 581 0 
L 581 4863 
L 1159 4863 
L 1159 2956 
Q 1366 3272 1645 3428 
Q 1925 3584 2291 3584 
Q 2894 3584 3203 3211 
Q 3513 2838 3513 2113 
z
" transform="scale(0.015625)"/>
       <path id="DejaVuSans-20" transform="scale(0.015625)"/>
       <path id="DejaVuSans-28" d="M 1984 4856 
Q 1566 4138 1362 3434 
Q 1159 2731 1159 2009 
Q 1159 1288 1364 580 
Q 1569 -128 1984 -844 
L 1484 -844 
Q 1016 -109 783 600 
Q 550 1309 550 2009 
Q 550 2706 781 3412 
Q 1013 4119 1484 4856 
L 1984 4856 
z
" transform="scale(0.015625)"/>
       <path id="DejaVuSans-6d" d="M 3328 2828 
Q 3544 3216 3844 3400 
Q 4144 3584 4550 3584 
Q 5097 3584 5394 3201 
Q 5691 2819 5691 2113 
L 5691 0 
L 5113 0 
L 5113 2094 
Q 5113 2597 4934 2840 
Q 4756 3084 4391 3084 
Q 3944 3084 3684 2787 
Q 3425 2491 3425 1978 
L 3425 0 
L 2847 0 
L 2847 2094 
Q 2847 2600 2669 2842 
Q 2491 3084 2119 3084 
Q 1678 3084 1418 2786 
Q 1159 2488 1159 1978 
L 1159 0 
L 581 0 
L 581 3500 
L 1159 3500 
L 1159 2956 
Q 1356 3278 1631 3431 
Q 1906 3584 2284 3584 
Q 2666 3584 2933 3390 
Q 3200 3197 3328 2828 
z
" transform="scale(0.015625)"/>
       <path id="DejaVuSans-29" d="M 513 4856 
L 1013 4856 
Q 1481 4119 1714 3412 
Q 1947 2706 1947 2009 
Q 1947 1309 1714 600 
Q 1481 -109 1013 -844 
L 513 -844 
Q 928 -128 1133 580 
Q 1338 1288 1338 2009 
Q 1338 2731 1133 3434 
Q 928 4138 513 4856 
z
" transform="scale(0.015625)"/>
      </defs>
      <use xlink:href="#DejaVuSans-44"/>
      <use xlink:href="#DejaVuSans-65" transform="translate(77.001953 0)"/>
      <use xlink:href="#DejaVuSans-70" transform="translate(138.525391 0)"/>
      <use xlink:href="#DejaVuSans-74" transform="translate(202.001953 0)"/>
      <use xlink:href="#DejaVuSans-68" transform="translate(241.210938 0)"/>
      <use xlink:href="#DejaVuSans-20" transform="translate(304.589844 0)"/>
      <use xlink:href="#DejaVuSans-28" transform="translate(336.376953 0)"/>
      <use xlink:href="#DejaVuSans-6d" transform="translate(375.390625 0)"/>
      <use xlink:href="#DejaVuSans-29" transform="translate(472.802734 0)"/>
     </g>
    </g>
   </g>
   <g id="line2d_17">
    <path d="M 62.48 91.807813 
L 190.8295 107.38943 
L 319.179 89.74537 
L 447.5285 121.464545 
L 575.878 301.489453 
L 704.2275 276.233909 
" clip-path="url(#p84fd15dc19)" style="fill: none; stroke: #f7fbff; stroke-width: 1.5; stroke-linecap: square"/>
   </g>
   <g id="line2d_18">
    <path d="M 62.48 89.745834 
L 190.8295 89.74564 
L 319.179 89.74537 
L 447.5285 90.729249 
L 575.878 90.655843 
L 704.2275 89.671116 
" clip-path="url(#p84fd15dc19)" style="fill: none; stroke: #f5fafe; stroke-width: 1.5; stroke-linecap: square"/>
   </g>
   <g id="line2d_19">
    <path d="M 62.48 89.745388 
L 190.8295 89.74536 
L 319.179 89.74537 
L 447.5285 92.826546 
L 575.878 136.558119 
L 704.2275 134.445398 
" clip-path="url(#p84fd15dc19)" style="fill: none; stroke: #f4f9fe; stroke-width: 1.5; stroke-linecap: square"/>
   </g>
   <g id="line2d_20">
    <path d="M 62.48 89.745563 
L 190.8295 89.745386 
L 319.179 89.74537 
L 447.5285 94.827184 
L 575.878 123.577712 
L 704.2275 118.327165 
" clip-path="url(#p84fd15dc19)" style="fill: none; stroke: #f2f8fd; stroke-width: 1.5; stroke-linecap: square"/>
   </g>
   <g id="line2d_21">
    <path d="M 62.48 89.745509 
L 190.8295 89.745399 
L 319.179 89.74537 
L 447.5285 92.020675 
L 575.878 110.818319 
L 704.2275 108.569147 
" clip-path="url(#p84fd15dc19)" style="fill: none; stroke: #f1f7fd; stroke-width: 1.5; stroke-linecap: square"/>
   </g>
   <g id="line2d_22">
    <path d="M 62.48 89.90179 
L 190.8295 90.355039 
L 319.179 89.74537 
L 447.5285 94.603491 
L 575.878 190.274185 
L 704.2275 187.497648 
" clip-path="url(#p84fd15dc19)" style="fill: none; stroke: #eff6fc; stroke-width: 1.5; stroke-linecap: square"/>
   </g>
   <g id="line2d_23">
    <path d="M 62.48 89.745765 
L 190.8295 89.745692 
L 319.179 89.74537 
L 447.5285 95.182375 
L 575.878 147.16109 
L 704.2275 141.697145 
" clip-path="url(#p84fd15dc19)" style="fill: none; stroke: #eef5fc; stroke-width: 1.5; stroke-linecap: square"/>
   </g>
   <g id="line2d_24">
    <path d="M 62.48 89.745495 
L 190.8295 89.745464 
L 319.179 89.74537 
L 447.5285 92.195367 
L 575.878 114.99492 
L 704.2275 112.458977 
" clip-path="url(#p84fd15dc19)" style="fill: none; stroke: #ecf4fb; stroke-width: 1.5; stroke-linecap: square"/>
   </g>
   <g id="line2d_25">
    <path d="M 62.48 89.745335 
L 190.8295 89.74535 
L 319.179 89.74537 
L 447.5285 93.468517 
L 575.878 121.027251 
L 704.2275 117.006905 
" clip-path="url(#p84fd15dc19)" style="fill: none; stroke: #eaf3fb; stroke-width: 1.5; stroke-linecap: square"/>
   </g>
   <g id="line2d_26">
    <path d="M 62.48 89.735506 
L 190.8295 89.735049 
L 319.179 89.74537 
L 447.5285 91.565473 
L 575.878 90.144972 
L 704.2275 88.341662 
" clip-path="url(#p84fd15dc19)" style="fill: none; stroke: #e9f2fa; stroke-width: 1.5; stroke-linecap: square"/>
   </g>
   <g id="line2d_27">
    <path d="M 62.48 89.745373 
L 190.8295 89.745365 
L 319.179 89.74537 
L 447.5285 91.514474 
L 575.878 91.432275 
L 704.2275 89.741628 
" clip-path="url(#p84fd15dc19)" style="fill: none; stroke: #e7f1fa; stroke-width: 1.5; stroke-linecap: square"/>
   </g>
   <g id="line2d_28">
    <path d="M 62.48 89.745441 
L 190.8295 89.745327 
L 319.179 89.74537 
L 447.5285 92.595255 
L 575.878 121.276808 
L 704.2275 118.30033 
" clip-path="url(#p84fd15dc19)" style="fill: none; stroke: #e6f0f9; stroke-width: 1.5; stroke-linecap: square"/>
   </g>
   <g id="line2d_29">
    <path d="M 62.48 89.745389 
L 190.8295 89.745357 
L 319.179 89.74537 
L 447.5285 91.098732 
L 575.878 91.086773 
L 704.2275 89.732582 
" clip-path="url(#p84fd15dc19)" style="fill: none; stroke: #e4eff9; stroke-width: 1.5; stroke-linecap: square"/>
   </g>
   <g id="line2d_30">
    <path d="M 62.48 89.745374 
L 190.8295 89.745362 
L 319.179 89.74537 
L 447.5285 91.185343 
L 575.878 93.486134 
L 704.2275 92.053432 
" clip-path="url(#p84fd15dc19)" style="fill: none; stroke: #e3eef8; stroke-width: 1.5; stroke-linecap: square"/>
   </g>
   <g id="line2d_31">
    <path d="M 62.48 89.745424 
L 190.8295 89.745414 
L 319.179 89.74537 
L 447.5285 90.680152 
L 575.878 90.669525 
L 704.2275 89.735285 
" clip-path="url(#p84fd15dc19)" style="fill: none; stroke: #e1edf8; stroke-width: 1.5; stroke-linecap: square"/>
   </g>
   <g id="line2d_32">
    <path d="M 62.48 89.745743 
L 190.8295 89.745568 
L 319.179 89.74537 
L 447.5285 90.565947 
L 575.878 90.535592 
L 704.2275 89.713984 
" clip-path="url(#p84fd15dc19)" style="fill: none; stroke: #dfecf7; stroke-width: 1.5; stroke-linecap: square"/>
   </g>
   <g id="line2d_33">
    <path d="M 62.48 89.744462 
L 190.8295 89.744828 
L 319.179 89.74537 
L 447.5285 93.8243 
L 575.878 122.790214 
L 704.2275 118.633239 
" clip-path="url(#p84fd15dc19)" style="fill: none; stroke: #deebf7; stroke-width: 1.5; stroke-linecap: square"/>
   </g>
   <g id="line2d_34">
    <path d="M 62.48 89.745313 
L 190.8295 89.745322 
L 319.179 89.74537 
L 447.5285 91.591664 
L 575.878 117.032679 
L 704.2275 115.321953 
" clip-path="url(#p84fd15dc19)" style="fill: none; stroke: #dceaf6; stroke-width: 1.5; stroke-linecap: square"/>
   </g>
   <g id="line2d_35">
    <path d="M 62.48 89.744947 
L 190.8295 89.74539 
L 319.179 89.74537 
L 447.5285 90.4081 
L 575.878 90.40214 
L 704.2275 89.740173 
" clip-path="url(#p84fd15dc19)" style="fill: none; stroke: #dbe9f6; stroke-width: 1.5; stroke-linecap: square"/>
   </g>
   <g id="line2d_36">
    <path d="M 62.48 89.745382 
L 190.8295 89.74536 
L 319.179 89.74537 
L 447.5285 91.001991 
L 575.878 90.994451 
L 704.2275 89.734994 
" clip-path="url(#p84fd15dc19)" style="fill: none; stroke: #d9e8f5; stroke-width: 1.5; stroke-linecap: square"/>
   </g>
   <g id="line2d_37">
    <path d="M 62.48 89.745414 
L 190.8295 89.745339 
L 319.179 89.74537 
L 447.5285 91.813841 
L 575.878 91.773664 
L 704.2275 89.702835 
" clip-path="url(#p84fd15dc19)" style="fill: none; stroke: #d8e7f5; stroke-width: 1.5; stroke-linecap: square"/>
   </g>
   <g id="line2d_38">
    <path d="M 62.48 89.747936 
L 190.8295 110.786354 
L 319.179 89.74537 
L 447.5285 114.217741 
L 575.878 137.786654 
L 704.2275 115.623273 
" clip-path="url(#p84fd15dc19)" style="fill: none; stroke: #d6e6f4; stroke-width: 1.5; stroke-linecap: square"/>
   </g>
   <g id="line2d_39">
    <path d="M 62.48 89.745399 
L 190.8295 89.745349 
L 319.179 89.74537 
L 447.5285 93.634788 
L 575.878 103.167845 
L 704.2275 99.245706 
" clip-path="url(#p84fd15dc19)" style="fill: none; stroke: #d5e5f4; stroke-width: 1.5; stroke-linecap: square"/>
   </g>
   <g id="line2d_40">
    <path d="M 62.48 89.745773 
L 190.8295 89.745248 
L 319.179 89.74537 
L 447.5285 89.746476 
L 575.878 89.775778 
L 704.2275 89.755235 
" clip-path="url(#p84fd15dc19)" style="fill: none; stroke: #d3e4f3; stroke-width: 1.5; stroke-linecap: square"/>
   </g>
   <g id="line2d_41">
    <path d="M 62.48 89.745263 
L 190.8295 89.745614 
L 319.179 89.74537 
L 447.5285 89.720485 
L 575.878 90.093421 
L 704.2275 90.188904 
" clip-path="url(#p84fd15dc19)" style="fill: none; stroke: #d2e3f3; stroke-width: 1.5; stroke-linecap: square"/>
   </g>
   <g id="line2d_42">
    <path d="M 62.48 89.745396 
L 190.8295 89.745351 
L 319.179 89.74537 
L 447.5285 91.180199 
L 575.878 91.15879 
L 704.2275 89.722702 
" clip-path="url(#p84fd15dc19)" style="fill: none; stroke: #d0e2f2; stroke-width: 1.5; stroke-linecap: square"/>
   </g>
   <g id="line2d_43">
    <path d="M 62.48 89.745357 
L 190.8295 89.745375 
L 319.179 89.74537 
L 447.5285 90.623983 
L 575.878 90.624074 
L 704.2275 89.745405 
" clip-path="url(#p84fd15dc19)" style="fill: none; stroke: #cfe1f2; stroke-width: 1.5; stroke-linecap: square"/>
   </g>
   <g id="line2d_44">
    <path d="M 62.48 89.745374 
L 190.8295 89.745352 
L 319.179 89.74537 
L 447.5285 91.89899 
L 575.878 95.425303 
L 704.2275 93.31959 
" clip-path="url(#p84fd15dc19)" style="fill: none; stroke: #cde0f1; stroke-width: 1.5; stroke-linecap: square"/>
   </g>
   <g id="line2d_45">
    <path d="M 62.48 89.744471 
L 190.8295 89.744835 
L 319.179 89.74537 
L 447.5285 92.657562 
L 575.878 117.278232 
L 704.2275 114.371514 
" clip-path="url(#p84fd15dc19)" style="fill: none; stroke: #ccdff1; stroke-width: 1.5; stroke-linecap: square"/>
   </g>
   <g id="line2d_46">
    <path d="M 62.48 94.612684 
L 190.8295 97.574638 
L 319.179 89.74537 
L 447.5285 106.215459 
L 575.878 146.220511 
L 704.2275 130.03202 
" clip-path="url(#p84fd15dc19)" style="fill: none; stroke: #cadef0; stroke-width: 1.5; stroke-linecap: square"/>
   </g>
   <g id="line2d_47">
    <path d="M 62.48 90.453265 
L 190.8295 89.745331 
L 319.179 89.74537 
L 447.5285 92.371612 
L 575.878 108.666974 
L 704.2275 106.366342 
" clip-path="url(#p84fd15dc19)" style="fill: none; stroke: #c9ddf0; stroke-width: 1.5; stroke-linecap: square"/>
   </g>
   <g id="line2d_48">
    <path d="M 62.48 91.120748 
L 190.8295 89.745194 
L 319.179 89.74537 
L 447.5285 92.61828 
L 575.878 97.435381 
L 704.2275 94.630162 
" clip-path="url(#p84fd15dc19)" style="fill: none; stroke: #c7dcef; stroke-width: 1.5; stroke-linecap: square"/>
   </g>
   <g id="line2d_49">
    <path d="M 62.48 89.74534 
L 190.8295 89.745347 
L 319.179 89.74537 
L 447.5285 90.570941 
L 575.878 90.570776 
L 704.2275 89.745332 
" clip-path="url(#p84fd15dc19)" style="fill: none; stroke: #c4daee; stroke-width: 1.5; stroke-linecap: square"/>
   </g>
   <g id="line2d_50">
    <path d="M 62.48 89.745384 
L 190.8295 89.74536 
L 319.179 89.74537 
L 447.5285 90.513928 
L 575.878 90.513901 
L 704.2275 89.745382 
" clip-path="url(#p84fd15dc19)" style="fill: none; stroke: #c2d9ee; stroke-width: 1.5; stroke-linecap: square"/>
   </g>
   <g id="line2d_51">
    <path d="M 62.48 100.644561 
L 190.8295 89.779586 
L 319.179 89.74537 
L 447.5285 104.503183 
L 575.878 145.754163 
L 704.2275 130.050907 
" clip-path="url(#p84fd15dc19)" style="fill: none; stroke: #bfd8ed; stroke-width: 1.5; stroke-linecap: square"/>
   </g>
   <g id="line2d_52">
    <path d="M 62.48 89.740908 
L 190.8295 89.741118 
L 319.179 89.74537 
L 447.5285 101.865348 
L 575.878 223.839406 
L 704.2275 202.185811 
" clip-path="url(#p84fd15dc19)" style="fill: none; stroke: #bdd7ec; stroke-width: 1.5; stroke-linecap: square"/>
   </g>
   <g id="line2d_53">
    <path d="M 62.48 102.976332 
L 190.8295 89.735258 
L 319.179 89.74537 
L 447.5285 108.256501 
L 575.878 153.018427 
L 704.2275 133.582155 
" clip-path="url(#p84fd15dc19)" style="fill: none; stroke: #bad6eb; stroke-width: 1.5; stroke-linecap: square"/>
   </g>
   <g id="line2d_54">
    <path d="M 62.48 89.434216 
L 190.8295 89.759392 
L 319.179 89.74537 
L 447.5285 91.72113 
L 575.878 90.058335 
L 704.2275 88.085621 
" clip-path="url(#p84fd15dc19)" style="fill: none; stroke: #b8d5ea; stroke-width: 1.5; stroke-linecap: square"/>
   </g>
   <g id="line2d_55">
    <path d="M 62.48 96.305694 
L 190.8295 89.647256 
L 319.179 89.74537 
L 447.5285 99.759538 
L 575.878 138.520116 
L 704.2275 130.537121 
" clip-path="url(#p84fd15dc19)" style="fill: none; stroke: #b5d4e9; stroke-width: 1.5; stroke-linecap: square"/>
   </g>
   <g id="line2d_56">
    <path d="M 62.48 101.194052 
L 190.8295 107.576442 
L 319.179 89.74537 
L 447.5285 127.916011 
L 575.878 214.240246 
L 704.2275 176.208225 
" clip-path="url(#p84fd15dc19)" style="fill: none; stroke: #b3d3e8; stroke-width: 1.5; stroke-linecap: square"/>
   </g>
   <g id="line2d_57">
    <path d="M 62.48 89.745423 
L 190.8295 89.745235 
L 319.179 89.74537 
L 447.5285 95.825745 
L 575.878 121.25178 
L 704.2275 115.081653 
" clip-path="url(#p84fd15dc19)" style="fill: none; stroke: #b0d2e7; stroke-width: 1.5; stroke-linecap: square"/>
   </g>
   <g id="line2d_58">
    <path d="M 62.48 89.745376 
L 190.8295 89.745373 
L 319.179 89.74537 
L 447.5285 91.089208 
L 575.878 91.089008 
L 704.2275 89.745132 
" clip-path="url(#p84fd15dc19)" style="fill: none; stroke: #aed1e7; stroke-width: 1.5; stroke-linecap: square"/>
   </g>
   <g id="line2d_59">
    <path d="M 62.48 94.623947 
L 190.8295 99.876415 
L 319.179 89.74537 
L 447.5285 110.503086 
L 575.878 154.994467 
L 704.2275 143.825987 
" clip-path="url(#p84fd15dc19)" style="fill: none; stroke: #abd0e6; stroke-width: 1.5; stroke-linecap: square"/>
   </g>
   <g id="line2d_60">
    <path d="M 62.48 98.027691 
L 190.8295 104.717412 
L 319.179 89.74537 
L 447.5285 119.504953 
L 575.878 195.973918 
L 704.2275 172.610171 
" clip-path="url(#p84fd15dc19)" style="fill: none; stroke: #a9cfe5; stroke-width: 1.5; stroke-linecap: square"/>
   </g>
   <g id="line2d_61">
    <path d="M 62.48 93.072475 
L 190.8295 95.479737 
L 319.179 89.74537 
L 447.5285 101.646164 
L 575.878 71.098483 
L 704.2275 58.634233 
" clip-path="url(#p84fd15dc19)" style="fill: none; stroke: #a6cee4; stroke-width: 1.5; stroke-linecap: square"/>
   </g>
   <g id="line2d_62">
    <path d="M 62.48 89.745552 
L 190.8295 89.745435 
L 319.179 89.74537 
L 447.5285 94.373679 
L 575.878 150.829847 
L 704.2275 148.879846 
" clip-path="url(#p84fd15dc19)" style="fill: none; stroke: #a4cce3; stroke-width: 1.5; stroke-linecap: square"/>
   </g>
   <g id="line2d_63">
    <path d="M 62.48 91.762028 
L 190.8295 89.732371 
L 319.179 89.74537 
L 447.5285 93.026443 
L 575.878 92.939345 
L 704.2275 89.650475 
" clip-path="url(#p84fd15dc19)" style="fill: none; stroke: #a1cbe2; stroke-width: 1.5; stroke-linecap: square"/>
   </g>
   <g id="line2d_64">
    <path d="M 62.48 94.042576 
L 190.8295 95.912675 
L 319.179 89.74537 
L 447.5285 105.152289 
L 575.878 136.195543 
L 704.2275 118.590401 
" clip-path="url(#p84fd15dc19)" style="fill: none; stroke: #9fcae1; stroke-width: 1.5; stroke-linecap: square"/>
   </g>
   <g id="line2d_65">
    <path d="M 62.48 89.745381 
L 190.8295 89.745376 
L 319.179 89.74537 
L 447.5285 90.422858 
L 575.878 90.421898 
L 704.2275 89.744342 
" clip-path="url(#p84fd15dc19)" style="fill: none; stroke: #9cc9e1; stroke-width: 1.5; stroke-linecap: square"/>
   </g>
   <g id="line2d_66">
    <path d="M 62.48 89.745948 
L 190.8295 89.746224 
L 319.179 89.74537 
L 447.5285 91.098097 
L 575.878 90.514788 
L 704.2275 89.159687 
" clip-path="url(#p84fd15dc19)" style="fill: none; stroke: #99c7e0; stroke-width: 1.5; stroke-linecap: square"/>
   </g>
   <g id="line2d_67">
    <path d="M 62.48 93.54944 
L 190.8295 107.101677 
L 319.179 89.74537 
L 447.5285 117.841972 
L 575.878 186.313986 
L 704.2275 164.427037 
" clip-path="url(#p84fd15dc19)" style="fill: none; stroke: #95c5df; stroke-width: 1.5; stroke-linecap: square"/>
   </g>
   <g id="line2d_68">
    <path d="M 62.48 100.261677 
L 190.8295 105.50971 
L 319.179 89.74537 
L 447.5285 128.997848 
L 575.878 318.212727 
L 704.2275 265.821663 
" clip-path="url(#p84fd15dc19)" style="fill: none; stroke: #92c4de; stroke-width: 1.5; stroke-linecap: square"/>
   </g>
   <g id="line2d_69">
    <path d="M 62.48 89.743123 
L 190.8295 89.741596 
L 319.179 89.74537 
L 447.5285 90.79548 
L 575.878 93.299363 
L 704.2275 92.254344 
" clip-path="url(#p84fd15dc19)" style="fill: none; stroke: #8fc2de; stroke-width: 1.5; stroke-linecap: square"/>
   </g>
   <g id="line2d_70">
    <path d="M 62.48 89.7526 
L 190.8295 89.744518 
L 319.179 89.74537 
L 447.5285 91.858658 
L 575.878 89.096731 
L 704.2275 86.946801 
" clip-path="url(#p84fd15dc19)" style="fill: none; stroke: #8cc0dd; stroke-width: 1.5; stroke-linecap: square"/>
   </g>
   <g id="line2d_71">
    <path d="M 62.48 89.745409 
L 190.8295 89.745356 
L 319.179 89.74537 
L 447.5285 90.665759 
L 575.878 90.619477 
L 704.2275 89.708418 
" clip-path="url(#p84fd15dc19)" style="fill: none; stroke: #89bedc; stroke-width: 1.5; stroke-linecap: square"/>
   </g>
   <g id="line2d_72">
    <path d="M 62.48 89.74556 
L 190.8295 89.745512 
L 319.179 89.74537 
L 447.5285 91.28788 
L 575.878 94.714457 
L 704.2275 93.211705 
" clip-path="url(#p84fd15dc19)" style="fill: none; stroke: #85bcdc; stroke-width: 1.5; stroke-linecap: square"/>
   </g>
   <g id="line2d_73">
    <path d="M 62.48 89.7454 
L 190.8295 89.745743 
L 319.179 89.74537 
L 447.5285 93.384219 
L 575.878 110.827731 
L 704.2275 107.200219 
" clip-path="url(#p84fd15dc19)" style="fill: none; stroke: #82bbdb; stroke-width: 1.5; stroke-linecap: square"/>
   </g>
   <g id="line2d_74">
    <path d="M 62.48 89.745378 
L 190.8295 89.745371 
L 319.179 89.74537 
L 447.5285 90.999841 
L 575.878 90.999837 
L 704.2275 89.745378 
" clip-path="url(#p84fd15dc19)" style="fill: none; stroke: #7fb9da; stroke-width: 1.5; stroke-linecap: square"/>
   </g>
   <g id="line2d_75">
    <path d="M 62.48 89.745591 
L 190.8295 89.745539 
L 319.179 89.74537 
L 447.5285 93.175277 
L 575.878 92.72461 
L 704.2275 89.312382 
" clip-path="url(#p84fd15dc19)" style="fill: none; stroke: #7cb7da; stroke-width: 1.5; stroke-linecap: square"/>
   </g>
   <g id="line2d_76">
    <path d="M 62.48 89.745438 
L 190.8295 89.723455 
L 319.179 89.74537 
L 447.5285 91.514994 
L 575.878 91.390747 
L 704.2275 89.64411 
" clip-path="url(#p84fd15dc19)" style="fill: none; stroke: #79b5d9; stroke-width: 1.5; stroke-linecap: square"/>
   </g>
   <g id="line2d_77">
    <path d="M 62.48 89.744769 
L 190.8295 89.743837 
L 319.179 89.74537 
L 447.5285 95.779195 
L 575.878 141.046392 
L 704.2275 134.958667 
" clip-path="url(#p84fd15dc19)" style="fill: none; stroke: #75b4d8; stroke-width: 1.5; stroke-linecap: square"/>
   </g>
   <g id="line2d_78">
    <path d="M 62.48 89.745047 
L 190.8295 89.745786 
L 319.179 89.74537 
L 447.5285 93.693794 
L 575.878 118.015736 
L 704.2275 114.083024 
" clip-path="url(#p84fd15dc19)" style="fill: none; stroke: #72b2d8; stroke-width: 1.5; stroke-linecap: square"/>
   </g>
   <g id="line2d_79">
    <path d="M 62.48 89.745577 
L 190.8295 89.745494 
L 319.179 89.74537 
L 447.5285 90.269974 
L 575.878 90.266062 
L 704.2275 89.740565 
" clip-path="url(#p84fd15dc19)" style="fill: none; stroke: #6fb0d7; stroke-width: 1.5; stroke-linecap: square"/>
   </g>
   <g id="line2d_80">
    <path d="M 62.48 89.745584 
L 190.8295 106.193183 
L 319.179 89.74537 
L 447.5285 107.954908 
L 575.878 107.954215 
L 704.2275 89.744117 
" clip-path="url(#p84fd15dc19)" style="fill: none; stroke: #6aaed6; stroke-width: 1.5; stroke-linecap: square"/>
   </g>
   <g id="line2d_81">
    <path d="M 62.48 89.743398 
L 190.8295 89.744443 
L 319.179 89.74537 
L 447.5285 91.430252 
L 575.878 124.892812 
L 704.2275 122.836071 
" clip-path="url(#p84fd15dc19)" style="fill: none; stroke: #68acd5; stroke-width: 1.5; stroke-linecap: square"/>
   </g>
   <g id="line2d_82">
    <path d="M 62.48 89.745257 
L 190.8295 89.745238 
L 319.179 89.74537 
L 447.5285 90.756289 
L 575.878 88.987265 
L 704.2275 87.948151 
" clip-path="url(#p84fd15dc19)" style="fill: none; stroke: #65aad4; stroke-width: 1.5; stroke-linecap: square"/>
   </g>
   <g id="line2d_83">
    <path d="M 62.48 89.744955 
L 190.8295 89.883876 
L 319.179 89.74537 
L 447.5285 96.893388 
L 575.878 157.292004 
L 704.2275 149.27014 
" clip-path="url(#p84fd15dc19)" style="fill: none; stroke: #63a8d3; stroke-width: 1.5; stroke-linecap: square"/>
   </g>
   <g id="line2d_84">
    <path d="M 62.48 89.745374 
L 190.8295 111.379358 
L 319.179 89.74537 
L 447.5285 113.221579 
L 575.878 115.328136 
L 704.2275 92.148958 
" clip-path="url(#p84fd15dc19)" style="fill: none; stroke: #60a7d2; stroke-width: 1.5; stroke-linecap: square"/>
   </g>
   <g id="line2d_85">
    <path d="M 62.48 89.743867 
L 190.8295 89.858765 
L 319.179 89.74537 
L 447.5285 94.984218 
L 575.878 138.9675 
L 704.2275 136.836587 
" clip-path="url(#p84fd15dc19)" style="fill: none; stroke: #5da5d1; stroke-width: 1.5; stroke-linecap: square"/>
   </g>
   <g id="line2d_86">
    <path d="M 62.48 89.745652 
L 190.8295 95.391056 
L 319.179 89.74537 
L 447.5285 98.309524 
L 575.878 120.027102 
L 704.2275 114.179231 
" clip-path="url(#p84fd15dc19)" style="fill: none; stroke: #5ba3d0; stroke-width: 1.5; stroke-linecap: square"/>
   </g>
   <g id="line2d_87">
    <path d="M 62.48 89.745381 
L 190.8295 89.745367 
L 319.179 89.74537 
L 447.5285 94.114687 
L 575.878 136.887813 
L 704.2275 132.689255 
" clip-path="url(#p84fd15dc19)" style="fill: none; stroke: #58a1cf; stroke-width: 1.5; stroke-linecap: square"/>
   </g>
   <g id="line2d_88">
    <path d="M 62.48 89.745468 
L 190.8295 89.745484 
L 319.179 89.74537 
L 447.5285 90.705407 
L 575.878 90.540059 
L 704.2275 89.576651 
" clip-path="url(#p84fd15dc19)" style="fill: none; stroke: #56a0ce; stroke-width: 1.5; stroke-linecap: square"/>
   </g>
   <g id="line2d_89">
    <path d="M 62.48 89.745465 
L 190.8295 89.745339 
L 319.179 89.74537 
L 447.5285 92.610812 
L 575.878 90.294471 
L 704.2275 87.37592 
" clip-path="url(#p84fd15dc19)" style="fill: none; stroke: #539ecd; stroke-width: 1.5; stroke-linecap: square"/>
   </g>
   <g id="line2d_90">
    <path d="M 62.48 89.744658 
L 190.8295 89.744629 
L 319.179 89.74537 
L 447.5285 94.93176 
L 575.878 158.608862 
L 704.2275 153.160958 
" clip-path="url(#p84fd15dc19)" style="fill: none; stroke: #519ccc; stroke-width: 1.5; stroke-linecap: square"/>
   </g>
   <g id="line2d_91">
    <path d="M 62.48 89.745452 
L 190.8295 89.745315 
L 319.179 89.74537 
L 447.5285 90.895897 
L 575.878 94.132545 
L 704.2275 92.972843 
" clip-path="url(#p84fd15dc19)" style="fill: none; stroke: #4e9acb; stroke-width: 1.5; stroke-linecap: square"/>
   </g>
   <g id="line2d_92">
    <path d="M 62.48 89.745423 
L 190.8295 89.745371 
L 319.179 89.74537 
L 447.5285 94.985702 
L 575.878 126.08021 
L 704.2275 120.806992 
" clip-path="url(#p84fd15dc19)" style="fill: none; stroke: #4b98ca; stroke-width: 1.5; stroke-linecap: square"/>
   </g>
   <g id="line2d_93">
    <path d="M 62.48 89.745386 
L 190.8295 89.745374 
L 319.179 89.74537 
L 447.5285 90.621555 
L 575.878 90.616109 
L 704.2275 89.73979 
" clip-path="url(#p84fd15dc19)" style="fill: none; stroke: #4997c9; stroke-width: 1.5; stroke-linecap: square"/>
   </g>
   <g id="line2d_94">
    <path d="M 62.48 96.672063 
L 190.8295 105.011759 
L 319.179 89.74537 
L 447.5285 120.340837 
L 575.878 214.44523 
L 704.2275 205.046402 
" clip-path="url(#p84fd15dc19)" style="fill: none; stroke: #4695c8; stroke-width: 1.5; stroke-linecap: square"/>
   </g>
   <g id="line2d_95">
    <path d="M 62.48 94.027216 
L 190.8295 101.037621 
L 319.179 89.74537 
L 447.5285 113.669483 
L 575.878 190.097932 
L 704.2275 184.304811 
" clip-path="url(#p84fd15dc19)" style="fill: none; stroke: #4493c7; stroke-width: 1.5; stroke-linecap: square"/>
   </g>
   <g id="line2d_96">
    <path d="M 62.48 89.745415 
L 190.8295 89.745382 
L 319.179 89.74537 
L 447.5285 91.94448 
L 575.878 125.646905 
L 704.2275 123.639008 
" clip-path="url(#p84fd15dc19)" style="fill: none; stroke: #4191c6; stroke-width: 1.5; stroke-linecap: square"/>
   </g>
   <g id="line2d_97">
    <path d="M 62.48 89.745468 
L 190.8295 89.745344 
L 319.179 89.74537 
L 447.5285 91.592279 
L 575.878 90.729201 
L 704.2275 88.86377 
" clip-path="url(#p84fd15dc19)" style="fill: none; stroke: #3f8fc5; stroke-width: 1.5; stroke-linecap: square"/>
   </g>
   <g id="line2d_98">
    <path d="M 62.48 89.745457 
L 190.8295 89.745435 
L 319.179 89.74537 
L 447.5285 91.179876 
L 575.878 101.922353 
L 704.2275 100.545209 
" clip-path="url(#p84fd15dc19)" style="fill: none; stroke: #3d8dc4; stroke-width: 1.5; stroke-linecap: square"/>
   </g>
   <g id="line2d_99">
    <path d="M 62.48 89.745152 
L 190.8295 89.745174 
L 319.179 89.74537 
L 447.5285 92.285141 
L 575.878 113.52783 
L 704.2275 110.92219 
" clip-path="url(#p84fd15dc19)" style="fill: none; stroke: #3b8bc2; stroke-width: 1.5; stroke-linecap: square"/>
   </g>
   <g id="line2d_100">
    <path d="M 62.48 89.745391 
L 190.8295 89.745332 
L 319.179 89.74537 
L 447.5285 90.88494 
L 575.878 92.141257 
L 704.2275 91.004862 
" clip-path="url(#p84fd15dc19)" style="fill: none; stroke: #3989c1; stroke-width: 1.5; stroke-linecap: square"/>
   </g>
   <g id="line2d_101">
    <path d="M 62.48 89.745396 
L 190.8295 89.745349 
L 319.179 89.74537 
L 447.5285 91.776872 
L 575.878 91.766507 
L 704.2275 89.734299 
" clip-path="url(#p84fd15dc19)" style="fill: none; stroke: #3787c0; stroke-width: 1.5; stroke-linecap: square"/>
   </g>
   <g id="line2d_102">
    <path d="M 62.48 89.745398 
L 190.8295 89.745355 
L 319.179 89.74537 
L 447.5285 92.143026 
L 575.878 91.748748 
L 704.2275 89.347683 
" clip-path="url(#p84fd15dc19)" style="fill: none; stroke: #3585bf; stroke-width: 1.5; stroke-linecap: square"/>
   </g>
   <g id="line2d_103">
    <path d="M 62.48 95.404475 
L 190.8295 98.859422 
L 319.179 89.74537 
L 447.5285 109.672344 
L 575.878 63.116605 
L 704.2275 40.067273 
" clip-path="url(#p84fd15dc19)" style="fill: none; stroke: #3383be; stroke-width: 1.5; stroke-linecap: square"/>
   </g>
   <g id="line2d_104">
    <path d="M 62.48 94.190489 
L 190.8295 97.548157 
L 319.179 89.74537 
L 447.5285 106.192662 
L 575.878 59.660896 
L 704.2275 41.537124 
" clip-path="url(#p84fd15dc19)" style="fill: none; stroke: #3181bd; stroke-width: 1.5; stroke-linecap: square"/>
   </g>
   <g id="line2d_105">
    <path d="M 62.48 89.745409 
L 190.8295 89.745347 
L 319.179 89.74537 
L 447.5285 92.493911 
L 575.878 106.421802 
L 704.2275 103.595657 
" clip-path="url(#p84fd15dc19)" style="fill: none; stroke: #2f7fbc; stroke-width: 1.5; stroke-linecap: square"/>
   </g>
   <g id="line2d_106">
    <path d="M 62.48 89.745392 
L 190.8295 89.745351 
L 319.179 89.74537 
L 447.5285 90.941962 
L 575.878 90.872242 
L 704.2275 89.681407 
" clip-path="url(#p84fd15dc19)" style="fill: none; stroke: #2d7dbb; stroke-width: 1.5; stroke-linecap: square"/>
   </g>
   <g id="line2d_107">
    <path d="M 62.48 94.684271 
L 190.8295 101.24847 
L 319.179 89.74537 
L 447.5285 112.31662 
L 575.878 180.290968 
L 704.2275 167.043817 
" clip-path="url(#p84fd15dc19)" style="fill: none; stroke: #2b7bba; stroke-width: 1.5; stroke-linecap: square"/>
   </g>
   <g id="line2d_108">
    <path d="M 62.48 96.248942 
L 190.8295 102.184812 
L 319.179 89.74537 
L 447.5285 116.222207 
L 575.878 186.534783 
L 704.2275 176.759287 
" clip-path="url(#p84fd15dc19)" style="fill: none; stroke: #2979b9; stroke-width: 1.5; stroke-linecap: square"/>
   </g>
   <g id="line2d_109">
    <path d="M 62.48 89.745369 
L 190.8295 89.745365 
L 319.179 89.74537 
L 447.5285 91.838612 
L 575.878 91.858729 
L 704.2275 89.7623 
" clip-path="url(#p84fd15dc19)" style="fill: none; stroke: #2676b8; stroke-width: 1.5; stroke-linecap: square"/>
   </g>
   <g id="line2d_110">
    <path d="M 62.48 89.779519 
L 190.8295 89.882172 
L 319.179 89.74537 
L 447.5285 91.867736 
L 575.878 102.66699 
L 704.2275 100.690753 
" clip-path="url(#p84fd15dc19)" style="fill: none; stroke: #2474b7; stroke-width: 1.5; stroke-linecap: square"/>
   </g>
   <g id="line2d_111">
    <path d="M 62.48 89.745194 
L 190.8295 89.74511 
L 319.179 89.74537 
L 447.5285 91.502578 
L 575.878 91.185792 
L 704.2275 89.420584 
" clip-path="url(#p84fd15dc19)" style="fill: none; stroke: #2272b6; stroke-width: 1.5; stroke-linecap: square"/>
   </g>
   <g id="line2d_112">
    <path d="M 62.48 89.745372 
L 190.8295 89.745364 
L 319.179 89.74537 
L 447.5285 90.947648 
L 575.878 88.786807 
L 704.2275 88.186004 
" clip-path="url(#p84fd15dc19)" style="fill: none; stroke: #206fb4; stroke-width: 1.5; stroke-linecap: square"/>
   </g>
   <g id="line2d_113">
    <path d="M 62.48 89.744552 
L 190.8295 89.744595 
L 319.179 89.74537 
L 447.5285 89.599195 
L 575.878 89.428298 
L 704.2275 89.447054 
" clip-path="url(#p84fd15dc19)" style="fill: none; stroke: #1e6db2; stroke-width: 1.5; stroke-linecap: square"/>
   </g>
   <g id="line2d_114">
    <path d="M 62.48 89.794847 
L 190.8295 89.939996 
L 319.179 89.74537 
L 447.5285 92.186745 
L 575.878 119.34744 
L 704.2275 117.458551 
" clip-path="url(#p84fd15dc19)" style="fill: none; stroke: #1c6bb0; stroke-width: 1.5; stroke-linecap: square"/>
   </g>
   <g id="line2d_115">
    <path d="M 62.48 89.754344 
L 190.8295 98.701147 
L 319.179 89.74537 
L 447.5285 99.954549 
L 575.878 99.609418 
L 704.2275 89.390987 
" clip-path="url(#p84fd15dc19)" style="fill: none; stroke: #1b69af; stroke-width: 1.5; stroke-linecap: square"/>
   </g>
   <g id="line2d_116">
    <path d="M 62.48 89.745411 
L 190.8295 89.745358 
L 319.179 89.74537 
L 447.5285 91.835094 
L 575.878 91.722853 
L 704.2275 89.627795 
" clip-path="url(#p84fd15dc19)" style="fill: none; stroke: #1967ad; stroke-width: 1.5; stroke-linecap: square"/>
   </g>
   <g id="line2d_117">
    <path d="M 62.48 89.757126 
L 190.8295 89.735135 
L 319.179 89.74537 
L 447.5285 94.707534 
L 575.878 131.183846 
L 704.2275 126.354468 
" clip-path="url(#p84fd15dc19)" style="fill: none; stroke: #1865ac; stroke-width: 1.5; stroke-linecap: square"/>
   </g>
   <g id="line2d_118">
    <path d="M 62.48 89.745515 
L 190.8295 89.746101 
L 319.179 89.74537 
L 447.5285 90.682261 
L 575.878 90.424688 
L 704.2275 89.490147 
" clip-path="url(#p84fd15dc19)" style="fill: none; stroke: #1663aa; stroke-width: 1.5; stroke-linecap: square"/>
   </g>
   <g id="line2d_119">
    <path d="M 62.48 89.745372 
L 190.8295 89.745368 
L 319.179 89.74537 
L 447.5285 90.321253 
L 575.878 90.319307 
L 704.2275 89.745372 
" clip-path="url(#p84fd15dc19)" style="fill: none; stroke: #1561a9; stroke-width: 1.5; stroke-linecap: square"/>
   </g>
   <g id="line2d_120">
    <path d="M 62.48 89.745414 
L 190.8295 89.745385 
L 319.179 89.74537 
L 447.5285 94.024913 
L 575.878 136.510642 
L 704.2275 132.0245 
" clip-path="url(#p84fd15dc19)" style="fill: none; stroke: #135fa7; stroke-width: 1.5; stroke-linecap: square"/>
   </g>
   <g id="line2d_121">
    <path d="M 62.48 89.745374 
L 190.8295 89.745365 
L 319.179 89.74537 
L 447.5285 91.4052 
L 575.878 91.374208 
L 704.2275 89.739496 
" clip-path="url(#p84fd15dc19)" style="fill: none; stroke: #125da6; stroke-width: 1.5; stroke-linecap: square"/>
   </g>
   <g id="line2d_122">
    <path d="M 62.48 90.470542 
L 190.8295 91.09785 
L 319.179 89.74537 
L 447.5285 94.34575 
L 575.878 152.335144 
L 704.2275 149.505501 
" clip-path="url(#p84fd15dc19)" style="fill: none; stroke: #105ba4; stroke-width: 1.5; stroke-linecap: square"/>
   </g>
   <g id="line2d_123">
    <path d="M 62.48 89.749625 
L 190.8295 110.167332 
L 319.179 89.74537 
L 447.5285 113.574523 
L 575.878 134.97722 
L 704.2275 110.769681 
" clip-path="url(#p84fd15dc19)" style="fill: none; stroke: #0e59a2; stroke-width: 1.5; stroke-linecap: square"/>
   </g>
   <g id="line2d_124">
    <path d="M 62.48 89.745377 
L 190.8295 89.745363 
L 319.179 89.74537 
L 447.5285 90.980322 
L 575.878 90.980306 
L 704.2275 89.745377 
" clip-path="url(#p84fd15dc19)" style="fill: none; stroke: #0d57a1; stroke-width: 1.5; stroke-linecap: square"/>
   </g>
   <g id="line2d_125">
    <path d="M 62.48 89.745388 
L 190.8295 89.745372 
L 319.179 89.74537 
L 447.5285 92.101141 
L 575.878 87.327952 
L 704.2275 85.712339 
" clip-path="url(#p84fd15dc19)" style="fill: none; stroke: #0b559f; stroke-width: 1.5; stroke-linecap: square"/>
   </g>
   <g id="line2d_126">
    <path d="M 62.48 89.745282 
L 190.8295 89.745238 
L 319.179 89.74537 
L 447.5285 91.145085 
L 575.878 93.509104 
L 704.2275 92.121984 
" clip-path="url(#p84fd15dc19)" style="fill: none; stroke: #0a539e; stroke-width: 1.5; stroke-linecap: square"/>
   </g>
   <g id="line2d_127">
    <path d="M 62.48 89.745506 
L 190.8295 89.745686 
L 319.179 89.74537 
L 447.5285 91.007958 
L 575.878 94.65408 
L 704.2275 93.417403 
" clip-path="url(#p84fd15dc19)" style="fill: none; stroke: #08519c; stroke-width: 1.5; stroke-linecap: square"/>
   </g>
   <g id="line2d_128">
    <path d="M 62.48 89.74712 
L 190.8295 128.748604 
L 319.179 89.74537 
L 447.5285 136.442602 
L 575.878 204.150972 
L 704.2275 164.085287 
" clip-path="url(#p84fd15dc19)" style="fill: none; stroke: #084f99; stroke-width: 1.5; stroke-linecap: square"/>
   </g>
   <g id="line2d_129">
    <path d="M 62.48 89.745561 
L 190.8295 89.745445 
L 319.179 89.74537 
L 447.5285 90.32464 
L 575.878 90.317415 
L 704.2275 89.737905 
" clip-path="url(#p84fd15dc19)" style="fill: none; stroke: #084d96; stroke-width: 1.5; stroke-linecap: square"/>
   </g>
   <g id="line2d_130">
    <path d="M 62.48 89.745413 
L 190.8295 89.745296 
L 319.179 89.74537 
L 447.5285 91.21072 
L 575.878 100.048655 
L 704.2275 98.299492 
" clip-path="url(#p84fd15dc19)" style="fill: none; stroke: #084b93; stroke-width: 1.5; stroke-linecap: square"/>
   </g>
   <g id="line2d_131">
    <path d="M 62.48 89.753852 
L 190.8295 89.744356 
L 319.179 89.74537 
L 447.5285 93.251156 
L 575.878 134.452534 
L 704.2275 130.667232 
" clip-path="url(#p84fd15dc19)" style="fill: none; stroke: #084990; stroke-width: 1.5; stroke-linecap: square"/>
   </g>
   <g id="line2d_132">
    <path d="M 62.48 89.745474 
L 190.8295 89.745272 
L 319.179 89.74537 
L 447.5285 91.560148 
L 575.878 102.24573 
L 704.2275 100.51154 
" clip-path="url(#p84fd15dc19)" style="fill: none; stroke: #08478d; stroke-width: 1.5; stroke-linecap: square"/>
   </g>
   <g id="line2d_133">
    <path d="M 62.48 89.842579 
L 190.8295 90.151625 
L 319.179 89.74537 
L 447.5285 91.434413 
L 575.878 90.902565 
L 704.2275 88.87091 
" clip-path="url(#p84fd15dc19)" style="fill: none; stroke: #08458a; stroke-width: 1.5; stroke-linecap: square"/>
   </g>
   <g id="line2d_134">
    <path d="M 62.48 89.745408 
L 190.8295 89.745354 
L 319.179 89.74537 
L 447.5285 90.764519 
L 575.878 90.763781 
L 704.2275 89.744296 
" clip-path="url(#p84fd15dc19)" style="fill: none; stroke: #084387; stroke-width: 1.5; stroke-linecap: square"/>
   </g>
   <g id="line2d_135">
    <path d="M 62.48 90.059568 
L 190.8295 91.020116 
L 319.179 89.74537 
L 447.5285 94.061893 
L 575.878 126.967904 
L 704.2275 124.796421 
" clip-path="url(#p84fd15dc19)" style="fill: none; stroke: #084184; stroke-width: 1.5; stroke-linecap: square"/>
   </g>
   <g id="line2d_136">
    <path d="M 62.48 89.745373 
L 190.8295 89.745369 
L 319.179 89.74537 
L 447.5285 91.243592 
L 575.878 91.242895 
L 704.2275 89.744444 
" clip-path="url(#p84fd15dc19)" style="fill: none; stroke: #083e81; stroke-width: 1.5; stroke-linecap: square"/>
   </g>
   <g id="line2d_137">
    <path d="M 62.48 89.737685 
L 190.8295 89.709013 
L 319.179 89.74537 
L 447.5285 92.406966 
L 575.878 89.859043 
L 704.2275 87.169356 
" clip-path="url(#p84fd15dc19)" style="fill: none; stroke: #083c7d; stroke-width: 1.5; stroke-linecap: square"/>
   </g>
   <g id="line2d_138">
    <path d="M 62.48 89.745737 
L 190.8295 89.745668 
L 319.179 89.74537 
L 447.5285 91.742293 
L 575.878 148.925624 
L 704.2275 145.54724 
" clip-path="url(#p84fd15dc19)" style="fill: none; stroke: #083a7a; stroke-width: 1.5; stroke-linecap: square"/>
   </g>
   <g id="line2d_139">
    <path d="M 62.48 89.745359 
L 190.8295 89.745368 
L 319.179 89.74537 
L 447.5285 93.175763 
L 575.878 108.126649 
L 704.2275 104.61446 
" clip-path="url(#p84fd15dc19)" style="fill: none; stroke: #083877; stroke-width: 1.5; stroke-linecap: square"/>
   </g>
   <g id="line2d_140">
    <path d="M 62.48 90.51737 
L 190.8295 89.74528 
L 319.179 89.74537 
L 447.5285 92.517726 
L 575.878 117.230963 
L 704.2275 114.930036 
" clip-path="url(#p84fd15dc19)" style="fill: none; stroke: #083674; stroke-width: 1.5; stroke-linecap: square"/>
   </g>
   <g id="line2d_141">
    <path d="M 62.48 89.749508 
L 190.8295 89.741746 
L 319.179 89.74537 
L 447.5285 91.378371 
L 575.878 99.964011 
L 704.2275 98.329801 
" clip-path="url(#p84fd15dc19)" style="fill: none; stroke: #083471; stroke-width: 1.5; stroke-linecap: square"/>
   </g>
   <g id="line2d_142">
    <path d="M 62.48 89.745395 
L 190.8295 89.745344 
L 319.179 89.74537 
L 447.5285 93.992567 
L 575.878 108.093851 
L 704.2275 103.793653 
" clip-path="url(#p84fd15dc19)" style="fill: none; stroke: #08326e; stroke-width: 1.5; stroke-linecap: square"/>
   </g>
   <g id="line2d_143">
    <path d="M 62.48 89.745391 
L 190.8295 89.745378 
L 319.179 89.74537 
L 447.5285 92.611545 
L 575.878 97.956696 
L 704.2275 95.061587 
" clip-path="url(#p84fd15dc19)" style="fill: none; stroke: #08306b; stroke-width: 1.5; stroke-linecap: square"/>
   </g>
   <g id="line2d_144">
    <path d="M 62.48 332.12 
L 62.48 26.16 
" clip-path="url(#p84fd15dc19)" style="fill: none; stroke: #000000; stroke-linecap: square"/>
   </g>
   <g id="line2d_145">
    <path d="M 190.8295 332.12 
L 190.8295 26.16 
" clip-path="url(#p84fd15dc19)" style="fill: none; stroke: #000000; stroke-linecap: square"/>
   </g>
   <g id="line2d_146">
    <path d="M 319.179 332.12 
L 319.179 26.16 
" clip-path="url(#p84fd15dc19)" style="fill: none; stroke: #000000; stroke-linecap: square"/>
   </g>
   <g id="line2d_147">
    <path d="M 447.5285 332.12 
L 447.5285 26.16 
" clip-path="url(#p84fd15dc19)" style="fill: none; stroke: #000000; stroke-linecap: square"/>
   </g>
   <g id="line2d_148">
    <path d="M 575.878 332.12 
L 575.878 26.16 
" clip-path="url(#p84fd15dc19)" style="fill: none; stroke: #000000; stroke-linecap: square"/>
   </g>
   <g id="line2d_149">
    <path d="M 704.2275 332.12 
L 704.2275 26.16 
" clip-path="url(#p84fd15dc19)" style="fill: none; stroke: #000000; stroke-linecap: square"/>
   </g>
   <g id="patch_3">
    <path d="M 62.48 332.12 
L 62.48 26.16 
" style="fill: none; stroke: #000000; stroke-width: 0.8; stroke-linejoin: miter; stroke-linecap: square"/>
   </g>
   <g id="patch_4">
    <path d="M 704.2275 332.12 
L 704.2275 26.16 
" style="fill: none; stroke: #000000; stroke-width: 0.8; stroke-linejoin: miter; stroke-linecap: square"/>
   </g>
   <g id="patch_5">
    <path d="M 62.48 332.12 
L 704.2275 332.12 
" style="fill: none; stroke: #000000; stroke-width: 0.8; stroke-linejoin: miter; stroke-linecap: square"/>
   </g>
   <g id="patch_6">
    <path d="M 62.48 26.16 
L 704.2275 26.16 
" style="fill: none; stroke: #000000; stroke-width: 0.8; stroke-linejoin: miter; stroke-linecap: square"/>
   </g>
   <g id="text_12">
    <!-- June 27, 2023: Depth of Flooding -->
    <g transform="translate(284.3125 20.16) scale(0.12 -0.12)">
     <defs>
      <path id="DejaVuSans-4a" d="M 628 4666 
L 1259 4666 
L 1259 325 
Q 1259 -519 939 -900 
Q 619 -1281 -91 -1281 
L -331 -1281 
L -331 -750 
L -134 -750 
Q 284 -750 456 -515 
Q 628 -281 628 325 
L 628 4666 
z
" transform="scale(0.015625)"/>
      <path id="DejaVuSans-75" d="M 544 1381 
L 544 3500 
L 1119 3500 
L 1119 1403 
Q 1119 906 1312 657 
Q 1506 409 1894 409 
Q 2359 409 2629 706 
Q 2900 1003 2900 1516 
L 2900 3500 
L 3475 3500 
L 3475 0 
L 2900 0 
L 2900 538 
Q 2691 219 2414 64 
Q 2138 -91 1772 -91 
Q 1169 -91 856 284 
Q 544 659 544 1381 
z
M 1991 3584 
L 1991 3584 
z
" transform="scale(0.015625)"/>
      <path id="DejaVuSans-6e" d="M 3513 2113 
L 3513 0 
L 2938 0 
L 2938 2094 
Q 2938 2591 2744 2837 
Q 2550 3084 2163 3084 
Q 1697 3084 1428 2787 
Q 1159 2491 1159 1978 
L 1159 0 
L 581 0 
L 581 3500 
L 1159 3500 
L 1159 2956 
Q 1366 3272 1645 3428 
Q 1925 3584 2291 3584 
Q 2894 3584 3203 3211 
Q 3513 2838 3513 2113 
z
" transform="scale(0.015625)"/>
      <path id="DejaVuSans-32" d="M 1228 531 
L 3431 531 
L 3431 0 
L 469 0 
L 469 531 
Q 828 903 1448 1529 
Q 2069 2156 2228 2338 
Q 2531 2678 2651 2914 
Q 2772 3150 2772 3378 
Q 2772 3750 2511 3984 
Q 2250 4219 1831 4219 
Q 1534 4219 1204 4116 
Q 875 4013 500 3803 
L 500 4441 
Q 881 4594 1212 4672 
Q 1544 4750 1819 4750 
Q 2544 4750 2975 4387 
Q 3406 4025 3406 3419 
Q 3406 3131 3298 2873 
Q 3191 2616 2906 2266 
Q 2828 2175 2409 1742 
Q 1991 1309 1228 531 
z
" transform="scale(0.015625)"/>
      <path id="DejaVuSans-37" d="M 525 4666 
L 3525 4666 
L 3525 4397 
L 1831 0 
L 1172 0 
L 2766 4134 
L 525 4134 
L 525 4666 
z
" transform="scale(0.015625)"/>
      <path id="DejaVuSans-2c" d="M 750 794 
L 1409 794 
L 1409 256 
L 897 -744 
L 494 -744 
L 750 256 
L 750 794 
z
" transform="scale(0.015625)"/>
      <path id="DejaVuSans-3a" d="M 750 794 
L 1409 794 
L 1409 0 
L 750 0 
L 750 794 
z
M 750 3309 
L 1409 3309 
L 1409 2516 
L 750 2516 
L 750 3309 
z
" transform="scale(0.015625)"/>
      <path id="DejaVuSans-6f" d="M 1959 3097 
Q 1497 3097 1228 2736 
Q 959 2375 959 1747 
Q 959 1119 1226 758 
Q 1494 397 1959 397 
Q 2419 397 2687 759 
Q 2956 1122 2956 1747 
Q 2956 2369 2687 2733 
Q 2419 3097 1959 3097 
z
M 1959 3584 
Q 2709 3584 3137 3096 
Q 3566 2609 3566 1747 
Q 3566 888 3137 398 
Q 2709 -91 1959 -91 
Q 1206 -91 779 398 
Q 353 888 353 1747 
Q 353 2609 779 3096 
Q 1206 3584 1959 3584 
z
" transform="scale(0.015625)"/>
      <path id="DejaVuSans-66" d="M 2375 4863 
L 2375 4384 
L 1825 4384 
Q 1516 4384 1395 4259 
Q 1275 4134 1275 3809 
L 1275 3500 
L 2222 3500 
L 2222 3053 
L 1275 3053 
L 1275 0 
L 697 0 
L 697 3053 
L 147 3053 
L 147 3500 
L 697 3500 
L 697 3744 
Q 697 4328 969 4595 
Q 1241 4863 1831 4863 
L 2375 4863 
z
" transform="scale(0.015625)"/>
      <path id="DejaVuSans-46" d="M 628 4666 
L 3309 4666 
L 3309 4134 
L 1259 4134 
L 1259 2759 
L 3109 2759 
L 3109 2228 
L 1259 2228 
L 1259 0 
L 628 0 
L 628 4666 
z
" transform="scale(0.015625)"/>
      <path id="DejaVuSans-6c" d="M 603 4863 
L 1178 4863 
L 1178 0 
L 603 0 
L 603 4863 
z
" transform="scale(0.015625)"/>
      <path id="DejaVuSans-64" d="M 2906 2969 
L 2906 4863 
L 3481 4863 
L 3481 0 
L 2906 0 
L 2906 525 
Q 2725 213 2448 61 
Q 2172 -91 1784 -91 
Q 1150 -91 751 415 
Q 353 922 353 1747 
Q 353 2572 751 3078 
Q 1150 3584 1784 3584 
Q 2172 3584 2448 3432 
Q 2725 3281 2906 2969 
z
M 947 1747 
Q 947 1113 1208 752 
Q 1469 391 1925 391 
Q 2381 391 2643 752 
Q 2906 1113 2906 1747 
Q 2906 2381 2643 2742 
Q 2381 3103 1925 3103 
Q 1469 3103 1208 2742 
Q 947 2381 947 1747 
z
" transform="scale(0.015625)"/>
      <path id="DejaVuSans-69" d="M 603 3500 
L 1178 3500 
L 1178 0 
L 603 0 
L 603 3500 
z
M 603 4863 
L 1178 4863 
L 1178 4134 
L 603 4134 
L 603 4863 
z
" transform="scale(0.015625)"/>
      <path id="DejaVuSans-67" d="M 2906 1791 
Q 2906 2416 2648 2759 
Q 2391 3103 1925 3103 
Q 1463 3103 1205 2759 
Q 947 2416 947 1791 
Q 947 1169 1205 825 
Q 1463 481 1925 481 
Q 2391 481 2648 825 
Q 2906 1169 2906 1791 
z
M 3481 434 
Q 3481 -459 3084 -895 
Q 2688 -1331 1869 -1331 
Q 1566 -1331 1297 -1286 
Q 1028 -1241 775 -1147 
L 775 -588 
Q 1028 -725 1275 -790 
Q 1522 -856 1778 -856 
Q 2344 -856 2625 -561 
Q 2906 -266 2906 331 
L 2906 616 
Q 2728 306 2450 153 
Q 2172 0 1784 0 
Q 1141 0 747 490 
Q 353 981 353 1791 
Q 353 2603 747 3093 
Q 1141 3584 1784 3584 
Q 2172 3584 2450 3431 
Q 2728 3278 2906 2969 
L 2906 3500 
L 3481 3500 
L 3481 434 
z
" transform="scale(0.015625)"/>
     </defs>
     <use xlink:href="#DejaVuSans-4a"/>
     <use xlink:href="#DejaVuSans-75" transform="translate(29.492188 0)"/>
     <use xlink:href="#DejaVuSans-6e" transform="translate(92.871094 0)"/>
     <use xlink:href="#DejaVuSans-65" transform="translate(156.25 0)"/>
     <use xlink:href="#DejaVuSans-20" transform="translate(217.773438 0)"/>
     <use xlink:href="#DejaVuSans-32" transform="translate(249.560547 0)"/>
     <use xlink:href="#DejaVuSans-37" transform="translate(313.183594 0)"/>
     <use xlink:href="#DejaVuSans-2c" transform="translate(376.806641 0)"/>
     <use xlink:href="#DejaVuSans-20" transform="translate(408.59375 0)"/>
     <use xlink:href="#DejaVuSans-32" transform="translate(440.380859 0)"/>
     <use xlink:href="#DejaVuSans-30" transform="translate(504.003906 0)"/>
     <use xlink:href="#DejaVuSans-32" transform="translate(567.626953 0)"/>
     <use xlink:href="#DejaVuSans-33" transform="translate(631.25 0)"/>
     <use xlink:href="#DejaVuSans-3a" transform="translate(694.873047 0)"/>
     <use xlink:href="#DejaVuSans-20" transform="translate(728.564453 0)"/>
     <use xlink:href="#DejaVuSans-44" transform="translate(760.351562 0)"/>
     <use xlink:href="#DejaVuSans-65" transform="translate(837.353516 0)"/>
     <use xlink:href="#DejaVuSans-70" transform="translate(898.876953 0)"/>
     <use xlink:href="#DejaVuSans-74" transform="translate(962.353516 0)"/>
     <use xlink:href="#DejaVuSans-68" transform="translate(1001.5625 0)"/>
     <use xlink:href="#DejaVuSans-20" transform="translate(1064.941406 0)"/>
     <use xlink:href="#DejaVuSans-6f" transform="translate(1096.728516 0)"/>
     <use xlink:href="#DejaVuSans-66" transform="translate(1157.910156 0)"/>
     <use xlink:href="#DejaVuSans-20" transform="translate(1193.115234 0)"/>
     <use xlink:href="#DejaVuSans-46" transform="translate(1224.902344 0)"/>
     <use xlink:href="#DejaVuSans-6c" transform="translate(1282.421875 0)"/>
     <use xlink:href="#DejaVuSans-6f" transform="translate(1310.205078 0)"/>
     <use xlink:href="#DejaVuSans-6f" transform="translate(1371.386719 0)"/>
     <use xlink:href="#DejaVuSans-64" transform="translate(1432.568359 0)"/>
     <use xlink:href="#DejaVuSans-69" transform="translate(1496.044922 0)"/>
     <use xlink:href="#DejaVuSans-6e" transform="translate(1523.828125 0)"/>
     <use xlink:href="#DejaVuSans-67" transform="translate(1587.207031 0)"/>
    </g>
   </g>
  </g>
 </g>
 <defs>
  <clipPath id="p84fd15dc19">
   <rect x="62.48" y="26.16" width="641.7475" height="305.96"/>
  </clipPath>
 </defs>
</svg>
