<?xml version="1.0" encoding="utf-8" standalone="no"?>
<!DOCTYPE svg PUBLIC "-//W3C//DTD SVG 1.1//EN"
  "http://www.w3.org/Graphics/SVG/1.1/DTD/svg11.dtd">
<svg xmlns:xlink="http://www.w3.org/1999/xlink" width="720pt" height="360pt" viewBox="0 0 720 360" xmlns="http://www.w3.org/2000/svg" version="1.1">
 <metadata>
  <rdf:RDF xmlns:dc="http://purl.org/dc/elements/1.1/" xmlns:cc="http://creativecommons.org/ns#" xmlns:rdf="http://www.w3.org/1999/02/22-rdf-syntax-ns#">
   <cc:Work>
    <dc:type rdf:resource="http://purl.org/dc/dcmitype/StillImage"/>
    <dc:date>2025-07-09T15:07:40.786923</dc:date>
    <dc:format>image/svg+xml</dc:format>
    <dc:creator>
     <cc:Agent>
      <dc:title>Matplotlib v3.10.0, https://matplotlib.org/</dc:title>
     </cc:Agent>
    </dc:creator>
   </cc:Work>
  </rdf:RDF>
 </metadata>
 <defs>
  <style type="text/css">*{stroke-linejoin: round; stroke-linecap: butt}</style>
 </defs>
 <g id="figure_1">
  <g id="patch_1">
   <path d="M 0 360 
L 720 360 
L 720 0 
L 0 0 
z
" style="fill: #ffffff"/>
  </g>
  <g id="axes_1">
   <g id="patch_2">
    <path d="M 62.48 332.12 
L 691.83 332.12 
L 691.83 26.16 
L 62.48 26.16 
z
" style="fill: #ffffff"/>
   </g>
   <g id="matplotlib.axis_1">
    <g id="xtick_1">
     <g id="line2d_1">
      <path d="M 62.48 332.12 
L 62.48 26.16 
" clip-path="url(#pe7c1eecb09)" style="fill: none; stroke: #b0b0b0; stroke-width: 0.8; stroke-linecap: square"/>
     </g>
     <g id="line2d_2">
      <defs>
       <path id="m41a0a0b4b1" d="M 0 0 
L 0 3.5 
" style="stroke: #000000; stroke-width: 0.8"/>
      </defs>
      <g>
       <use xlink:href="#m41a0a0b4b1" x="62.48" y="332.12" style="stroke: #000000; stroke-width: 0.8"/>
      </g>
     </g>
     <g id="text_1">
      <!-- Base -->
      <g transform="translate(50.304219 346.718437) scale(0.1 -0.1)">
       <defs>
        <path id="DejaVuSans-42" d="M 1259 2228 
L 1259 519 
L 2272 519 
Q 2781 519 3026 730 
Q 3272 941 3272 1375 
Q 3272 1813 3026 2020 
Q 2781 2228 2272 2228 
L 1259 2228 
z
M 1259 4147 
L 1259 2741 
L 2194 2741 
Q 2656 2741 2882 2914 
Q 3109 3088 3109 3444 
Q 3109 3797 2882 3972 
Q 2656 4147 2194 4147 
L 1259 4147 
z
M 628 4666 
L 2241 4666 
Q 2963 4666 3353 4366 
Q 3744 4066 3744 3513 
Q 3744 3084 3544 2831 
Q 3344 2578 2956 2516 
Q 3422 2416 3680 2098 
Q 3938 1781 3938 1306 
Q 3938 681 3513 340 
Q 3088 0 2303 0 
L 628 0 
L 628 4666 
z
" transform="scale(0.015625)"/>
        <path id="DejaVuSans-61" d="M 2194 1759 
Q 1497 1759 1228 1600 
Q 959 1441 959 1056 
Q 959 750 1161 570 
Q 1363 391 1709 391 
Q 2188 391 2477 730 
Q 2766 1069 2766 1631 
L 2766 1759 
L 2194 1759 
z
M 3341 1997 
L 3341 0 
L 2766 0 
L 2766 531 
Q 2569 213 2275 61 
Q 1981 -91 1556 -91 
Q 1019 -91 701 211 
Q 384 513 384 1019 
Q 384 1609 779 1909 
Q 1175 2209 1959 2209 
L 2766 2209 
L 2766 2266 
Q 2766 2663 2505 2880 
Q 2244 3097 1772 3097 
Q 1472 3097 1187 3025 
Q 903 2953 641 2809 
L 641 3341 
Q 956 3463 1253 3523 
Q 1550 3584 1831 3584 
Q 2591 3584 2966 3190 
Q 3341 2797 3341 1997 
z
" transform="scale(0.015625)"/>
        <path id="DejaVuSans-73" d="M 2834 3397 
L 2834 2853 
Q 2591 2978 2328 3040 
Q 2066 3103 1784 3103 
Q 1356 3103 1142 2972 
Q 928 2841 928 2578 
Q 928 2378 1081 2264 
Q 1234 2150 1697 2047 
L 1894 2003 
Q 2506 1872 2764 1633 
Q 3022 1394 3022 966 
Q 3022 478 2636 193 
Q 2250 -91 1575 -91 
Q 1294 -91 989 -36 
Q 684 19 347 128 
L 347 722 
Q 666 556 975 473 
Q 1284 391 1588 391 
Q 1994 391 2212 530 
Q 2431 669 2431 922 
Q 2431 1156 2273 1281 
Q 2116 1406 1581 1522 
L 1381 1569 
Q 847 1681 609 1914 
Q 372 2147 372 2553 
Q 372 3047 722 3315 
Q 1072 3584 1716 3584 
Q 2034 3584 2315 3537 
Q 2597 3491 2834 3397 
z
" transform="scale(0.015625)"/>
        <path id="DejaVuSans-65" d="M 3597 1894 
L 3597 1613 
L 953 1613 
Q 991 1019 1311 708 
Q 1631 397 2203 397 
Q 2534 397 2845 478 
Q 3156 559 3463 722 
L 3463 178 
Q 3153 47 2828 -22 
Q 2503 -91 2169 -91 
Q 1331 -91 842 396 
Q 353 884 353 1716 
Q 353 2575 817 3079 
Q 1281 3584 2069 3584 
Q 2775 3584 3186 3129 
Q 3597 2675 3597 1894 
z
M 3022 2063 
Q 3016 2534 2758 2815 
Q 2500 3097 2075 3097 
Q 1594 3097 1305 2825 
Q 1016 2553 972 2059 
L 3022 2063 
z
" transform="scale(0.015625)"/>
       </defs>
       <use xlink:href="#DejaVuSans-42"/>
       <use xlink:href="#DejaVuSans-61" transform="translate(68.603516 0)"/>
       <use xlink:href="#DejaVuSans-73" transform="translate(129.882812 0)"/>
       <use xlink:href="#DejaVuSans-65" transform="translate(181.982422 0)"/>
      </g>
     </g>
    </g>
    <g id="xtick_2">
     <g id="line2d_3">
      <path d="M 188.35 332.12 
L 188.35 26.16 
" clip-path="url(#pe7c1eecb09)" style="fill: none; stroke: #b0b0b0; stroke-width: 0.8; stroke-linecap: square"/>
     </g>
     <g id="line2d_4">
      <g>
       <use xlink:href="#m41a0a0b4b1" x="188.35" y="332.12" style="stroke: #000000; stroke-width: 0.8"/>
      </g>
     </g>
     <g id="text_2">
      <!-- BGN -->
      <g transform="translate(177.392188 346.718437) scale(0.1 -0.1)">
       <defs>
        <path id="DejaVuSans-47" d="M 3809 666 
L 3809 1919 
L 2778 1919 
L 2778 2438 
L 4434 2438 
L 4434 434 
Q 4069 175 3628 42 
Q 3188 -91 2688 -91 
Q 1594 -91 976 548 
Q 359 1188 359 2328 
Q 359 3472 976 4111 
Q 1594 4750 2688 4750 
Q 3144 4750 3555 4637 
Q 3966 4525 4313 4306 
L 4313 3634 
Q 3963 3931 3569 4081 
Q 3175 4231 2741 4231 
Q 1884 4231 1454 3753 
Q 1025 3275 1025 2328 
Q 1025 1384 1454 906 
Q 1884 428 2741 428 
Q 3075 428 3337 486 
Q 3600 544 3809 666 
z
" transform="scale(0.015625)"/>
        <path id="DejaVuSans-4e" d="M 628 4666 
L 1478 4666 
L 3547 763 
L 3547 4666 
L 4159 4666 
L 4159 0 
L 3309 0 
L 1241 3903 
L 1241 0 
L 628 0 
L 628 4666 
z
" transform="scale(0.015625)"/>
       </defs>
       <use xlink:href="#DejaVuSans-42"/>
       <use xlink:href="#DejaVuSans-47" transform="translate(66.853516 0)"/>
       <use xlink:href="#DejaVuSans-4e" transform="translate(144.34375 0)"/>
      </g>
     </g>
    </g>
    <g id="xtick_3">
     <g id="line2d_5">
      <path d="M 314.22 332.12 
L 314.22 26.16 
" clip-path="url(#pe7c1eecb09)" style="fill: none; stroke: #b0b0b0; stroke-width: 0.8; stroke-linecap: square"/>
     </g>
     <g id="line2d_6">
      <g>
       <use xlink:href="#m41a0a0b4b1" x="314.22" y="332.12" style="stroke: #000000; stroke-width: 0.8"/>
      </g>
     </g>
     <g id="text_3">
      <!-- BGNx3 -->
      <g transform="translate(297.121563 346.718437) scale(0.1 -0.1)">
       <defs>
        <path id="DejaVuSans-78" d="M 3513 3500 
L 2247 1797 
L 3578 0 
L 2900 0 
L 1881 1375 
L 863 0 
L 184 0 
L 1544 1831 
L 300 3500 
L 978 3500 
L 1906 2253 
L 2834 3500 
L 3513 3500 
z
" transform="scale(0.015625)"/>
        <path id="DejaVuSans-33" d="M 2597 2516 
Q 3050 2419 3304 2112 
Q 3559 1806 3559 1356 
Q 3559 666 3084 287 
Q 2609 -91 1734 -91 
Q 1441 -91 1130 -33 
Q 819 25 488 141 
L 488 750 
Q 750 597 1062 519 
Q 1375 441 1716 441 
Q 2309 441 2620 675 
Q 2931 909 2931 1356 
Q 2931 1769 2642 2001 
Q 2353 2234 1838 2234 
L 1294 2234 
L 1294 2753 
L 1863 2753 
Q 2328 2753 2575 2939 
Q 2822 3125 2822 3475 
Q 2822 3834 2567 4026 
Q 2313 4219 1838 4219 
Q 1578 4219 1281 4162 
Q 984 4106 628 3988 
L 628 4550 
Q 988 4650 1302 4700 
Q 1616 4750 1894 4750 
Q 2613 4750 3031 4423 
Q 3450 4097 3450 3541 
Q 3450 3153 3228 2886 
Q 3006 2619 2597 2516 
z
" transform="scale(0.015625)"/>
       </defs>
       <use xlink:href="#DejaVuSans-42"/>
       <use xlink:href="#DejaVuSans-47" transform="translate(66.853516 0)"/>
       <use xlink:href="#DejaVuSans-4e" transform="translate(144.34375 0)"/>
       <use xlink:href="#DejaVuSans-78" transform="translate(219.148438 0)"/>
       <use xlink:href="#DejaVuSans-33" transform="translate(278.328125 0)"/>
      </g>
     </g>
    </g>
    <g id="xtick_4">
     <g id="line2d_7">
      <path d="M 440.09 332.12 
L 440.09 26.16 
" clip-path="url(#pe7c1eecb09)" style="fill: none; stroke: #b0b0b0; stroke-width: 0.8; stroke-linecap: square"/>
     </g>
     <g id="line2d_8">
      <g>
       <use xlink:href="#m41a0a0b4b1" x="440.09" y="332.12" style="stroke: #000000; stroke-width: 0.8"/>
      </g>
     </g>
     <g id="text_4">
      <!-- GM -->
      <g transform="translate(431.901719 346.718437) scale(0.1 -0.1)">
       <defs>
        <path id="DejaVuSans-4d" d="M 628 4666 
L 1569 4666 
L 2759 1491 
L 3956 4666 
L 4897 4666 
L 4897 0 
L 4281 0 
L 4281 4097 
L 3078 897 
L 2444 897 
L 1241 4097 
L 1241 0 
L 628 0 
L 628 4666 
z
" transform="scale(0.015625)"/>
       </defs>
       <use xlink:href="#DejaVuSans-47"/>
       <use xlink:href="#DejaVuSans-4d" transform="translate(77.490234 0)"/>
      </g>
     </g>
    </g>
    <g id="xtick_5">
     <g id="line2d_9">
      <path d="M 565.96 332.12 
L 565.96 26.16 
" clip-path="url(#pe7c1eecb09)" style="fill: none; stroke: #b0b0b0; stroke-width: 0.8; stroke-linecap: square"/>
     </g>
     <g id="line2d_10">
      <g>
       <use xlink:href="#m41a0a0b4b1" x="565.96" y="332.12" style="stroke: #000000; stroke-width: 0.8"/>
      </g>
     </g>
     <g id="text_5">
      <!-- IC -->
      <g transform="translate(560.993594 346.718437) scale(0.1 -0.1)">
       <defs>
        <path id="DejaVuSans-49" d="M 628 4666 
L 1259 4666 
L 1259 0 
L 628 0 
L 628 4666 
z
" transform="scale(0.015625)"/>
        <path id="DejaVuSans-43" d="M 4122 4306 
L 4122 3641 
Q 3803 3938 3442 4084 
Q 3081 4231 2675 4231 
Q 1875 4231 1450 3742 
Q 1025 3253 1025 2328 
Q 1025 1406 1450 917 
Q 1875 428 2675 428 
Q 3081 428 3442 575 
Q 3803 722 4122 1019 
L 4122 359 
Q 3791 134 3420 21 
Q 3050 -91 2638 -91 
Q 1578 -91 968 557 
Q 359 1206 359 2328 
Q 359 3453 968 4101 
Q 1578 4750 2638 4750 
Q 3056 4750 3426 4639 
Q 3797 4528 4122 4306 
z
" transform="scale(0.015625)"/>
       </defs>
       <use xlink:href="#DejaVuSans-49"/>
       <use xlink:href="#DejaVuSans-43" transform="translate(29.492188 0)"/>
      </g>
     </g>
    </g>
    <g id="xtick_6">
     <g id="line2d_11">
      <path d="M 691.83 332.12 
L 691.83 26.16 
" clip-path="url(#pe7c1eecb09)" style="fill: none; stroke: #b0b0b0; stroke-width: 0.8; stroke-linecap: square"/>
     </g>
     <g id="line2d_12">
      <g>
       <use xlink:href="#m41a0a0b4b1" x="691.83" y="332.12" style="stroke: #000000; stroke-width: 0.8"/>
      </g>
     </g>
     <g id="text_6">
      <!-- GM+IC -->
      <g transform="translate(674.485469 346.718437) scale(0.1 -0.1)">
       <defs>
        <path id="DejaVuSans-2b" d="M 2944 4013 
L 2944 2272 
L 4684 2272 
L 4684 1741 
L 2944 1741 
L 2944 0 
L 2419 0 
L 2419 1741 
L 678 1741 
L 678 2272 
L 2419 2272 
L 2419 4013 
L 2944 4013 
z
" transform="scale(0.015625)"/>
       </defs>
       <use xlink:href="#DejaVuSans-47"/>
       <use xlink:href="#DejaVuSans-4d" transform="translate(77.490234 0)"/>
       <use xlink:href="#DejaVuSans-2b" transform="translate(163.769531 0)"/>
       <use xlink:href="#DejaVuSans-49" transform="translate(247.558594 0)"/>
       <use xlink:href="#DejaVuSans-43" transform="translate(277.050781 0)"/>
      </g>
     </g>
    </g>
   </g>
   <g id="matplotlib.axis_2">
    <g id="ytick_1">
     <g id="line2d_13">
      <defs>
       <path id="m1de39433d6" d="M 0 0 
L -3.5 0 
" style="stroke: #000000; stroke-width: 0.8"/>
      </defs>
      <g>
       <use xlink:href="#m1de39433d6" x="62.48" y="288.314112" style="stroke: #000000; stroke-width: 0.8"/>
      </g>
     </g>
     <g id="text_7">
      <!-- −0.15 -->
      <g transform="translate(24.834688 292.11333) scale(0.1 -0.1)">
       <defs>
        <path id="DejaVuSans-2212" d="M 678 2272 
L 4684 2272 
L 4684 1741 
L 678 1741 
L 678 2272 
z
" transform="scale(0.015625)"/>
        <path id="DejaVuSans-30" d="M 2034 4250 
Q 1547 4250 1301 3770 
Q 1056 3291 1056 2328 
Q 1056 1369 1301 889 
Q 1547 409 2034 409 
Q 2525 409 2770 889 
Q 3016 1369 3016 2328 
Q 3016 3291 2770 3770 
Q 2525 4250 2034 4250 
z
M 2034 4750 
Q 2819 4750 3233 4129 
Q 3647 3509 3647 2328 
Q 3647 1150 3233 529 
Q 2819 -91 2034 -91 
Q 1250 -91 836 529 
Q 422 1150 422 2328 
Q 422 3509 836 4129 
Q 1250 4750 2034 4750 
z
" transform="scale(0.015625)"/>
        <path id="DejaVuSans-2e" d="M 684 794 
L 1344 794 
L 1344 0 
L 684 0 
L 684 794 
z
" transform="scale(0.015625)"/>
        <path id="DejaVuSans-31" d="M 794 531 
L 1825 531 
L 1825 4091 
L 703 3866 
L 703 4441 
L 1819 4666 
L 2450 4666 
L 2450 531 
L 3481 531 
L 3481 0 
L 794 0 
L 794 531 
z
" transform="scale(0.015625)"/>
        <path id="DejaVuSans-35" d="M 691 4666 
L 3169 4666 
L 3169 4134 
L 1269 4134 
L 1269 2991 
Q 1406 3038 1543 3061 
Q 1681 3084 1819 3084 
Q 2600 3084 3056 2656 
Q 3513 2228 3513 1497 
Q 3513 744 3044 326 
Q 2575 -91 1722 -91 
Q 1428 -91 1123 -41 
Q 819 9 494 109 
L 494 744 
Q 775 591 1075 516 
Q 1375 441 1709 441 
Q 2250 441 2565 725 
Q 2881 1009 2881 1497 
Q 2881 1984 2565 2268 
Q 2250 2553 1709 2553 
Q 1456 2553 1204 2497 
Q 953 2441 691 2322 
L 691 4666 
z
" transform="scale(0.015625)"/>
       </defs>
       <use xlink:href="#DejaVuSans-2212"/>
       <use xlink:href="#DejaVuSans-30" transform="translate(83.789062 0)"/>
       <use xlink:href="#DejaVuSans-2e" transform="translate(147.412109 0)"/>
       <use xlink:href="#DejaVuSans-31" transform="translate(179.199219 0)"/>
       <use xlink:href="#DejaVuSans-35" transform="translate(242.822266 0)"/>
      </g>
     </g>
    </g>
    <g id="ytick_2">
     <g id="line2d_14">
      <g>
       <use xlink:href="#m1de39433d6" x="62.48" y="222.124531" style="stroke: #000000; stroke-width: 0.8"/>
      </g>
     </g>
     <g id="text_8">
      <!-- −0.10 -->
      <g transform="translate(24.834688 225.92375) scale(0.1 -0.1)">
       <use xlink:href="#DejaVuSans-2212"/>
       <use xlink:href="#DejaVuSans-30" transform="translate(83.789062 0)"/>
       <use xlink:href="#DejaVuSans-2e" transform="translate(147.412109 0)"/>
       <use xlink:href="#DejaVuSans-31" transform="translate(179.199219 0)"/>
       <use xlink:href="#DejaVuSans-30" transform="translate(242.822266 0)"/>
      </g>
     </g>
    </g>
    <g id="ytick_3">
     <g id="line2d_15">
      <g>
       <use xlink:href="#m1de39433d6" x="62.48" y="155.93495" style="stroke: #000000; stroke-width: 0.8"/>
      </g>
     </g>
     <g id="text_9">
      <!-- −0.05 -->
      <g transform="translate(24.834688 159.734169) scale(0.1 -0.1)">
       <use xlink:href="#DejaVuSans-2212"/>
       <use xlink:href="#DejaVuSans-30" transform="translate(83.789062 0)"/>
       <use xlink:href="#DejaVuSans-2e" transform="translate(147.412109 0)"/>
       <use xlink:href="#DejaVuSans-30" transform="translate(179.199219 0)"/>
       <use xlink:href="#DejaVuSans-35" transform="translate(242.822266 0)"/>
      </g>
     </g>
    </g>
    <g id="ytick_4">
     <g id="line2d_16">
      <g>
       <use xlink:href="#m1de39433d6" x="62.48" y="89.74537" style="stroke: #000000; stroke-width: 0.8"/>
      </g>
     </g>
     <g id="text_10">
      <!-- 0.00 -->
      <g transform="translate(33.214375 93.544588) scale(0.1 -0.1)">
       <use xlink:href="#DejaVuSans-30"/>
       <use xlink:href="#DejaVuSans-2e" transform="translate(63.623047 0)"/>
       <use xlink:href="#DejaVuSans-30" transform="translate(95.410156 0)"/>
       <use xlink:href="#DejaVuSans-30" transform="translate(159.033203 0)"/>
      </g>
     </g>
    </g>
    <g id="text_11">
     <!-- Depth (m) -->
     <g transform="translate(18.755 204.730625) rotate(-90) scale(0.1 -0.1)">
      <defs>
       <path id="DejaVuSans-44" d="M 1259 4147 
L 1259 519 
L 2022 519 
Q 2988 519 3436 956 
Q 3884 1394 3884 2338 
Q 3884 3275 3436 3711 
Q 2988 4147 2022 4147 
L 1259 4147 
z
M 628 4666 
L 1925 4666 
Q 3281 4666 3915 4102 
Q 4550 3538 4550 2338 
Q 4550 1131 3912 565 
Q 3275 0 1925 0 
L 628 0 
L 628 4666 
z
" transform="scale(0.015625)"/>
       <path id="DejaVuSans-70" d="M 1159 525 
L 1159 -1331 
L 581 -1331 
L 581 3500 
L 1159 3500 
L 1159 2969 
Q 1341 3281 1617 3432 
Q 1894 3584 2278 3584 
Q 2916 3584 3314 3078 
Q 3713 2572 3713 1747 
Q 3713 922 3314 415 
Q 2916 -91 2278 -91 
Q 1894 -91 1617 61 
Q 1341 213 1159 525 
z
M 3116 1747 
Q 3116 2381 2855 2742 
Q 2594 3103 2138 3103 
Q 1681 3103 1420 2742 
Q 1159 2381 1159 1747 
Q 1159 1113 1420 752 
Q 1681 391 2138 391 
Q 2594 391 2855 752 
Q 3116 1113 3116 1747 
z
" transform="scale(0.015625)"/>
       <path id="DejaVuSans-74" d="M 1172 4494 
L 1172 3500 
L 2356 3500 
L 2356 3053 
L 1172 3053 
L 1172 1153 
Q 1172 725 1289 603 
Q 1406 481 1766 481 
L 2356 481 
L 2356 0 
L 1766 0 
Q 1100 0 847 248 
Q 594 497 594 1153 
L 594 3053 
L 172 3053 
L 172 3500 
L 594 3500 
L 594 4494 
L 1172 4494 
z
" transform="scale(0.015625)"/>
       <path id="DejaVuSans-68" d="M 3513 2113 
L 3513 0 
L 2938 0 
L 2938 2094 
Q 2938 2591 2744 2837 
Q 2550 3084 2163 3084 
Q 1697 3084 1428 2787 
Q 1159 2491 1159 1978 
L 1159 0 
L 581 0 
L 581 4863 
L 1159 4863 
L 1159 2956 
Q 1366 3272 1645 3428 
Q 1925 3584 2291 3584 
Q 2894 3584 3203 3211 
Q 3513 2838 3513 2113 
z
" transform="scale(0.015625)"/>
       <path id="DejaVuSans-20" transform="scale(0.015625)"/>
       <path id="DejaVuSans-28" d="M 1984 4856 
Q 1566 4138 1362 3434 
Q 1159 2731 1159 2009 
Q 1159 1288 1364 580 
Q 1569 -128 1984 -844 
L 1484 -844 
Q 1016 -109 783 600 
Q 550 1309 550 2009 
Q 550 2706 781 3412 
Q 1013 4119 1484 4856 
L 1984 4856 
z
" transform="scale(0.015625)"/>
       <path id="DejaVuSans-6d" d="M 3328 2828 
Q 3544 3216 3844 3400 
Q 4144 3584 4550 3584 
Q 5097 3584 5394 3201 
Q 5691 2819 5691 2113 
L 5691 0 
L 5113 0 
L 5113 2094 
Q 5113 2597 4934 2840 
Q 4756 3084 4391 3084 
Q 3944 3084 3684 2787 
Q 3425 2491 3425 1978 
L 3425 0 
L 2847 0 
L 2847 2094 
Q 2847 2600 2669 2842 
Q 2491 3084 2119 3084 
Q 1678 3084 1418 2786 
Q 1159 2488 1159 1978 
L 1159 0 
L 581 0 
L 581 3500 
L 1159 3500 
L 1159 2956 
Q 1356 3278 1631 3431 
Q 1906 3584 2284 3584 
Q 2666 3584 2933 3390 
Q 3200 3197 3328 2828 
z
" transform="scale(0.015625)"/>
       <path id="DejaVuSans-29" d="M 513 4856 
L 1013 4856 
Q 1481 4119 1714 3412 
Q 1947 2706 1947 2009 
Q 1947 1309 1714 600 
Q 1481 -109 1013 -844 
L 513 -844 
Q 928 -128 1133 580 
Q 1338 1288 1338 2009 
Q 1338 2731 1133 3434 
Q 928 4138 513 4856 
z
" transform="scale(0.015625)"/>
      </defs>
      <use xlink:href="#DejaVuSans-44"/>
      <use xlink:href="#DejaVuSans-65" transform="translate(77.001953 0)"/>
      <use xlink:href="#DejaVuSans-70" transform="translate(138.525391 0)"/>
      <use xlink:href="#DejaVuSans-74" transform="translate(202.001953 0)"/>
      <use xlink:href="#DejaVuSans-68" transform="translate(241.210938 0)"/>
      <use xlink:href="#DejaVuSans-20" transform="translate(304.589844 0)"/>
      <use xlink:href="#DejaVuSans-28" transform="translate(336.376953 0)"/>
      <use xlink:href="#DejaVuSans-6d" transform="translate(375.390625 0)"/>
      <use xlink:href="#DejaVuSans-29" transform="translate(472.802734 0)"/>
     </g>
    </g>
   </g>
   <g id="line2d_17">
    <path d="M 62.48 89.74537 
L 188.35 89.90179 
L 314.22 90.355039 
L 440.09 94.603491 
L 565.96 187.497648 
L 691.83 190.274185 
" clip-path="url(#pe7c1eecb09)" style="fill: none; stroke: #87cefa; stroke-width: 1.5; stroke-linecap: square"/>
   </g>
   <g id="line2d_18">
    <path d="M 62.48 89.74537 
L 188.35 89.745313 
L 314.22 89.745322 
L 440.09 91.591664 
L 565.96 115.321953 
L 691.83 117.032679 
" clip-path="url(#pe7c1eecb09)" style="fill: none; stroke: #0000ff; stroke-width: 1.5; stroke-linecap: square"/>
   </g>
   <g id="line2d_19">
    <path d="M 62.48 89.74537 
L 188.35 89.744947 
L 314.22 89.74539 
L 440.09 90.4081 
L 565.96 89.740173 
L 691.83 90.40214 
" clip-path="url(#pe7c1eecb09)" style="fill: none; stroke: #0000ff; stroke-width: 1.5; stroke-linecap: square"/>
   </g>
   <g id="line2d_20">
    <path d="M 62.48 89.74537 
L 188.35 89.745382 
L 314.22 89.74536 
L 440.09 91.001991 
L 565.96 89.734994 
L 691.83 90.994451 
" clip-path="url(#pe7c1eecb09)" style="fill: none; stroke: #0000ff; stroke-width: 1.5; stroke-linecap: square"/>
   </g>
   <g id="line2d_21">
    <path d="M 62.48 89.74537 
L 188.35 89.747936 
L 314.22 110.786354 
L 440.09 114.217741 
L 565.96 115.623273 
L 691.83 137.786654 
" clip-path="url(#pe7c1eecb09)" style="fill: none; stroke: #0000ff; stroke-width: 1.5; stroke-linecap: square"/>
   </g>
   <g id="line2d_22">
    <path d="M 62.48 89.74537 
L 188.35 94.612684 
L 314.22 97.574638 
L 440.09 106.215459 
L 565.96 130.03202 
L 691.83 146.220511 
" clip-path="url(#pe7c1eecb09)" style="fill: none; stroke: #0000ff; stroke-width: 1.5; stroke-linecap: square"/>
   </g>
   <g id="line2d_23">
    <path d="M 62.48 89.74537 
L 188.35 90.453265 
L 314.22 89.745331 
L 440.09 92.371612 
L 565.96 106.366342 
L 691.83 108.666974 
" clip-path="url(#pe7c1eecb09)" style="fill: none; stroke: #0000ff; stroke-width: 1.5; stroke-linecap: square"/>
   </g>
   <g id="line2d_24">
    <path d="M 62.48 89.74537 
L 188.35 91.120748 
L 314.22 89.745194 
L 440.09 92.61828 
L 565.96 94.630162 
L 691.83 97.435381 
" clip-path="url(#pe7c1eecb09)" style="fill: none; stroke: #0000ff; stroke-width: 1.5; stroke-linecap: square"/>
   </g>
   <g id="line2d_25">
    <path d="M 62.48 89.74537 
L 188.35 89.74534 
L 314.22 89.745347 
L 440.09 90.570941 
L 565.96 89.745332 
L 691.83 90.570776 
" clip-path="url(#pe7c1eecb09)" style="fill: none; stroke: #0000ff; stroke-width: 1.5; stroke-linecap: square"/>
   </g>
   <g id="line2d_26">
    <path d="M 62.48 89.74537 
L 188.35 89.745384 
L 314.22 89.74536 
L 440.09 90.513928 
L 565.96 89.745382 
L 691.83 90.513901 
" clip-path="url(#pe7c1eecb09)" style="fill: none; stroke: #0000ff; stroke-width: 1.5; stroke-linecap: square"/>
   </g>
   <g id="line2d_27">
    <path d="M 62.48 89.74537 
L 188.35 100.644561 
L 314.22 89.779586 
L 440.09 104.503183 
L 565.96 130.050907 
L 691.83 145.754163 
" clip-path="url(#pe7c1eecb09)" style="fill: none; stroke: #0000ff; stroke-width: 1.5; stroke-linecap: square"/>
   </g>
   <g id="line2d_28">
    <path d="M 62.48 89.74537 
L 188.35 102.976332 
L 314.22 89.735258 
L 440.09 108.256501 
L 565.96 133.582155 
L 691.83 153.018427 
" clip-path="url(#pe7c1eecb09)" style="fill: none; stroke: #0000ff; stroke-width: 1.5; stroke-linecap: square"/>
   </g>
   <g id="line2d_29">
    <path d="M 62.48 89.74537 
L 188.35 89.434216 
L 314.22 89.759392 
L 440.09 91.72113 
L 565.96 88.085621 
L 691.83 90.058335 
" clip-path="url(#pe7c1eecb09)" style="fill: none; stroke: #0000ff; stroke-width: 1.5; stroke-linecap: square"/>
   </g>
   <g id="line2d_30">
    <path d="M 62.48 89.74537 
L 188.35 96.305694 
L 314.22 89.647256 
L 440.09 99.759538 
L 565.96 130.537121 
L 691.83 138.520116 
" clip-path="url(#pe7c1eecb09)" style="fill: none; stroke: #0000ff; stroke-width: 1.5; stroke-linecap: square"/>
   </g>
   <g id="line2d_31">
    <path d="M 62.48 89.74537 
L 188.35 101.194052 
L 314.22 107.576442 
L 440.09 127.916011 
L 565.96 176.208225 
L 691.83 214.240246 
" clip-path="url(#pe7c1eecb09)" style="fill: none; stroke: #0000ff; stroke-width: 1.5; stroke-linecap: square"/>
   </g>
   <g id="line2d_32">
    <path d="M 62.48 89.74537 
L 188.35 94.623947 
L 314.22 99.876415 
L 440.09 110.503086 
L 565.96 143.825987 
L 691.83 154.994467 
" clip-path="url(#pe7c1eecb09)" style="fill: none; stroke: #0000ff; stroke-width: 1.5; stroke-linecap: square"/>
   </g>
   <g id="line2d_33">
    <path d="M 62.48 89.74537 
L 188.35 98.027691 
L 314.22 104.717412 
L 440.09 119.504953 
L 565.96 172.610171 
L 691.83 195.973918 
" clip-path="url(#pe7c1eecb09)" style="fill: none; stroke: #0000ff; stroke-width: 1.5; stroke-linecap: square"/>
   </g>
   <g id="line2d_34">
    <path d="M 62.48 89.74537 
L 188.35 93.072475 
L 314.22 95.479737 
L 440.09 101.646164 
L 565.96 58.634233 
L 691.83 71.098483 
" clip-path="url(#pe7c1eecb09)" style="fill: none; stroke: #87cefa; stroke-width: 1.5; stroke-linecap: square"/>
   </g>
   <g id="line2d_35">
    <path d="M 62.48 89.74537 
L 188.35 91.762028 
L 314.22 89.732371 
L 440.09 93.026443 
L 565.96 89.650475 
L 691.83 92.939345 
" clip-path="url(#pe7c1eecb09)" style="fill: none; stroke: #87cefa; stroke-width: 1.5; stroke-linecap: square"/>
   </g>
   <g id="line2d_36">
    <path d="M 62.48 89.74537 
L 188.35 94.042576 
L 314.22 95.912675 
L 440.09 105.152289 
L 565.96 118.590401 
L 691.83 136.195543 
" clip-path="url(#pe7c1eecb09)" style="fill: none; stroke: #87cefa; stroke-width: 1.5; stroke-linecap: square"/>
   </g>
   <g id="line2d_37">
    <path d="M 62.48 89.74537 
L 188.35 89.745948 
L 314.22 89.746224 
L 440.09 91.098097 
L 565.96 89.159687 
L 691.83 90.514788 
" clip-path="url(#pe7c1eecb09)" style="fill: none; stroke: #87cefa; stroke-width: 1.5; stroke-linecap: square"/>
   </g>
   <g id="line2d_38">
    <path d="M 62.48 89.74537 
L 188.35 93.54944 
L 314.22 107.101677 
L 440.09 117.841972 
L 565.96 164.427037 
L 691.83 186.313986 
" clip-path="url(#pe7c1eecb09)" style="fill: none; stroke: #87cefa; stroke-width: 1.5; stroke-linecap: square"/>
   </g>
   <g id="line2d_39">
    <path d="M 62.48 89.74537 
L 188.35 100.261677 
L 314.22 105.50971 
L 440.09 128.997848 
L 565.96 265.821663 
L 691.83 318.212727 
" clip-path="url(#pe7c1eecb09)" style="fill: none; stroke: #87cefa; stroke-width: 1.5; stroke-linecap: square"/>
   </g>
   <g id="line2d_40">
    <path d="M 62.48 89.74537 
L 188.35 89.743123 
L 314.22 89.741596 
L 440.09 90.79548 
L 565.96 92.254344 
L 691.83 93.299363 
" clip-path="url(#pe7c1eecb09)" style="fill: none; stroke: #87cefa; stroke-width: 1.5; stroke-linecap: square"/>
   </g>
   <g id="line2d_41">
    <path d="M 62.48 89.74537 
L 188.35 89.7526 
L 314.22 89.744518 
L 440.09 91.858658 
L 565.96 86.946801 
L 691.83 89.096731 
" clip-path="url(#pe7c1eecb09)" style="fill: none; stroke: #87cefa; stroke-width: 1.5; stroke-linecap: square"/>
   </g>
   <g id="line2d_42">
    <path d="M 62.48 89.74537 
L 188.35 89.74556 
L 314.22 89.745512 
L 440.09 91.28788 
L 565.96 93.211705 
L 691.83 94.714457 
" clip-path="url(#pe7c1eecb09)" style="fill: none; stroke: #87cefa; stroke-width: 1.5; stroke-linecap: square"/>
   </g>
   <g id="line2d_43">
    <path d="M 62.48 89.74537 
L 188.35 89.7454 
L 314.22 89.745743 
L 440.09 93.384219 
L 565.96 107.200219 
L 691.83 110.827731 
" clip-path="url(#pe7c1eecb09)" style="fill: none; stroke: #87cefa; stroke-width: 1.5; stroke-linecap: square"/>
   </g>
   <g id="line2d_44">
    <path d="M 62.48 89.74537 
L 188.35 89.745591 
L 314.22 89.745539 
L 440.09 93.175277 
L 565.96 89.312382 
L 691.83 92.72461 
" clip-path="url(#pe7c1eecb09)" style="fill: none; stroke: #87cefa; stroke-width: 1.5; stroke-linecap: square"/>
   </g>
   <g id="line2d_45">
    <path d="M 62.48 89.74537 
L 188.35 89.745438 
L 314.22 89.723455 
L 440.09 91.514994 
L 565.96 89.64411 
L 691.83 91.390747 
" clip-path="url(#pe7c1eecb09)" style="fill: none; stroke: #87cefa; stroke-width: 1.5; stroke-linecap: square"/>
   </g>
   <g id="line2d_46">
    <path d="M 62.48 89.74537 
L 188.35 89.744769 
L 314.22 89.743837 
L 440.09 95.779195 
L 565.96 134.958667 
L 691.83 141.046392 
" clip-path="url(#pe7c1eecb09)" style="fill: none; stroke: #87cefa; stroke-width: 1.5; stroke-linecap: square"/>
   </g>
   <g id="line2d_47">
    <path d="M 62.48 89.74537 
L 188.35 89.745047 
L 314.22 89.745786 
L 440.09 93.693794 
L 565.96 114.083024 
L 691.83 118.015736 
" clip-path="url(#pe7c1eecb09)" style="fill: none; stroke: #87cefa; stroke-width: 1.5; stroke-linecap: square"/>
   </g>
   <g id="line2d_48">
    <path d="M 62.48 89.74537 
L 188.35 89.745577 
L 314.22 89.745494 
L 440.09 90.269974 
L 565.96 89.740565 
L 691.83 90.266062 
" clip-path="url(#pe7c1eecb09)" style="fill: none; stroke: #87cefa; stroke-width: 1.5; stroke-linecap: square"/>
   </g>
   <g id="line2d_49">
    <path d="M 62.48 89.74537 
L 188.35 89.745584 
L 314.22 106.193183 
L 440.09 107.954908 
L 565.96 89.744117 
L 691.83 107.954215 
" clip-path="url(#pe7c1eecb09)" style="fill: none; stroke: #0000ff; stroke-width: 1.5; stroke-linecap: square"/>
   </g>
   <g id="line2d_50">
    <path d="M 62.48 89.74537 
L 188.35 89.745257 
L 314.22 89.745238 
L 440.09 90.756289 
L 565.96 87.948151 
L 691.83 88.987265 
" clip-path="url(#pe7c1eecb09)" style="fill: none; stroke: #87cefa; stroke-width: 1.5; stroke-linecap: square"/>
   </g>
   <g id="line2d_51">
    <path d="M 62.48 89.74537 
L 188.35 89.744955 
L 314.22 89.883876 
L 440.09 96.893388 
L 565.96 149.27014 
L 691.83 157.292004 
" clip-path="url(#pe7c1eecb09)" style="fill: none; stroke: #87cefa; stroke-width: 1.5; stroke-linecap: square"/>
   </g>
   <g id="line2d_52">
    <path d="M 62.48 89.74537 
L 188.35 89.745374 
L 314.22 111.379358 
L 440.09 113.221579 
L 565.96 92.148958 
L 691.83 115.328136 
" clip-path="url(#pe7c1eecb09)" style="fill: none; stroke: #0000ff; stroke-width: 1.5; stroke-linecap: square"/>
   </g>
   <g id="line2d_53">
    <path d="M 62.48 89.74537 
L 188.35 89.743867 
L 314.22 89.858765 
L 440.09 94.984218 
L 565.96 136.836587 
L 691.83 138.9675 
" clip-path="url(#pe7c1eecb09)" style="fill: none; stroke: #87cefa; stroke-width: 1.5; stroke-linecap: square"/>
   </g>
   <g id="line2d_54">
    <path d="M 62.48 89.74537 
L 188.35 89.745652 
L 314.22 95.391056 
L 440.09 98.309524 
L 565.96 114.179231 
L 691.83 120.027102 
" clip-path="url(#pe7c1eecb09)" style="fill: none; stroke: #87cefa; stroke-width: 1.5; stroke-linecap: square"/>
   </g>
   <g id="line2d_55">
    <path d="M 62.48 89.74537 
L 188.35 89.744658 
L 314.22 89.744629 
L 440.09 94.93176 
L 565.96 153.160958 
L 691.83 158.608862 
" clip-path="url(#pe7c1eecb09)" style="fill: none; stroke: #87cefa; stroke-width: 1.5; stroke-linecap: square"/>
   </g>
   <g id="line2d_56">
    <path d="M 62.48 89.74537 
L 188.35 96.672063 
L 314.22 105.011759 
L 440.09 120.340837 
L 565.96 205.046402 
L 691.83 214.44523 
" clip-path="url(#pe7c1eecb09)" style="fill: none; stroke: #0000ff; stroke-width: 1.5; stroke-linecap: square"/>
   </g>
   <g id="line2d_57">
    <path d="M 62.48 89.74537 
L 188.35 94.027216 
L 314.22 101.037621 
L 440.09 113.669483 
L 565.96 184.304811 
L 691.83 190.097932 
" clip-path="url(#pe7c1eecb09)" style="fill: none; stroke: #0000ff; stroke-width: 1.5; stroke-linecap: square"/>
   </g>
   <g id="line2d_58">
    <path d="M 62.48 89.74537 
L 188.35 89.745415 
L 314.22 89.745382 
L 440.09 91.94448 
L 565.96 123.639008 
L 691.83 125.646905 
" clip-path="url(#pe7c1eecb09)" style="fill: none; stroke: #0000ff; stroke-width: 1.5; stroke-linecap: square"/>
   </g>
   <g id="line2d_59">
    <path d="M 62.48 89.74537 
L 188.35 89.745457 
L 314.22 89.745435 
L 440.09 91.179876 
L 565.96 100.545209 
L 691.83 101.922353 
" clip-path="url(#pe7c1eecb09)" style="fill: none; stroke: #0000ff; stroke-width: 1.5; stroke-linecap: square"/>
   </g>
   <g id="line2d_60">
    <path d="M 62.48 89.74537 
L 188.35 89.745391 
L 314.22 89.745332 
L 440.09 90.88494 
L 565.96 91.004862 
L 691.83 92.141257 
" clip-path="url(#pe7c1eecb09)" style="fill: none; stroke: #0000ff; stroke-width: 1.5; stroke-linecap: square"/>
   </g>
   <g id="line2d_61">
    <path d="M 62.48 89.74537 
L 188.35 89.745398 
L 314.22 89.745355 
L 440.09 92.143026 
L 565.96 89.347683 
L 691.83 91.748748 
" clip-path="url(#pe7c1eecb09)" style="fill: none; stroke: #0000ff; stroke-width: 1.5; stroke-linecap: square"/>
   </g>
   <g id="line2d_62">
    <path d="M 62.48 89.74537 
L 188.35 95.404475 
L 314.22 98.859422 
L 440.09 109.672344 
L 565.96 40.067273 
L 691.83 63.116605 
" clip-path="url(#pe7c1eecb09)" style="fill: none; stroke: #87cefa; stroke-width: 1.5; stroke-linecap: square"/>
   </g>
   <g id="line2d_63">
    <path d="M 62.48 89.74537 
L 188.35 94.190489 
L 314.22 97.548157 
L 440.09 106.192662 
L 565.96 41.537124 
L 691.83 59.660896 
" clip-path="url(#pe7c1eecb09)" style="fill: none; stroke: #87cefa; stroke-width: 1.5; stroke-linecap: square"/>
   </g>
   <g id="line2d_64">
    <path d="M 62.48 89.74537 
L 188.35 89.745392 
L 314.22 89.745351 
L 440.09 90.941962 
L 565.96 89.681407 
L 691.83 90.872242 
" clip-path="url(#pe7c1eecb09)" style="fill: none; stroke: #0000ff; stroke-width: 1.5; stroke-linecap: square"/>
   </g>
   <g id="line2d_65">
    <path d="M 62.48 89.74537 
L 188.35 94.684271 
L 314.22 101.24847 
L 440.09 112.31662 
L 565.96 167.043817 
L 691.83 180.290968 
" clip-path="url(#pe7c1eecb09)" style="fill: none; stroke: #0000ff; stroke-width: 1.5; stroke-linecap: square"/>
   </g>
   <g id="line2d_66">
    <path d="M 62.48 89.74537 
L 188.35 96.248942 
L 314.22 102.184812 
L 440.09 116.222207 
L 565.96 176.759287 
L 691.83 186.534783 
" clip-path="url(#pe7c1eecb09)" style="fill: none; stroke: #0000ff; stroke-width: 1.5; stroke-linecap: square"/>
   </g>
   <g id="line2d_67">
    <path d="M 62.48 89.74537 
L 188.35 89.745369 
L 314.22 89.745365 
L 440.09 91.838612 
L 565.96 89.7623 
L 691.83 91.858729 
" clip-path="url(#pe7c1eecb09)" style="fill: none; stroke: #87cefa; stroke-width: 1.5; stroke-linecap: square"/>
   </g>
   <g id="line2d_68">
    <path d="M 62.48 89.74537 
L 188.35 89.779519 
L 314.22 89.882172 
L 440.09 91.867736 
L 565.96 100.690753 
L 691.83 102.66699 
" clip-path="url(#pe7c1eecb09)" style="fill: none; stroke: #87cefa; stroke-width: 1.5; stroke-linecap: square"/>
   </g>
   <g id="line2d_69">
    <path d="M 62.48 89.74537 
L 188.35 89.745194 
L 314.22 89.74511 
L 440.09 91.502578 
L 565.96 89.420584 
L 691.83 91.185792 
" clip-path="url(#pe7c1eecb09)" style="fill: none; stroke: #87cefa; stroke-width: 1.5; stroke-linecap: square"/>
   </g>
   <g id="line2d_70">
    <path d="M 62.48 89.74537 
L 188.35 89.745372 
L 314.22 89.745364 
L 440.09 90.947648 
L 565.96 88.186004 
L 691.83 88.786807 
" clip-path="url(#pe7c1eecb09)" style="fill: none; stroke: #87cefa; stroke-width: 1.5; stroke-linecap: square"/>
   </g>
   <g id="line2d_71">
    <path d="M 62.48 89.74537 
L 188.35 89.744552 
L 314.22 89.744595 
L 440.09 89.599195 
L 565.96 89.447054 
L 691.83 89.428298 
" clip-path="url(#pe7c1eecb09)" style="fill: none; stroke: #87cefa; stroke-width: 1.5; stroke-linecap: square"/>
   </g>
   <g id="line2d_72">
    <path d="M 62.48 89.74537 
L 188.35 89.794847 
L 314.22 89.939996 
L 440.09 92.186745 
L 565.96 117.458551 
L 691.83 119.34744 
" clip-path="url(#pe7c1eecb09)" style="fill: none; stroke: #87cefa; stroke-width: 1.5; stroke-linecap: square"/>
   </g>
   <g id="line2d_73">
    <path d="M 62.48 89.74537 
L 188.35 89.754344 
L 314.22 98.701147 
L 440.09 99.954549 
L 565.96 89.390987 
L 691.83 99.609418 
" clip-path="url(#pe7c1eecb09)" style="fill: none; stroke: #87cefa; stroke-width: 1.5; stroke-linecap: square"/>
   </g>
   <g id="line2d_74">
    <path d="M 62.48 89.74537 
L 188.35 90.470542 
L 314.22 91.09785 
L 440.09 94.34575 
L 565.96 149.505501 
L 691.83 152.335144 
" clip-path="url(#pe7c1eecb09)" style="fill: none; stroke: #0000ff; stroke-width: 1.5; stroke-linecap: square"/>
   </g>
   <g id="line2d_75">
    <path d="M 62.48 89.74537 
L 188.35 89.749625 
L 314.22 110.167332 
L 440.09 113.574523 
L 565.96 110.769681 
L 691.83 134.97722 
" clip-path="url(#pe7c1eecb09)" style="fill: none; stroke: #0000ff; stroke-width: 1.5; stroke-linecap: square"/>
   </g>
   <g id="line2d_76">
    <path d="M 62.48 89.74537 
L 188.35 89.74712 
L 314.22 128.748604 
L 440.09 136.442602 
L 565.96 164.085287 
L 691.83 204.150972 
" clip-path="url(#pe7c1eecb09)" style="fill: none; stroke: #0000ff; stroke-width: 1.5; stroke-linecap: square"/>
   </g>
   <g id="line2d_77">
    <path d="M 62.48 89.74537 
L 188.35 89.842579 
L 314.22 90.151625 
L 440.09 91.434413 
L 565.96 88.87091 
L 691.83 90.902565 
" clip-path="url(#pe7c1eecb09)" style="fill: none; stroke: #87cefa; stroke-width: 1.5; stroke-linecap: square"/>
   </g>
   <g id="line2d_78">
    <path d="M 62.48 89.74537 
L 188.35 90.059568 
L 314.22 91.020116 
L 440.09 94.061893 
L 565.96 124.796421 
L 691.83 126.967904 
" clip-path="url(#pe7c1eecb09)" style="fill: none; stroke: #0000ff; stroke-width: 1.5; stroke-linecap: square"/>
   </g>
   <g id="line2d_79">
    <path d="M 62.48 89.74537 
L 188.35 90.51737 
L 314.22 89.74528 
L 440.09 92.517726 
L 565.96 114.930036 
L 691.83 117.230963 
" clip-path="url(#pe7c1eecb09)" style="fill: none; stroke: #0000ff; stroke-width: 1.5; stroke-linecap: square"/>
   </g>
   <g id="line2d_80">
    <path d="M 62.48 332.12 
L 62.48 26.16 
" clip-path="url(#pe7c1eecb09)" style="fill: none; stroke: #000000; stroke-linecap: square"/>
   </g>
   <g id="line2d_81">
    <path d="M 188.35 332.12 
L 188.35 26.16 
" clip-path="url(#pe7c1eecb09)" style="fill: none; stroke: #000000; stroke-linecap: square"/>
   </g>
   <g id="line2d_82">
    <path d="M 314.22 332.12 
L 314.22 26.16 
" clip-path="url(#pe7c1eecb09)" style="fill: none; stroke: #000000; stroke-linecap: square"/>
   </g>
   <g id="line2d_83">
    <path d="M 440.09 332.12 
L 440.09 26.16 
" clip-path="url(#pe7c1eecb09)" style="fill: none; stroke: #000000; stroke-linecap: square"/>
   </g>
   <g id="line2d_84">
    <path d="M 565.96 332.12 
L 565.96 26.16 
" clip-path="url(#pe7c1eecb09)" style="fill: none; stroke: #000000; stroke-linecap: square"/>
   </g>
   <g id="line2d_85">
    <path d="M 691.83 332.12 
L 691.83 26.16 
" clip-path="url(#pe7c1eecb09)" style="fill: none; stroke: #000000; stroke-linecap: square"/>
   </g>
   <g id="patch_3">
    <path d="M 62.48 332.12 
L 62.48 26.16 
" style="fill: none; stroke: #000000; stroke-width: 0.8; stroke-linejoin: miter; stroke-linecap: square"/>
   </g>
   <g id="patch_4">
    <path d="M 691.83 332.12 
L 691.83 26.16 
" style="fill: none; stroke: #000000; stroke-width: 0.8; stroke-linejoin: miter; stroke-linecap: square"/>
   </g>
   <g id="patch_5">
    <path d="M 62.48 332.12 
L 691.83 332.12 
" style="fill: none; stroke: #000000; stroke-width: 0.8; stroke-linejoin: miter; stroke-linecap: square"/>
   </g>
   <g id="patch_6">
    <path d="M 62.48 26.16 
L 691.83 26.16 
" style="fill: none; stroke: #000000; stroke-width: 0.8; stroke-linejoin: miter; stroke-linecap: square"/>
   </g>
   <g id="text_12">
    <!-- June 27, 2023: Relative Improvement of Depth of Flooding -->
    <g transform="translate(202.0525 20.16) scale(0.12 -0.12)">
     <defs>
      <path id="DejaVuSans-4a" d="M 628 4666 
L 1259 4666 
L 1259 325 
Q 1259 -519 939 -900 
Q 619 -1281 -91 -1281 
L -331 -1281 
L -331 -750 
L -134 -750 
Q 284 -750 456 -515 
Q 628 -281 628 325 
L 628 4666 
z
" transform="scale(0.015625)"/>
      <path id="DejaVuSans-75" d="M 544 1381 
L 544 3500 
L 1119 3500 
L 1119 1403 
Q 1119 906 1312 657 
Q 1506 409 1894 409 
Q 2359 409 2629 706 
Q 2900 1003 2900 1516 
L 2900 3500 
L 3475 3500 
L 3475 0 
L 2900 0 
L 2900 538 
Q 2691 219 2414 64 
Q 2138 -91 1772 -91 
Q 1169 -91 856 284 
Q 544 659 544 1381 
z
M 1991 3584 
L 1991 3584 
z
" transform="scale(0.015625)"/>
      <path id="DejaVuSans-6e" d="M 3513 2113 
L 3513 0 
L 2938 0 
L 2938 2094 
Q 2938 2591 2744 2837 
Q 2550 3084 2163 3084 
Q 1697 3084 1428 2787 
Q 1159 2491 1159 1978 
L 1159 0 
L 581 0 
L 581 3500 
L 1159 3500 
L 1159 2956 
Q 1366 3272 1645 3428 
Q 1925 3584 2291 3584 
Q 2894 3584 3203 3211 
Q 3513 2838 3513 2113 
z
" transform="scale(0.015625)"/>
      <path id="DejaVuSans-32" d="M 1228 531 
L 3431 531 
L 3431 0 
L 469 0 
L 469 531 
Q 828 903 1448 1529 
Q 2069 2156 2228 2338 
Q 2531 2678 2651 2914 
Q 2772 3150 2772 3378 
Q 2772 3750 2511 3984 
Q 2250 4219 1831 4219 
Q 1534 4219 1204 4116 
Q 875 4013 500 3803 
L 500 4441 
Q 881 4594 1212 4672 
Q 1544 4750 1819 4750 
Q 2544 4750 2975 4387 
Q 3406 4025 3406 3419 
Q 3406 3131 3298 2873 
Q 3191 2616 2906 2266 
Q 2828 2175 2409 1742 
Q 1991 1309 1228 531 
z
" transform="scale(0.015625)"/>
      <path id="DejaVuSans-37" d="M 525 4666 
L 3525 4666 
L 3525 4397 
L 1831 0 
L 1172 0 
L 2766 4134 
L 525 4134 
L 525 4666 
z
" transform="scale(0.015625)"/>
      <path id="DejaVuSans-2c" d="M 750 794 
L 1409 794 
L 1409 256 
L 897 -744 
L 494 -744 
L 750 256 
L 750 794 
z
" transform="scale(0.015625)"/>
      <path id="DejaVuSans-3a" d="M 750 794 
L 1409 794 
L 1409 0 
L 750 0 
L 750 794 
z
M 750 3309 
L 1409 3309 
L 1409 2516 
L 750 2516 
L 750 3309 
z
" transform="scale(0.015625)"/>
      <path id="DejaVuSans-52" d="M 2841 2188 
Q 3044 2119 3236 1894 
Q 3428 1669 3622 1275 
L 4263 0 
L 3584 0 
L 2988 1197 
Q 2756 1666 2539 1819 
Q 2322 1972 1947 1972 
L 1259 1972 
L 1259 0 
L 628 0 
L 628 4666 
L 2053 4666 
Q 2853 4666 3247 4331 
Q 3641 3997 3641 3322 
Q 3641 2881 3436 2590 
Q 3231 2300 2841 2188 
z
M 1259 4147 
L 1259 2491 
L 2053 2491 
Q 2509 2491 2742 2702 
Q 2975 2913 2975 3322 
Q 2975 3731 2742 3939 
Q 2509 4147 2053 4147 
L 1259 4147 
z
" transform="scale(0.015625)"/>
      <path id="DejaVuSans-6c" d="M 603 4863 
L 1178 4863 
L 1178 0 
L 603 0 
L 603 4863 
z
" transform="scale(0.015625)"/>
      <path id="DejaVuSans-69" d="M 603 3500 
L 1178 3500 
L 1178 0 
L 603 0 
L 603 3500 
z
M 603 4863 
L 1178 4863 
L 1178 4134 
L 603 4134 
L 603 4863 
z
" transform="scale(0.015625)"/>
      <path id="DejaVuSans-76" d="M 191 3500 
L 800 3500 
L 1894 563 
L 2988 3500 
L 3597 3500 
L 2284 0 
L 1503 0 
L 191 3500 
z
" transform="scale(0.015625)"/>
      <path id="DejaVuSans-72" d="M 2631 2963 
Q 2534 3019 2420 3045 
Q 2306 3072 2169 3072 
Q 1681 3072 1420 2755 
Q 1159 2438 1159 1844 
L 1159 0 
L 581 0 
L 581 3500 
L 1159 3500 
L 1159 2956 
Q 1341 3275 1631 3429 
Q 1922 3584 2338 3584 
Q 2397 3584 2469 3576 
Q 2541 3569 2628 3553 
L 2631 2963 
z
" transform="scale(0.015625)"/>
      <path id="DejaVuSans-6f" d="M 1959 3097 
Q 1497 3097 1228 2736 
Q 959 2375 959 1747 
Q 959 1119 1226 758 
Q 1494 397 1959 397 
Q 2419 397 2687 759 
Q 2956 1122 2956 1747 
Q 2956 2369 2687 2733 
Q 2419 3097 1959 3097 
z
M 1959 3584 
Q 2709 3584 3137 3096 
Q 3566 2609 3566 1747 
Q 3566 888 3137 398 
Q 2709 -91 1959 -91 
Q 1206 -91 779 398 
Q 353 888 353 1747 
Q 353 2609 779 3096 
Q 1206 3584 1959 3584 
z
" transform="scale(0.015625)"/>
      <path id="DejaVuSans-66" d="M 2375 4863 
L 2375 4384 
L 1825 4384 
Q 1516 4384 1395 4259 
Q 1275 4134 1275 3809 
L 1275 3500 
L 2222 3500 
L 2222 3053 
L 1275 3053 
L 1275 0 
L 697 0 
L 697 3053 
L 147 3053 
L 147 3500 
L 697 3500 
L 697 3744 
Q 697 4328 969 4595 
Q 1241 4863 1831 4863 
L 2375 4863 
z
" transform="scale(0.015625)"/>
      <path id="DejaVuSans-46" d="M 628 4666 
L 3309 4666 
L 3309 4134 
L 1259 4134 
L 1259 2759 
L 3109 2759 
L 3109 2228 
L 1259 2228 
L 1259 0 
L 628 0 
L 628 4666 
z
" transform="scale(0.015625)"/>
      <path id="DejaVuSans-64" d="M 2906 2969 
L 2906 4863 
L 3481 4863 
L 3481 0 
L 2906 0 
L 2906 525 
Q 2725 213 2448 61 
Q 2172 -91 1784 -91 
Q 1150 -91 751 415 
Q 353 922 353 1747 
Q 353 2572 751 3078 
Q 1150 3584 1784 3584 
Q 2172 3584 2448 3432 
Q 2725 3281 2906 2969 
z
M 947 1747 
Q 947 1113 1208 752 
Q 1469 391 1925 391 
Q 2381 391 2643 752 
Q 2906 1113 2906 1747 
Q 2906 2381 2643 2742 
Q 2381 3103 1925 3103 
Q 1469 3103 1208 2742 
Q 947 2381 947 1747 
z
" transform="scale(0.015625)"/>
      <path id="DejaVuSans-67" d="M 2906 1791 
Q 2906 2416 2648 2759 
Q 2391 3103 1925 3103 
Q 1463 3103 1205 2759 
Q 947 2416 947 1791 
Q 947 1169 1205 825 
Q 1463 481 1925 481 
Q 2391 481 2648 825 
Q 2906 1169 2906 1791 
z
M 3481 434 
Q 3481 -459 3084 -895 
Q 2688 -1331 1869 -1331 
Q 1566 -1331 1297 -1286 
Q 1028 -1241 775 -1147 
L 775 -588 
Q 1028 -725 1275 -790 
Q 1522 -856 1778 -856 
Q 2344 -856 2625 -561 
Q 2906 -266 2906 331 
L 2906 616 
Q 2728 306 2450 153 
Q 2172 0 1784 0 
Q 1141 0 747 490 
Q 353 981 353 1791 
Q 353 2603 747 3093 
Q 1141 3584 1784 3584 
Q 2172 3584 2450 3431 
Q 2728 3278 2906 2969 
L 2906 3500 
L 3481 3500 
L 3481 434 
z
" transform="scale(0.015625)"/>
     </defs>
     <use xlink:href="#DejaVuSans-4a"/>
     <use xlink:href="#DejaVuSans-75" transform="translate(29.492188 0)"/>
     <use xlink:href="#DejaVuSans-6e" transform="translate(92.871094 0)"/>
     <use xlink:href="#DejaVuSans-65" transform="translate(156.25 0)"/>
     <use xlink:href="#DejaVuSans-20" transform="translate(217.773438 0)"/>
     <use xlink:href="#DejaVuSans-32" transform="translate(249.560547 0)"/>
     <use xlink:href="#DejaVuSans-37" transform="translate(313.183594 0)"/>
     <use xlink:href="#DejaVuSans-2c" transform="translate(376.806641 0)"/>
     <use xlink:href="#DejaVuSans-20" transform="translate(408.59375 0)"/>
     <use xlink:href="#DejaVuSans-32" transform="translate(440.380859 0)"/>
     <use xlink:href="#DejaVuSans-30" transform="translate(504.003906 0)"/>
     <use xlink:href="#DejaVuSans-32" transform="translate(567.626953 0)"/>
     <use xlink:href="#DejaVuSans-33" transform="translate(631.25 0)"/>
     <use xlink:href="#DejaVuSans-3a" transform="translate(694.873047 0)"/>
     <use xlink:href="#DejaVuSans-20" transform="translate(728.564453 0)"/>
     <use xlink:href="#DejaVuSans-52" transform="translate(760.351562 0)"/>
     <use xlink:href="#DejaVuSans-65" transform="translate(825.333984 0)"/>
     <use xlink:href="#DejaVuSans-6c" transform="translate(886.857422 0)"/>
     <use xlink:href="#DejaVuSans-61" transform="translate(914.640625 0)"/>
     <use xlink:href="#DejaVuSans-74" transform="translate(975.919922 0)"/>
     <use xlink:href="#DejaVuSans-69" transform="translate(1015.128906 0)"/>
     <use xlink:href="#DejaVuSans-76" transform="translate(1042.912109 0)"/>
     <use xlink:href="#DejaVuSans-65" transform="translate(1102.091797 0)"/>
     <use xlink:href="#DejaVuSans-20" transform="translate(1163.615234 0)"/>
     <use xlink:href="#DejaVuSans-49" transform="translate(1195.402344 0)"/>
     <use xlink:href="#DejaVuSans-6d" transform="translate(1224.894531 0)"/>
     <use xlink:href="#DejaVuSans-70" transform="translate(1322.306641 0)"/>
     <use xlink:href="#DejaVuSans-72" transform="translate(1385.783203 0)"/>
     <use xlink:href="#DejaVuSans-6f" transform="translate(1424.646484 0)"/>
     <use xlink:href="#DejaVuSans-76" transform="translate(1485.828125 0)"/>
     <use xlink:href="#DejaVuSans-65" transform="translate(1545.007812 0)"/>
     <use xlink:href="#DejaVuSans-6d" transform="translate(1606.53125 0)"/>
     <use xlink:href="#DejaVuSans-65" transform="translate(1703.943359 0)"/>
     <use xlink:href="#DejaVuSans-6e" transform="translate(1765.466797 0)"/>
     <use xlink:href="#DejaVuSans-74" transform="translate(1828.845703 0)"/>
     <use xlink:href="#DejaVuSans-20" transform="translate(1868.054688 0)"/>
     <use xlink:href="#DejaVuSans-6f" transform="translate(1899.841797 0)"/>
     <use xlink:href="#DejaVuSans-66" transform="translate(1961.023438 0)"/>
     <use xlink:href="#DejaVuSans-20" transform="translate(1996.228516 0)"/>
     <use xlink:href="#DejaVuSans-44" transform="translate(2028.015625 0)"/>
     <use xlink:href="#DejaVuSans-65" transform="translate(2105.017578 0)"/>
     <use xlink:href="#DejaVuSans-70" transform="translate(2166.541016 0)"/>
     <use xlink:href="#DejaVuSans-74" transform="translate(2230.017578 0)"/>
     <use xlink:href="#DejaVuSans-68" transform="translate(2269.226562 0)"/>
     <use xlink:href="#DejaVuSans-20" transform="translate(2332.605469 0)"/>
     <use xlink:href="#DejaVuSans-6f" transform="translate(2364.392578 0)"/>
     <use xlink:href="#DejaVuSans-66" transform="translate(2425.574219 0)"/>
     <use xlink:href="#DejaVuSans-20" transform="translate(2460.779297 0)"/>
     <use xlink:href="#DejaVuSans-46" transform="translate(2492.566406 0)"/>
     <use xlink:href="#DejaVuSans-6c" transform="translate(2550.085938 0)"/>
     <use xlink:href="#DejaVuSans-6f" transform="translate(2577.869141 0)"/>
     <use xlink:href="#DejaVuSans-6f" transform="translate(2639.050781 0)"/>
     <use xlink:href="#DejaVuSans-64" transform="translate(2700.232422 0)"/>
     <use xlink:href="#DejaVuSans-69" transform="translate(2763.708984 0)"/>
     <use xlink:href="#DejaVuSans-6e" transform="translate(2791.492188 0)"/>
     <use xlink:href="#DejaVuSans-67" transform="translate(2854.871094 0)"/>
    </g>
   </g>
   <g id="legend_1">
    <g id="patch_7">
     <path d="M 69.48 195.318125 
L 195.537813 195.318125 
Q 197.537813 195.318125 197.537813 193.318125 
L 197.537813 164.961875 
Q 197.537813 162.961875 195.537813 162.961875 
L 69.48 162.961875 
Q 67.48 162.961875 67.48 164.961875 
L 67.48 193.318125 
Q 67.48 195.318125 69.48 195.318125 
z
" style="fill: #ffffff; opacity: 0.8; stroke: #cccccc; stroke-linejoin: miter"/>
    </g>
    <g id="line2d_86">
     <path d="M 71.48 171.060312 
L 81.48 171.060312 
L 91.48 171.060312 
" style="fill: none; stroke: #87cefa; stroke-width: 1.5; stroke-linecap: square"/>
    </g>
    <g id="text_13">
     <!-- Harris Creek -->
     <g transform="translate(99.48 174.560312) scale(0.1 -0.1)">
      <defs>
       <path id="DejaVuSans-48" d="M 628 4666 
L 1259 4666 
L 1259 2753 
L 3553 2753 
L 3553 4666 
L 4184 4666 
L 4184 0 
L 3553 0 
L 3553 2222 
L 1259 2222 
L 1259 0 
L 628 0 
L 628 4666 
z
" transform="scale(0.015625)"/>
       <path id="DejaVuSans-6b" d="M 581 4863 
L 1159 4863 
L 1159 1991 
L 2875 3500 
L 3609 3500 
L 1753 1863 
L 3688 0 
L 2938 0 
L 1159 1709 
L 1159 0 
L 581 0 
L 581 4863 
z
" transform="scale(0.015625)"/>
      </defs>
      <use xlink:href="#DejaVuSans-48"/>
      <use xlink:href="#DejaVuSans-61" transform="translate(75.195312 0)"/>
      <use xlink:href="#DejaVuSans-72" transform="translate(136.474609 0)"/>
      <use xlink:href="#DejaVuSans-72" transform="translate(175.837891 0)"/>
      <use xlink:href="#DejaVuSans-69" transform="translate(216.951172 0)"/>
      <use xlink:href="#DejaVuSans-73" transform="translate(244.734375 0)"/>
      <use xlink:href="#DejaVuSans-20" transform="translate(296.833984 0)"/>
      <use xlink:href="#DejaVuSans-43" transform="translate(328.621094 0)"/>
      <use xlink:href="#DejaVuSans-72" transform="translate(398.445312 0)"/>
      <use xlink:href="#DejaVuSans-65" transform="translate(437.308594 0)"/>
      <use xlink:href="#DejaVuSans-65" transform="translate(498.832031 0)"/>
      <use xlink:href="#DejaVuSans-6b" transform="translate(560.355469 0)"/>
     </g>
    </g>
    <g id="line2d_87">
     <path d="M 71.48 185.738437 
L 81.48 185.738437 
L 91.48 185.738437 
" style="fill: none; stroke: #0000ff; stroke-width: 1.5; stroke-linecap: square"/>
    </g>
    <g id="text_14">
     <!-- Canal Street Creek -->
     <g transform="translate(99.48 189.238437) scale(0.1 -0.1)">
      <defs>
       <path id="DejaVuSans-53" d="M 3425 4513 
L 3425 3897 
Q 3066 4069 2747 4153 
Q 2428 4238 2131 4238 
Q 1616 4238 1336 4038 
Q 1056 3838 1056 3469 
Q 1056 3159 1242 3001 
Q 1428 2844 1947 2747 
L 2328 2669 
Q 3034 2534 3370 2195 
Q 3706 1856 3706 1288 
Q 3706 609 3251 259 
Q 2797 -91 1919 -91 
Q 1588 -91 1214 -16 
Q 841 59 441 206 
L 441 856 
Q 825 641 1194 531 
Q 1563 422 1919 422 
Q 2459 422 2753 634 
Q 3047 847 3047 1241 
Q 3047 1584 2836 1778 
Q 2625 1972 2144 2069 
L 1759 2144 
Q 1053 2284 737 2584 
Q 422 2884 422 3419 
Q 422 4038 858 4394 
Q 1294 4750 2059 4750 
Q 2388 4750 2728 4690 
Q 3069 4631 3425 4513 
z
" transform="scale(0.015625)"/>
      </defs>
      <use xlink:href="#DejaVuSans-43"/>
      <use xlink:href="#DejaVuSans-61" transform="translate(69.824219 0)"/>
      <use xlink:href="#DejaVuSans-6e" transform="translate(131.103516 0)"/>
      <use xlink:href="#DejaVuSans-61" transform="translate(194.482422 0)"/>
      <use xlink:href="#DejaVuSans-6c" transform="translate(255.761719 0)"/>
      <use xlink:href="#DejaVuSans-20" transform="translate(283.544922 0)"/>
      <use xlink:href="#DejaVuSans-53" transform="translate(315.332031 0)"/>
      <use xlink:href="#DejaVuSans-74" transform="translate(378.808594 0)"/>
      <use xlink:href="#DejaVuSans-72" transform="translate(418.017578 0)"/>
      <use xlink:href="#DejaVuSans-65" transform="translate(456.880859 0)"/>
      <use xlink:href="#DejaVuSans-65" transform="translate(518.404297 0)"/>
      <use xlink:href="#DejaVuSans-74" transform="translate(579.927734 0)"/>
      <use xlink:href="#DejaVuSans-20" transform="translate(619.136719 0)"/>
      <use xlink:href="#DejaVuSans-43" transform="translate(650.923828 0)"/>
      <use xlink:href="#DejaVuSans-72" transform="translate(720.748047 0)"/>
      <use xlink:href="#DejaVuSans-65" transform="translate(759.611328 0)"/>
      <use xlink:href="#DejaVuSans-65" transform="translate(821.134766 0)"/>
      <use xlink:href="#DejaVuSans-6b" transform="translate(882.658203 0)"/>
     </g>
    </g>
   </g>
  </g>
 </g>
 <defs>
  <clipPath id="pe7c1eecb09">
   <rect x="62.48" y="26.16" width="629.35" height="305.96"/>
  </clipPath>
 </defs>
</svg>
