<?xml version="1.0" encoding="utf-8" standalone="no"?>
<!DOCTYPE svg PUBLIC "-//W3C//DTD SVG 1.1//EN"
  "http://www.w3.org/Graphics/SVG/1.1/DTD/svg11.dtd">
<svg xmlns:xlink="http://www.w3.org/1999/xlink" width="720pt" height="288pt" viewBox="0 0 720 288" xmlns="http://www.w3.org/2000/svg" version="1.1">
 <metadata>
  <rdf:RDF xmlns:dc="http://purl.org/dc/elements/1.1/" xmlns:cc="http://creativecommons.org/ns#" xmlns:rdf="http://www.w3.org/1999/02/22-rdf-syntax-ns#">
   <cc:Work>
    <dc:type rdf:resource="http://purl.org/dc/dcmitype/StillImage"/>
    <dc:date>2025-10-14T12:50:14.131934</dc:date>
    <dc:format>image/svg+xml</dc:format>
    <dc:creator>
     <cc:Agent>
      <dc:title>Matplotlib v3.10.0, https://matplotlib.org/</dc:title>
     </cc:Agent>
    </dc:creator>
   </cc:Work>
  </rdf:RDF>
 </metadata>
 <defs>
  <style type="text/css">*{stroke-linejoin: round; stroke-linecap: butt}</style>
 </defs>
 <g id="figure_1">
  <g id="patch_1">
   <path d="M 0 288 
L 720 288 
L 720 0 
L 0 0 
z
" style="fill: #ffffff"/>
  </g>
  <g id="axes_1">
   <g id="patch_2">
    <path d="M 62.48 235.78 
L 556.015 235.78 
L 556.015 52.22 
L 62.48 52.22 
z
" style="fill: #ffffff"/>
   </g>
   <g id="matplotlib.axis_1">
    <g id="xtick_1">
     <g id="line2d_1">
      <path d="M 62.48 235.78 
L 62.48 52.22 
" clip-path="url(#pcd4f53ce58)" style="fill: none; stroke: #b0b0b0; stroke-width: 0.8; stroke-linecap: square"/>
     </g>
     <g id="line2d_2">
      <defs>
       <path id="mc2841fdd74" d="M 0 0 
L 0 3.5 
" style="stroke: #000000; stroke-width: 0.8"/>
      </defs>
      <g>
       <use xlink:href="#mc2841fdd74" x="62.48" y="235.78" style="stroke: #000000; stroke-width: 0.8"/>
      </g>
     </g>
     <g id="text_1">
      <!-- Base -->
      <g transform="translate(50.304219 250.378437) scale(0.1 -0.1)">
       <defs>
        <path id="DejaVuSans-42" d="M 1259 2228 
L 1259 519 
L 2272 519 
Q 2781 519 3026 730 
Q 3272 941 3272 1375 
Q 3272 1813 3026 2020 
Q 2781 2228 2272 2228 
L 1259 2228 
z
M 1259 4147 
L 1259 2741 
L 2194 2741 
Q 2656 2741 2882 2914 
Q 3109 3088 3109 3444 
Q 3109 3797 2882 3972 
Q 2656 4147 2194 4147 
L 1259 4147 
z
M 628 4666 
L 2241 4666 
Q 2963 4666 3353 4366 
Q 3744 4066 3744 3513 
Q 3744 3084 3544 2831 
Q 3344 2578 2956 2516 
Q 3422 2416 3680 2098 
Q 3938 1781 3938 1306 
Q 3938 681 3513 340 
Q 3088 0 2303 0 
L 628 0 
L 628 4666 
z
" transform="scale(0.015625)"/>
        <path id="DejaVuSans-61" d="M 2194 1759 
Q 1497 1759 1228 1600 
Q 959 1441 959 1056 
Q 959 750 1161 570 
Q 1363 391 1709 391 
Q 2188 391 2477 730 
Q 2766 1069 2766 1631 
L 2766 1759 
L 2194 1759 
z
M 3341 1997 
L 3341 0 
L 2766 0 
L 2766 531 
Q 2569 213 2275 61 
Q 1981 -91 1556 -91 
Q 1019 -91 701 211 
Q 384 513 384 1019 
Q 384 1609 779 1909 
Q 1175 2209 1959 2209 
L 2766 2209 
L 2766 2266 
Q 2766 2663 2505 2880 
Q 2244 3097 1772 3097 
Q 1472 3097 1187 3025 
Q 903 2953 641 2809 
L 641 3341 
Q 956 3463 1253 3523 
Q 1550 3584 1831 3584 
Q 2591 3584 2966 3190 
Q 3341 2797 3341 1997 
z
" transform="scale(0.015625)"/>
        <path id="DejaVuSans-73" d="M 2834 3397 
L 2834 2853 
Q 2591 2978 2328 3040 
Q 2066 3103 1784 3103 
Q 1356 3103 1142 2972 
Q 928 2841 928 2578 
Q 928 2378 1081 2264 
Q 1234 2150 1697 2047 
L 1894 2003 
Q 2506 1872 2764 1633 
Q 3022 1394 3022 966 
Q 3022 478 2636 193 
Q 2250 -91 1575 -91 
Q 1294 -91 989 -36 
Q 684 19 347 128 
L 347 722 
Q 666 556 975 473 
Q 1284 391 1588 391 
Q 1994 391 2212 530 
Q 2431 669 2431 922 
Q 2431 1156 2273 1281 
Q 2116 1406 1581 1522 
L 1381 1569 
Q 847 1681 609 1914 
Q 372 2147 372 2553 
Q 372 3047 722 3315 
Q 1072 3584 1716 3584 
Q 2034 3584 2315 3537 
Q 2597 3491 2834 3397 
z
" transform="scale(0.015625)"/>
        <path id="DejaVuSans-65" d="M 3597 1894 
L 3597 1613 
L 953 1613 
Q 991 1019 1311 708 
Q 1631 397 2203 397 
Q 2534 397 2845 478 
Q 3156 559 3463 722 
L 3463 178 
Q 3153 47 2828 -22 
Q 2503 -91 2169 -91 
Q 1331 -91 842 396 
Q 353 884 353 1716 
Q 353 2575 817 3079 
Q 1281 3584 2069 3584 
Q 2775 3584 3186 3129 
Q 3597 2675 3597 1894 
z
M 3022 2063 
Q 3016 2534 2758 2815 
Q 2500 3097 2075 3097 
Q 1594 3097 1305 2825 
Q 1016 2553 972 2059 
L 3022 2063 
z
" transform="scale(0.015625)"/>
       </defs>
       <use xlink:href="#DejaVuSans-42"/>
       <use xlink:href="#DejaVuSans-61" transform="translate(68.603516 0)"/>
       <use xlink:href="#DejaVuSans-73" transform="translate(129.882812 0)"/>
       <use xlink:href="#DejaVuSans-65" transform="translate(181.982422 0)"/>
      </g>
     </g>
    </g>
    <g id="xtick_2">
     <g id="line2d_3">
      <path d="M 226.991667 235.78 
L 226.991667 52.22 
" clip-path="url(#pcd4f53ce58)" style="fill: none; stroke: #b0b0b0; stroke-width: 0.8; stroke-linecap: square"/>
     </g>
     <g id="line2d_4">
      <g>
       <use xlink:href="#mc2841fdd74" x="226.991667" y="235.78" style="stroke: #000000; stroke-width: 0.8"/>
      </g>
     </g>
     <g id="text_2">
      <!-- V -->
      <g transform="translate(223.571354 250.378437) scale(0.1 -0.1)">
       <defs>
        <path id="DejaVuSans-56" d="M 1831 0 
L 50 4666 
L 709 4666 
L 2188 738 
L 3669 4666 
L 4325 4666 
L 2547 0 
L 1831 0 
z
" transform="scale(0.015625)"/>
       </defs>
       <use xlink:href="#DejaVuSans-56"/>
      </g>
     </g>
    </g>
    <g id="xtick_3">
     <g id="line2d_5">
      <path d="M 391.503333 235.78 
L 391.503333 52.22 
" clip-path="url(#pcd4f53ce58)" style="fill: none; stroke: #b0b0b0; stroke-width: 0.8; stroke-linecap: square"/>
     </g>
     <g id="line2d_6">
      <g>
       <use xlink:href="#mc2841fdd74" x="391.503333" y="235.78" style="stroke: #000000; stroke-width: 0.8"/>
      </g>
     </g>
     <g id="text_3">
      <!-- I -->
      <g transform="translate(390.028333 250.378437) scale(0.1 -0.1)">
       <defs>
        <path id="DejaVuSans-49" d="M 628 4666 
L 1259 4666 
L 1259 0 
L 628 0 
L 628 4666 
z
" transform="scale(0.015625)"/>
       </defs>
       <use xlink:href="#DejaVuSans-49"/>
      </g>
     </g>
    </g>
    <g id="xtick_4">
     <g id="line2d_7">
      <path d="M 556.015 235.78 
L 556.015 52.22 
" clip-path="url(#pcd4f53ce58)" style="fill: none; stroke: #b0b0b0; stroke-width: 0.8; stroke-linecap: square"/>
     </g>
     <g id="line2d_8">
      <g>
       <use xlink:href="#mc2841fdd74" x="556.015" y="235.78" style="stroke: #000000; stroke-width: 0.8"/>
      </g>
     </g>
     <g id="text_4">
      <!-- V&amp;I -->
      <g transform="translate(547.220469 250.378437) scale(0.1 -0.1)">
       <defs>
        <path id="DejaVuSans-26" d="M 1556 2509 
Q 1272 2256 1139 2004 
Q 1006 1753 1006 1478 
Q 1006 1022 1337 719 
Q 1669 416 2169 416 
Q 2466 416 2725 514 
Q 2984 613 3213 813 
L 1556 2509 
z
M 1997 2859 
L 3584 1234 
Q 3769 1513 3872 1830 
Q 3975 2147 3994 2503 
L 4575 2503 
Q 4538 2091 4375 1687 
Q 4213 1284 3922 891 
L 4794 0 
L 4006 0 
L 3559 459 
Q 3234 181 2878 45 
Q 2522 -91 2113 -91 
Q 1359 -91 881 339 
Q 403 769 403 1441 
Q 403 1841 612 2192 
Q 822 2544 1241 2853 
Q 1091 3050 1012 3245 
Q 934 3441 934 3628 
Q 934 4134 1281 4442 
Q 1628 4750 2203 4750 
Q 2463 4750 2720 4694 
Q 2978 4638 3244 4525 
L 3244 3956 
Q 2972 4103 2725 4179 
Q 2478 4256 2266 4256 
Q 1938 4256 1733 4082 
Q 1528 3909 1528 3634 
Q 1528 3475 1620 3314 
Q 1713 3153 1997 2859 
z
" transform="scale(0.015625)"/>
       </defs>
       <use xlink:href="#DejaVuSans-56"/>
       <use xlink:href="#DejaVuSans-26" transform="translate(68.408203 0)"/>
       <use xlink:href="#DejaVuSans-49" transform="translate(146.386719 0)"/>
      </g>
     </g>
    </g>
   </g>
   <g id="matplotlib.axis_2">
    <g id="ytick_1">
     <g id="line2d_9">
      <defs>
       <path id="m0865a07299" d="M 0 0 
L -3.5 0 
" style="stroke: #000000; stroke-width: 0.8"/>
      </defs>
      <g>
       <use xlink:href="#m0865a07299" x="62.48" y="235.78" style="stroke: #000000; stroke-width: 0.8"/>
      </g>
     </g>
     <g id="text_5">
      <!-- −0.15 -->
      <g transform="translate(24.834688 239.579219) scale(0.1 -0.1)">
       <defs>
        <path id="DejaVuSans-2212" d="M 678 2272 
L 4684 2272 
L 4684 1741 
L 678 1741 
L 678 2272 
z
" transform="scale(0.015625)"/>
        <path id="DejaVuSans-30" d="M 2034 4250 
Q 1547 4250 1301 3770 
Q 1056 3291 1056 2328 
Q 1056 1369 1301 889 
Q 1547 409 2034 409 
Q 2525 409 2770 889 
Q 3016 1369 3016 2328 
Q 3016 3291 2770 3770 
Q 2525 4250 2034 4250 
z
M 2034 4750 
Q 2819 4750 3233 4129 
Q 3647 3509 3647 2328 
Q 3647 1150 3233 529 
Q 2819 -91 2034 -91 
Q 1250 -91 836 529 
Q 422 1150 422 2328 
Q 422 3509 836 4129 
Q 1250 4750 2034 4750 
z
" transform="scale(0.015625)"/>
        <path id="DejaVuSans-2e" d="M 684 794 
L 1344 794 
L 1344 0 
L 684 0 
L 684 794 
z
" transform="scale(0.015625)"/>
        <path id="DejaVuSans-31" d="M 794 531 
L 1825 531 
L 1825 4091 
L 703 3866 
L 703 4441 
L 1819 4666 
L 2450 4666 
L 2450 531 
L 3481 531 
L 3481 0 
L 794 0 
L 794 531 
z
" transform="scale(0.015625)"/>
        <path id="DejaVuSans-35" d="M 691 4666 
L 3169 4666 
L 3169 4134 
L 1269 4134 
L 1269 2991 
Q 1406 3038 1543 3061 
Q 1681 3084 1819 3084 
Q 2600 3084 3056 2656 
Q 3513 2228 3513 1497 
Q 3513 744 3044 326 
Q 2575 -91 1722 -91 
Q 1428 -91 1123 -41 
Q 819 9 494 109 
L 494 744 
Q 775 591 1075 516 
Q 1375 441 1709 441 
Q 2250 441 2565 725 
Q 2881 1009 2881 1497 
Q 2881 1984 2565 2268 
Q 2250 2553 1709 2553 
Q 1456 2553 1204 2497 
Q 953 2441 691 2322 
L 691 4666 
z
" transform="scale(0.015625)"/>
       </defs>
       <use xlink:href="#DejaVuSans-2212"/>
       <use xlink:href="#DejaVuSans-30" transform="translate(83.789062 0)"/>
       <use xlink:href="#DejaVuSans-2e" transform="translate(147.412109 0)"/>
       <use xlink:href="#DejaVuSans-31" transform="translate(179.199219 0)"/>
       <use xlink:href="#DejaVuSans-35" transform="translate(242.822266 0)"/>
      </g>
     </g>
    </g>
    <g id="ytick_2">
     <g id="line2d_10">
      <g>
       <use xlink:href="#m0865a07299" x="62.48" y="205.186667" style="stroke: #000000; stroke-width: 0.8"/>
      </g>
     </g>
     <g id="text_6">
      <!-- −0.10 -->
      <g transform="translate(24.834688 208.985885) scale(0.1 -0.1)">
       <use xlink:href="#DejaVuSans-2212"/>
       <use xlink:href="#DejaVuSans-30" transform="translate(83.789062 0)"/>
       <use xlink:href="#DejaVuSans-2e" transform="translate(147.412109 0)"/>
       <use xlink:href="#DejaVuSans-31" transform="translate(179.199219 0)"/>
       <use xlink:href="#DejaVuSans-30" transform="translate(242.822266 0)"/>
      </g>
     </g>
    </g>
    <g id="ytick_3">
     <g id="line2d_11">
      <g>
       <use xlink:href="#m0865a07299" x="62.48" y="174.593333" style="stroke: #000000; stroke-width: 0.8"/>
      </g>
     </g>
     <g id="text_7">
      <!-- −0.05 -->
      <g transform="translate(24.834688 178.392552) scale(0.1 -0.1)">
       <use xlink:href="#DejaVuSans-2212"/>
       <use xlink:href="#DejaVuSans-30" transform="translate(83.789062 0)"/>
       <use xlink:href="#DejaVuSans-2e" transform="translate(147.412109 0)"/>
       <use xlink:href="#DejaVuSans-30" transform="translate(179.199219 0)"/>
       <use xlink:href="#DejaVuSans-35" transform="translate(242.822266 0)"/>
      </g>
     </g>
    </g>
    <g id="ytick_4">
     <g id="line2d_12">
      <g>
       <use xlink:href="#m0865a07299" x="62.48" y="144" style="stroke: #000000; stroke-width: 0.8"/>
      </g>
     </g>
     <g id="text_8">
      <!-- 0.00 -->
      <g transform="translate(33.214375 147.799219) scale(0.1 -0.1)">
       <use xlink:href="#DejaVuSans-30"/>
       <use xlink:href="#DejaVuSans-2e" transform="translate(63.623047 0)"/>
       <use xlink:href="#DejaVuSans-30" transform="translate(95.410156 0)"/>
       <use xlink:href="#DejaVuSans-30" transform="translate(159.033203 0)"/>
      </g>
     </g>
    </g>
    <g id="ytick_5">
     <g id="line2d_13">
      <g>
       <use xlink:href="#m0865a07299" x="62.48" y="113.406667" style="stroke: #000000; stroke-width: 0.8"/>
      </g>
     </g>
     <g id="text_9">
      <!-- 0.05 -->
      <g transform="translate(33.214375 117.205885) scale(0.1 -0.1)">
       <use xlink:href="#DejaVuSans-30"/>
       <use xlink:href="#DejaVuSans-2e" transform="translate(63.623047 0)"/>
       <use xlink:href="#DejaVuSans-30" transform="translate(95.410156 0)"/>
       <use xlink:href="#DejaVuSans-35" transform="translate(159.033203 0)"/>
      </g>
     </g>
    </g>
    <g id="ytick_6">
     <g id="line2d_14">
      <g>
       <use xlink:href="#m0865a07299" x="62.48" y="82.813333" style="stroke: #000000; stroke-width: 0.8"/>
      </g>
     </g>
     <g id="text_10">
      <!-- 0.10 -->
      <g transform="translate(33.214375 86.612552) scale(0.1 -0.1)">
       <use xlink:href="#DejaVuSans-30"/>
       <use xlink:href="#DejaVuSans-2e" transform="translate(63.623047 0)"/>
       <use xlink:href="#DejaVuSans-31" transform="translate(95.410156 0)"/>
       <use xlink:href="#DejaVuSans-30" transform="translate(159.033203 0)"/>
      </g>
     </g>
    </g>
    <g id="ytick_7">
     <g id="line2d_15">
      <g>
       <use xlink:href="#m0865a07299" x="62.48" y="52.22" style="stroke: #000000; stroke-width: 0.8"/>
      </g>
     </g>
     <g id="text_11">
      <!-- 0.15 -->
      <g transform="translate(33.214375 56.019219) scale(0.1 -0.1)">
       <use xlink:href="#DejaVuSans-30"/>
       <use xlink:href="#DejaVuSans-2e" transform="translate(63.623047 0)"/>
       <use xlink:href="#DejaVuSans-31" transform="translate(95.410156 0)"/>
       <use xlink:href="#DejaVuSans-35" transform="translate(159.033203 0)"/>
      </g>
     </g>
    </g>
    <g id="text_12">
     <!-- Depth (m) -->
     <g transform="translate(18.755 169.590625) rotate(-90) scale(0.1 -0.1)">
      <defs>
       <path id="DejaVuSans-44" d="M 1259 4147 
L 1259 519 
L 2022 519 
Q 2988 519 3436 956 
Q 3884 1394 3884 2338 
Q 3884 3275 3436 3711 
Q 2988 4147 2022 4147 
L 1259 4147 
z
M 628 4666 
L 1925 4666 
Q 3281 4666 3915 4102 
Q 4550 3538 4550 2338 
Q 4550 1131 3912 565 
Q 3275 0 1925 0 
L 628 0 
L 628 4666 
z
" transform="scale(0.015625)"/>
       <path id="DejaVuSans-70" d="M 1159 525 
L 1159 -1331 
L 581 -1331 
L 581 3500 
L 1159 3500 
L 1159 2969 
Q 1341 3281 1617 3432 
Q 1894 3584 2278 3584 
Q 2916 3584 3314 3078 
Q 3713 2572 3713 1747 
Q 3713 922 3314 415 
Q 2916 -91 2278 -91 
Q 1894 -91 1617 61 
Q 1341 213 1159 525 
z
M 3116 1747 
Q 3116 2381 2855 2742 
Q 2594 3103 2138 3103 
Q 1681 3103 1420 2742 
Q 1159 2381 1159 1747 
Q 1159 1113 1420 752 
Q 1681 391 2138 391 
Q 2594 391 2855 752 
Q 3116 1113 3116 1747 
z
" transform="scale(0.015625)"/>
       <path id="DejaVuSans-74" d="M 1172 4494 
L 1172 3500 
L 2356 3500 
L 2356 3053 
L 1172 3053 
L 1172 1153 
Q 1172 725 1289 603 
Q 1406 481 1766 481 
L 2356 481 
L 2356 0 
L 1766 0 
Q 1100 0 847 248 
Q 594 497 594 1153 
L 594 3053 
L 172 3053 
L 172 3500 
L 594 3500 
L 594 4494 
L 1172 4494 
z
" transform="scale(0.015625)"/>
       <path id="DejaVuSans-68" d="M 3513 2113 
L 3513 0 
L 2938 0 
L 2938 2094 
Q 2938 2591 2744 2837 
Q 2550 3084 2163 3084 
Q 1697 3084 1428 2787 
Q 1159 2491 1159 1978 
L 1159 0 
L 581 0 
L 581 4863 
L 1159 4863 
L 1159 2956 
Q 1366 3272 1645 3428 
Q 1925 3584 2291 3584 
Q 2894 3584 3203 3211 
Q 3513 2838 3513 2113 
z
" transform="scale(0.015625)"/>
       <path id="DejaVuSans-20" transform="scale(0.015625)"/>
       <path id="DejaVuSans-28" d="M 1984 4856 
Q 1566 4138 1362 3434 
Q 1159 2731 1159 2009 
Q 1159 1288 1364 580 
Q 1569 -128 1984 -844 
L 1484 -844 
Q 1016 -109 783 600 
Q 550 1309 550 2009 
Q 550 2706 781 3412 
Q 1013 4119 1484 4856 
L 1984 4856 
z
" transform="scale(0.015625)"/>
       <path id="DejaVuSans-6d" d="M 3328 2828 
Q 3544 3216 3844 3400 
Q 4144 3584 4550 3584 
Q 5097 3584 5394 3201 
Q 5691 2819 5691 2113 
L 5691 0 
L 5113 0 
L 5113 2094 
Q 5113 2597 4934 2840 
Q 4756 3084 4391 3084 
Q 3944 3084 3684 2787 
Q 3425 2491 3425 1978 
L 3425 0 
L 2847 0 
L 2847 2094 
Q 2847 2600 2669 2842 
Q 2491 3084 2119 3084 
Q 1678 3084 1418 2786 
Q 1159 2488 1159 1978 
L 1159 0 
L 581 0 
L 581 3500 
L 1159 3500 
L 1159 2956 
Q 1356 3278 1631 3431 
Q 1906 3584 2284 3584 
Q 2666 3584 2933 3390 
Q 3200 3197 3328 2828 
z
" transform="scale(0.015625)"/>
       <path id="DejaVuSans-29" d="M 513 4856 
L 1013 4856 
Q 1481 4119 1714 3412 
Q 1947 2706 1947 2009 
Q 1947 1309 1714 600 
Q 1481 -109 1013 -844 
L 513 -844 
Q 928 -128 1133 580 
Q 1338 1288 1338 2009 
Q 1338 2731 1133 3434 
Q 928 4138 513 4856 
z
" transform="scale(0.015625)"/>
      </defs>
      <use xlink:href="#DejaVuSans-44"/>
      <use xlink:href="#DejaVuSans-65" transform="translate(77.001953 0)"/>
      <use xlink:href="#DejaVuSans-70" transform="translate(138.525391 0)"/>
      <use xlink:href="#DejaVuSans-74" transform="translate(202.001953 0)"/>
      <use xlink:href="#DejaVuSans-68" transform="translate(241.210938 0)"/>
      <use xlink:href="#DejaVuSans-20" transform="translate(304.589844 0)"/>
      <use xlink:href="#DejaVuSans-28" transform="translate(336.376953 0)"/>
      <use xlink:href="#DejaVuSans-6d" transform="translate(375.390625 0)"/>
      <use xlink:href="#DejaVuSans-29" transform="translate(472.802734 0)"/>
     </g>
    </g>
   </g>
   <g id="line2d_16">
    <path d="M 62.48 144 
L 226.991667 143.753464 
L 391.503333 141.736 
L 556.015 141.506214 
" clip-path="url(#pcd4f53ce58)" style="fill: none; stroke: #d3d3d3; stroke-width: 1.5; stroke-linecap: square"/>
   </g>
   <g id="line2d_17">
    <path d="M 62.48 144 
L 226.991667 153.22703 
L 391.503333 143.874082 
L 556.015 153.481222 
" clip-path="url(#pcd4f53ce58)" style="fill: none; stroke: #d3d3d3; stroke-width: 1.5; stroke-linecap: square"/>
   </g>
   <g id="line2d_18">
    <path d="M 62.48 144 
L 226.991667 149.21706 
L 391.503333 140.622222 
L 556.015 145.694615 
" clip-path="url(#pcd4f53ce58)" style="fill: none; stroke: #d3d3d3; stroke-width: 1.5; stroke-linecap: square"/>
   </g>
   <g id="line2d_19">
    <path d="M 62.48 144 
L 226.991667 146.280311 
L 391.503333 151.171404 
L 556.015 153.310585 
" clip-path="url(#pcd4f53ce58)" style="fill: none; stroke: #d3d3d3; stroke-width: 1.5; stroke-linecap: square"/>
   </g>
   <g id="line2d_20">
    <path d="M 62.48 144 
L 226.991667 144.075312 
L 391.503333 204.013517 
L 556.015 204.102542 
" clip-path="url(#pcd4f53ce58)" style="fill: none; stroke: #d3d3d3; stroke-width: 1.5; stroke-linecap: square"/>
   </g>
   <g id="line2d_21">
    <path d="M 62.48 144 
L 226.991667 148.141782 
L 391.503333 173.684358 
L 556.015 177.516892 
" clip-path="url(#pcd4f53ce58)" style="fill: none; stroke: #d3d3d3; stroke-width: 1.5; stroke-linecap: square"/>
   </g>
   <g id="line2d_22">
    <path d="M 62.48 144 
L 226.991667 145.911413 
L 391.503333 156.604551 
L 556.015 158.394242 
" clip-path="url(#pcd4f53ce58)" style="fill: none; stroke: #d3d3d3; stroke-width: 1.5; stroke-linecap: square"/>
   </g>
   <g id="line2d_23">
    <path d="M 62.48 144 
L 226.991667 144.948253 
L 391.503333 146.573009 
L 556.015 147.519723 
" clip-path="url(#pcd4f53ce58)" style="fill: none; stroke: #d3d3d3; stroke-width: 1.5; stroke-linecap: square"/>
   </g>
   <g id="line2d_24">
    <path d="M 62.48 144 
L 226.991667 143.872006 
L 391.503333 140.889018 
L 556.015 140.809527 
" clip-path="url(#pcd4f53ce58)" style="fill: none; stroke: #d3d3d3; stroke-width: 1.5; stroke-linecap: square"/>
   </g>
   <g id="line2d_25">
    <path d="M 62.48 144 
L 226.991667 144.244204 
L 391.503333 143.783402 
L 556.015 144.028845 
" clip-path="url(#pcd4f53ce58)" style="fill: none; stroke: #d3d3d3; stroke-width: 1.5; stroke-linecap: square"/>
   </g>
   <g id="line2d_26">
    <path d="M 62.48 144 
L 226.991667 146.471395 
L 391.503333 167.2292 
L 556.015 169.49339 
" clip-path="url(#pcd4f53ce58)" style="fill: none; stroke: #d3d3d3; stroke-width: 1.5; stroke-linecap: square"/>
   </g>
   <g id="line2d_27">
    <path d="M 62.48 144 
L 226.991667 145.385913 
L 391.503333 143.958697 
L 556.015 145.34532 
" clip-path="url(#pcd4f53ce58)" style="fill: none; stroke: #d3d3d3; stroke-width: 1.5; stroke-linecap: square"/>
   </g>
   <g id="line2d_28">
    <path d="M 62.48 144 
L 226.991667 144.689829 
L 391.503333 143.943777 
L 556.015 144.632683 
" clip-path="url(#pcd4f53ce58)" style="fill: none; stroke: #9370db; stroke-width: 1.5; stroke-linecap: square"/>
   </g>
   <g id="line2d_29">
    <path d="M 62.48 144 
L 226.991667 144.000134 
L 391.503333 143.998029 
L 556.015 143.998699 
" clip-path="url(#pcd4f53ce58)" style="fill: none; stroke: #d3d3d3; stroke-width: 1.5; stroke-linecap: square"/>
   </g>
   <g id="line2d_30">
    <path d="M 62.48 144 
L 226.991667 144.030468 
L 391.503333 143.895729 
L 556.015 143.926757 
" clip-path="url(#pcd4f53ce58)" style="fill: none; stroke: #9370db; stroke-width: 1.5; stroke-linecap: square"/>
   </g>
   <g id="line2d_31">
    <path d="M 62.48 144 
L 226.991667 144.022496 
L 391.503333 166.265576 
L 556.015 166.7604 
" clip-path="url(#pcd4f53ce58)" style="fill: none; stroke: #9370db; stroke-width: 1.5; stroke-linecap: square"/>
   </g>
   <g id="line2d_32">
    <path d="M 62.48 144 
L 226.991667 144.000001 
L 391.503333 144.000152 
L 556.015 144.000159 
" clip-path="url(#pcd4f53ce58)" style="fill: none; stroke: #d3d3d3; stroke-width: 1.5; stroke-linecap: square"/>
   </g>
   <g id="line2d_33">
    <path d="M 62.48 144 
L 226.991667 143.999018 
L 391.503333 143.998265 
L 556.015 143.99799 
" clip-path="url(#pcd4f53ce58)" style="fill: none; stroke: #d3d3d3; stroke-width: 1.5; stroke-linecap: square"/>
   </g>
   <g id="line2d_34">
    <path d="M 62.48 144 
L 226.991667 144.000001 
L 391.503333 144.000112 
L 556.015 144.000131 
" clip-path="url(#pcd4f53ce58)" style="fill: none; stroke: #d3d3d3; stroke-width: 1.5; stroke-linecap: square"/>
   </g>
   <g id="line2d_35">
    <path d="M 62.48 144 
L 226.991667 147.066482 
L 391.503333 144.00505 
L 556.015 147.070743 
" clip-path="url(#pcd4f53ce58)" style="fill: none; stroke: #d3d3d3; stroke-width: 1.5; stroke-linecap: square"/>
   </g>
   <g id="line2d_36">
    <path d="M 62.48 144 
L 226.991667 146.229187 
L 391.503333 158.397525 
L 556.015 160.040956 
" clip-path="url(#pcd4f53ce58)" style="fill: none; stroke: #d3d3d3; stroke-width: 1.5; stroke-linecap: square"/>
   </g>
   <g id="line2d_37">
    <path d="M 62.48 144 
L 226.991667 143.999323 
L 391.503333 148.877514 
L 556.015 148.877592 
" clip-path="url(#pcd4f53ce58)" style="fill: none; stroke: #d3d3d3; stroke-width: 1.5; stroke-linecap: square"/>
   </g>
   <g id="line2d_38">
    <path d="M 62.48 144 
L 226.991667 144.000219 
L 391.503333 144.015809 
L 556.015 144.01628 
" clip-path="url(#pcd4f53ce58)" style="fill: none; stroke: #d3d3d3; stroke-width: 1.5; stroke-linecap: square"/>
   </g>
   <g id="line2d_39">
    <path d="M 62.48 144 
L 226.991667 144.001667 
L 391.503333 138.453927 
L 556.015 138.454227 
" clip-path="url(#pcd4f53ce58)" style="fill: none; stroke: #d3d3d3; stroke-width: 1.5; stroke-linecap: square"/>
   </g>
   <g id="line2d_40">
    <path d="M 62.48 144 
L 226.991667 144.000001 
L 391.503333 143.963544 
L 556.015 143.963568 
" clip-path="url(#pcd4f53ce58)" style="fill: none; stroke: #d3d3d3; stroke-width: 1.5; stroke-linecap: square"/>
   </g>
   <g id="line2d_41">
    <path d="M 62.48 144 
L 226.991667 143.999927 
L 391.503333 143.996606 
L 556.015 143.996932 
" clip-path="url(#pcd4f53ce58)" style="fill: none; stroke: #d3d3d3; stroke-width: 1.5; stroke-linecap: square"/>
   </g>
   <g id="line2d_42">
    <path d="M 62.48 144 
L 226.991667 144.231561 
L 391.503333 143.799034 
L 556.015 144.02105 
" clip-path="url(#pcd4f53ce58)" style="fill: none; stroke: #d3d3d3; stroke-width: 1.5; stroke-linecap: square"/>
   </g>
   <g id="line2d_43">
    <path d="M 62.48 144 
L 226.991667 144.238485 
L 391.503333 146.388515 
L 556.015 146.639704 
" clip-path="url(#pcd4f53ce58)" style="fill: none; stroke: #d3d3d3; stroke-width: 1.5; stroke-linecap: square"/>
   </g>
   <g id="line2d_44">
    <path d="M 62.48 144 
L 226.991667 147.445313 
L 391.503333 164.791091 
L 556.015 167.569106 
" clip-path="url(#pcd4f53ce58)" style="fill: none; stroke: #d3d3d3; stroke-width: 1.5; stroke-linecap: square"/>
   </g>
   <g id="line2d_45">
    <path d="M 62.48 144 
L 226.991667 145.694327 
L 391.503333 154.442112 
L 556.015 156.106752 
" clip-path="url(#pcd4f53ce58)" style="fill: none; stroke: #9370db; stroke-width: 1.5; stroke-linecap: square"/>
   </g>
   <g id="line2d_46">
    <path d="M 62.48 144 
L 226.991667 146.50761 
L 391.503333 150.5917 
L 556.015 153.100816 
" clip-path="url(#pcd4f53ce58)" style="fill: none; stroke: #d3d3d3; stroke-width: 1.5; stroke-linecap: square"/>
   </g>
   <g id="line2d_47">
    <path d="M 62.48 144 
L 226.991667 145.035084 
L 391.503333 143.680793 
L 556.015 144.69293 
" clip-path="url(#pcd4f53ce58)" style="fill: none; stroke: #d3d3d3; stroke-width: 1.5; stroke-linecap: square"/>
   </g>
   <g id="line2d_48">
    <path d="M 62.48 144 
L 226.991667 143.943051 
L 391.503333 143.462714 
L 556.015 143.327379 
" clip-path="url(#pcd4f53ce58)" style="fill: none; stroke: #d3d3d3; stroke-width: 1.5; stroke-linecap: square"/>
   </g>
   <g id="line2d_49">
    <path d="M 62.48 144 
L 226.991667 149.241674 
L 391.503333 171.986896 
L 556.015 176.272866 
" clip-path="url(#pcd4f53ce58)" style="fill: none; stroke: #9370db; stroke-width: 1.5; stroke-linecap: square"/>
   </g>
   <g id="line2d_50">
    <path d="M 62.48 144 
L 226.991667 144.004045 
L 391.503333 157.397707 
L 556.015 157.398227 
" clip-path="url(#pcd4f53ce58)" style="fill: none; stroke: #d3d3d3; stroke-width: 1.5; stroke-linecap: square"/>
   </g>
   <g id="line2d_51">
    <path d="M 62.48 144 
L 226.991667 152.208433 
L 391.503333 166.148096 
L 556.015 173.917088 
" clip-path="url(#pcd4f53ce58)" style="fill: none; stroke: #9370db; stroke-width: 1.5; stroke-linecap: square"/>
   </g>
   <g id="line2d_52">
    <path d="M 62.48 144 
L 226.991667 149.115839 
L 391.503333 138.800381 
L 556.015 143.943111 
" clip-path="url(#pcd4f53ce58)" style="fill: none; stroke: #9370db; stroke-width: 1.5; stroke-linecap: square"/>
   </g>
   <g id="line2d_53">
    <path d="M 62.48 144 
L 226.991667 150.767103 
L 391.503333 166.660841 
L 556.015 171.666701 
" clip-path="url(#pcd4f53ce58)" style="fill: none; stroke: #9370db; stroke-width: 1.5; stroke-linecap: square"/>
   </g>
   <g id="line2d_54">
    <path d="M 62.48 144 
L 226.991667 148.017327 
L 391.503333 184.941412 
L 556.015 192.780815 
" clip-path="url(#pcd4f53ce58)" style="fill: none; stroke: #d3d3d3; stroke-width: 1.5; stroke-linecap: square"/>
   </g>
   <g id="line2d_55">
    <path d="M 62.48 144 
L 226.991667 143.999889 
L 391.503333 155.145225 
L 556.015 155.145246 
" clip-path="url(#pcd4f53ce58)" style="fill: none; stroke: #d3d3d3; stroke-width: 1.5; stroke-linecap: square"/>
   </g>
   <g id="line2d_56">
    <path d="M 62.48 144 
L 226.991667 144.000259 
L 391.503333 143.992761 
L 556.015 143.993807 
" clip-path="url(#pcd4f53ce58)" style="fill: none; stroke: #d3d3d3; stroke-width: 1.5; stroke-linecap: square"/>
   </g>
   <g id="line2d_57">
    <path d="M 62.48 144 
L 226.991667 146.828638 
L 391.503333 163.732241 
L 556.015 166.774713 
" clip-path="url(#pcd4f53ce58)" style="fill: none; stroke: #d3d3d3; stroke-width: 1.5; stroke-linecap: square"/>
   </g>
   <g id="line2d_58">
    <path d="M 62.48 144 
L 226.991667 145.049531 
L 391.503333 184.593313 
L 556.015 189.235031 
" clip-path="url(#pcd4f53ce58)" style="fill: none; stroke: #d3d3d3; stroke-width: 1.5; stroke-linecap: square"/>
   </g>
   <g id="line2d_59">
    <path d="M 62.48 144 
L 226.991667 155.668399 
L 391.503333 125.867294 
L 556.015 136.348917 
" clip-path="url(#pcd4f53ce58)" style="fill: none; stroke: #9370db; stroke-width: 1.5; stroke-linecap: square"/>
   </g>
   <g id="line2d_60">
    <path d="M 62.48 144 
L 226.991667 145.685184 
L 391.503333 175.006 
L 556.015 176.436032 
" clip-path="url(#pcd4f53ce58)" style="fill: none; stroke: #d3d3d3; stroke-width: 1.5; stroke-linecap: square"/>
   </g>
   <g id="line2d_61">
    <path d="M 62.48 144 
L 226.991667 145.006094 
L 391.503333 143.89162 
L 556.015 144.900219 
" clip-path="url(#pcd4f53ce58)" style="fill: none; stroke: #9370db; stroke-width: 1.5; stroke-linecap: square"/>
   </g>
   <g id="line2d_62">
    <path d="M 62.48 144 
L 226.991667 147.014053 
L 391.503333 151.776574 
L 556.015 155.223507 
" clip-path="url(#pcd4f53ce58)" style="fill: none; stroke: #9370db; stroke-width: 1.5; stroke-linecap: square"/>
   </g>
   <g id="line2d_63">
    <path d="M 62.48 144 
L 226.991667 144.000181 
L 391.503333 143.993952 
L 556.015 143.994632 
" clip-path="url(#pcd4f53ce58)" style="fill: none; stroke: #d3d3d3; stroke-width: 1.5; stroke-linecap: square"/>
   </g>
   <g id="line2d_64">
    <path d="M 62.48 144 
L 226.991667 144.175172 
L 391.503333 142.78138 
L 556.015 142.958888 
" clip-path="url(#pcd4f53ce58)" style="fill: none; stroke: #d3d3d3; stroke-width: 1.5; stroke-linecap: square"/>
   </g>
   <g id="line2d_65">
    <path d="M 62.48 144 
L 226.991667 144.108217 
L 391.503333 145.315442 
L 556.015 145.403027 
" clip-path="url(#pcd4f53ce58)" style="fill: none; stroke: #d3d3d3; stroke-width: 1.5; stroke-linecap: square"/>
   </g>
   <g id="line2d_66">
    <path d="M 62.48 144 
L 226.991667 148.983839 
L 391.503333 100.213898 
L 556.015 141.764553 
" clip-path="url(#pcd4f53ce58)" style="fill: none; stroke: #9370db; stroke-width: 1.5; stroke-linecap: square"/>
   </g>
   <g id="line2d_67">
    <path d="M 62.48 144 
L 226.991667 144.116562 
L 391.503333 148.010805 
L 556.015 148.125146 
" clip-path="url(#pcd4f53ce58)" style="fill: none; stroke: #d3d3d3; stroke-width: 1.5; stroke-linecap: square"/>
   </g>
   <g id="line2d_68">
    <path d="M 62.48 144 
L 226.991667 143.978673 
L 391.503333 141.564828 
L 556.015 141.54944 
" clip-path="url(#pcd4f53ce58)" style="fill: none; stroke: #d3d3d3; stroke-width: 1.5; stroke-linecap: square"/>
   </g>
   <g id="line2d_69">
    <path d="M 62.48 144 
L 226.991667 144.00035 
L 391.503333 142.242053 
L 556.015 142.243292 
" clip-path="url(#pcd4f53ce58)" style="fill: none; stroke: #d3d3d3; stroke-width: 1.5; stroke-linecap: square"/>
   </g>
   <g id="line2d_70">
    <path d="M 62.48 144 
L 226.991667 144.44112 
L 391.503333 142.713837 
L 556.015 143.238614 
" clip-path="url(#pcd4f53ce58)" style="fill: none; stroke: #d3d3d3; stroke-width: 1.5; stroke-linecap: square"/>
   </g>
   <g id="line2d_71">
    <path d="M 62.48 144 
L 226.991667 144.355673 
L 391.503333 161.236593 
L 556.015 161.61377 
" clip-path="url(#pcd4f53ce58)" style="fill: none; stroke: #d3d3d3; stroke-width: 1.5; stroke-linecap: square"/>
   </g>
   <g id="line2d_72">
    <path d="M 62.48 144 
L 226.991667 144.164909 
L 391.503333 144.000172 
L 556.015 144.165145 
" clip-path="url(#pcd4f53ce58)" style="fill: none; stroke: #d3d3d3; stroke-width: 1.5; stroke-linecap: square"/>
   </g>
   <g id="line2d_73">
    <path d="M 62.48 144 
L 226.991667 146.113331 
L 391.503333 142.980592 
L 556.015 145.439672 
" clip-path="url(#pcd4f53ce58)" style="fill: none; stroke: #d3d3d3; stroke-width: 1.5; stroke-linecap: square"/>
   </g>
   <g id="line2d_74">
    <path d="M 62.48 144 
L 226.991667 144.455364 
L 391.503333 144.098886 
L 556.015 144.554279 
" clip-path="url(#pcd4f53ce58)" style="fill: none; stroke: #9370db; stroke-width: 1.5; stroke-linecap: square"/>
   </g>
   <g id="line2d_75">
    <path d="M 62.48 144 
L 226.991667 144.401274 
L 391.503333 182.031477 
L 556.015 182.344344 
" clip-path="url(#pcd4f53ce58)" style="fill: none; stroke: #d3d3d3; stroke-width: 1.5; stroke-linecap: square"/>
   </g>
   <g id="line2d_76">
    <path d="M 62.48 144 
L 226.991667 144.294523 
L 391.503333 172.192291 
L 556.015 172.417562 
" clip-path="url(#pcd4f53ce58)" style="fill: none; stroke: #d3d3d3; stroke-width: 1.5; stroke-linecap: square"/>
   </g>
   <g id="line2d_77">
    <path d="M 62.48 144 
L 226.991667 143.999698 
L 391.503333 143.967347 
L 556.015 143.967432 
" clip-path="url(#pcd4f53ce58)" style="fill: none; stroke: #d3d3d3; stroke-width: 1.5; stroke-linecap: square"/>
   </g>
   <g id="line2d_78">
    <path d="M 62.48 144 
L 226.991667 144.257175 
L 391.503333 144.000236 
L 556.015 144.257919 
" clip-path="url(#pcd4f53ce58)" style="fill: none; stroke: #d3d3d3; stroke-width: 1.5; stroke-linecap: square"/>
   </g>
   <g id="line2d_79">
    <path d="M 62.48 144 
L 226.991667 143.999445 
L 391.503333 143.999611 
L 556.015 143.999524 
" clip-path="url(#pcd4f53ce58)" style="fill: none; stroke: #d3d3d3; stroke-width: 1.5; stroke-linecap: square"/>
   </g>
   <g id="line2d_80">
    <path d="M 62.48 144 
L 226.991667 144.121489 
L 391.503333 139.905546 
L 556.015 140.049735 
" clip-path="url(#pcd4f53ce58)" style="fill: none; stroke: #d3d3d3; stroke-width: 1.5; stroke-linecap: square"/>
   </g>
   <g id="line2d_81">
    <path d="M 62.48 144 
L 226.991667 144.793743 
L 391.503333 135.345715 
L 556.015 136.374317 
" clip-path="url(#pcd4f53ce58)" style="fill: none; stroke: #d3d3d3; stroke-width: 1.5; stroke-linecap: square"/>
   </g>
   <g id="line2d_82">
    <path d="M 62.48 144 
L 226.991667 144.351764 
L 391.503333 143.988594 
L 556.015 144.338935 
" clip-path="url(#pcd4f53ce58)" style="fill: none; stroke: #d3d3d3; stroke-width: 1.5; stroke-linecap: square"/>
   </g>
   <g id="line2d_83">
    <path d="M 62.48 144 
L 226.991667 144.643594 
L 391.503333 136.252492 
L 556.015 136.725876 
" clip-path="url(#pcd4f53ce58)" style="fill: none; stroke: #d3d3d3; stroke-width: 1.5; stroke-linecap: square"/>
   </g>
   <g id="line2d_84">
    <path d="M 62.48 144 
L 226.991667 143.852893 
L 391.503333 129.422647 
L 556.015 129.923355 
" clip-path="url(#pcd4f53ce58)" style="fill: none; stroke: #d3d3d3; stroke-width: 1.5; stroke-linecap: square"/>
   </g>
   <g id="line2d_85">
    <path d="M 62.48 144 
L 226.991667 159.489017 
L 391.503333 144.00095 
L 556.015 159.489007 
" clip-path="url(#pcd4f53ce58)" style="fill: none; stroke: #d3d3d3; stroke-width: 1.5; stroke-linecap: square"/>
   </g>
   <g id="line2d_86">
    <path d="M 62.48 144 
L 226.991667 143.999587 
L 391.503333 143.999825 
L 556.015 143.999854 
" clip-path="url(#pcd4f53ce58)" style="fill: none; stroke: #d3d3d3; stroke-width: 1.5; stroke-linecap: square"/>
   </g>
   <g id="line2d_87">
    <path d="M 62.48 144 
L 226.991667 153.059557 
L 391.503333 144.000513 
L 556.015 153.06021 
" clip-path="url(#pcd4f53ce58)" style="fill: none; stroke: #d3d3d3; stroke-width: 1.5; stroke-linecap: square"/>
   </g>
   <g id="line2d_88">
    <path d="M 62.48 144 
L 226.991667 144.000042 
L 391.503333 144.000224 
L 556.015 144.000496 
" clip-path="url(#pcd4f53ce58)" style="fill: none; stroke: #d3d3d3; stroke-width: 1.5; stroke-linecap: square"/>
   </g>
   <g id="line2d_89">
    <path d="M 62.48 144 
L 226.991667 144.294288 
L 391.503333 151.761545 
L 556.015 152.042776 
" clip-path="url(#pcd4f53ce58)" style="fill: none; stroke: #d3d3d3; stroke-width: 1.5; stroke-linecap: square"/>
   </g>
   <g id="line2d_90">
    <path d="M 62.48 144 
L 226.991667 144.316701 
L 391.503333 181.281283 
L 556.015 181.532968 
" clip-path="url(#pcd4f53ce58)" style="fill: none; stroke: #d3d3d3; stroke-width: 1.5; stroke-linecap: square"/>
   </g>
   <g id="line2d_91">
    <path d="M 62.48 144 
L 226.991667 143.999606 
L 391.503333 143.956582 
L 556.015 143.956771 
" clip-path="url(#pcd4f53ce58)" style="fill: none; stroke: #d3d3d3; stroke-width: 1.5; stroke-linecap: square"/>
   </g>
   <g id="line2d_92">
    <path d="M 62.48 144 
L 226.991667 147.105302 
L 391.503333 198.814394 
L 556.015 206.368039 
" clip-path="url(#pcd4f53ce58)" style="fill: none; stroke: #d3d3d3; stroke-width: 1.5; stroke-linecap: square"/>
   </g>
   <g id="line2d_93">
    <path d="M 62.48 144 
L 226.991667 150.836 
L 391.503333 180.873767 
L 556.015 185.257996 
" clip-path="url(#pcd4f53ce58)" style="fill: none; stroke: #d3d3d3; stroke-width: 1.5; stroke-linecap: square"/>
   </g>
   <g id="line2d_94">
    <path d="M 62.48 144 
L 226.991667 144.331518 
L 391.503333 168.998218 
L 556.015 169.234277 
" clip-path="url(#pcd4f53ce58)" style="fill: none; stroke: #d3d3d3; stroke-width: 1.5; stroke-linecap: square"/>
   </g>
   <g id="line2d_95">
    <path d="M 62.48 144 
L 226.991667 148.065626 
L 391.503333 143.018046 
L 556.015 147.038079 
" clip-path="url(#pcd4f53ce58)" style="fill: none; stroke: #d3d3d3; stroke-width: 1.5; stroke-linecap: square"/>
   </g>
   <g id="line2d_96">
    <path d="M 62.48 144 
L 226.991667 144.316677 
L 391.503333 157.066555 
L 556.015 157.352898 
" clip-path="url(#pcd4f53ce58)" style="fill: none; stroke: #d3d3d3; stroke-width: 1.5; stroke-linecap: square"/>
   </g>
   <g id="line2d_97">
    <path d="M 62.48 144 
L 226.991667 143.999588 
L 391.503333 164.139076 
L 556.015 164.139041 
" clip-path="url(#pcd4f53ce58)" style="fill: none; stroke: #d3d3d3; stroke-width: 1.5; stroke-linecap: square"/>
   </g>
   <g id="line2d_98">
    <path d="M 62.48 144 
L 226.991667 143.998616 
L 391.503333 143.791788 
L 556.015 143.795224 
" clip-path="url(#pcd4f53ce58)" style="fill: none; stroke: #d3d3d3; stroke-width: 1.5; stroke-linecap: square"/>
   </g>
   <g id="line2d_99">
    <path d="M 62.48 144 
L 226.991667 144.371946 
L 391.503333 143.639151 
L 556.015 144.013273 
" clip-path="url(#pcd4f53ce58)" style="fill: none; stroke: #d3d3d3; stroke-width: 1.5; stroke-linecap: square"/>
   </g>
   <g id="line2d_100">
    <path d="M 62.48 144 
L 226.991667 144.001612 
L 391.503333 144.25595 
L 556.015 144.259576 
" clip-path="url(#pcd4f53ce58)" style="fill: none; stroke: #d3d3d3; stroke-width: 1.5; stroke-linecap: square"/>
   </g>
   <g id="line2d_101">
    <path d="M 62.48 144 
L 226.991667 167.608431 
L 391.503333 120.25018 
L 556.015 143.845793 
" clip-path="url(#pcd4f53ce58)" style="fill: none; stroke: #9370db; stroke-width: 1.5; stroke-linecap: square"/>
   </g>
   <g id="line2d_102">
    <path d="M 62.48 144 
L 226.991667 215.792535 
L 391.503333 64.71075 
L 556.015 126.48982 
" clip-path="url(#pcd4f53ce58)" style="fill: none; stroke: #9370db; stroke-width: 1.5; stroke-linecap: square"/>
   </g>
   <g id="line2d_103">
    <path d="M 62.48 144 
L 226.991667 144.217241 
L 391.503333 155.266599 
L 556.015 155.733108 
" clip-path="url(#pcd4f53ce58)" style="fill: none; stroke: #d3d3d3; stroke-width: 1.5; stroke-linecap: square"/>
   </g>
   <g id="line2d_104">
    <path d="M 62.48 144 
L 226.991667 144.300248 
L 391.503333 141.068075 
L 556.015 141.37202 
" clip-path="url(#pcd4f53ce58)" style="fill: none; stroke: #d3d3d3; stroke-width: 1.5; stroke-linecap: square"/>
   </g>
   <g id="line2d_105">
    <path d="M 62.48 144 
L 226.991667 147.061599 
L 391.503333 183.730849 
L 556.015 187.151317 
" clip-path="url(#pcd4f53ce58)" style="fill: none; stroke: #d3d3d3; stroke-width: 1.5; stroke-linecap: square"/>
   </g>
   <g id="line2d_106">
    <path d="M 62.48 144 
L 226.991667 147.498699 
L 391.503333 188.378696 
L 556.015 191.987191 
" clip-path="url(#pcd4f53ce58)" style="fill: none; stroke: #d3d3d3; stroke-width: 1.5; stroke-linecap: square"/>
   </g>
   <g id="line2d_107">
    <path d="M 62.48 144 
L 226.991667 144.040675 
L 391.503333 136.298581 
L 556.015 136.343868 
" clip-path="url(#pcd4f53ce58)" style="fill: none; stroke: #d3d3d3; stroke-width: 1.5; stroke-linecap: square"/>
   </g>
   <g id="line2d_108">
    <path d="M 62.48 144 
L 226.991667 144.00985 
L 391.503333 157.71788 
L 556.015 157.733403 
" clip-path="url(#pcd4f53ce58)" style="fill: none; stroke: #d3d3d3; stroke-width: 1.5; stroke-linecap: square"/>
   </g>
   <g id="line2d_109">
    <path d="M 62.48 144 
L 226.991667 143.999995 
L 391.503333 144.000143 
L 556.015 144.000165 
" clip-path="url(#pcd4f53ce58)" style="fill: none; stroke: #d3d3d3; stroke-width: 1.5; stroke-linecap: square"/>
   </g>
   <g id="line2d_110">
    <path d="M 62.48 144 
L 226.991667 144.001047 
L 391.503333 140.410337 
L 556.015 140.413784 
" clip-path="url(#pcd4f53ce58)" style="fill: none; stroke: #d3d3d3; stroke-width: 1.5; stroke-linecap: square"/>
   </g>
   <g id="line2d_111">
    <path d="M 62.48 144 
L 226.991667 144.004047 
L 391.503333 141.625765 
L 556.015 143.632011 
" clip-path="url(#pcd4f53ce58)" style="fill: none; stroke: #d3d3d3; stroke-width: 1.5; stroke-linecap: square"/>
   </g>
   <g id="line2d_112">
    <path d="M 62.48 144 
L 226.991667 144.005824 
L 391.503333 168.77497 
L 556.015 168.780219 
" clip-path="url(#pcd4f53ce58)" style="fill: none; stroke: #d3d3d3; stroke-width: 1.5; stroke-linecap: square"/>
   </g>
   <g id="line2d_113">
    <path d="M 62.48 144 
L 226.991667 144.077102 
L 391.503333 143.669318 
L 556.015 143.760692 
" clip-path="url(#pcd4f53ce58)" style="fill: none; stroke: #d3d3d3; stroke-width: 1.5; stroke-linecap: square"/>
   </g>
   <g id="line2d_114">
    <path d="M 62.48 144 
L 226.991667 144.020836 
L 391.503333 143.650126 
L 556.015 143.669651 
" clip-path="url(#pcd4f53ce58)" style="fill: none; stroke: #d3d3d3; stroke-width: 1.5; stroke-linecap: square"/>
   </g>
   <g id="line2d_115">
    <path d="M 62.48 144 
L 226.991667 144.445548 
L 391.503333 168.912434 
L 556.015 169.346469 
" clip-path="url(#pcd4f53ce58)" style="fill: none; stroke: #9370db; stroke-width: 1.5; stroke-linecap: square"/>
   </g>
   <g id="line2d_116">
    <path d="M 62.48 144 
L 226.991667 144.000295 
L 391.503333 143.278175 
L 556.015 143.279266 
" clip-path="url(#pcd4f53ce58)" style="fill: none; stroke: #d3d3d3; stroke-width: 1.5; stroke-linecap: square"/>
   </g>
   <g id="line2d_117">
    <path d="M 62.48 144 
L 226.991667 144.495522 
L 391.503333 143.99936 
L 556.015 144.495647 
" clip-path="url(#pcd4f53ce58)" style="fill: none; stroke: #9370db; stroke-width: 1.5; stroke-linecap: square"/>
   </g>
   <g id="line2d_118">
    <path d="M 62.48 144 
L 226.991667 144.029401 
L 391.503333 152.599067 
L 556.015 152.658808 
" clip-path="url(#pcd4f53ce58)" style="fill: none; stroke: #d3d3d3; stroke-width: 1.5; stroke-linecap: square"/>
   </g>
   <g id="line2d_119">
    <path d="M 62.48 144 
L 226.991667 144.000412 
L 391.503333 142.880719 
L 556.015 142.882322 
" clip-path="url(#pcd4f53ce58)" style="fill: none; stroke: #d3d3d3; stroke-width: 1.5; stroke-linecap: square"/>
   </g>
   <g id="line2d_120">
    <path d="M 62.48 144 
L 226.991667 147.757181 
L 391.503333 151.821869 
L 556.015 155.213726 
" clip-path="url(#pcd4f53ce58)" style="fill: none; stroke: #d3d3d3; stroke-width: 1.5; stroke-linecap: square"/>
   </g>
   <g id="line2d_121">
    <path d="M 62.48 144 
L 226.991667 146.124283 
L 391.503333 148.314626 
L 556.015 150.010153 
" clip-path="url(#pcd4f53ce58)" style="fill: none; stroke: #d3d3d3; stroke-width: 1.5; stroke-linecap: square"/>
   </g>
   <g id="line2d_122">
    <path d="M 62.48 144 
L 226.991667 144 
L 391.503333 143.485955 
L 556.015 143.486014 
" clip-path="url(#pcd4f53ce58)" style="fill: none; stroke: #d3d3d3; stroke-width: 1.5; stroke-linecap: square"/>
   </g>
   <g id="line2d_123">
    <path d="M 62.48 144 
L 226.991667 145.923937 
L 391.503333 135.702114 
L 556.015 137.712939 
" clip-path="url(#pcd4f53ce58)" style="fill: none; stroke: #d3d3d3; stroke-width: 1.5; stroke-linecap: square"/>
   </g>
   <g id="line2d_124">
    <path d="M 62.48 144 
L 226.991667 143.999998 
L 391.503333 149.564427 
L 556.015 149.564418 
" clip-path="url(#pcd4f53ce58)" style="fill: none; stroke: #d3d3d3; stroke-width: 1.5; stroke-linecap: square"/>
   </g>
   <g id="line2d_125">
    <path d="M 62.48 144 
L 226.991667 143.999813 
L 391.503333 148.694037 
L 556.015 148.694056 
" clip-path="url(#pcd4f53ce58)" style="fill: none; stroke: #d3d3d3; stroke-width: 1.5; stroke-linecap: square"/>
   </g>
   <g id="line2d_126">
    <path d="M 62.48 144 
L 226.991667 144 
L 391.503333 144 
L 556.015 144.350528 
" clip-path="url(#pcd4f53ce58)" style="fill: none; stroke: #d3d3d3; stroke-width: 1.5; stroke-linecap: square"/>
   </g>
   <g id="line2d_127">
    <path d="M 62.48 144 
L 226.991667 144.033753 
L 391.503333 143.998124 
L 556.015 144.032425 
" clip-path="url(#pcd4f53ce58)" style="fill: none; stroke: #d3d3d3; stroke-width: 1.5; stroke-linecap: square"/>
   </g>
   <g id="line2d_128">
    <path d="M 62.48 144 
L 226.991667 143.999935 
L 391.503333 147.645965 
L 556.015 147.645967 
" clip-path="url(#pcd4f53ce58)" style="fill: none; stroke: #d3d3d3; stroke-width: 1.5; stroke-linecap: square"/>
   </g>
   <g id="line2d_129">
    <path d="M 62.48 144 
L 226.991667 143.999959 
L 391.503333 170.749915 
L 556.015 170.750613 
" clip-path="url(#pcd4f53ce58)" style="fill: none; stroke: #d3d3d3; stroke-width: 1.5; stroke-linecap: square"/>
   </g>
   <g id="line2d_130">
    <path d="M 62.48 144 
L 226.991667 151.990346 
L 391.503333 144.000409 
L 556.015 151.99069 
" clip-path="url(#pcd4f53ce58)" style="fill: none; stroke: #d3d3d3; stroke-width: 1.5; stroke-linecap: square"/>
   </g>
   <g id="line2d_131">
    <path d="M 62.48 144 
L 226.991667 144.00875 
L 391.503333 143.836851 
L 556.015 143.843517 
" clip-path="url(#pcd4f53ce58)" style="fill: none; stroke: #d3d3d3; stroke-width: 1.5; stroke-linecap: square"/>
   </g>
   <g id="line2d_132">
    <path d="M 62.48 144 
L 226.991667 144.276461 
L 391.503333 141.914164 
L 556.015 142.196898 
" clip-path="url(#pcd4f53ce58)" style="fill: none; stroke: #d3d3d3; stroke-width: 1.5; stroke-linecap: square"/>
   </g>
   <g id="line2d_133">
    <path d="M 62.48 144 
L 226.991667 145.518675 
L 391.503333 167.553919 
L 556.015 168.197171 
" clip-path="url(#pcd4f53ce58)" style="fill: none; stroke: #d3d3d3; stroke-width: 1.5; stroke-linecap: square"/>
   </g>
   <g id="line2d_134">
    <path d="M 62.48 144 
L 226.991667 144.154114 
L 391.503333 144.000105 
L 556.015 144.154268 
" clip-path="url(#pcd4f53ce58)" style="fill: none; stroke: #9370db; stroke-width: 1.5; stroke-linecap: square"/>
   </g>
   <g id="line2d_135">
    <path d="M 62.48 144 
L 226.991667 144.025988 
L 391.503333 138.516427 
L 556.015 138.553271 
" clip-path="url(#pcd4f53ce58)" style="fill: none; stroke: #d3d3d3; stroke-width: 1.5; stroke-linecap: square"/>
   </g>
   <g id="line2d_136">
    <path d="M 62.48 144 
L 226.991667 143.999878 
L 391.503333 167.720378 
L 556.015 167.720378 
" clip-path="url(#pcd4f53ce58)" style="fill: none; stroke: #d3d3d3; stroke-width: 1.5; stroke-linecap: square"/>
   </g>
   <g id="line2d_137">
    <path d="M 62.48 144 
L 226.991667 144.281635 
L 391.503333 143.998824 
L 556.015 144.280845 
" clip-path="url(#pcd4f53ce58)" style="fill: none; stroke: #d3d3d3; stroke-width: 1.5; stroke-linecap: square"/>
   </g>
   <g id="line2d_138">
    <path d="M 62.48 144 
L 226.991667 145.799791 
L 391.503333 164.699475 
L 556.015 166.64046 
" clip-path="url(#pcd4f53ce58)" style="fill: none; stroke: #9370db; stroke-width: 1.5; stroke-linecap: square"/>
   </g>
   <g id="line2d_139">
    <path d="M 62.48 144 
L 226.991667 144.137252 
L 391.503333 150.525789 
L 556.015 150.654951 
" clip-path="url(#pcd4f53ce58)" style="fill: none; stroke: #9370db; stroke-width: 1.5; stroke-linecap: square"/>
   </g>
   <g id="line2d_140">
    <path d="M 62.48 144 
L 226.991667 144.477305 
L 391.503333 144.000841 
L 556.015 144.47822 
" clip-path="url(#pcd4f53ce58)" style="fill: none; stroke: #9370db; stroke-width: 1.5; stroke-linecap: square"/>
   </g>
   <g id="line2d_141">
    <path d="M 62.48 144 
L 226.991667 144.000118 
L 391.503333 143.999503 
L 556.015 143.99978 
" clip-path="url(#pcd4f53ce58)" style="fill: none; stroke: #d3d3d3; stroke-width: 1.5; stroke-linecap: square"/>
   </g>
   <g id="line2d_142">
    <path d="M 62.48 235.78 
L 62.48 52.22 
" clip-path="url(#pcd4f53ce58)" style="fill: none; stroke: #000000; stroke-linecap: square"/>
   </g>
   <g id="line2d_143">
    <path d="M 226.991667 235.78 
L 226.991667 52.22 
" clip-path="url(#pcd4f53ce58)" style="fill: none; stroke: #000000; stroke-linecap: square"/>
   </g>
   <g id="line2d_144">
    <path d="M 391.503333 235.78 
L 391.503333 52.22 
" clip-path="url(#pcd4f53ce58)" style="fill: none; stroke: #000000; stroke-linecap: square"/>
   </g>
   <g id="line2d_145">
    <path d="M 556.015 235.78 
L 556.015 52.22 
" clip-path="url(#pcd4f53ce58)" style="fill: none; stroke: #000000; stroke-linecap: square"/>
   </g>
   <g id="patch_3">
    <path d="M 62.48 235.78 
L 62.48 52.22 
" style="fill: none; stroke: #000000; stroke-width: 0.8; stroke-linejoin: miter; stroke-linecap: square"/>
   </g>
   <g id="patch_4">
    <path d="M 556.015 235.78 
L 556.015 52.22 
" style="fill: none; stroke: #000000; stroke-width: 0.8; stroke-linejoin: miter; stroke-linecap: square"/>
   </g>
   <g id="patch_5">
    <path d="M 62.48 235.78 
L 556.015 235.78 
" style="fill: none; stroke: #000000; stroke-width: 0.8; stroke-linejoin: miter; stroke-linecap: square"/>
   </g>
   <g id="patch_6">
    <path d="M 62.48 52.22 
L 556.015 52.22 
" style="fill: none; stroke: #000000; stroke-width: 0.8; stroke-linejoin: miter; stroke-linecap: square"/>
   </g>
   <g id="text_13">
    <!-- x2depth_6_27_23 Storm: Relative Improvement of Depth of Flooding -->
    <g transform="translate(102.97125 46.22) scale(0.12 -0.12)">
     <defs>
      <path id="DejaVuSans-78" d="M 3513 3500 
L 2247 1797 
L 3578 0 
L 2900 0 
L 1881 1375 
L 863 0 
L 184 0 
L 1544 1831 
L 300 3500 
L 978 3500 
L 1906 2253 
L 2834 3500 
L 3513 3500 
z
" transform="scale(0.015625)"/>
      <path id="DejaVuSans-32" d="M 1228 531 
L 3431 531 
L 3431 0 
L 469 0 
L 469 531 
Q 828 903 1448 1529 
Q 2069 2156 2228 2338 
Q 2531 2678 2651 2914 
Q 2772 3150 2772 3378 
Q 2772 3750 2511 3984 
Q 2250 4219 1831 4219 
Q 1534 4219 1204 4116 
Q 875 4013 500 3803 
L 500 4441 
Q 881 4594 1212 4672 
Q 1544 4750 1819 4750 
Q 2544 4750 2975 4387 
Q 3406 4025 3406 3419 
Q 3406 3131 3298 2873 
Q 3191 2616 2906 2266 
Q 2828 2175 2409 1742 
Q 1991 1309 1228 531 
z
" transform="scale(0.015625)"/>
      <path id="DejaVuSans-64" d="M 2906 2969 
L 2906 4863 
L 3481 4863 
L 3481 0 
L 2906 0 
L 2906 525 
Q 2725 213 2448 61 
Q 2172 -91 1784 -91 
Q 1150 -91 751 415 
Q 353 922 353 1747 
Q 353 2572 751 3078 
Q 1150 3584 1784 3584 
Q 2172 3584 2448 3432 
Q 2725 3281 2906 2969 
z
M 947 1747 
Q 947 1113 1208 752 
Q 1469 391 1925 391 
Q 2381 391 2643 752 
Q 2906 1113 2906 1747 
Q 2906 2381 2643 2742 
Q 2381 3103 1925 3103 
Q 1469 3103 1208 2742 
Q 947 2381 947 1747 
z
" transform="scale(0.015625)"/>
      <path id="DejaVuSans-5f" d="M 3263 -1063 
L 3263 -1509 
L -63 -1509 
L -63 -1063 
L 3263 -1063 
z
" transform="scale(0.015625)"/>
      <path id="DejaVuSans-36" d="M 2113 2584 
Q 1688 2584 1439 2293 
Q 1191 2003 1191 1497 
Q 1191 994 1439 701 
Q 1688 409 2113 409 
Q 2538 409 2786 701 
Q 3034 994 3034 1497 
Q 3034 2003 2786 2293 
Q 2538 2584 2113 2584 
z
M 3366 4563 
L 3366 3988 
Q 3128 4100 2886 4159 
Q 2644 4219 2406 4219 
Q 1781 4219 1451 3797 
Q 1122 3375 1075 2522 
Q 1259 2794 1537 2939 
Q 1816 3084 2150 3084 
Q 2853 3084 3261 2657 
Q 3669 2231 3669 1497 
Q 3669 778 3244 343 
Q 2819 -91 2113 -91 
Q 1303 -91 875 529 
Q 447 1150 447 2328 
Q 447 3434 972 4092 
Q 1497 4750 2381 4750 
Q 2619 4750 2861 4703 
Q 3103 4656 3366 4563 
z
" transform="scale(0.015625)"/>
      <path id="DejaVuSans-37" d="M 525 4666 
L 3525 4666 
L 3525 4397 
L 1831 0 
L 1172 0 
L 2766 4134 
L 525 4134 
L 525 4666 
z
" transform="scale(0.015625)"/>
      <path id="DejaVuSans-33" d="M 2597 2516 
Q 3050 2419 3304 2112 
Q 3559 1806 3559 1356 
Q 3559 666 3084 287 
Q 2609 -91 1734 -91 
Q 1441 -91 1130 -33 
Q 819 25 488 141 
L 488 750 
Q 750 597 1062 519 
Q 1375 441 1716 441 
Q 2309 441 2620 675 
Q 2931 909 2931 1356 
Q 2931 1769 2642 2001 
Q 2353 2234 1838 2234 
L 1294 2234 
L 1294 2753 
L 1863 2753 
Q 2328 2753 2575 2939 
Q 2822 3125 2822 3475 
Q 2822 3834 2567 4026 
Q 2313 4219 1838 4219 
Q 1578 4219 1281 4162 
Q 984 4106 628 3988 
L 628 4550 
Q 988 4650 1302 4700 
Q 1616 4750 1894 4750 
Q 2613 4750 3031 4423 
Q 3450 4097 3450 3541 
Q 3450 3153 3228 2886 
Q 3006 2619 2597 2516 
z
" transform="scale(0.015625)"/>
      <path id="DejaVuSans-53" d="M 3425 4513 
L 3425 3897 
Q 3066 4069 2747 4153 
Q 2428 4238 2131 4238 
Q 1616 4238 1336 4038 
Q 1056 3838 1056 3469 
Q 1056 3159 1242 3001 
Q 1428 2844 1947 2747 
L 2328 2669 
Q 3034 2534 3370 2195 
Q 3706 1856 3706 1288 
Q 3706 609 3251 259 
Q 2797 -91 1919 -91 
Q 1588 -91 1214 -16 
Q 841 59 441 206 
L 441 856 
Q 825 641 1194 531 
Q 1563 422 1919 422 
Q 2459 422 2753 634 
Q 3047 847 3047 1241 
Q 3047 1584 2836 1778 
Q 2625 1972 2144 2069 
L 1759 2144 
Q 1053 2284 737 2584 
Q 422 2884 422 3419 
Q 422 4038 858 4394 
Q 1294 4750 2059 4750 
Q 2388 4750 2728 4690 
Q 3069 4631 3425 4513 
z
" transform="scale(0.015625)"/>
      <path id="DejaVuSans-6f" d="M 1959 3097 
Q 1497 3097 1228 2736 
Q 959 2375 959 1747 
Q 959 1119 1226 758 
Q 1494 397 1959 397 
Q 2419 397 2687 759 
Q 2956 1122 2956 1747 
Q 2956 2369 2687 2733 
Q 2419 3097 1959 3097 
z
M 1959 3584 
Q 2709 3584 3137 3096 
Q 3566 2609 3566 1747 
Q 3566 888 3137 398 
Q 2709 -91 1959 -91 
Q 1206 -91 779 398 
Q 353 888 353 1747 
Q 353 2609 779 3096 
Q 1206 3584 1959 3584 
z
" transform="scale(0.015625)"/>
      <path id="DejaVuSans-72" d="M 2631 2963 
Q 2534 3019 2420 3045 
Q 2306 3072 2169 3072 
Q 1681 3072 1420 2755 
Q 1159 2438 1159 1844 
L 1159 0 
L 581 0 
L 581 3500 
L 1159 3500 
L 1159 2956 
Q 1341 3275 1631 3429 
Q 1922 3584 2338 3584 
Q 2397 3584 2469 3576 
Q 2541 3569 2628 3553 
L 2631 2963 
z
" transform="scale(0.015625)"/>
      <path id="DejaVuSans-3a" d="M 750 794 
L 1409 794 
L 1409 0 
L 750 0 
L 750 794 
z
M 750 3309 
L 1409 3309 
L 1409 2516 
L 750 2516 
L 750 3309 
z
" transform="scale(0.015625)"/>
      <path id="DejaVuSans-52" d="M 2841 2188 
Q 3044 2119 3236 1894 
Q 3428 1669 3622 1275 
L 4263 0 
L 3584 0 
L 2988 1197 
Q 2756 1666 2539 1819 
Q 2322 1972 1947 1972 
L 1259 1972 
L 1259 0 
L 628 0 
L 628 4666 
L 2053 4666 
Q 2853 4666 3247 4331 
Q 3641 3997 3641 3322 
Q 3641 2881 3436 2590 
Q 3231 2300 2841 2188 
z
M 1259 4147 
L 1259 2491 
L 2053 2491 
Q 2509 2491 2742 2702 
Q 2975 2913 2975 3322 
Q 2975 3731 2742 3939 
Q 2509 4147 2053 4147 
L 1259 4147 
z
" transform="scale(0.015625)"/>
      <path id="DejaVuSans-6c" d="M 603 4863 
L 1178 4863 
L 1178 0 
L 603 0 
L 603 4863 
z
" transform="scale(0.015625)"/>
      <path id="DejaVuSans-69" d="M 603 3500 
L 1178 3500 
L 1178 0 
L 603 0 
L 603 3500 
z
M 603 4863 
L 1178 4863 
L 1178 4134 
L 603 4134 
L 603 4863 
z
" transform="scale(0.015625)"/>
      <path id="DejaVuSans-76" d="M 191 3500 
L 800 3500 
L 1894 563 
L 2988 3500 
L 3597 3500 
L 2284 0 
L 1503 0 
L 191 3500 
z
" transform="scale(0.015625)"/>
      <path id="DejaVuSans-6e" d="M 3513 2113 
L 3513 0 
L 2938 0 
L 2938 2094 
Q 2938 2591 2744 2837 
Q 2550 3084 2163 3084 
Q 1697 3084 1428 2787 
Q 1159 2491 1159 1978 
L 1159 0 
L 581 0 
L 581 3500 
L 1159 3500 
L 1159 2956 
Q 1366 3272 1645 3428 
Q 1925 3584 2291 3584 
Q 2894 3584 3203 3211 
Q 3513 2838 3513 2113 
z
" transform="scale(0.015625)"/>
      <path id="DejaVuSans-66" d="M 2375 4863 
L 2375 4384 
L 1825 4384 
Q 1516 4384 1395 4259 
Q 1275 4134 1275 3809 
L 1275 3500 
L 2222 3500 
L 2222 3053 
L 1275 3053 
L 1275 0 
L 697 0 
L 697 3053 
L 147 3053 
L 147 3500 
L 697 3500 
L 697 3744 
Q 697 4328 969 4595 
Q 1241 4863 1831 4863 
L 2375 4863 
z
" transform="scale(0.015625)"/>
      <path id="DejaVuSans-46" d="M 628 4666 
L 3309 4666 
L 3309 4134 
L 1259 4134 
L 1259 2759 
L 3109 2759 
L 3109 2228 
L 1259 2228 
L 1259 0 
L 628 0 
L 628 4666 
z
" transform="scale(0.015625)"/>
      <path id="DejaVuSans-67" d="M 2906 1791 
Q 2906 2416 2648 2759 
Q 2391 3103 1925 3103 
Q 1463 3103 1205 2759 
Q 947 2416 947 1791 
Q 947 1169 1205 825 
Q 1463 481 1925 481 
Q 2391 481 2648 825 
Q 2906 1169 2906 1791 
z
M 3481 434 
Q 3481 -459 3084 -895 
Q 2688 -1331 1869 -1331 
Q 1566 -1331 1297 -1286 
Q 1028 -1241 775 -1147 
L 775 -588 
Q 1028 -725 1275 -790 
Q 1522 -856 1778 -856 
Q 2344 -856 2625 -561 
Q 2906 -266 2906 331 
L 2906 616 
Q 2728 306 2450 153 
Q 2172 0 1784 0 
Q 1141 0 747 490 
Q 353 981 353 1791 
Q 353 2603 747 3093 
Q 1141 3584 1784 3584 
Q 2172 3584 2450 3431 
Q 2728 3278 2906 2969 
L 2906 3500 
L 3481 3500 
L 3481 434 
z
" transform="scale(0.015625)"/>
     </defs>
     <use xlink:href="#DejaVuSans-78"/>
     <use xlink:href="#DejaVuSans-32" transform="translate(59.179688 0)"/>
     <use xlink:href="#DejaVuSans-64" transform="translate(122.802734 0)"/>
     <use xlink:href="#DejaVuSans-65" transform="translate(186.279297 0)"/>
     <use xlink:href="#DejaVuSans-70" transform="translate(247.802734 0)"/>
     <use xlink:href="#DejaVuSans-74" transform="translate(311.279297 0)"/>
     <use xlink:href="#DejaVuSans-68" transform="translate(350.488281 0)"/>
     <use xlink:href="#DejaVuSans-5f" transform="translate(413.867188 0)"/>
     <use xlink:href="#DejaVuSans-36" transform="translate(463.867188 0)"/>
     <use xlink:href="#DejaVuSans-5f" transform="translate(527.490234 0)"/>
     <use xlink:href="#DejaVuSans-32" transform="translate(577.490234 0)"/>
     <use xlink:href="#DejaVuSans-37" transform="translate(641.113281 0)"/>
     <use xlink:href="#DejaVuSans-5f" transform="translate(704.736328 0)"/>
     <use xlink:href="#DejaVuSans-32" transform="translate(754.736328 0)"/>
     <use xlink:href="#DejaVuSans-33" transform="translate(818.359375 0)"/>
     <use xlink:href="#DejaVuSans-20" transform="translate(881.982422 0)"/>
     <use xlink:href="#DejaVuSans-53" transform="translate(913.769531 0)"/>
     <use xlink:href="#DejaVuSans-74" transform="translate(977.246094 0)"/>
     <use xlink:href="#DejaVuSans-6f" transform="translate(1016.455078 0)"/>
     <use xlink:href="#DejaVuSans-72" transform="translate(1077.636719 0)"/>
     <use xlink:href="#DejaVuSans-6d" transform="translate(1117 0)"/>
     <use xlink:href="#DejaVuSans-3a" transform="translate(1214.412109 0)"/>
     <use xlink:href="#DejaVuSans-20" transform="translate(1248.103516 0)"/>
     <use xlink:href="#DejaVuSans-52" transform="translate(1279.890625 0)"/>
     <use xlink:href="#DejaVuSans-65" transform="translate(1344.873047 0)"/>
     <use xlink:href="#DejaVuSans-6c" transform="translate(1406.396484 0)"/>
     <use xlink:href="#DejaVuSans-61" transform="translate(1434.179688 0)"/>
     <use xlink:href="#DejaVuSans-74" transform="translate(1495.458984 0)"/>
     <use xlink:href="#DejaVuSans-69" transform="translate(1534.667969 0)"/>
     <use xlink:href="#DejaVuSans-76" transform="translate(1562.451172 0)"/>
     <use xlink:href="#DejaVuSans-65" transform="translate(1621.630859 0)"/>
     <use xlink:href="#DejaVuSans-20" transform="translate(1683.154297 0)"/>
     <use xlink:href="#DejaVuSans-49" transform="translate(1714.941406 0)"/>
     <use xlink:href="#DejaVuSans-6d" transform="translate(1744.433594 0)"/>
     <use xlink:href="#DejaVuSans-70" transform="translate(1841.845703 0)"/>
     <use xlink:href="#DejaVuSans-72" transform="translate(1905.322266 0)"/>
     <use xlink:href="#DejaVuSans-6f" transform="translate(1944.185547 0)"/>
     <use xlink:href="#DejaVuSans-76" transform="translate(2005.367188 0)"/>
     <use xlink:href="#DejaVuSans-65" transform="translate(2064.546875 0)"/>
     <use xlink:href="#DejaVuSans-6d" transform="translate(2126.070312 0)"/>
     <use xlink:href="#DejaVuSans-65" transform="translate(2223.482422 0)"/>
     <use xlink:href="#DejaVuSans-6e" transform="translate(2285.005859 0)"/>
     <use xlink:href="#DejaVuSans-74" transform="translate(2348.384766 0)"/>
     <use xlink:href="#DejaVuSans-20" transform="translate(2387.59375 0)"/>
     <use xlink:href="#DejaVuSans-6f" transform="translate(2419.380859 0)"/>
     <use xlink:href="#DejaVuSans-66" transform="translate(2480.5625 0)"/>
     <use xlink:href="#DejaVuSans-20" transform="translate(2515.767578 0)"/>
     <use xlink:href="#DejaVuSans-44" transform="translate(2547.554688 0)"/>
     <use xlink:href="#DejaVuSans-65" transform="translate(2624.556641 0)"/>
     <use xlink:href="#DejaVuSans-70" transform="translate(2686.080078 0)"/>
     <use xlink:href="#DejaVuSans-74" transform="translate(2749.556641 0)"/>
     <use xlink:href="#DejaVuSans-68" transform="translate(2788.765625 0)"/>
     <use xlink:href="#DejaVuSans-20" transform="translate(2852.144531 0)"/>
     <use xlink:href="#DejaVuSans-6f" transform="translate(2883.931641 0)"/>
     <use xlink:href="#DejaVuSans-66" transform="translate(2945.113281 0)"/>
     <use xlink:href="#DejaVuSans-20" transform="translate(2980.318359 0)"/>
     <use xlink:href="#DejaVuSans-46" transform="translate(3012.105469 0)"/>
     <use xlink:href="#DejaVuSans-6c" transform="translate(3069.625 0)"/>
     <use xlink:href="#DejaVuSans-6f" transform="translate(3097.408203 0)"/>
     <use xlink:href="#DejaVuSans-6f" transform="translate(3158.589844 0)"/>
     <use xlink:href="#DejaVuSans-64" transform="translate(3219.771484 0)"/>
     <use xlink:href="#DejaVuSans-69" transform="translate(3283.248047 0)"/>
     <use xlink:href="#DejaVuSans-6e" transform="translate(3311.03125 0)"/>
     <use xlink:href="#DejaVuSans-67" transform="translate(3374.410156 0)"/>
    </g>
   </g>
   <g id="legend_1">
    <g id="patch_7">
     <path d="M 563.015 292.28125 
L 707.1025 292.28125 
Q 709.1025 292.28125 709.1025 290.28125 
L 709.1025 -2.28125 
Q 709.1025 -4.28125 707.1025 -4.28125 
L 563.015 -4.28125 
Q 561.015 -4.28125 561.015 -2.28125 
L 561.015 290.28125 
Q 561.015 292.28125 563.015 292.28125 
z
" style="fill: #ffffff; opacity: 0.8; stroke: #cccccc; stroke-linejoin: miter"/>
    </g>
    <g id="text_14">
     <!-- Neighborhood -->
     <g transform="translate(599.84625 7.317187) scale(0.1 -0.1)">
      <defs>
       <path id="DejaVuSans-4e" d="M 628 4666 
L 1478 4666 
L 3547 763 
L 3547 4666 
L 4159 4666 
L 4159 0 
L 3309 0 
L 1241 3903 
L 1241 0 
L 628 0 
L 628 4666 
z
" transform="scale(0.015625)"/>
       <path id="DejaVuSans-62" d="M 3116 1747 
Q 3116 2381 2855 2742 
Q 2594 3103 2138 3103 
Q 1681 3103 1420 2742 
Q 1159 2381 1159 1747 
Q 1159 1113 1420 752 
Q 1681 391 2138 391 
Q 2594 391 2855 752 
Q 3116 1113 3116 1747 
z
M 1159 2969 
Q 1341 3281 1617 3432 
Q 1894 3584 2278 3584 
Q 2916 3584 3314 3078 
Q 3713 2572 3713 1747 
Q 3713 922 3314 415 
Q 2916 -91 2278 -91 
Q 1894 -91 1617 61 
Q 1341 213 1159 525 
L 1159 0 
L 581 0 
L 581 4863 
L 1159 4863 
L 1159 2969 
z
" transform="scale(0.015625)"/>
      </defs>
      <use xlink:href="#DejaVuSans-4e"/>
      <use xlink:href="#DejaVuSans-65" transform="translate(74.804688 0)"/>
      <use xlink:href="#DejaVuSans-69" transform="translate(136.328125 0)"/>
      <use xlink:href="#DejaVuSans-67" transform="translate(164.111328 0)"/>
      <use xlink:href="#DejaVuSans-68" transform="translate(227.587891 0)"/>
      <use xlink:href="#DejaVuSans-62" transform="translate(290.966797 0)"/>
      <use xlink:href="#DejaVuSans-6f" transform="translate(354.443359 0)"/>
      <use xlink:href="#DejaVuSans-72" transform="translate(415.625 0)"/>
      <use xlink:href="#DejaVuSans-68" transform="translate(454.988281 0)"/>
      <use xlink:href="#DejaVuSans-6f" transform="translate(518.367188 0)"/>
      <use xlink:href="#DejaVuSans-6f" transform="translate(579.548828 0)"/>
      <use xlink:href="#DejaVuSans-64" transform="translate(640.730469 0)"/>
     </g>
    </g>
    <g id="patch_8">
     <path d="M 565.015 21.995313 
L 585.015 21.995313 
L 585.015 14.995313 
L 565.015 14.995313 
z
" style="fill: #d3d3d3; stroke: #d3d3d3; stroke-linejoin: miter"/>
    </g>
    <g id="text_15">
     <!-- Baltimore Highlands -->
     <g transform="translate(593.015 21.995313) scale(0.1 -0.1)">
      <defs>
       <path id="DejaVuSans-48" d="M 628 4666 
L 1259 4666 
L 1259 2753 
L 3553 2753 
L 3553 4666 
L 4184 4666 
L 4184 0 
L 3553 0 
L 3553 2222 
L 1259 2222 
L 1259 0 
L 628 0 
L 628 4666 
z
" transform="scale(0.015625)"/>
      </defs>
      <use xlink:href="#DejaVuSans-42"/>
      <use xlink:href="#DejaVuSans-61" transform="translate(68.603516 0)"/>
      <use xlink:href="#DejaVuSans-6c" transform="translate(129.882812 0)"/>
      <use xlink:href="#DejaVuSans-74" transform="translate(157.666016 0)"/>
      <use xlink:href="#DejaVuSans-69" transform="translate(196.875 0)"/>
      <use xlink:href="#DejaVuSans-6d" transform="translate(224.658203 0)"/>
      <use xlink:href="#DejaVuSans-6f" transform="translate(322.070312 0)"/>
      <use xlink:href="#DejaVuSans-72" transform="translate(383.251953 0)"/>
      <use xlink:href="#DejaVuSans-65" transform="translate(422.115234 0)"/>
      <use xlink:href="#DejaVuSans-20" transform="translate(483.638672 0)"/>
      <use xlink:href="#DejaVuSans-48" transform="translate(515.425781 0)"/>
      <use xlink:href="#DejaVuSans-69" transform="translate(590.621094 0)"/>
      <use xlink:href="#DejaVuSans-67" transform="translate(618.404297 0)"/>
      <use xlink:href="#DejaVuSans-68" transform="translate(681.880859 0)"/>
      <use xlink:href="#DejaVuSans-6c" transform="translate(745.259766 0)"/>
      <use xlink:href="#DejaVuSans-61" transform="translate(773.042969 0)"/>
      <use xlink:href="#DejaVuSans-6e" transform="translate(834.322266 0)"/>
      <use xlink:href="#DejaVuSans-64" transform="translate(897.701172 0)"/>
      <use xlink:href="#DejaVuSans-73" transform="translate(961.177734 0)"/>
     </g>
    </g>
    <g id="patch_9">
     <path d="M 565.015 36.673438 
L 585.015 36.673438 
L 585.015 29.673438 
L 565.015 29.673438 
z
" style="fill: #d3d3d3; stroke: #d3d3d3; stroke-linejoin: miter"/>
    </g>
    <g id="text_16">
     <!-- Berea -->
     <g transform="translate(593.015 36.673438) scale(0.1 -0.1)">
      <use xlink:href="#DejaVuSans-42"/>
      <use xlink:href="#DejaVuSans-65" transform="translate(68.603516 0)"/>
      <use xlink:href="#DejaVuSans-72" transform="translate(130.126953 0)"/>
      <use xlink:href="#DejaVuSans-65" transform="translate(168.990234 0)"/>
      <use xlink:href="#DejaVuSans-61" transform="translate(230.513672 0)"/>
     </g>
    </g>
    <g id="patch_10">
     <path d="M 565.015 51.351563 
L 585.015 51.351563 
L 585.015 44.351563 
L 565.015 44.351563 
z
" style="fill: #9370db; stroke: #9370db; stroke-linejoin: miter"/>
    </g>
    <g id="text_17">
     <!-- Broadway East -->
     <g transform="translate(593.015 51.351563) scale(0.1 -0.1)">
      <defs>
       <path id="DejaVuSans-77" d="M 269 3500 
L 844 3500 
L 1563 769 
L 2278 3500 
L 2956 3500 
L 3675 769 
L 4391 3500 
L 4966 3500 
L 4050 0 
L 3372 0 
L 2619 2869 
L 1863 0 
L 1184 0 
L 269 3500 
z
" transform="scale(0.015625)"/>
       <path id="DejaVuSans-79" d="M 2059 -325 
Q 1816 -950 1584 -1140 
Q 1353 -1331 966 -1331 
L 506 -1331 
L 506 -850 
L 844 -850 
Q 1081 -850 1212 -737 
Q 1344 -625 1503 -206 
L 1606 56 
L 191 3500 
L 800 3500 
L 1894 763 
L 2988 3500 
L 3597 3500 
L 2059 -325 
z
" transform="scale(0.015625)"/>
       <path id="DejaVuSans-45" d="M 628 4666 
L 3578 4666 
L 3578 4134 
L 1259 4134 
L 1259 2753 
L 3481 2753 
L 3481 2222 
L 1259 2222 
L 1259 531 
L 3634 531 
L 3634 0 
L 628 0 
L 628 4666 
z
" transform="scale(0.015625)"/>
      </defs>
      <use xlink:href="#DejaVuSans-42"/>
      <use xlink:href="#DejaVuSans-72" transform="translate(68.603516 0)"/>
      <use xlink:href="#DejaVuSans-6f" transform="translate(107.466797 0)"/>
      <use xlink:href="#DejaVuSans-61" transform="translate(168.648438 0)"/>
      <use xlink:href="#DejaVuSans-64" transform="translate(229.927734 0)"/>
      <use xlink:href="#DejaVuSans-77" transform="translate(293.404297 0)"/>
      <use xlink:href="#DejaVuSans-61" transform="translate(375.191406 0)"/>
      <use xlink:href="#DejaVuSans-79" transform="translate(436.470703 0)"/>
      <use xlink:href="#DejaVuSans-20" transform="translate(495.650391 0)"/>
      <use xlink:href="#DejaVuSans-45" transform="translate(527.4375 0)"/>
      <use xlink:href="#DejaVuSans-61" transform="translate(590.621094 0)"/>
      <use xlink:href="#DejaVuSans-73" transform="translate(651.900391 0)"/>
      <use xlink:href="#DejaVuSans-74" transform="translate(704 0)"/>
     </g>
    </g>
    <g id="patch_11">
     <path d="M 565.015 66.029688 
L 585.015 66.029688 
L 585.015 59.029688 
L 565.015 59.029688 
z
" style="fill: #d3d3d3; stroke: #d3d3d3; stroke-linejoin: miter"/>
    </g>
    <g id="text_18">
     <!-- Canton -->
     <g transform="translate(593.015 66.029688) scale(0.1 -0.1)">
      <defs>
       <path id="DejaVuSans-43" d="M 4122 4306 
L 4122 3641 
Q 3803 3938 3442 4084 
Q 3081 4231 2675 4231 
Q 1875 4231 1450 3742 
Q 1025 3253 1025 2328 
Q 1025 1406 1450 917 
Q 1875 428 2675 428 
Q 3081 428 3442 575 
Q 3803 722 4122 1019 
L 4122 359 
Q 3791 134 3420 21 
Q 3050 -91 2638 -91 
Q 1578 -91 968 557 
Q 359 1206 359 2328 
Q 359 3453 968 4101 
Q 1578 4750 2638 4750 
Q 3056 4750 3426 4639 
Q 3797 4528 4122 4306 
z
" transform="scale(0.015625)"/>
      </defs>
      <use xlink:href="#DejaVuSans-43"/>
      <use xlink:href="#DejaVuSans-61" transform="translate(69.824219 0)"/>
      <use xlink:href="#DejaVuSans-6e" transform="translate(131.103516 0)"/>
      <use xlink:href="#DejaVuSans-74" transform="translate(194.482422 0)"/>
      <use xlink:href="#DejaVuSans-6f" transform="translate(233.691406 0)"/>
      <use xlink:href="#DejaVuSans-6e" transform="translate(294.873047 0)"/>
     </g>
    </g>
    <g id="patch_12">
     <path d="M 565.015 80.707813 
L 585.015 80.707813 
L 585.015 73.707813 
L 565.015 73.707813 
z
" style="fill: #d3d3d3; stroke: #d3d3d3; stroke-linejoin: miter"/>
    </g>
    <g id="text_19">
     <!-- Canton Industrial Area -->
     <g transform="translate(593.015 80.707813) scale(0.1 -0.1)">
      <defs>
       <path id="DejaVuSans-75" d="M 544 1381 
L 544 3500 
L 1119 3500 
L 1119 1403 
Q 1119 906 1312 657 
Q 1506 409 1894 409 
Q 2359 409 2629 706 
Q 2900 1003 2900 1516 
L 2900 3500 
L 3475 3500 
L 3475 0 
L 2900 0 
L 2900 538 
Q 2691 219 2414 64 
Q 2138 -91 1772 -91 
Q 1169 -91 856 284 
Q 544 659 544 1381 
z
M 1991 3584 
L 1991 3584 
z
" transform="scale(0.015625)"/>
       <path id="DejaVuSans-41" d="M 2188 4044 
L 1331 1722 
L 3047 1722 
L 2188 4044 
z
M 1831 4666 
L 2547 4666 
L 4325 0 
L 3669 0 
L 3244 1197 
L 1141 1197 
L 716 0 
L 50 0 
L 1831 4666 
z
" transform="scale(0.015625)"/>
      </defs>
      <use xlink:href="#DejaVuSans-43"/>
      <use xlink:href="#DejaVuSans-61" transform="translate(69.824219 0)"/>
      <use xlink:href="#DejaVuSans-6e" transform="translate(131.103516 0)"/>
      <use xlink:href="#DejaVuSans-74" transform="translate(194.482422 0)"/>
      <use xlink:href="#DejaVuSans-6f" transform="translate(233.691406 0)"/>
      <use xlink:href="#DejaVuSans-6e" transform="translate(294.873047 0)"/>
      <use xlink:href="#DejaVuSans-20" transform="translate(358.251953 0)"/>
      <use xlink:href="#DejaVuSans-49" transform="translate(390.039062 0)"/>
      <use xlink:href="#DejaVuSans-6e" transform="translate(419.53125 0)"/>
      <use xlink:href="#DejaVuSans-64" transform="translate(482.910156 0)"/>
      <use xlink:href="#DejaVuSans-75" transform="translate(546.386719 0)"/>
      <use xlink:href="#DejaVuSans-73" transform="translate(609.765625 0)"/>
      <use xlink:href="#DejaVuSans-74" transform="translate(661.865234 0)"/>
      <use xlink:href="#DejaVuSans-72" transform="translate(701.074219 0)"/>
      <use xlink:href="#DejaVuSans-69" transform="translate(742.1875 0)"/>
      <use xlink:href="#DejaVuSans-61" transform="translate(769.970703 0)"/>
      <use xlink:href="#DejaVuSans-6c" transform="translate(831.25 0)"/>
      <use xlink:href="#DejaVuSans-20" transform="translate(859.033203 0)"/>
      <use xlink:href="#DejaVuSans-41" transform="translate(890.820312 0)"/>
      <use xlink:href="#DejaVuSans-72" transform="translate(959.228516 0)"/>
      <use xlink:href="#DejaVuSans-65" transform="translate(998.091797 0)"/>
      <use xlink:href="#DejaVuSans-61" transform="translate(1059.615234 0)"/>
     </g>
    </g>
    <g id="patch_13">
     <path d="M 565.015 95.385938 
L 585.015 95.385938 
L 585.015 88.385938 
L 565.015 88.385938 
z
" style="fill: #d3d3d3; stroke: #d3d3d3; stroke-linejoin: miter"/>
    </g>
    <g id="text_20">
     <!-- Clifton Park -->
     <g transform="translate(593.015 95.385938) scale(0.1 -0.1)">
      <defs>
       <path id="DejaVuSans-50" d="M 1259 4147 
L 1259 2394 
L 2053 2394 
Q 2494 2394 2734 2622 
Q 2975 2850 2975 3272 
Q 2975 3691 2734 3919 
Q 2494 4147 2053 4147 
L 1259 4147 
z
M 628 4666 
L 2053 4666 
Q 2838 4666 3239 4311 
Q 3641 3956 3641 3272 
Q 3641 2581 3239 2228 
Q 2838 1875 2053 1875 
L 1259 1875 
L 1259 0 
L 628 0 
L 628 4666 
z
" transform="scale(0.015625)"/>
       <path id="DejaVuSans-6b" d="M 581 4863 
L 1159 4863 
L 1159 1991 
L 2875 3500 
L 3609 3500 
L 1753 1863 
L 3688 0 
L 2938 0 
L 1159 1709 
L 1159 0 
L 581 0 
L 581 4863 
z
" transform="scale(0.015625)"/>
      </defs>
      <use xlink:href="#DejaVuSans-43"/>
      <use xlink:href="#DejaVuSans-6c" transform="translate(69.824219 0)"/>
      <use xlink:href="#DejaVuSans-69" transform="translate(97.607422 0)"/>
      <use xlink:href="#DejaVuSans-66" transform="translate(125.390625 0)"/>
      <use xlink:href="#DejaVuSans-74" transform="translate(158.845703 0)"/>
      <use xlink:href="#DejaVuSans-6f" transform="translate(198.054688 0)"/>
      <use xlink:href="#DejaVuSans-6e" transform="translate(259.236328 0)"/>
      <use xlink:href="#DejaVuSans-20" transform="translate(322.615234 0)"/>
      <use xlink:href="#DejaVuSans-50" transform="translate(354.402344 0)"/>
      <use xlink:href="#DejaVuSans-61" transform="translate(410.205078 0)"/>
      <use xlink:href="#DejaVuSans-72" transform="translate(471.484375 0)"/>
      <use xlink:href="#DejaVuSans-6b" transform="translate(512.597656 0)"/>
     </g>
    </g>
    <g id="patch_14">
     <path d="M 565.015 110.064063 
L 585.015 110.064063 
L 585.015 103.064063 
L 565.015 103.064063 
z
" style="fill: #d3d3d3; stroke: #d3d3d3; stroke-linejoin: miter"/>
    </g>
    <g id="text_21">
     <!-- Downtown -->
     <g transform="translate(593.015 110.064063) scale(0.1 -0.1)">
      <use xlink:href="#DejaVuSans-44"/>
      <use xlink:href="#DejaVuSans-6f" transform="translate(77.001953 0)"/>
      <use xlink:href="#DejaVuSans-77" transform="translate(138.183594 0)"/>
      <use xlink:href="#DejaVuSans-6e" transform="translate(219.970703 0)"/>
      <use xlink:href="#DejaVuSans-74" transform="translate(283.349609 0)"/>
      <use xlink:href="#DejaVuSans-6f" transform="translate(322.558594 0)"/>
      <use xlink:href="#DejaVuSans-77" transform="translate(383.740234 0)"/>
      <use xlink:href="#DejaVuSans-6e" transform="translate(465.527344 0)"/>
     </g>
    </g>
    <g id="patch_15">
     <path d="M 565.015 124.742188 
L 585.015 124.742188 
L 585.015 117.742188 
L 565.015 117.742188 
z
" style="fill: #9370db; stroke: #9370db; stroke-linejoin: miter"/>
    </g>
    <g id="text_22">
     <!-- Dunbar-Broadway -->
     <g transform="translate(593.015 124.742188) scale(0.1 -0.1)">
      <defs>
       <path id="DejaVuSans-2d" d="M 313 2009 
L 1997 2009 
L 1997 1497 
L 313 1497 
L 313 2009 
z
" transform="scale(0.015625)"/>
      </defs>
      <use xlink:href="#DejaVuSans-44"/>
      <use xlink:href="#DejaVuSans-75" transform="translate(77.001953 0)"/>
      <use xlink:href="#DejaVuSans-6e" transform="translate(140.380859 0)"/>
      <use xlink:href="#DejaVuSans-62" transform="translate(203.759766 0)"/>
      <use xlink:href="#DejaVuSans-61" transform="translate(267.236328 0)"/>
      <use xlink:href="#DejaVuSans-72" transform="translate(328.515625 0)"/>
      <use xlink:href="#DejaVuSans-2d" transform="translate(363.253906 0)"/>
      <use xlink:href="#DejaVuSans-42" transform="translate(395.712891 0)"/>
      <use xlink:href="#DejaVuSans-72" transform="translate(464.316406 0)"/>
      <use xlink:href="#DejaVuSans-6f" transform="translate(503.179688 0)"/>
      <use xlink:href="#DejaVuSans-61" transform="translate(564.361328 0)"/>
      <use xlink:href="#DejaVuSans-64" transform="translate(625.640625 0)"/>
      <use xlink:href="#DejaVuSans-77" transform="translate(689.117188 0)"/>
      <use xlink:href="#DejaVuSans-61" transform="translate(770.904297 0)"/>
      <use xlink:href="#DejaVuSans-79" transform="translate(832.183594 0)"/>
     </g>
    </g>
    <g id="patch_16">
     <path d="M 565.015 139.420313 
L 585.015 139.420313 
L 585.015 132.420313 
L 565.015 132.420313 
z
" style="fill: #9370db; stroke: #9370db; stroke-linejoin: miter"/>
    </g>
    <g id="text_23">
     <!-- Eager Park -->
     <g transform="translate(593.015 139.420313) scale(0.1 -0.1)">
      <use xlink:href="#DejaVuSans-45"/>
      <use xlink:href="#DejaVuSans-61" transform="translate(63.183594 0)"/>
      <use xlink:href="#DejaVuSans-67" transform="translate(124.462891 0)"/>
      <use xlink:href="#DejaVuSans-65" transform="translate(187.939453 0)"/>
      <use xlink:href="#DejaVuSans-72" transform="translate(249.462891 0)"/>
      <use xlink:href="#DejaVuSans-20" transform="translate(290.576172 0)"/>
      <use xlink:href="#DejaVuSans-50" transform="translate(322.363281 0)"/>
      <use xlink:href="#DejaVuSans-61" transform="translate(378.166016 0)"/>
      <use xlink:href="#DejaVuSans-72" transform="translate(439.445312 0)"/>
      <use xlink:href="#DejaVuSans-6b" transform="translate(480.558594 0)"/>
     </g>
    </g>
    <g id="patch_17">
     <path d="M 565.015 154.098437 
L 585.015 154.098437 
L 585.015 147.098437 
L 565.015 147.098437 
z
" style="fill: #d3d3d3; stroke: #d3d3d3; stroke-linejoin: miter"/>
    </g>
    <g id="text_24">
     <!-- Federal Hill -->
     <g transform="translate(593.015 154.098437) scale(0.1 -0.1)">
      <use xlink:href="#DejaVuSans-46"/>
      <use xlink:href="#DejaVuSans-65" transform="translate(52.019531 0)"/>
      <use xlink:href="#DejaVuSans-64" transform="translate(113.542969 0)"/>
      <use xlink:href="#DejaVuSans-65" transform="translate(177.019531 0)"/>
      <use xlink:href="#DejaVuSans-72" transform="translate(238.542969 0)"/>
      <use xlink:href="#DejaVuSans-61" transform="translate(279.65625 0)"/>
      <use xlink:href="#DejaVuSans-6c" transform="translate(340.935547 0)"/>
      <use xlink:href="#DejaVuSans-20" transform="translate(368.71875 0)"/>
      <use xlink:href="#DejaVuSans-48" transform="translate(400.505859 0)"/>
      <use xlink:href="#DejaVuSans-69" transform="translate(475.701172 0)"/>
      <use xlink:href="#DejaVuSans-6c" transform="translate(503.484375 0)"/>
      <use xlink:href="#DejaVuSans-6c" transform="translate(531.267578 0)"/>
     </g>
    </g>
    <g id="patch_18">
     <path d="M 565.015 168.776562 
L 585.015 168.776562 
L 585.015 161.776562 
L 565.015 161.776562 
z
" style="fill: #d3d3d3; stroke: #d3d3d3; stroke-linejoin: miter"/>
    </g>
    <g id="text_25">
     <!-- Fells Point -->
     <g transform="translate(593.015 168.776562) scale(0.1 -0.1)">
      <use xlink:href="#DejaVuSans-46"/>
      <use xlink:href="#DejaVuSans-65" transform="translate(52.019531 0)"/>
      <use xlink:href="#DejaVuSans-6c" transform="translate(113.542969 0)"/>
      <use xlink:href="#DejaVuSans-6c" transform="translate(141.326172 0)"/>
      <use xlink:href="#DejaVuSans-73" transform="translate(169.109375 0)"/>
      <use xlink:href="#DejaVuSans-20" transform="translate(221.208984 0)"/>
      <use xlink:href="#DejaVuSans-50" transform="translate(252.996094 0)"/>
      <use xlink:href="#DejaVuSans-6f" transform="translate(309.673828 0)"/>
      <use xlink:href="#DejaVuSans-69" transform="translate(370.855469 0)"/>
      <use xlink:href="#DejaVuSans-6e" transform="translate(398.638672 0)"/>
      <use xlink:href="#DejaVuSans-74" transform="translate(462.017578 0)"/>
     </g>
    </g>
    <g id="patch_19">
     <path d="M 565.015 183.454687 
L 585.015 183.454687 
L 585.015 176.454687 
L 565.015 176.454687 
z
" style="fill: #d3d3d3; stroke: #d3d3d3; stroke-linejoin: miter"/>
    </g>
    <g id="text_26">
     <!-- Kresson -->
     <g transform="translate(593.015 183.454687) scale(0.1 -0.1)">
      <defs>
       <path id="DejaVuSans-4b" d="M 628 4666 
L 1259 4666 
L 1259 2694 
L 3353 4666 
L 4166 4666 
L 1850 2491 
L 4331 0 
L 3500 0 
L 1259 2247 
L 1259 0 
L 628 0 
L 628 4666 
z
" transform="scale(0.015625)"/>
      </defs>
      <use xlink:href="#DejaVuSans-4b"/>
      <use xlink:href="#DejaVuSans-72" transform="translate(65.576172 0)"/>
      <use xlink:href="#DejaVuSans-65" transform="translate(104.439453 0)"/>
      <use xlink:href="#DejaVuSans-73" transform="translate(165.962891 0)"/>
      <use xlink:href="#DejaVuSans-73" transform="translate(218.0625 0)"/>
      <use xlink:href="#DejaVuSans-6f" transform="translate(270.162109 0)"/>
      <use xlink:href="#DejaVuSans-6e" transform="translate(331.34375 0)"/>
     </g>
    </g>
    <g id="patch_20">
     <path d="M 565.015 198.132812 
L 585.015 198.132812 
L 585.015 191.132812 
L 565.015 191.132812 
z
" style="fill: #d3d3d3; stroke: #d3d3d3; stroke-linejoin: miter"/>
    </g>
    <g id="text_27">
     <!-- Locust Point -->
     <g transform="translate(593.015 198.132812) scale(0.1 -0.1)">
      <defs>
       <path id="DejaVuSans-4c" d="M 628 4666 
L 1259 4666 
L 1259 531 
L 3531 531 
L 3531 0 
L 628 0 
L 628 4666 
z
" transform="scale(0.015625)"/>
       <path id="DejaVuSans-63" d="M 3122 3366 
L 3122 2828 
Q 2878 2963 2633 3030 
Q 2388 3097 2138 3097 
Q 1578 3097 1268 2742 
Q 959 2388 959 1747 
Q 959 1106 1268 751 
Q 1578 397 2138 397 
Q 2388 397 2633 464 
Q 2878 531 3122 666 
L 3122 134 
Q 2881 22 2623 -34 
Q 2366 -91 2075 -91 
Q 1284 -91 818 406 
Q 353 903 353 1747 
Q 353 2603 823 3093 
Q 1294 3584 2113 3584 
Q 2378 3584 2631 3529 
Q 2884 3475 3122 3366 
z
" transform="scale(0.015625)"/>
      </defs>
      <use xlink:href="#DejaVuSans-4c"/>
      <use xlink:href="#DejaVuSans-6f" transform="translate(53.962891 0)"/>
      <use xlink:href="#DejaVuSans-63" transform="translate(115.144531 0)"/>
      <use xlink:href="#DejaVuSans-75" transform="translate(170.125 0)"/>
      <use xlink:href="#DejaVuSans-73" transform="translate(233.503906 0)"/>
      <use xlink:href="#DejaVuSans-74" transform="translate(285.603516 0)"/>
      <use xlink:href="#DejaVuSans-20" transform="translate(324.8125 0)"/>
      <use xlink:href="#DejaVuSans-50" transform="translate(356.599609 0)"/>
      <use xlink:href="#DejaVuSans-6f" transform="translate(413.277344 0)"/>
      <use xlink:href="#DejaVuSans-69" transform="translate(474.458984 0)"/>
      <use xlink:href="#DejaVuSans-6e" transform="translate(502.242188 0)"/>
      <use xlink:href="#DejaVuSans-74" transform="translate(565.621094 0)"/>
     </g>
    </g>
    <g id="patch_21">
     <path d="M 565.015 212.810937 
L 585.015 212.810937 
L 585.015 205.810937 
L 565.015 205.810937 
z
" style="fill: #d3d3d3; stroke: #d3d3d3; stroke-linejoin: miter"/>
    </g>
    <g id="text_28">
     <!-- Madison-Eastend -->
     <g transform="translate(593.015 212.810937) scale(0.1 -0.1)">
      <defs>
       <path id="DejaVuSans-4d" d="M 628 4666 
L 1569 4666 
L 2759 1491 
L 3956 4666 
L 4897 4666 
L 4897 0 
L 4281 0 
L 4281 4097 
L 3078 897 
L 2444 897 
L 1241 4097 
L 1241 0 
L 628 0 
L 628 4666 
z
" transform="scale(0.015625)"/>
      </defs>
      <use xlink:href="#DejaVuSans-4d"/>
      <use xlink:href="#DejaVuSans-61" transform="translate(86.279297 0)"/>
      <use xlink:href="#DejaVuSans-64" transform="translate(147.558594 0)"/>
      <use xlink:href="#DejaVuSans-69" transform="translate(211.035156 0)"/>
      <use xlink:href="#DejaVuSans-73" transform="translate(238.818359 0)"/>
      <use xlink:href="#DejaVuSans-6f" transform="translate(290.917969 0)"/>
      <use xlink:href="#DejaVuSans-6e" transform="translate(352.099609 0)"/>
      <use xlink:href="#DejaVuSans-2d" transform="translate(415.478516 0)"/>
      <use xlink:href="#DejaVuSans-45" transform="translate(451.5625 0)"/>
      <use xlink:href="#DejaVuSans-61" transform="translate(514.746094 0)"/>
      <use xlink:href="#DejaVuSans-73" transform="translate(576.025391 0)"/>
      <use xlink:href="#DejaVuSans-74" transform="translate(628.125 0)"/>
      <use xlink:href="#DejaVuSans-65" transform="translate(667.333984 0)"/>
      <use xlink:href="#DejaVuSans-6e" transform="translate(728.857422 0)"/>
      <use xlink:href="#DejaVuSans-64" transform="translate(792.236328 0)"/>
     </g>
    </g>
    <g id="patch_22">
     <path d="M 565.015 227.489062 
L 585.015 227.489062 
L 585.015 220.489062 
L 565.015 220.489062 
z
" style="fill: #d3d3d3; stroke: #d3d3d3; stroke-linejoin: miter"/>
    </g>
    <g id="text_29">
     <!-- McElderry Park -->
     <g transform="translate(593.015 227.489062) scale(0.1 -0.1)">
      <use xlink:href="#DejaVuSans-4d"/>
      <use xlink:href="#DejaVuSans-63" transform="translate(86.279297 0)"/>
      <use xlink:href="#DejaVuSans-45" transform="translate(141.259766 0)"/>
      <use xlink:href="#DejaVuSans-6c" transform="translate(204.443359 0)"/>
      <use xlink:href="#DejaVuSans-64" transform="translate(232.226562 0)"/>
      <use xlink:href="#DejaVuSans-65" transform="translate(295.703125 0)"/>
      <use xlink:href="#DejaVuSans-72" transform="translate(357.226562 0)"/>
      <use xlink:href="#DejaVuSans-72" transform="translate(396.589844 0)"/>
      <use xlink:href="#DejaVuSans-79" transform="translate(437.703125 0)"/>
      <use xlink:href="#DejaVuSans-20" transform="translate(496.882812 0)"/>
      <use xlink:href="#DejaVuSans-50" transform="translate(528.669922 0)"/>
      <use xlink:href="#DejaVuSans-61" transform="translate(584.472656 0)"/>
      <use xlink:href="#DejaVuSans-72" transform="translate(645.751953 0)"/>
      <use xlink:href="#DejaVuSans-6b" transform="translate(686.865234 0)"/>
     </g>
    </g>
    <g id="patch_23">
     <path d="M 565.015 242.167187 
L 585.015 242.167187 
L 585.015 235.167187 
L 565.015 235.167187 
z
" style="fill: #d3d3d3; stroke: #d3d3d3; stroke-linejoin: miter"/>
    </g>
    <g id="text_30">
     <!-- Orangeville -->
     <g transform="translate(593.015 242.167187) scale(0.1 -0.1)">
      <defs>
       <path id="DejaVuSans-4f" d="M 2522 4238 
Q 1834 4238 1429 3725 
Q 1025 3213 1025 2328 
Q 1025 1447 1429 934 
Q 1834 422 2522 422 
Q 3209 422 3611 934 
Q 4013 1447 4013 2328 
Q 4013 3213 3611 3725 
Q 3209 4238 2522 4238 
z
M 2522 4750 
Q 3503 4750 4090 4092 
Q 4678 3434 4678 2328 
Q 4678 1225 4090 567 
Q 3503 -91 2522 -91 
Q 1538 -91 948 565 
Q 359 1222 359 2328 
Q 359 3434 948 4092 
Q 1538 4750 2522 4750 
z
" transform="scale(0.015625)"/>
      </defs>
      <use xlink:href="#DejaVuSans-4f"/>
      <use xlink:href="#DejaVuSans-72" transform="translate(78.710938 0)"/>
      <use xlink:href="#DejaVuSans-61" transform="translate(119.824219 0)"/>
      <use xlink:href="#DejaVuSans-6e" transform="translate(181.103516 0)"/>
      <use xlink:href="#DejaVuSans-67" transform="translate(244.482422 0)"/>
      <use xlink:href="#DejaVuSans-65" transform="translate(307.958984 0)"/>
      <use xlink:href="#DejaVuSans-76" transform="translate(369.482422 0)"/>
      <use xlink:href="#DejaVuSans-69" transform="translate(428.662109 0)"/>
      <use xlink:href="#DejaVuSans-6c" transform="translate(456.445312 0)"/>
      <use xlink:href="#DejaVuSans-6c" transform="translate(484.228516 0)"/>
      <use xlink:href="#DejaVuSans-65" transform="translate(512.011719 0)"/>
     </g>
    </g>
    <g id="patch_24">
     <path d="M 565.015 256.845312 
L 585.015 256.845312 
L 585.015 249.845312 
L 565.015 249.845312 
z
" style="fill: #d3d3d3; stroke: #d3d3d3; stroke-linejoin: miter"/>
    </g>
    <g id="text_31">
     <!-- Patterson Park -->
     <g transform="translate(593.015 256.845312) scale(0.1 -0.1)">
      <use xlink:href="#DejaVuSans-50"/>
      <use xlink:href="#DejaVuSans-61" transform="translate(55.802734 0)"/>
      <use xlink:href="#DejaVuSans-74" transform="translate(117.082031 0)"/>
      <use xlink:href="#DejaVuSans-74" transform="translate(156.291016 0)"/>
      <use xlink:href="#DejaVuSans-65" transform="translate(195.5 0)"/>
      <use xlink:href="#DejaVuSans-72" transform="translate(257.023438 0)"/>
      <use xlink:href="#DejaVuSans-73" transform="translate(298.136719 0)"/>
      <use xlink:href="#DejaVuSans-6f" transform="translate(350.236328 0)"/>
      <use xlink:href="#DejaVuSans-6e" transform="translate(411.417969 0)"/>
      <use xlink:href="#DejaVuSans-20" transform="translate(474.796875 0)"/>
      <use xlink:href="#DejaVuSans-50" transform="translate(506.583984 0)"/>
      <use xlink:href="#DejaVuSans-61" transform="translate(562.386719 0)"/>
      <use xlink:href="#DejaVuSans-72" transform="translate(623.666016 0)"/>
      <use xlink:href="#DejaVuSans-6b" transform="translate(664.779297 0)"/>
     </g>
    </g>
    <g id="patch_25">
     <path d="M 565.015 271.523437 
L 585.015 271.523437 
L 585.015 264.523437 
L 565.015 264.523437 
z
" style="fill: #d3d3d3; stroke: #d3d3d3; stroke-linejoin: miter"/>
    </g>
    <g id="text_32">
     <!-- Upper Fells Point -->
     <g transform="translate(593.015 271.523437) scale(0.1 -0.1)">
      <defs>
       <path id="DejaVuSans-55" d="M 556 4666 
L 1191 4666 
L 1191 1831 
Q 1191 1081 1462 751 
Q 1734 422 2344 422 
Q 2950 422 3222 751 
Q 3494 1081 3494 1831 
L 3494 4666 
L 4128 4666 
L 4128 1753 
Q 4128 841 3676 375 
Q 3225 -91 2344 -91 
Q 1459 -91 1007 375 
Q 556 841 556 1753 
L 556 4666 
z
" transform="scale(0.015625)"/>
      </defs>
      <use xlink:href="#DejaVuSans-55"/>
      <use xlink:href="#DejaVuSans-70" transform="translate(73.193359 0)"/>
      <use xlink:href="#DejaVuSans-70" transform="translate(136.669922 0)"/>
      <use xlink:href="#DejaVuSans-65" transform="translate(200.146484 0)"/>
      <use xlink:href="#DejaVuSans-72" transform="translate(261.669922 0)"/>
      <use xlink:href="#DejaVuSans-20" transform="translate(302.783203 0)"/>
      <use xlink:href="#DejaVuSans-46" transform="translate(334.570312 0)"/>
      <use xlink:href="#DejaVuSans-65" transform="translate(386.589844 0)"/>
      <use xlink:href="#DejaVuSans-6c" transform="translate(448.113281 0)"/>
      <use xlink:href="#DejaVuSans-6c" transform="translate(475.896484 0)"/>
      <use xlink:href="#DejaVuSans-73" transform="translate(503.679688 0)"/>
      <use xlink:href="#DejaVuSans-20" transform="translate(555.779297 0)"/>
      <use xlink:href="#DejaVuSans-50" transform="translate(587.566406 0)"/>
      <use xlink:href="#DejaVuSans-6f" transform="translate(644.244141 0)"/>
      <use xlink:href="#DejaVuSans-69" transform="translate(705.425781 0)"/>
      <use xlink:href="#DejaVuSans-6e" transform="translate(733.208984 0)"/>
      <use xlink:href="#DejaVuSans-74" transform="translate(796.587891 0)"/>
     </g>
    </g>
    <g id="patch_26">
     <path d="M 565.015 286.201562 
L 585.015 286.201562 
L 585.015 279.201562 
L 565.015 279.201562 
z
" style="fill: #d3d3d3; stroke: #d3d3d3; stroke-linejoin: miter"/>
    </g>
    <g id="text_33">
     <!-- Washington Hill -->
     <g transform="translate(593.015 286.201562) scale(0.1 -0.1)">
      <defs>
       <path id="DejaVuSans-57" d="M 213 4666 
L 850 4666 
L 1831 722 
L 2809 4666 
L 3519 4666 
L 4500 722 
L 5478 4666 
L 6119 4666 
L 4947 0 
L 4153 0 
L 3169 4050 
L 2175 0 
L 1381 0 
L 213 4666 
z
" transform="scale(0.015625)"/>
      </defs>
      <use xlink:href="#DejaVuSans-57"/>
      <use xlink:href="#DejaVuSans-61" transform="translate(92.501953 0)"/>
      <use xlink:href="#DejaVuSans-73" transform="translate(153.78125 0)"/>
      <use xlink:href="#DejaVuSans-68" transform="translate(205.880859 0)"/>
      <use xlink:href="#DejaVuSans-69" transform="translate(269.259766 0)"/>
      <use xlink:href="#DejaVuSans-6e" transform="translate(297.042969 0)"/>
      <use xlink:href="#DejaVuSans-67" transform="translate(360.421875 0)"/>
      <use xlink:href="#DejaVuSans-74" transform="translate(423.898438 0)"/>
      <use xlink:href="#DejaVuSans-6f" transform="translate(463.107422 0)"/>
      <use xlink:href="#DejaVuSans-6e" transform="translate(524.289062 0)"/>
      <use xlink:href="#DejaVuSans-20" transform="translate(587.667969 0)"/>
      <use xlink:href="#DejaVuSans-48" transform="translate(619.455078 0)"/>
      <use xlink:href="#DejaVuSans-69" transform="translate(694.650391 0)"/>
      <use xlink:href="#DejaVuSans-6c" transform="translate(722.433594 0)"/>
      <use xlink:href="#DejaVuSans-6c" transform="translate(750.216797 0)"/>
     </g>
    </g>
   </g>
  </g>
 </g>
 <defs>
  <clipPath id="pcd4f53ce58">
   <rect x="62.48" y="52.22" width="493.535" height="183.56"/>
  </clipPath>
 </defs>
</svg>
