<?xml version="1.0" encoding="utf-8" standalone="no"?>
<!DOCTYPE svg PUBLIC "-//W3C//DTD SVG 1.1//EN"
  "http://www.w3.org/Graphics/SVG/1.1/DTD/svg11.dtd">
<svg xmlns:xlink="http://www.w3.org/1999/xlink" width="720pt" height="360pt" viewBox="0 0 720 360" xmlns="http://www.w3.org/2000/svg" version="1.1">
 <metadata>
  <rdf:RDF xmlns:dc="http://purl.org/dc/elements/1.1/" xmlns:cc="http://creativecommons.org/ns#" xmlns:rdf="http://www.w3.org/1999/02/22-rdf-syntax-ns#">
   <cc:Work>
    <dc:type rdf:resource="http://purl.org/dc/dcmitype/StillImage"/>
    <dc:date>2025-09-29T20:40:49.970260</dc:date>
    <dc:format>image/svg+xml</dc:format>
    <dc:creator>
     <cc:Agent>
      <dc:title>Matplotlib v3.10.0, https://matplotlib.org/</dc:title>
     </cc:Agent>
    </dc:creator>
   </cc:Work>
  </rdf:RDF>
 </metadata>
 <defs>
  <style type="text/css">*{stroke-linejoin: round; stroke-linecap: butt}</style>
 </defs>
 <g id="figure_1">
  <g id="patch_1">
   <path d="M 0 360 
L 720 360 
L 720 0 
L 0 0 
z
" style="fill: #ffffff"/>
  </g>
  <g id="axes_1">
   <g id="patch_2">
    <path d="M 62.48 332.12 
L 556.015 332.12 
L 556.015 26.16 
L 62.48 26.16 
z
" style="fill: #ffffff"/>
   </g>
   <g id="matplotlib.axis_1">
    <g id="xtick_1">
     <g id="line2d_1">
      <path d="M 62.48 332.12 
L 62.48 26.16 
" clip-path="url(#p581f38a6e5)" style="fill: none; stroke: #b0b0b0; stroke-width: 0.8; stroke-linecap: square"/>
     </g>
     <g id="line2d_2">
      <defs>
       <path id="md5a85739cf" d="M 0 0 
L 0 3.5 
" style="stroke: #000000; stroke-width: 0.8"/>
      </defs>
      <g>
       <use xlink:href="#md5a85739cf" x="62.48" y="332.12" style="stroke: #000000; stroke-width: 0.8"/>
      </g>
     </g>
     <g id="text_1">
      <!-- Base -->
      <g transform="translate(50.304219 346.718437) scale(0.1 -0.1)">
       <defs>
        <path id="DejaVuSans-42" d="M 1259 2228 
L 1259 519 
L 2272 519 
Q 2781 519 3026 730 
Q 3272 941 3272 1375 
Q 3272 1813 3026 2020 
Q 2781 2228 2272 2228 
L 1259 2228 
z
M 1259 4147 
L 1259 2741 
L 2194 2741 
Q 2656 2741 2882 2914 
Q 3109 3088 3109 3444 
Q 3109 3797 2882 3972 
Q 2656 4147 2194 4147 
L 1259 4147 
z
M 628 4666 
L 2241 4666 
Q 2963 4666 3353 4366 
Q 3744 4066 3744 3513 
Q 3744 3084 3544 2831 
Q 3344 2578 2956 2516 
Q 3422 2416 3680 2098 
Q 3938 1781 3938 1306 
Q 3938 681 3513 340 
Q 3088 0 2303 0 
L 628 0 
L 628 4666 
z
" transform="scale(0.015625)"/>
        <path id="DejaVuSans-61" d="M 2194 1759 
Q 1497 1759 1228 1600 
Q 959 1441 959 1056 
Q 959 750 1161 570 
Q 1363 391 1709 391 
Q 2188 391 2477 730 
Q 2766 1069 2766 1631 
L 2766 1759 
L 2194 1759 
z
M 3341 1997 
L 3341 0 
L 2766 0 
L 2766 531 
Q 2569 213 2275 61 
Q 1981 -91 1556 -91 
Q 1019 -91 701 211 
Q 384 513 384 1019 
Q 384 1609 779 1909 
Q 1175 2209 1959 2209 
L 2766 2209 
L 2766 2266 
Q 2766 2663 2505 2880 
Q 2244 3097 1772 3097 
Q 1472 3097 1187 3025 
Q 903 2953 641 2809 
L 641 3341 
Q 956 3463 1253 3523 
Q 1550 3584 1831 3584 
Q 2591 3584 2966 3190 
Q 3341 2797 3341 1997 
z
" transform="scale(0.015625)"/>
        <path id="DejaVuSans-73" d="M 2834 3397 
L 2834 2853 
Q 2591 2978 2328 3040 
Q 2066 3103 1784 3103 
Q 1356 3103 1142 2972 
Q 928 2841 928 2578 
Q 928 2378 1081 2264 
Q 1234 2150 1697 2047 
L 1894 2003 
Q 2506 1872 2764 1633 
Q 3022 1394 3022 966 
Q 3022 478 2636 193 
Q 2250 -91 1575 -91 
Q 1294 -91 989 -36 
Q 684 19 347 128 
L 347 722 
Q 666 556 975 473 
Q 1284 391 1588 391 
Q 1994 391 2212 530 
Q 2431 669 2431 922 
Q 2431 1156 2273 1281 
Q 2116 1406 1581 1522 
L 1381 1569 
Q 847 1681 609 1914 
Q 372 2147 372 2553 
Q 372 3047 722 3315 
Q 1072 3584 1716 3584 
Q 2034 3584 2315 3537 
Q 2597 3491 2834 3397 
z
" transform="scale(0.015625)"/>
        <path id="DejaVuSans-65" d="M 3597 1894 
L 3597 1613 
L 953 1613 
Q 991 1019 1311 708 
Q 1631 397 2203 397 
Q 2534 397 2845 478 
Q 3156 559 3463 722 
L 3463 178 
Q 3153 47 2828 -22 
Q 2503 -91 2169 -91 
Q 1331 -91 842 396 
Q 353 884 353 1716 
Q 353 2575 817 3079 
Q 1281 3584 2069 3584 
Q 2775 3584 3186 3129 
Q 3597 2675 3597 1894 
z
M 3022 2063 
Q 3016 2534 2758 2815 
Q 2500 3097 2075 3097 
Q 1594 3097 1305 2825 
Q 1016 2553 972 2059 
L 3022 2063 
z
" transform="scale(0.015625)"/>
       </defs>
       <use xlink:href="#DejaVuSans-42"/>
       <use xlink:href="#DejaVuSans-61" transform="translate(68.603516 0)"/>
       <use xlink:href="#DejaVuSans-73" transform="translate(129.882812 0)"/>
       <use xlink:href="#DejaVuSans-65" transform="translate(181.982422 0)"/>
      </g>
     </g>
    </g>
    <g id="xtick_2">
     <g id="line2d_3">
      <path d="M 226.991667 332.12 
L 226.991667 26.16 
" clip-path="url(#p581f38a6e5)" style="fill: none; stroke: #b0b0b0; stroke-width: 0.8; stroke-linecap: square"/>
     </g>
     <g id="line2d_4">
      <g>
       <use xlink:href="#md5a85739cf" x="226.991667" y="332.12" style="stroke: #000000; stroke-width: 0.8"/>
      </g>
     </g>
     <g id="text_2">
      <!-- V -->
      <g transform="translate(223.571354 346.718437) scale(0.1 -0.1)">
       <defs>
        <path id="DejaVuSans-56" d="M 1831 0 
L 50 4666 
L 709 4666 
L 2188 738 
L 3669 4666 
L 4325 4666 
L 2547 0 
L 1831 0 
z
" transform="scale(0.015625)"/>
       </defs>
       <use xlink:href="#DejaVuSans-56"/>
      </g>
     </g>
    </g>
    <g id="xtick_3">
     <g id="line2d_5">
      <path d="M 391.503333 332.12 
L 391.503333 26.16 
" clip-path="url(#p581f38a6e5)" style="fill: none; stroke: #b0b0b0; stroke-width: 0.8; stroke-linecap: square"/>
     </g>
     <g id="line2d_6">
      <g>
       <use xlink:href="#md5a85739cf" x="391.503333" y="332.12" style="stroke: #000000; stroke-width: 0.8"/>
      </g>
     </g>
     <g id="text_3">
      <!-- I -->
      <g transform="translate(390.028333 346.718437) scale(0.1 -0.1)">
       <defs>
        <path id="DejaVuSans-49" d="M 628 4666 
L 1259 4666 
L 1259 0 
L 628 0 
L 628 4666 
z
" transform="scale(0.015625)"/>
       </defs>
       <use xlink:href="#DejaVuSans-49"/>
      </g>
     </g>
    </g>
    <g id="xtick_4">
     <g id="line2d_7">
      <path d="M 556.015 332.12 
L 556.015 26.16 
" clip-path="url(#p581f38a6e5)" style="fill: none; stroke: #b0b0b0; stroke-width: 0.8; stroke-linecap: square"/>
     </g>
     <g id="line2d_8">
      <g>
       <use xlink:href="#md5a85739cf" x="556.015" y="332.12" style="stroke: #000000; stroke-width: 0.8"/>
      </g>
     </g>
     <g id="text_4">
      <!-- V&amp;I -->
      <g transform="translate(547.220469 346.718437) scale(0.1 -0.1)">
       <defs>
        <path id="DejaVuSans-26" d="M 1556 2509 
Q 1272 2256 1139 2004 
Q 1006 1753 1006 1478 
Q 1006 1022 1337 719 
Q 1669 416 2169 416 
Q 2466 416 2725 514 
Q 2984 613 3213 813 
L 1556 2509 
z
M 1997 2859 
L 3584 1234 
Q 3769 1513 3872 1830 
Q 3975 2147 3994 2503 
L 4575 2503 
Q 4538 2091 4375 1687 
Q 4213 1284 3922 891 
L 4794 0 
L 4006 0 
L 3559 459 
Q 3234 181 2878 45 
Q 2522 -91 2113 -91 
Q 1359 -91 881 339 
Q 403 769 403 1441 
Q 403 1841 612 2192 
Q 822 2544 1241 2853 
Q 1091 3050 1012 3245 
Q 934 3441 934 3628 
Q 934 4134 1281 4442 
Q 1628 4750 2203 4750 
Q 2463 4750 2720 4694 
Q 2978 4638 3244 4525 
L 3244 3956 
Q 2972 4103 2725 4179 
Q 2478 4256 2266 4256 
Q 1938 4256 1733 4082 
Q 1528 3909 1528 3634 
Q 1528 3475 1620 3314 
Q 1713 3153 1997 2859 
z
" transform="scale(0.015625)"/>
       </defs>
       <use xlink:href="#DejaVuSans-56"/>
       <use xlink:href="#DejaVuSans-26" transform="translate(68.408203 0)"/>
       <use xlink:href="#DejaVuSans-49" transform="translate(146.386719 0)"/>
      </g>
     </g>
    </g>
   </g>
   <g id="matplotlib.axis_2">
    <g id="ytick_1">
     <g id="line2d_9">
      <defs>
       <path id="m653ac4be51" d="M 0 0 
L -3.5 0 
" style="stroke: #000000; stroke-width: 0.8"/>
      </defs>
      <g>
       <use xlink:href="#m653ac4be51" x="62.48" y="320.412817" style="stroke: #000000; stroke-width: 0.8"/>
      </g>
     </g>
     <g id="text_5">
      <!-- −0.15 -->
      <g transform="translate(24.834688 324.212035) scale(0.1 -0.1)">
       <defs>
        <path id="DejaVuSans-2212" d="M 678 2272 
L 4684 2272 
L 4684 1741 
L 678 1741 
L 678 2272 
z
" transform="scale(0.015625)"/>
        <path id="DejaVuSans-30" d="M 2034 4250 
Q 1547 4250 1301 3770 
Q 1056 3291 1056 2328 
Q 1056 1369 1301 889 
Q 1547 409 2034 409 
Q 2525 409 2770 889 
Q 3016 1369 3016 2328 
Q 3016 3291 2770 3770 
Q 2525 4250 2034 4250 
z
M 2034 4750 
Q 2819 4750 3233 4129 
Q 3647 3509 3647 2328 
Q 3647 1150 3233 529 
Q 2819 -91 2034 -91 
Q 1250 -91 836 529 
Q 422 1150 422 2328 
Q 422 3509 836 4129 
Q 1250 4750 2034 4750 
z
" transform="scale(0.015625)"/>
        <path id="DejaVuSans-2e" d="M 684 794 
L 1344 794 
L 1344 0 
L 684 0 
L 684 794 
z
" transform="scale(0.015625)"/>
        <path id="DejaVuSans-31" d="M 794 531 
L 1825 531 
L 1825 4091 
L 703 3866 
L 703 4441 
L 1819 4666 
L 2450 4666 
L 2450 531 
L 3481 531 
L 3481 0 
L 794 0 
L 794 531 
z
" transform="scale(0.015625)"/>
        <path id="DejaVuSans-35" d="M 691 4666 
L 3169 4666 
L 3169 4134 
L 1269 4134 
L 1269 2991 
Q 1406 3038 1543 3061 
Q 1681 3084 1819 3084 
Q 2600 3084 3056 2656 
Q 3513 2228 3513 1497 
Q 3513 744 3044 326 
Q 2575 -91 1722 -91 
Q 1428 -91 1123 -41 
Q 819 9 494 109 
L 494 744 
Q 775 591 1075 516 
Q 1375 441 1709 441 
Q 2250 441 2565 725 
Q 2881 1009 2881 1497 
Q 2881 1984 2565 2268 
Q 2250 2553 1709 2553 
Q 1456 2553 1204 2497 
Q 953 2441 691 2322 
L 691 4666 
z
" transform="scale(0.015625)"/>
       </defs>
       <use xlink:href="#DejaVuSans-2212"/>
       <use xlink:href="#DejaVuSans-30" transform="translate(83.789062 0)"/>
       <use xlink:href="#DejaVuSans-2e" transform="translate(147.412109 0)"/>
       <use xlink:href="#DejaVuSans-31" transform="translate(179.199219 0)"/>
       <use xlink:href="#DejaVuSans-35" transform="translate(242.822266 0)"/>
      </g>
     </g>
    </g>
    <g id="ytick_2">
     <g id="line2d_10">
      <g>
       <use xlink:href="#m653ac4be51" x="62.48" y="273.249881" style="stroke: #000000; stroke-width: 0.8"/>
      </g>
     </g>
     <g id="text_6">
      <!-- −0.10 -->
      <g transform="translate(24.834688 277.049099) scale(0.1 -0.1)">
       <use xlink:href="#DejaVuSans-2212"/>
       <use xlink:href="#DejaVuSans-30" transform="translate(83.789062 0)"/>
       <use xlink:href="#DejaVuSans-2e" transform="translate(147.412109 0)"/>
       <use xlink:href="#DejaVuSans-31" transform="translate(179.199219 0)"/>
       <use xlink:href="#DejaVuSans-30" transform="translate(242.822266 0)"/>
      </g>
     </g>
    </g>
    <g id="ytick_3">
     <g id="line2d_11">
      <g>
       <use xlink:href="#m653ac4be51" x="62.48" y="226.086945" style="stroke: #000000; stroke-width: 0.8"/>
      </g>
     </g>
     <g id="text_7">
      <!-- −0.05 -->
      <g transform="translate(24.834688 229.886163) scale(0.1 -0.1)">
       <use xlink:href="#DejaVuSans-2212"/>
       <use xlink:href="#DejaVuSans-30" transform="translate(83.789062 0)"/>
       <use xlink:href="#DejaVuSans-2e" transform="translate(147.412109 0)"/>
       <use xlink:href="#DejaVuSans-30" transform="translate(179.199219 0)"/>
       <use xlink:href="#DejaVuSans-35" transform="translate(242.822266 0)"/>
      </g>
     </g>
    </g>
    <g id="ytick_4">
     <g id="line2d_12">
      <g>
       <use xlink:href="#m653ac4be51" x="62.48" y="178.924009" style="stroke: #000000; stroke-width: 0.8"/>
      </g>
     </g>
     <g id="text_8">
      <!-- 0.00 -->
      <g transform="translate(33.214375 182.723227) scale(0.1 -0.1)">
       <use xlink:href="#DejaVuSans-30"/>
       <use xlink:href="#DejaVuSans-2e" transform="translate(63.623047 0)"/>
       <use xlink:href="#DejaVuSans-30" transform="translate(95.410156 0)"/>
       <use xlink:href="#DejaVuSans-30" transform="translate(159.033203 0)"/>
      </g>
     </g>
    </g>
    <g id="ytick_5">
     <g id="line2d_13">
      <g>
       <use xlink:href="#m653ac4be51" x="62.48" y="131.761073" style="stroke: #000000; stroke-width: 0.8"/>
      </g>
     </g>
     <g id="text_9">
      <!-- 0.05 -->
      <g transform="translate(33.214375 135.560291) scale(0.1 -0.1)">
       <use xlink:href="#DejaVuSans-30"/>
       <use xlink:href="#DejaVuSans-2e" transform="translate(63.623047 0)"/>
       <use xlink:href="#DejaVuSans-30" transform="translate(95.410156 0)"/>
       <use xlink:href="#DejaVuSans-35" transform="translate(159.033203 0)"/>
      </g>
     </g>
    </g>
    <g id="ytick_6">
     <g id="line2d_14">
      <g>
       <use xlink:href="#m653ac4be51" x="62.48" y="84.598137" style="stroke: #000000; stroke-width: 0.8"/>
      </g>
     </g>
     <g id="text_10">
      <!-- 0.10 -->
      <g transform="translate(33.214375 88.397355) scale(0.1 -0.1)">
       <use xlink:href="#DejaVuSans-30"/>
       <use xlink:href="#DejaVuSans-2e" transform="translate(63.623047 0)"/>
       <use xlink:href="#DejaVuSans-31" transform="translate(95.410156 0)"/>
       <use xlink:href="#DejaVuSans-30" transform="translate(159.033203 0)"/>
      </g>
     </g>
    </g>
    <g id="ytick_7">
     <g id="line2d_15">
      <g>
       <use xlink:href="#m653ac4be51" x="62.48" y="37.435201" style="stroke: #000000; stroke-width: 0.8"/>
      </g>
     </g>
     <g id="text_11">
      <!-- 0.15 -->
      <g transform="translate(33.214375 41.234419) scale(0.1 -0.1)">
       <use xlink:href="#DejaVuSans-30"/>
       <use xlink:href="#DejaVuSans-2e" transform="translate(63.623047 0)"/>
       <use xlink:href="#DejaVuSans-31" transform="translate(95.410156 0)"/>
       <use xlink:href="#DejaVuSans-35" transform="translate(159.033203 0)"/>
      </g>
     </g>
    </g>
    <g id="text_12">
     <!-- Depth (m) -->
     <g transform="translate(18.755 204.730625) rotate(-90) scale(0.1 -0.1)">
      <defs>
       <path id="DejaVuSans-44" d="M 1259 4147 
L 1259 519 
L 2022 519 
Q 2988 519 3436 956 
Q 3884 1394 3884 2338 
Q 3884 3275 3436 3711 
Q 2988 4147 2022 4147 
L 1259 4147 
z
M 628 4666 
L 1925 4666 
Q 3281 4666 3915 4102 
Q 4550 3538 4550 2338 
Q 4550 1131 3912 565 
Q 3275 0 1925 0 
L 628 0 
L 628 4666 
z
" transform="scale(0.015625)"/>
       <path id="DejaVuSans-70" d="M 1159 525 
L 1159 -1331 
L 581 -1331 
L 581 3500 
L 1159 3500 
L 1159 2969 
Q 1341 3281 1617 3432 
Q 1894 3584 2278 3584 
Q 2916 3584 3314 3078 
Q 3713 2572 3713 1747 
Q 3713 922 3314 415 
Q 2916 -91 2278 -91 
Q 1894 -91 1617 61 
Q 1341 213 1159 525 
z
M 3116 1747 
Q 3116 2381 2855 2742 
Q 2594 3103 2138 3103 
Q 1681 3103 1420 2742 
Q 1159 2381 1159 1747 
Q 1159 1113 1420 752 
Q 1681 391 2138 391 
Q 2594 391 2855 752 
Q 3116 1113 3116 1747 
z
" transform="scale(0.015625)"/>
       <path id="DejaVuSans-74" d="M 1172 4494 
L 1172 3500 
L 2356 3500 
L 2356 3053 
L 1172 3053 
L 1172 1153 
Q 1172 725 1289 603 
Q 1406 481 1766 481 
L 2356 481 
L 2356 0 
L 1766 0 
Q 1100 0 847 248 
Q 594 497 594 1153 
L 594 3053 
L 172 3053 
L 172 3500 
L 594 3500 
L 594 4494 
L 1172 4494 
z
" transform="scale(0.015625)"/>
       <path id="DejaVuSans-68" d="M 3513 2113 
L 3513 0 
L 2938 0 
L 2938 2094 
Q 2938 2591 2744 2837 
Q 2550 3084 2163 3084 
Q 1697 3084 1428 2787 
Q 1159 2491 1159 1978 
L 1159 0 
L 581 0 
L 581 4863 
L 1159 4863 
L 1159 2956 
Q 1366 3272 1645 3428 
Q 1925 3584 2291 3584 
Q 2894 3584 3203 3211 
Q 3513 2838 3513 2113 
z
" transform="scale(0.015625)"/>
       <path id="DejaVuSans-20" transform="scale(0.015625)"/>
       <path id="DejaVuSans-28" d="M 1984 4856 
Q 1566 4138 1362 3434 
Q 1159 2731 1159 2009 
Q 1159 1288 1364 580 
Q 1569 -128 1984 -844 
L 1484 -844 
Q 1016 -109 783 600 
Q 550 1309 550 2009 
Q 550 2706 781 3412 
Q 1013 4119 1484 4856 
L 1984 4856 
z
" transform="scale(0.015625)"/>
       <path id="DejaVuSans-6d" d="M 3328 2828 
Q 3544 3216 3844 3400 
Q 4144 3584 4550 3584 
Q 5097 3584 5394 3201 
Q 5691 2819 5691 2113 
L 5691 0 
L 5113 0 
L 5113 2094 
Q 5113 2597 4934 2840 
Q 4756 3084 4391 3084 
Q 3944 3084 3684 2787 
Q 3425 2491 3425 1978 
L 3425 0 
L 2847 0 
L 2847 2094 
Q 2847 2600 2669 2842 
Q 2491 3084 2119 3084 
Q 1678 3084 1418 2786 
Q 1159 2488 1159 1978 
L 1159 0 
L 581 0 
L 581 3500 
L 1159 3500 
L 1159 2956 
Q 1356 3278 1631 3431 
Q 1906 3584 2284 3584 
Q 2666 3584 2933 3390 
Q 3200 3197 3328 2828 
z
" transform="scale(0.015625)"/>
       <path id="DejaVuSans-29" d="M 513 4856 
L 1013 4856 
Q 1481 4119 1714 3412 
Q 1947 2706 1947 2009 
Q 1947 1309 1714 600 
Q 1481 -109 1013 -844 
L 513 -844 
Q 928 -128 1133 580 
Q 1338 1288 1338 2009 
Q 1338 2731 1133 3434 
Q 928 4138 513 4856 
z
" transform="scale(0.015625)"/>
      </defs>
      <use xlink:href="#DejaVuSans-44"/>
      <use xlink:href="#DejaVuSans-65" transform="translate(77.001953 0)"/>
      <use xlink:href="#DejaVuSans-70" transform="translate(138.525391 0)"/>
      <use xlink:href="#DejaVuSans-74" transform="translate(202.001953 0)"/>
      <use xlink:href="#DejaVuSans-68" transform="translate(241.210938 0)"/>
      <use xlink:href="#DejaVuSans-20" transform="translate(304.589844 0)"/>
      <use xlink:href="#DejaVuSans-28" transform="translate(336.376953 0)"/>
      <use xlink:href="#DejaVuSans-6d" transform="translate(375.390625 0)"/>
      <use xlink:href="#DejaVuSans-29" transform="translate(472.802734 0)"/>
     </g>
    </g>
   </g>
   <g id="line2d_16">
    <path d="M 62.48 178.924009 
L 226.991667 178.921609 
L 391.503333 178.745779 
L 556.015 178.731829 
" clip-path="url(#p581f38a6e5)" style="fill: none; stroke: #d3d3d3; stroke-width: 1.5; stroke-linecap: square"/>
   </g>
   <g id="line2d_17">
    <path d="M 62.48 178.924009 
L 226.991667 257.691035 
L 391.503333 251.069155 
L 556.015 272.198966 
" clip-path="url(#p581f38a6e5)" style="fill: none; stroke: #d3d3d3; stroke-width: 1.5; stroke-linecap: square"/>
   </g>
   <g id="line2d_18">
    <path d="M 62.48 178.924009 
L 226.991667 186.832714 
L 391.503333 175.748935 
L 556.015 183.470996 
" clip-path="url(#p581f38a6e5)" style="fill: none; stroke: #d3d3d3; stroke-width: 1.5; stroke-linecap: square"/>
   </g>
   <g id="line2d_19">
    <path d="M 62.48 178.924009 
L 226.991667 182.397525 
L 391.503333 191.170193 
L 556.015 194.502797 
" clip-path="url(#p581f38a6e5)" style="fill: none; stroke: #d3d3d3; stroke-width: 1.5; stroke-linecap: square"/>
   </g>
   <g id="line2d_20">
    <path d="M 62.48 178.924009 
L 226.991667 179.318714 
L 391.503333 273.322304 
L 556.015 273.716669 
" clip-path="url(#p581f38a6e5)" style="fill: none; stroke: #d3d3d3; stroke-width: 1.5; stroke-linecap: square"/>
   </g>
   <g id="line2d_21">
    <path d="M 62.48 178.924009 
L 226.991667 185.40349 
L 391.503333 232.223682 
L 556.015 238.195758 
" clip-path="url(#p581f38a6e5)" style="fill: none; stroke: #d3d3d3; stroke-width: 1.5; stroke-linecap: square"/>
   </g>
   <g id="line2d_22">
    <path d="M 62.48 178.924009 
L 226.991667 181.834875 
L 391.503333 201.308877 
L 556.015 204.059335 
" clip-path="url(#p581f38a6e5)" style="fill: none; stroke: #d3d3d3; stroke-width: 1.5; stroke-linecap: square"/>
   </g>
   <g id="line2d_23">
    <path d="M 62.48 178.924009 
L 226.991667 180.588561 
L 391.503333 182.002144 
L 556.015 183.703954 
" clip-path="url(#p581f38a6e5)" style="fill: none; stroke: #d3d3d3; stroke-width: 1.5; stroke-linecap: square"/>
   </g>
   <g id="line2d_24">
    <path d="M 62.48 178.924009 
L 226.991667 178.234734 
L 391.503333 168.889997 
L 556.015 168.43198 
" clip-path="url(#p581f38a6e5)" style="fill: none; stroke: #d3d3d3; stroke-width: 1.5; stroke-linecap: square"/>
   </g>
   <g id="line2d_25">
    <path d="M 62.48 178.924009 
L 226.991667 179.436946 
L 391.503333 178.778565 
L 556.015 179.290623 
" clip-path="url(#p581f38a6e5)" style="fill: none; stroke: #d3d3d3; stroke-width: 1.5; stroke-linecap: square"/>
   </g>
   <g id="line2d_26">
    <path d="M 62.48 178.924009 
L 226.991667 182.607008 
L 391.503333 217.517117 
L 556.015 220.807231 
" clip-path="url(#p581f38a6e5)" style="fill: none; stroke: #d3d3d3; stroke-width: 1.5; stroke-linecap: square"/>
   </g>
   <g id="line2d_27">
    <path d="M 62.48 178.924009 
L 226.991667 180.942987 
L 391.503333 178.930608 
L 556.015 180.950966 
" clip-path="url(#p581f38a6e5)" style="fill: none; stroke: #d3d3d3; stroke-width: 1.5; stroke-linecap: square"/>
   </g>
   <g id="line2d_28">
    <path d="M 62.48 178.924009 
L 226.991667 179.881724 
L 391.503333 179.767832 
L 556.015 180.717795 
" clip-path="url(#p581f38a6e5)" style="fill: none; stroke: #9370db; stroke-width: 1.5; stroke-linecap: square"/>
   </g>
   <g id="line2d_29">
    <path d="M 62.48 178.924009 
L 226.991667 178.924186 
L 391.503333 178.911437 
L 556.015 178.911968 
" clip-path="url(#p581f38a6e5)" style="fill: none; stroke: #d3d3d3; stroke-width: 1.5; stroke-linecap: square"/>
   </g>
   <g id="line2d_30">
    <path d="M 62.48 178.924009 
L 226.991667 178.98851 
L 391.503333 178.942721 
L 556.015 179.006933 
" clip-path="url(#p581f38a6e5)" style="fill: none; stroke: #9370db; stroke-width: 1.5; stroke-linecap: square"/>
   </g>
   <g id="line2d_31">
    <path d="M 62.48 178.924009 
L 226.991667 180.390934 
L 391.503333 211.717824 
L 556.015 212.649276 
" clip-path="url(#p581f38a6e5)" style="fill: none; stroke: #9370db; stroke-width: 1.5; stroke-linecap: square"/>
   </g>
   <g id="line2d_32">
    <path d="M 62.48 178.924009 
L 226.991667 178.924059 
L 391.503333 186.90466 
L 556.015 186.904692 
" clip-path="url(#p581f38a6e5)" style="fill: none; stroke: #d3d3d3; stroke-width: 1.5; stroke-linecap: square"/>
   </g>
   <g id="line2d_33">
    <path d="M 62.48 178.924009 
L 226.991667 178.923375 
L 391.503333 178.924043 
L 556.015 178.921596 
" clip-path="url(#p581f38a6e5)" style="fill: none; stroke: #d3d3d3; stroke-width: 1.5; stroke-linecap: square"/>
   </g>
   <g id="line2d_34">
    <path d="M 62.48 178.924009 
L 226.991667 178.92401 
L 391.503333 178.923437 
L 556.015 178.92344 
" clip-path="url(#p581f38a6e5)" style="fill: none; stroke: #d3d3d3; stroke-width: 1.5; stroke-linecap: square"/>
   </g>
   <g id="line2d_35">
    <path d="M 62.48 178.924009 
L 226.991667 183.320181 
L 391.503333 178.896504 
L 556.015 183.292349 
" clip-path="url(#p581f38a6e5)" style="fill: none; stroke: #d3d3d3; stroke-width: 1.5; stroke-linecap: square"/>
   </g>
   <g id="line2d_36">
    <path d="M 62.48 178.924009 
L 226.991667 182.064942 
L 391.503333 214.576503 
L 556.015 217.219704 
" clip-path="url(#p581f38a6e5)" style="fill: none; stroke: #d3d3d3; stroke-width: 1.5; stroke-linecap: square"/>
   </g>
   <g id="line2d_37">
    <path d="M 62.48 178.924009 
L 226.991667 178.923984 
L 391.503333 190.778038 
L 556.015 190.777525 
" clip-path="url(#p581f38a6e5)" style="fill: none; stroke: #d3d3d3; stroke-width: 1.5; stroke-linecap: square"/>
   </g>
   <g id="line2d_38">
    <path d="M 62.48 178.924009 
L 226.991667 178.925121 
L 391.503333 178.98909 
L 556.015 178.989713 
" clip-path="url(#p581f38a6e5)" style="fill: none; stroke: #d3d3d3; stroke-width: 1.5; stroke-linecap: square"/>
   </g>
   <g id="line2d_39">
    <path d="M 62.48 178.924009 
L 226.991667 178.92384 
L 391.503333 165.591962 
L 556.015 165.57105 
" clip-path="url(#p581f38a6e5)" style="fill: none; stroke: #d3d3d3; stroke-width: 1.5; stroke-linecap: square"/>
   </g>
   <g id="line2d_40">
    <path d="M 62.48 178.924009 
L 226.991667 178.92401 
L 391.503333 178.916687 
L 556.015 178.916702 
" clip-path="url(#p581f38a6e5)" style="fill: none; stroke: #d3d3d3; stroke-width: 1.5; stroke-linecap: square"/>
   </g>
   <g id="line2d_41">
    <path d="M 62.48 178.924009 
L 226.991667 178.923885 
L 391.503333 178.923943 
L 556.015 178.924059 
" clip-path="url(#p581f38a6e5)" style="fill: none; stroke: #d3d3d3; stroke-width: 1.5; stroke-linecap: square"/>
   </g>
   <g id="line2d_42">
    <path d="M 62.48 178.924009 
L 226.991667 179.234862 
L 391.503333 178.873327 
L 556.015 179.182676 
" clip-path="url(#p581f38a6e5)" style="fill: none; stroke: #d3d3d3; stroke-width: 1.5; stroke-linecap: square"/>
   </g>
   <g id="line2d_43">
    <path d="M 62.48 178.924009 
L 226.991667 179.5513 
L 391.503333 182.100002 
L 556.015 182.755684 
" clip-path="url(#p581f38a6e5)" style="fill: none; stroke: #d3d3d3; stroke-width: 1.5; stroke-linecap: square"/>
   </g>
   <g id="line2d_44">
    <path d="M 62.48 178.924009 
L 226.991667 183.901438 
L 391.503333 209.125672 
L 556.015 214.055086 
" clip-path="url(#p581f38a6e5)" style="fill: none; stroke: #d3d3d3; stroke-width: 1.5; stroke-linecap: square"/>
   </g>
   <g id="line2d_45">
    <path d="M 62.48 178.924009 
L 226.991667 181.860134 
L 391.503333 187.835907 
L 556.015 193.968726 
" clip-path="url(#p581f38a6e5)" style="fill: none; stroke: #9370db; stroke-width: 1.5; stroke-linecap: square"/>
   </g>
   <g id="line2d_46">
    <path d="M 62.48 178.924009 
L 226.991667 182.834261 
L 391.503333 190.19668 
L 556.015 193.944109 
" clip-path="url(#p581f38a6e5)" style="fill: none; stroke: #d3d3d3; stroke-width: 1.5; stroke-linecap: square"/>
   </g>
   <g id="line2d_47">
    <path d="M 62.48 178.924009 
L 226.991667 180.397307 
L 391.503333 178.908797 
L 556.015 180.378468 
" clip-path="url(#p581f38a6e5)" style="fill: none; stroke: #d3d3d3; stroke-width: 1.5; stroke-linecap: square"/>
   </g>
   <g id="line2d_48">
    <path d="M 62.48 178.924009 
L 226.991667 178.950159 
L 391.503333 178.923998 
L 556.015 178.950147 
" clip-path="url(#p581f38a6e5)" style="fill: none; stroke: #d3d3d3; stroke-width: 1.5; stroke-linecap: square"/>
   </g>
   <g id="line2d_49">
    <path d="M 62.48 178.924009 
L 226.991667 191.813949 
L 391.503333 226.620842 
L 556.015 235.41545 
" clip-path="url(#p581f38a6e5)" style="fill: none; stroke: #9370db; stroke-width: 1.5; stroke-linecap: square"/>
   </g>
   <g id="line2d_50">
    <path d="M 62.48 178.924009 
L 226.991667 178.924322 
L 391.503333 173.878336 
L 556.015 173.774853 
" clip-path="url(#p581f38a6e5)" style="fill: none; stroke: #d3d3d3; stroke-width: 1.5; stroke-linecap: square"/>
   </g>
   <g id="line2d_51">
    <path d="M 62.48 178.924009 
L 226.991667 194.888291 
L 391.503333 220.124331 
L 556.015 231.995659 
" clip-path="url(#p581f38a6e5)" style="fill: none; stroke: #9370db; stroke-width: 1.5; stroke-linecap: square"/>
   </g>
   <g id="line2d_52">
    <path d="M 62.48 178.924009 
L 226.991667 186.558204 
L 391.503333 171.244937 
L 556.015 179.038798 
" clip-path="url(#p581f38a6e5)" style="fill: none; stroke: #9370db; stroke-width: 1.5; stroke-linecap: square"/>
   </g>
   <g id="line2d_53">
    <path d="M 62.48 178.924009 
L 226.991667 190.768824 
L 391.503333 213.322107 
L 556.015 227.2476 
" clip-path="url(#p581f38a6e5)" style="fill: none; stroke: #9370db; stroke-width: 1.5; stroke-linecap: square"/>
   </g>
   <g id="line2d_54">
    <path d="M 62.48 178.924009 
L 226.991667 193.553498 
L 391.503333 237.166219 
L 556.015 254.450697 
" clip-path="url(#p581f38a6e5)" style="fill: none; stroke: #d3d3d3; stroke-width: 1.5; stroke-linecap: square"/>
   </g>
   <g id="line2d_55">
    <path d="M 62.48 178.924009 
L 226.991667 178.924842 
L 391.503333 193.313091 
L 556.015 193.305278 
" clip-path="url(#p581f38a6e5)" style="fill: none; stroke: #d3d3d3; stroke-width: 1.5; stroke-linecap: square"/>
   </g>
   <g id="line2d_56">
    <path d="M 62.48 178.924009 
L 226.991667 178.923828 
L 391.503333 178.916649 
L 556.015 178.918811 
" clip-path="url(#p581f38a6e5)" style="fill: none; stroke: #d3d3d3; stroke-width: 1.5; stroke-linecap: square"/>
   </g>
   <g id="line2d_57">
    <path d="M 62.48 178.924009 
L 226.991667 184.885833 
L 391.503333 219.038926 
L 556.015 225.388248 
" clip-path="url(#p581f38a6e5)" style="fill: none; stroke: #d3d3d3; stroke-width: 1.5; stroke-linecap: square"/>
   </g>
   <g id="line2d_58">
    <path d="M 62.48 178.924009 
L 226.991667 187.427935 
L 391.503333 242.090766 
L 556.015 251.001318 
" clip-path="url(#p581f38a6e5)" style="fill: none; stroke: #d3d3d3; stroke-width: 1.5; stroke-linecap: square"/>
   </g>
   <g id="line2d_59">
    <path d="M 62.48 178.924009 
L 226.991667 197.033871 
L 391.503333 151.362813 
L 556.015 167.814279 
" clip-path="url(#p581f38a6e5)" style="fill: none; stroke: #9370db; stroke-width: 1.5; stroke-linecap: square"/>
   </g>
   <g id="line2d_60">
    <path d="M 62.48 178.924009 
L 226.991667 182.731137 
L 391.503333 230.213995 
L 556.015 232.885934 
" clip-path="url(#p581f38a6e5)" style="fill: none; stroke: #d3d3d3; stroke-width: 1.5; stroke-linecap: square"/>
   </g>
   <g id="line2d_61">
    <path d="M 62.48 178.924009 
L 226.991667 180.487737 
L 391.503333 178.822635 
L 556.015 180.38863 
" clip-path="url(#p581f38a6e5)" style="fill: none; stroke: #9370db; stroke-width: 1.5; stroke-linecap: square"/>
   </g>
   <g id="line2d_62">
    <path d="M 62.48 178.924009 
L 226.991667 194.970098 
L 391.503333 221.366014 
L 556.015 221.38059 
" clip-path="url(#p581f38a6e5)" style="fill: none; stroke: #9370db; stroke-width: 1.5; stroke-linecap: square"/>
   </g>
   <g id="line2d_63">
    <path d="M 62.48 178.924009 
L 226.991667 178.923649 
L 391.503333 178.914319 
L 556.015 178.915998 
" clip-path="url(#p581f38a6e5)" style="fill: none; stroke: #d3d3d3; stroke-width: 1.5; stroke-linecap: square"/>
   </g>
   <g id="line2d_64">
    <path d="M 62.48 178.924009 
L 226.991667 179.17545 
L 391.503333 176.838893 
L 556.015 177.092305 
" clip-path="url(#p581f38a6e5)" style="fill: none; stroke: #d3d3d3; stroke-width: 1.5; stroke-linecap: square"/>
   </g>
   <g id="line2d_65">
    <path d="M 62.48 178.924009 
L 226.991667 208.149804 
L 391.503333 169.420267 
L 556.015 196.424798 
" clip-path="url(#p581f38a6e5)" style="fill: none; stroke: #d3d3d3; stroke-width: 1.5; stroke-linecap: square"/>
   </g>
   <g id="line2d_66">
    <path d="M 62.48 178.924009 
L 226.991667 257.617378 
L 391.503333 128.28288 
L 556.015 184.330978 
" clip-path="url(#p581f38a6e5)" style="fill: none; stroke: #9370db; stroke-width: 1.5; stroke-linecap: square"/>
   </g>
   <g id="line2d_67">
    <path d="M 62.48 178.924009 
L 226.991667 179.104746 
L 391.503333 185.479321 
L 556.015 185.656245 
" clip-path="url(#p581f38a6e5)" style="fill: none; stroke: #d3d3d3; stroke-width: 1.5; stroke-linecap: square"/>
   </g>
   <g id="line2d_68">
    <path d="M 62.48 178.924009 
L 226.991667 178.71128 
L 391.503333 167.430505 
L 556.015 167.262306 
" clip-path="url(#p581f38a6e5)" style="fill: none; stroke: #d3d3d3; stroke-width: 1.5; stroke-linecap: square"/>
   </g>
   <g id="line2d_69">
    <path d="M 62.48 178.924009 
L 226.991667 178.924005 
L 391.503333 178.919612 
L 556.015 178.919618 
" clip-path="url(#p581f38a6e5)" style="fill: none; stroke: #d3d3d3; stroke-width: 1.5; stroke-linecap: square"/>
   </g>
   <g id="line2d_70">
    <path d="M 62.48 178.924009 
L 226.991667 179.901242 
L 391.503333 178.311733 
L 556.015 179.259263 
" clip-path="url(#p581f38a6e5)" style="fill: none; stroke: #d3d3d3; stroke-width: 1.5; stroke-linecap: square"/>
   </g>
   <g id="line2d_71">
    <path d="M 62.48 178.924009 
L 226.991667 179.473691 
L 391.503333 208.20699 
L 556.015 208.797668 
" clip-path="url(#p581f38a6e5)" style="fill: none; stroke: #d3d3d3; stroke-width: 1.5; stroke-linecap: square"/>
   </g>
   <g id="line2d_72">
    <path d="M 62.48 178.924009 
L 226.991667 179.164733 
L 391.503333 178.923917 
L 556.015 179.164643 
" clip-path="url(#p581f38a6e5)" style="fill: none; stroke: #d3d3d3; stroke-width: 1.5; stroke-linecap: square"/>
   </g>
   <g id="line2d_73">
    <path d="M 62.48 178.924009 
L 226.991667 182.050539 
L 391.503333 178.704547 
L 556.015 181.845493 
" clip-path="url(#p581f38a6e5)" style="fill: none; stroke: #d3d3d3; stroke-width: 1.5; stroke-linecap: square"/>
   </g>
   <g id="line2d_74">
    <path d="M 62.48 178.924009 
L 226.991667 179.574751 
L 391.503333 178.883589 
L 556.015 179.533237 
" clip-path="url(#p581f38a6e5)" style="fill: none; stroke: #9370db; stroke-width: 1.5; stroke-linecap: square"/>
   </g>
   <g id="line2d_75">
    <path d="M 62.48 178.924009 
L 226.991667 179.27961 
L 391.503333 234.924968 
L 556.015 234.769224 
" clip-path="url(#p581f38a6e5)" style="fill: none; stroke: #d3d3d3; stroke-width: 1.5; stroke-linecap: square"/>
   </g>
   <g id="line2d_76">
    <path d="M 62.48 178.924009 
L 226.991667 179.418493 
L 391.503333 224.249489 
L 556.015 224.652705 
" clip-path="url(#p581f38a6e5)" style="fill: none; stroke: #d3d3d3; stroke-width: 1.5; stroke-linecap: square"/>
   </g>
   <g id="line2d_77">
    <path d="M 62.48 178.924009 
L 226.991667 178.924226 
L 391.503333 178.938781 
L 556.015 178.938834 
" clip-path="url(#p581f38a6e5)" style="fill: none; stroke: #d3d3d3; stroke-width: 1.5; stroke-linecap: square"/>
   </g>
   <g id="line2d_78">
    <path d="M 62.48 178.924009 
L 226.991667 179.455795 
L 391.503333 178.922653 
L 556.015 179.455004 
" clip-path="url(#p581f38a6e5)" style="fill: none; stroke: #d3d3d3; stroke-width: 1.5; stroke-linecap: square"/>
   </g>
   <g id="line2d_79">
    <path d="M 62.48 178.924009 
L 226.991667 178.924057 
L 391.503333 187.271915 
L 556.015 187.271757 
" clip-path="url(#p581f38a6e5)" style="fill: none; stroke: #d3d3d3; stroke-width: 1.5; stroke-linecap: square"/>
   </g>
   <g id="line2d_80">
    <path d="M 62.48 178.924009 
L 226.991667 179.091986 
L 391.503333 171.962023 
L 556.015 172.157327 
" clip-path="url(#p581f38a6e5)" style="fill: none; stroke: #d3d3d3; stroke-width: 1.5; stroke-linecap: square"/>
   </g>
   <g id="line2d_81">
    <path d="M 62.48 178.924009 
L 226.991667 180.587178 
L 391.503333 175.070339 
L 556.015 177.441734 
" clip-path="url(#p581f38a6e5)" style="fill: none; stroke: #d3d3d3; stroke-width: 1.5; stroke-linecap: square"/>
   </g>
   <g id="line2d_82">
    <path d="M 62.48 178.924009 
L 226.991667 179.445996 
L 391.503333 179.757217 
L 556.015 180.275758 
" clip-path="url(#p581f38a6e5)" style="fill: none; stroke: #d3d3d3; stroke-width: 1.5; stroke-linecap: square"/>
   </g>
   <g id="line2d_83">
    <path d="M 62.48 178.924009 
L 226.991667 180.02795 
L 391.503333 172.102655 
L 556.015 173.532107 
" clip-path="url(#p581f38a6e5)" style="fill: none; stroke: #d3d3d3; stroke-width: 1.5; stroke-linecap: square"/>
   </g>
   <g id="line2d_84">
    <path d="M 62.48 178.924009 
L 226.991667 178.407651 
L 391.503333 162.414947 
L 556.015 163.563477 
" clip-path="url(#p581f38a6e5)" style="fill: none; stroke: #d3d3d3; stroke-width: 1.5; stroke-linecap: square"/>
   </g>
   <g id="line2d_85">
    <path d="M 62.48 178.924009 
L 226.991667 201.295021 
L 391.503333 185.531785 
L 556.015 208.139839 
" clip-path="url(#p581f38a6e5)" style="fill: none; stroke: #d3d3d3; stroke-width: 1.5; stroke-linecap: square"/>
   </g>
   <g id="line2d_86">
    <path d="M 62.48 178.924009 
L 226.991667 178.924037 
L 391.503333 178.923542 
L 556.015 178.92353 
" clip-path="url(#p581f38a6e5)" style="fill: none; stroke: #d3d3d3; stroke-width: 1.5; stroke-linecap: square"/>
   </g>
   <g id="line2d_87">
    <path d="M 62.48 178.924009 
L 226.991667 191.881295 
L 391.503333 178.937396 
L 556.015 191.893772 
" clip-path="url(#p581f38a6e5)" style="fill: none; stroke: #d3d3d3; stroke-width: 1.5; stroke-linecap: square"/>
   </g>
   <g id="line2d_88">
    <path d="M 62.48 178.924009 
L 226.991667 178.924912 
L 391.503333 193.351523 
L 556.015 193.351923 
" clip-path="url(#p581f38a6e5)" style="fill: none; stroke: #d3d3d3; stroke-width: 1.5; stroke-linecap: square"/>
   </g>
   <g id="line2d_89">
    <path d="M 62.48 178.924009 
L 226.991667 179.320448 
L 391.503333 191.407686 
L 556.015 191.796819 
" clip-path="url(#p581f38a6e5)" style="fill: none; stroke: #d3d3d3; stroke-width: 1.5; stroke-linecap: square"/>
   </g>
   <g id="line2d_90">
    <path d="M 62.48 178.924009 
L 226.991667 179.400729 
L 391.503333 244.478293 
L 556.015 244.837425 
" clip-path="url(#p581f38a6e5)" style="fill: none; stroke: #d3d3d3; stroke-width: 1.5; stroke-linecap: square"/>
   </g>
   <g id="line2d_91">
    <path d="M 62.48 178.924009 
L 226.991667 178.923442 
L 391.503333 178.872369 
L 556.015 178.87358 
" clip-path="url(#p581f38a6e5)" style="fill: none; stroke: #d3d3d3; stroke-width: 1.5; stroke-linecap: square"/>
   </g>
   <g id="line2d_92">
    <path d="M 62.48 178.924009 
L 226.991667 192.712849 
L 391.503333 242.353211 
L 556.015 260.429081 
" clip-path="url(#p581f38a6e5)" style="fill: none; stroke: #d3d3d3; stroke-width: 1.5; stroke-linecap: square"/>
   </g>
   <g id="line2d_93">
    <path d="M 62.48 178.924009 
L 226.991667 189.990849 
L 391.503333 226.365697 
L 556.015 242.240059 
" clip-path="url(#p581f38a6e5)" style="fill: none; stroke: #d3d3d3; stroke-width: 1.5; stroke-linecap: square"/>
   </g>
   <g id="line2d_94">
    <path d="M 62.48 178.924009 
L 226.991667 179.494944 
L 391.503333 219.16078 
L 556.015 219.570355 
" clip-path="url(#p581f38a6e5)" style="fill: none; stroke: #d3d3d3; stroke-width: 1.5; stroke-linecap: square"/>
   </g>
   <g id="line2d_95">
    <path d="M 62.48 178.924009 
L 226.991667 177.563957 
L 391.503333 165.987181 
L 556.015 173.411419 
" clip-path="url(#p581f38a6e5)" style="fill: none; stroke: #d3d3d3; stroke-width: 1.5; stroke-linecap: square"/>
   </g>
   <g id="line2d_96">
    <path d="M 62.48 178.924009 
L 226.991667 179.400672 
L 391.503333 199.937389 
L 556.015 200.452285 
" clip-path="url(#p581f38a6e5)" style="fill: none; stroke: #d3d3d3; stroke-width: 1.5; stroke-linecap: square"/>
   </g>
   <g id="line2d_97">
    <path d="M 62.48 178.924009 
L 226.991667 178.924057 
L 391.503333 209.82807 
L 556.015 209.828004 
" clip-path="url(#p581f38a6e5)" style="fill: none; stroke: #d3d3d3; stroke-width: 1.5; stroke-linecap: square"/>
   </g>
   <g id="line2d_98">
    <path d="M 62.48 178.924009 
L 226.991667 178.924834 
L 391.503333 179.547869 
L 556.015 179.549585 
" clip-path="url(#p581f38a6e5)" style="fill: none; stroke: #d3d3d3; stroke-width: 1.5; stroke-linecap: square"/>
   </g>
   <g id="line2d_99">
    <path d="M 62.48 178.924009 
L 226.991667 179.46963 
L 391.503333 178.155563 
L 556.015 178.697646 
" clip-path="url(#p581f38a6e5)" style="fill: none; stroke: #d3d3d3; stroke-width: 1.5; stroke-linecap: square"/>
   </g>
   <g id="line2d_100">
    <path d="M 62.48 178.924009 
L 226.991667 178.924854 
L 391.503333 179.513756 
L 556.015 179.514017 
" clip-path="url(#p581f38a6e5)" style="fill: none; stroke: #d3d3d3; stroke-width: 1.5; stroke-linecap: square"/>
   </g>
   <g id="line2d_101">
    <path d="M 62.48 178.924009 
L 226.991667 222.160799 
L 391.503333 108.943186 
L 556.015 186.866033 
" clip-path="url(#p581f38a6e5)" style="fill: none; stroke: #9370db; stroke-width: 1.5; stroke-linecap: square"/>
   </g>
   <g id="line2d_102">
    <path d="M 62.48 178.924009 
L 226.991667 318.212727 
L 391.503333 40.067273 
L 556.015 192.90138 
" clip-path="url(#p581f38a6e5)" style="fill: none; stroke: #9370db; stroke-width: 1.5; stroke-linecap: square"/>
   </g>
   <g id="line2d_103">
    <path d="M 62.48 178.924009 
L 226.991667 179.785021 
L 391.503333 199.123531 
L 556.015 199.13667 
" clip-path="url(#p581f38a6e5)" style="fill: none; stroke: #d3d3d3; stroke-width: 1.5; stroke-linecap: square"/>
   </g>
   <g id="line2d_104">
    <path d="M 62.48 178.924009 
L 226.991667 179.405257 
L 391.503333 174.10894 
L 556.015 174.606283 
" clip-path="url(#p581f38a6e5)" style="fill: none; stroke: #d3d3d3; stroke-width: 1.5; stroke-linecap: square"/>
   </g>
   <g id="line2d_105">
    <path d="M 62.48 178.924009 
L 226.991667 184.331578 
L 391.503333 249.378278 
L 556.015 252.935213 
" clip-path="url(#p581f38a6e5)" style="fill: none; stroke: #d3d3d3; stroke-width: 1.5; stroke-linecap: square"/>
   </g>
   <g id="line2d_106">
    <path d="M 62.48 178.924009 
L 226.991667 195.970899 
L 391.503333 218.611647 
L 556.015 238.747376 
" clip-path="url(#p581f38a6e5)" style="fill: none; stroke: #d3d3d3; stroke-width: 1.5; stroke-linecap: square"/>
   </g>
   <g id="line2d_107">
    <path d="M 62.48 178.924009 
L 226.991667 178.991821 
L 391.503333 166.724163 
L 556.015 166.802446 
" clip-path="url(#p581f38a6e5)" style="fill: none; stroke: #d3d3d3; stroke-width: 1.5; stroke-linecap: square"/>
   </g>
   <g id="line2d_108">
    <path d="M 62.48 178.924009 
L 226.991667 178.982431 
L 391.503333 201.336667 
L 556.015 201.386417 
" clip-path="url(#p581f38a6e5)" style="fill: none; stroke: #d3d3d3; stroke-width: 1.5; stroke-linecap: square"/>
   </g>
   <g id="line2d_109">
    <path d="M 62.48 178.924009 
L 226.991667 178.924068 
L 391.503333 178.879807 
L 556.015 178.879823 
" clip-path="url(#p581f38a6e5)" style="fill: none; stroke: #d3d3d3; stroke-width: 1.5; stroke-linecap: square"/>
   </g>
   <g id="line2d_110">
    <path d="M 62.48 178.924009 
L 226.991667 178.889853 
L 391.503333 169.626038 
L 556.015 169.594615 
" clip-path="url(#p581f38a6e5)" style="fill: none; stroke: #d3d3d3; stroke-width: 1.5; stroke-linecap: square"/>
   </g>
   <g id="line2d_111">
    <path d="M 62.48 178.924009 
L 226.991667 178.92595 
L 391.503333 175.422697 
L 556.015 176.042866 
" clip-path="url(#p581f38a6e5)" style="fill: none; stroke: #d3d3d3; stroke-width: 1.5; stroke-linecap: square"/>
   </g>
   <g id="line2d_112">
    <path d="M 62.48 178.924009 
L 226.991667 179.06039 
L 391.503333 220.384163 
L 556.015 220.423192 
" clip-path="url(#p581f38a6e5)" style="fill: none; stroke: #d3d3d3; stroke-width: 1.5; stroke-linecap: square"/>
   </g>
   <g id="line2d_113">
    <path d="M 62.48 178.924009 
L 226.991667 179.185263 
L 391.503333 178.826894 
L 556.015 179.068015 
" clip-path="url(#p581f38a6e5)" style="fill: none; stroke: #d3d3d3; stroke-width: 1.5; stroke-linecap: square"/>
   </g>
   <g id="line2d_114">
    <path d="M 62.48 178.924009 
L 226.991667 178.954405 
L 391.503333 177.345173 
L 556.015 177.375541 
" clip-path="url(#p581f38a6e5)" style="fill: none; stroke: #d3d3d3; stroke-width: 1.5; stroke-linecap: square"/>
   </g>
   <g id="line2d_115">
    <path d="M 62.48 178.924009 
L 226.991667 179.618629 
L 391.503333 212.197236 
L 556.015 212.801809 
" clip-path="url(#p581f38a6e5)" style="fill: none; stroke: #9370db; stroke-width: 1.5; stroke-linecap: square"/>
   </g>
   <g id="line2d_116">
    <path d="M 62.48 178.924009 
L 226.991667 178.924217 
L 391.503333 177.479783 
L 556.015 177.480335 
" clip-path="url(#p581f38a6e5)" style="fill: none; stroke: #d3d3d3; stroke-width: 1.5; stroke-linecap: square"/>
   </g>
   <g id="line2d_117">
    <path d="M 62.48 178.924009 
L 226.991667 179.672114 
L 391.503333 178.92255 
L 556.015 179.671561 
" clip-path="url(#p581f38a6e5)" style="fill: none; stroke: #9370db; stroke-width: 1.5; stroke-linecap: square"/>
   </g>
   <g id="line2d_118">
    <path d="M 62.48 178.924009 
L 226.991667 178.998523 
L 391.503333 184.940392 
L 556.015 185.049128 
" clip-path="url(#p581f38a6e5)" style="fill: none; stroke: #d3d3d3; stroke-width: 1.5; stroke-linecap: square"/>
   </g>
   <g id="line2d_119">
    <path d="M 62.48 178.924009 
L 226.991667 178.924527 
L 391.503333 178.757014 
L 556.015 178.757724 
" clip-path="url(#p581f38a6e5)" style="fill: none; stroke: #d3d3d3; stroke-width: 1.5; stroke-linecap: square"/>
   </g>
   <g id="line2d_120">
    <path d="M 62.48 178.924009 
L 226.991667 184.775752 
L 391.503333 177.249666 
L 556.015 182.243925 
" clip-path="url(#p581f38a6e5)" style="fill: none; stroke: #d3d3d3; stroke-width: 1.5; stroke-linecap: square"/>
   </g>
   <g id="line2d_121">
    <path d="M 62.48 178.924009 
L 226.991667 182.247821 
L 391.503333 198.943298 
L 556.015 202.052597 
" clip-path="url(#p581f38a6e5)" style="fill: none; stroke: #d3d3d3; stroke-width: 1.5; stroke-linecap: square"/>
   </g>
   <g id="line2d_122">
    <path d="M 62.48 178.924009 
L 226.991667 178.924013 
L 391.503333 178.925632 
L 556.015 178.925633 
" clip-path="url(#p581f38a6e5)" style="fill: none; stroke: #d3d3d3; stroke-width: 1.5; stroke-linecap: square"/>
   </g>
   <g id="line2d_123">
    <path d="M 62.48 178.924009 
L 226.991667 182.420212 
L 391.503333 165.372531 
L 556.015 169.095229 
" clip-path="url(#p581f38a6e5)" style="fill: none; stroke: #d3d3d3; stroke-width: 1.5; stroke-linecap: square"/>
   </g>
   <g id="line2d_124">
    <path d="M 62.48 178.924009 
L 226.991667 178.923999 
L 391.503333 187.898289 
L 556.015 187.898282 
" clip-path="url(#p581f38a6e5)" style="fill: none; stroke: #d3d3d3; stroke-width: 1.5; stroke-linecap: square"/>
   </g>
   <g id="line2d_125">
    <path d="M 62.48 178.924009 
L 226.991667 178.924015 
L 391.503333 184.96125 
L 556.015 184.961273 
" clip-path="url(#p581f38a6e5)" style="fill: none; stroke: #d3d3d3; stroke-width: 1.5; stroke-linecap: square"/>
   </g>
   <g id="line2d_126">
    <path d="M 62.48 178.924009 
L 226.991667 178.924009 
L 391.503333 178.924009 
L 556.015 178.924009 
" clip-path="url(#p581f38a6e5)" style="fill: none; stroke: #d3d3d3; stroke-width: 1.5; stroke-linecap: square"/>
   </g>
   <g id="line2d_127">
    <path d="M 62.48 178.924009 
L 226.991667 179.026437 
L 391.503333 178.92045 
L 556.015 179.023959 
" clip-path="url(#p581f38a6e5)" style="fill: none; stroke: #d3d3d3; stroke-width: 1.5; stroke-linecap: square"/>
   </g>
   <g id="line2d_128">
    <path d="M 62.48 178.924009 
L 226.991667 178.924093 
L 391.503333 186.25094 
L 556.015 186.251502 
" clip-path="url(#p581f38a6e5)" style="fill: none; stroke: #d3d3d3; stroke-width: 1.5; stroke-linecap: square"/>
   </g>
   <g id="line2d_129">
    <path d="M 62.48 178.924009 
L 226.991667 178.924121 
L 391.503333 222.736627 
L 556.015 222.736674 
" clip-path="url(#p581f38a6e5)" style="fill: none; stroke: #d3d3d3; stroke-width: 1.5; stroke-linecap: square"/>
   </g>
   <g id="line2d_130">
    <path d="M 62.48 178.924009 
L 226.991667 190.58533 
L 391.503333 178.861808 
L 556.015 190.528241 
" clip-path="url(#p581f38a6e5)" style="fill: none; stroke: #d3d3d3; stroke-width: 1.5; stroke-linecap: square"/>
   </g>
   <g id="line2d_131">
    <path d="M 62.48 178.924009 
L 226.991667 179.030592 
L 391.503333 178.821125 
L 556.015 178.914463 
" clip-path="url(#p581f38a6e5)" style="fill: none; stroke: #d3d3d3; stroke-width: 1.5; stroke-linecap: square"/>
   </g>
   <g id="line2d_132">
    <path d="M 62.48 178.924009 
L 226.991667 179.287038 
L 391.503333 175.627938 
L 556.015 176.002256 
" clip-path="url(#p581f38a6e5)" style="fill: none; stroke: #d3d3d3; stroke-width: 1.5; stroke-linecap: square"/>
   </g>
   <g id="line2d_133">
    <path d="M 62.48 178.924009 
L 226.991667 182.103608 
L 391.503333 218.780157 
L 556.015 220.17978 
" clip-path="url(#p581f38a6e5)" style="fill: none; stroke: #d3d3d3; stroke-width: 1.5; stroke-linecap: square"/>
   </g>
   <g id="line2d_134">
    <path d="M 62.48 178.924009 
L 226.991667 179.153633 
L 391.503333 178.925969 
L 556.015 179.155603 
" clip-path="url(#p581f38a6e5)" style="fill: none; stroke: #9370db; stroke-width: 1.5; stroke-linecap: square"/>
   </g>
   <g id="line2d_135">
    <path d="M 62.48 178.924009 
L 226.991667 178.96589 
L 391.503333 169.847042 
L 556.015 169.908509 
" clip-path="url(#p581f38a6e5)" style="fill: none; stroke: #d3d3d3; stroke-width: 1.5; stroke-linecap: square"/>
   </g>
   <g id="line2d_136">
    <path d="M 62.48 178.924009 
L 226.991667 178.924022 
L 391.503333 218.631109 
L 556.015 218.631599 
" clip-path="url(#p581f38a6e5)" style="fill: none; stroke: #d3d3d3; stroke-width: 1.5; stroke-linecap: square"/>
   </g>
   <g id="line2d_137">
    <path d="M 62.48 178.924009 
L 226.991667 179.43132 
L 391.503333 181.539796 
L 556.015 182.048196 
" clip-path="url(#p581f38a6e5)" style="fill: none; stroke: #d3d3d3; stroke-width: 1.5; stroke-linecap: square"/>
   </g>
   <g id="line2d_138">
    <path d="M 62.48 178.924009 
L 226.991667 181.889811 
L 391.503333 202.130125 
L 556.015 207.53773 
" clip-path="url(#p581f38a6e5)" style="fill: none; stroke: #9370db; stroke-width: 1.5; stroke-linecap: square"/>
   </g>
   <g id="line2d_139">
    <path d="M 62.48 178.924009 
L 226.991667 179.165054 
L 391.503333 187.094275 
L 556.015 187.291263 
" clip-path="url(#p581f38a6e5)" style="fill: none; stroke: #9370db; stroke-width: 1.5; stroke-linecap: square"/>
   </g>
   <g id="line2d_140">
    <path d="M 62.48 178.924009 
L 226.991667 179.60717 
L 391.503333 184.808182 
L 556.015 185.493726 
" clip-path="url(#p581f38a6e5)" style="fill: none; stroke: #9370db; stroke-width: 1.5; stroke-linecap: square"/>
   </g>
   <g id="line2d_141">
    <path d="M 62.48 178.924009 
L 226.991667 178.92453 
L 391.503333 180.256311 
L 556.015 180.256639 
" clip-path="url(#p581f38a6e5)" style="fill: none; stroke: #d3d3d3; stroke-width: 1.5; stroke-linecap: square"/>
   </g>
   <g id="line2d_142">
    <path d="M 62.48 332.12 
L 62.48 26.16 
" clip-path="url(#p581f38a6e5)" style="fill: none; stroke: #000000; stroke-linecap: square"/>
   </g>
   <g id="line2d_143">
    <path d="M 226.991667 332.12 
L 226.991667 26.16 
" clip-path="url(#p581f38a6e5)" style="fill: none; stroke: #000000; stroke-linecap: square"/>
   </g>
   <g id="line2d_144">
    <path d="M 391.503333 332.12 
L 391.503333 26.16 
" clip-path="url(#p581f38a6e5)" style="fill: none; stroke: #000000; stroke-linecap: square"/>
   </g>
   <g id="line2d_145">
    <path d="M 556.015 332.12 
L 556.015 26.16 
" clip-path="url(#p581f38a6e5)" style="fill: none; stroke: #000000; stroke-linecap: square"/>
   </g>
   <g id="patch_3">
    <path d="M 62.48 332.12 
L 62.48 26.16 
" style="fill: none; stroke: #000000; stroke-width: 0.8; stroke-linejoin: miter; stroke-linecap: square"/>
   </g>
   <g id="patch_4">
    <path d="M 556.015 332.12 
L 556.015 26.16 
" style="fill: none; stroke: #000000; stroke-width: 0.8; stroke-linejoin: miter; stroke-linecap: square"/>
   </g>
   <g id="patch_5">
    <path d="M 62.48 332.12 
L 556.015 332.12 
" style="fill: none; stroke: #000000; stroke-width: 0.8; stroke-linejoin: miter; stroke-linecap: square"/>
   </g>
   <g id="patch_6">
    <path d="M 62.48 26.16 
L 556.015 26.16 
" style="fill: none; stroke: #000000; stroke-width: 0.8; stroke-linejoin: miter; stroke-linecap: square"/>
   </g>
   <g id="text_13">
    <!-- Chicago Hypothetical Storm (r = 0.25): Relative Improvement of Depth of Flooding -->
    <g transform="translate(60.561563 20.16) scale(0.12 -0.12)">
     <defs>
      <path id="DejaVuSans-43" d="M 4122 4306 
L 4122 3641 
Q 3803 3938 3442 4084 
Q 3081 4231 2675 4231 
Q 1875 4231 1450 3742 
Q 1025 3253 1025 2328 
Q 1025 1406 1450 917 
Q 1875 428 2675 428 
Q 3081 428 3442 575 
Q 3803 722 4122 1019 
L 4122 359 
Q 3791 134 3420 21 
Q 3050 -91 2638 -91 
Q 1578 -91 968 557 
Q 359 1206 359 2328 
Q 359 3453 968 4101 
Q 1578 4750 2638 4750 
Q 3056 4750 3426 4639 
Q 3797 4528 4122 4306 
z
" transform="scale(0.015625)"/>
      <path id="DejaVuSans-69" d="M 603 3500 
L 1178 3500 
L 1178 0 
L 603 0 
L 603 3500 
z
M 603 4863 
L 1178 4863 
L 1178 4134 
L 603 4134 
L 603 4863 
z
" transform="scale(0.015625)"/>
      <path id="DejaVuSans-63" d="M 3122 3366 
L 3122 2828 
Q 2878 2963 2633 3030 
Q 2388 3097 2138 3097 
Q 1578 3097 1268 2742 
Q 959 2388 959 1747 
Q 959 1106 1268 751 
Q 1578 397 2138 397 
Q 2388 397 2633 464 
Q 2878 531 3122 666 
L 3122 134 
Q 2881 22 2623 -34 
Q 2366 -91 2075 -91 
Q 1284 -91 818 406 
Q 353 903 353 1747 
Q 353 2603 823 3093 
Q 1294 3584 2113 3584 
Q 2378 3584 2631 3529 
Q 2884 3475 3122 3366 
z
" transform="scale(0.015625)"/>
      <path id="DejaVuSans-67" d="M 2906 1791 
Q 2906 2416 2648 2759 
Q 2391 3103 1925 3103 
Q 1463 3103 1205 2759 
Q 947 2416 947 1791 
Q 947 1169 1205 825 
Q 1463 481 1925 481 
Q 2391 481 2648 825 
Q 2906 1169 2906 1791 
z
M 3481 434 
Q 3481 -459 3084 -895 
Q 2688 -1331 1869 -1331 
Q 1566 -1331 1297 -1286 
Q 1028 -1241 775 -1147 
L 775 -588 
Q 1028 -725 1275 -790 
Q 1522 -856 1778 -856 
Q 2344 -856 2625 -561 
Q 2906 -266 2906 331 
L 2906 616 
Q 2728 306 2450 153 
Q 2172 0 1784 0 
Q 1141 0 747 490 
Q 353 981 353 1791 
Q 353 2603 747 3093 
Q 1141 3584 1784 3584 
Q 2172 3584 2450 3431 
Q 2728 3278 2906 2969 
L 2906 3500 
L 3481 3500 
L 3481 434 
z
" transform="scale(0.015625)"/>
      <path id="DejaVuSans-6f" d="M 1959 3097 
Q 1497 3097 1228 2736 
Q 959 2375 959 1747 
Q 959 1119 1226 758 
Q 1494 397 1959 397 
Q 2419 397 2687 759 
Q 2956 1122 2956 1747 
Q 2956 2369 2687 2733 
Q 2419 3097 1959 3097 
z
M 1959 3584 
Q 2709 3584 3137 3096 
Q 3566 2609 3566 1747 
Q 3566 888 3137 398 
Q 2709 -91 1959 -91 
Q 1206 -91 779 398 
Q 353 888 353 1747 
Q 353 2609 779 3096 
Q 1206 3584 1959 3584 
z
" transform="scale(0.015625)"/>
      <path id="DejaVuSans-48" d="M 628 4666 
L 1259 4666 
L 1259 2753 
L 3553 2753 
L 3553 4666 
L 4184 4666 
L 4184 0 
L 3553 0 
L 3553 2222 
L 1259 2222 
L 1259 0 
L 628 0 
L 628 4666 
z
" transform="scale(0.015625)"/>
      <path id="DejaVuSans-79" d="M 2059 -325 
Q 1816 -950 1584 -1140 
Q 1353 -1331 966 -1331 
L 506 -1331 
L 506 -850 
L 844 -850 
Q 1081 -850 1212 -737 
Q 1344 -625 1503 -206 
L 1606 56 
L 191 3500 
L 800 3500 
L 1894 763 
L 2988 3500 
L 3597 3500 
L 2059 -325 
z
" transform="scale(0.015625)"/>
      <path id="DejaVuSans-6c" d="M 603 4863 
L 1178 4863 
L 1178 0 
L 603 0 
L 603 4863 
z
" transform="scale(0.015625)"/>
      <path id="DejaVuSans-53" d="M 3425 4513 
L 3425 3897 
Q 3066 4069 2747 4153 
Q 2428 4238 2131 4238 
Q 1616 4238 1336 4038 
Q 1056 3838 1056 3469 
Q 1056 3159 1242 3001 
Q 1428 2844 1947 2747 
L 2328 2669 
Q 3034 2534 3370 2195 
Q 3706 1856 3706 1288 
Q 3706 609 3251 259 
Q 2797 -91 1919 -91 
Q 1588 -91 1214 -16 
Q 841 59 441 206 
L 441 856 
Q 825 641 1194 531 
Q 1563 422 1919 422 
Q 2459 422 2753 634 
Q 3047 847 3047 1241 
Q 3047 1584 2836 1778 
Q 2625 1972 2144 2069 
L 1759 2144 
Q 1053 2284 737 2584 
Q 422 2884 422 3419 
Q 422 4038 858 4394 
Q 1294 4750 2059 4750 
Q 2388 4750 2728 4690 
Q 3069 4631 3425 4513 
z
" transform="scale(0.015625)"/>
      <path id="DejaVuSans-72" d="M 2631 2963 
Q 2534 3019 2420 3045 
Q 2306 3072 2169 3072 
Q 1681 3072 1420 2755 
Q 1159 2438 1159 1844 
L 1159 0 
L 581 0 
L 581 3500 
L 1159 3500 
L 1159 2956 
Q 1341 3275 1631 3429 
Q 1922 3584 2338 3584 
Q 2397 3584 2469 3576 
Q 2541 3569 2628 3553 
L 2631 2963 
z
" transform="scale(0.015625)"/>
      <path id="DejaVuSans-3d" d="M 678 2906 
L 4684 2906 
L 4684 2381 
L 678 2381 
L 678 2906 
z
M 678 1631 
L 4684 1631 
L 4684 1100 
L 678 1100 
L 678 1631 
z
" transform="scale(0.015625)"/>
      <path id="DejaVuSans-32" d="M 1228 531 
L 3431 531 
L 3431 0 
L 469 0 
L 469 531 
Q 828 903 1448 1529 
Q 2069 2156 2228 2338 
Q 2531 2678 2651 2914 
Q 2772 3150 2772 3378 
Q 2772 3750 2511 3984 
Q 2250 4219 1831 4219 
Q 1534 4219 1204 4116 
Q 875 4013 500 3803 
L 500 4441 
Q 881 4594 1212 4672 
Q 1544 4750 1819 4750 
Q 2544 4750 2975 4387 
Q 3406 4025 3406 3419 
Q 3406 3131 3298 2873 
Q 3191 2616 2906 2266 
Q 2828 2175 2409 1742 
Q 1991 1309 1228 531 
z
" transform="scale(0.015625)"/>
      <path id="DejaVuSans-3a" d="M 750 794 
L 1409 794 
L 1409 0 
L 750 0 
L 750 794 
z
M 750 3309 
L 1409 3309 
L 1409 2516 
L 750 2516 
L 750 3309 
z
" transform="scale(0.015625)"/>
      <path id="DejaVuSans-52" d="M 2841 2188 
Q 3044 2119 3236 1894 
Q 3428 1669 3622 1275 
L 4263 0 
L 3584 0 
L 2988 1197 
Q 2756 1666 2539 1819 
Q 2322 1972 1947 1972 
L 1259 1972 
L 1259 0 
L 628 0 
L 628 4666 
L 2053 4666 
Q 2853 4666 3247 4331 
Q 3641 3997 3641 3322 
Q 3641 2881 3436 2590 
Q 3231 2300 2841 2188 
z
M 1259 4147 
L 1259 2491 
L 2053 2491 
Q 2509 2491 2742 2702 
Q 2975 2913 2975 3322 
Q 2975 3731 2742 3939 
Q 2509 4147 2053 4147 
L 1259 4147 
z
" transform="scale(0.015625)"/>
      <path id="DejaVuSans-76" d="M 191 3500 
L 800 3500 
L 1894 563 
L 2988 3500 
L 3597 3500 
L 2284 0 
L 1503 0 
L 191 3500 
z
" transform="scale(0.015625)"/>
      <path id="DejaVuSans-6e" d="M 3513 2113 
L 3513 0 
L 2938 0 
L 2938 2094 
Q 2938 2591 2744 2837 
Q 2550 3084 2163 3084 
Q 1697 3084 1428 2787 
Q 1159 2491 1159 1978 
L 1159 0 
L 581 0 
L 581 3500 
L 1159 3500 
L 1159 2956 
Q 1366 3272 1645 3428 
Q 1925 3584 2291 3584 
Q 2894 3584 3203 3211 
Q 3513 2838 3513 2113 
z
" transform="scale(0.015625)"/>
      <path id="DejaVuSans-66" d="M 2375 4863 
L 2375 4384 
L 1825 4384 
Q 1516 4384 1395 4259 
Q 1275 4134 1275 3809 
L 1275 3500 
L 2222 3500 
L 2222 3053 
L 1275 3053 
L 1275 0 
L 697 0 
L 697 3053 
L 147 3053 
L 147 3500 
L 697 3500 
L 697 3744 
Q 697 4328 969 4595 
Q 1241 4863 1831 4863 
L 2375 4863 
z
" transform="scale(0.015625)"/>
      <path id="DejaVuSans-46" d="M 628 4666 
L 3309 4666 
L 3309 4134 
L 1259 4134 
L 1259 2759 
L 3109 2759 
L 3109 2228 
L 1259 2228 
L 1259 0 
L 628 0 
L 628 4666 
z
" transform="scale(0.015625)"/>
      <path id="DejaVuSans-64" d="M 2906 2969 
L 2906 4863 
L 3481 4863 
L 3481 0 
L 2906 0 
L 2906 525 
Q 2725 213 2448 61 
Q 2172 -91 1784 -91 
Q 1150 -91 751 415 
Q 353 922 353 1747 
Q 353 2572 751 3078 
Q 1150 3584 1784 3584 
Q 2172 3584 2448 3432 
Q 2725 3281 2906 2969 
z
M 947 1747 
Q 947 1113 1208 752 
Q 1469 391 1925 391 
Q 2381 391 2643 752 
Q 2906 1113 2906 1747 
Q 2906 2381 2643 2742 
Q 2381 3103 1925 3103 
Q 1469 3103 1208 2742 
Q 947 2381 947 1747 
z
" transform="scale(0.015625)"/>
     </defs>
     <use xlink:href="#DejaVuSans-43"/>
     <use xlink:href="#DejaVuSans-68" transform="translate(69.824219 0)"/>
     <use xlink:href="#DejaVuSans-69" transform="translate(133.203125 0)"/>
     <use xlink:href="#DejaVuSans-63" transform="translate(160.986328 0)"/>
     <use xlink:href="#DejaVuSans-61" transform="translate(215.966797 0)"/>
     <use xlink:href="#DejaVuSans-67" transform="translate(277.246094 0)"/>
     <use xlink:href="#DejaVuSans-6f" transform="translate(340.722656 0)"/>
     <use xlink:href="#DejaVuSans-20" transform="translate(401.904297 0)"/>
     <use xlink:href="#DejaVuSans-48" transform="translate(433.691406 0)"/>
     <use xlink:href="#DejaVuSans-79" transform="translate(508.886719 0)"/>
     <use xlink:href="#DejaVuSans-70" transform="translate(568.066406 0)"/>
     <use xlink:href="#DejaVuSans-6f" transform="translate(631.542969 0)"/>
     <use xlink:href="#DejaVuSans-74" transform="translate(692.724609 0)"/>
     <use xlink:href="#DejaVuSans-68" transform="translate(731.933594 0)"/>
     <use xlink:href="#DejaVuSans-65" transform="translate(795.3125 0)"/>
     <use xlink:href="#DejaVuSans-74" transform="translate(856.835938 0)"/>
     <use xlink:href="#DejaVuSans-69" transform="translate(896.044922 0)"/>
     <use xlink:href="#DejaVuSans-63" transform="translate(923.828125 0)"/>
     <use xlink:href="#DejaVuSans-61" transform="translate(978.808594 0)"/>
     <use xlink:href="#DejaVuSans-6c" transform="translate(1040.087891 0)"/>
     <use xlink:href="#DejaVuSans-20" transform="translate(1067.871094 0)"/>
     <use xlink:href="#DejaVuSans-53" transform="translate(1099.658203 0)"/>
     <use xlink:href="#DejaVuSans-74" transform="translate(1163.134766 0)"/>
     <use xlink:href="#DejaVuSans-6f" transform="translate(1202.34375 0)"/>
     <use xlink:href="#DejaVuSans-72" transform="translate(1263.525391 0)"/>
     <use xlink:href="#DejaVuSans-6d" transform="translate(1302.888672 0)"/>
     <use xlink:href="#DejaVuSans-20" transform="translate(1400.300781 0)"/>
     <use xlink:href="#DejaVuSans-28" transform="translate(1432.087891 0)"/>
     <use xlink:href="#DejaVuSans-72" transform="translate(1471.101562 0)"/>
     <use xlink:href="#DejaVuSans-20" transform="translate(1512.214844 0)"/>
     <use xlink:href="#DejaVuSans-3d" transform="translate(1544.001953 0)"/>
     <use xlink:href="#DejaVuSans-20" transform="translate(1627.791016 0)"/>
     <use xlink:href="#DejaVuSans-30" transform="translate(1659.578125 0)"/>
     <use xlink:href="#DejaVuSans-2e" transform="translate(1723.201172 0)"/>
     <use xlink:href="#DejaVuSans-32" transform="translate(1754.988281 0)"/>
     <use xlink:href="#DejaVuSans-35" transform="translate(1818.611328 0)"/>
     <use xlink:href="#DejaVuSans-29" transform="translate(1882.234375 0)"/>
     <use xlink:href="#DejaVuSans-3a" transform="translate(1921.248047 0)"/>
     <use xlink:href="#DejaVuSans-20" transform="translate(1954.939453 0)"/>
     <use xlink:href="#DejaVuSans-52" transform="translate(1986.726562 0)"/>
     <use xlink:href="#DejaVuSans-65" transform="translate(2051.708984 0)"/>
     <use xlink:href="#DejaVuSans-6c" transform="translate(2113.232422 0)"/>
     <use xlink:href="#DejaVuSans-61" transform="translate(2141.015625 0)"/>
     <use xlink:href="#DejaVuSans-74" transform="translate(2202.294922 0)"/>
     <use xlink:href="#DejaVuSans-69" transform="translate(2241.503906 0)"/>
     <use xlink:href="#DejaVuSans-76" transform="translate(2269.287109 0)"/>
     <use xlink:href="#DejaVuSans-65" transform="translate(2328.466797 0)"/>
     <use xlink:href="#DejaVuSans-20" transform="translate(2389.990234 0)"/>
     <use xlink:href="#DejaVuSans-49" transform="translate(2421.777344 0)"/>
     <use xlink:href="#DejaVuSans-6d" transform="translate(2451.269531 0)"/>
     <use xlink:href="#DejaVuSans-70" transform="translate(2548.681641 0)"/>
     <use xlink:href="#DejaVuSans-72" transform="translate(2612.158203 0)"/>
     <use xlink:href="#DejaVuSans-6f" transform="translate(2651.021484 0)"/>
     <use xlink:href="#DejaVuSans-76" transform="translate(2712.203125 0)"/>
     <use xlink:href="#DejaVuSans-65" transform="translate(2771.382812 0)"/>
     <use xlink:href="#DejaVuSans-6d" transform="translate(2832.90625 0)"/>
     <use xlink:href="#DejaVuSans-65" transform="translate(2930.318359 0)"/>
     <use xlink:href="#DejaVuSans-6e" transform="translate(2991.841797 0)"/>
     <use xlink:href="#DejaVuSans-74" transform="translate(3055.220703 0)"/>
     <use xlink:href="#DejaVuSans-20" transform="translate(3094.429688 0)"/>
     <use xlink:href="#DejaVuSans-6f" transform="translate(3126.216797 0)"/>
     <use xlink:href="#DejaVuSans-66" transform="translate(3187.398438 0)"/>
     <use xlink:href="#DejaVuSans-20" transform="translate(3222.603516 0)"/>
     <use xlink:href="#DejaVuSans-44" transform="translate(3254.390625 0)"/>
     <use xlink:href="#DejaVuSans-65" transform="translate(3331.392578 0)"/>
     <use xlink:href="#DejaVuSans-70" transform="translate(3392.916016 0)"/>
     <use xlink:href="#DejaVuSans-74" transform="translate(3456.392578 0)"/>
     <use xlink:href="#DejaVuSans-68" transform="translate(3495.601562 0)"/>
     <use xlink:href="#DejaVuSans-20" transform="translate(3558.980469 0)"/>
     <use xlink:href="#DejaVuSans-6f" transform="translate(3590.767578 0)"/>
     <use xlink:href="#DejaVuSans-66" transform="translate(3651.949219 0)"/>
     <use xlink:href="#DejaVuSans-20" transform="translate(3687.154297 0)"/>
     <use xlink:href="#DejaVuSans-46" transform="translate(3718.941406 0)"/>
     <use xlink:href="#DejaVuSans-6c" transform="translate(3776.460938 0)"/>
     <use xlink:href="#DejaVuSans-6f" transform="translate(3804.244141 0)"/>
     <use xlink:href="#DejaVuSans-6f" transform="translate(3865.425781 0)"/>
     <use xlink:href="#DejaVuSans-64" transform="translate(3926.607422 0)"/>
     <use xlink:href="#DejaVuSans-69" transform="translate(3990.083984 0)"/>
     <use xlink:href="#DejaVuSans-6e" transform="translate(4017.867188 0)"/>
     <use xlink:href="#DejaVuSans-67" transform="translate(4081.246094 0)"/>
    </g>
   </g>
   <g id="legend_1">
    <g id="patch_7">
     <path d="M 563.015 327.42125 
L 707.1025 327.42125 
Q 709.1025 327.42125 709.1025 325.42125 
L 709.1025 32.85875 
Q 709.1025 30.85875 707.1025 30.85875 
L 563.015 30.85875 
Q 561.015 30.85875 561.015 32.85875 
L 561.015 325.42125 
Q 561.015 327.42125 563.015 327.42125 
z
" style="fill: #ffffff; opacity: 0.8; stroke: #cccccc; stroke-linejoin: miter"/>
    </g>
    <g id="text_14">
     <!-- Neighborhood -->
     <g transform="translate(599.84625 42.457187) scale(0.1 -0.1)">
      <defs>
       <path id="DejaVuSans-4e" d="M 628 4666 
L 1478 4666 
L 3547 763 
L 3547 4666 
L 4159 4666 
L 4159 0 
L 3309 0 
L 1241 3903 
L 1241 0 
L 628 0 
L 628 4666 
z
" transform="scale(0.015625)"/>
       <path id="DejaVuSans-62" d="M 3116 1747 
Q 3116 2381 2855 2742 
Q 2594 3103 2138 3103 
Q 1681 3103 1420 2742 
Q 1159 2381 1159 1747 
Q 1159 1113 1420 752 
Q 1681 391 2138 391 
Q 2594 391 2855 752 
Q 3116 1113 3116 1747 
z
M 1159 2969 
Q 1341 3281 1617 3432 
Q 1894 3584 2278 3584 
Q 2916 3584 3314 3078 
Q 3713 2572 3713 1747 
Q 3713 922 3314 415 
Q 2916 -91 2278 -91 
Q 1894 -91 1617 61 
Q 1341 213 1159 525 
L 1159 0 
L 581 0 
L 581 4863 
L 1159 4863 
L 1159 2969 
z
" transform="scale(0.015625)"/>
      </defs>
      <use xlink:href="#DejaVuSans-4e"/>
      <use xlink:href="#DejaVuSans-65" transform="translate(74.804688 0)"/>
      <use xlink:href="#DejaVuSans-69" transform="translate(136.328125 0)"/>
      <use xlink:href="#DejaVuSans-67" transform="translate(164.111328 0)"/>
      <use xlink:href="#DejaVuSans-68" transform="translate(227.587891 0)"/>
      <use xlink:href="#DejaVuSans-62" transform="translate(290.966797 0)"/>
      <use xlink:href="#DejaVuSans-6f" transform="translate(354.443359 0)"/>
      <use xlink:href="#DejaVuSans-72" transform="translate(415.625 0)"/>
      <use xlink:href="#DejaVuSans-68" transform="translate(454.988281 0)"/>
      <use xlink:href="#DejaVuSans-6f" transform="translate(518.367188 0)"/>
      <use xlink:href="#DejaVuSans-6f" transform="translate(579.548828 0)"/>
      <use xlink:href="#DejaVuSans-64" transform="translate(640.730469 0)"/>
     </g>
    </g>
    <g id="patch_8">
     <path d="M 565.015 57.135312 
L 585.015 57.135312 
L 585.015 50.135312 
L 565.015 50.135312 
z
" style="fill: #d3d3d3; stroke: #d3d3d3; stroke-linejoin: miter"/>
    </g>
    <g id="text_15">
     <!-- Baltimore Highlands -->
     <g transform="translate(593.015 57.135312) scale(0.1 -0.1)">
      <use xlink:href="#DejaVuSans-42"/>
      <use xlink:href="#DejaVuSans-61" transform="translate(68.603516 0)"/>
      <use xlink:href="#DejaVuSans-6c" transform="translate(129.882812 0)"/>
      <use xlink:href="#DejaVuSans-74" transform="translate(157.666016 0)"/>
      <use xlink:href="#DejaVuSans-69" transform="translate(196.875 0)"/>
      <use xlink:href="#DejaVuSans-6d" transform="translate(224.658203 0)"/>
      <use xlink:href="#DejaVuSans-6f" transform="translate(322.070312 0)"/>
      <use xlink:href="#DejaVuSans-72" transform="translate(383.251953 0)"/>
      <use xlink:href="#DejaVuSans-65" transform="translate(422.115234 0)"/>
      <use xlink:href="#DejaVuSans-20" transform="translate(483.638672 0)"/>
      <use xlink:href="#DejaVuSans-48" transform="translate(515.425781 0)"/>
      <use xlink:href="#DejaVuSans-69" transform="translate(590.621094 0)"/>
      <use xlink:href="#DejaVuSans-67" transform="translate(618.404297 0)"/>
      <use xlink:href="#DejaVuSans-68" transform="translate(681.880859 0)"/>
      <use xlink:href="#DejaVuSans-6c" transform="translate(745.259766 0)"/>
      <use xlink:href="#DejaVuSans-61" transform="translate(773.042969 0)"/>
      <use xlink:href="#DejaVuSans-6e" transform="translate(834.322266 0)"/>
      <use xlink:href="#DejaVuSans-64" transform="translate(897.701172 0)"/>
      <use xlink:href="#DejaVuSans-73" transform="translate(961.177734 0)"/>
     </g>
    </g>
    <g id="patch_9">
     <path d="M 565.015 71.813438 
L 585.015 71.813438 
L 585.015 64.813438 
L 565.015 64.813438 
z
" style="fill: #d3d3d3; stroke: #d3d3d3; stroke-linejoin: miter"/>
    </g>
    <g id="text_16">
     <!-- Berea -->
     <g transform="translate(593.015 71.813438) scale(0.1 -0.1)">
      <use xlink:href="#DejaVuSans-42"/>
      <use xlink:href="#DejaVuSans-65" transform="translate(68.603516 0)"/>
      <use xlink:href="#DejaVuSans-72" transform="translate(130.126953 0)"/>
      <use xlink:href="#DejaVuSans-65" transform="translate(168.990234 0)"/>
      <use xlink:href="#DejaVuSans-61" transform="translate(230.513672 0)"/>
     </g>
    </g>
    <g id="patch_10">
     <path d="M 565.015 86.491562 
L 585.015 86.491562 
L 585.015 79.491562 
L 565.015 79.491562 
z
" style="fill: #9370db; stroke: #9370db; stroke-linejoin: miter"/>
    </g>
    <g id="text_17">
     <!-- Broadway East -->
     <g transform="translate(593.015 86.491562) scale(0.1 -0.1)">
      <defs>
       <path id="DejaVuSans-77" d="M 269 3500 
L 844 3500 
L 1563 769 
L 2278 3500 
L 2956 3500 
L 3675 769 
L 4391 3500 
L 4966 3500 
L 4050 0 
L 3372 0 
L 2619 2869 
L 1863 0 
L 1184 0 
L 269 3500 
z
" transform="scale(0.015625)"/>
       <path id="DejaVuSans-45" d="M 628 4666 
L 3578 4666 
L 3578 4134 
L 1259 4134 
L 1259 2753 
L 3481 2753 
L 3481 2222 
L 1259 2222 
L 1259 531 
L 3634 531 
L 3634 0 
L 628 0 
L 628 4666 
z
" transform="scale(0.015625)"/>
      </defs>
      <use xlink:href="#DejaVuSans-42"/>
      <use xlink:href="#DejaVuSans-72" transform="translate(68.603516 0)"/>
      <use xlink:href="#DejaVuSans-6f" transform="translate(107.466797 0)"/>
      <use xlink:href="#DejaVuSans-61" transform="translate(168.648438 0)"/>
      <use xlink:href="#DejaVuSans-64" transform="translate(229.927734 0)"/>
      <use xlink:href="#DejaVuSans-77" transform="translate(293.404297 0)"/>
      <use xlink:href="#DejaVuSans-61" transform="translate(375.191406 0)"/>
      <use xlink:href="#DejaVuSans-79" transform="translate(436.470703 0)"/>
      <use xlink:href="#DejaVuSans-20" transform="translate(495.650391 0)"/>
      <use xlink:href="#DejaVuSans-45" transform="translate(527.4375 0)"/>
      <use xlink:href="#DejaVuSans-61" transform="translate(590.621094 0)"/>
      <use xlink:href="#DejaVuSans-73" transform="translate(651.900391 0)"/>
      <use xlink:href="#DejaVuSans-74" transform="translate(704 0)"/>
     </g>
    </g>
    <g id="patch_11">
     <path d="M 565.015 101.169688 
L 585.015 101.169688 
L 585.015 94.169688 
L 565.015 94.169688 
z
" style="fill: #d3d3d3; stroke: #d3d3d3; stroke-linejoin: miter"/>
    </g>
    <g id="text_18">
     <!-- Canton -->
     <g transform="translate(593.015 101.169688) scale(0.1 -0.1)">
      <use xlink:href="#DejaVuSans-43"/>
      <use xlink:href="#DejaVuSans-61" transform="translate(69.824219 0)"/>
      <use xlink:href="#DejaVuSans-6e" transform="translate(131.103516 0)"/>
      <use xlink:href="#DejaVuSans-74" transform="translate(194.482422 0)"/>
      <use xlink:href="#DejaVuSans-6f" transform="translate(233.691406 0)"/>
      <use xlink:href="#DejaVuSans-6e" transform="translate(294.873047 0)"/>
     </g>
    </g>
    <g id="patch_12">
     <path d="M 565.015 115.847813 
L 585.015 115.847813 
L 585.015 108.847813 
L 565.015 108.847813 
z
" style="fill: #d3d3d3; stroke: #d3d3d3; stroke-linejoin: miter"/>
    </g>
    <g id="text_19">
     <!-- Canton Industrial Area -->
     <g transform="translate(593.015 115.847813) scale(0.1 -0.1)">
      <defs>
       <path id="DejaVuSans-75" d="M 544 1381 
L 544 3500 
L 1119 3500 
L 1119 1403 
Q 1119 906 1312 657 
Q 1506 409 1894 409 
Q 2359 409 2629 706 
Q 2900 1003 2900 1516 
L 2900 3500 
L 3475 3500 
L 3475 0 
L 2900 0 
L 2900 538 
Q 2691 219 2414 64 
Q 2138 -91 1772 -91 
Q 1169 -91 856 284 
Q 544 659 544 1381 
z
M 1991 3584 
L 1991 3584 
z
" transform="scale(0.015625)"/>
       <path id="DejaVuSans-41" d="M 2188 4044 
L 1331 1722 
L 3047 1722 
L 2188 4044 
z
M 1831 4666 
L 2547 4666 
L 4325 0 
L 3669 0 
L 3244 1197 
L 1141 1197 
L 716 0 
L 50 0 
L 1831 4666 
z
" transform="scale(0.015625)"/>
      </defs>
      <use xlink:href="#DejaVuSans-43"/>
      <use xlink:href="#DejaVuSans-61" transform="translate(69.824219 0)"/>
      <use xlink:href="#DejaVuSans-6e" transform="translate(131.103516 0)"/>
      <use xlink:href="#DejaVuSans-74" transform="translate(194.482422 0)"/>
      <use xlink:href="#DejaVuSans-6f" transform="translate(233.691406 0)"/>
      <use xlink:href="#DejaVuSans-6e" transform="translate(294.873047 0)"/>
      <use xlink:href="#DejaVuSans-20" transform="translate(358.251953 0)"/>
      <use xlink:href="#DejaVuSans-49" transform="translate(390.039062 0)"/>
      <use xlink:href="#DejaVuSans-6e" transform="translate(419.53125 0)"/>
      <use xlink:href="#DejaVuSans-64" transform="translate(482.910156 0)"/>
      <use xlink:href="#DejaVuSans-75" transform="translate(546.386719 0)"/>
      <use xlink:href="#DejaVuSans-73" transform="translate(609.765625 0)"/>
      <use xlink:href="#DejaVuSans-74" transform="translate(661.865234 0)"/>
      <use xlink:href="#DejaVuSans-72" transform="translate(701.074219 0)"/>
      <use xlink:href="#DejaVuSans-69" transform="translate(742.1875 0)"/>
      <use xlink:href="#DejaVuSans-61" transform="translate(769.970703 0)"/>
      <use xlink:href="#DejaVuSans-6c" transform="translate(831.25 0)"/>
      <use xlink:href="#DejaVuSans-20" transform="translate(859.033203 0)"/>
      <use xlink:href="#DejaVuSans-41" transform="translate(890.820312 0)"/>
      <use xlink:href="#DejaVuSans-72" transform="translate(959.228516 0)"/>
      <use xlink:href="#DejaVuSans-65" transform="translate(998.091797 0)"/>
      <use xlink:href="#DejaVuSans-61" transform="translate(1059.615234 0)"/>
     </g>
    </g>
    <g id="patch_13">
     <path d="M 565.015 130.525937 
L 585.015 130.525937 
L 585.015 123.525937 
L 565.015 123.525937 
z
" style="fill: #d3d3d3; stroke: #d3d3d3; stroke-linejoin: miter"/>
    </g>
    <g id="text_20">
     <!-- Clifton Park -->
     <g transform="translate(593.015 130.525937) scale(0.1 -0.1)">
      <defs>
       <path id="DejaVuSans-50" d="M 1259 4147 
L 1259 2394 
L 2053 2394 
Q 2494 2394 2734 2622 
Q 2975 2850 2975 3272 
Q 2975 3691 2734 3919 
Q 2494 4147 2053 4147 
L 1259 4147 
z
M 628 4666 
L 2053 4666 
Q 2838 4666 3239 4311 
Q 3641 3956 3641 3272 
Q 3641 2581 3239 2228 
Q 2838 1875 2053 1875 
L 1259 1875 
L 1259 0 
L 628 0 
L 628 4666 
z
" transform="scale(0.015625)"/>
       <path id="DejaVuSans-6b" d="M 581 4863 
L 1159 4863 
L 1159 1991 
L 2875 3500 
L 3609 3500 
L 1753 1863 
L 3688 0 
L 2938 0 
L 1159 1709 
L 1159 0 
L 581 0 
L 581 4863 
z
" transform="scale(0.015625)"/>
      </defs>
      <use xlink:href="#DejaVuSans-43"/>
      <use xlink:href="#DejaVuSans-6c" transform="translate(69.824219 0)"/>
      <use xlink:href="#DejaVuSans-69" transform="translate(97.607422 0)"/>
      <use xlink:href="#DejaVuSans-66" transform="translate(125.390625 0)"/>
      <use xlink:href="#DejaVuSans-74" transform="translate(158.845703 0)"/>
      <use xlink:href="#DejaVuSans-6f" transform="translate(198.054688 0)"/>
      <use xlink:href="#DejaVuSans-6e" transform="translate(259.236328 0)"/>
      <use xlink:href="#DejaVuSans-20" transform="translate(322.615234 0)"/>
      <use xlink:href="#DejaVuSans-50" transform="translate(354.402344 0)"/>
      <use xlink:href="#DejaVuSans-61" transform="translate(410.205078 0)"/>
      <use xlink:href="#DejaVuSans-72" transform="translate(471.484375 0)"/>
      <use xlink:href="#DejaVuSans-6b" transform="translate(512.597656 0)"/>
     </g>
    </g>
    <g id="patch_14">
     <path d="M 565.015 145.204063 
L 585.015 145.204063 
L 585.015 138.204063 
L 565.015 138.204063 
z
" style="fill: #d3d3d3; stroke: #d3d3d3; stroke-linejoin: miter"/>
    </g>
    <g id="text_21">
     <!-- Downtown -->
     <g transform="translate(593.015 145.204063) scale(0.1 -0.1)">
      <use xlink:href="#DejaVuSans-44"/>
      <use xlink:href="#DejaVuSans-6f" transform="translate(77.001953 0)"/>
      <use xlink:href="#DejaVuSans-77" transform="translate(138.183594 0)"/>
      <use xlink:href="#DejaVuSans-6e" transform="translate(219.970703 0)"/>
      <use xlink:href="#DejaVuSans-74" transform="translate(283.349609 0)"/>
      <use xlink:href="#DejaVuSans-6f" transform="translate(322.558594 0)"/>
      <use xlink:href="#DejaVuSans-77" transform="translate(383.740234 0)"/>
      <use xlink:href="#DejaVuSans-6e" transform="translate(465.527344 0)"/>
     </g>
    </g>
    <g id="patch_15">
     <path d="M 565.015 159.882187 
L 585.015 159.882187 
L 585.015 152.882187 
L 565.015 152.882187 
z
" style="fill: #9370db; stroke: #9370db; stroke-linejoin: miter"/>
    </g>
    <g id="text_22">
     <!-- Dunbar-Broadway -->
     <g transform="translate(593.015 159.882187) scale(0.1 -0.1)">
      <defs>
       <path id="DejaVuSans-2d" d="M 313 2009 
L 1997 2009 
L 1997 1497 
L 313 1497 
L 313 2009 
z
" transform="scale(0.015625)"/>
      </defs>
      <use xlink:href="#DejaVuSans-44"/>
      <use xlink:href="#DejaVuSans-75" transform="translate(77.001953 0)"/>
      <use xlink:href="#DejaVuSans-6e" transform="translate(140.380859 0)"/>
      <use xlink:href="#DejaVuSans-62" transform="translate(203.759766 0)"/>
      <use xlink:href="#DejaVuSans-61" transform="translate(267.236328 0)"/>
      <use xlink:href="#DejaVuSans-72" transform="translate(328.515625 0)"/>
      <use xlink:href="#DejaVuSans-2d" transform="translate(363.253906 0)"/>
      <use xlink:href="#DejaVuSans-42" transform="translate(395.712891 0)"/>
      <use xlink:href="#DejaVuSans-72" transform="translate(464.316406 0)"/>
      <use xlink:href="#DejaVuSans-6f" transform="translate(503.179688 0)"/>
      <use xlink:href="#DejaVuSans-61" transform="translate(564.361328 0)"/>
      <use xlink:href="#DejaVuSans-64" transform="translate(625.640625 0)"/>
      <use xlink:href="#DejaVuSans-77" transform="translate(689.117188 0)"/>
      <use xlink:href="#DejaVuSans-61" transform="translate(770.904297 0)"/>
      <use xlink:href="#DejaVuSans-79" transform="translate(832.183594 0)"/>
     </g>
    </g>
    <g id="patch_16">
     <path d="M 565.015 174.560313 
L 585.015 174.560313 
L 585.015 167.560313 
L 565.015 167.560313 
z
" style="fill: #9370db; stroke: #9370db; stroke-linejoin: miter"/>
    </g>
    <g id="text_23">
     <!-- Eager Park -->
     <g transform="translate(593.015 174.560313) scale(0.1 -0.1)">
      <use xlink:href="#DejaVuSans-45"/>
      <use xlink:href="#DejaVuSans-61" transform="translate(63.183594 0)"/>
      <use xlink:href="#DejaVuSans-67" transform="translate(124.462891 0)"/>
      <use xlink:href="#DejaVuSans-65" transform="translate(187.939453 0)"/>
      <use xlink:href="#DejaVuSans-72" transform="translate(249.462891 0)"/>
      <use xlink:href="#DejaVuSans-20" transform="translate(290.576172 0)"/>
      <use xlink:href="#DejaVuSans-50" transform="translate(322.363281 0)"/>
      <use xlink:href="#DejaVuSans-61" transform="translate(378.166016 0)"/>
      <use xlink:href="#DejaVuSans-72" transform="translate(439.445312 0)"/>
      <use xlink:href="#DejaVuSans-6b" transform="translate(480.558594 0)"/>
     </g>
    </g>
    <g id="patch_17">
     <path d="M 565.015 189.238437 
L 585.015 189.238437 
L 585.015 182.238437 
L 565.015 182.238437 
z
" style="fill: #d3d3d3; stroke: #d3d3d3; stroke-linejoin: miter"/>
    </g>
    <g id="text_24">
     <!-- Federal Hill -->
     <g transform="translate(593.015 189.238437) scale(0.1 -0.1)">
      <use xlink:href="#DejaVuSans-46"/>
      <use xlink:href="#DejaVuSans-65" transform="translate(52.019531 0)"/>
      <use xlink:href="#DejaVuSans-64" transform="translate(113.542969 0)"/>
      <use xlink:href="#DejaVuSans-65" transform="translate(177.019531 0)"/>
      <use xlink:href="#DejaVuSans-72" transform="translate(238.542969 0)"/>
      <use xlink:href="#DejaVuSans-61" transform="translate(279.65625 0)"/>
      <use xlink:href="#DejaVuSans-6c" transform="translate(340.935547 0)"/>
      <use xlink:href="#DejaVuSans-20" transform="translate(368.71875 0)"/>
      <use xlink:href="#DejaVuSans-48" transform="translate(400.505859 0)"/>
      <use xlink:href="#DejaVuSans-69" transform="translate(475.701172 0)"/>
      <use xlink:href="#DejaVuSans-6c" transform="translate(503.484375 0)"/>
      <use xlink:href="#DejaVuSans-6c" transform="translate(531.267578 0)"/>
     </g>
    </g>
    <g id="patch_18">
     <path d="M 565.015 203.916562 
L 585.015 203.916562 
L 585.015 196.916562 
L 565.015 196.916562 
z
" style="fill: #d3d3d3; stroke: #d3d3d3; stroke-linejoin: miter"/>
    </g>
    <g id="text_25">
     <!-- Fells Point -->
     <g transform="translate(593.015 203.916562) scale(0.1 -0.1)">
      <use xlink:href="#DejaVuSans-46"/>
      <use xlink:href="#DejaVuSans-65" transform="translate(52.019531 0)"/>
      <use xlink:href="#DejaVuSans-6c" transform="translate(113.542969 0)"/>
      <use xlink:href="#DejaVuSans-6c" transform="translate(141.326172 0)"/>
      <use xlink:href="#DejaVuSans-73" transform="translate(169.109375 0)"/>
      <use xlink:href="#DejaVuSans-20" transform="translate(221.208984 0)"/>
      <use xlink:href="#DejaVuSans-50" transform="translate(252.996094 0)"/>
      <use xlink:href="#DejaVuSans-6f" transform="translate(309.673828 0)"/>
      <use xlink:href="#DejaVuSans-69" transform="translate(370.855469 0)"/>
      <use xlink:href="#DejaVuSans-6e" transform="translate(398.638672 0)"/>
      <use xlink:href="#DejaVuSans-74" transform="translate(462.017578 0)"/>
     </g>
    </g>
    <g id="patch_19">
     <path d="M 565.015 218.594687 
L 585.015 218.594687 
L 585.015 211.594687 
L 565.015 211.594687 
z
" style="fill: #d3d3d3; stroke: #d3d3d3; stroke-linejoin: miter"/>
    </g>
    <g id="text_26">
     <!-- Kresson -->
     <g transform="translate(593.015 218.594687) scale(0.1 -0.1)">
      <defs>
       <path id="DejaVuSans-4b" d="M 628 4666 
L 1259 4666 
L 1259 2694 
L 3353 4666 
L 4166 4666 
L 1850 2491 
L 4331 0 
L 3500 0 
L 1259 2247 
L 1259 0 
L 628 0 
L 628 4666 
z
" transform="scale(0.015625)"/>
      </defs>
      <use xlink:href="#DejaVuSans-4b"/>
      <use xlink:href="#DejaVuSans-72" transform="translate(65.576172 0)"/>
      <use xlink:href="#DejaVuSans-65" transform="translate(104.439453 0)"/>
      <use xlink:href="#DejaVuSans-73" transform="translate(165.962891 0)"/>
      <use xlink:href="#DejaVuSans-73" transform="translate(218.0625 0)"/>
      <use xlink:href="#DejaVuSans-6f" transform="translate(270.162109 0)"/>
      <use xlink:href="#DejaVuSans-6e" transform="translate(331.34375 0)"/>
     </g>
    </g>
    <g id="patch_20">
     <path d="M 565.015 233.272812 
L 585.015 233.272812 
L 585.015 226.272812 
L 565.015 226.272812 
z
" style="fill: #d3d3d3; stroke: #d3d3d3; stroke-linejoin: miter"/>
    </g>
    <g id="text_27">
     <!-- Locust Point -->
     <g transform="translate(593.015 233.272812) scale(0.1 -0.1)">
      <defs>
       <path id="DejaVuSans-4c" d="M 628 4666 
L 1259 4666 
L 1259 531 
L 3531 531 
L 3531 0 
L 628 0 
L 628 4666 
z
" transform="scale(0.015625)"/>
      </defs>
      <use xlink:href="#DejaVuSans-4c"/>
      <use xlink:href="#DejaVuSans-6f" transform="translate(53.962891 0)"/>
      <use xlink:href="#DejaVuSans-63" transform="translate(115.144531 0)"/>
      <use xlink:href="#DejaVuSans-75" transform="translate(170.125 0)"/>
      <use xlink:href="#DejaVuSans-73" transform="translate(233.503906 0)"/>
      <use xlink:href="#DejaVuSans-74" transform="translate(285.603516 0)"/>
      <use xlink:href="#DejaVuSans-20" transform="translate(324.8125 0)"/>
      <use xlink:href="#DejaVuSans-50" transform="translate(356.599609 0)"/>
      <use xlink:href="#DejaVuSans-6f" transform="translate(413.277344 0)"/>
      <use xlink:href="#DejaVuSans-69" transform="translate(474.458984 0)"/>
      <use xlink:href="#DejaVuSans-6e" transform="translate(502.242188 0)"/>
      <use xlink:href="#DejaVuSans-74" transform="translate(565.621094 0)"/>
     </g>
    </g>
    <g id="patch_21">
     <path d="M 565.015 247.950937 
L 585.015 247.950937 
L 585.015 240.950937 
L 565.015 240.950937 
z
" style="fill: #d3d3d3; stroke: #d3d3d3; stroke-linejoin: miter"/>
    </g>
    <g id="text_28">
     <!-- Madison-Eastend -->
     <g transform="translate(593.015 247.950937) scale(0.1 -0.1)">
      <defs>
       <path id="DejaVuSans-4d" d="M 628 4666 
L 1569 4666 
L 2759 1491 
L 3956 4666 
L 4897 4666 
L 4897 0 
L 4281 0 
L 4281 4097 
L 3078 897 
L 2444 897 
L 1241 4097 
L 1241 0 
L 628 0 
L 628 4666 
z
" transform="scale(0.015625)"/>
      </defs>
      <use xlink:href="#DejaVuSans-4d"/>
      <use xlink:href="#DejaVuSans-61" transform="translate(86.279297 0)"/>
      <use xlink:href="#DejaVuSans-64" transform="translate(147.558594 0)"/>
      <use xlink:href="#DejaVuSans-69" transform="translate(211.035156 0)"/>
      <use xlink:href="#DejaVuSans-73" transform="translate(238.818359 0)"/>
      <use xlink:href="#DejaVuSans-6f" transform="translate(290.917969 0)"/>
      <use xlink:href="#DejaVuSans-6e" transform="translate(352.099609 0)"/>
      <use xlink:href="#DejaVuSans-2d" transform="translate(415.478516 0)"/>
      <use xlink:href="#DejaVuSans-45" transform="translate(451.5625 0)"/>
      <use xlink:href="#DejaVuSans-61" transform="translate(514.746094 0)"/>
      <use xlink:href="#DejaVuSans-73" transform="translate(576.025391 0)"/>
      <use xlink:href="#DejaVuSans-74" transform="translate(628.125 0)"/>
      <use xlink:href="#DejaVuSans-65" transform="translate(667.333984 0)"/>
      <use xlink:href="#DejaVuSans-6e" transform="translate(728.857422 0)"/>
      <use xlink:href="#DejaVuSans-64" transform="translate(792.236328 0)"/>
     </g>
    </g>
    <g id="patch_22">
     <path d="M 565.015 262.629062 
L 585.015 262.629062 
L 585.015 255.629062 
L 565.015 255.629062 
z
" style="fill: #d3d3d3; stroke: #d3d3d3; stroke-linejoin: miter"/>
    </g>
    <g id="text_29">
     <!-- McElderry Park -->
     <g transform="translate(593.015 262.629062) scale(0.1 -0.1)">
      <use xlink:href="#DejaVuSans-4d"/>
      <use xlink:href="#DejaVuSans-63" transform="translate(86.279297 0)"/>
      <use xlink:href="#DejaVuSans-45" transform="translate(141.259766 0)"/>
      <use xlink:href="#DejaVuSans-6c" transform="translate(204.443359 0)"/>
      <use xlink:href="#DejaVuSans-64" transform="translate(232.226562 0)"/>
      <use xlink:href="#DejaVuSans-65" transform="translate(295.703125 0)"/>
      <use xlink:href="#DejaVuSans-72" transform="translate(357.226562 0)"/>
      <use xlink:href="#DejaVuSans-72" transform="translate(396.589844 0)"/>
      <use xlink:href="#DejaVuSans-79" transform="translate(437.703125 0)"/>
      <use xlink:href="#DejaVuSans-20" transform="translate(496.882812 0)"/>
      <use xlink:href="#DejaVuSans-50" transform="translate(528.669922 0)"/>
      <use xlink:href="#DejaVuSans-61" transform="translate(584.472656 0)"/>
      <use xlink:href="#DejaVuSans-72" transform="translate(645.751953 0)"/>
      <use xlink:href="#DejaVuSans-6b" transform="translate(686.865234 0)"/>
     </g>
    </g>
    <g id="patch_23">
     <path d="M 565.015 277.307187 
L 585.015 277.307187 
L 585.015 270.307187 
L 565.015 270.307187 
z
" style="fill: #d3d3d3; stroke: #d3d3d3; stroke-linejoin: miter"/>
    </g>
    <g id="text_30">
     <!-- Orangeville -->
     <g transform="translate(593.015 277.307187) scale(0.1 -0.1)">
      <defs>
       <path id="DejaVuSans-4f" d="M 2522 4238 
Q 1834 4238 1429 3725 
Q 1025 3213 1025 2328 
Q 1025 1447 1429 934 
Q 1834 422 2522 422 
Q 3209 422 3611 934 
Q 4013 1447 4013 2328 
Q 4013 3213 3611 3725 
Q 3209 4238 2522 4238 
z
M 2522 4750 
Q 3503 4750 4090 4092 
Q 4678 3434 4678 2328 
Q 4678 1225 4090 567 
Q 3503 -91 2522 -91 
Q 1538 -91 948 565 
Q 359 1222 359 2328 
Q 359 3434 948 4092 
Q 1538 4750 2522 4750 
z
" transform="scale(0.015625)"/>
      </defs>
      <use xlink:href="#DejaVuSans-4f"/>
      <use xlink:href="#DejaVuSans-72" transform="translate(78.710938 0)"/>
      <use xlink:href="#DejaVuSans-61" transform="translate(119.824219 0)"/>
      <use xlink:href="#DejaVuSans-6e" transform="translate(181.103516 0)"/>
      <use xlink:href="#DejaVuSans-67" transform="translate(244.482422 0)"/>
      <use xlink:href="#DejaVuSans-65" transform="translate(307.958984 0)"/>
      <use xlink:href="#DejaVuSans-76" transform="translate(369.482422 0)"/>
      <use xlink:href="#DejaVuSans-69" transform="translate(428.662109 0)"/>
      <use xlink:href="#DejaVuSans-6c" transform="translate(456.445312 0)"/>
      <use xlink:href="#DejaVuSans-6c" transform="translate(484.228516 0)"/>
      <use xlink:href="#DejaVuSans-65" transform="translate(512.011719 0)"/>
     </g>
    </g>
    <g id="patch_24">
     <path d="M 565.015 291.985312 
L 585.015 291.985312 
L 585.015 284.985312 
L 565.015 284.985312 
z
" style="fill: #d3d3d3; stroke: #d3d3d3; stroke-linejoin: miter"/>
    </g>
    <g id="text_31">
     <!-- Patterson Park -->
     <g transform="translate(593.015 291.985312) scale(0.1 -0.1)">
      <use xlink:href="#DejaVuSans-50"/>
      <use xlink:href="#DejaVuSans-61" transform="translate(55.802734 0)"/>
      <use xlink:href="#DejaVuSans-74" transform="translate(117.082031 0)"/>
      <use xlink:href="#DejaVuSans-74" transform="translate(156.291016 0)"/>
      <use xlink:href="#DejaVuSans-65" transform="translate(195.5 0)"/>
      <use xlink:href="#DejaVuSans-72" transform="translate(257.023438 0)"/>
      <use xlink:href="#DejaVuSans-73" transform="translate(298.136719 0)"/>
      <use xlink:href="#DejaVuSans-6f" transform="translate(350.236328 0)"/>
      <use xlink:href="#DejaVuSans-6e" transform="translate(411.417969 0)"/>
      <use xlink:href="#DejaVuSans-20" transform="translate(474.796875 0)"/>
      <use xlink:href="#DejaVuSans-50" transform="translate(506.583984 0)"/>
      <use xlink:href="#DejaVuSans-61" transform="translate(562.386719 0)"/>
      <use xlink:href="#DejaVuSans-72" transform="translate(623.666016 0)"/>
      <use xlink:href="#DejaVuSans-6b" transform="translate(664.779297 0)"/>
     </g>
    </g>
    <g id="patch_25">
     <path d="M 565.015 306.663437 
L 585.015 306.663437 
L 585.015 299.663437 
L 565.015 299.663437 
z
" style="fill: #d3d3d3; stroke: #d3d3d3; stroke-linejoin: miter"/>
    </g>
    <g id="text_32">
     <!-- Upper Fells Point -->
     <g transform="translate(593.015 306.663437) scale(0.1 -0.1)">
      <defs>
       <path id="DejaVuSans-55" d="M 556 4666 
L 1191 4666 
L 1191 1831 
Q 1191 1081 1462 751 
Q 1734 422 2344 422 
Q 2950 422 3222 751 
Q 3494 1081 3494 1831 
L 3494 4666 
L 4128 4666 
L 4128 1753 
Q 4128 841 3676 375 
Q 3225 -91 2344 -91 
Q 1459 -91 1007 375 
Q 556 841 556 1753 
L 556 4666 
z
" transform="scale(0.015625)"/>
      </defs>
      <use xlink:href="#DejaVuSans-55"/>
      <use xlink:href="#DejaVuSans-70" transform="translate(73.193359 0)"/>
      <use xlink:href="#DejaVuSans-70" transform="translate(136.669922 0)"/>
      <use xlink:href="#DejaVuSans-65" transform="translate(200.146484 0)"/>
      <use xlink:href="#DejaVuSans-72" transform="translate(261.669922 0)"/>
      <use xlink:href="#DejaVuSans-20" transform="translate(302.783203 0)"/>
      <use xlink:href="#DejaVuSans-46" transform="translate(334.570312 0)"/>
      <use xlink:href="#DejaVuSans-65" transform="translate(386.589844 0)"/>
      <use xlink:href="#DejaVuSans-6c" transform="translate(448.113281 0)"/>
      <use xlink:href="#DejaVuSans-6c" transform="translate(475.896484 0)"/>
      <use xlink:href="#DejaVuSans-73" transform="translate(503.679688 0)"/>
      <use xlink:href="#DejaVuSans-20" transform="translate(555.779297 0)"/>
      <use xlink:href="#DejaVuSans-50" transform="translate(587.566406 0)"/>
      <use xlink:href="#DejaVuSans-6f" transform="translate(644.244141 0)"/>
      <use xlink:href="#DejaVuSans-69" transform="translate(705.425781 0)"/>
      <use xlink:href="#DejaVuSans-6e" transform="translate(733.208984 0)"/>
      <use xlink:href="#DejaVuSans-74" transform="translate(796.587891 0)"/>
     </g>
    </g>
    <g id="patch_26">
     <path d="M 565.015 321.341562 
L 585.015 321.341562 
L 585.015 314.341562 
L 565.015 314.341562 
z
" style="fill: #d3d3d3; stroke: #d3d3d3; stroke-linejoin: miter"/>
    </g>
    <g id="text_33">
     <!-- Washington Hill -->
     <g transform="translate(593.015 321.341562) scale(0.1 -0.1)">
      <defs>
       <path id="DejaVuSans-57" d="M 213 4666 
L 850 4666 
L 1831 722 
L 2809 4666 
L 3519 4666 
L 4500 722 
L 5478 4666 
L 6119 4666 
L 4947 0 
L 4153 0 
L 3169 4050 
L 2175 0 
L 1381 0 
L 213 4666 
z
" transform="scale(0.015625)"/>
      </defs>
      <use xlink:href="#DejaVuSans-57"/>
      <use xlink:href="#DejaVuSans-61" transform="translate(92.501953 0)"/>
      <use xlink:href="#DejaVuSans-73" transform="translate(153.78125 0)"/>
      <use xlink:href="#DejaVuSans-68" transform="translate(205.880859 0)"/>
      <use xlink:href="#DejaVuSans-69" transform="translate(269.259766 0)"/>
      <use xlink:href="#DejaVuSans-6e" transform="translate(297.042969 0)"/>
      <use xlink:href="#DejaVuSans-67" transform="translate(360.421875 0)"/>
      <use xlink:href="#DejaVuSans-74" transform="translate(423.898438 0)"/>
      <use xlink:href="#DejaVuSans-6f" transform="translate(463.107422 0)"/>
      <use xlink:href="#DejaVuSans-6e" transform="translate(524.289062 0)"/>
      <use xlink:href="#DejaVuSans-20" transform="translate(587.667969 0)"/>
      <use xlink:href="#DejaVuSans-48" transform="translate(619.455078 0)"/>
      <use xlink:href="#DejaVuSans-69" transform="translate(694.650391 0)"/>
      <use xlink:href="#DejaVuSans-6c" transform="translate(722.433594 0)"/>
      <use xlink:href="#DejaVuSans-6c" transform="translate(750.216797 0)"/>
     </g>
    </g>
   </g>
  </g>
 </g>
 <defs>
  <clipPath id="p581f38a6e5">
   <rect x="62.48" y="26.16" width="493.535" height="305.96"/>
  </clipPath>
 </defs>
</svg>
