<?xml version="1.0" encoding="utf-8" standalone="no"?>
<!DOCTYPE svg PUBLIC "-//W3C//DTD SVG 1.1//EN"
  "http://www.w3.org/Graphics/SVG/1.1/DTD/svg11.dtd">
<svg xmlns:xlink="http://www.w3.org/1999/xlink" width="1944pt" height="360pt" viewBox="0 0 1944 360" xmlns="http://www.w3.org/2000/svg" version="1.1">
 <metadata>
  <rdf:RDF xmlns:dc="http://purl.org/dc/elements/1.1/" xmlns:cc="http://creativecommons.org/ns#" xmlns:rdf="http://www.w3.org/1999/02/22-rdf-syntax-ns#">
   <cc:Work>
    <dc:type rdf:resource="http://purl.org/dc/dcmitype/StillImage"/>
    <dc:date>2025-07-16T13:40:06.540692</dc:date>
    <dc:format>image/svg+xml</dc:format>
    <dc:creator>
     <cc:Agent>
      <dc:title>Matplotlib v3.10.0, https://matplotlib.org/</dc:title>
     </cc:Agent>
    </dc:creator>
   </cc:Work>
  </rdf:RDF>
 </metadata>
 <defs>
  <style type="text/css">*{stroke-linejoin: round; stroke-linecap: butt}</style>
 </defs>
 <g id="figure_1">
  <g id="patch_1">
   <path d="M 0 360 
L 1944 360 
L 1944 0 
L 0 0 
z
" style="fill: #ffffff"/>
  </g>
  <g id="axes_1">
   <g id="patch_2">
    <path d="M 62.48 318.04 
L 1896.235 318.04 
L 1896.235 26.16 
L 62.48 26.16 
z
" style="fill: #ffffff"/>
   </g>
   <g id="matplotlib.axis_1">
    <g id="xtick_1">
     <g id="line2d_1">
      <defs>
       <path id="m5f07e1d372" d="M 0 0 
L 0 3.5 
" style="stroke: #000000; stroke-width: 0.8"/>
      </defs>
      <g>
       <use xlink:href="#m5f07e1d372" x="180.374525" y="318.04" style="stroke: #000000; stroke-width: 0.8"/>
      </g>
     </g>
     <g id="text_1">
      <!-- 03:00 -->
      <g transform="translate(165.96515 332.638438) scale(0.1 -0.1)">
       <defs>
        <path id="DejaVuSans-30" d="M 2034 4250 
Q 1547 4250 1301 3770 
Q 1056 3291 1056 2328 
Q 1056 1369 1301 889 
Q 1547 409 2034 409 
Q 2525 409 2770 889 
Q 3016 1369 3016 2328 
Q 3016 3291 2770 3770 
Q 2525 4250 2034 4250 
z
M 2034 4750 
Q 2819 4750 3233 4129 
Q 3647 3509 3647 2328 
Q 3647 1150 3233 529 
Q 2819 -91 2034 -91 
Q 1250 -91 836 529 
Q 422 1150 422 2328 
Q 422 3509 836 4129 
Q 1250 4750 2034 4750 
z
" transform="scale(0.015625)"/>
        <path id="DejaVuSans-33" d="M 2597 2516 
Q 3050 2419 3304 2112 
Q 3559 1806 3559 1356 
Q 3559 666 3084 287 
Q 2609 -91 1734 -91 
Q 1441 -91 1130 -33 
Q 819 25 488 141 
L 488 750 
Q 750 597 1062 519 
Q 1375 441 1716 441 
Q 2309 441 2620 675 
Q 2931 909 2931 1356 
Q 2931 1769 2642 2001 
Q 2353 2234 1838 2234 
L 1294 2234 
L 1294 2753 
L 1863 2753 
Q 2328 2753 2575 2939 
Q 2822 3125 2822 3475 
Q 2822 3834 2567 4026 
Q 2313 4219 1838 4219 
Q 1578 4219 1281 4162 
Q 984 4106 628 3988 
L 628 4550 
Q 988 4650 1302 4700 
Q 1616 4750 1894 4750 
Q 2613 4750 3031 4423 
Q 3450 4097 3450 3541 
Q 3450 3153 3228 2886 
Q 3006 2619 2597 2516 
z
" transform="scale(0.015625)"/>
        <path id="DejaVuSans-3a" d="M 750 794 
L 1409 794 
L 1409 0 
L 750 0 
L 750 794 
z
M 750 3309 
L 1409 3309 
L 1409 2516 
L 750 2516 
L 750 3309 
z
" transform="scale(0.015625)"/>
       </defs>
       <use xlink:href="#DejaVuSans-30"/>
       <use xlink:href="#DejaVuSans-33" transform="translate(63.623047 0)"/>
       <use xlink:href="#DejaVuSans-3a" transform="translate(127.246094 0)"/>
       <use xlink:href="#DejaVuSans-30" transform="translate(160.9375 0)"/>
       <use xlink:href="#DejaVuSans-30" transform="translate(224.560547 0)"/>
      </g>
     </g>
    </g>
    <g id="xtick_2">
     <g id="line2d_2">
      <g>
       <use xlink:href="#m5f07e1d372" x="366.121324" y="318.04" style="stroke: #000000; stroke-width: 0.8"/>
      </g>
     </g>
     <g id="text_2">
      <!-- 06:00 -->
      <g transform="translate(351.711949 332.638438) scale(0.1 -0.1)">
       <defs>
        <path id="DejaVuSans-36" d="M 2113 2584 
Q 1688 2584 1439 2293 
Q 1191 2003 1191 1497 
Q 1191 994 1439 701 
Q 1688 409 2113 409 
Q 2538 409 2786 701 
Q 3034 994 3034 1497 
Q 3034 2003 2786 2293 
Q 2538 2584 2113 2584 
z
M 3366 4563 
L 3366 3988 
Q 3128 4100 2886 4159 
Q 2644 4219 2406 4219 
Q 1781 4219 1451 3797 
Q 1122 3375 1075 2522 
Q 1259 2794 1537 2939 
Q 1816 3084 2150 3084 
Q 2853 3084 3261 2657 
Q 3669 2231 3669 1497 
Q 3669 778 3244 343 
Q 2819 -91 2113 -91 
Q 1303 -91 875 529 
Q 447 1150 447 2328 
Q 447 3434 972 4092 
Q 1497 4750 2381 4750 
Q 2619 4750 2861 4703 
Q 3103 4656 3366 4563 
z
" transform="scale(0.015625)"/>
       </defs>
       <use xlink:href="#DejaVuSans-30"/>
       <use xlink:href="#DejaVuSans-36" transform="translate(63.623047 0)"/>
       <use xlink:href="#DejaVuSans-3a" transform="translate(127.246094 0)"/>
       <use xlink:href="#DejaVuSans-30" transform="translate(160.9375 0)"/>
       <use xlink:href="#DejaVuSans-30" transform="translate(224.560547 0)"/>
      </g>
     </g>
    </g>
    <g id="xtick_3">
     <g id="line2d_3">
      <g>
       <use xlink:href="#m5f07e1d372" x="551.868122" y="318.04" style="stroke: #000000; stroke-width: 0.8"/>
      </g>
     </g>
     <g id="text_3">
      <!-- 09:00 -->
      <g transform="translate(537.458747 332.638438) scale(0.1 -0.1)">
       <defs>
        <path id="DejaVuSans-39" d="M 703 97 
L 703 672 
Q 941 559 1184 500 
Q 1428 441 1663 441 
Q 2288 441 2617 861 
Q 2947 1281 2994 2138 
Q 2813 1869 2534 1725 
Q 2256 1581 1919 1581 
Q 1219 1581 811 2004 
Q 403 2428 403 3163 
Q 403 3881 828 4315 
Q 1253 4750 1959 4750 
Q 2769 4750 3195 4129 
Q 3622 3509 3622 2328 
Q 3622 1225 3098 567 
Q 2575 -91 1691 -91 
Q 1453 -91 1209 -44 
Q 966 3 703 97 
z
M 1959 2075 
Q 2384 2075 2632 2365 
Q 2881 2656 2881 3163 
Q 2881 3666 2632 3958 
Q 2384 4250 1959 4250 
Q 1534 4250 1286 3958 
Q 1038 3666 1038 3163 
Q 1038 2656 1286 2365 
Q 1534 2075 1959 2075 
z
" transform="scale(0.015625)"/>
       </defs>
       <use xlink:href="#DejaVuSans-30"/>
       <use xlink:href="#DejaVuSans-39" transform="translate(63.623047 0)"/>
       <use xlink:href="#DejaVuSans-3a" transform="translate(127.246094 0)"/>
       <use xlink:href="#DejaVuSans-30" transform="translate(160.9375 0)"/>
       <use xlink:href="#DejaVuSans-30" transform="translate(224.560547 0)"/>
      </g>
     </g>
    </g>
    <g id="xtick_4">
     <g id="line2d_4">
      <g>
       <use xlink:href="#m5f07e1d372" x="737.614921" y="318.04" style="stroke: #000000; stroke-width: 0.8"/>
      </g>
     </g>
     <g id="text_4">
      <!-- 12:00 -->
      <g transform="translate(723.205546 332.638438) scale(0.1 -0.1)">
       <defs>
        <path id="DejaVuSans-31" d="M 794 531 
L 1825 531 
L 1825 4091 
L 703 3866 
L 703 4441 
L 1819 4666 
L 2450 4666 
L 2450 531 
L 3481 531 
L 3481 0 
L 794 0 
L 794 531 
z
" transform="scale(0.015625)"/>
        <path id="DejaVuSans-32" d="M 1228 531 
L 3431 531 
L 3431 0 
L 469 0 
L 469 531 
Q 828 903 1448 1529 
Q 2069 2156 2228 2338 
Q 2531 2678 2651 2914 
Q 2772 3150 2772 3378 
Q 2772 3750 2511 3984 
Q 2250 4219 1831 4219 
Q 1534 4219 1204 4116 
Q 875 4013 500 3803 
L 500 4441 
Q 881 4594 1212 4672 
Q 1544 4750 1819 4750 
Q 2544 4750 2975 4387 
Q 3406 4025 3406 3419 
Q 3406 3131 3298 2873 
Q 3191 2616 2906 2266 
Q 2828 2175 2409 1742 
Q 1991 1309 1228 531 
z
" transform="scale(0.015625)"/>
       </defs>
       <use xlink:href="#DejaVuSans-31"/>
       <use xlink:href="#DejaVuSans-32" transform="translate(63.623047 0)"/>
       <use xlink:href="#DejaVuSans-3a" transform="translate(127.246094 0)"/>
       <use xlink:href="#DejaVuSans-30" transform="translate(160.9375 0)"/>
       <use xlink:href="#DejaVuSans-30" transform="translate(224.560547 0)"/>
      </g>
     </g>
    </g>
    <g id="xtick_5">
     <g id="line2d_5">
      <g>
       <use xlink:href="#m5f07e1d372" x="923.36172" y="318.04" style="stroke: #000000; stroke-width: 0.8"/>
      </g>
     </g>
     <g id="text_5">
      <!-- 15:00 -->
      <g transform="translate(908.952345 332.638438) scale(0.1 -0.1)">
       <defs>
        <path id="DejaVuSans-35" d="M 691 4666 
L 3169 4666 
L 3169 4134 
L 1269 4134 
L 1269 2991 
Q 1406 3038 1543 3061 
Q 1681 3084 1819 3084 
Q 2600 3084 3056 2656 
Q 3513 2228 3513 1497 
Q 3513 744 3044 326 
Q 2575 -91 1722 -91 
Q 1428 -91 1123 -41 
Q 819 9 494 109 
L 494 744 
Q 775 591 1075 516 
Q 1375 441 1709 441 
Q 2250 441 2565 725 
Q 2881 1009 2881 1497 
Q 2881 1984 2565 2268 
Q 2250 2553 1709 2553 
Q 1456 2553 1204 2497 
Q 953 2441 691 2322 
L 691 4666 
z
" transform="scale(0.015625)"/>
       </defs>
       <use xlink:href="#DejaVuSans-31"/>
       <use xlink:href="#DejaVuSans-35" transform="translate(63.623047 0)"/>
       <use xlink:href="#DejaVuSans-3a" transform="translate(127.246094 0)"/>
       <use xlink:href="#DejaVuSans-30" transform="translate(160.9375 0)"/>
       <use xlink:href="#DejaVuSans-30" transform="translate(224.560547 0)"/>
      </g>
     </g>
    </g>
    <g id="xtick_6">
     <g id="line2d_6">
      <g>
       <use xlink:href="#m5f07e1d372" x="1109.108518" y="318.04" style="stroke: #000000; stroke-width: 0.8"/>
      </g>
     </g>
     <g id="text_6">
      <!-- 18:00 -->
      <g transform="translate(1094.699143 332.638438) scale(0.1 -0.1)">
       <defs>
        <path id="DejaVuSans-38" d="M 2034 2216 
Q 1584 2216 1326 1975 
Q 1069 1734 1069 1313 
Q 1069 891 1326 650 
Q 1584 409 2034 409 
Q 2484 409 2743 651 
Q 3003 894 3003 1313 
Q 3003 1734 2745 1975 
Q 2488 2216 2034 2216 
z
M 1403 2484 
Q 997 2584 770 2862 
Q 544 3141 544 3541 
Q 544 4100 942 4425 
Q 1341 4750 2034 4750 
Q 2731 4750 3128 4425 
Q 3525 4100 3525 3541 
Q 3525 3141 3298 2862 
Q 3072 2584 2669 2484 
Q 3125 2378 3379 2068 
Q 3634 1759 3634 1313 
Q 3634 634 3220 271 
Q 2806 -91 2034 -91 
Q 1263 -91 848 271 
Q 434 634 434 1313 
Q 434 1759 690 2068 
Q 947 2378 1403 2484 
z
M 1172 3481 
Q 1172 3119 1398 2916 
Q 1625 2713 2034 2713 
Q 2441 2713 2670 2916 
Q 2900 3119 2900 3481 
Q 2900 3844 2670 4047 
Q 2441 4250 2034 4250 
Q 1625 4250 1398 4047 
Q 1172 3844 1172 3481 
z
" transform="scale(0.015625)"/>
       </defs>
       <use xlink:href="#DejaVuSans-31"/>
       <use xlink:href="#DejaVuSans-38" transform="translate(63.623047 0)"/>
       <use xlink:href="#DejaVuSans-3a" transform="translate(127.246094 0)"/>
       <use xlink:href="#DejaVuSans-30" transform="translate(160.9375 0)"/>
       <use xlink:href="#DejaVuSans-30" transform="translate(224.560547 0)"/>
      </g>
     </g>
    </g>
    <g id="xtick_7">
     <g id="line2d_7">
      <g>
       <use xlink:href="#m5f07e1d372" x="1294.855317" y="318.04" style="stroke: #000000; stroke-width: 0.8"/>
      </g>
     </g>
     <g id="text_7">
      <!-- 21:00 -->
      <g transform="translate(1280.445942 332.638438) scale(0.1 -0.1)">
       <use xlink:href="#DejaVuSans-32"/>
       <use xlink:href="#DejaVuSans-31" transform="translate(63.623047 0)"/>
       <use xlink:href="#DejaVuSans-3a" transform="translate(127.246094 0)"/>
       <use xlink:href="#DejaVuSans-30" transform="translate(160.9375 0)"/>
       <use xlink:href="#DejaVuSans-30" transform="translate(224.560547 0)"/>
      </g>
     </g>
    </g>
    <g id="xtick_8">
     <g id="line2d_8">
      <g>
       <use xlink:href="#m5f07e1d372" x="1480.602116" y="318.04" style="stroke: #000000; stroke-width: 0.8"/>
      </g>
     </g>
     <g id="text_8">
      <!-- 00:00 -->
      <g transform="translate(1466.192741 332.638438) scale(0.1 -0.1)">
       <use xlink:href="#DejaVuSans-30"/>
       <use xlink:href="#DejaVuSans-30" transform="translate(63.623047 0)"/>
       <use xlink:href="#DejaVuSans-3a" transform="translate(127.246094 0)"/>
       <use xlink:href="#DejaVuSans-30" transform="translate(160.9375 0)"/>
       <use xlink:href="#DejaVuSans-30" transform="translate(224.560547 0)"/>
      </g>
     </g>
    </g>
    <g id="xtick_9">
     <g id="line2d_9">
      <g>
       <use xlink:href="#m5f07e1d372" x="1666.348914" y="318.04" style="stroke: #000000; stroke-width: 0.8"/>
      </g>
     </g>
     <g id="text_9">
      <!-- 03:00 -->
      <g transform="translate(1651.939539 332.638438) scale(0.1 -0.1)">
       <use xlink:href="#DejaVuSans-30"/>
       <use xlink:href="#DejaVuSans-33" transform="translate(63.623047 0)"/>
       <use xlink:href="#DejaVuSans-3a" transform="translate(127.246094 0)"/>
       <use xlink:href="#DejaVuSans-30" transform="translate(160.9375 0)"/>
       <use xlink:href="#DejaVuSans-30" transform="translate(224.560547 0)"/>
      </g>
     </g>
    </g>
    <g id="xtick_10">
     <g id="line2d_10">
      <g>
       <use xlink:href="#m5f07e1d372" x="1852.095713" y="318.04" style="stroke: #000000; stroke-width: 0.8"/>
      </g>
     </g>
     <g id="text_10">
      <!-- 06:00 -->
      <g transform="translate(1837.686338 332.638438) scale(0.1 -0.1)">
       <use xlink:href="#DejaVuSans-30"/>
       <use xlink:href="#DejaVuSans-36" transform="translate(63.623047 0)"/>
       <use xlink:href="#DejaVuSans-3a" transform="translate(127.246094 0)"/>
       <use xlink:href="#DejaVuSans-30" transform="translate(160.9375 0)"/>
       <use xlink:href="#DejaVuSans-30" transform="translate(224.560547 0)"/>
      </g>
     </g>
    </g>
    <g id="text_11">
     <!-- Time of Day -->
     <g transform="translate(949.252813 346.316563) scale(0.1 -0.1)">
      <defs>
       <path id="DejaVuSans-54" d="M -19 4666 
L 3928 4666 
L 3928 4134 
L 2272 4134 
L 2272 0 
L 1638 0 
L 1638 4134 
L -19 4134 
L -19 4666 
z
" transform="scale(0.015625)"/>
       <path id="DejaVuSans-69" d="M 603 3500 
L 1178 3500 
L 1178 0 
L 603 0 
L 603 3500 
z
M 603 4863 
L 1178 4863 
L 1178 4134 
L 603 4134 
L 603 4863 
z
" transform="scale(0.015625)"/>
       <path id="DejaVuSans-6d" d="M 3328 2828 
Q 3544 3216 3844 3400 
Q 4144 3584 4550 3584 
Q 5097 3584 5394 3201 
Q 5691 2819 5691 2113 
L 5691 0 
L 5113 0 
L 5113 2094 
Q 5113 2597 4934 2840 
Q 4756 3084 4391 3084 
Q 3944 3084 3684 2787 
Q 3425 2491 3425 1978 
L 3425 0 
L 2847 0 
L 2847 2094 
Q 2847 2600 2669 2842 
Q 2491 3084 2119 3084 
Q 1678 3084 1418 2786 
Q 1159 2488 1159 1978 
L 1159 0 
L 581 0 
L 581 3500 
L 1159 3500 
L 1159 2956 
Q 1356 3278 1631 3431 
Q 1906 3584 2284 3584 
Q 2666 3584 2933 3390 
Q 3200 3197 3328 2828 
z
" transform="scale(0.015625)"/>
       <path id="DejaVuSans-65" d="M 3597 1894 
L 3597 1613 
L 953 1613 
Q 991 1019 1311 708 
Q 1631 397 2203 397 
Q 2534 397 2845 478 
Q 3156 559 3463 722 
L 3463 178 
Q 3153 47 2828 -22 
Q 2503 -91 2169 -91 
Q 1331 -91 842 396 
Q 353 884 353 1716 
Q 353 2575 817 3079 
Q 1281 3584 2069 3584 
Q 2775 3584 3186 3129 
Q 3597 2675 3597 1894 
z
M 3022 2063 
Q 3016 2534 2758 2815 
Q 2500 3097 2075 3097 
Q 1594 3097 1305 2825 
Q 1016 2553 972 2059 
L 3022 2063 
z
" transform="scale(0.015625)"/>
       <path id="DejaVuSans-20" transform="scale(0.015625)"/>
       <path id="DejaVuSans-6f" d="M 1959 3097 
Q 1497 3097 1228 2736 
Q 959 2375 959 1747 
Q 959 1119 1226 758 
Q 1494 397 1959 397 
Q 2419 397 2687 759 
Q 2956 1122 2956 1747 
Q 2956 2369 2687 2733 
Q 2419 3097 1959 3097 
z
M 1959 3584 
Q 2709 3584 3137 3096 
Q 3566 2609 3566 1747 
Q 3566 888 3137 398 
Q 2709 -91 1959 -91 
Q 1206 -91 779 398 
Q 353 888 353 1747 
Q 353 2609 779 3096 
Q 1206 3584 1959 3584 
z
" transform="scale(0.015625)"/>
       <path id="DejaVuSans-66" d="M 2375 4863 
L 2375 4384 
L 1825 4384 
Q 1516 4384 1395 4259 
Q 1275 4134 1275 3809 
L 1275 3500 
L 2222 3500 
L 2222 3053 
L 1275 3053 
L 1275 0 
L 697 0 
L 697 3053 
L 147 3053 
L 147 3500 
L 697 3500 
L 697 3744 
Q 697 4328 969 4595 
Q 1241 4863 1831 4863 
L 2375 4863 
z
" transform="scale(0.015625)"/>
       <path id="DejaVuSans-44" d="M 1259 4147 
L 1259 519 
L 2022 519 
Q 2988 519 3436 956 
Q 3884 1394 3884 2338 
Q 3884 3275 3436 3711 
Q 2988 4147 2022 4147 
L 1259 4147 
z
M 628 4666 
L 1925 4666 
Q 3281 4666 3915 4102 
Q 4550 3538 4550 2338 
Q 4550 1131 3912 565 
Q 3275 0 1925 0 
L 628 0 
L 628 4666 
z
" transform="scale(0.015625)"/>
       <path id="DejaVuSans-61" d="M 2194 1759 
Q 1497 1759 1228 1600 
Q 959 1441 959 1056 
Q 959 750 1161 570 
Q 1363 391 1709 391 
Q 2188 391 2477 730 
Q 2766 1069 2766 1631 
L 2766 1759 
L 2194 1759 
z
M 3341 1997 
L 3341 0 
L 2766 0 
L 2766 531 
Q 2569 213 2275 61 
Q 1981 -91 1556 -91 
Q 1019 -91 701 211 
Q 384 513 384 1019 
Q 384 1609 779 1909 
Q 1175 2209 1959 2209 
L 2766 2209 
L 2766 2266 
Q 2766 2663 2505 2880 
Q 2244 3097 1772 3097 
Q 1472 3097 1187 3025 
Q 903 2953 641 2809 
L 641 3341 
Q 956 3463 1253 3523 
Q 1550 3584 1831 3584 
Q 2591 3584 2966 3190 
Q 3341 2797 3341 1997 
z
" transform="scale(0.015625)"/>
       <path id="DejaVuSans-79" d="M 2059 -325 
Q 1816 -950 1584 -1140 
Q 1353 -1331 966 -1331 
L 506 -1331 
L 506 -850 
L 844 -850 
Q 1081 -850 1212 -737 
Q 1344 -625 1503 -206 
L 1606 56 
L 191 3500 
L 800 3500 
L 1894 763 
L 2988 3500 
L 3597 3500 
L 2059 -325 
z
" transform="scale(0.015625)"/>
      </defs>
      <use xlink:href="#DejaVuSans-54"/>
      <use xlink:href="#DejaVuSans-69" transform="translate(57.958984 0)"/>
      <use xlink:href="#DejaVuSans-6d" transform="translate(85.742188 0)"/>
      <use xlink:href="#DejaVuSans-65" transform="translate(183.154297 0)"/>
      <use xlink:href="#DejaVuSans-20" transform="translate(244.677734 0)"/>
      <use xlink:href="#DejaVuSans-6f" transform="translate(276.464844 0)"/>
      <use xlink:href="#DejaVuSans-66" transform="translate(337.646484 0)"/>
      <use xlink:href="#DejaVuSans-20" transform="translate(372.851562 0)"/>
      <use xlink:href="#DejaVuSans-44" transform="translate(404.638672 0)"/>
      <use xlink:href="#DejaVuSans-61" transform="translate(481.640625 0)"/>
      <use xlink:href="#DejaVuSans-79" transform="translate(542.919922 0)"/>
     </g>
    </g>
   </g>
   <g id="matplotlib.axis_2">
    <g id="ytick_1">
     <g id="line2d_11">
      <path d="M 62.48 318.04 
L 1896.235 318.04 
" clip-path="url(#p77beec2f04)" style="fill: none; stroke: #b0b0b0; stroke-width: 0.8; stroke-linecap: square"/>
     </g>
     <g id="line2d_12">
      <defs>
       <path id="m0d67757029" d="M 0 0 
L -3.5 0 
" style="stroke: #000000; stroke-width: 0.8"/>
      </defs>
      <g>
       <use xlink:href="#m0d67757029" x="62.48" y="318.04" style="stroke: #000000; stroke-width: 0.8"/>
      </g>
     </g>
     <g id="text_12">
      <!-- −0.05 -->
      <g transform="translate(24.834688 321.839219) scale(0.1 -0.1)">
       <defs>
        <path id="DejaVuSans-2212" d="M 678 2272 
L 4684 2272 
L 4684 1741 
L 678 1741 
L 678 2272 
z
" transform="scale(0.015625)"/>
        <path id="DejaVuSans-2e" d="M 684 794 
L 1344 794 
L 1344 0 
L 684 0 
L 684 794 
z
" transform="scale(0.015625)"/>
       </defs>
       <use xlink:href="#DejaVuSans-2212"/>
       <use xlink:href="#DejaVuSans-30" transform="translate(83.789062 0)"/>
       <use xlink:href="#DejaVuSans-2e" transform="translate(147.412109 0)"/>
       <use xlink:href="#DejaVuSans-30" transform="translate(179.199219 0)"/>
       <use xlink:href="#DejaVuSans-35" transform="translate(242.822266 0)"/>
      </g>
     </g>
    </g>
    <g id="ytick_2">
     <g id="line2d_13">
      <path d="M 62.48 285.608889 
L 1896.235 285.608889 
" clip-path="url(#p77beec2f04)" style="fill: none; stroke: #b0b0b0; stroke-width: 0.8; stroke-linecap: square"/>
     </g>
     <g id="line2d_14">
      <g>
       <use xlink:href="#m0d67757029" x="62.48" y="285.608889" style="stroke: #000000; stroke-width: 0.8"/>
      </g>
     </g>
     <g id="text_13">
      <!-- 0.00 -->
      <g transform="translate(33.214375 289.408108) scale(0.1 -0.1)">
       <use xlink:href="#DejaVuSans-30"/>
       <use xlink:href="#DejaVuSans-2e" transform="translate(63.623047 0)"/>
       <use xlink:href="#DejaVuSans-30" transform="translate(95.410156 0)"/>
       <use xlink:href="#DejaVuSans-30" transform="translate(159.033203 0)"/>
      </g>
     </g>
    </g>
    <g id="ytick_3">
     <g id="line2d_15">
      <path d="M 62.48 253.177778 
L 1896.235 253.177778 
" clip-path="url(#p77beec2f04)" style="fill: none; stroke: #b0b0b0; stroke-width: 0.8; stroke-linecap: square"/>
     </g>
     <g id="line2d_16">
      <g>
       <use xlink:href="#m0d67757029" x="62.48" y="253.177778" style="stroke: #000000; stroke-width: 0.8"/>
      </g>
     </g>
     <g id="text_14">
      <!-- 0.05 -->
      <g transform="translate(33.214375 256.976997) scale(0.1 -0.1)">
       <use xlink:href="#DejaVuSans-30"/>
       <use xlink:href="#DejaVuSans-2e" transform="translate(63.623047 0)"/>
       <use xlink:href="#DejaVuSans-30" transform="translate(95.410156 0)"/>
       <use xlink:href="#DejaVuSans-35" transform="translate(159.033203 0)"/>
      </g>
     </g>
    </g>
    <g id="ytick_4">
     <g id="line2d_17">
      <path d="M 62.48 220.746667 
L 1896.235 220.746667 
" clip-path="url(#p77beec2f04)" style="fill: none; stroke: #b0b0b0; stroke-width: 0.8; stroke-linecap: square"/>
     </g>
     <g id="line2d_18">
      <g>
       <use xlink:href="#m0d67757029" x="62.48" y="220.746667" style="stroke: #000000; stroke-width: 0.8"/>
      </g>
     </g>
     <g id="text_15">
      <!-- 0.10 -->
      <g transform="translate(33.214375 224.545885) scale(0.1 -0.1)">
       <use xlink:href="#DejaVuSans-30"/>
       <use xlink:href="#DejaVuSans-2e" transform="translate(63.623047 0)"/>
       <use xlink:href="#DejaVuSans-31" transform="translate(95.410156 0)"/>
       <use xlink:href="#DejaVuSans-30" transform="translate(159.033203 0)"/>
      </g>
     </g>
    </g>
    <g id="ytick_5">
     <g id="line2d_19">
      <path d="M 62.48 188.315556 
L 1896.235 188.315556 
" clip-path="url(#p77beec2f04)" style="fill: none; stroke: #b0b0b0; stroke-width: 0.8; stroke-linecap: square"/>
     </g>
     <g id="line2d_20">
      <g>
       <use xlink:href="#m0d67757029" x="62.48" y="188.315556" style="stroke: #000000; stroke-width: 0.8"/>
      </g>
     </g>
     <g id="text_16">
      <!-- 0.15 -->
      <g transform="translate(33.214375 192.114774) scale(0.1 -0.1)">
       <use xlink:href="#DejaVuSans-30"/>
       <use xlink:href="#DejaVuSans-2e" transform="translate(63.623047 0)"/>
       <use xlink:href="#DejaVuSans-31" transform="translate(95.410156 0)"/>
       <use xlink:href="#DejaVuSans-35" transform="translate(159.033203 0)"/>
      </g>
     </g>
    </g>
    <g id="ytick_6">
     <g id="line2d_21">
      <path d="M 62.48 155.884444 
L 1896.235 155.884444 
" clip-path="url(#p77beec2f04)" style="fill: none; stroke: #b0b0b0; stroke-width: 0.8; stroke-linecap: square"/>
     </g>
     <g id="line2d_22">
      <g>
       <use xlink:href="#m0d67757029" x="62.48" y="155.884444" style="stroke: #000000; stroke-width: 0.8"/>
      </g>
     </g>
     <g id="text_17">
      <!-- 0.20 -->
      <g transform="translate(33.214375 159.683663) scale(0.1 -0.1)">
       <use xlink:href="#DejaVuSans-30"/>
       <use xlink:href="#DejaVuSans-2e" transform="translate(63.623047 0)"/>
       <use xlink:href="#DejaVuSans-32" transform="translate(95.410156 0)"/>
       <use xlink:href="#DejaVuSans-30" transform="translate(159.033203 0)"/>
      </g>
     </g>
    </g>
    <g id="ytick_7">
     <g id="line2d_23">
      <path d="M 62.48 123.453333 
L 1896.235 123.453333 
" clip-path="url(#p77beec2f04)" style="fill: none; stroke: #b0b0b0; stroke-width: 0.8; stroke-linecap: square"/>
     </g>
     <g id="line2d_24">
      <g>
       <use xlink:href="#m0d67757029" x="62.48" y="123.453333" style="stroke: #000000; stroke-width: 0.8"/>
      </g>
     </g>
     <g id="text_18">
      <!-- 0.25 -->
      <g transform="translate(33.214375 127.252552) scale(0.1 -0.1)">
       <use xlink:href="#DejaVuSans-30"/>
       <use xlink:href="#DejaVuSans-2e" transform="translate(63.623047 0)"/>
       <use xlink:href="#DejaVuSans-32" transform="translate(95.410156 0)"/>
       <use xlink:href="#DejaVuSans-35" transform="translate(159.033203 0)"/>
      </g>
     </g>
    </g>
    <g id="ytick_8">
     <g id="line2d_25">
      <path d="M 62.48 91.022222 
L 1896.235 91.022222 
" clip-path="url(#p77beec2f04)" style="fill: none; stroke: #b0b0b0; stroke-width: 0.8; stroke-linecap: square"/>
     </g>
     <g id="line2d_26">
      <g>
       <use xlink:href="#m0d67757029" x="62.48" y="91.022222" style="stroke: #000000; stroke-width: 0.8"/>
      </g>
     </g>
     <g id="text_19">
      <!-- 0.30 -->
      <g transform="translate(33.214375 94.821441) scale(0.1 -0.1)">
       <use xlink:href="#DejaVuSans-30"/>
       <use xlink:href="#DejaVuSans-2e" transform="translate(63.623047 0)"/>
       <use xlink:href="#DejaVuSans-33" transform="translate(95.410156 0)"/>
       <use xlink:href="#DejaVuSans-30" transform="translate(159.033203 0)"/>
      </g>
     </g>
    </g>
    <g id="ytick_9">
     <g id="line2d_27">
      <path d="M 62.48 58.591111 
L 1896.235 58.591111 
" clip-path="url(#p77beec2f04)" style="fill: none; stroke: #b0b0b0; stroke-width: 0.8; stroke-linecap: square"/>
     </g>
     <g id="line2d_28">
      <g>
       <use xlink:href="#m0d67757029" x="62.48" y="58.591111" style="stroke: #000000; stroke-width: 0.8"/>
      </g>
     </g>
     <g id="text_20">
      <!-- 0.35 -->
      <g transform="translate(33.214375 62.39033) scale(0.1 -0.1)">
       <use xlink:href="#DejaVuSans-30"/>
       <use xlink:href="#DejaVuSans-2e" transform="translate(63.623047 0)"/>
       <use xlink:href="#DejaVuSans-33" transform="translate(95.410156 0)"/>
       <use xlink:href="#DejaVuSans-35" transform="translate(159.033203 0)"/>
      </g>
     </g>
    </g>
    <g id="ytick_10">
     <g id="line2d_29">
      <path d="M 62.48 26.16 
L 1896.235 26.16 
" clip-path="url(#p77beec2f04)" style="fill: none; stroke: #b0b0b0; stroke-width: 0.8; stroke-linecap: square"/>
     </g>
     <g id="line2d_30">
      <g>
       <use xlink:href="#m0d67757029" x="62.48" y="26.16" style="stroke: #000000; stroke-width: 0.8"/>
      </g>
     </g>
     <g id="text_21">
      <!-- 0.40 -->
      <g transform="translate(33.214375 29.959219) scale(0.1 -0.1)">
       <defs>
        <path id="DejaVuSans-34" d="M 2419 4116 
L 825 1625 
L 2419 1625 
L 2419 4116 
z
M 2253 4666 
L 3047 4666 
L 3047 1625 
L 3713 1625 
L 3713 1100 
L 3047 1100 
L 3047 0 
L 2419 0 
L 2419 1100 
L 313 1100 
L 313 1709 
L 2253 4666 
z
" transform="scale(0.015625)"/>
       </defs>
       <use xlink:href="#DejaVuSans-30"/>
       <use xlink:href="#DejaVuSans-2e" transform="translate(63.623047 0)"/>
       <use xlink:href="#DejaVuSans-34" transform="translate(95.410156 0)"/>
       <use xlink:href="#DejaVuSans-30" transform="translate(159.033203 0)"/>
      </g>
     </g>
    </g>
    <g id="text_22">
     <!-- depth (m) -->
     <g style="fill: #00008b" transform="translate(18.755 197.014844) rotate(-90) scale(0.1 -0.1)">
      <defs>
       <path id="DejaVuSans-64" d="M 2906 2969 
L 2906 4863 
L 3481 4863 
L 3481 0 
L 2906 0 
L 2906 525 
Q 2725 213 2448 61 
Q 2172 -91 1784 -91 
Q 1150 -91 751 415 
Q 353 922 353 1747 
Q 353 2572 751 3078 
Q 1150 3584 1784 3584 
Q 2172 3584 2448 3432 
Q 2725 3281 2906 2969 
z
M 947 1747 
Q 947 1113 1208 752 
Q 1469 391 1925 391 
Q 2381 391 2643 752 
Q 2906 1113 2906 1747 
Q 2906 2381 2643 2742 
Q 2381 3103 1925 3103 
Q 1469 3103 1208 2742 
Q 947 2381 947 1747 
z
" transform="scale(0.015625)"/>
       <path id="DejaVuSans-70" d="M 1159 525 
L 1159 -1331 
L 581 -1331 
L 581 3500 
L 1159 3500 
L 1159 2969 
Q 1341 3281 1617 3432 
Q 1894 3584 2278 3584 
Q 2916 3584 3314 3078 
Q 3713 2572 3713 1747 
Q 3713 922 3314 415 
Q 2916 -91 2278 -91 
Q 1894 -91 1617 61 
Q 1341 213 1159 525 
z
M 3116 1747 
Q 3116 2381 2855 2742 
Q 2594 3103 2138 3103 
Q 1681 3103 1420 2742 
Q 1159 2381 1159 1747 
Q 1159 1113 1420 752 
Q 1681 391 2138 391 
Q 2594 391 2855 752 
Q 3116 1113 3116 1747 
z
" transform="scale(0.015625)"/>
       <path id="DejaVuSans-74" d="M 1172 4494 
L 1172 3500 
L 2356 3500 
L 2356 3053 
L 1172 3053 
L 1172 1153 
Q 1172 725 1289 603 
Q 1406 481 1766 481 
L 2356 481 
L 2356 0 
L 1766 0 
Q 1100 0 847 248 
Q 594 497 594 1153 
L 594 3053 
L 172 3053 
L 172 3500 
L 594 3500 
L 594 4494 
L 1172 4494 
z
" transform="scale(0.015625)"/>
       <path id="DejaVuSans-68" d="M 3513 2113 
L 3513 0 
L 2938 0 
L 2938 2094 
Q 2938 2591 2744 2837 
Q 2550 3084 2163 3084 
Q 1697 3084 1428 2787 
Q 1159 2491 1159 1978 
L 1159 0 
L 581 0 
L 581 4863 
L 1159 4863 
L 1159 2956 
Q 1366 3272 1645 3428 
Q 1925 3584 2291 3584 
Q 2894 3584 3203 3211 
Q 3513 2838 3513 2113 
z
" transform="scale(0.015625)"/>
       <path id="DejaVuSans-28" d="M 1984 4856 
Q 1566 4138 1362 3434 
Q 1159 2731 1159 2009 
Q 1159 1288 1364 580 
Q 1569 -128 1984 -844 
L 1484 -844 
Q 1016 -109 783 600 
Q 550 1309 550 2009 
Q 550 2706 781 3412 
Q 1013 4119 1484 4856 
L 1984 4856 
z
" transform="scale(0.015625)"/>
       <path id="DejaVuSans-29" d="M 513 4856 
L 1013 4856 
Q 1481 4119 1714 3412 
Q 1947 2706 1947 2009 
Q 1947 1309 1714 600 
Q 1481 -109 1013 -844 
L 513 -844 
Q 928 -128 1133 580 
Q 1338 1288 1338 2009 
Q 1338 2731 1133 3434 
Q 928 4138 513 4856 
z
" transform="scale(0.015625)"/>
      </defs>
      <use xlink:href="#DejaVuSans-64"/>
      <use xlink:href="#DejaVuSans-65" transform="translate(63.476562 0)"/>
      <use xlink:href="#DejaVuSans-70" transform="translate(125 0)"/>
      <use xlink:href="#DejaVuSans-74" transform="translate(188.476562 0)"/>
      <use xlink:href="#DejaVuSans-68" transform="translate(227.685547 0)"/>
      <use xlink:href="#DejaVuSans-20" transform="translate(291.064453 0)"/>
      <use xlink:href="#DejaVuSans-28" transform="translate(322.851562 0)"/>
      <use xlink:href="#DejaVuSans-6d" transform="translate(361.865234 0)"/>
      <use xlink:href="#DejaVuSans-29" transform="translate(459.277344 0)"/>
     </g>
    </g>
   </g>
   <g id="line2d_31">
    <path d="M 151.480579 285.608889 
L 187.598012 285.608889 
L 192.757645 285.025599 
L 197.917278 267.531109 
L 203.076912 239.789376 
L 208.236545 215.617622 
L 213.396178 206.634273 
L 218.555811 206.487908 
L 223.715445 209.515305 
L 228.875078 214.563321 
L 249.513611 237.294457 
L 254.673245 242.692273 
L 259.832878 247.662793 
L 264.992511 252.200935 
L 270.152144 256.288467 
L 275.311778 259.998915 
L 280.471411 263.337094 
L 285.631044 266.351283 
L 290.790678 269.173342 
L 295.950311 271.844636 
L 301.109944 274.358387 
L 306.269577 276.584584 
L 311.429211 278.537305 
L 316.588844 280.145334 
L 321.748477 281.416227 
L 326.908111 282.383341 
L 332.067744 283.145082 
L 342.387011 284.322591 
L 352.706277 285.277015 
L 357.86591 285.589228 
L 977.021906 285.540596 
L 982.181539 282.727878 
L 987.341173 259.916875 
L 997.660439 166.658284 
L 1002.820072 147.878617 
L 1007.979706 152.892985 
L 1018.298972 181.946819 
L 1023.458606 194.643145 
L 1028.618239 205.134929 
L 1033.777872 212.077331 
L 1044.097139 217.4009 
L 1049.256772 220.968793 
L 1054.416405 225.283146 
L 1075.054939 243.972541 
L 1080.214572 248.272334 
L 1085.374205 252.272767 
L 1090.533839 255.917733 
L 1095.693472 259.273812 
L 1100.853105 262.310052 
L 1106.012738 265.097897 
L 1111.172372 267.609213 
L 1121.491638 272.245633 
L 1126.651272 274.385945 
L 1131.810905 276.319699 
L 1136.970538 277.991884 
L 1142.130171 279.422322 
L 1147.289805 280.630638 
L 1152.449438 281.652867 
L 1157.609071 282.504025 
L 1167.928338 283.860131 
L 1183.407238 285.43403 
L 1188.566871 285.589332 
L 1312.39807 285.607739 
L 1317.557704 284.621542 
L 1322.717337 269.758314 
L 1327.87697 241.050579 
L 1333.036603 196.425188 
L 1338.196237 158.861014 
L 1343.35587 137.197546 
L 1348.515503 137.842491 
L 1353.675137 152.49454 
L 1358.83477 166.157047 
L 1363.994403 178.891811 
L 1369.154037 190.674108 
L 1374.31367 201.235896 
L 1379.473303 209.780978 
L 1384.632936 216.705003 
L 1389.79257 222.594265 
L 1394.952203 228.095765 
L 1400.111836 233.224709 
L 1405.27147 238.185842 
L 1410.431103 242.831806 
L 1415.590736 247.180285 
L 1420.750369 251.240004 
L 1425.910003 254.92529 
L 1431.069636 258.352696 
L 1436.229269 261.429895 
L 1441.388903 264.244501 
L 1446.548536 266.822439 
L 1451.708169 269.189699 
L 1462.027436 273.515101 
L 1467.187069 275.447557 
L 1472.346702 277.128282 
L 1477.506336 278.60424 
L 1482.665969 279.890513 
L 1487.825602 281.005331 
L 1492.985236 281.949663 
L 1503.304502 283.435565 
L 1513.623769 284.606878 
L 1523.943035 285.589373 
L 1812.8825 285.59064 
L 1812.8825 285.59064 
" clip-path="url(#p77beec2f04)" style="fill: none; stroke: #08306b; stroke-width: 2; stroke-linecap: square"/>
   </g>
   <g id="patch_3">
    <path d="M 62.48 318.04 
L 62.48 26.16 
" style="fill: none; stroke: #000000; stroke-width: 0.8; stroke-linejoin: miter; stroke-linecap: square"/>
   </g>
   <g id="patch_4">
    <path d="M 1896.235 318.04 
L 1896.235 26.16 
" style="fill: none; stroke: #000000; stroke-width: 0.8; stroke-linejoin: miter; stroke-linecap: square"/>
   </g>
   <g id="patch_5">
    <path d="M 62.48 318.04 
L 1896.235 318.04 
" style="fill: none; stroke: #000000; stroke-width: 0.8; stroke-linejoin: miter; stroke-linecap: square"/>
   </g>
   <g id="patch_6">
    <path d="M 62.48 26.16 
L 1896.235 26.16 
" style="fill: none; stroke: #000000; stroke-width: 0.8; stroke-linejoin: miter; stroke-linecap: square"/>
   </g>
   <g id="text_23">
    <!-- June 27, 2023: Broadway East Flood Depths -->
    <g transform="translate(847.659375 20.16) scale(0.12 -0.12)">
     <defs>
      <path id="DejaVuSans-4a" d="M 628 4666 
L 1259 4666 
L 1259 325 
Q 1259 -519 939 -900 
Q 619 -1281 -91 -1281 
L -331 -1281 
L -331 -750 
L -134 -750 
Q 284 -750 456 -515 
Q 628 -281 628 325 
L 628 4666 
z
" transform="scale(0.015625)"/>
      <path id="DejaVuSans-75" d="M 544 1381 
L 544 3500 
L 1119 3500 
L 1119 1403 
Q 1119 906 1312 657 
Q 1506 409 1894 409 
Q 2359 409 2629 706 
Q 2900 1003 2900 1516 
L 2900 3500 
L 3475 3500 
L 3475 0 
L 2900 0 
L 2900 538 
Q 2691 219 2414 64 
Q 2138 -91 1772 -91 
Q 1169 -91 856 284 
Q 544 659 544 1381 
z
M 1991 3584 
L 1991 3584 
z
" transform="scale(0.015625)"/>
      <path id="DejaVuSans-6e" d="M 3513 2113 
L 3513 0 
L 2938 0 
L 2938 2094 
Q 2938 2591 2744 2837 
Q 2550 3084 2163 3084 
Q 1697 3084 1428 2787 
Q 1159 2491 1159 1978 
L 1159 0 
L 581 0 
L 581 3500 
L 1159 3500 
L 1159 2956 
Q 1366 3272 1645 3428 
Q 1925 3584 2291 3584 
Q 2894 3584 3203 3211 
Q 3513 2838 3513 2113 
z
" transform="scale(0.015625)"/>
      <path id="DejaVuSans-37" d="M 525 4666 
L 3525 4666 
L 3525 4397 
L 1831 0 
L 1172 0 
L 2766 4134 
L 525 4134 
L 525 4666 
z
" transform="scale(0.015625)"/>
      <path id="DejaVuSans-2c" d="M 750 794 
L 1409 794 
L 1409 256 
L 897 -744 
L 494 -744 
L 750 256 
L 750 794 
z
" transform="scale(0.015625)"/>
      <path id="DejaVuSans-42" d="M 1259 2228 
L 1259 519 
L 2272 519 
Q 2781 519 3026 730 
Q 3272 941 3272 1375 
Q 3272 1813 3026 2020 
Q 2781 2228 2272 2228 
L 1259 2228 
z
M 1259 4147 
L 1259 2741 
L 2194 2741 
Q 2656 2741 2882 2914 
Q 3109 3088 3109 3444 
Q 3109 3797 2882 3972 
Q 2656 4147 2194 4147 
L 1259 4147 
z
M 628 4666 
L 2241 4666 
Q 2963 4666 3353 4366 
Q 3744 4066 3744 3513 
Q 3744 3084 3544 2831 
Q 3344 2578 2956 2516 
Q 3422 2416 3680 2098 
Q 3938 1781 3938 1306 
Q 3938 681 3513 340 
Q 3088 0 2303 0 
L 628 0 
L 628 4666 
z
" transform="scale(0.015625)"/>
      <path id="DejaVuSans-72" d="M 2631 2963 
Q 2534 3019 2420 3045 
Q 2306 3072 2169 3072 
Q 1681 3072 1420 2755 
Q 1159 2438 1159 1844 
L 1159 0 
L 581 0 
L 581 3500 
L 1159 3500 
L 1159 2956 
Q 1341 3275 1631 3429 
Q 1922 3584 2338 3584 
Q 2397 3584 2469 3576 
Q 2541 3569 2628 3553 
L 2631 2963 
z
" transform="scale(0.015625)"/>
      <path id="DejaVuSans-77" d="M 269 3500 
L 844 3500 
L 1563 769 
L 2278 3500 
L 2956 3500 
L 3675 769 
L 4391 3500 
L 4966 3500 
L 4050 0 
L 3372 0 
L 2619 2869 
L 1863 0 
L 1184 0 
L 269 3500 
z
" transform="scale(0.015625)"/>
      <path id="DejaVuSans-45" d="M 628 4666 
L 3578 4666 
L 3578 4134 
L 1259 4134 
L 1259 2753 
L 3481 2753 
L 3481 2222 
L 1259 2222 
L 1259 531 
L 3634 531 
L 3634 0 
L 628 0 
L 628 4666 
z
" transform="scale(0.015625)"/>
      <path id="DejaVuSans-73" d="M 2834 3397 
L 2834 2853 
Q 2591 2978 2328 3040 
Q 2066 3103 1784 3103 
Q 1356 3103 1142 2972 
Q 928 2841 928 2578 
Q 928 2378 1081 2264 
Q 1234 2150 1697 2047 
L 1894 2003 
Q 2506 1872 2764 1633 
Q 3022 1394 3022 966 
Q 3022 478 2636 193 
Q 2250 -91 1575 -91 
Q 1294 -91 989 -36 
Q 684 19 347 128 
L 347 722 
Q 666 556 975 473 
Q 1284 391 1588 391 
Q 1994 391 2212 530 
Q 2431 669 2431 922 
Q 2431 1156 2273 1281 
Q 2116 1406 1581 1522 
L 1381 1569 
Q 847 1681 609 1914 
Q 372 2147 372 2553 
Q 372 3047 722 3315 
Q 1072 3584 1716 3584 
Q 2034 3584 2315 3537 
Q 2597 3491 2834 3397 
z
" transform="scale(0.015625)"/>
      <path id="DejaVuSans-46" d="M 628 4666 
L 3309 4666 
L 3309 4134 
L 1259 4134 
L 1259 2759 
L 3109 2759 
L 3109 2228 
L 1259 2228 
L 1259 0 
L 628 0 
L 628 4666 
z
" transform="scale(0.015625)"/>
      <path id="DejaVuSans-6c" d="M 603 4863 
L 1178 4863 
L 1178 0 
L 603 0 
L 603 4863 
z
" transform="scale(0.015625)"/>
     </defs>
     <use xlink:href="#DejaVuSans-4a"/>
     <use xlink:href="#DejaVuSans-75" transform="translate(29.492188 0)"/>
     <use xlink:href="#DejaVuSans-6e" transform="translate(92.871094 0)"/>
     <use xlink:href="#DejaVuSans-65" transform="translate(156.25 0)"/>
     <use xlink:href="#DejaVuSans-20" transform="translate(217.773438 0)"/>
     <use xlink:href="#DejaVuSans-32" transform="translate(249.560547 0)"/>
     <use xlink:href="#DejaVuSans-37" transform="translate(313.183594 0)"/>
     <use xlink:href="#DejaVuSans-2c" transform="translate(376.806641 0)"/>
     <use xlink:href="#DejaVuSans-20" transform="translate(408.59375 0)"/>
     <use xlink:href="#DejaVuSans-32" transform="translate(440.380859 0)"/>
     <use xlink:href="#DejaVuSans-30" transform="translate(504.003906 0)"/>
     <use xlink:href="#DejaVuSans-32" transform="translate(567.626953 0)"/>
     <use xlink:href="#DejaVuSans-33" transform="translate(631.25 0)"/>
     <use xlink:href="#DejaVuSans-3a" transform="translate(694.873047 0)"/>
     <use xlink:href="#DejaVuSans-20" transform="translate(728.564453 0)"/>
     <use xlink:href="#DejaVuSans-42" transform="translate(760.351562 0)"/>
     <use xlink:href="#DejaVuSans-72" transform="translate(828.955078 0)"/>
     <use xlink:href="#DejaVuSans-6f" transform="translate(867.818359 0)"/>
     <use xlink:href="#DejaVuSans-61" transform="translate(929 0)"/>
     <use xlink:href="#DejaVuSans-64" transform="translate(990.279297 0)"/>
     <use xlink:href="#DejaVuSans-77" transform="translate(1053.755859 0)"/>
     <use xlink:href="#DejaVuSans-61" transform="translate(1135.542969 0)"/>
     <use xlink:href="#DejaVuSans-79" transform="translate(1196.822266 0)"/>
     <use xlink:href="#DejaVuSans-20" transform="translate(1256.001953 0)"/>
     <use xlink:href="#DejaVuSans-45" transform="translate(1287.789062 0)"/>
     <use xlink:href="#DejaVuSans-61" transform="translate(1350.972656 0)"/>
     <use xlink:href="#DejaVuSans-73" transform="translate(1412.251953 0)"/>
     <use xlink:href="#DejaVuSans-74" transform="translate(1464.351562 0)"/>
     <use xlink:href="#DejaVuSans-20" transform="translate(1503.560547 0)"/>
     <use xlink:href="#DejaVuSans-46" transform="translate(1535.347656 0)"/>
     <use xlink:href="#DejaVuSans-6c" transform="translate(1592.867188 0)"/>
     <use xlink:href="#DejaVuSans-6f" transform="translate(1620.650391 0)"/>
     <use xlink:href="#DejaVuSans-6f" transform="translate(1681.832031 0)"/>
     <use xlink:href="#DejaVuSans-64" transform="translate(1743.013672 0)"/>
     <use xlink:href="#DejaVuSans-20" transform="translate(1806.490234 0)"/>
     <use xlink:href="#DejaVuSans-44" transform="translate(1838.277344 0)"/>
     <use xlink:href="#DejaVuSans-65" transform="translate(1915.279297 0)"/>
     <use xlink:href="#DejaVuSans-70" transform="translate(1976.802734 0)"/>
     <use xlink:href="#DejaVuSans-74" transform="translate(2040.279297 0)"/>
     <use xlink:href="#DejaVuSans-68" transform="translate(2079.488281 0)"/>
     <use xlink:href="#DejaVuSans-73" transform="translate(2142.867188 0)"/>
    </g>
   </g>
  </g>
  <g id="axes_2">
   <g id="patch_7">
    <path d="M 145.8325 29.763457 
L 148.804449 29.763457 
L 148.804449 37.085681 
L 145.8325 37.085681 
z
" clip-path="url(#p77beec2f04)" style="fill: #6495ed"/>
   </g>
   <g id="patch_8">
    <path d="M 150.992133 29.763457 
L 153.964082 29.763457 
L 153.964082 29.763457 
L 150.992133 29.763457 
z
" clip-path="url(#p77beec2f04)" style="fill: #6495ed"/>
   </g>
   <g id="patch_9">
    <path d="M 156.151767 29.763457 
L 159.123715 29.763457 
L 159.123715 29.763457 
L 156.151767 29.763457 
z
" clip-path="url(#p77beec2f04)" style="fill: #6495ed"/>
   </g>
   <g id="patch_10">
    <path d="M 161.3114 29.763457 
L 164.283349 29.763457 
L 164.283349 29.763457 
L 161.3114 29.763457 
z
" clip-path="url(#p77beec2f04)" style="fill: #6495ed"/>
   </g>
   <g id="patch_11">
    <path d="M 166.471033 29.763457 
L 169.442982 29.763457 
L 169.442982 29.763457 
L 166.471033 29.763457 
z
" clip-path="url(#p77beec2f04)" style="fill: #6495ed"/>
   </g>
   <g id="patch_12">
    <path d="M 171.630666 29.763457 
L 174.602615 29.763457 
L 174.602615 29.763457 
L 171.630666 29.763457 
z
" clip-path="url(#p77beec2f04)" style="fill: #6495ed"/>
   </g>
   <g id="patch_13">
    <path d="M 176.7903 29.763457 
L 179.762249 29.763457 
L 179.762249 29.763457 
L 176.7903 29.763457 
z
" clip-path="url(#p77beec2f04)" style="fill: #6495ed"/>
   </g>
   <g id="patch_14">
    <path d="M 181.949933 29.763457 
L 184.921882 29.763457 
L 184.921882 29.763457 
L 181.949933 29.763457 
z
" clip-path="url(#p77beec2f04)" style="fill: #6495ed"/>
   </g>
   <g id="patch_15">
    <path d="M 187.109566 29.763457 
L 190.081515 29.763457 
L 190.081515 44.407905 
L 187.109566 44.407905 
z
" clip-path="url(#p77beec2f04)" style="fill: #6495ed"/>
   </g>
   <g id="patch_16">
    <path d="M 192.2692 29.763457 
L 195.241148 29.763457 
L 195.241148 102.985699 
L 192.2692 102.985699 
z
" clip-path="url(#p77beec2f04)" style="fill: #6495ed"/>
   </g>
   <g id="patch_17">
    <path d="M 197.428833 29.763457 
L 200.400782 29.763457 
L 200.400782 44.407905 
L 197.428833 44.407905 
z
" clip-path="url(#p77beec2f04)" style="fill: #6495ed"/>
   </g>
   <g id="patch_18">
    <path d="M 202.588466 29.763457 
L 205.560415 29.763457 
L 205.560415 29.763457 
L 202.588466 29.763457 
z
" clip-path="url(#p77beec2f04)" style="fill: #6495ed"/>
   </g>
   <g id="patch_19">
    <path d="M 207.7481 29.763457 
L 210.720048 29.763457 
L 210.720048 29.763457 
L 207.7481 29.763457 
z
" clip-path="url(#p77beec2f04)" style="fill: #6495ed"/>
   </g>
   <g id="patch_20">
    <path d="M 212.907733 29.763457 
L 215.879682 29.763457 
L 215.879682 37.085681 
L 212.907733 37.085681 
z
" clip-path="url(#p77beec2f04)" style="fill: #6495ed"/>
   </g>
   <g id="patch_21">
    <path d="M 218.067366 29.763457 
L 221.039315 29.763457 
L 221.039315 29.763457 
L 218.067366 29.763457 
z
" clip-path="url(#p77beec2f04)" style="fill: #6495ed"/>
   </g>
   <g id="patch_22">
    <path d="M 223.226999 29.763457 
L 226.198948 29.763457 
L 226.198948 29.763457 
L 223.226999 29.763457 
z
" clip-path="url(#p77beec2f04)" style="fill: #6495ed"/>
   </g>
   <g id="patch_23">
    <path d="M 228.386633 29.763457 
L 231.358582 29.763457 
L 231.358582 29.763457 
L 228.386633 29.763457 
z
" clip-path="url(#p77beec2f04)" style="fill: #6495ed"/>
   </g>
   <g id="patch_24">
    <path d="M 233.546266 29.763457 
L 236.518215 29.763457 
L 236.518215 29.763457 
L 233.546266 29.763457 
z
" clip-path="url(#p77beec2f04)" style="fill: #6495ed"/>
   </g>
   <g id="patch_25">
    <path d="M 238.705899 29.763457 
L 241.677848 29.763457 
L 241.677848 29.763457 
L 238.705899 29.763457 
z
" clip-path="url(#p77beec2f04)" style="fill: #6495ed"/>
   </g>
   <g id="patch_26">
    <path d="M 243.865533 29.763457 
L 246.837481 29.763457 
L 246.837481 29.763457 
L 243.865533 29.763457 
z
" clip-path="url(#p77beec2f04)" style="fill: #6495ed"/>
   </g>
   <g id="patch_27">
    <path d="M 249.025166 29.763457 
L 251.997115 29.763457 
L 251.997115 29.763457 
L 249.025166 29.763457 
z
" clip-path="url(#p77beec2f04)" style="fill: #6495ed"/>
   </g>
   <g id="patch_28">
    <path d="M 254.184799 29.763457 
L 257.156748 29.763457 
L 257.156748 29.763457 
L 254.184799 29.763457 
z
" clip-path="url(#p77beec2f04)" style="fill: #6495ed"/>
   </g>
   <g id="patch_29">
    <path d="M 259.344433 29.763457 
L 262.316381 29.763457 
L 262.316381 29.763457 
L 259.344433 29.763457 
z
" clip-path="url(#p77beec2f04)" style="fill: #6495ed"/>
   </g>
   <g id="patch_30">
    <path d="M 264.504066 29.763457 
L 267.476015 29.763457 
L 267.476015 29.763457 
L 264.504066 29.763457 
z
" clip-path="url(#p77beec2f04)" style="fill: #6495ed"/>
   </g>
   <g id="patch_31">
    <path d="M 269.663699 29.763457 
L 272.635648 29.763457 
L 272.635648 29.763457 
L 269.663699 29.763457 
z
" clip-path="url(#p77beec2f04)" style="fill: #6495ed"/>
   </g>
   <g id="patch_32">
    <path d="M 274.823332 29.763457 
L 277.795281 29.763457 
L 277.795281 29.763457 
L 274.823332 29.763457 
z
" clip-path="url(#p77beec2f04)" style="fill: #6495ed"/>
   </g>
   <g id="patch_33">
    <path d="M 279.982966 29.763457 
L 282.954914 29.763457 
L 282.954914 29.763457 
L 279.982966 29.763457 
z
" clip-path="url(#p77beec2f04)" style="fill: #6495ed"/>
   </g>
   <g id="patch_34">
    <path d="M 285.142599 29.763457 
L 288.114548 29.763457 
L 288.114548 29.763457 
L 285.142599 29.763457 
z
" clip-path="url(#p77beec2f04)" style="fill: #6495ed"/>
   </g>
   <g id="patch_35">
    <path d="M 290.302232 29.763457 
L 293.274181 29.763457 
L 293.274181 29.763457 
L 290.302232 29.763457 
z
" clip-path="url(#p77beec2f04)" style="fill: #6495ed"/>
   </g>
   <g id="patch_36">
    <path d="M 295.461866 29.763457 
L 298.433814 29.763457 
L 298.433814 29.763457 
L 295.461866 29.763457 
z
" clip-path="url(#p77beec2f04)" style="fill: #6495ed"/>
   </g>
   <g id="patch_37">
    <path d="M 300.621499 29.763457 
L 303.593448 29.763457 
L 303.593448 29.763457 
L 300.621499 29.763457 
z
" clip-path="url(#p77beec2f04)" style="fill: #6495ed"/>
   </g>
   <g id="patch_38">
    <path d="M 305.781132 29.763457 
L 308.753081 29.763457 
L 308.753081 29.763457 
L 305.781132 29.763457 
z
" clip-path="url(#p77beec2f04)" style="fill: #6495ed"/>
   </g>
   <g id="patch_39">
    <path d="M 310.940765 29.763457 
L 313.912714 29.763457 
L 313.912714 29.763457 
L 310.940765 29.763457 
z
" clip-path="url(#p77beec2f04)" style="fill: #6495ed"/>
   </g>
   <g id="patch_40">
    <path d="M 316.100399 29.763457 
L 319.072348 29.763457 
L 319.072348 29.763457 
L 316.100399 29.763457 
z
" clip-path="url(#p77beec2f04)" style="fill: #6495ed"/>
   </g>
   <g id="patch_41">
    <path d="M 321.260032 29.763457 
L 324.231981 29.763457 
L 324.231981 29.763457 
L 321.260032 29.763457 
z
" clip-path="url(#p77beec2f04)" style="fill: #6495ed"/>
   </g>
   <g id="patch_42">
    <path d="M 326.419665 29.763457 
L 329.391614 29.763457 
L 329.391614 29.763457 
L 326.419665 29.763457 
z
" clip-path="url(#p77beec2f04)" style="fill: #6495ed"/>
   </g>
   <g id="patch_43">
    <path d="M 331.579299 29.763457 
L 334.551247 29.763457 
L 334.551247 29.763457 
L 331.579299 29.763457 
z
" clip-path="url(#p77beec2f04)" style="fill: #6495ed"/>
   </g>
   <g id="patch_44">
    <path d="M 336.738932 29.763457 
L 339.710881 29.763457 
L 339.710881 29.763457 
L 336.738932 29.763457 
z
" clip-path="url(#p77beec2f04)" style="fill: #6495ed"/>
   </g>
   <g id="patch_45">
    <path d="M 341.898565 29.763457 
L 344.870514 29.763457 
L 344.870514 29.763457 
L 341.898565 29.763457 
z
" clip-path="url(#p77beec2f04)" style="fill: #6495ed"/>
   </g>
   <g id="patch_46">
    <path d="M 347.058199 29.763457 
L 350.030147 29.763457 
L 350.030147 29.763457 
L 347.058199 29.763457 
z
" clip-path="url(#p77beec2f04)" style="fill: #6495ed"/>
   </g>
   <g id="patch_47">
    <path d="M 352.217832 29.763457 
L 355.189781 29.763457 
L 355.189781 29.763457 
L 352.217832 29.763457 
z
" clip-path="url(#p77beec2f04)" style="fill: #6495ed"/>
   </g>
   <g id="patch_48">
    <path d="M 357.377465 29.763457 
L 360.349414 29.763457 
L 360.349414 29.763457 
L 357.377465 29.763457 
z
" clip-path="url(#p77beec2f04)" style="fill: #6495ed"/>
   </g>
   <g id="patch_49">
    <path d="M 362.537098 29.763457 
L 365.509047 29.763457 
L 365.509047 29.763457 
L 362.537098 29.763457 
z
" clip-path="url(#p77beec2f04)" style="fill: #6495ed"/>
   </g>
   <g id="patch_50">
    <path d="M 367.696732 29.763457 
L 370.668681 29.763457 
L 370.668681 29.763457 
L 367.696732 29.763457 
z
" clip-path="url(#p77beec2f04)" style="fill: #6495ed"/>
   </g>
   <g id="patch_51">
    <path d="M 372.856365 29.763457 
L 375.828314 29.763457 
L 375.828314 29.763457 
L 372.856365 29.763457 
z
" clip-path="url(#p77beec2f04)" style="fill: #6495ed"/>
   </g>
   <g id="patch_52">
    <path d="M 378.015998 29.763457 
L 380.987947 29.763457 
L 380.987947 29.763457 
L 378.015998 29.763457 
z
" clip-path="url(#p77beec2f04)" style="fill: #6495ed"/>
   </g>
   <g id="patch_53">
    <path d="M 383.175632 29.763457 
L 386.14758 29.763457 
L 386.14758 29.763457 
L 383.175632 29.763457 
z
" clip-path="url(#p77beec2f04)" style="fill: #6495ed"/>
   </g>
   <g id="patch_54">
    <path d="M 388.335265 29.763457 
L 391.307214 29.763457 
L 391.307214 29.763457 
L 388.335265 29.763457 
z
" clip-path="url(#p77beec2f04)" style="fill: #6495ed"/>
   </g>
   <g id="patch_55">
    <path d="M 393.494898 29.763457 
L 396.466847 29.763457 
L 396.466847 29.763457 
L 393.494898 29.763457 
z
" clip-path="url(#p77beec2f04)" style="fill: #6495ed"/>
   </g>
   <g id="patch_56">
    <path d="M 398.654532 29.763457 
L 401.62648 29.763457 
L 401.62648 29.763457 
L 398.654532 29.763457 
z
" clip-path="url(#p77beec2f04)" style="fill: #6495ed"/>
   </g>
   <g id="patch_57">
    <path d="M 403.814165 29.763457 
L 406.786114 29.763457 
L 406.786114 29.763457 
L 403.814165 29.763457 
z
" clip-path="url(#p77beec2f04)" style="fill: #6495ed"/>
   </g>
   <g id="patch_58">
    <path d="M 408.973798 29.763457 
L 411.945747 29.763457 
L 411.945747 29.763457 
L 408.973798 29.763457 
z
" clip-path="url(#p77beec2f04)" style="fill: #6495ed"/>
   </g>
   <g id="patch_59">
    <path d="M 414.133431 29.763457 
L 417.10538 29.763457 
L 417.10538 29.763457 
L 414.133431 29.763457 
z
" clip-path="url(#p77beec2f04)" style="fill: #6495ed"/>
   </g>
   <g id="patch_60">
    <path d="M 419.293065 29.763457 
L 422.265013 29.763457 
L 422.265013 29.763457 
L 419.293065 29.763457 
z
" clip-path="url(#p77beec2f04)" style="fill: #6495ed"/>
   </g>
   <g id="patch_61">
    <path d="M 424.452698 29.763457 
L 427.424647 29.763457 
L 427.424647 29.763457 
L 424.452698 29.763457 
z
" clip-path="url(#p77beec2f04)" style="fill: #6495ed"/>
   </g>
   <g id="patch_62">
    <path d="M 429.612331 29.763457 
L 432.58428 29.763457 
L 432.58428 29.763457 
L 429.612331 29.763457 
z
" clip-path="url(#p77beec2f04)" style="fill: #6495ed"/>
   </g>
   <g id="patch_63">
    <path d="M 434.771965 29.763457 
L 437.743913 29.763457 
L 437.743913 29.763457 
L 434.771965 29.763457 
z
" clip-path="url(#p77beec2f04)" style="fill: #6495ed"/>
   </g>
   <g id="patch_64">
    <path d="M 439.931598 29.763457 
L 442.903547 29.763457 
L 442.903547 29.763457 
L 439.931598 29.763457 
z
" clip-path="url(#p77beec2f04)" style="fill: #6495ed"/>
   </g>
   <g id="patch_65">
    <path d="M 445.091231 29.763457 
L 448.06318 29.763457 
L 448.06318 29.763457 
L 445.091231 29.763457 
z
" clip-path="url(#p77beec2f04)" style="fill: #6495ed"/>
   </g>
   <g id="patch_66">
    <path d="M 450.250864 29.763457 
L 453.222813 29.763457 
L 453.222813 29.763457 
L 450.250864 29.763457 
z
" clip-path="url(#p77beec2f04)" style="fill: #6495ed"/>
   </g>
   <g id="patch_67">
    <path d="M 455.410498 29.763457 
L 458.382447 29.763457 
L 458.382447 29.763457 
L 455.410498 29.763457 
z
" clip-path="url(#p77beec2f04)" style="fill: #6495ed"/>
   </g>
   <g id="patch_68">
    <path d="M 460.570131 29.763457 
L 463.54208 29.763457 
L 463.54208 29.763457 
L 460.570131 29.763457 
z
" clip-path="url(#p77beec2f04)" style="fill: #6495ed"/>
   </g>
   <g id="patch_69">
    <path d="M 465.729764 29.763457 
L 468.701713 29.763457 
L 468.701713 29.763457 
L 465.729764 29.763457 
z
" clip-path="url(#p77beec2f04)" style="fill: #6495ed"/>
   </g>
   <g id="patch_70">
    <path d="M 470.889398 29.763457 
L 473.861346 29.763457 
L 473.861346 29.763457 
L 470.889398 29.763457 
z
" clip-path="url(#p77beec2f04)" style="fill: #6495ed"/>
   </g>
   <g id="patch_71">
    <path d="M 476.049031 29.763457 
L 479.02098 29.763457 
L 479.02098 29.763457 
L 476.049031 29.763457 
z
" clip-path="url(#p77beec2f04)" style="fill: #6495ed"/>
   </g>
   <g id="patch_72">
    <path d="M 481.208664 29.763457 
L 484.180613 29.763457 
L 484.180613 29.763457 
L 481.208664 29.763457 
z
" clip-path="url(#p77beec2f04)" style="fill: #6495ed"/>
   </g>
   <g id="patch_73">
    <path d="M 486.368298 29.763457 
L 489.340246 29.763457 
L 489.340246 29.763457 
L 486.368298 29.763457 
z
" clip-path="url(#p77beec2f04)" style="fill: #6495ed"/>
   </g>
   <g id="patch_74">
    <path d="M 491.527931 29.763457 
L 494.49988 29.763457 
L 494.49988 29.763457 
L 491.527931 29.763457 
z
" clip-path="url(#p77beec2f04)" style="fill: #6495ed"/>
   </g>
   <g id="patch_75">
    <path d="M 496.687564 29.763457 
L 499.659513 29.763457 
L 499.659513 29.763457 
L 496.687564 29.763457 
z
" clip-path="url(#p77beec2f04)" style="fill: #6495ed"/>
   </g>
   <g id="patch_76">
    <path d="M 501.847197 29.763457 
L 504.819146 29.763457 
L 504.819146 29.763457 
L 501.847197 29.763457 
z
" clip-path="url(#p77beec2f04)" style="fill: #6495ed"/>
   </g>
   <g id="patch_77">
    <path d="M 507.006831 29.763457 
L 509.97878 29.763457 
L 509.97878 29.763457 
L 507.006831 29.763457 
z
" clip-path="url(#p77beec2f04)" style="fill: #6495ed"/>
   </g>
   <g id="patch_78">
    <path d="M 512.166464 29.763457 
L 515.138413 29.763457 
L 515.138413 29.763457 
L 512.166464 29.763457 
z
" clip-path="url(#p77beec2f04)" style="fill: #6495ed"/>
   </g>
   <g id="patch_79">
    <path d="M 517.326097 29.763457 
L 520.298046 29.763457 
L 520.298046 29.763457 
L 517.326097 29.763457 
z
" clip-path="url(#p77beec2f04)" style="fill: #6495ed"/>
   </g>
   <g id="patch_80">
    <path d="M 522.485731 29.763457 
L 525.457679 29.763457 
L 525.457679 29.763457 
L 522.485731 29.763457 
z
" clip-path="url(#p77beec2f04)" style="fill: #6495ed"/>
   </g>
   <g id="patch_81">
    <path d="M 527.645364 29.763457 
L 530.617313 29.763457 
L 530.617313 29.763457 
L 527.645364 29.763457 
z
" clip-path="url(#p77beec2f04)" style="fill: #6495ed"/>
   </g>
   <g id="patch_82">
    <path d="M 532.804997 29.763457 
L 535.776946 29.763457 
L 535.776946 29.763457 
L 532.804997 29.763457 
z
" clip-path="url(#p77beec2f04)" style="fill: #6495ed"/>
   </g>
   <g id="patch_83">
    <path d="M 537.964631 29.763457 
L 540.936579 29.763457 
L 540.936579 29.763457 
L 537.964631 29.763457 
z
" clip-path="url(#p77beec2f04)" style="fill: #6495ed"/>
   </g>
   <g id="patch_84">
    <path d="M 543.124264 29.763457 
L 546.096213 29.763457 
L 546.096213 29.763457 
L 543.124264 29.763457 
z
" clip-path="url(#p77beec2f04)" style="fill: #6495ed"/>
   </g>
   <g id="patch_85">
    <path d="M 548.283897 29.763457 
L 551.255846 29.763457 
L 551.255846 29.763457 
L 548.283897 29.763457 
z
" clip-path="url(#p77beec2f04)" style="fill: #6495ed"/>
   </g>
   <g id="patch_86">
    <path d="M 553.44353 29.763457 
L 556.415479 29.763457 
L 556.415479 29.763457 
L 553.44353 29.763457 
z
" clip-path="url(#p77beec2f04)" style="fill: #6495ed"/>
   </g>
   <g id="patch_87">
    <path d="M 558.603164 29.763457 
L 561.575112 29.763457 
L 561.575112 29.763457 
L 558.603164 29.763457 
z
" clip-path="url(#p77beec2f04)" style="fill: #6495ed"/>
   </g>
   <g id="patch_88">
    <path d="M 563.762797 29.763457 
L 566.734746 29.763457 
L 566.734746 29.763457 
L 563.762797 29.763457 
z
" clip-path="url(#p77beec2f04)" style="fill: #6495ed"/>
   </g>
   <g id="patch_89">
    <path d="M 568.92243 29.763457 
L 571.894379 29.763457 
L 571.894379 29.763457 
L 568.92243 29.763457 
z
" clip-path="url(#p77beec2f04)" style="fill: #6495ed"/>
   </g>
   <g id="patch_90">
    <path d="M 574.082064 29.763457 
L 577.054012 29.763457 
L 577.054012 29.763457 
L 574.082064 29.763457 
z
" clip-path="url(#p77beec2f04)" style="fill: #6495ed"/>
   </g>
   <g id="patch_91">
    <path d="M 579.241697 29.763457 
L 582.213646 29.763457 
L 582.213646 29.763457 
L 579.241697 29.763457 
z
" clip-path="url(#p77beec2f04)" style="fill: #6495ed"/>
   </g>
   <g id="patch_92">
    <path d="M 584.40133 29.763457 
L 587.373279 29.763457 
L 587.373279 29.763457 
L 584.40133 29.763457 
z
" clip-path="url(#p77beec2f04)" style="fill: #6495ed"/>
   </g>
   <g id="patch_93">
    <path d="M 589.560963 29.763457 
L 592.532912 29.763457 
L 592.532912 29.763457 
L 589.560963 29.763457 
z
" clip-path="url(#p77beec2f04)" style="fill: #6495ed"/>
   </g>
   <g id="patch_94">
    <path d="M 594.720597 29.763457 
L 597.692546 29.763457 
L 597.692546 29.763457 
L 594.720597 29.763457 
z
" clip-path="url(#p77beec2f04)" style="fill: #6495ed"/>
   </g>
   <g id="patch_95">
    <path d="M 599.88023 29.763457 
L 602.852179 29.763457 
L 602.852179 29.763457 
L 599.88023 29.763457 
z
" clip-path="url(#p77beec2f04)" style="fill: #6495ed"/>
   </g>
   <g id="patch_96">
    <path d="M 605.039863 29.763457 
L 608.011812 29.763457 
L 608.011812 29.763457 
L 605.039863 29.763457 
z
" clip-path="url(#p77beec2f04)" style="fill: #6495ed"/>
   </g>
   <g id="patch_97">
    <path d="M 610.199497 29.763457 
L 613.171445 29.763457 
L 613.171445 29.763457 
L 610.199497 29.763457 
z
" clip-path="url(#p77beec2f04)" style="fill: #6495ed"/>
   </g>
   <g id="patch_98">
    <path d="M 614.447595 29.763457 
L 617.419544 29.763457 
L 617.419544 29.763457 
L 614.447595 29.763457 
z
" clip-path="url(#p77beec2f04)" style="fill: #6495ed"/>
   </g>
   <g id="patch_99">
    <path d="M 619.607228 29.763457 
L 622.579177 29.763457 
L 622.579177 29.763457 
L 619.607228 29.763457 
z
" clip-path="url(#p77beec2f04)" style="fill: #6495ed"/>
   </g>
   <g id="patch_100">
    <path d="M 624.766861 29.763457 
L 627.73881 29.763457 
L 627.73881 29.763457 
L 624.766861 29.763457 
z
" clip-path="url(#p77beec2f04)" style="fill: #6495ed"/>
   </g>
   <g id="patch_101">
    <path d="M 629.926495 29.763457 
L 632.898443 29.763457 
L 632.898443 29.763457 
L 629.926495 29.763457 
z
" clip-path="url(#p77beec2f04)" style="fill: #6495ed"/>
   </g>
   <g id="patch_102">
    <path d="M 635.086128 29.763457 
L 638.058077 29.763457 
L 638.058077 29.763457 
L 635.086128 29.763457 
z
" clip-path="url(#p77beec2f04)" style="fill: #6495ed"/>
   </g>
   <g id="patch_103">
    <path d="M 640.245761 29.763457 
L 643.21771 29.763457 
L 643.21771 29.763457 
L 640.245761 29.763457 
z
" clip-path="url(#p77beec2f04)" style="fill: #6495ed"/>
   </g>
   <g id="patch_104">
    <path d="M 645.405395 29.763457 
L 648.377343 29.763457 
L 648.377343 29.763457 
L 645.405395 29.763457 
z
" clip-path="url(#p77beec2f04)" style="fill: #6495ed"/>
   </g>
   <g id="patch_105">
    <path d="M 650.565028 29.763457 
L 653.536977 29.763457 
L 653.536977 29.763457 
L 650.565028 29.763457 
z
" clip-path="url(#p77beec2f04)" style="fill: #6495ed"/>
   </g>
   <g id="patch_106">
    <path d="M 655.724661 29.763457 
L 658.69661 29.763457 
L 658.69661 29.763457 
L 655.724661 29.763457 
z
" clip-path="url(#p77beec2f04)" style="fill: #6495ed"/>
   </g>
   <g id="patch_107">
    <path d="M 660.884294 29.763457 
L 663.856243 29.763457 
L 663.856243 29.763457 
L 660.884294 29.763457 
z
" clip-path="url(#p77beec2f04)" style="fill: #6495ed"/>
   </g>
   <g id="patch_108">
    <path d="M 666.043928 29.763457 
L 669.015877 29.763457 
L 669.015877 29.763457 
L 666.043928 29.763457 
z
" clip-path="url(#p77beec2f04)" style="fill: #6495ed"/>
   </g>
   <g id="patch_109">
    <path d="M 671.203561 29.763457 
L 674.17551 29.763457 
L 674.17551 29.763457 
L 671.203561 29.763457 
z
" clip-path="url(#p77beec2f04)" style="fill: #6495ed"/>
   </g>
   <g id="patch_110">
    <path d="M 676.363194 29.763457 
L 679.335143 29.763457 
L 679.335143 29.763457 
L 676.363194 29.763457 
z
" clip-path="url(#p77beec2f04)" style="fill: #6495ed"/>
   </g>
   <g id="patch_111">
    <path d="M 681.522828 29.763457 
L 684.494776 29.763457 
L 684.494776 29.763457 
L 681.522828 29.763457 
z
" clip-path="url(#p77beec2f04)" style="fill: #6495ed"/>
   </g>
   <g id="patch_112">
    <path d="M 686.682461 29.763457 
L 689.65441 29.763457 
L 689.65441 29.763457 
L 686.682461 29.763457 
z
" clip-path="url(#p77beec2f04)" style="fill: #6495ed"/>
   </g>
   <g id="patch_113">
    <path d="M 691.842094 29.763457 
L 694.814043 29.763457 
L 694.814043 29.763457 
L 691.842094 29.763457 
z
" clip-path="url(#p77beec2f04)" style="fill: #6495ed"/>
   </g>
   <g id="patch_114">
    <path d="M 697.001727 29.763457 
L 699.973676 29.763457 
L 699.973676 29.763457 
L 697.001727 29.763457 
z
" clip-path="url(#p77beec2f04)" style="fill: #6495ed"/>
   </g>
   <g id="patch_115">
    <path d="M 702.161361 29.763457 
L 705.13331 29.763457 
L 705.13331 29.763457 
L 702.161361 29.763457 
z
" clip-path="url(#p77beec2f04)" style="fill: #6495ed"/>
   </g>
   <g id="patch_116">
    <path d="M 707.320994 29.763457 
L 710.292943 29.763457 
L 710.292943 29.763457 
L 707.320994 29.763457 
z
" clip-path="url(#p77beec2f04)" style="fill: #6495ed"/>
   </g>
   <g id="patch_117">
    <path d="M 712.480627 29.763457 
L 715.452576 29.763457 
L 715.452576 29.763457 
L 712.480627 29.763457 
z
" clip-path="url(#p77beec2f04)" style="fill: #6495ed"/>
   </g>
   <g id="patch_118">
    <path d="M 717.640261 29.763457 
L 720.612209 29.763457 
L 720.612209 29.763457 
L 717.640261 29.763457 
z
" clip-path="url(#p77beec2f04)" style="fill: #6495ed"/>
   </g>
   <g id="patch_119">
    <path d="M 722.799894 29.763457 
L 725.771843 29.763457 
L 725.771843 29.763457 
L 722.799894 29.763457 
z
" clip-path="url(#p77beec2f04)" style="fill: #6495ed"/>
   </g>
   <g id="patch_120">
    <path d="M 727.959527 29.763457 
L 730.931476 29.763457 
L 730.931476 29.763457 
L 727.959527 29.763457 
z
" clip-path="url(#p77beec2f04)" style="fill: #6495ed"/>
   </g>
   <g id="patch_121">
    <path d="M 733.119161 29.763457 
L 736.091109 29.763457 
L 736.091109 29.763457 
L 733.119161 29.763457 
z
" clip-path="url(#p77beec2f04)" style="fill: #6495ed"/>
   </g>
   <g id="patch_122">
    <path d="M 738.278794 29.763457 
L 741.250743 29.763457 
L 741.250743 29.763457 
L 738.278794 29.763457 
z
" clip-path="url(#p77beec2f04)" style="fill: #6495ed"/>
   </g>
   <g id="patch_123">
    <path d="M 743.438427 29.763457 
L 746.410376 29.763457 
L 746.410376 29.763457 
L 743.438427 29.763457 
z
" clip-path="url(#p77beec2f04)" style="fill: #6495ed"/>
   </g>
   <g id="patch_124">
    <path d="M 748.59806 29.763457 
L 751.570009 29.763457 
L 751.570009 29.763457 
L 748.59806 29.763457 
z
" clip-path="url(#p77beec2f04)" style="fill: #6495ed"/>
   </g>
   <g id="patch_125">
    <path d="M 753.757694 29.763457 
L 756.729643 29.763457 
L 756.729643 29.763457 
L 753.757694 29.763457 
z
" clip-path="url(#p77beec2f04)" style="fill: #6495ed"/>
   </g>
   <g id="patch_126">
    <path d="M 758.917327 29.763457 
L 761.889276 29.763457 
L 761.889276 29.763457 
L 758.917327 29.763457 
z
" clip-path="url(#p77beec2f04)" style="fill: #6495ed"/>
   </g>
   <g id="patch_127">
    <path d="M 764.07696 29.763457 
L 767.048909 29.763457 
L 767.048909 29.763457 
L 764.07696 29.763457 
z
" clip-path="url(#p77beec2f04)" style="fill: #6495ed"/>
   </g>
   <g id="patch_128">
    <path d="M 769.236594 29.763457 
L 772.208542 29.763457 
L 772.208542 29.763457 
L 769.236594 29.763457 
z
" clip-path="url(#p77beec2f04)" style="fill: #6495ed"/>
   </g>
   <g id="patch_129">
    <path d="M 774.396227 29.763457 
L 777.368176 29.763457 
L 777.368176 29.763457 
L 774.396227 29.763457 
z
" clip-path="url(#p77beec2f04)" style="fill: #6495ed"/>
   </g>
   <g id="patch_130">
    <path d="M 779.55586 29.763457 
L 782.527809 29.763457 
L 782.527809 29.763457 
L 779.55586 29.763457 
z
" clip-path="url(#p77beec2f04)" style="fill: #6495ed"/>
   </g>
   <g id="patch_131">
    <path d="M 784.715494 29.763457 
L 787.687442 29.763457 
L 787.687442 29.763457 
L 784.715494 29.763457 
z
" clip-path="url(#p77beec2f04)" style="fill: #6495ed"/>
   </g>
   <g id="patch_132">
    <path d="M 789.875127 29.763457 
L 792.847076 29.763457 
L 792.847076 29.763457 
L 789.875127 29.763457 
z
" clip-path="url(#p77beec2f04)" style="fill: #6495ed"/>
   </g>
   <g id="patch_133">
    <path d="M 795.03476 29.763457 
L 798.006709 29.763457 
L 798.006709 29.763457 
L 795.03476 29.763457 
z
" clip-path="url(#p77beec2f04)" style="fill: #6495ed"/>
   </g>
   <g id="patch_134">
    <path d="M 801.105929 29.763457 
L 804.077877 29.763457 
L 804.077877 29.763457 
L 801.105929 29.763457 
z
" clip-path="url(#p77beec2f04)" style="fill: #6495ed"/>
   </g>
   <g id="patch_135">
    <path d="M 806.265562 29.763457 
L 809.237511 29.763457 
L 809.237511 29.763457 
L 806.265562 29.763457 
z
" clip-path="url(#p77beec2f04)" style="fill: #6495ed"/>
   </g>
   <g id="patch_136">
    <path d="M 811.425195 29.763457 
L 814.397144 29.763457 
L 814.397144 29.763457 
L 811.425195 29.763457 
z
" clip-path="url(#p77beec2f04)" style="fill: #6495ed"/>
   </g>
   <g id="patch_137">
    <path d="M 816.584829 29.763457 
L 819.556777 29.763457 
L 819.556777 29.763457 
L 816.584829 29.763457 
z
" clip-path="url(#p77beec2f04)" style="fill: #6495ed"/>
   </g>
   <g id="patch_138">
    <path d="M 821.744462 29.763457 
L 824.716411 29.763457 
L 824.716411 29.763457 
L 821.744462 29.763457 
z
" clip-path="url(#p77beec2f04)" style="fill: #6495ed"/>
   </g>
   <g id="patch_139">
    <path d="M 826.904095 29.763457 
L 829.876044 29.763457 
L 829.876044 29.763457 
L 826.904095 29.763457 
z
" clip-path="url(#p77beec2f04)" style="fill: #6495ed"/>
   </g>
   <g id="patch_140">
    <path d="M 832.063728 29.763457 
L 835.035677 29.763457 
L 835.035677 29.763457 
L 832.063728 29.763457 
z
" clip-path="url(#p77beec2f04)" style="fill: #6495ed"/>
   </g>
   <g id="patch_141">
    <path d="M 837.223362 29.763457 
L 840.19531 29.763457 
L 840.19531 29.763457 
L 837.223362 29.763457 
z
" clip-path="url(#p77beec2f04)" style="fill: #6495ed"/>
   </g>
   <g id="patch_142">
    <path d="M 842.382995 29.763457 
L 845.354944 29.763457 
L 845.354944 29.763457 
L 842.382995 29.763457 
z
" clip-path="url(#p77beec2f04)" style="fill: #6495ed"/>
   </g>
   <g id="patch_143">
    <path d="M 847.542628 29.763457 
L 850.514577 29.763457 
L 850.514577 29.763457 
L 847.542628 29.763457 
z
" clip-path="url(#p77beec2f04)" style="fill: #6495ed"/>
   </g>
   <g id="patch_144">
    <path d="M 852.702262 29.763457 
L 855.67421 29.763457 
L 855.67421 29.763457 
L 852.702262 29.763457 
z
" clip-path="url(#p77beec2f04)" style="fill: #6495ed"/>
   </g>
   <g id="patch_145">
    <path d="M 857.861895 29.763457 
L 860.833844 29.763457 
L 860.833844 29.763457 
L 857.861895 29.763457 
z
" clip-path="url(#p77beec2f04)" style="fill: #6495ed"/>
   </g>
   <g id="patch_146">
    <path d="M 863.021528 29.763457 
L 865.993477 29.763457 
L 865.993477 29.763457 
L 863.021528 29.763457 
z
" clip-path="url(#p77beec2f04)" style="fill: #6495ed"/>
   </g>
   <g id="patch_147">
    <path d="M 868.181161 29.763457 
L 871.15311 29.763457 
L 871.15311 29.763457 
L 868.181161 29.763457 
z
" clip-path="url(#p77beec2f04)" style="fill: #6495ed"/>
   </g>
   <g id="patch_148">
    <path d="M 873.340795 29.763457 
L 876.312744 29.763457 
L 876.312744 29.763457 
L 873.340795 29.763457 
z
" clip-path="url(#p77beec2f04)" style="fill: #6495ed"/>
   </g>
   <g id="patch_149">
    <path d="M 878.500428 29.763457 
L 881.472377 29.763457 
L 881.472377 29.763457 
L 878.500428 29.763457 
z
" clip-path="url(#p77beec2f04)" style="fill: #6495ed"/>
   </g>
   <g id="patch_150">
    <path d="M 883.660061 29.763457 
L 886.63201 29.763457 
L 886.63201 29.763457 
L 883.660061 29.763457 
z
" clip-path="url(#p77beec2f04)" style="fill: #6495ed"/>
   </g>
   <g id="patch_151">
    <path d="M 888.819695 29.763457 
L 891.791643 29.763457 
L 891.791643 29.763457 
L 888.819695 29.763457 
z
" clip-path="url(#p77beec2f04)" style="fill: #6495ed"/>
   </g>
   <g id="patch_152">
    <path d="M 893.979328 29.763457 
L 896.951277 29.763457 
L 896.951277 29.763457 
L 893.979328 29.763457 
z
" clip-path="url(#p77beec2f04)" style="fill: #6495ed"/>
   </g>
   <g id="patch_153">
    <path d="M 899.138961 29.763457 
L 902.11091 29.763457 
L 902.11091 29.763457 
L 899.138961 29.763457 
z
" clip-path="url(#p77beec2f04)" style="fill: #6495ed"/>
   </g>
   <g id="patch_154">
    <path d="M 904.298595 29.763457 
L 907.270543 29.763457 
L 907.270543 29.763457 
L 904.298595 29.763457 
z
" clip-path="url(#p77beec2f04)" style="fill: #6495ed"/>
   </g>
   <g id="patch_155">
    <path d="M 909.458228 29.763457 
L 912.430177 29.763457 
L 912.430177 29.763457 
L 909.458228 29.763457 
z
" clip-path="url(#p77beec2f04)" style="fill: #6495ed"/>
   </g>
   <g id="patch_156">
    <path d="M 914.617861 29.763457 
L 917.58981 29.763457 
L 917.58981 29.763457 
L 914.617861 29.763457 
z
" clip-path="url(#p77beec2f04)" style="fill: #6495ed"/>
   </g>
   <g id="patch_157">
    <path d="M 919.777494 29.763457 
L 922.749443 29.763457 
L 922.749443 29.763457 
L 919.777494 29.763457 
z
" clip-path="url(#p77beec2f04)" style="fill: #6495ed"/>
   </g>
   <g id="patch_158">
    <path d="M 924.937128 29.763457 
L 927.909077 29.763457 
L 927.909077 29.763457 
L 924.937128 29.763457 
z
" clip-path="url(#p77beec2f04)" style="fill: #6495ed"/>
   </g>
   <g id="patch_159">
    <path d="M 930.096761 29.763457 
L 933.06871 29.763457 
L 933.06871 29.763457 
L 930.096761 29.763457 
z
" clip-path="url(#p77beec2f04)" style="fill: #6495ed"/>
   </g>
   <g id="patch_160">
    <path d="M 935.256394 29.763457 
L 938.228343 29.763457 
L 938.228343 29.763457 
L 935.256394 29.763457 
z
" clip-path="url(#p77beec2f04)" style="fill: #6495ed"/>
   </g>
   <g id="patch_161">
    <path d="M 940.416028 29.763457 
L 943.387976 29.763457 
L 943.387976 29.763457 
L 940.416028 29.763457 
z
" clip-path="url(#p77beec2f04)" style="fill: #6495ed"/>
   </g>
   <g id="patch_162">
    <path d="M 945.575661 29.763457 
L 948.54761 29.763457 
L 948.54761 29.763457 
L 945.575661 29.763457 
z
" clip-path="url(#p77beec2f04)" style="fill: #6495ed"/>
   </g>
   <g id="patch_163">
    <path d="M 950.735294 29.763457 
L 953.707243 29.763457 
L 953.707243 29.763457 
L 950.735294 29.763457 
z
" clip-path="url(#p77beec2f04)" style="fill: #6495ed"/>
   </g>
   <g id="patch_164">
    <path d="M 955.894928 29.763457 
L 958.866876 29.763457 
L 958.866876 29.763457 
L 955.894928 29.763457 
z
" clip-path="url(#p77beec2f04)" style="fill: #6495ed"/>
   </g>
   <g id="patch_165">
    <path d="M 961.054561 29.763457 
L 964.02651 29.763457 
L 964.02651 29.763457 
L 961.054561 29.763457 
z
" clip-path="url(#p77beec2f04)" style="fill: #6495ed"/>
   </g>
   <g id="patch_166">
    <path d="M 966.214194 29.763457 
L 969.186143 29.763457 
L 969.186143 29.763457 
L 966.214194 29.763457 
z
" clip-path="url(#p77beec2f04)" style="fill: #6495ed"/>
   </g>
   <g id="patch_167">
    <path d="M 971.373827 29.763457 
L 974.345776 29.763457 
L 974.345776 37.085681 
L 971.373827 37.085681 
z
" clip-path="url(#p77beec2f04)" style="fill: #6495ed"/>
   </g>
   <g id="patch_168">
    <path d="M 976.533461 29.763457 
L 979.505409 29.763457 
L 979.505409 44.407905 
L 976.533461 44.407905 
z
" clip-path="url(#p77beec2f04)" style="fill: #6495ed"/>
   </g>
   <g id="patch_169">
    <path d="M 981.693094 29.763457 
L 984.665043 29.763457 
L 984.665043 110.307923 
L 981.693094 110.307923 
z
" clip-path="url(#p77beec2f04)" style="fill: #6495ed"/>
   </g>
   <g id="patch_170">
    <path d="M 986.852727 29.763457 
L 989.824676 29.763457 
L 989.824676 73.696802 
L 986.852727 73.696802 
z
" clip-path="url(#p77beec2f04)" style="fill: #6495ed"/>
   </g>
   <g id="patch_171">
    <path d="M 992.012361 29.763457 
L 994.984309 29.763457 
L 994.984309 44.407905 
L 992.012361 44.407905 
z
" clip-path="url(#p77beec2f04)" style="fill: #6495ed"/>
   </g>
   <g id="patch_172">
    <path d="M 997.171994 29.763457 
L 1000.143943 29.763457 
L 1000.143943 29.763457 
L 997.171994 29.763457 
z
" clip-path="url(#p77beec2f04)" style="fill: #6495ed"/>
   </g>
   <g id="patch_173">
    <path d="M 1002.331627 29.763457 
L 1005.303576 29.763457 
L 1005.303576 29.763457 
L 1002.331627 29.763457 
z
" clip-path="url(#p77beec2f04)" style="fill: #6495ed"/>
   </g>
   <g id="patch_174">
    <path d="M 1007.49126 29.763457 
L 1010.463209 29.763457 
L 1010.463209 29.763457 
L 1007.49126 29.763457 
z
" clip-path="url(#p77beec2f04)" style="fill: #6495ed"/>
   </g>
   <g id="patch_175">
    <path d="M 1012.650894 29.763457 
L 1015.622843 29.763457 
L 1015.622843 29.763457 
L 1012.650894 29.763457 
z
" clip-path="url(#p77beec2f04)" style="fill: #6495ed"/>
   </g>
   <g id="patch_176">
    <path d="M 1017.810527 29.763457 
L 1020.782476 29.763457 
L 1020.782476 29.763457 
L 1017.810527 29.763457 
z
" clip-path="url(#p77beec2f04)" style="fill: #6495ed"/>
   </g>
   <g id="patch_177">
    <path d="M 1022.97016 29.763457 
L 1025.942109 29.763457 
L 1025.942109 29.763457 
L 1022.97016 29.763457 
z
" clip-path="url(#p77beec2f04)" style="fill: #6495ed"/>
   </g>
   <g id="patch_178">
    <path d="M 1028.129794 29.763457 
L 1031.101742 29.763457 
L 1031.101742 44.407905 
L 1028.129794 44.407905 
z
" clip-path="url(#p77beec2f04)" style="fill: #6495ed"/>
   </g>
   <g id="patch_179">
    <path d="M 1033.289427 29.763457 
L 1036.261376 29.763457 
L 1036.261376 29.763457 
L 1033.289427 29.763457 
z
" clip-path="url(#p77beec2f04)" style="fill: #6495ed"/>
   </g>
   <g id="patch_180">
    <path d="M 1038.44906 29.763457 
L 1041.421009 29.763457 
L 1041.421009 29.763457 
L 1038.44906 29.763457 
z
" clip-path="url(#p77beec2f04)" style="fill: #6495ed"/>
   </g>
   <g id="patch_181">
    <path d="M 1043.608694 29.763457 
L 1046.580642 29.763457 
L 1046.580642 29.763457 
L 1043.608694 29.763457 
z
" clip-path="url(#p77beec2f04)" style="fill: #6495ed"/>
   </g>
   <g id="patch_182">
    <path d="M 1048.768327 29.763457 
L 1051.740276 29.763457 
L 1051.740276 29.763457 
L 1048.768327 29.763457 
z
" clip-path="url(#p77beec2f04)" style="fill: #6495ed"/>
   </g>
   <g id="patch_183">
    <path d="M 1053.92796 29.763457 
L 1056.899909 29.763457 
L 1056.899909 29.763457 
L 1053.92796 29.763457 
z
" clip-path="url(#p77beec2f04)" style="fill: #6495ed"/>
   </g>
   <g id="patch_184">
    <path d="M 1059.087593 29.763457 
L 1062.059542 29.763457 
L 1062.059542 29.763457 
L 1059.087593 29.763457 
z
" clip-path="url(#p77beec2f04)" style="fill: #6495ed"/>
   </g>
   <g id="patch_185">
    <path d="M 1064.247227 29.763457 
L 1067.219176 29.763457 
L 1067.219176 29.763457 
L 1064.247227 29.763457 
z
" clip-path="url(#p77beec2f04)" style="fill: #6495ed"/>
   </g>
   <g id="patch_186">
    <path d="M 1069.40686 29.763457 
L 1072.378809 29.763457 
L 1072.378809 29.763457 
L 1069.40686 29.763457 
z
" clip-path="url(#p77beec2f04)" style="fill: #6495ed"/>
   </g>
   <g id="patch_187">
    <path d="M 1074.566493 29.763457 
L 1077.538442 29.763457 
L 1077.538442 29.763457 
L 1074.566493 29.763457 
z
" clip-path="url(#p77beec2f04)" style="fill: #6495ed"/>
   </g>
   <g id="patch_188">
    <path d="M 1079.726127 29.763457 
L 1082.698075 29.763457 
L 1082.698075 29.763457 
L 1079.726127 29.763457 
z
" clip-path="url(#p77beec2f04)" style="fill: #6495ed"/>
   </g>
   <g id="patch_189">
    <path d="M 1084.88576 29.763457 
L 1087.857709 29.763457 
L 1087.857709 29.763457 
L 1084.88576 29.763457 
z
" clip-path="url(#p77beec2f04)" style="fill: #6495ed"/>
   </g>
   <g id="patch_190">
    <path d="M 1090.045393 29.763457 
L 1093.017342 29.763457 
L 1093.017342 29.763457 
L 1090.045393 29.763457 
z
" clip-path="url(#p77beec2f04)" style="fill: #6495ed"/>
   </g>
   <g id="patch_191">
    <path d="M 1095.205027 29.763457 
L 1098.176975 29.763457 
L 1098.176975 29.763457 
L 1095.205027 29.763457 
z
" clip-path="url(#p77beec2f04)" style="fill: #6495ed"/>
   </g>
   <g id="patch_192">
    <path d="M 1100.36466 29.763457 
L 1103.336609 29.763457 
L 1103.336609 29.763457 
L 1100.36466 29.763457 
z
" clip-path="url(#p77beec2f04)" style="fill: #6495ed"/>
   </g>
   <g id="patch_193">
    <path d="M 1105.524293 29.763457 
L 1108.496242 29.763457 
L 1108.496242 29.763457 
L 1105.524293 29.763457 
z
" clip-path="url(#p77beec2f04)" style="fill: #6495ed"/>
   </g>
   <g id="patch_194">
    <path d="M 1110.683926 29.763457 
L 1113.655875 29.763457 
L 1113.655875 29.763457 
L 1110.683926 29.763457 
z
" clip-path="url(#p77beec2f04)" style="fill: #6495ed"/>
   </g>
   <g id="patch_195">
    <path d="M 1115.84356 29.763457 
L 1118.815508 29.763457 
L 1118.815508 29.763457 
L 1115.84356 29.763457 
z
" clip-path="url(#p77beec2f04)" style="fill: #6495ed"/>
   </g>
   <g id="patch_196">
    <path d="M 1121.003193 29.763457 
L 1123.975142 29.763457 
L 1123.975142 29.763457 
L 1121.003193 29.763457 
z
" clip-path="url(#p77beec2f04)" style="fill: #6495ed"/>
   </g>
   <g id="patch_197">
    <path d="M 1126.162826 29.763457 
L 1129.134775 29.763457 
L 1129.134775 29.763457 
L 1126.162826 29.763457 
z
" clip-path="url(#p77beec2f04)" style="fill: #6495ed"/>
   </g>
   <g id="patch_198">
    <path d="M 1131.32246 29.763457 
L 1134.294408 29.763457 
L 1134.294408 29.763457 
L 1131.32246 29.763457 
z
" clip-path="url(#p77beec2f04)" style="fill: #6495ed"/>
   </g>
   <g id="patch_199">
    <path d="M 1136.482093 29.763457 
L 1139.454042 29.763457 
L 1139.454042 29.763457 
L 1136.482093 29.763457 
z
" clip-path="url(#p77beec2f04)" style="fill: #6495ed"/>
   </g>
   <g id="patch_200">
    <path d="M 1141.641726 29.763457 
L 1144.613675 29.763457 
L 1144.613675 29.763457 
L 1141.641726 29.763457 
z
" clip-path="url(#p77beec2f04)" style="fill: #6495ed"/>
   </g>
   <g id="patch_201">
    <path d="M 1146.801359 29.763457 
L 1149.773308 29.763457 
L 1149.773308 29.763457 
L 1146.801359 29.763457 
z
" clip-path="url(#p77beec2f04)" style="fill: #6495ed"/>
   </g>
   <g id="patch_202">
    <path d="M 1151.960993 29.763457 
L 1154.932942 29.763457 
L 1154.932942 29.763457 
L 1151.960993 29.763457 
z
" clip-path="url(#p77beec2f04)" style="fill: #6495ed"/>
   </g>
   <g id="patch_203">
    <path d="M 1157.120626 29.763457 
L 1160.092575 29.763457 
L 1160.092575 29.763457 
L 1157.120626 29.763457 
z
" clip-path="url(#p77beec2f04)" style="fill: #6495ed"/>
   </g>
   <g id="patch_204">
    <path d="M 1162.280259 29.763457 
L 1165.252208 29.763457 
L 1165.252208 29.763457 
L 1162.280259 29.763457 
z
" clip-path="url(#p77beec2f04)" style="fill: #6495ed"/>
   </g>
   <g id="patch_205">
    <path d="M 1167.439893 29.763457 
L 1170.411841 29.763457 
L 1170.411841 29.763457 
L 1167.439893 29.763457 
z
" clip-path="url(#p77beec2f04)" style="fill: #6495ed"/>
   </g>
   <g id="patch_206">
    <path d="M 1172.599526 29.763457 
L 1175.571475 29.763457 
L 1175.571475 29.763457 
L 1172.599526 29.763457 
z
" clip-path="url(#p77beec2f04)" style="fill: #6495ed"/>
   </g>
   <g id="patch_207">
    <path d="M 1177.759159 29.763457 
L 1180.731108 29.763457 
L 1180.731108 29.763457 
L 1177.759159 29.763457 
z
" clip-path="url(#p77beec2f04)" style="fill: #6495ed"/>
   </g>
   <g id="patch_208">
    <path d="M 1182.918793 29.763457 
L 1185.890741 29.763457 
L 1185.890741 29.763457 
L 1182.918793 29.763457 
z
" clip-path="url(#p77beec2f04)" style="fill: #6495ed"/>
   </g>
   <g id="patch_209">
    <path d="M 1188.078426 29.763457 
L 1191.050375 29.763457 
L 1191.050375 29.763457 
L 1188.078426 29.763457 
z
" clip-path="url(#p77beec2f04)" style="fill: #6495ed"/>
   </g>
   <g id="patch_210">
    <path d="M 1193.238059 29.763457 
L 1196.210008 29.763457 
L 1196.210008 29.763457 
L 1193.238059 29.763457 
z
" clip-path="url(#p77beec2f04)" style="fill: #6495ed"/>
   </g>
   <g id="patch_211">
    <path d="M 1198.397692 29.763457 
L 1201.369641 29.763457 
L 1201.369641 29.763457 
L 1198.397692 29.763457 
z
" clip-path="url(#p77beec2f04)" style="fill: #6495ed"/>
   </g>
   <g id="patch_212">
    <path d="M 1203.557326 29.763457 
L 1206.529275 29.763457 
L 1206.529275 29.763457 
L 1203.557326 29.763457 
z
" clip-path="url(#p77beec2f04)" style="fill: #6495ed"/>
   </g>
   <g id="patch_213">
    <path d="M 1208.716959 29.763457 
L 1211.688908 29.763457 
L 1211.688908 29.763457 
L 1208.716959 29.763457 
z
" clip-path="url(#p77beec2f04)" style="fill: #6495ed"/>
   </g>
   <g id="patch_214">
    <path d="M 1213.876592 29.763457 
L 1216.848541 29.763457 
L 1216.848541 29.763457 
L 1213.876592 29.763457 
z
" clip-path="url(#p77beec2f04)" style="fill: #6495ed"/>
   </g>
   <g id="patch_215">
    <path d="M 1219.036226 29.763457 
L 1222.008174 29.763457 
L 1222.008174 29.763457 
L 1219.036226 29.763457 
z
" clip-path="url(#p77beec2f04)" style="fill: #6495ed"/>
   </g>
   <g id="patch_216">
    <path d="M 1224.195859 29.763457 
L 1227.167808 29.763457 
L 1227.167808 29.763457 
L 1224.195859 29.763457 
z
" clip-path="url(#p77beec2f04)" style="fill: #6495ed"/>
   </g>
   <g id="patch_217">
    <path d="M 1229.355492 29.763457 
L 1232.327441 29.763457 
L 1232.327441 29.763457 
L 1229.355492 29.763457 
z
" clip-path="url(#p77beec2f04)" style="fill: #6495ed"/>
   </g>
   <g id="patch_218">
    <path d="M 1234.515126 29.763457 
L 1237.487074 29.763457 
L 1237.487074 29.763457 
L 1234.515126 29.763457 
z
" clip-path="url(#p77beec2f04)" style="fill: #6495ed"/>
   </g>
   <g id="patch_219">
    <path d="M 1239.674759 29.763457 
L 1242.646708 29.763457 
L 1242.646708 29.763457 
L 1239.674759 29.763457 
z
" clip-path="url(#p77beec2f04)" style="fill: #6495ed"/>
   </g>
   <g id="patch_220">
    <path d="M 1244.834392 29.763457 
L 1247.806341 29.763457 
L 1247.806341 29.763457 
L 1244.834392 29.763457 
z
" clip-path="url(#p77beec2f04)" style="fill: #6495ed"/>
   </g>
   <g id="patch_221">
    <path d="M 1249.994025 29.763457 
L 1252.965974 29.763457 
L 1252.965974 29.763457 
L 1249.994025 29.763457 
z
" clip-path="url(#p77beec2f04)" style="fill: #6495ed"/>
   </g>
   <g id="patch_222">
    <path d="M 1255.153659 29.763457 
L 1258.125607 29.763457 
L 1258.125607 29.763457 
L 1255.153659 29.763457 
z
" clip-path="url(#p77beec2f04)" style="fill: #6495ed"/>
   </g>
   <g id="patch_223">
    <path d="M 1260.313292 29.763457 
L 1263.285241 29.763457 
L 1263.285241 29.763457 
L 1260.313292 29.763457 
z
" clip-path="url(#p77beec2f04)" style="fill: #6495ed"/>
   </g>
   <g id="patch_224">
    <path d="M 1265.472925 29.763457 
L 1268.444874 29.763457 
L 1268.444874 29.763457 
L 1265.472925 29.763457 
z
" clip-path="url(#p77beec2f04)" style="fill: #6495ed"/>
   </g>
   <g id="patch_225">
    <path d="M 1270.632559 29.763457 
L 1273.604507 29.763457 
L 1273.604507 29.763457 
L 1270.632559 29.763457 
z
" clip-path="url(#p77beec2f04)" style="fill: #6495ed"/>
   </g>
   <g id="patch_226">
    <path d="M 1275.792192 29.763457 
L 1278.764141 29.763457 
L 1278.764141 29.763457 
L 1275.792192 29.763457 
z
" clip-path="url(#p77beec2f04)" style="fill: #6495ed"/>
   </g>
   <g id="patch_227">
    <path d="M 1280.951825 29.763457 
L 1283.923774 29.763457 
L 1283.923774 29.763457 
L 1280.951825 29.763457 
z
" clip-path="url(#p77beec2f04)" style="fill: #6495ed"/>
   </g>
   <g id="patch_228">
    <path d="M 1286.111458 29.763457 
L 1289.083407 29.763457 
L 1289.083407 29.763457 
L 1286.111458 29.763457 
z
" clip-path="url(#p77beec2f04)" style="fill: #6495ed"/>
   </g>
   <g id="patch_229">
    <path d="M 1291.271092 29.763457 
L 1294.243041 29.763457 
L 1294.243041 29.763457 
L 1291.271092 29.763457 
z
" clip-path="url(#p77beec2f04)" style="fill: #6495ed"/>
   </g>
   <g id="patch_230">
    <path d="M 1296.430725 29.763457 
L 1299.402674 29.763457 
L 1299.402674 29.763457 
L 1296.430725 29.763457 
z
" clip-path="url(#p77beec2f04)" style="fill: #6495ed"/>
   </g>
   <g id="patch_231">
    <path d="M 1301.590358 29.763457 
L 1304.562307 29.763457 
L 1304.562307 29.763457 
L 1301.590358 29.763457 
z
" clip-path="url(#p77beec2f04)" style="fill: #6495ed"/>
   </g>
   <g id="patch_232">
    <path d="M 1306.749992 29.763457 
L 1309.72194 29.763457 
L 1309.72194 29.763457 
L 1306.749992 29.763457 
z
" clip-path="url(#p77beec2f04)" style="fill: #6495ed"/>
   </g>
   <g id="patch_233">
    <path d="M 1311.909625 29.763457 
L 1314.881574 29.763457 
L 1314.881574 44.407905 
L 1311.909625 44.407905 
z
" clip-path="url(#p77beec2f04)" style="fill: #6495ed"/>
   </g>
   <g id="patch_234">
    <path d="M 1317.069258 29.763457 
L 1320.041207 29.763457 
L 1320.041207 81.019026 
L 1317.069258 81.019026 
z
" clip-path="url(#p77beec2f04)" style="fill: #6495ed"/>
   </g>
   <g id="patch_235">
    <path d="M 1322.228892 29.763457 
L 1325.20084 29.763457 
L 1325.20084 73.696802 
L 1322.228892 73.696802 
z
" clip-path="url(#p77beec2f04)" style="fill: #6495ed"/>
   </g>
   <g id="patch_236">
    <path d="M 1327.388525 29.763457 
L 1330.360474 29.763457 
L 1330.360474 66.374578 
L 1327.388525 66.374578 
z
" clip-path="url(#p77beec2f04)" style="fill: #6495ed"/>
   </g>
   <g id="patch_237">
    <path d="M 1332.548158 29.763457 
L 1335.520107 29.763457 
L 1335.520107 59.052354 
L 1332.548158 59.052354 
z
" clip-path="url(#p77beec2f04)" style="fill: #6495ed"/>
   </g>
   <g id="patch_238">
    <path d="M 1337.707791 29.763457 
L 1340.67974 29.763457 
L 1340.67974 37.085681 
L 1337.707791 37.085681 
z
" clip-path="url(#p77beec2f04)" style="fill: #6495ed"/>
   </g>
   <g id="patch_239">
    <path d="M 1342.867425 29.763457 
L 1345.839374 29.763457 
L 1345.839374 29.763457 
L 1342.867425 29.763457 
z
" clip-path="url(#p77beec2f04)" style="fill: #6495ed"/>
   </g>
   <g id="patch_240">
    <path d="M 1348.027058 29.763457 
L 1350.999007 29.763457 
L 1350.999007 37.085681 
L 1348.027058 37.085681 
z
" clip-path="url(#p77beec2f04)" style="fill: #6495ed"/>
   </g>
   <g id="matplotlib.axis_3">
    <g id="ytick_11">
     <g id="line2d_32">
      <defs>
       <path id="m70159594a1" d="M 0 0 
L 3.5 0 
" style="stroke: #000000; stroke-width: 0.8"/>
      </defs>
      <g>
       <use xlink:href="#m70159594a1" x="1896.235" y="29.763457" style="stroke: #000000; stroke-width: 0.8"/>
      </g>
     </g>
     <g id="text_24">
      <!-- 0.0 -->
      <g transform="translate(1903.235 33.562676) scale(0.1 -0.1)">
       <use xlink:href="#DejaVuSans-30"/>
       <use xlink:href="#DejaVuSans-2e" transform="translate(63.623047 0)"/>
       <use xlink:href="#DejaVuSans-30" transform="translate(95.410156 0)"/>
      </g>
     </g>
    </g>
    <g id="ytick_12">
     <g id="line2d_33">
      <g>
       <use xlink:href="#m70159594a1" x="1896.235" y="65.798025" style="stroke: #000000; stroke-width: 0.8"/>
      </g>
     </g>
     <g id="text_25">
      <!-- 0.5 -->
      <g transform="translate(1903.235 69.597243) scale(0.1 -0.1)">
       <use xlink:href="#DejaVuSans-30"/>
       <use xlink:href="#DejaVuSans-2e" transform="translate(63.623047 0)"/>
       <use xlink:href="#DejaVuSans-35" transform="translate(95.410156 0)"/>
      </g>
     </g>
    </g>
    <g id="ytick_13">
     <g id="line2d_34">
      <g>
       <use xlink:href="#m70159594a1" x="1896.235" y="101.832593" style="stroke: #000000; stroke-width: 0.8"/>
      </g>
     </g>
     <g id="text_26">
      <!-- 1.0 -->
      <g transform="translate(1903.235 105.631811) scale(0.1 -0.1)">
       <use xlink:href="#DejaVuSans-31"/>
       <use xlink:href="#DejaVuSans-2e" transform="translate(63.623047 0)"/>
       <use xlink:href="#DejaVuSans-30" transform="translate(95.410156 0)"/>
      </g>
     </g>
    </g>
    <g id="ytick_14">
     <g id="line2d_35">
      <g>
       <use xlink:href="#m70159594a1" x="1896.235" y="137.86716" style="stroke: #000000; stroke-width: 0.8"/>
      </g>
     </g>
     <g id="text_27">
      <!-- 1.5 -->
      <g transform="translate(1903.235 141.666379) scale(0.1 -0.1)">
       <use xlink:href="#DejaVuSans-31"/>
       <use xlink:href="#DejaVuSans-2e" transform="translate(63.623047 0)"/>
       <use xlink:href="#DejaVuSans-35" transform="translate(95.410156 0)"/>
      </g>
     </g>
    </g>
    <g id="ytick_15">
     <g id="line2d_36">
      <g>
       <use xlink:href="#m70159594a1" x="1896.235" y="173.901728" style="stroke: #000000; stroke-width: 0.8"/>
      </g>
     </g>
     <g id="text_28">
      <!-- 2.0 -->
      <g transform="translate(1903.235 177.700947) scale(0.1 -0.1)">
       <use xlink:href="#DejaVuSans-32"/>
       <use xlink:href="#DejaVuSans-2e" transform="translate(63.623047 0)"/>
       <use xlink:href="#DejaVuSans-30" transform="translate(95.410156 0)"/>
      </g>
     </g>
    </g>
    <g id="ytick_16">
     <g id="line2d_37">
      <g>
       <use xlink:href="#m70159594a1" x="1896.235" y="209.936296" style="stroke: #000000; stroke-width: 0.8"/>
      </g>
     </g>
     <g id="text_29">
      <!-- 2.5 -->
      <g transform="translate(1903.235 213.735515) scale(0.1 -0.1)">
       <use xlink:href="#DejaVuSans-32"/>
       <use xlink:href="#DejaVuSans-2e" transform="translate(63.623047 0)"/>
       <use xlink:href="#DejaVuSans-35" transform="translate(95.410156 0)"/>
      </g>
     </g>
    </g>
    <g id="ytick_17">
     <g id="line2d_38">
      <g>
       <use xlink:href="#m70159594a1" x="1896.235" y="245.970864" style="stroke: #000000; stroke-width: 0.8"/>
      </g>
     </g>
     <g id="text_30">
      <!-- 3.0 -->
      <g transform="translate(1903.235 249.770083) scale(0.1 -0.1)">
       <use xlink:href="#DejaVuSans-33"/>
       <use xlink:href="#DejaVuSans-2e" transform="translate(63.623047 0)"/>
       <use xlink:href="#DejaVuSans-30" transform="translate(95.410156 0)"/>
      </g>
     </g>
    </g>
    <g id="ytick_18">
     <g id="line2d_39">
      <g>
       <use xlink:href="#m70159594a1" x="1896.235" y="282.005432" style="stroke: #000000; stroke-width: 0.8"/>
      </g>
     </g>
     <g id="text_31">
      <!-- 3.5 -->
      <g transform="translate(1903.235 285.804651) scale(0.1 -0.1)">
       <use xlink:href="#DejaVuSans-33"/>
       <use xlink:href="#DejaVuSans-2e" transform="translate(63.623047 0)"/>
       <use xlink:href="#DejaVuSans-35" transform="translate(95.410156 0)"/>
      </g>
     </g>
    </g>
    <g id="ytick_19">
     <g id="line2d_40">
      <g>
       <use xlink:href="#m70159594a1" x="1896.235" y="318.04" style="stroke: #000000; stroke-width: 0.8"/>
      </g>
     </g>
     <g id="text_32">
      <!-- 4.0 -->
      <g transform="translate(1903.235 321.839219) scale(0.1 -0.1)">
       <use xlink:href="#DejaVuSans-34"/>
       <use xlink:href="#DejaVuSans-2e" transform="translate(63.623047 0)"/>
       <use xlink:href="#DejaVuSans-30" transform="translate(95.410156 0)"/>
      </g>
     </g>
    </g>
    <g id="text_33">
     <!-- Precipitation (cm) -->
     <g style="fill: #6495ed" transform="translate(1930.736563 216.460156) rotate(-90) scale(0.1 -0.1)">
      <defs>
       <path id="DejaVuSans-50" d="M 1259 4147 
L 1259 2394 
L 2053 2394 
Q 2494 2394 2734 2622 
Q 2975 2850 2975 3272 
Q 2975 3691 2734 3919 
Q 2494 4147 2053 4147 
L 1259 4147 
z
M 628 4666 
L 2053 4666 
Q 2838 4666 3239 4311 
Q 3641 3956 3641 3272 
Q 3641 2581 3239 2228 
Q 2838 1875 2053 1875 
L 1259 1875 
L 1259 0 
L 628 0 
L 628 4666 
z
" transform="scale(0.015625)"/>
       <path id="DejaVuSans-63" d="M 3122 3366 
L 3122 2828 
Q 2878 2963 2633 3030 
Q 2388 3097 2138 3097 
Q 1578 3097 1268 2742 
Q 959 2388 959 1747 
Q 959 1106 1268 751 
Q 1578 397 2138 397 
Q 2388 397 2633 464 
Q 2878 531 3122 666 
L 3122 134 
Q 2881 22 2623 -34 
Q 2366 -91 2075 -91 
Q 1284 -91 818 406 
Q 353 903 353 1747 
Q 353 2603 823 3093 
Q 1294 3584 2113 3584 
Q 2378 3584 2631 3529 
Q 2884 3475 3122 3366 
z
" transform="scale(0.015625)"/>
      </defs>
      <use xlink:href="#DejaVuSans-50"/>
      <use xlink:href="#DejaVuSans-72" transform="translate(58.552734 0)"/>
      <use xlink:href="#DejaVuSans-65" transform="translate(97.416016 0)"/>
      <use xlink:href="#DejaVuSans-63" transform="translate(158.939453 0)"/>
      <use xlink:href="#DejaVuSans-69" transform="translate(213.919922 0)"/>
      <use xlink:href="#DejaVuSans-70" transform="translate(241.703125 0)"/>
      <use xlink:href="#DejaVuSans-69" transform="translate(305.179688 0)"/>
      <use xlink:href="#DejaVuSans-74" transform="translate(332.962891 0)"/>
      <use xlink:href="#DejaVuSans-61" transform="translate(372.171875 0)"/>
      <use xlink:href="#DejaVuSans-74" transform="translate(433.451172 0)"/>
      <use xlink:href="#DejaVuSans-69" transform="translate(472.660156 0)"/>
      <use xlink:href="#DejaVuSans-6f" transform="translate(500.443359 0)"/>
      <use xlink:href="#DejaVuSans-6e" transform="translate(561.625 0)"/>
      <use xlink:href="#DejaVuSans-20" transform="translate(625.003906 0)"/>
      <use xlink:href="#DejaVuSans-28" transform="translate(656.791016 0)"/>
      <use xlink:href="#DejaVuSans-63" transform="translate(695.804688 0)"/>
      <use xlink:href="#DejaVuSans-6d" transform="translate(750.785156 0)"/>
      <use xlink:href="#DejaVuSans-29" transform="translate(848.197266 0)"/>
     </g>
    </g>
   </g>
   <g id="patch_241">
    <path d="M 62.48 318.04 
L 62.48 26.16 
" style="fill: none; stroke: #000000; stroke-width: 0.8; stroke-linejoin: miter; stroke-linecap: square"/>
   </g>
   <g id="patch_242">
    <path d="M 1896.235 318.04 
L 1896.235 26.16 
" style="fill: none; stroke: #000000; stroke-width: 0.8; stroke-linejoin: miter; stroke-linecap: square"/>
   </g>
   <g id="patch_243">
    <path d="M 62.48 318.04 
L 1896.235 318.04 
" style="fill: none; stroke: #000000; stroke-width: 0.8; stroke-linejoin: miter; stroke-linecap: square"/>
   </g>
   <g id="patch_244">
    <path d="M 62.48 26.16 
L 1896.235 26.16 
" style="fill: none; stroke: #000000; stroke-width: 0.8; stroke-linejoin: miter; stroke-linecap: square"/>
   </g>
  </g>
 </g>
 <defs>
  <clipPath id="p77beec2f04">
   <rect x="62.48" y="26.16" width="1833.755" height="291.88"/>
  </clipPath>
 </defs>
</svg>
