<?xml version="1.0" encoding="utf-8" standalone="no"?>
<!DOCTYPE svg PUBLIC "-//W3C//DTD SVG 1.1//EN"
  "http://www.w3.org/Graphics/SVG/1.1/DTD/svg11.dtd">
<svg xmlns:xlink="http://www.w3.org/1999/xlink" width="720pt" height="288pt" viewBox="0 0 720 288" xmlns="http://www.w3.org/2000/svg" version="1.1">
 <metadata>
  <rdf:RDF xmlns:dc="http://purl.org/dc/elements/1.1/" xmlns:cc="http://creativecommons.org/ns#" xmlns:rdf="http://www.w3.org/1999/02/22-rdf-syntax-ns#">
   <cc:Work>
    <dc:type rdf:resource="http://purl.org/dc/dcmitype/StillImage"/>
    <dc:date>2025-10-16T19:23:59.804748</dc:date>
    <dc:format>image/svg+xml</dc:format>
    <dc:creator>
     <cc:Agent>
      <dc:title>Matplotlib v3.10.0, https://matplotlib.org/</dc:title>
     </cc:Agent>
    </dc:creator>
   </cc:Work>
  </rdf:RDF>
 </metadata>
 <defs>
  <style type="text/css">*{stroke-linejoin: round; stroke-linecap: butt}</style>
 </defs>
 <g id="figure_1">
  <g id="patch_1">
   <path d="M 0 288 
L 720 288 
L 720 0 
L 0 0 
z
" style="fill: #ffffff"/>
  </g>
  <g id="axes_1">
   <g id="patch_2">
    <path d="M 47.765 235.78 
L 556.015 235.78 
L 556.015 52.22 
L 47.765 52.22 
z
" style="fill: #ffffff"/>
   </g>
   <g id="matplotlib.axis_1">
    <g id="xtick_1">
     <g id="line2d_1">
      <path d="M 47.765 235.78 
L 47.765 52.22 
" clip-path="url(#pdba91d608a)" style="fill: none; stroke: #b0b0b0; stroke-width: 0.8; stroke-linecap: square"/>
     </g>
     <g id="line2d_2">
      <defs>
       <path id="m6a004e9d94" d="M 0 0 
L 0 3.5 
" style="stroke: #000000; stroke-width: 0.8"/>
      </defs>
      <g>
       <use xlink:href="#m6a004e9d94" x="47.765" y="235.78" style="stroke: #000000; stroke-width: 0.8"/>
      </g>
     </g>
     <g id="text_1">
      <!-- Base -->
      <g transform="translate(35.589219 250.378437) scale(0.1 -0.1)">
       <defs>
        <path id="DejaVuSans-42" d="M 1259 2228 
L 1259 519 
L 2272 519 
Q 2781 519 3026 730 
Q 3272 941 3272 1375 
Q 3272 1813 3026 2020 
Q 2781 2228 2272 2228 
L 1259 2228 
z
M 1259 4147 
L 1259 2741 
L 2194 2741 
Q 2656 2741 2882 2914 
Q 3109 3088 3109 3444 
Q 3109 3797 2882 3972 
Q 2656 4147 2194 4147 
L 1259 4147 
z
M 628 4666 
L 2241 4666 
Q 2963 4666 3353 4366 
Q 3744 4066 3744 3513 
Q 3744 3084 3544 2831 
Q 3344 2578 2956 2516 
Q 3422 2416 3680 2098 
Q 3938 1781 3938 1306 
Q 3938 681 3513 340 
Q 3088 0 2303 0 
L 628 0 
L 628 4666 
z
" transform="scale(0.015625)"/>
        <path id="DejaVuSans-61" d="M 2194 1759 
Q 1497 1759 1228 1600 
Q 959 1441 959 1056 
Q 959 750 1161 570 
Q 1363 391 1709 391 
Q 2188 391 2477 730 
Q 2766 1069 2766 1631 
L 2766 1759 
L 2194 1759 
z
M 3341 1997 
L 3341 0 
L 2766 0 
L 2766 531 
Q 2569 213 2275 61 
Q 1981 -91 1556 -91 
Q 1019 -91 701 211 
Q 384 513 384 1019 
Q 384 1609 779 1909 
Q 1175 2209 1959 2209 
L 2766 2209 
L 2766 2266 
Q 2766 2663 2505 2880 
Q 2244 3097 1772 3097 
Q 1472 3097 1187 3025 
Q 903 2953 641 2809 
L 641 3341 
Q 956 3463 1253 3523 
Q 1550 3584 1831 3584 
Q 2591 3584 2966 3190 
Q 3341 2797 3341 1997 
z
" transform="scale(0.015625)"/>
        <path id="DejaVuSans-73" d="M 2834 3397 
L 2834 2853 
Q 2591 2978 2328 3040 
Q 2066 3103 1784 3103 
Q 1356 3103 1142 2972 
Q 928 2841 928 2578 
Q 928 2378 1081 2264 
Q 1234 2150 1697 2047 
L 1894 2003 
Q 2506 1872 2764 1633 
Q 3022 1394 3022 966 
Q 3022 478 2636 193 
Q 2250 -91 1575 -91 
Q 1294 -91 989 -36 
Q 684 19 347 128 
L 347 722 
Q 666 556 975 473 
Q 1284 391 1588 391 
Q 1994 391 2212 530 
Q 2431 669 2431 922 
Q 2431 1156 2273 1281 
Q 2116 1406 1581 1522 
L 1381 1569 
Q 847 1681 609 1914 
Q 372 2147 372 2553 
Q 372 3047 722 3315 
Q 1072 3584 1716 3584 
Q 2034 3584 2315 3537 
Q 2597 3491 2834 3397 
z
" transform="scale(0.015625)"/>
        <path id="DejaVuSans-65" d="M 3597 1894 
L 3597 1613 
L 953 1613 
Q 991 1019 1311 708 
Q 1631 397 2203 397 
Q 2534 397 2845 478 
Q 3156 559 3463 722 
L 3463 178 
Q 3153 47 2828 -22 
Q 2503 -91 2169 -91 
Q 1331 -91 842 396 
Q 353 884 353 1716 
Q 353 2575 817 3079 
Q 1281 3584 2069 3584 
Q 2775 3584 3186 3129 
Q 3597 2675 3597 1894 
z
M 3022 2063 
Q 3016 2534 2758 2815 
Q 2500 3097 2075 3097 
Q 1594 3097 1305 2825 
Q 1016 2553 972 2059 
L 3022 2063 
z
" transform="scale(0.015625)"/>
       </defs>
       <use xlink:href="#DejaVuSans-42"/>
       <use xlink:href="#DejaVuSans-61" transform="translate(68.603516 0)"/>
       <use xlink:href="#DejaVuSans-73" transform="translate(129.882812 0)"/>
       <use xlink:href="#DejaVuSans-65" transform="translate(181.982422 0)"/>
      </g>
     </g>
    </g>
    <g id="xtick_2">
     <g id="line2d_3">
      <path d="M 217.181667 235.78 
L 217.181667 52.22 
" clip-path="url(#pdba91d608a)" style="fill: none; stroke: #b0b0b0; stroke-width: 0.8; stroke-linecap: square"/>
     </g>
     <g id="line2d_4">
      <g>
       <use xlink:href="#m6a004e9d94" x="217.181667" y="235.78" style="stroke: #000000; stroke-width: 0.8"/>
      </g>
     </g>
     <g id="text_2">
      <!-- V -->
      <g transform="translate(213.761354 250.378437) scale(0.1 -0.1)">
       <defs>
        <path id="DejaVuSans-56" d="M 1831 0 
L 50 4666 
L 709 4666 
L 2188 738 
L 3669 4666 
L 4325 4666 
L 2547 0 
L 1831 0 
z
" transform="scale(0.015625)"/>
       </defs>
       <use xlink:href="#DejaVuSans-56"/>
      </g>
     </g>
    </g>
    <g id="xtick_3">
     <g id="line2d_5">
      <path d="M 386.598333 235.78 
L 386.598333 52.22 
" clip-path="url(#pdba91d608a)" style="fill: none; stroke: #b0b0b0; stroke-width: 0.8; stroke-linecap: square"/>
     </g>
     <g id="line2d_6">
      <g>
       <use xlink:href="#m6a004e9d94" x="386.598333" y="235.78" style="stroke: #000000; stroke-width: 0.8"/>
      </g>
     </g>
     <g id="text_3">
      <!-- I -->
      <g transform="translate(385.123333 250.378437) scale(0.1 -0.1)">
       <defs>
        <path id="DejaVuSans-49" d="M 628 4666 
L 1259 4666 
L 1259 0 
L 628 0 
L 628 4666 
z
" transform="scale(0.015625)"/>
       </defs>
       <use xlink:href="#DejaVuSans-49"/>
      </g>
     </g>
    </g>
    <g id="xtick_4">
     <g id="line2d_7">
      <path d="M 556.015 235.78 
L 556.015 52.22 
" clip-path="url(#pdba91d608a)" style="fill: none; stroke: #b0b0b0; stroke-width: 0.8; stroke-linecap: square"/>
     </g>
     <g id="line2d_8">
      <g>
       <use xlink:href="#m6a004e9d94" x="556.015" y="235.78" style="stroke: #000000; stroke-width: 0.8"/>
      </g>
     </g>
     <g id="text_4">
      <!-- V&amp;I -->
      <g transform="translate(547.220469 250.378437) scale(0.1 -0.1)">
       <defs>
        <path id="DejaVuSans-26" d="M 1556 2509 
Q 1272 2256 1139 2004 
Q 1006 1753 1006 1478 
Q 1006 1022 1337 719 
Q 1669 416 2169 416 
Q 2466 416 2725 514 
Q 2984 613 3213 813 
L 1556 2509 
z
M 1997 2859 
L 3584 1234 
Q 3769 1513 3872 1830 
Q 3975 2147 3994 2503 
L 4575 2503 
Q 4538 2091 4375 1687 
Q 4213 1284 3922 891 
L 4794 0 
L 4006 0 
L 3559 459 
Q 3234 181 2878 45 
Q 2522 -91 2113 -91 
Q 1359 -91 881 339 
Q 403 769 403 1441 
Q 403 1841 612 2192 
Q 822 2544 1241 2853 
Q 1091 3050 1012 3245 
Q 934 3441 934 3628 
Q 934 4134 1281 4442 
Q 1628 4750 2203 4750 
Q 2463 4750 2720 4694 
Q 2978 4638 3244 4525 
L 3244 3956 
Q 2972 4103 2725 4179 
Q 2478 4256 2266 4256 
Q 1938 4256 1733 4082 
Q 1528 3909 1528 3634 
Q 1528 3475 1620 3314 
Q 1713 3153 1997 2859 
z
" transform="scale(0.015625)"/>
       </defs>
       <use xlink:href="#DejaVuSans-56"/>
       <use xlink:href="#DejaVuSans-26" transform="translate(68.408203 0)"/>
       <use xlink:href="#DejaVuSans-49" transform="translate(146.386719 0)"/>
      </g>
     </g>
    </g>
   </g>
   <g id="matplotlib.axis_2">
    <g id="ytick_1">
     <g id="line2d_9">
      <defs>
       <path id="ma93a48e69c" d="M 0 0 
L -3.5 0 
" style="stroke: #000000; stroke-width: 0.8"/>
      </defs>
      <g>
       <use xlink:href="#ma93a48e69c" x="47.765" y="235.78" style="stroke: #000000; stroke-width: 0.8"/>
      </g>
     </g>
     <g id="text_5">
      <!-- 0.0 -->
      <g transform="translate(24.861875 239.579219) scale(0.1 -0.1)">
       <defs>
        <path id="DejaVuSans-30" d="M 2034 4250 
Q 1547 4250 1301 3770 
Q 1056 3291 1056 2328 
Q 1056 1369 1301 889 
Q 1547 409 2034 409 
Q 2525 409 2770 889 
Q 3016 1369 3016 2328 
Q 3016 3291 2770 3770 
Q 2525 4250 2034 4250 
z
M 2034 4750 
Q 2819 4750 3233 4129 
Q 3647 3509 3647 2328 
Q 3647 1150 3233 529 
Q 2819 -91 2034 -91 
Q 1250 -91 836 529 
Q 422 1150 422 2328 
Q 422 3509 836 4129 
Q 1250 4750 2034 4750 
z
" transform="scale(0.015625)"/>
        <path id="DejaVuSans-2e" d="M 684 794 
L 1344 794 
L 1344 0 
L 684 0 
L 684 794 
z
" transform="scale(0.015625)"/>
       </defs>
       <use xlink:href="#DejaVuSans-30"/>
       <use xlink:href="#DejaVuSans-2e" transform="translate(63.623047 0)"/>
       <use xlink:href="#DejaVuSans-30" transform="translate(95.410156 0)"/>
      </g>
     </g>
    </g>
    <g id="ytick_2">
     <g id="line2d_10">
      <g>
       <use xlink:href="#ma93a48e69c" x="47.765" y="215.384444" style="stroke: #000000; stroke-width: 0.8"/>
      </g>
     </g>
     <g id="text_6">
      <!-- 0.1 -->
      <g transform="translate(24.861875 219.183663) scale(0.1 -0.1)">
       <defs>
        <path id="DejaVuSans-31" d="M 794 531 
L 1825 531 
L 1825 4091 
L 703 3866 
L 703 4441 
L 1819 4666 
L 2450 4666 
L 2450 531 
L 3481 531 
L 3481 0 
L 794 0 
L 794 531 
z
" transform="scale(0.015625)"/>
       </defs>
       <use xlink:href="#DejaVuSans-30"/>
       <use xlink:href="#DejaVuSans-2e" transform="translate(63.623047 0)"/>
       <use xlink:href="#DejaVuSans-31" transform="translate(95.410156 0)"/>
      </g>
     </g>
    </g>
    <g id="ytick_3">
     <g id="line2d_11">
      <g>
       <use xlink:href="#ma93a48e69c" x="47.765" y="194.988889" style="stroke: #000000; stroke-width: 0.8"/>
      </g>
     </g>
     <g id="text_7">
      <!-- 0.2 -->
      <g transform="translate(24.861875 198.788108) scale(0.1 -0.1)">
       <defs>
        <path id="DejaVuSans-32" d="M 1228 531 
L 3431 531 
L 3431 0 
L 469 0 
L 469 531 
Q 828 903 1448 1529 
Q 2069 2156 2228 2338 
Q 2531 2678 2651 2914 
Q 2772 3150 2772 3378 
Q 2772 3750 2511 3984 
Q 2250 4219 1831 4219 
Q 1534 4219 1204 4116 
Q 875 4013 500 3803 
L 500 4441 
Q 881 4594 1212 4672 
Q 1544 4750 1819 4750 
Q 2544 4750 2975 4387 
Q 3406 4025 3406 3419 
Q 3406 3131 3298 2873 
Q 3191 2616 2906 2266 
Q 2828 2175 2409 1742 
Q 1991 1309 1228 531 
z
" transform="scale(0.015625)"/>
       </defs>
       <use xlink:href="#DejaVuSans-30"/>
       <use xlink:href="#DejaVuSans-2e" transform="translate(63.623047 0)"/>
       <use xlink:href="#DejaVuSans-32" transform="translate(95.410156 0)"/>
      </g>
     </g>
    </g>
    <g id="ytick_4">
     <g id="line2d_12">
      <g>
       <use xlink:href="#ma93a48e69c" x="47.765" y="174.593333" style="stroke: #000000; stroke-width: 0.8"/>
      </g>
     </g>
     <g id="text_8">
      <!-- 0.3 -->
      <g transform="translate(24.861875 178.392552) scale(0.1 -0.1)">
       <defs>
        <path id="DejaVuSans-33" d="M 2597 2516 
Q 3050 2419 3304 2112 
Q 3559 1806 3559 1356 
Q 3559 666 3084 287 
Q 2609 -91 1734 -91 
Q 1441 -91 1130 -33 
Q 819 25 488 141 
L 488 750 
Q 750 597 1062 519 
Q 1375 441 1716 441 
Q 2309 441 2620 675 
Q 2931 909 2931 1356 
Q 2931 1769 2642 2001 
Q 2353 2234 1838 2234 
L 1294 2234 
L 1294 2753 
L 1863 2753 
Q 2328 2753 2575 2939 
Q 2822 3125 2822 3475 
Q 2822 3834 2567 4026 
Q 2313 4219 1838 4219 
Q 1578 4219 1281 4162 
Q 984 4106 628 3988 
L 628 4550 
Q 988 4650 1302 4700 
Q 1616 4750 1894 4750 
Q 2613 4750 3031 4423 
Q 3450 4097 3450 3541 
Q 3450 3153 3228 2886 
Q 3006 2619 2597 2516 
z
" transform="scale(0.015625)"/>
       </defs>
       <use xlink:href="#DejaVuSans-30"/>
       <use xlink:href="#DejaVuSans-2e" transform="translate(63.623047 0)"/>
       <use xlink:href="#DejaVuSans-33" transform="translate(95.410156 0)"/>
      </g>
     </g>
    </g>
    <g id="ytick_5">
     <g id="line2d_13">
      <g>
       <use xlink:href="#ma93a48e69c" x="47.765" y="154.197778" style="stroke: #000000; stroke-width: 0.8"/>
      </g>
     </g>
     <g id="text_9">
      <!-- 0.4 -->
      <g transform="translate(24.861875 157.996997) scale(0.1 -0.1)">
       <defs>
        <path id="DejaVuSans-34" d="M 2419 4116 
L 825 1625 
L 2419 1625 
L 2419 4116 
z
M 2253 4666 
L 3047 4666 
L 3047 1625 
L 3713 1625 
L 3713 1100 
L 3047 1100 
L 3047 0 
L 2419 0 
L 2419 1100 
L 313 1100 
L 313 1709 
L 2253 4666 
z
" transform="scale(0.015625)"/>
       </defs>
       <use xlink:href="#DejaVuSans-30"/>
       <use xlink:href="#DejaVuSans-2e" transform="translate(63.623047 0)"/>
       <use xlink:href="#DejaVuSans-34" transform="translate(95.410156 0)"/>
      </g>
     </g>
    </g>
    <g id="ytick_6">
     <g id="line2d_14">
      <g>
       <use xlink:href="#ma93a48e69c" x="47.765" y="133.802222" style="stroke: #000000; stroke-width: 0.8"/>
      </g>
     </g>
     <g id="text_10">
      <!-- 0.5 -->
      <g transform="translate(24.861875 137.601441) scale(0.1 -0.1)">
       <defs>
        <path id="DejaVuSans-35" d="M 691 4666 
L 3169 4666 
L 3169 4134 
L 1269 4134 
L 1269 2991 
Q 1406 3038 1543 3061 
Q 1681 3084 1819 3084 
Q 2600 3084 3056 2656 
Q 3513 2228 3513 1497 
Q 3513 744 3044 326 
Q 2575 -91 1722 -91 
Q 1428 -91 1123 -41 
Q 819 9 494 109 
L 494 744 
Q 775 591 1075 516 
Q 1375 441 1709 441 
Q 2250 441 2565 725 
Q 2881 1009 2881 1497 
Q 2881 1984 2565 2268 
Q 2250 2553 1709 2553 
Q 1456 2553 1204 2497 
Q 953 2441 691 2322 
L 691 4666 
z
" transform="scale(0.015625)"/>
       </defs>
       <use xlink:href="#DejaVuSans-30"/>
       <use xlink:href="#DejaVuSans-2e" transform="translate(63.623047 0)"/>
       <use xlink:href="#DejaVuSans-35" transform="translate(95.410156 0)"/>
      </g>
     </g>
    </g>
    <g id="ytick_7">
     <g id="line2d_15">
      <g>
       <use xlink:href="#ma93a48e69c" x="47.765" y="113.406667" style="stroke: #000000; stroke-width: 0.8"/>
      </g>
     </g>
     <g id="text_11">
      <!-- 0.6 -->
      <g transform="translate(24.861875 117.205885) scale(0.1 -0.1)">
       <defs>
        <path id="DejaVuSans-36" d="M 2113 2584 
Q 1688 2584 1439 2293 
Q 1191 2003 1191 1497 
Q 1191 994 1439 701 
Q 1688 409 2113 409 
Q 2538 409 2786 701 
Q 3034 994 3034 1497 
Q 3034 2003 2786 2293 
Q 2538 2584 2113 2584 
z
M 3366 4563 
L 3366 3988 
Q 3128 4100 2886 4159 
Q 2644 4219 2406 4219 
Q 1781 4219 1451 3797 
Q 1122 3375 1075 2522 
Q 1259 2794 1537 2939 
Q 1816 3084 2150 3084 
Q 2853 3084 3261 2657 
Q 3669 2231 3669 1497 
Q 3669 778 3244 343 
Q 2819 -91 2113 -91 
Q 1303 -91 875 529 
Q 447 1150 447 2328 
Q 447 3434 972 4092 
Q 1497 4750 2381 4750 
Q 2619 4750 2861 4703 
Q 3103 4656 3366 4563 
z
" transform="scale(0.015625)"/>
       </defs>
       <use xlink:href="#DejaVuSans-30"/>
       <use xlink:href="#DejaVuSans-2e" transform="translate(63.623047 0)"/>
       <use xlink:href="#DejaVuSans-36" transform="translate(95.410156 0)"/>
      </g>
     </g>
    </g>
    <g id="ytick_8">
     <g id="line2d_16">
      <g>
       <use xlink:href="#ma93a48e69c" x="47.765" y="93.011111" style="stroke: #000000; stroke-width: 0.8"/>
      </g>
     </g>
     <g id="text_12">
      <!-- 0.7 -->
      <g transform="translate(24.861875 96.81033) scale(0.1 -0.1)">
       <defs>
        <path id="DejaVuSans-37" d="M 525 4666 
L 3525 4666 
L 3525 4397 
L 1831 0 
L 1172 0 
L 2766 4134 
L 525 4134 
L 525 4666 
z
" transform="scale(0.015625)"/>
       </defs>
       <use xlink:href="#DejaVuSans-30"/>
       <use xlink:href="#DejaVuSans-2e" transform="translate(63.623047 0)"/>
       <use xlink:href="#DejaVuSans-37" transform="translate(95.410156 0)"/>
      </g>
     </g>
    </g>
    <g id="ytick_9">
     <g id="line2d_17">
      <g>
       <use xlink:href="#ma93a48e69c" x="47.765" y="72.615556" style="stroke: #000000; stroke-width: 0.8"/>
      </g>
     </g>
     <g id="text_13">
      <!-- 0.8 -->
      <g transform="translate(24.861875 76.414774) scale(0.1 -0.1)">
       <defs>
        <path id="DejaVuSans-38" d="M 2034 2216 
Q 1584 2216 1326 1975 
Q 1069 1734 1069 1313 
Q 1069 891 1326 650 
Q 1584 409 2034 409 
Q 2484 409 2743 651 
Q 3003 894 3003 1313 
Q 3003 1734 2745 1975 
Q 2488 2216 2034 2216 
z
M 1403 2484 
Q 997 2584 770 2862 
Q 544 3141 544 3541 
Q 544 4100 942 4425 
Q 1341 4750 2034 4750 
Q 2731 4750 3128 4425 
Q 3525 4100 3525 3541 
Q 3525 3141 3298 2862 
Q 3072 2584 2669 2484 
Q 3125 2378 3379 2068 
Q 3634 1759 3634 1313 
Q 3634 634 3220 271 
Q 2806 -91 2034 -91 
Q 1263 -91 848 271 
Q 434 634 434 1313 
Q 434 1759 690 2068 
Q 947 2378 1403 2484 
z
M 1172 3481 
Q 1172 3119 1398 2916 
Q 1625 2713 2034 2713 
Q 2441 2713 2670 2916 
Q 2900 3119 2900 3481 
Q 2900 3844 2670 4047 
Q 2441 4250 2034 4250 
Q 1625 4250 1398 4047 
Q 1172 3844 1172 3481 
z
" transform="scale(0.015625)"/>
       </defs>
       <use xlink:href="#DejaVuSans-30"/>
       <use xlink:href="#DejaVuSans-2e" transform="translate(63.623047 0)"/>
       <use xlink:href="#DejaVuSans-38" transform="translate(95.410156 0)"/>
      </g>
     </g>
    </g>
    <g id="ytick_10">
     <g id="line2d_18">
      <g>
       <use xlink:href="#ma93a48e69c" x="47.765" y="52.22" style="stroke: #000000; stroke-width: 0.8"/>
      </g>
     </g>
     <g id="text_14">
      <!-- 0.9 -->
      <g transform="translate(24.861875 56.019219) scale(0.1 -0.1)">
       <defs>
        <path id="DejaVuSans-39" d="M 703 97 
L 703 672 
Q 941 559 1184 500 
Q 1428 441 1663 441 
Q 2288 441 2617 861 
Q 2947 1281 2994 2138 
Q 2813 1869 2534 1725 
Q 2256 1581 1919 1581 
Q 1219 1581 811 2004 
Q 403 2428 403 3163 
Q 403 3881 828 4315 
Q 1253 4750 1959 4750 
Q 2769 4750 3195 4129 
Q 3622 3509 3622 2328 
Q 3622 1225 3098 567 
Q 2575 -91 1691 -91 
Q 1453 -91 1209 -44 
Q 966 3 703 97 
z
M 1959 2075 
Q 2384 2075 2632 2365 
Q 2881 2656 2881 3163 
Q 2881 3666 2632 3958 
Q 2384 4250 1959 4250 
Q 1534 4250 1286 3958 
Q 1038 3666 1038 3163 
Q 1038 2656 1286 2365 
Q 1534 2075 1959 2075 
z
" transform="scale(0.015625)"/>
       </defs>
       <use xlink:href="#DejaVuSans-30"/>
       <use xlink:href="#DejaVuSans-2e" transform="translate(63.623047 0)"/>
       <use xlink:href="#DejaVuSans-39" transform="translate(95.410156 0)"/>
      </g>
     </g>
    </g>
    <g id="text_15">
     <!-- Depth (m) -->
     <g transform="translate(18.782188 169.590625) rotate(-90) scale(0.1 -0.1)">
      <defs>
       <path id="DejaVuSans-44" d="M 1259 4147 
L 1259 519 
L 2022 519 
Q 2988 519 3436 956 
Q 3884 1394 3884 2338 
Q 3884 3275 3436 3711 
Q 2988 4147 2022 4147 
L 1259 4147 
z
M 628 4666 
L 1925 4666 
Q 3281 4666 3915 4102 
Q 4550 3538 4550 2338 
Q 4550 1131 3912 565 
Q 3275 0 1925 0 
L 628 0 
L 628 4666 
z
" transform="scale(0.015625)"/>
       <path id="DejaVuSans-70" d="M 1159 525 
L 1159 -1331 
L 581 -1331 
L 581 3500 
L 1159 3500 
L 1159 2969 
Q 1341 3281 1617 3432 
Q 1894 3584 2278 3584 
Q 2916 3584 3314 3078 
Q 3713 2572 3713 1747 
Q 3713 922 3314 415 
Q 2916 -91 2278 -91 
Q 1894 -91 1617 61 
Q 1341 213 1159 525 
z
M 3116 1747 
Q 3116 2381 2855 2742 
Q 2594 3103 2138 3103 
Q 1681 3103 1420 2742 
Q 1159 2381 1159 1747 
Q 1159 1113 1420 752 
Q 1681 391 2138 391 
Q 2594 391 2855 752 
Q 3116 1113 3116 1747 
z
" transform="scale(0.015625)"/>
       <path id="DejaVuSans-74" d="M 1172 4494 
L 1172 3500 
L 2356 3500 
L 2356 3053 
L 1172 3053 
L 1172 1153 
Q 1172 725 1289 603 
Q 1406 481 1766 481 
L 2356 481 
L 2356 0 
L 1766 0 
Q 1100 0 847 248 
Q 594 497 594 1153 
L 594 3053 
L 172 3053 
L 172 3500 
L 594 3500 
L 594 4494 
L 1172 4494 
z
" transform="scale(0.015625)"/>
       <path id="DejaVuSans-68" d="M 3513 2113 
L 3513 0 
L 2938 0 
L 2938 2094 
Q 2938 2591 2744 2837 
Q 2550 3084 2163 3084 
Q 1697 3084 1428 2787 
Q 1159 2491 1159 1978 
L 1159 0 
L 581 0 
L 581 4863 
L 1159 4863 
L 1159 2956 
Q 1366 3272 1645 3428 
Q 1925 3584 2291 3584 
Q 2894 3584 3203 3211 
Q 3513 2838 3513 2113 
z
" transform="scale(0.015625)"/>
       <path id="DejaVuSans-20" transform="scale(0.015625)"/>
       <path id="DejaVuSans-28" d="M 1984 4856 
Q 1566 4138 1362 3434 
Q 1159 2731 1159 2009 
Q 1159 1288 1364 580 
Q 1569 -128 1984 -844 
L 1484 -844 
Q 1016 -109 783 600 
Q 550 1309 550 2009 
Q 550 2706 781 3412 
Q 1013 4119 1484 4856 
L 1984 4856 
z
" transform="scale(0.015625)"/>
       <path id="DejaVuSans-6d" d="M 3328 2828 
Q 3544 3216 3844 3400 
Q 4144 3584 4550 3584 
Q 5097 3584 5394 3201 
Q 5691 2819 5691 2113 
L 5691 0 
L 5113 0 
L 5113 2094 
Q 5113 2597 4934 2840 
Q 4756 3084 4391 3084 
Q 3944 3084 3684 2787 
Q 3425 2491 3425 1978 
L 3425 0 
L 2847 0 
L 2847 2094 
Q 2847 2600 2669 2842 
Q 2491 3084 2119 3084 
Q 1678 3084 1418 2786 
Q 1159 2488 1159 1978 
L 1159 0 
L 581 0 
L 581 3500 
L 1159 3500 
L 1159 2956 
Q 1356 3278 1631 3431 
Q 1906 3584 2284 3584 
Q 2666 3584 2933 3390 
Q 3200 3197 3328 2828 
z
" transform="scale(0.015625)"/>
       <path id="DejaVuSans-29" d="M 513 4856 
L 1013 4856 
Q 1481 4119 1714 3412 
Q 1947 2706 1947 2009 
Q 1947 1309 1714 600 
Q 1481 -109 1013 -844 
L 513 -844 
Q 928 -128 1133 580 
Q 1338 1288 1338 2009 
Q 1338 2731 1133 3434 
Q 928 4138 513 4856 
z
" transform="scale(0.015625)"/>
      </defs>
      <use xlink:href="#DejaVuSans-44"/>
      <use xlink:href="#DejaVuSans-65" transform="translate(77.001953 0)"/>
      <use xlink:href="#DejaVuSans-70" transform="translate(138.525391 0)"/>
      <use xlink:href="#DejaVuSans-74" transform="translate(202.001953 0)"/>
      <use xlink:href="#DejaVuSans-68" transform="translate(241.210938 0)"/>
      <use xlink:href="#DejaVuSans-20" transform="translate(304.589844 0)"/>
      <use xlink:href="#DejaVuSans-28" transform="translate(336.376953 0)"/>
      <use xlink:href="#DejaVuSans-6d" transform="translate(375.390625 0)"/>
      <use xlink:href="#DejaVuSans-29" transform="translate(472.802734 0)"/>
     </g>
    </g>
   </g>
   <g id="line2d_19">
    <path d="M 47.765 204.771095 
L 217.181667 204.774203 
L 386.598333 204.776957 
L 556.015 204.778493 
" clip-path="url(#pdba91d608a)" style="fill: none; stroke: #d3d3d3; stroke-width: 1.5; stroke-linecap: square"/>
   </g>
   <g id="line2d_20">
    <path d="M 47.765 200.508422 
L 217.181667 201.307292 
L 386.598333 209.108552 
L 556.015 209.906727 
" clip-path="url(#pdba91d608a)" style="fill: none; stroke: #d3d3d3; stroke-width: 1.5; stroke-linecap: square"/>
   </g>
   <g id="line2d_21">
    <path d="M 47.765 192.651732 
L 217.181667 193.114728 
L 386.598333 198.815414 
L 556.015 199.05428 
" clip-path="url(#pdba91d608a)" style="fill: none; stroke: #d3d3d3; stroke-width: 1.5; stroke-linecap: square"/>
   </g>
   <g id="line2d_22">
    <path d="M 47.765 214.063301 
L 217.181667 214.246926 
L 386.598333 219.171793 
L 556.015 219.43218 
" clip-path="url(#pdba91d608a)" style="fill: none; stroke: #d3d3d3; stroke-width: 1.5; stroke-linecap: square"/>
   </g>
   <g id="line2d_23">
    <path d="M 47.765 208.157255 
L 217.181667 208.176311 
L 386.598333 224.81634 
L 556.015 224.816425 
" clip-path="url(#pdba91d608a)" style="fill: none; stroke: #d3d3d3; stroke-width: 1.5; stroke-linecap: square"/>
   </g>
   <g id="line2d_24">
    <path d="M 47.765 181.888802 
L 217.181667 182.297483 
L 386.598333 193.300346 
L 556.015 193.576088 
" clip-path="url(#pdba91d608a)" style="fill: none; stroke: #d3d3d3; stroke-width: 1.5; stroke-linecap: square"/>
   </g>
   <g id="line2d_25">
    <path d="M 47.765 213.969657 
L 217.181667 214.136218 
L 386.598333 219.886122 
L 556.015 220.001663 
" clip-path="url(#pdba91d608a)" style="fill: none; stroke: #d3d3d3; stroke-width: 1.5; stroke-linecap: square"/>
   </g>
   <g id="line2d_26">
    <path d="M 47.765 159.433029 
L 217.181667 159.665631 
L 386.598333 166.18857 
L 556.015 166.529158 
" clip-path="url(#pdba91d608a)" style="fill: none; stroke: #d3d3d3; stroke-width: 1.5; stroke-linecap: square"/>
   </g>
   <g id="line2d_27">
    <path d="M 47.765 200.765616 
L 217.181667 200.749336 
L 386.598333 199.763641 
L 556.015 199.719541 
" clip-path="url(#pdba91d608a)" style="fill: none; stroke: #d3d3d3; stroke-width: 1.5; stroke-linecap: square"/>
   </g>
   <g id="line2d_28">
    <path d="M 47.765 204.94754 
L 217.181667 205.034282 
L 386.598333 204.971438 
L 556.015 205.058646 
" clip-path="url(#pdba91d608a)" style="fill: none; stroke: #d3d3d3; stroke-width: 1.5; stroke-linecap: square"/>
   </g>
   <g id="line2d_29">
    <path d="M 47.765 189.333698 
L 217.181667 189.637112 
L 386.598333 195.961886 
L 556.015 196.247471 
" clip-path="url(#pdba91d608a)" style="fill: none; stroke: #d3d3d3; stroke-width: 1.5; stroke-linecap: square"/>
   </g>
   <g id="line2d_30">
    <path d="M 47.765 209.145902 
L 217.181667 209.314579 
L 386.598333 209.151366 
L 556.015 209.320206 
" clip-path="url(#pdba91d608a)" style="fill: none; stroke: #d3d3d3; stroke-width: 1.5; stroke-linecap: square"/>
   </g>
   <g id="line2d_31">
    <path d="M 47.765 209.106507 
L 217.181667 209.233332 
L 386.598333 209.260505 
L 556.015 209.386739 
" clip-path="url(#pdba91d608a)" style="fill: none; stroke: #9370db; stroke-width: 1.5; stroke-linecap: square"/>
   </g>
   <g id="line2d_32">
    <path d="M 47.765 215.495468 
L 217.181667 215.495457 
L 386.598333 215.495555 
L 556.015 215.495541 
" clip-path="url(#pdba91d608a)" style="fill: none; stroke: #d3d3d3; stroke-width: 1.5; stroke-linecap: square"/>
   </g>
   <g id="line2d_33">
    <path d="M 47.765 207.857563 
L 217.181667 207.865134 
L 386.598333 207.868515 
L 556.015 207.876064 
" clip-path="url(#pdba91d608a)" style="fill: none; stroke: #9370db; stroke-width: 1.5; stroke-linecap: square"/>
   </g>
   <g id="line2d_34">
    <path d="M 47.765 180.775142 
L 217.181667 180.923059 
L 386.598333 189.710543 
L 556.015 189.839321 
" clip-path="url(#pdba91d608a)" style="fill: none; stroke: #9370db; stroke-width: 1.5; stroke-linecap: square"/>
   </g>
   <g id="line2d_35">
    <path d="M 47.765 203.142861 
L 217.181667 203.142864 
L 386.598333 204.24806 
L 556.015 204.248064 
" clip-path="url(#pdba91d608a)" style="fill: none; stroke: #d3d3d3; stroke-width: 1.5; stroke-linecap: square"/>
   </g>
   <g id="line2d_36">
    <path d="M 47.765 218.131699 
L 217.181667 218.124437 
L 386.598333 218.070734 
L 556.015 218.05377 
" clip-path="url(#pdba91d608a)" style="fill: none; stroke: #d3d3d3; stroke-width: 1.5; stroke-linecap: square"/>
   </g>
   <g id="line2d_37">
    <path d="M 47.765 212.884267 
L 217.181667 212.884273 
L 386.598333 212.879098 
L 556.015 212.879102 
" clip-path="url(#pdba91d608a)" style="fill: none; stroke: #d3d3d3; stroke-width: 1.5; stroke-linecap: square"/>
   </g>
   <g id="line2d_38">
    <path d="M 47.765 199.239384 
L 217.181667 199.565576 
L 386.598333 199.058728 
L 556.015 199.395803 
" clip-path="url(#pdba91d608a)" style="fill: none; stroke: #d3d3d3; stroke-width: 1.5; stroke-linecap: square"/>
   </g>
   <g id="line2d_39">
    <path d="M 47.765 204.479817 
L 217.181667 204.521856 
L 386.598333 209.364481 
L 556.015 209.402846 
" clip-path="url(#pdba91d608a)" style="fill: none; stroke: #d3d3d3; stroke-width: 1.5; stroke-linecap: square"/>
   </g>
   <g id="line2d_40">
    <path d="M 47.765 157.594947 
L 217.181667 157.594874 
L 386.598333 160.377869 
L 556.015 160.377862 
" clip-path="url(#pdba91d608a)" style="fill: none; stroke: #d3d3d3; stroke-width: 1.5; stroke-linecap: square"/>
   </g>
   <g id="line2d_41">
    <path d="M 47.765 227.557283 
L 217.181667 227.556956 
L 386.598333 227.562878 
L 556.015 227.562232 
" clip-path="url(#pdba91d608a)" style="fill: none; stroke: #d3d3d3; stroke-width: 1.5; stroke-linecap: square"/>
   </g>
   <g id="line2d_42">
    <path d="M 47.765 233.23067 
L 217.181667 233.230553 
L 386.598333 233.196889 
L 556.015 233.196689 
" clip-path="url(#pdba91d608a)" style="fill: none; stroke: #d3d3d3; stroke-width: 1.5; stroke-linecap: square"/>
   </g>
   <g id="line2d_43">
    <path d="M 47.765 208.596984 
L 217.181667 208.596982 
L 386.598333 208.597251 
L 556.015 208.597249 
" clip-path="url(#pdba91d608a)" style="fill: none; stroke: #d3d3d3; stroke-width: 1.5; stroke-linecap: square"/>
   </g>
   <g id="line2d_44">
    <path d="M 47.765 218.594884 
L 217.181667 218.594867 
L 386.598333 218.594877 
L 556.015 218.594856 
" clip-path="url(#pdba91d608a)" style="fill: none; stroke: #d3d3d3; stroke-width: 1.5; stroke-linecap: square"/>
   </g>
   <g id="line2d_45">
    <path d="M 47.765 201.035686 
L 217.181667 201.057926 
L 386.598333 201.846953 
L 556.015 201.87471 
" clip-path="url(#pdba91d608a)" style="fill: none; stroke: #d3d3d3; stroke-width: 1.5; stroke-linecap: square"/>
   </g>
   <g id="line2d_46">
    <path d="M 47.765 188.821302 
L 217.181667 188.849587 
L 386.598333 196.977526 
L 556.015 197.009232 
" clip-path="url(#pdba91d608a)" style="fill: none; stroke: #d3d3d3; stroke-width: 1.5; stroke-linecap: square"/>
   </g>
   <g id="line2d_47">
    <path d="M 47.765 213.501161 
L 217.181667 214.374981 
L 386.598333 217.618497 
L 556.015 218.240417 
" clip-path="url(#pdba91d608a)" style="fill: none; stroke: #d3d3d3; stroke-width: 1.5; stroke-linecap: square"/>
   </g>
   <g id="line2d_48">
    <path d="M 47.765 212.23843 
L 217.181667 212.610368 
L 386.598333 215.162279 
L 556.015 215.483585 
" clip-path="url(#pdba91d608a)" style="fill: none; stroke: #9370db; stroke-width: 1.5; stroke-linecap: square"/>
   </g>
   <g id="line2d_49">
    <path d="M 47.765 209.989772 
L 217.181667 210.452519 
L 386.598333 211.819699 
L 556.015 212.255289 
" clip-path="url(#pdba91d608a)" style="fill: none; stroke: #d3d3d3; stroke-width: 1.5; stroke-linecap: square"/>
   </g>
   <g id="line2d_50">
    <path d="M 47.765 218.685412 
L 217.181667 218.889487 
L 386.598333 218.621894 
L 556.015 218.820566 
" clip-path="url(#pdba91d608a)" style="fill: none; stroke: #d3d3d3; stroke-width: 1.5; stroke-linecap: square"/>
   </g>
   <g id="line2d_51">
    <path d="M 47.765 224.194617 
L 217.181667 224.190638 
L 386.598333 224.162918 
L 556.015 224.154232 
" clip-path="url(#pdba91d608a)" style="fill: none; stroke: #d3d3d3; stroke-width: 1.5; stroke-linecap: square"/>
   </g>
   <g id="line2d_52">
    <path d="M 47.765 206.366728 
L 217.181667 207.262857 
L 386.598333 213.886802 
L 556.015 214.584397 
" clip-path="url(#pdba91d608a)" style="fill: none; stroke: #9370db; stroke-width: 1.5; stroke-linecap: square"/>
   </g>
   <g id="line2d_53">
    <path d="M 47.765 217.23589 
L 217.181667 217.235901 
L 386.598333 221.531024 
L 556.015 221.530935 
" clip-path="url(#pdba91d608a)" style="fill: none; stroke: #d3d3d3; stroke-width: 1.5; stroke-linecap: square"/>
   </g>
   <g id="line2d_54">
    <path d="M 47.765 188.971739 
L 217.181667 190.535741 
L 386.598333 197.244305 
L 556.015 198.509869 
" clip-path="url(#pdba91d608a)" style="fill: none; stroke: #9370db; stroke-width: 1.5; stroke-linecap: square"/>
   </g>
   <g id="line2d_55">
    <path d="M 47.765 183.157708 
L 217.181667 184.021887 
L 386.598333 181.946237 
L 556.015 182.844792 
" clip-path="url(#pdba91d608a)" style="fill: none; stroke: #9370db; stroke-width: 1.5; stroke-linecap: square"/>
   </g>
   <g id="line2d_56">
    <path d="M 47.765 204.468428 
L 217.181667 205.458085 
L 386.598333 209.912458 
L 556.015 210.772216 
" clip-path="url(#pdba91d608a)" style="fill: none; stroke: #9370db; stroke-width: 1.5; stroke-linecap: square"/>
   </g>
   <g id="line2d_57">
    <path d="M 47.765 192.638265 
L 217.181667 194.910046 
L 386.598333 202.472842 
L 556.015 204.243817 
" clip-path="url(#pdba91d608a)" style="fill: none; stroke: #d3d3d3; stroke-width: 1.5; stroke-linecap: square"/>
   </g>
   <g id="line2d_58">
    <path d="M 47.765 176.90307 
L 217.181667 176.903191 
L 386.598333 181.807356 
L 556.015 181.807398 
" clip-path="url(#pdba91d608a)" style="fill: none; stroke: #d3d3d3; stroke-width: 1.5; stroke-linecap: square"/>
   </g>
   <g id="line2d_59">
    <path d="M 47.765 209.839632 
L 217.181667 209.839639 
L 386.598333 209.840981 
L 556.015 209.84097 
" clip-path="url(#pdba91d608a)" style="fill: none; stroke: #d3d3d3; stroke-width: 1.5; stroke-linecap: square"/>
   </g>
   <g id="line2d_60">
    <path d="M 47.765 195.65232 
L 217.181667 196.390531 
L 386.598333 201.383684 
L 556.015 201.752483 
" clip-path="url(#pdba91d608a)" style="fill: none; stroke: #d3d3d3; stroke-width: 1.5; stroke-linecap: square"/>
   </g>
   <g id="line2d_61">
    <path d="M 47.765 209.090623 
L 217.181667 210.492803 
L 386.598333 218.768605 
L 556.015 219.903157 
" clip-path="url(#pdba91d608a)" style="fill: none; stroke: #d3d3d3; stroke-width: 1.5; stroke-linecap: square"/>
   </g>
   <g id="line2d_62">
    <path d="M 47.765 183.946646 
L 217.181667 185.789806 
L 386.598333 179.904751 
L 556.015 181.988466 
" clip-path="url(#pdba91d608a)" style="fill: none; stroke: #9370db; stroke-width: 1.5; stroke-linecap: square"/>
   </g>
   <g id="line2d_63">
    <path d="M 47.765 209.638393 
L 217.181667 209.928994 
L 386.598333 216.43971 
L 556.015 216.653984 
" clip-path="url(#pdba91d608a)" style="fill: none; stroke: #d3d3d3; stroke-width: 1.5; stroke-linecap: square"/>
   </g>
   <g id="line2d_64">
    <path d="M 47.765 206.082612 
L 217.181667 206.249672 
L 386.598333 206.07132 
L 556.015 206.234044 
" clip-path="url(#pdba91d608a)" style="fill: none; stroke: #9370db; stroke-width: 1.5; stroke-linecap: square"/>
   </g>
   <g id="line2d_65">
    <path d="M 47.765 196.97317 
L 217.181667 197.926406 
L 386.598333 200.157774 
L 556.015 201.086066 
" clip-path="url(#pdba91d608a)" style="fill: none; stroke: #9370db; stroke-width: 1.5; stroke-linecap: square"/>
   </g>
   <g id="line2d_66">
    <path d="M 47.765 215.053038 
L 217.181667 215.053041 
L 386.598333 215.053933 
L 556.015 215.053928 
" clip-path="url(#pdba91d608a)" style="fill: none; stroke: #d3d3d3; stroke-width: 1.5; stroke-linecap: square"/>
   </g>
   <g id="line2d_67">
    <path d="M 47.765 208.991644 
L 217.181667 209.012793 
L 386.598333 208.726854 
L 556.015 208.748204 
" clip-path="url(#pdba91d608a)" style="fill: none; stroke: #d3d3d3; stroke-width: 1.5; stroke-linecap: square"/>
   </g>
   <g id="line2d_68">
    <path d="M 47.765 205.938231 
L 217.181667 205.965681 
L 386.598333 207.377957 
L 556.015 207.411522 
" clip-path="url(#pdba91d608a)" style="fill: none; stroke: #d3d3d3; stroke-width: 1.5; stroke-linecap: square"/>
   </g>
   <g id="line2d_69">
    <path d="M 47.765 201.129308 
L 217.181667 201.990224 
L 386.598333 215.75593 
L 556.015 216.402286 
" clip-path="url(#pdba91d608a)" style="fill: none; stroke: #9370db; stroke-width: 1.5; stroke-linecap: square"/>
   </g>
   <g id="line2d_70">
    <path d="M 47.765 213.423104 
L 217.181667 213.44259 
L 386.598333 214.529318 
L 556.015 214.548219 
" clip-path="url(#pdba91d608a)" style="fill: none; stroke: #d3d3d3; stroke-width: 1.5; stroke-linecap: square"/>
   </g>
   <g id="line2d_71">
    <path d="M 47.765 201.686951 
L 217.181667 201.66123 
L 386.598333 199.767783 
L 556.015 199.749597 
" clip-path="url(#pdba91d608a)" style="fill: none; stroke: #d3d3d3; stroke-width: 1.5; stroke-linecap: square"/>
   </g>
   <g id="line2d_72">
    <path d="M 47.765 219.418137 
L 217.181667 219.417903 
L 386.598333 218.94365 
L 556.015 218.943519 
" clip-path="url(#pdba91d608a)" style="fill: none; stroke: #d3d3d3; stroke-width: 1.5; stroke-linecap: square"/>
   </g>
   <g id="line2d_73">
    <path d="M 47.765 211.913824 
L 217.181667 212.034254 
L 386.598333 213.287602 
L 556.015 213.403802 
" clip-path="url(#pdba91d608a)" style="fill: none; stroke: #d3d3d3; stroke-width: 1.5; stroke-linecap: square"/>
   </g>
   <g id="line2d_74">
    <path d="M 47.765 203.192062 
L 217.181667 203.269855 
L 386.598333 208.396714 
L 556.015 208.46021 
" clip-path="url(#pdba91d608a)" style="fill: none; stroke: #d3d3d3; stroke-width: 1.5; stroke-linecap: square"/>
   </g>
   <g id="line2d_75">
    <path d="M 47.765 211.156361 
L 217.181667 211.17702 
L 386.598333 211.156368 
L 556.015 211.177021 
" clip-path="url(#pdba91d608a)" style="fill: none; stroke: #d3d3d3; stroke-width: 1.5; stroke-linecap: square"/>
   </g>
   <g id="line2d_76">
    <path d="M 47.765 184.431575 
L 217.181667 185.246363 
L 386.598333 183.971017 
L 556.015 184.789445 
" clip-path="url(#pdba91d608a)" style="fill: none; stroke: #d3d3d3; stroke-width: 1.5; stroke-linecap: square"/>
   </g>
   <g id="line2d_77">
    <path d="M 47.765 193.975796 
L 217.181667 194.047879 
L 386.598333 193.859665 
L 556.015 193.934118 
" clip-path="url(#pdba91d608a)" style="fill: none; stroke: #9370db; stroke-width: 1.5; stroke-linecap: square"/>
   </g>
   <g id="line2d_78">
    <path d="M 47.765 188.499958 
L 217.181667 188.561878 
L 386.598333 197.745152 
L 556.015 197.786849 
" clip-path="url(#pdba91d608a)" style="fill: none; stroke: #d3d3d3; stroke-width: 1.5; stroke-linecap: square"/>
   </g>
   <g id="line2d_79">
    <path d="M 47.765 199.61009 
L 217.181667 199.665538 
L 386.598333 206.797149 
L 556.015 206.836628 
" clip-path="url(#pdba91d608a)" style="fill: none; stroke: #d3d3d3; stroke-width: 1.5; stroke-linecap: square"/>
   </g>
   <g id="line2d_80">
    <path d="M 47.765 215.960926 
L 217.181667 215.960935 
L 386.598333 215.96173 
L 556.015 215.961726 
" clip-path="url(#pdba91d608a)" style="fill: none; stroke: #d3d3d3; stroke-width: 1.5; stroke-linecap: square"/>
   </g>
   <g id="line2d_81">
    <path d="M 47.765 214.168526 
L 217.181667 214.237487 
L 386.598333 214.168523 
L 556.015 214.237481 
" clip-path="url(#pdba91d608a)" style="fill: none; stroke: #d3d3d3; stroke-width: 1.5; stroke-linecap: square"/>
   </g>
   <g id="line2d_82">
    <path d="M 47.765 197.715927 
L 217.181667 197.715844 
L 386.598333 198.777374 
L 556.015 198.777326 
" clip-path="url(#pdba91d608a)" style="fill: none; stroke: #d3d3d3; stroke-width: 1.5; stroke-linecap: square"/>
   </g>
   <g id="line2d_83">
    <path d="M 47.765 195.099301 
L 217.181667 195.109154 
L 386.598333 194.386052 
L 556.015 194.404299 
" clip-path="url(#pdba91d608a)" style="fill: none; stroke: #d3d3d3; stroke-width: 1.5; stroke-linecap: square"/>
   </g>
   <g id="line2d_84">
    <path d="M 47.765 187.638261 
L 217.181667 187.678119 
L 386.598333 199.02255 
L 556.015 199.042393 
" clip-path="url(#pdba91d608a)" style="fill: none; stroke: #d3d3d3; stroke-width: 1.5; stroke-linecap: square"/>
   </g>
   <g id="line2d_85">
    <path d="M 47.765 208.000059 
L 217.181667 208.05398 
L 386.598333 208.14707 
L 556.015 208.200804 
" clip-path="url(#pdba91d608a)" style="fill: none; stroke: #d3d3d3; stroke-width: 1.5; stroke-linecap: square"/>
   </g>
   <g id="line2d_86">
    <path d="M 47.765 205.762161 
L 217.181667 205.781801 
L 386.598333 215.257141 
L 556.015 215.265028 
" clip-path="url(#pdba91d608a)" style="fill: none; stroke: #d3d3d3; stroke-width: 1.5; stroke-linecap: square"/>
   </g>
   <g id="line2d_87">
    <path d="M 47.765 192.993054 
L 217.181667 193.040143 
L 386.598333 193.854042 
L 556.015 193.899234 
" clip-path="url(#pdba91d608a)" style="fill: none; stroke: #d3d3d3; stroke-width: 1.5; stroke-linecap: square"/>
   </g>
   <g id="line2d_88">
    <path d="M 47.765 178.56829 
L 217.181667 180.447487 
L 386.598333 181.244472 
L 556.015 183.107628 
" clip-path="url(#pdba91d608a)" style="fill: none; stroke: #d3d3d3; stroke-width: 1.5; stroke-linecap: square"/>
   </g>
   <g id="line2d_89">
    <path d="M 47.765 203.828455 
L 217.181667 203.828456 
L 386.598333 203.82591 
L 556.015 203.82591 
" clip-path="url(#pdba91d608a)" style="fill: none; stroke: #d3d3d3; stroke-width: 1.5; stroke-linecap: square"/>
   </g>
   <g id="line2d_90">
    <path d="M 47.765 178.959601 
L 217.181667 180.406837 
L 386.598333 178.831189 
L 556.015 180.289329 
" clip-path="url(#pdba91d608a)" style="fill: none; stroke: #d3d3d3; stroke-width: 1.5; stroke-linecap: square"/>
   </g>
   <g id="line2d_91">
    <path d="M 47.765 184.409305 
L 217.181667 184.409406 
L 386.598333 187.155203 
L 556.015 187.155227 
" clip-path="url(#pdba91d608a)" style="fill: none; stroke: #d3d3d3; stroke-width: 1.5; stroke-linecap: square"/>
   </g>
   <g id="line2d_92">
    <path d="M 47.765 213.982985 
L 217.181667 214.053268 
L 386.598333 215.971974 
L 556.015 216.038759 
" clip-path="url(#pdba91d608a)" style="fill: none; stroke: #d3d3d3; stroke-width: 1.5; stroke-linecap: square"/>
   </g>
   <g id="line2d_93">
    <path d="M 47.765 204.222132 
L 217.181667 204.321227 
L 386.598333 214.777642 
L 556.015 214.851151 
" clip-path="url(#pdba91d608a)" style="fill: none; stroke: #d3d3d3; stroke-width: 1.5; stroke-linecap: square"/>
   </g>
   <g id="line2d_94">
    <path d="M 47.765 221.546604 
L 217.181667 221.54646 
L 386.598333 221.562162 
L 556.015 221.562277 
" clip-path="url(#pdba91d608a)" style="fill: none; stroke: #d3d3d3; stroke-width: 1.5; stroke-linecap: square"/>
   </g>
   <g id="line2d_95">
    <path d="M 47.765 215.317363 
L 217.181667 215.962333 
L 386.598333 229.504829 
L 556.015 229.741416 
" clip-path="url(#pdba91d608a)" style="fill: none; stroke: #d3d3d3; stroke-width: 1.5; stroke-linecap: square"/>
   </g>
   <g id="line2d_96">
    <path d="M 47.765 202.271139 
L 217.181667 202.284304 
L 386.598333 207.868608 
L 556.015 207.867162 
" clip-path="url(#pdba91d608a)" style="fill: none; stroke: #d3d3d3; stroke-width: 1.5; stroke-linecap: square"/>
   </g>
   <g id="line2d_97">
    <path d="M 47.765 227.831562 
L 217.181667 227.87799 
L 386.598333 231.457508 
L 556.015 231.477909 
" clip-path="url(#pdba91d608a)" style="fill: none; stroke: #d3d3d3; stroke-width: 1.5; stroke-linecap: square"/>
   </g>
   <g id="line2d_98">
    <path d="M 47.765 194.042241 
L 217.181667 194.659707 
L 386.598333 192.989919 
L 556.015 193.841069 
" clip-path="url(#pdba91d608a)" style="fill: none; stroke: #d3d3d3; stroke-width: 1.5; stroke-linecap: square"/>
   </g>
   <g id="line2d_99">
    <path d="M 47.765 218.006375 
L 217.181667 218.059881 
L 386.598333 221.477535 
L 556.015 221.519604 
" clip-path="url(#pdba91d608a)" style="fill: none; stroke: #d3d3d3; stroke-width: 1.5; stroke-linecap: square"/>
   </g>
   <g id="line2d_100">
    <path d="M 47.765 191.765496 
L 217.181667 191.765423 
L 386.598333 197.597187 
L 556.015 197.597148 
" clip-path="url(#pdba91d608a)" style="fill: none; stroke: #d3d3d3; stroke-width: 1.5; stroke-linecap: square"/>
   </g>
   <g id="line2d_101">
    <path d="M 47.765 209.739593 
L 217.181667 209.739591 
L 386.598333 209.769846 
L 556.015 209.769937 
" clip-path="url(#pdba91d608a)" style="fill: none; stroke: #d3d3d3; stroke-width: 1.5; stroke-linecap: square"/>
   </g>
   <g id="line2d_102">
    <path d="M 47.765 199.712919 
L 217.181667 199.762089 
L 386.598333 199.719819 
L 556.015 199.769061 
" clip-path="url(#pdba91d608a)" style="fill: none; stroke: #d3d3d3; stroke-width: 1.5; stroke-linecap: square"/>
   </g>
   <g id="line2d_103">
    <path d="M 47.765 196.386884 
L 217.181667 196.386824 
L 386.598333 196.420121 
L 556.015 196.420005 
" clip-path="url(#pdba91d608a)" style="fill: none; stroke: #d3d3d3; stroke-width: 1.5; stroke-linecap: square"/>
   </g>
   <g id="line2d_104">
    <path d="M 47.765 150.131511 
L 217.181667 152.515781 
L 386.598333 145.793915 
L 556.015 148.316508 
" clip-path="url(#pdba91d608a)" style="fill: none; stroke: #9370db; stroke-width: 1.5; stroke-linecap: square"/>
   </g>
   <g id="line2d_105">
    <path d="M 47.765 158.814376 
L 217.181667 160.91984 
L 386.598333 154.742818 
L 556.015 157.025862 
" clip-path="url(#pdba91d608a)" style="fill: none; stroke: #9370db; stroke-width: 1.5; stroke-linecap: square"/>
   </g>
   <g id="line2d_106">
    <path d="M 47.765 181.196408 
L 217.181667 181.255484 
L 386.598333 186.05129 
L 556.015 186.110417 
" clip-path="url(#pdba91d608a)" style="fill: none; stroke: #d3d3d3; stroke-width: 1.5; stroke-linecap: square"/>
   </g>
   <g id="line2d_107">
    <path d="M 47.765 213.327343 
L 217.181667 213.367913 
L 386.598333 212.540653 
L 556.015 212.584031 
" clip-path="url(#pdba91d608a)" style="fill: none; stroke: #d3d3d3; stroke-width: 1.5; stroke-linecap: square"/>
   </g>
   <g id="line2d_108">
    <path d="M 47.765 204.023429 
L 217.181667 204.609247 
L 386.598333 212.834449 
L 556.015 213.099649 
" clip-path="url(#pdba91d608a)" style="fill: none; stroke: #d3d3d3; stroke-width: 1.5; stroke-linecap: square"/>
   </g>
   <g id="line2d_109">
    <path d="M 47.765 208.921002 
L 217.181667 209.527706 
L 386.598333 220.559785 
L 556.015 220.886517 
" clip-path="url(#pdba91d608a)" style="fill: none; stroke: #d3d3d3; stroke-width: 1.5; stroke-linecap: square"/>
   </g>
   <g id="line2d_110">
    <path d="M 47.765 195.389567 
L 217.181667 195.3952 
L 386.598333 194.036508 
L 556.015 194.044414 
" clip-path="url(#pdba91d608a)" style="fill: none; stroke: #d3d3d3; stroke-width: 1.5; stroke-linecap: square"/>
   </g>
   <g id="line2d_111">
    <path d="M 47.765 208.530785 
L 217.181667 208.531347 
L 386.598333 212.022692 
L 556.015 212.023539 
" clip-path="url(#pdba91d608a)" style="fill: none; stroke: #d3d3d3; stroke-width: 1.5; stroke-linecap: square"/>
   </g>
   <g id="line2d_112">
    <path d="M 47.765 194.475858 
L 217.181667 194.475882 
L 386.598333 194.461034 
L 556.015 194.46105 
" clip-path="url(#pdba91d608a)" style="fill: none; stroke: #d3d3d3; stroke-width: 1.5; stroke-linecap: square"/>
   </g>
   <g id="line2d_113">
    <path d="M 47.765 206.456931 
L 217.181667 206.456846 
L 386.598333 205.477148 
L 556.015 205.477047 
" clip-path="url(#pdba91d608a)" style="fill: none; stroke: #d3d3d3; stroke-width: 1.5; stroke-linecap: square"/>
   </g>
   <g id="line2d_114">
    <path d="M 47.765 231.631383 
L 217.181667 231.631266 
L 386.598333 231.658557 
L 556.015 231.65834 
" clip-path="url(#pdba91d608a)" style="fill: none; stroke: #d3d3d3; stroke-width: 1.5; stroke-linecap: square"/>
   </g>
   <g id="line2d_115">
    <path d="M 47.765 210.110077 
L 217.181667 210.11026 
L 386.598333 216.16327 
L 556.015 216.163481 
" clip-path="url(#pdba91d608a)" style="fill: none; stroke: #d3d3d3; stroke-width: 1.5; stroke-linecap: square"/>
   </g>
   <g id="line2d_116">
    <path d="M 47.765 209.772989 
L 217.181667 209.800566 
L 386.598333 209.767813 
L 556.015 209.795354 
" clip-path="url(#pdba91d608a)" style="fill: none; stroke: #d3d3d3; stroke-width: 1.5; stroke-linecap: square"/>
   </g>
   <g id="line2d_117">
    <path d="M 47.765 200.047073 
L 217.181667 200.049059 
L 386.598333 198.911194 
L 556.015 198.913236 
" clip-path="url(#pdba91d608a)" style="fill: none; stroke: #d3d3d3; stroke-width: 1.5; stroke-linecap: square"/>
   </g>
   <g id="line2d_118">
    <path d="M 47.765 182.748186 
L 217.181667 182.86261 
L 386.598333 188.615963 
L 556.015 188.642003 
" clip-path="url(#pdba91d608a)" style="fill: none; stroke: #9370db; stroke-width: 1.5; stroke-linecap: square"/>
   </g>
   <g id="line2d_119">
    <path d="M 47.765 217.829183 
L 217.181667 217.829169 
L 386.598333 217.566715 
L 556.015 217.566695 
" clip-path="url(#pdba91d608a)" style="fill: none; stroke: #d3d3d3; stroke-width: 1.5; stroke-linecap: square"/>
   </g>
   <g id="line2d_120">
    <path d="M 47.765 213.694233 
L 217.181667 213.784373 
L 386.598333 213.694232 
L 556.015 213.784367 
" clip-path="url(#pdba91d608a)" style="fill: none; stroke: #9370db; stroke-width: 1.5; stroke-linecap: square"/>
   </g>
   <g id="line2d_121">
    <path d="M 47.765 194.998669 
L 217.181667 195.002718 
L 386.598333 202.82606 
L 556.015 202.830264 
" clip-path="url(#pdba91d608a)" style="fill: none; stroke: #d3d3d3; stroke-width: 1.5; stroke-linecap: square"/>
   </g>
   <g id="line2d_122">
    <path d="M 47.765 206.920156 
L 217.181667 206.920131 
L 386.598333 206.94014 
L 556.015 206.940115 
" clip-path="url(#pdba91d608a)" style="fill: none; stroke: #d3d3d3; stroke-width: 1.5; stroke-linecap: square"/>
   </g>
   <g id="line2d_123">
    <path d="M 47.765 224.579853 
L 217.181667 224.600698 
L 386.598333 228.556593 
L 556.015 228.561477 
" clip-path="url(#pdba91d608a)" style="fill: none; stroke: #d3d3d3; stroke-width: 1.5; stroke-linecap: square"/>
   </g>
   <g id="line2d_124">
    <path d="M 47.765 201.686399 
L 217.181667 201.729033 
L 386.598333 204.712047 
L 556.015 204.749589 
" clip-path="url(#pdba91d608a)" style="fill: none; stroke: #d3d3d3; stroke-width: 1.5; stroke-linecap: square"/>
   </g>
   <g id="line2d_125">
    <path d="M 47.765 211.712344 
L 217.181667 211.712343 
L 386.598333 211.709157 
L 556.015 211.709153 
" clip-path="url(#pdba91d608a)" style="fill: none; stroke: #d3d3d3; stroke-width: 1.5; stroke-linecap: square"/>
   </g>
   <g id="line2d_126">
    <path d="M 47.765 196.767241 
L 217.181667 197.006518 
L 386.598333 195.762678 
L 556.015 196.018829 
" clip-path="url(#pdba91d608a)" style="fill: none; stroke: #d3d3d3; stroke-width: 1.5; stroke-linecap: square"/>
   </g>
   <g id="line2d_127">
    <path d="M 47.765 209.786798 
L 217.181667 209.786831 
L 386.598333 211.330234 
L 556.015 211.330249 
" clip-path="url(#pdba91d608a)" style="fill: none; stroke: #d3d3d3; stroke-width: 1.5; stroke-linecap: square"/>
   </g>
   <g id="line2d_128">
    <path d="M 47.765 216.853635 
L 217.181667 216.853691 
L 386.598333 218.525044 
L 556.015 218.525075 
" clip-path="url(#pdba91d608a)" style="fill: none; stroke: #d3d3d3; stroke-width: 1.5; stroke-linecap: square"/>
   </g>
   <g id="line2d_129">
    <path d="M 47.765 187.387551 
L 217.181667 187.438119 
L 386.598333 200.916597 
L 556.015 200.9594 
" clip-path="url(#pdba91d608a)" style="fill: none; stroke: #d3d3d3; stroke-width: 1.5; stroke-linecap: square"/>
   </g>
   <g id="line2d_130">
    <path d="M 47.765 215.163772 
L 217.181667 215.181624 
L 386.598333 215.164152 
L 556.015 215.181999 
" clip-path="url(#pdba91d608a)" style="fill: none; stroke: #d3d3d3; stroke-width: 1.5; stroke-linecap: square"/>
   </g>
   <g id="line2d_131">
    <path d="M 47.765 210.371501 
L 217.181667 210.371539 
L 386.598333 212.715626 
L 556.015 212.715664 
" clip-path="url(#pdba91d608a)" style="fill: none; stroke: #d3d3d3; stroke-width: 1.5; stroke-linecap: square"/>
   </g>
   <g id="line2d_132">
    <path d="M 47.765 219.854767 
L 217.181667 219.8548 
L 386.598333 225.929873 
L 556.015 225.929893 
" clip-path="url(#pdba91d608a)" style="fill: none; stroke: #d3d3d3; stroke-width: 1.5; stroke-linecap: square"/>
   </g>
   <g id="line2d_133">
    <path d="M 47.765 198.252416 
L 217.181667 199.289715 
L 386.598333 198.811153 
L 556.015 199.82844 
" clip-path="url(#pdba91d608a)" style="fill: none; stroke: #d3d3d3; stroke-width: 1.5; stroke-linecap: square"/>
   </g>
   <g id="line2d_134">
    <path d="M 47.765 223.798749 
L 217.181667 223.804057 
L 386.598333 223.619467 
L 556.015 223.750346 
" clip-path="url(#pdba91d608a)" style="fill: none; stroke: #d3d3d3; stroke-width: 1.5; stroke-linecap: square"/>
   </g>
   <g id="line2d_135">
    <path d="M 47.765 213.638969 
L 217.181667 213.698032 
L 386.598333 213.217148 
L 556.015 213.277112 
" clip-path="url(#pdba91d608a)" style="fill: none; stroke: #d3d3d3; stroke-width: 1.5; stroke-linecap: square"/>
   </g>
   <g id="line2d_136">
    <path d="M 47.765 215.507175 
L 217.181667 215.540531 
L 386.598333 220.758004 
L 556.015 220.787706 
" clip-path="url(#pdba91d608a)" style="fill: none; stroke: #d3d3d3; stroke-width: 1.5; stroke-linecap: square"/>
   </g>
   <g id="line2d_137">
    <path d="M 47.765 209.8201 
L 217.181667 209.841525 
L 386.598333 209.821182 
L 556.015 209.842608 
" clip-path="url(#pdba91d608a)" style="fill: none; stroke: #9370db; stroke-width: 1.5; stroke-linecap: square"/>
   </g>
   <g id="line2d_138">
    <path d="M 47.765 175.262344 
L 217.181667 175.262192 
L 386.598333 173.949004 
L 556.015 173.948763 
" clip-path="url(#pdba91d608a)" style="fill: none; stroke: #d3d3d3; stroke-width: 1.5; stroke-linecap: square"/>
   </g>
   <g id="line2d_139">
    <path d="M 47.765 222.738939 
L 217.181667 222.739039 
L 386.598333 227.909957 
L 556.015 227.909999 
" clip-path="url(#pdba91d608a)" style="fill: none; stroke: #d3d3d3; stroke-width: 1.5; stroke-linecap: square"/>
   </g>
   <g id="line2d_140">
    <path d="M 47.765 176.978037 
L 217.181667 177.029143 
L 386.598333 177.574267 
L 556.015 177.625673 
" clip-path="url(#pdba91d608a)" style="fill: none; stroke: #d3d3d3; stroke-width: 1.5; stroke-linecap: square"/>
   </g>
   <g id="line2d_141">
    <path d="M 47.765 216.043587 
L 217.181667 216.468316 
L 386.598333 222.547504 
L 556.015 222.906551 
" clip-path="url(#pdba91d608a)" style="fill: none; stroke: #9370db; stroke-width: 1.5; stroke-linecap: square"/>
   </g>
   <g id="line2d_142">
    <path d="M 47.765 216.846671 
L 217.181667 216.890386 
L 386.598333 218.01734 
L 556.015 218.029917 
" clip-path="url(#pdba91d608a)" style="fill: none; stroke: #9370db; stroke-width: 1.5; stroke-linecap: square"/>
   </g>
   <g id="line2d_143">
    <path d="M 47.765 172.848707 
L 217.181667 172.906001 
L 386.598333 174.201428 
L 556.015 174.257937 
" clip-path="url(#pdba91d608a)" style="fill: none; stroke: #9370db; stroke-width: 1.5; stroke-linecap: square"/>
   </g>
   <g id="line2d_144">
    <path d="M 47.765 185.466487 
L 217.181667 185.466566 
L 386.598333 185.773806 
L 556.015 185.77388 
" clip-path="url(#pdba91d608a)" style="fill: none; stroke: #d3d3d3; stroke-width: 1.5; stroke-linecap: square"/>
   </g>
   <g id="line2d_145">
    <path d="M 47.765 235.78 
L 47.765 52.22 
" clip-path="url(#pdba91d608a)" style="fill: none; stroke: #000000; stroke-linecap: square"/>
   </g>
   <g id="line2d_146">
    <path d="M 217.181667 235.78 
L 217.181667 52.22 
" clip-path="url(#pdba91d608a)" style="fill: none; stroke: #000000; stroke-linecap: square"/>
   </g>
   <g id="line2d_147">
    <path d="M 386.598333 235.78 
L 386.598333 52.22 
" clip-path="url(#pdba91d608a)" style="fill: none; stroke: #000000; stroke-linecap: square"/>
   </g>
   <g id="line2d_148">
    <path d="M 556.015 235.78 
L 556.015 52.22 
" clip-path="url(#pdba91d608a)" style="fill: none; stroke: #000000; stroke-linecap: square"/>
   </g>
   <g id="patch_3">
    <path d="M 47.765 235.78 
L 47.765 52.22 
" style="fill: none; stroke: #000000; stroke-width: 0.8; stroke-linejoin: miter; stroke-linecap: square"/>
   </g>
   <g id="patch_4">
    <path d="M 556.015 235.78 
L 556.015 52.22 
" style="fill: none; stroke: #000000; stroke-width: 0.8; stroke-linejoin: miter; stroke-linecap: square"/>
   </g>
   <g id="patch_5">
    <path d="M 47.765 235.78 
L 556.015 235.78 
" style="fill: none; stroke: #000000; stroke-width: 0.8; stroke-linejoin: miter; stroke-linecap: square"/>
   </g>
   <g id="patch_6">
    <path d="M 47.765 52.22 
L 556.015 52.22 
" style="fill: none; stroke: #000000; stroke-width: 0.8; stroke-linejoin: miter; stroke-linecap: square"/>
   </g>
   <g id="text_16">
    <!-- x1depth_6_27_23 Storm: Depth of Flooding -->
    <g transform="translate(171.675 46.22) scale(0.12 -0.12)">
     <defs>
      <path id="DejaVuSans-78" d="M 3513 3500 
L 2247 1797 
L 3578 0 
L 2900 0 
L 1881 1375 
L 863 0 
L 184 0 
L 1544 1831 
L 300 3500 
L 978 3500 
L 1906 2253 
L 2834 3500 
L 3513 3500 
z
" transform="scale(0.015625)"/>
      <path id="DejaVuSans-64" d="M 2906 2969 
L 2906 4863 
L 3481 4863 
L 3481 0 
L 2906 0 
L 2906 525 
Q 2725 213 2448 61 
Q 2172 -91 1784 -91 
Q 1150 -91 751 415 
Q 353 922 353 1747 
Q 353 2572 751 3078 
Q 1150 3584 1784 3584 
Q 2172 3584 2448 3432 
Q 2725 3281 2906 2969 
z
M 947 1747 
Q 947 1113 1208 752 
Q 1469 391 1925 391 
Q 2381 391 2643 752 
Q 2906 1113 2906 1747 
Q 2906 2381 2643 2742 
Q 2381 3103 1925 3103 
Q 1469 3103 1208 2742 
Q 947 2381 947 1747 
z
" transform="scale(0.015625)"/>
      <path id="DejaVuSans-5f" d="M 3263 -1063 
L 3263 -1509 
L -63 -1509 
L -63 -1063 
L 3263 -1063 
z
" transform="scale(0.015625)"/>
      <path id="DejaVuSans-53" d="M 3425 4513 
L 3425 3897 
Q 3066 4069 2747 4153 
Q 2428 4238 2131 4238 
Q 1616 4238 1336 4038 
Q 1056 3838 1056 3469 
Q 1056 3159 1242 3001 
Q 1428 2844 1947 2747 
L 2328 2669 
Q 3034 2534 3370 2195 
Q 3706 1856 3706 1288 
Q 3706 609 3251 259 
Q 2797 -91 1919 -91 
Q 1588 -91 1214 -16 
Q 841 59 441 206 
L 441 856 
Q 825 641 1194 531 
Q 1563 422 1919 422 
Q 2459 422 2753 634 
Q 3047 847 3047 1241 
Q 3047 1584 2836 1778 
Q 2625 1972 2144 2069 
L 1759 2144 
Q 1053 2284 737 2584 
Q 422 2884 422 3419 
Q 422 4038 858 4394 
Q 1294 4750 2059 4750 
Q 2388 4750 2728 4690 
Q 3069 4631 3425 4513 
z
" transform="scale(0.015625)"/>
      <path id="DejaVuSans-6f" d="M 1959 3097 
Q 1497 3097 1228 2736 
Q 959 2375 959 1747 
Q 959 1119 1226 758 
Q 1494 397 1959 397 
Q 2419 397 2687 759 
Q 2956 1122 2956 1747 
Q 2956 2369 2687 2733 
Q 2419 3097 1959 3097 
z
M 1959 3584 
Q 2709 3584 3137 3096 
Q 3566 2609 3566 1747 
Q 3566 888 3137 398 
Q 2709 -91 1959 -91 
Q 1206 -91 779 398 
Q 353 888 353 1747 
Q 353 2609 779 3096 
Q 1206 3584 1959 3584 
z
" transform="scale(0.015625)"/>
      <path id="DejaVuSans-72" d="M 2631 2963 
Q 2534 3019 2420 3045 
Q 2306 3072 2169 3072 
Q 1681 3072 1420 2755 
Q 1159 2438 1159 1844 
L 1159 0 
L 581 0 
L 581 3500 
L 1159 3500 
L 1159 2956 
Q 1341 3275 1631 3429 
Q 1922 3584 2338 3584 
Q 2397 3584 2469 3576 
Q 2541 3569 2628 3553 
L 2631 2963 
z
" transform="scale(0.015625)"/>
      <path id="DejaVuSans-3a" d="M 750 794 
L 1409 794 
L 1409 0 
L 750 0 
L 750 794 
z
M 750 3309 
L 1409 3309 
L 1409 2516 
L 750 2516 
L 750 3309 
z
" transform="scale(0.015625)"/>
      <path id="DejaVuSans-66" d="M 2375 4863 
L 2375 4384 
L 1825 4384 
Q 1516 4384 1395 4259 
Q 1275 4134 1275 3809 
L 1275 3500 
L 2222 3500 
L 2222 3053 
L 1275 3053 
L 1275 0 
L 697 0 
L 697 3053 
L 147 3053 
L 147 3500 
L 697 3500 
L 697 3744 
Q 697 4328 969 4595 
Q 1241 4863 1831 4863 
L 2375 4863 
z
" transform="scale(0.015625)"/>
      <path id="DejaVuSans-46" d="M 628 4666 
L 3309 4666 
L 3309 4134 
L 1259 4134 
L 1259 2759 
L 3109 2759 
L 3109 2228 
L 1259 2228 
L 1259 0 
L 628 0 
L 628 4666 
z
" transform="scale(0.015625)"/>
      <path id="DejaVuSans-6c" d="M 603 4863 
L 1178 4863 
L 1178 0 
L 603 0 
L 603 4863 
z
" transform="scale(0.015625)"/>
      <path id="DejaVuSans-69" d="M 603 3500 
L 1178 3500 
L 1178 0 
L 603 0 
L 603 3500 
z
M 603 4863 
L 1178 4863 
L 1178 4134 
L 603 4134 
L 603 4863 
z
" transform="scale(0.015625)"/>
      <path id="DejaVuSans-6e" d="M 3513 2113 
L 3513 0 
L 2938 0 
L 2938 2094 
Q 2938 2591 2744 2837 
Q 2550 3084 2163 3084 
Q 1697 3084 1428 2787 
Q 1159 2491 1159 1978 
L 1159 0 
L 581 0 
L 581 3500 
L 1159 3500 
L 1159 2956 
Q 1366 3272 1645 3428 
Q 1925 3584 2291 3584 
Q 2894 3584 3203 3211 
Q 3513 2838 3513 2113 
z
" transform="scale(0.015625)"/>
      <path id="DejaVuSans-67" d="M 2906 1791 
Q 2906 2416 2648 2759 
Q 2391 3103 1925 3103 
Q 1463 3103 1205 2759 
Q 947 2416 947 1791 
Q 947 1169 1205 825 
Q 1463 481 1925 481 
Q 2391 481 2648 825 
Q 2906 1169 2906 1791 
z
M 3481 434 
Q 3481 -459 3084 -895 
Q 2688 -1331 1869 -1331 
Q 1566 -1331 1297 -1286 
Q 1028 -1241 775 -1147 
L 775 -588 
Q 1028 -725 1275 -790 
Q 1522 -856 1778 -856 
Q 2344 -856 2625 -561 
Q 2906 -266 2906 331 
L 2906 616 
Q 2728 306 2450 153 
Q 2172 0 1784 0 
Q 1141 0 747 490 
Q 353 981 353 1791 
Q 353 2603 747 3093 
Q 1141 3584 1784 3584 
Q 2172 3584 2450 3431 
Q 2728 3278 2906 2969 
L 2906 3500 
L 3481 3500 
L 3481 434 
z
" transform="scale(0.015625)"/>
     </defs>
     <use xlink:href="#DejaVuSans-78"/>
     <use xlink:href="#DejaVuSans-31" transform="translate(59.179688 0)"/>
     <use xlink:href="#DejaVuSans-64" transform="translate(122.802734 0)"/>
     <use xlink:href="#DejaVuSans-65" transform="translate(186.279297 0)"/>
     <use xlink:href="#DejaVuSans-70" transform="translate(247.802734 0)"/>
     <use xlink:href="#DejaVuSans-74" transform="translate(311.279297 0)"/>
     <use xlink:href="#DejaVuSans-68" transform="translate(350.488281 0)"/>
     <use xlink:href="#DejaVuSans-5f" transform="translate(413.867188 0)"/>
     <use xlink:href="#DejaVuSans-36" transform="translate(463.867188 0)"/>
     <use xlink:href="#DejaVuSans-5f" transform="translate(527.490234 0)"/>
     <use xlink:href="#DejaVuSans-32" transform="translate(577.490234 0)"/>
     <use xlink:href="#DejaVuSans-37" transform="translate(641.113281 0)"/>
     <use xlink:href="#DejaVuSans-5f" transform="translate(704.736328 0)"/>
     <use xlink:href="#DejaVuSans-32" transform="translate(754.736328 0)"/>
     <use xlink:href="#DejaVuSans-33" transform="translate(818.359375 0)"/>
     <use xlink:href="#DejaVuSans-20" transform="translate(881.982422 0)"/>
     <use xlink:href="#DejaVuSans-53" transform="translate(913.769531 0)"/>
     <use xlink:href="#DejaVuSans-74" transform="translate(977.246094 0)"/>
     <use xlink:href="#DejaVuSans-6f" transform="translate(1016.455078 0)"/>
     <use xlink:href="#DejaVuSans-72" transform="translate(1077.636719 0)"/>
     <use xlink:href="#DejaVuSans-6d" transform="translate(1117 0)"/>
     <use xlink:href="#DejaVuSans-3a" transform="translate(1214.412109 0)"/>
     <use xlink:href="#DejaVuSans-20" transform="translate(1248.103516 0)"/>
     <use xlink:href="#DejaVuSans-44" transform="translate(1279.890625 0)"/>
     <use xlink:href="#DejaVuSans-65" transform="translate(1356.892578 0)"/>
     <use xlink:href="#DejaVuSans-70" transform="translate(1418.416016 0)"/>
     <use xlink:href="#DejaVuSans-74" transform="translate(1481.892578 0)"/>
     <use xlink:href="#DejaVuSans-68" transform="translate(1521.101562 0)"/>
     <use xlink:href="#DejaVuSans-20" transform="translate(1584.480469 0)"/>
     <use xlink:href="#DejaVuSans-6f" transform="translate(1616.267578 0)"/>
     <use xlink:href="#DejaVuSans-66" transform="translate(1677.449219 0)"/>
     <use xlink:href="#DejaVuSans-20" transform="translate(1712.654297 0)"/>
     <use xlink:href="#DejaVuSans-46" transform="translate(1744.441406 0)"/>
     <use xlink:href="#DejaVuSans-6c" transform="translate(1801.960938 0)"/>
     <use xlink:href="#DejaVuSans-6f" transform="translate(1829.744141 0)"/>
     <use xlink:href="#DejaVuSans-6f" transform="translate(1890.925781 0)"/>
     <use xlink:href="#DejaVuSans-64" transform="translate(1952.107422 0)"/>
     <use xlink:href="#DejaVuSans-69" transform="translate(2015.583984 0)"/>
     <use xlink:href="#DejaVuSans-6e" transform="translate(2043.367188 0)"/>
     <use xlink:href="#DejaVuSans-67" transform="translate(2106.746094 0)"/>
    </g>
   </g>
   <g id="legend_1">
    <g id="patch_7">
     <path d="M 563.015 292.28125 
L 707.1025 292.28125 
Q 709.1025 292.28125 709.1025 290.28125 
L 709.1025 -2.28125 
Q 709.1025 -4.28125 707.1025 -4.28125 
L 563.015 -4.28125 
Q 561.015 -4.28125 561.015 -2.28125 
L 561.015 290.28125 
Q 561.015 292.28125 563.015 292.28125 
z
" style="fill: #ffffff; opacity: 0.8; stroke: #cccccc; stroke-linejoin: miter"/>
    </g>
    <g id="text_17">
     <!-- Neighborhood -->
     <g transform="translate(599.84625 7.317187) scale(0.1 -0.1)">
      <defs>
       <path id="DejaVuSans-4e" d="M 628 4666 
L 1478 4666 
L 3547 763 
L 3547 4666 
L 4159 4666 
L 4159 0 
L 3309 0 
L 1241 3903 
L 1241 0 
L 628 0 
L 628 4666 
z
" transform="scale(0.015625)"/>
       <path id="DejaVuSans-62" d="M 3116 1747 
Q 3116 2381 2855 2742 
Q 2594 3103 2138 3103 
Q 1681 3103 1420 2742 
Q 1159 2381 1159 1747 
Q 1159 1113 1420 752 
Q 1681 391 2138 391 
Q 2594 391 2855 752 
Q 3116 1113 3116 1747 
z
M 1159 2969 
Q 1341 3281 1617 3432 
Q 1894 3584 2278 3584 
Q 2916 3584 3314 3078 
Q 3713 2572 3713 1747 
Q 3713 922 3314 415 
Q 2916 -91 2278 -91 
Q 1894 -91 1617 61 
Q 1341 213 1159 525 
L 1159 0 
L 581 0 
L 581 4863 
L 1159 4863 
L 1159 2969 
z
" transform="scale(0.015625)"/>
      </defs>
      <use xlink:href="#DejaVuSans-4e"/>
      <use xlink:href="#DejaVuSans-65" transform="translate(74.804688 0)"/>
      <use xlink:href="#DejaVuSans-69" transform="translate(136.328125 0)"/>
      <use xlink:href="#DejaVuSans-67" transform="translate(164.111328 0)"/>
      <use xlink:href="#DejaVuSans-68" transform="translate(227.587891 0)"/>
      <use xlink:href="#DejaVuSans-62" transform="translate(290.966797 0)"/>
      <use xlink:href="#DejaVuSans-6f" transform="translate(354.443359 0)"/>
      <use xlink:href="#DejaVuSans-72" transform="translate(415.625 0)"/>
      <use xlink:href="#DejaVuSans-68" transform="translate(454.988281 0)"/>
      <use xlink:href="#DejaVuSans-6f" transform="translate(518.367188 0)"/>
      <use xlink:href="#DejaVuSans-6f" transform="translate(579.548828 0)"/>
      <use xlink:href="#DejaVuSans-64" transform="translate(640.730469 0)"/>
     </g>
    </g>
    <g id="patch_8">
     <path d="M 565.015 21.995313 
L 585.015 21.995313 
L 585.015 14.995313 
L 565.015 14.995313 
z
" style="fill: #d3d3d3; stroke: #d3d3d3; stroke-linejoin: miter"/>
    </g>
    <g id="text_18">
     <!-- Baltimore Highlands -->
     <g transform="translate(593.015 21.995313) scale(0.1 -0.1)">
      <defs>
       <path id="DejaVuSans-48" d="M 628 4666 
L 1259 4666 
L 1259 2753 
L 3553 2753 
L 3553 4666 
L 4184 4666 
L 4184 0 
L 3553 0 
L 3553 2222 
L 1259 2222 
L 1259 0 
L 628 0 
L 628 4666 
z
" transform="scale(0.015625)"/>
      </defs>
      <use xlink:href="#DejaVuSans-42"/>
      <use xlink:href="#DejaVuSans-61" transform="translate(68.603516 0)"/>
      <use xlink:href="#DejaVuSans-6c" transform="translate(129.882812 0)"/>
      <use xlink:href="#DejaVuSans-74" transform="translate(157.666016 0)"/>
      <use xlink:href="#DejaVuSans-69" transform="translate(196.875 0)"/>
      <use xlink:href="#DejaVuSans-6d" transform="translate(224.658203 0)"/>
      <use xlink:href="#DejaVuSans-6f" transform="translate(322.070312 0)"/>
      <use xlink:href="#DejaVuSans-72" transform="translate(383.251953 0)"/>
      <use xlink:href="#DejaVuSans-65" transform="translate(422.115234 0)"/>
      <use xlink:href="#DejaVuSans-20" transform="translate(483.638672 0)"/>
      <use xlink:href="#DejaVuSans-48" transform="translate(515.425781 0)"/>
      <use xlink:href="#DejaVuSans-69" transform="translate(590.621094 0)"/>
      <use xlink:href="#DejaVuSans-67" transform="translate(618.404297 0)"/>
      <use xlink:href="#DejaVuSans-68" transform="translate(681.880859 0)"/>
      <use xlink:href="#DejaVuSans-6c" transform="translate(745.259766 0)"/>
      <use xlink:href="#DejaVuSans-61" transform="translate(773.042969 0)"/>
      <use xlink:href="#DejaVuSans-6e" transform="translate(834.322266 0)"/>
      <use xlink:href="#DejaVuSans-64" transform="translate(897.701172 0)"/>
      <use xlink:href="#DejaVuSans-73" transform="translate(961.177734 0)"/>
     </g>
    </g>
    <g id="patch_9">
     <path d="M 565.015 36.673438 
L 585.015 36.673438 
L 585.015 29.673438 
L 565.015 29.673438 
z
" style="fill: #d3d3d3; stroke: #d3d3d3; stroke-linejoin: miter"/>
    </g>
    <g id="text_19">
     <!-- Berea -->
     <g transform="translate(593.015 36.673438) scale(0.1 -0.1)">
      <use xlink:href="#DejaVuSans-42"/>
      <use xlink:href="#DejaVuSans-65" transform="translate(68.603516 0)"/>
      <use xlink:href="#DejaVuSans-72" transform="translate(130.126953 0)"/>
      <use xlink:href="#DejaVuSans-65" transform="translate(168.990234 0)"/>
      <use xlink:href="#DejaVuSans-61" transform="translate(230.513672 0)"/>
     </g>
    </g>
    <g id="patch_10">
     <path d="M 565.015 51.351563 
L 585.015 51.351563 
L 585.015 44.351563 
L 565.015 44.351563 
z
" style="fill: #9370db; stroke: #9370db; stroke-linejoin: miter"/>
    </g>
    <g id="text_20">
     <!-- Broadway East -->
     <g transform="translate(593.015 51.351563) scale(0.1 -0.1)">
      <defs>
       <path id="DejaVuSans-77" d="M 269 3500 
L 844 3500 
L 1563 769 
L 2278 3500 
L 2956 3500 
L 3675 769 
L 4391 3500 
L 4966 3500 
L 4050 0 
L 3372 0 
L 2619 2869 
L 1863 0 
L 1184 0 
L 269 3500 
z
" transform="scale(0.015625)"/>
       <path id="DejaVuSans-79" d="M 2059 -325 
Q 1816 -950 1584 -1140 
Q 1353 -1331 966 -1331 
L 506 -1331 
L 506 -850 
L 844 -850 
Q 1081 -850 1212 -737 
Q 1344 -625 1503 -206 
L 1606 56 
L 191 3500 
L 800 3500 
L 1894 763 
L 2988 3500 
L 3597 3500 
L 2059 -325 
z
" transform="scale(0.015625)"/>
       <path id="DejaVuSans-45" d="M 628 4666 
L 3578 4666 
L 3578 4134 
L 1259 4134 
L 1259 2753 
L 3481 2753 
L 3481 2222 
L 1259 2222 
L 1259 531 
L 3634 531 
L 3634 0 
L 628 0 
L 628 4666 
z
" transform="scale(0.015625)"/>
      </defs>
      <use xlink:href="#DejaVuSans-42"/>
      <use xlink:href="#DejaVuSans-72" transform="translate(68.603516 0)"/>
      <use xlink:href="#DejaVuSans-6f" transform="translate(107.466797 0)"/>
      <use xlink:href="#DejaVuSans-61" transform="translate(168.648438 0)"/>
      <use xlink:href="#DejaVuSans-64" transform="translate(229.927734 0)"/>
      <use xlink:href="#DejaVuSans-77" transform="translate(293.404297 0)"/>
      <use xlink:href="#DejaVuSans-61" transform="translate(375.191406 0)"/>
      <use xlink:href="#DejaVuSans-79" transform="translate(436.470703 0)"/>
      <use xlink:href="#DejaVuSans-20" transform="translate(495.650391 0)"/>
      <use xlink:href="#DejaVuSans-45" transform="translate(527.4375 0)"/>
      <use xlink:href="#DejaVuSans-61" transform="translate(590.621094 0)"/>
      <use xlink:href="#DejaVuSans-73" transform="translate(651.900391 0)"/>
      <use xlink:href="#DejaVuSans-74" transform="translate(704 0)"/>
     </g>
    </g>
    <g id="patch_11">
     <path d="M 565.015 66.029688 
L 585.015 66.029688 
L 585.015 59.029688 
L 565.015 59.029688 
z
" style="fill: #d3d3d3; stroke: #d3d3d3; stroke-linejoin: miter"/>
    </g>
    <g id="text_21">
     <!-- Canton -->
     <g transform="translate(593.015 66.029688) scale(0.1 -0.1)">
      <defs>
       <path id="DejaVuSans-43" d="M 4122 4306 
L 4122 3641 
Q 3803 3938 3442 4084 
Q 3081 4231 2675 4231 
Q 1875 4231 1450 3742 
Q 1025 3253 1025 2328 
Q 1025 1406 1450 917 
Q 1875 428 2675 428 
Q 3081 428 3442 575 
Q 3803 722 4122 1019 
L 4122 359 
Q 3791 134 3420 21 
Q 3050 -91 2638 -91 
Q 1578 -91 968 557 
Q 359 1206 359 2328 
Q 359 3453 968 4101 
Q 1578 4750 2638 4750 
Q 3056 4750 3426 4639 
Q 3797 4528 4122 4306 
z
" transform="scale(0.015625)"/>
      </defs>
      <use xlink:href="#DejaVuSans-43"/>
      <use xlink:href="#DejaVuSans-61" transform="translate(69.824219 0)"/>
      <use xlink:href="#DejaVuSans-6e" transform="translate(131.103516 0)"/>
      <use xlink:href="#DejaVuSans-74" transform="translate(194.482422 0)"/>
      <use xlink:href="#DejaVuSans-6f" transform="translate(233.691406 0)"/>
      <use xlink:href="#DejaVuSans-6e" transform="translate(294.873047 0)"/>
     </g>
    </g>
    <g id="patch_12">
     <path d="M 565.015 80.707813 
L 585.015 80.707813 
L 585.015 73.707813 
L 565.015 73.707813 
z
" style="fill: #d3d3d3; stroke: #d3d3d3; stroke-linejoin: miter"/>
    </g>
    <g id="text_22">
     <!-- Canton Industrial Area -->
     <g transform="translate(593.015 80.707813) scale(0.1 -0.1)">
      <defs>
       <path id="DejaVuSans-75" d="M 544 1381 
L 544 3500 
L 1119 3500 
L 1119 1403 
Q 1119 906 1312 657 
Q 1506 409 1894 409 
Q 2359 409 2629 706 
Q 2900 1003 2900 1516 
L 2900 3500 
L 3475 3500 
L 3475 0 
L 2900 0 
L 2900 538 
Q 2691 219 2414 64 
Q 2138 -91 1772 -91 
Q 1169 -91 856 284 
Q 544 659 544 1381 
z
M 1991 3584 
L 1991 3584 
z
" transform="scale(0.015625)"/>
       <path id="DejaVuSans-41" d="M 2188 4044 
L 1331 1722 
L 3047 1722 
L 2188 4044 
z
M 1831 4666 
L 2547 4666 
L 4325 0 
L 3669 0 
L 3244 1197 
L 1141 1197 
L 716 0 
L 50 0 
L 1831 4666 
z
" transform="scale(0.015625)"/>
      </defs>
      <use xlink:href="#DejaVuSans-43"/>
      <use xlink:href="#DejaVuSans-61" transform="translate(69.824219 0)"/>
      <use xlink:href="#DejaVuSans-6e" transform="translate(131.103516 0)"/>
      <use xlink:href="#DejaVuSans-74" transform="translate(194.482422 0)"/>
      <use xlink:href="#DejaVuSans-6f" transform="translate(233.691406 0)"/>
      <use xlink:href="#DejaVuSans-6e" transform="translate(294.873047 0)"/>
      <use xlink:href="#DejaVuSans-20" transform="translate(358.251953 0)"/>
      <use xlink:href="#DejaVuSans-49" transform="translate(390.039062 0)"/>
      <use xlink:href="#DejaVuSans-6e" transform="translate(419.53125 0)"/>
      <use xlink:href="#DejaVuSans-64" transform="translate(482.910156 0)"/>
      <use xlink:href="#DejaVuSans-75" transform="translate(546.386719 0)"/>
      <use xlink:href="#DejaVuSans-73" transform="translate(609.765625 0)"/>
      <use xlink:href="#DejaVuSans-74" transform="translate(661.865234 0)"/>
      <use xlink:href="#DejaVuSans-72" transform="translate(701.074219 0)"/>
      <use xlink:href="#DejaVuSans-69" transform="translate(742.1875 0)"/>
      <use xlink:href="#DejaVuSans-61" transform="translate(769.970703 0)"/>
      <use xlink:href="#DejaVuSans-6c" transform="translate(831.25 0)"/>
      <use xlink:href="#DejaVuSans-20" transform="translate(859.033203 0)"/>
      <use xlink:href="#DejaVuSans-41" transform="translate(890.820312 0)"/>
      <use xlink:href="#DejaVuSans-72" transform="translate(959.228516 0)"/>
      <use xlink:href="#DejaVuSans-65" transform="translate(998.091797 0)"/>
      <use xlink:href="#DejaVuSans-61" transform="translate(1059.615234 0)"/>
     </g>
    </g>
    <g id="patch_13">
     <path d="M 565.015 95.385938 
L 585.015 95.385938 
L 585.015 88.385938 
L 565.015 88.385938 
z
" style="fill: #d3d3d3; stroke: #d3d3d3; stroke-linejoin: miter"/>
    </g>
    <g id="text_23">
     <!-- Clifton Park -->
     <g transform="translate(593.015 95.385938) scale(0.1 -0.1)">
      <defs>
       <path id="DejaVuSans-50" d="M 1259 4147 
L 1259 2394 
L 2053 2394 
Q 2494 2394 2734 2622 
Q 2975 2850 2975 3272 
Q 2975 3691 2734 3919 
Q 2494 4147 2053 4147 
L 1259 4147 
z
M 628 4666 
L 2053 4666 
Q 2838 4666 3239 4311 
Q 3641 3956 3641 3272 
Q 3641 2581 3239 2228 
Q 2838 1875 2053 1875 
L 1259 1875 
L 1259 0 
L 628 0 
L 628 4666 
z
" transform="scale(0.015625)"/>
       <path id="DejaVuSans-6b" d="M 581 4863 
L 1159 4863 
L 1159 1991 
L 2875 3500 
L 3609 3500 
L 1753 1863 
L 3688 0 
L 2938 0 
L 1159 1709 
L 1159 0 
L 581 0 
L 581 4863 
z
" transform="scale(0.015625)"/>
      </defs>
      <use xlink:href="#DejaVuSans-43"/>
      <use xlink:href="#DejaVuSans-6c" transform="translate(69.824219 0)"/>
      <use xlink:href="#DejaVuSans-69" transform="translate(97.607422 0)"/>
      <use xlink:href="#DejaVuSans-66" transform="translate(125.390625 0)"/>
      <use xlink:href="#DejaVuSans-74" transform="translate(158.845703 0)"/>
      <use xlink:href="#DejaVuSans-6f" transform="translate(198.054688 0)"/>
      <use xlink:href="#DejaVuSans-6e" transform="translate(259.236328 0)"/>
      <use xlink:href="#DejaVuSans-20" transform="translate(322.615234 0)"/>
      <use xlink:href="#DejaVuSans-50" transform="translate(354.402344 0)"/>
      <use xlink:href="#DejaVuSans-61" transform="translate(410.205078 0)"/>
      <use xlink:href="#DejaVuSans-72" transform="translate(471.484375 0)"/>
      <use xlink:href="#DejaVuSans-6b" transform="translate(512.597656 0)"/>
     </g>
    </g>
    <g id="patch_14">
     <path d="M 565.015 110.064063 
L 585.015 110.064063 
L 585.015 103.064063 
L 565.015 103.064063 
z
" style="fill: #d3d3d3; stroke: #d3d3d3; stroke-linejoin: miter"/>
    </g>
    <g id="text_24">
     <!-- Downtown -->
     <g transform="translate(593.015 110.064063) scale(0.1 -0.1)">
      <use xlink:href="#DejaVuSans-44"/>
      <use xlink:href="#DejaVuSans-6f" transform="translate(77.001953 0)"/>
      <use xlink:href="#DejaVuSans-77" transform="translate(138.183594 0)"/>
      <use xlink:href="#DejaVuSans-6e" transform="translate(219.970703 0)"/>
      <use xlink:href="#DejaVuSans-74" transform="translate(283.349609 0)"/>
      <use xlink:href="#DejaVuSans-6f" transform="translate(322.558594 0)"/>
      <use xlink:href="#DejaVuSans-77" transform="translate(383.740234 0)"/>
      <use xlink:href="#DejaVuSans-6e" transform="translate(465.527344 0)"/>
     </g>
    </g>
    <g id="patch_15">
     <path d="M 565.015 124.742188 
L 585.015 124.742188 
L 585.015 117.742188 
L 565.015 117.742188 
z
" style="fill: #9370db; stroke: #9370db; stroke-linejoin: miter"/>
    </g>
    <g id="text_25">
     <!-- Dunbar-Broadway -->
     <g transform="translate(593.015 124.742188) scale(0.1 -0.1)">
      <defs>
       <path id="DejaVuSans-2d" d="M 313 2009 
L 1997 2009 
L 1997 1497 
L 313 1497 
L 313 2009 
z
" transform="scale(0.015625)"/>
      </defs>
      <use xlink:href="#DejaVuSans-44"/>
      <use xlink:href="#DejaVuSans-75" transform="translate(77.001953 0)"/>
      <use xlink:href="#DejaVuSans-6e" transform="translate(140.380859 0)"/>
      <use xlink:href="#DejaVuSans-62" transform="translate(203.759766 0)"/>
      <use xlink:href="#DejaVuSans-61" transform="translate(267.236328 0)"/>
      <use xlink:href="#DejaVuSans-72" transform="translate(328.515625 0)"/>
      <use xlink:href="#DejaVuSans-2d" transform="translate(363.253906 0)"/>
      <use xlink:href="#DejaVuSans-42" transform="translate(395.712891 0)"/>
      <use xlink:href="#DejaVuSans-72" transform="translate(464.316406 0)"/>
      <use xlink:href="#DejaVuSans-6f" transform="translate(503.179688 0)"/>
      <use xlink:href="#DejaVuSans-61" transform="translate(564.361328 0)"/>
      <use xlink:href="#DejaVuSans-64" transform="translate(625.640625 0)"/>
      <use xlink:href="#DejaVuSans-77" transform="translate(689.117188 0)"/>
      <use xlink:href="#DejaVuSans-61" transform="translate(770.904297 0)"/>
      <use xlink:href="#DejaVuSans-79" transform="translate(832.183594 0)"/>
     </g>
    </g>
    <g id="patch_16">
     <path d="M 565.015 139.420313 
L 585.015 139.420313 
L 585.015 132.420313 
L 565.015 132.420313 
z
" style="fill: #9370db; stroke: #9370db; stroke-linejoin: miter"/>
    </g>
    <g id="text_26">
     <!-- Eager Park -->
     <g transform="translate(593.015 139.420313) scale(0.1 -0.1)">
      <use xlink:href="#DejaVuSans-45"/>
      <use xlink:href="#DejaVuSans-61" transform="translate(63.183594 0)"/>
      <use xlink:href="#DejaVuSans-67" transform="translate(124.462891 0)"/>
      <use xlink:href="#DejaVuSans-65" transform="translate(187.939453 0)"/>
      <use xlink:href="#DejaVuSans-72" transform="translate(249.462891 0)"/>
      <use xlink:href="#DejaVuSans-20" transform="translate(290.576172 0)"/>
      <use xlink:href="#DejaVuSans-50" transform="translate(322.363281 0)"/>
      <use xlink:href="#DejaVuSans-61" transform="translate(378.166016 0)"/>
      <use xlink:href="#DejaVuSans-72" transform="translate(439.445312 0)"/>
      <use xlink:href="#DejaVuSans-6b" transform="translate(480.558594 0)"/>
     </g>
    </g>
    <g id="patch_17">
     <path d="M 565.015 154.098437 
L 585.015 154.098437 
L 585.015 147.098437 
L 565.015 147.098437 
z
" style="fill: #d3d3d3; stroke: #d3d3d3; stroke-linejoin: miter"/>
    </g>
    <g id="text_27">
     <!-- Federal Hill -->
     <g transform="translate(593.015 154.098437) scale(0.1 -0.1)">
      <use xlink:href="#DejaVuSans-46"/>
      <use xlink:href="#DejaVuSans-65" transform="translate(52.019531 0)"/>
      <use xlink:href="#DejaVuSans-64" transform="translate(113.542969 0)"/>
      <use xlink:href="#DejaVuSans-65" transform="translate(177.019531 0)"/>
      <use xlink:href="#DejaVuSans-72" transform="translate(238.542969 0)"/>
      <use xlink:href="#DejaVuSans-61" transform="translate(279.65625 0)"/>
      <use xlink:href="#DejaVuSans-6c" transform="translate(340.935547 0)"/>
      <use xlink:href="#DejaVuSans-20" transform="translate(368.71875 0)"/>
      <use xlink:href="#DejaVuSans-48" transform="translate(400.505859 0)"/>
      <use xlink:href="#DejaVuSans-69" transform="translate(475.701172 0)"/>
      <use xlink:href="#DejaVuSans-6c" transform="translate(503.484375 0)"/>
      <use xlink:href="#DejaVuSans-6c" transform="translate(531.267578 0)"/>
     </g>
    </g>
    <g id="patch_18">
     <path d="M 565.015 168.776562 
L 585.015 168.776562 
L 585.015 161.776562 
L 565.015 161.776562 
z
" style="fill: #d3d3d3; stroke: #d3d3d3; stroke-linejoin: miter"/>
    </g>
    <g id="text_28">
     <!-- Fells Point -->
     <g transform="translate(593.015 168.776562) scale(0.1 -0.1)">
      <use xlink:href="#DejaVuSans-46"/>
      <use xlink:href="#DejaVuSans-65" transform="translate(52.019531 0)"/>
      <use xlink:href="#DejaVuSans-6c" transform="translate(113.542969 0)"/>
      <use xlink:href="#DejaVuSans-6c" transform="translate(141.326172 0)"/>
      <use xlink:href="#DejaVuSans-73" transform="translate(169.109375 0)"/>
      <use xlink:href="#DejaVuSans-20" transform="translate(221.208984 0)"/>
      <use xlink:href="#DejaVuSans-50" transform="translate(252.996094 0)"/>
      <use xlink:href="#DejaVuSans-6f" transform="translate(309.673828 0)"/>
      <use xlink:href="#DejaVuSans-69" transform="translate(370.855469 0)"/>
      <use xlink:href="#DejaVuSans-6e" transform="translate(398.638672 0)"/>
      <use xlink:href="#DejaVuSans-74" transform="translate(462.017578 0)"/>
     </g>
    </g>
    <g id="patch_19">
     <path d="M 565.015 183.454687 
L 585.015 183.454687 
L 585.015 176.454687 
L 565.015 176.454687 
z
" style="fill: #d3d3d3; stroke: #d3d3d3; stroke-linejoin: miter"/>
    </g>
    <g id="text_29">
     <!-- Kresson -->
     <g transform="translate(593.015 183.454687) scale(0.1 -0.1)">
      <defs>
       <path id="DejaVuSans-4b" d="M 628 4666 
L 1259 4666 
L 1259 2694 
L 3353 4666 
L 4166 4666 
L 1850 2491 
L 4331 0 
L 3500 0 
L 1259 2247 
L 1259 0 
L 628 0 
L 628 4666 
z
" transform="scale(0.015625)"/>
      </defs>
      <use xlink:href="#DejaVuSans-4b"/>
      <use xlink:href="#DejaVuSans-72" transform="translate(65.576172 0)"/>
      <use xlink:href="#DejaVuSans-65" transform="translate(104.439453 0)"/>
      <use xlink:href="#DejaVuSans-73" transform="translate(165.962891 0)"/>
      <use xlink:href="#DejaVuSans-73" transform="translate(218.0625 0)"/>
      <use xlink:href="#DejaVuSans-6f" transform="translate(270.162109 0)"/>
      <use xlink:href="#DejaVuSans-6e" transform="translate(331.34375 0)"/>
     </g>
    </g>
    <g id="patch_20">
     <path d="M 565.015 198.132812 
L 585.015 198.132812 
L 585.015 191.132812 
L 565.015 191.132812 
z
" style="fill: #d3d3d3; stroke: #d3d3d3; stroke-linejoin: miter"/>
    </g>
    <g id="text_30">
     <!-- Locust Point -->
     <g transform="translate(593.015 198.132812) scale(0.1 -0.1)">
      <defs>
       <path id="DejaVuSans-4c" d="M 628 4666 
L 1259 4666 
L 1259 531 
L 3531 531 
L 3531 0 
L 628 0 
L 628 4666 
z
" transform="scale(0.015625)"/>
       <path id="DejaVuSans-63" d="M 3122 3366 
L 3122 2828 
Q 2878 2963 2633 3030 
Q 2388 3097 2138 3097 
Q 1578 3097 1268 2742 
Q 959 2388 959 1747 
Q 959 1106 1268 751 
Q 1578 397 2138 397 
Q 2388 397 2633 464 
Q 2878 531 3122 666 
L 3122 134 
Q 2881 22 2623 -34 
Q 2366 -91 2075 -91 
Q 1284 -91 818 406 
Q 353 903 353 1747 
Q 353 2603 823 3093 
Q 1294 3584 2113 3584 
Q 2378 3584 2631 3529 
Q 2884 3475 3122 3366 
z
" transform="scale(0.015625)"/>
      </defs>
      <use xlink:href="#DejaVuSans-4c"/>
      <use xlink:href="#DejaVuSans-6f" transform="translate(53.962891 0)"/>
      <use xlink:href="#DejaVuSans-63" transform="translate(115.144531 0)"/>
      <use xlink:href="#DejaVuSans-75" transform="translate(170.125 0)"/>
      <use xlink:href="#DejaVuSans-73" transform="translate(233.503906 0)"/>
      <use xlink:href="#DejaVuSans-74" transform="translate(285.603516 0)"/>
      <use xlink:href="#DejaVuSans-20" transform="translate(324.8125 0)"/>
      <use xlink:href="#DejaVuSans-50" transform="translate(356.599609 0)"/>
      <use xlink:href="#DejaVuSans-6f" transform="translate(413.277344 0)"/>
      <use xlink:href="#DejaVuSans-69" transform="translate(474.458984 0)"/>
      <use xlink:href="#DejaVuSans-6e" transform="translate(502.242188 0)"/>
      <use xlink:href="#DejaVuSans-74" transform="translate(565.621094 0)"/>
     </g>
    </g>
    <g id="patch_21">
     <path d="M 565.015 212.810937 
L 585.015 212.810937 
L 585.015 205.810937 
L 565.015 205.810937 
z
" style="fill: #d3d3d3; stroke: #d3d3d3; stroke-linejoin: miter"/>
    </g>
    <g id="text_31">
     <!-- Madison-Eastend -->
     <g transform="translate(593.015 212.810937) scale(0.1 -0.1)">
      <defs>
       <path id="DejaVuSans-4d" d="M 628 4666 
L 1569 4666 
L 2759 1491 
L 3956 4666 
L 4897 4666 
L 4897 0 
L 4281 0 
L 4281 4097 
L 3078 897 
L 2444 897 
L 1241 4097 
L 1241 0 
L 628 0 
L 628 4666 
z
" transform="scale(0.015625)"/>
      </defs>
      <use xlink:href="#DejaVuSans-4d"/>
      <use xlink:href="#DejaVuSans-61" transform="translate(86.279297 0)"/>
      <use xlink:href="#DejaVuSans-64" transform="translate(147.558594 0)"/>
      <use xlink:href="#DejaVuSans-69" transform="translate(211.035156 0)"/>
      <use xlink:href="#DejaVuSans-73" transform="translate(238.818359 0)"/>
      <use xlink:href="#DejaVuSans-6f" transform="translate(290.917969 0)"/>
      <use xlink:href="#DejaVuSans-6e" transform="translate(352.099609 0)"/>
      <use xlink:href="#DejaVuSans-2d" transform="translate(415.478516 0)"/>
      <use xlink:href="#DejaVuSans-45" transform="translate(451.5625 0)"/>
      <use xlink:href="#DejaVuSans-61" transform="translate(514.746094 0)"/>
      <use xlink:href="#DejaVuSans-73" transform="translate(576.025391 0)"/>
      <use xlink:href="#DejaVuSans-74" transform="translate(628.125 0)"/>
      <use xlink:href="#DejaVuSans-65" transform="translate(667.333984 0)"/>
      <use xlink:href="#DejaVuSans-6e" transform="translate(728.857422 0)"/>
      <use xlink:href="#DejaVuSans-64" transform="translate(792.236328 0)"/>
     </g>
    </g>
    <g id="patch_22">
     <path d="M 565.015 227.489062 
L 585.015 227.489062 
L 585.015 220.489062 
L 565.015 220.489062 
z
" style="fill: #d3d3d3; stroke: #d3d3d3; stroke-linejoin: miter"/>
    </g>
    <g id="text_32">
     <!-- McElderry Park -->
     <g transform="translate(593.015 227.489062) scale(0.1 -0.1)">
      <use xlink:href="#DejaVuSans-4d"/>
      <use xlink:href="#DejaVuSans-63" transform="translate(86.279297 0)"/>
      <use xlink:href="#DejaVuSans-45" transform="translate(141.259766 0)"/>
      <use xlink:href="#DejaVuSans-6c" transform="translate(204.443359 0)"/>
      <use xlink:href="#DejaVuSans-64" transform="translate(232.226562 0)"/>
      <use xlink:href="#DejaVuSans-65" transform="translate(295.703125 0)"/>
      <use xlink:href="#DejaVuSans-72" transform="translate(357.226562 0)"/>
      <use xlink:href="#DejaVuSans-72" transform="translate(396.589844 0)"/>
      <use xlink:href="#DejaVuSans-79" transform="translate(437.703125 0)"/>
      <use xlink:href="#DejaVuSans-20" transform="translate(496.882812 0)"/>
      <use xlink:href="#DejaVuSans-50" transform="translate(528.669922 0)"/>
      <use xlink:href="#DejaVuSans-61" transform="translate(584.472656 0)"/>
      <use xlink:href="#DejaVuSans-72" transform="translate(645.751953 0)"/>
      <use xlink:href="#DejaVuSans-6b" transform="translate(686.865234 0)"/>
     </g>
    </g>
    <g id="patch_23">
     <path d="M 565.015 242.167187 
L 585.015 242.167187 
L 585.015 235.167187 
L 565.015 235.167187 
z
" style="fill: #d3d3d3; stroke: #d3d3d3; stroke-linejoin: miter"/>
    </g>
    <g id="text_33">
     <!-- Orangeville -->
     <g transform="translate(593.015 242.167187) scale(0.1 -0.1)">
      <defs>
       <path id="DejaVuSans-4f" d="M 2522 4238 
Q 1834 4238 1429 3725 
Q 1025 3213 1025 2328 
Q 1025 1447 1429 934 
Q 1834 422 2522 422 
Q 3209 422 3611 934 
Q 4013 1447 4013 2328 
Q 4013 3213 3611 3725 
Q 3209 4238 2522 4238 
z
M 2522 4750 
Q 3503 4750 4090 4092 
Q 4678 3434 4678 2328 
Q 4678 1225 4090 567 
Q 3503 -91 2522 -91 
Q 1538 -91 948 565 
Q 359 1222 359 2328 
Q 359 3434 948 4092 
Q 1538 4750 2522 4750 
z
" transform="scale(0.015625)"/>
       <path id="DejaVuSans-76" d="M 191 3500 
L 800 3500 
L 1894 563 
L 2988 3500 
L 3597 3500 
L 2284 0 
L 1503 0 
L 191 3500 
z
" transform="scale(0.015625)"/>
      </defs>
      <use xlink:href="#DejaVuSans-4f"/>
      <use xlink:href="#DejaVuSans-72" transform="translate(78.710938 0)"/>
      <use xlink:href="#DejaVuSans-61" transform="translate(119.824219 0)"/>
      <use xlink:href="#DejaVuSans-6e" transform="translate(181.103516 0)"/>
      <use xlink:href="#DejaVuSans-67" transform="translate(244.482422 0)"/>
      <use xlink:href="#DejaVuSans-65" transform="translate(307.958984 0)"/>
      <use xlink:href="#DejaVuSans-76" transform="translate(369.482422 0)"/>
      <use xlink:href="#DejaVuSans-69" transform="translate(428.662109 0)"/>
      <use xlink:href="#DejaVuSans-6c" transform="translate(456.445312 0)"/>
      <use xlink:href="#DejaVuSans-6c" transform="translate(484.228516 0)"/>
      <use xlink:href="#DejaVuSans-65" transform="translate(512.011719 0)"/>
     </g>
    </g>
    <g id="patch_24">
     <path d="M 565.015 256.845312 
L 585.015 256.845312 
L 585.015 249.845312 
L 565.015 249.845312 
z
" style="fill: #d3d3d3; stroke: #d3d3d3; stroke-linejoin: miter"/>
    </g>
    <g id="text_34">
     <!-- Patterson Park -->
     <g transform="translate(593.015 256.845312) scale(0.1 -0.1)">
      <use xlink:href="#DejaVuSans-50"/>
      <use xlink:href="#DejaVuSans-61" transform="translate(55.802734 0)"/>
      <use xlink:href="#DejaVuSans-74" transform="translate(117.082031 0)"/>
      <use xlink:href="#DejaVuSans-74" transform="translate(156.291016 0)"/>
      <use xlink:href="#DejaVuSans-65" transform="translate(195.5 0)"/>
      <use xlink:href="#DejaVuSans-72" transform="translate(257.023438 0)"/>
      <use xlink:href="#DejaVuSans-73" transform="translate(298.136719 0)"/>
      <use xlink:href="#DejaVuSans-6f" transform="translate(350.236328 0)"/>
      <use xlink:href="#DejaVuSans-6e" transform="translate(411.417969 0)"/>
      <use xlink:href="#DejaVuSans-20" transform="translate(474.796875 0)"/>
      <use xlink:href="#DejaVuSans-50" transform="translate(506.583984 0)"/>
      <use xlink:href="#DejaVuSans-61" transform="translate(562.386719 0)"/>
      <use xlink:href="#DejaVuSans-72" transform="translate(623.666016 0)"/>
      <use xlink:href="#DejaVuSans-6b" transform="translate(664.779297 0)"/>
     </g>
    </g>
    <g id="patch_25">
     <path d="M 565.015 271.523437 
L 585.015 271.523437 
L 585.015 264.523437 
L 565.015 264.523437 
z
" style="fill: #d3d3d3; stroke: #d3d3d3; stroke-linejoin: miter"/>
    </g>
    <g id="text_35">
     <!-- Upper Fells Point -->
     <g transform="translate(593.015 271.523437) scale(0.1 -0.1)">
      <defs>
       <path id="DejaVuSans-55" d="M 556 4666 
L 1191 4666 
L 1191 1831 
Q 1191 1081 1462 751 
Q 1734 422 2344 422 
Q 2950 422 3222 751 
Q 3494 1081 3494 1831 
L 3494 4666 
L 4128 4666 
L 4128 1753 
Q 4128 841 3676 375 
Q 3225 -91 2344 -91 
Q 1459 -91 1007 375 
Q 556 841 556 1753 
L 556 4666 
z
" transform="scale(0.015625)"/>
      </defs>
      <use xlink:href="#DejaVuSans-55"/>
      <use xlink:href="#DejaVuSans-70" transform="translate(73.193359 0)"/>
      <use xlink:href="#DejaVuSans-70" transform="translate(136.669922 0)"/>
      <use xlink:href="#DejaVuSans-65" transform="translate(200.146484 0)"/>
      <use xlink:href="#DejaVuSans-72" transform="translate(261.669922 0)"/>
      <use xlink:href="#DejaVuSans-20" transform="translate(302.783203 0)"/>
      <use xlink:href="#DejaVuSans-46" transform="translate(334.570312 0)"/>
      <use xlink:href="#DejaVuSans-65" transform="translate(386.589844 0)"/>
      <use xlink:href="#DejaVuSans-6c" transform="translate(448.113281 0)"/>
      <use xlink:href="#DejaVuSans-6c" transform="translate(475.896484 0)"/>
      <use xlink:href="#DejaVuSans-73" transform="translate(503.679688 0)"/>
      <use xlink:href="#DejaVuSans-20" transform="translate(555.779297 0)"/>
      <use xlink:href="#DejaVuSans-50" transform="translate(587.566406 0)"/>
      <use xlink:href="#DejaVuSans-6f" transform="translate(644.244141 0)"/>
      <use xlink:href="#DejaVuSans-69" transform="translate(705.425781 0)"/>
      <use xlink:href="#DejaVuSans-6e" transform="translate(733.208984 0)"/>
      <use xlink:href="#DejaVuSans-74" transform="translate(796.587891 0)"/>
     </g>
    </g>
    <g id="patch_26">
     <path d="M 565.015 286.201562 
L 585.015 286.201562 
L 585.015 279.201562 
L 565.015 279.201562 
z
" style="fill: #d3d3d3; stroke: #d3d3d3; stroke-linejoin: miter"/>
    </g>
    <g id="text_36">
     <!-- Washington Hill -->
     <g transform="translate(593.015 286.201562) scale(0.1 -0.1)">
      <defs>
       <path id="DejaVuSans-57" d="M 213 4666 
L 850 4666 
L 1831 722 
L 2809 4666 
L 3519 4666 
L 4500 722 
L 5478 4666 
L 6119 4666 
L 4947 0 
L 4153 0 
L 3169 4050 
L 2175 0 
L 1381 0 
L 213 4666 
z
" transform="scale(0.015625)"/>
      </defs>
      <use xlink:href="#DejaVuSans-57"/>
      <use xlink:href="#DejaVuSans-61" transform="translate(92.501953 0)"/>
      <use xlink:href="#DejaVuSans-73" transform="translate(153.78125 0)"/>
      <use xlink:href="#DejaVuSans-68" transform="translate(205.880859 0)"/>
      <use xlink:href="#DejaVuSans-69" transform="translate(269.259766 0)"/>
      <use xlink:href="#DejaVuSans-6e" transform="translate(297.042969 0)"/>
      <use xlink:href="#DejaVuSans-67" transform="translate(360.421875 0)"/>
      <use xlink:href="#DejaVuSans-74" transform="translate(423.898438 0)"/>
      <use xlink:href="#DejaVuSans-6f" transform="translate(463.107422 0)"/>
      <use xlink:href="#DejaVuSans-6e" transform="translate(524.289062 0)"/>
      <use xlink:href="#DejaVuSans-20" transform="translate(587.667969 0)"/>
      <use xlink:href="#DejaVuSans-48" transform="translate(619.455078 0)"/>
      <use xlink:href="#DejaVuSans-69" transform="translate(694.650391 0)"/>
      <use xlink:href="#DejaVuSans-6c" transform="translate(722.433594 0)"/>
      <use xlink:href="#DejaVuSans-6c" transform="translate(750.216797 0)"/>
     </g>
    </g>
   </g>
  </g>
 </g>
 <defs>
  <clipPath id="pdba91d608a">
   <rect x="47.765" y="52.22" width="508.25" height="183.56"/>
  </clipPath>
 </defs>
</svg>
